<?xml version="1.0" encoding="UTF-8"?>
<svg width="50px" height="45px" viewBox="0 0 50 45" version="1.1" xmlns="http://www.w3.org/2000/svg" xmlns:xlink="http://www.w3.org/1999/xlink">
    <!-- Generator: Sketch 47.1 (45422) - http://www.bohemiancoding.com/sketch -->
    <title>bot</title>
    <desc>Created with Sketch.</desc>
    <defs></defs>
    <g id="Design-/-Slot-Filling-&amp;-Intent-Detection" stroke="none" stroke-width="1" fill="none" fill-rule="evenodd">
        <g id="Research-slotfilling-/-w1440-/-01e" transform="translate(-90.000000, -341.000000)" fill="#000000">
            <g id="Field" transform="translate(74.000000, 256.000000)">
                <g id="Group-3-+-Group-4-+-Group-4-Mask" transform="translate(5.000000, 0.000000)">
                    <g id="Group-4" transform="translate(11.000000, 85.000000)">
                        <g id="bot">
                            <g id="Page-1">
                                <path d="M15.3017788,21.4293351 C15.3017788,20.379016 16.1599519,19.5244947 17.2147596,19.5244947 C18.2695673,19.5244947 19.1272596,20.379016 19.1272596,21.4293351 C19.1272596,22.4796543 18.2695673,23.3341755 17.2147596,23.3341755 C16.1599519,23.3341755 15.3017788,22.4796543 15.3017788,21.4293351 M22.9527404,21.4293351 C22.9527404,18.2735904 20.3835096,15.7152926 17.2147596,15.7152926 C14.0455288,15.7152926 11.4762981,18.2735904 11.4762981,21.4293351 C11.4762981,24.5850798 14.0455288,27.1433777 17.2147596,27.1433777 C20.3835096,27.1433777 22.9527404,24.5850798 22.9527404,21.4293351" id="Fill-1"></path>
                                <path d="M32.5164904,23.3339362 C31.4621635,23.3339362 30.6035096,22.4794149 30.6035096,21.4290957 C30.6035096,20.3792553 31.4621635,19.524734 32.5164904,19.524734 C33.5712981,19.524734 34.4294712,20.3792553 34.4294712,21.4290957 C34.4294712,22.4794149 33.5712981,23.3339362 32.5164904,23.3339362 M32.5164904,15.7155319 C29.3472596,15.7155319 26.7780288,18.2738298 26.7780288,21.4290957 C26.7780288,24.5848404 29.3472596,27.1431383 32.5164904,27.1431383 C35.6857212,27.1431383 38.2549519,24.5848404 38.2549519,21.4290957 C38.2549519,18.2738298 35.6857212,15.7155319 32.5164904,15.7155319" id="Fill-3"></path>
                                <path d="M32.5164904,30.9724947 L32.5164904,30.9523883 L17.2145673,30.9523883 L17.2145673,30.9724947 C16.5126442,30.9744096 15.8376442,31.3415904 15.5035096,32.0089309 C15.0328365,32.9491436 15.4160096,34.0913777 16.3592788,34.5605266 C16.5328365,34.6462181 20.6366827,36.6664309 24.8655288,36.6664309 C29.0948558,36.6664309 33.1982212,34.6462181 33.3717788,34.5605266 C34.3150481,34.0913777 34.6982212,32.9491436 34.2280288,32.0089309 C33.8934135,31.3415904 33.2188942,30.9739309 32.5164904,30.9724947" id="Fill-5"></path>
                                <g id="Group-9" transform="translate(0.000000, 0.241995)">
                                    <path d="M42.0802404,40.2334468 L7.65091346,40.2334468 L7.65091346,21.1874362 C7.65091346,15.9363191 11.9412981,11.6641915 17.214375,11.6641915 L32.5162981,11.6641915 C37.7898558,11.6641915 42.0802404,15.9363191 42.0802404,21.1874362 L42.0802404,40.2334468 Z M47.8187019,19.2825957 L45.7537981,19.2825957 C44.8235096,12.8241383 39.2600481,7.85498936 32.5162981,7.85498936 L29.483125,7.85498936 L33.8691827,3.48807447 C34.6162981,2.74365957 34.6162981,1.53871277 33.8691827,0.794776596 C33.1215865,0.0508404255 31.9114904,0.0508404255 31.164375,0.794776596 L24.8653365,7.06653191 L18.5672596,0.794776596 C17.8196635,0.0508404255 16.6095673,0.0508404255 15.8624519,0.794776596 C15.1153365,1.53871277 15.1153365,2.74365957 15.8624519,3.48807447 L20.2480288,7.85498936 L17.214375,7.85498936 C10.4711058,7.85498936 4.908125,12.8241383 3.97735577,19.2825957 L1.91245192,19.2825957 C0.856201923,19.2825957 -4.80769231e-05,20.1356809 -4.80769231e-05,21.1874362 C-4.80769231e-05,22.2391915 0.856201923,23.0917979 1.91245192,23.0917979 L3.82543269,23.0917979 L3.82543269,42.1382872 C3.82543269,43.1900426 4.68168269,44.0426489 5.73793269,44.0426489 L43.9932212,44.0426489 C45.0494712,44.0426489 45.9057212,43.1900426 45.9057212,42.1382872 L45.9057212,23.0917979 L47.8187019,23.0917979 C48.8749519,23.0917979 49.7312019,22.2391915 49.7312019,21.1874362 C49.7312019,20.1356809 48.8749519,19.2825957 47.8187019,19.2825957 L47.8187019,19.2825957 Z" id="Fill-7"></path>
                                </g>
                            </g>
                        </g>
                    </g>
                </g>
            </g>
        </g>
    </g>
</svg>