<?xml version="1.0" encoding="UTF-8" standalone="no"?>
<!-- Created with Inkscape (http://www.inkscape.org/) -->

<svg
   xmlns:dc="http://purl.org/dc/elements/1.1/"
   xmlns:cc="http://creativecommons.org/ns#"
   xmlns:rdf="http://www.w3.org/1999/02/22-rdf-syntax-ns#"
   xmlns:svg="http://www.w3.org/2000/svg"
   xmlns="http://www.w3.org/2000/svg"
   xmlns:sodipodi="http://sodipodi.sourceforge.net/DTD/sodipodi-0.dtd"
   xmlns:inkscape="http://www.inkscape.org/namespaces/inkscape"
   width="100"
   height="86.155624"
   id="svg3088"
   version="1.1"
   inkscape:version="0.48.4 r9939"
   sodipodi:docname="bot_smile.svg">
  <defs
     id="defs3090" />
  <sodipodi:namedview
     id="base"
     pagecolor="#ffffff"
     bordercolor="#666666"
     borderopacity="1.0"
     inkscape:pageopacity="0.0"
     inkscape:pageshadow="2"
     inkscape:zoom="0.7"
     inkscape:cx="413.88273"
     inkscape:cy="-140.27183"
     inkscape:document-units="px"
     inkscape:current-layer="layer1"
     showgrid="false"
     fit-margin-top="0"
     fit-margin-left="0"
     fit-margin-right="0"
     fit-margin-bottom="0"
     inkscape:window-width="1247"
     inkscape:window-height="1388"
     inkscape:window-x="1985"
     inkscape:window-y="37"
     inkscape:window-maximized="0" />
  <metadata
     id="metadata3093">
    <rdf:RDF>
      <cc:Work
         rdf:about="">
        <dc:format>image/svg+xml</dc:format>
        <dc:type
           rdf:resource="http://purl.org/dc/dcmitype/StillImage" />
        <dc:title />
      </cc:Work>
    </rdf:RDF>
  </metadata>
  <g
     inkscape:label="Layer 1"
     inkscape:groupmode="layer"
     id="layer1"
     transform="translate(-41.841344,-217.05508)">
    <path
       inkscape:connector-curvature="0"
       id="path3010-3"
       d="m 75.387036,302.68959 c -8.913946,-1.44085 -16.460192,-5.48396 -22.931062,-12.28583 -3.265623,-3.43264 -4.922555,-5.85732 -7.064303,-10.33773 -2.833037,-5.92645 -3.562105,-9.38362 -3.550184,-16.83491 0.0081,-5.20695 0.185805,-7.08566 0.931639,-9.86269 1.171645,-4.36235 4.215272,-10.70301 6.649341,-13.85224 2.380426,-3.07985 7.124038,-7.63071 9.919082,-9.51606 2.625363,-1.77088 2.761897,-1.96361 2.3863,-3.36802 -0.238549,-0.89198 -0.663159,-1.19263 -2.080085,-1.47284 -3.481659,-0.68852 -4.70399,-4.33694 -2.268848,-6.77206 1.817523,-1.81755 4.238471,-1.77067 5.823277,0.11276 1.028464,1.22228 1.12083,1.59648 0.876493,3.55207 -0.246525,1.97297 -0.166079,2.2864 0.82585,3.21827 1.089999,1.02401 1.115471,1.02658 3.128147,0.31542 5.410716,-1.91182 7.232184,-2.11585 20.807061,-2.33073 14.732506,-0.2332 19.542756,0.12634 25.087556,1.87513 l 3.55705,1.12187 1.07194,-1.00705 c 0.96912,-0.91043 1.04498,-1.22304 0.79069,-3.25809 -0.26342,-2.10838 -0.1988,-2.33348 1.0198,-3.55207 1.84591,-1.84589 4.26922,-1.83829 5.83143,0.0183 2.21121,2.62788 0.9701,6.03937 -2.44089,6.70953 -1.67863,0.32979 -1.81718,0.46287 -1.92082,1.84504 -0.10472,1.39652 0.0643,1.60894 2.70358,3.39851 5.72194,3.87972 10.18198,9.10595 13.29975,15.58463 7.51481,15.61565 4.26677,33.66656 -8.24388,45.81504 -5.59056,5.42873 -11.67087,8.74349 -19.28187,10.51183 -4.15579,0.96552 -29.579664,1.23627 -34.927044,0.37191 z"
       style="fill:#cbdae0"
       sodipodi:nodetypes="cscsssssscssssscscsssssssscc" />
    <path
       inkscape:connector-curvature="0"
       id="path3008-6"
       d="m 73.562052,301.78235 c -7.220607,-1.58279 -13.173857,-4.71278 -18.574625,-9.76578 -7.638655,-7.14676 -11.494753,-14.83456 -12.589984,-25.10026 -0.760671,-7.13028 0.470107,-13.85975 3.811202,-20.8377 3.18239,-6.64655 7.609925,-11.70324 13.883326,-15.85611 2.173695,-1.43894 2.465673,-1.79978 2.465673,-3.04705 0,-1.59614 -0.273454,-1.84734 -2.9956,-2.75188 -1.416926,-0.47083 -1.971681,-0.89575 -2.069793,-1.58545 -0.120539,-0.84697 0.01158,-0.9186 1.306292,-0.70848 2.001827,0.32485 2.772961,-0.62695 2.150668,-2.65452 -0.572337,-1.86491 0.243265,-2.03029 1.890249,-0.38329 1.085968,1.08596 1.17023,2.02178 0.368607,4.09246 -0.375468,0.9698 1.749428,3.38334 2.978705,3.38334 0.538975,0 1.824342,-0.30016 2.856365,-0.66702 4.754762,-1.69026 7.319705,-1.90586 22.673769,-1.90586 15.767614,0 18.336894,0.23652 23.513084,2.1645 l 2.28686,0.85179 1.51028,-1.51031 c 1.05527,-1.05525 1.4231,-1.73576 1.22083,-2.25856 -0.82495,-2.13233 -0.74785,-3.0561 0.3464,-4.15034 1.52228,-1.5223 1.99067,-1.39344 1.68917,0.46469 -0.31942,1.96828 0.57414,2.76503 2.71186,2.41813 1.30522,-0.21181 1.43965,-0.14716 1.18296,0.56896 -0.50008,1.39528 -1.0821,1.87996 -2.25757,1.87996 -1.79887,0 -3.04461,1.11943 -3.04461,2.7359 0,1.25815 0.31599,1.61603 3.10225,3.5134 5.91684,4.0292 10.31835,9.19925 13.43744,15.78376 5.15678,10.88605 5.16008,22.61058 0.009,33.49817 -4.97444,10.51513 -14.0624,18.0853 -25.83108,21.51709 -3.58736,1.04609 -33.560123,1.29077 -38.032083,0.31046 z m 32.923078,-1.50217 c 9.88924,-1.7963 16.63746,-5.53027 22.00877,-12.17794 1.33395,-1.65093 2.57772,-3.06601 2.76396,-3.14461 0.18627,-0.0786 0.33863,-0.5979 0.33863,-1.15394 0,-0.55604 0.17748,-1.12066 0.39442,-1.25475 0.79961,-0.49416 2.63115,-4.28821 3.70752,-7.68012 0.89947,-2.83454 1.15384,-4.67196 1.35384,-9.78008 0.2235,-5.70778 0.16647,-6.46173 -0.61624,-8.14745 -0.47444,-1.02169 -1.00042,-2.62948 -1.1689,-3.57286 -0.16848,-0.94339 -1.16282,-3.47135 -2.20963,-5.61769 -1.61787,-3.31724 -2.56649,-4.57616 -6.32593,-8.3953 -4.14984,-4.21573 -4.75116,-4.65614 -9.74876,-7.13993 -2.92935,-1.45589 -5.86294,-2.64687 -6.51911,-2.64663 -0.65617,2.4e-4 -1.88575,-0.28901 -2.73244,-0.64278 -1.25372,-0.52383 -3.89752,-0.64062 -14.244258,-0.62919 -16.653281,0.0184 -20.253507,0.51286 -26.426823,3.62956 -2.122624,1.07165 -4.052281,1.94789 -4.288128,1.94722 -0.616633,-0.002 -4.931347,4.09359 -4.931347,4.68065 0,0.27094 -0.67538,0.77481 -1.500844,1.11972 -0.825465,0.34489 -1.500845,0.88031 -1.500845,1.18981 0,0.30949 -0.506813,1.03052 -1.126276,1.60229 -1.414825,1.30593 -5.305915,9.14778 -5.305915,10.69318 0,0.63436 -0.507028,2.09871 -1.126705,3.25411 -1.112512,2.07424 -1.123532,2.18184 -0.87555,8.53292 0.266293,6.81913 1.294972,12.12676 2.768372,14.28356 0.433487,0.63452 1.355006,2.27069 2.047881,3.63591 1.615638,3.1835 7.637155,9.48426 11.522455,12.05679 3.520767,2.3312 8.901939,4.49756 12.402466,4.99306 1.381034,0.19545 2.619231,0.46367 2.751519,0.59596 0.455014,0.45501 25.944838,0.24863 28.587868,-0.23147 z m -16.697881,-9.42715 c -9.90557,-0.15699 -18.878476,-0.46934 -19.939788,-0.69416 -3.094099,-0.65549 -6.903628,-2.90504 -8.576255,-5.06432 -0.825464,-1.06569 -1.936046,-2.44617 -2.467946,-3.06773 -0.531942,-0.62156 -1.195615,-1.89282 -1.474901,-2.82493 -0.279286,-0.93215 -0.71243,-1.77323 -0.962556,-1.86902 -0.305915,-0.1172 -0.405957,-2.87438 -0.305701,-8.42443 0.144982,-8.02746 0.181946,-8.31966 1.367827,-10.82307 1.880687,-3.97017 5.547851,-7.87935 8.937787,-9.52767 5.538717,-2.69317 6.20908,-2.7584 26.74526,-2.60273 18.479944,0.14008 18.554854,0.14427 21.118594,1.18041 2.43034,0.98223 4.52291,2.28301 6.40552,3.98178 0.45737,0.41273 1.00197,0.75042 1.2102,0.75042 0.54605,0 1.60376,1.13809 1.60376,1.72563 0,0.27525 0.37594,1.02842 0.83545,1.67371 2.4116,3.38682 3.83608,12.10087 2.93926,17.98065 -1.4837,9.72736 -7.09612,15.89964 -15.85981,17.44195 -1.96161,0.3452 -3.56657,0.58743 -3.56657,0.53829 0,-0.0492 -8.104558,-0.21779 -18.010131,-0.37478 z"
       style="fill:#c7d7db"
       sodipodi:nodetypes="ccsssssscccscsssscccscscssssssccsscscsscsssssssscssssscsscsscsssscscssssscsscsss" />
    <path
       inkscape:connector-curvature="0"
       id="path3006-7"
       d="m 74.993214,301.60993 c -14.861792,-2.52528 -27.107011,-13.70327 -31.032105,-28.3275 -1.421257,-5.29525 -1.741537,-9.13355 -1.178592,-14.12503 0.411317,-3.64743 1.928585,-9.09298 3.524626,-12.64998 2.386986,-5.31985 7.705078,-11.49087 13.356015,-15.49813 2.097624,-1.4875 3.323299,-2.64914 3.323299,-3.14968 0,-0.43616 0.119767,-1.10518 0.266207,-1.4867 0.244895,-0.63821 0.351583,-0.63771 1.334379,0.006 1.243043,0.81447 2.45727,0.68646 6.761263,-0.7128 2.856193,-0.92856 3.767034,-0.98373 18.789025,-1.13794 16.996589,-0.17448 20.029459,0.0533 24.410679,1.83358 2.43175,0.98812 2.69149,1.01603 3.64435,0.39169 1.17859,-0.77226 2.255,-0.22956 2.255,1.13691 0,0.48918 1.01873,1.47678 2.68008,2.59816 5.57092,3.76026 10.53558,9.26076 13.34173,14.78155 5.60021,11.01795 5.8313,23.36758 0.64498,34.46926 -4.07308,8.71862 -12.72669,16.73776 -21.38373,19.81582 -3.89958,1.38652 -6.5457,2.05714 -7.91927,2.00706 -1.08674,-0.0394 -0.94819,-0.14031 0.84386,-0.61316 5.3042,-1.39952 6.80105,-1.92186 9.73555,-3.39731 1.72087,-0.86522 3.90069,-2.13999 4.84408,-2.83278 0.94339,-0.69284 2.19767,-1.57521 2.78728,-1.96079 1.16577,-0.76243 5.953,-6.56212 6.6466,-8.05233 0.23585,-0.50673 0.82907,-1.4936 1.3183,-2.19308 1.27019,-1.81611 2.49659,-4.39739 3.15083,-6.63189 0.31076,-1.06131 0.82058,-2.63034 1.13292,-3.48668 0.76715,-2.10315 1.28987,-13.85311 0.70334,-15.8099 -0.24742,-0.82547 -0.85732,-2.92113 -1.35539,-4.65704 -0.98352,-3.42816 -3.97629,-9.45716 -5.42645,-10.93174 -0.4979,-0.50628 -1.21166,-1.519 -1.58614,-2.2505 -0.58113,-1.13514 -1.69029,-2.24766 -4.48341,-4.49698 -3.67479,-2.95932 -11.54831,-7.08983 -14.23842,-7.46957 -0.59678,-0.0842 -2.58832,-0.47138 -4.42569,-0.8603 -2.83304,-0.59967 -5.50472,-0.67993 -17.581325,-0.52815 -13.577236,0.17063 -18.201724,0.55445 -20.029624,1.66238 -0.35377,0.21443 -1.318599,0.67856 -2.144063,1.0314 -5.073156,2.16849 -8.846836,4.46664 -11.240555,6.84546 -3.911501,3.88707 -7.627206,8.9426 -7.627206,10.37743 0,0.73188 -0.328256,1.4136 -0.832197,1.72831 -0.535201,0.33424 -1.390725,2.24568 -2.397277,5.35611 -1.54364,4.76995 -1.561993,4.91002 -1.335709,10.19655 0.1262,2.94809 0.3307,6.13202 0.454456,7.07539 0.388676,2.96228 2.807094,9.92316 4.121405,11.86255 0.69309,1.02272 1.263668,2.20483 1.267956,2.62686 0.0043,0.42208 0.731426,1.49622 1.615852,2.38695 0.884426,0.89073 2.862325,2.93921 4.39533,4.55219 1.533006,1.61293 3.368839,3.17565 4.079682,3.47265 0.7108,0.29704 2.298136,1.23189 3.52737,2.07747 1.229235,0.84557 2.482354,1.53738 2.784753,1.53738 0.302357,0 1.423102,0.46496 2.490545,1.03318 3.421797,1.82155 6.180992,2.1267 21.637071,2.39277 l 14.579636,0.25103 -14.150823,0.0407 c -7.782947,0.0223 -15.019162,-0.10682 -16.080473,-0.28713 z M 73.063557,289.7361 c -4.994854,-0.72975 -8.287407,-2.57155 -11.730216,-6.56178 -2.108429,-2.44367 -2.776176,-3.60104 -3.521539,-6.10389 -1.156079,-3.88187 -1.543382,-10.34505 -0.856296,-14.29042 1.045489,-6.00381 5.722292,-12.21354 11.027778,-14.64248 4.654719,-2.13099 7.080041,-2.33834 25.439996,-2.17493 16.24566,0.14459 17.05204,0.19012 19.48525,1.10013 7.21422,2.69807 12.22592,8.50831 13.59006,15.75543 1.17015,6.2166 -0.37315,14.55746 -3.59268,19.41689 -1.77267,2.67554 -3.6299,4.08753 -8.03312,6.10724 l -3.21609,1.4752 -18.653356,0.0533 c -10.25934,0.0292 -19.232246,-0.0313 -19.939787,-0.13469 z M 61.807222,224.69805 c -1.22173,-0.60508 -1.209724,-0.75637 0.160462,-2.02219 1.111268,-1.02661 1.121645,-1.02774 0.833869,-0.0909 -0.16029,0.52174 -0.08096,1.34185 0.176242,1.82245 0.51226,0.95717 0.287733,1.01292 -1.170573,0.29068 z m 58.778168,-0.87813 c 0.0609,-1.15828 0.2063,-1.3767 0.71959,-1.08147 1.85024,1.06419 1.8749,1.15172 0.52208,1.85129 l -1.31804,0.68159 z"
       style="fill:#b7d4d8"
       sodipodi:nodetypes="scssscsssssssssssssssscccscssssssssssssscsssscsssscssssscsssssscssscccsccsccc" />
    <path
       inkscape:connector-curvature="0"
       id="path3004-5"
       d="m 73.496743,289.09914 c -6.525157,-1.24433 -12.838439,-6.62785 -15.019509,-12.80756 -1.969451,-5.58018 -1.672027,-13.33783 0.702438,-18.32068 1.668596,-3.50167 5.629754,-7.63564 8.908414,-9.29705 4.201164,-2.12889 6.568553,-2.36594 23.62882,-2.36594 17.060274,0 19.427664,0.23705 23.628824,2.36594 3.28676,1.66553 7.23952,5.79479 8.91716,9.31535 2.34578,4.92265 2.64187,12.78004 0.69005,18.31211 -2.23969,6.34798 -8.51875,11.57799 -15.41188,12.83703 -3.148,0.57499 -32.993743,0.54253 -36.044317,-0.039 z m 21.529268,-11.79007 c 1.739221,-0.82534 3.344053,-3.0938 2.667429,-3.77043 -0.293779,-0.29373 -0.779238,0.006 -1.497199,0.92285 -2.159887,2.75984 -5.393907,2.77948 -8.210135,0.0499 -1.204706,-1.16766 -1.42473,-1.24789 -1.669882,-0.60896 -0.180573,0.47054 0.08503,1.13421 0.7367,1.84072 2.069279,2.24351 5.234903,2.86524 7.973087,1.5659 z M 73.851715,263.01671 c 1.671126,-1.77053 3.726211,-1.76939 5.498622,0.003 1.209981,1.20998 2.075068,1.36318 2.075068,0.36748 0,-0.24007 -0.56406,-1.00054 -1.253463,-1.68994 -2.549634,-2.54962 -8.180417,-1.17455 -8.180417,1.99775 0,0.92731 0.525681,0.73563 1.86019,-0.67829 z m 29.443135,0 c 1.68785,-1.80683 3.89876,-1.79396 5.60505,0.0326 1.14034,1.22073 2.11358,1.37632 2.11358,0.33787 0,-0.24007 -0.56406,-1.00054 -1.25346,-1.68994 -2.54964,-2.54965 -8.18042,-1.17458 -8.18042,1.99772 0,0.90136 0.38001,0.75109 1.71525,-0.67829 z"
       style="fill:#6f909b"
       sodipodi:nodetypes="cscssssssccscsccssssssssssssss" />
    <path
       inkscape:connector-curvature="0"
       id="path3000-5"
       d="m 72.465191,288.07788 c -7.138875,-1.95375 -12.872872,-8.07407 -14.193401,-15.14982 -1.979571,-10.60681 2.23703,-19.77287 11.026662,-23.96993 l 3.336292,-1.59308 17.750613,-0.12942 c 11.353803,-0.0828 18.512273,0.0339 19.864193,0.32385 7.23956,1.55262 13.37926,7.86548 14.94163,15.36312 0.71591,3.43539 0.29207,9.98929 -0.83738,12.9487 -2.00654,5.2575 -6.2264,9.52796 -11.52867,11.66684 -2.41268,0.97323 -2.76066,0.99184 -20.250599,1.08159 -14.575426,0.0748 -18.214373,-0.0232 -20.10934,-0.54185 z m 23.165574,-10.29532 c 1.571342,-0.8126 3.01271,-2.73136 2.859023,-3.80601 -0.187477,-1.31054 -1.848611,-1.38339 -2.678064,-0.1175 -0.821691,1.25407 -2.400879,2.02203 -4.157854,2.02203 -0.924434,0 -1.750242,-0.44104 -2.810009,-1.50085 -1.603546,-1.60354 -2.876691,-1.92267 -3.297313,-0.82653 -0.324225,0.84493 0.180702,1.79149 1.738107,3.25846 2.158085,2.03266 5.533056,2.42506 8.34611,0.9704 z M 73.988763,263.87434 c 1.600115,-1.79588 3.797308,-1.79545 5.37371,8.6e-4 1.666923,1.89967 3.446325,0.89616 2.341274,-1.32038 -1.691409,-3.39256 -6.791836,-3.9184 -9.514239,-0.98088 -1.155565,1.24686 -1.336867,2.27626 -0.541033,3.07208 0.755654,0.75565 1.072332,0.6512 2.340288,-0.77186 z m 29.452907,0 c 1.70222,-1.91044 3.79971,-1.89025 5.43654,0.0523 1.32027,1.5669 2.56408,1.32974 2.56408,-0.48891 0,-1.50623 -1.98472,-3.27354 -4.12771,-3.67556 -3.79885,-0.71267 -8.165707,2.79632 -6.07803,4.884 0.73323,0.73322 0.9234,0.66665 2.20512,-0.77186 z"
       style="fill:#082437"
       sodipodi:nodetypes="sssscssssssccccssscccccsscssssss" />
  </g>
</svg>
