<?xml version="1.0" encoding="UTF-8" standalone="no"?>
<!-- Created with Inkscape (http://www.inkscape.org/) -->

<svg
   xmlns:dc="http://purl.org/dc/elements/1.1/"
   xmlns:cc="http://creativecommons.org/ns#"
   xmlns:rdf="http://www.w3.org/1999/02/22-rdf-syntax-ns#"
   xmlns:svg="http://www.w3.org/2000/svg"
   xmlns="http://www.w3.org/2000/svg"
   xmlns:sodipodi="http://sodipodi.sourceforge.net/DTD/sodipodi-0.dtd"
   xmlns:inkscape="http://www.inkscape.org/namespaces/inkscape"
   width="100"
   height="85.982651"
   id="svg3088"
   version="1.1"
   inkscape:version="0.48.4 r9939"
   sodipodi:docname="bot_angry.svg">
  <defs
     id="defs3090" />
  <sodipodi:namedview
     id="base"
     pagecolor="#ffffff"
     bordercolor="#666666"
     borderopacity="1.0"
     inkscape:pageopacity="0.0"
     inkscape:pageshadow="2"
     inkscape:zoom="1.4"
     inkscape:cx="6.5928661"
     inkscape:cy="-112.66035"
     inkscape:document-units="px"
     inkscape:current-layer="layer1"
     showgrid="false"
     fit-margin-top="0"
     fit-margin-left="0"
     fit-margin-right="0"
     fit-margin-bottom="0"
     inkscape:window-width="1247"
     inkscape:window-height="1388"
     inkscape:window-x="1985"
     inkscape:window-y="37"
     inkscape:window-maximized="0" />
  <metadata
     id="metadata3093">
    <rdf:RDF>
      <cc:Work
         rdf:about="">
        <dc:format>image/svg+xml</dc:format>
        <dc:type
           rdf:resource="http://purl.org/dc/dcmitype/StillImage" />
        <dc:title></dc:title>
      </cc:Work>
    </rdf:RDF>
  </metadata>
  <g
     inkscape:label="Layer 1"
     inkscape:groupmode="layer"
     id="layer1"
     transform="translate(-41.841344,-217.22813)">
    <path
       inkscape:connector-curvature="0"
       id="path3010-3-6"
       d="m 78.397984,303.12002 c -8.646404,-1.2115 -13.55216,-2.99496 -19.688468,-7.15758 -3.034836,-2.0587 -7.626596,-6.55668 -9.552078,-9.35692 -2.292626,-3.33422 -5.122414,-9.35978 -6.099094,-12.98694 -1.134622,-4.214 -1.568444,-12.06918 -0.902378,-16.34032 1.719106,-11.02404 8.576596,-21.56594 17.83245,-27.41342 1.44455,-0.91264 1.918758,-1.47832 1.91439,-2.28376 -0.0086,-1.53998 -0.432152,-1.98044 -2.222476,-2.30956 -2.061154,-0.37892 -3.337528,-1.98186 -3.337528,-4.1915 0,-3.66322 4.233866,-5.17642 6.932564,-2.47774 1.217018,1.217 1.281556,1.44182 1.01848,3.54746 -0.251516,2.01278 -0.17332,2.34916 0.746706,3.2135 l 1.027644,0.9654 3.705654,-1.07386 c 5.542446,-1.60614 9.579144,-1.9576 22.317104,-1.94304 12.969816,0.014 16.314926,0.32084 21.803196,1.99464 l 3.80518,1.1605 0.97484,-1.2226 c 0.82649,-1.03646 0.93951,-1.5654 0.74243,-3.47466 -0.20779,-2.01316 -0.11494,-2.36956 0.87488,-3.35938 1.61243,-1.61244 4.19644,-1.54904 5.88998,0.1446 1.39213,1.39212 1.59127,2.84516 0.64157,4.68164 -0.63913,1.23598 -2.26501,2.2034 -3.70305,2.2034 -0.75604,0 -1.68227,1.41748 -1.68227,2.57452 0,0.20762 1.10618,1.11046 2.45815,2.00634 7.48634,4.96068 13.37083,12.7566 16.12786,21.36666 6.24598,19.50562 -4.12137,41.36788 -23.19049,48.9033 -6.42907,2.54054 -7.96518,2.73072 -23.23216,2.8765 -7.655076,0.0732 -14.496464,0.052 -15.203086,-0.0472 z"
       style="fill:#cbdae0"
       sodipodi:nodetypes="cscsscssscccsssccssscsssssssc" />
    <path
       inkscape:connector-curvature="0"
       id="path3008-6-2"
       d="M 73.949688,301.86436 C 61.546454,299.1735 52.008722,291.8636 46.54015,280.85712 c -7.401846,-14.89756 -5.026996,-31.50168 6.346026,-44.36876 0.978694,-1.10728 3.61174,-3.3844 5.85122,-5.06028 3.870276,-2.89628 4.061194,-3.114 3.8585,-4.40016 -0.2516,-1.59648 -1.252434,-2.44464 -2.884604,-2.44464 -0.73249,0 -1.430974,-0.36028 -1.845312,-0.9518 -0.946574,-1.35142 -0.862036,-2.16572 0.19014,-1.83176 1.105072,0.35072 3.425748,-1.2647 3.425748,-2.38466 0,-1.01944 0.564484,-1.0582 1.518424,-0.1042 0.564656,0.56466 0.668122,1.1868 0.472324,2.83998 -0.23447,1.9799 -0.15786,2.20978 1.183614,3.55126 l 1.434314,1.43432 2.961304,-1.03462 c 5.303992,-1.8531 7.54163,-2.02188 24.590672,-1.85472 15.91318,0.156 16.03917,0.1642 19.23006,1.2632 1.76656,0.6084 3.549,1.24742 3.96103,1.42008 0.53844,0.22564 1.11869,-0.0818 2.06381,-1.09352 1.19475,-1.27898 1.28999,-1.58736 1.04353,-3.3791 -0.22351,-1.6253 -0.1104,-2.176 0.64388,-3.13494 1.24177,-1.57866 2.04124,-1.51714 1.79825,0.1384 -0.31807,2.16718 1.88205,3.83646 3.25153,2.467 0.39969,-0.3997 0.51391,-0.31928 0.51391,0.36188 0,1.07556 -1.27488,2.2933 -2.40089,2.2933 -1.53431,0 -2.73818,1.21918 -2.73818,2.77302 0,1.17432 0.26744,1.60496 1.45088,2.33638 4.88212,3.01732 10.42307,8.63584 13.29209,13.47816 7.5448,12.73422 7.1732,29.50438 -0.92418,41.70428 -3.15625,4.7553 -8.52054,9.79746 -13.42544,12.61924 -3.0977,1.78206 -8.35219,3.72706 -11.90573,4.40706 -4.51468,0.86392 -31.524222,0.83578 -35.547388,-0.0368 z m 32.710792,-1.47684 c 4.74499,-0.77698 9.46253,-2.51252 12.09296,-4.44898 1.37312,-1.0108 2.97865,-1.95884 3.56785,-2.10672 1.40609,-0.35288 8.6703,-7.90212 8.36623,-8.69452 -0.1275,-0.33216 0.20565,-0.88118 0.75172,-1.239 0.5393,-0.3534 1.41243,-1.55824 1.94022,-2.67746 0.52782,-1.1192 1.14027,-2.36958 1.36104,-2.77856 0.22076,-0.40898 0.4014,-1.06982 0.4014,-1.46848 0,-0.83236 0.69043,-3.1438 1.55029,-5.18982 0.3984,-0.94804 0.59099,-3.19154 0.59099,-6.88416 0,-4.71804 -0.14848,-5.91436 -1.07064,-8.6256 -0.58885,-1.7313 -1.07064,-3.42932 -1.07064,-3.7734 0,-1.6848 -3.67105,-7.8823 -6.65446,-11.2341 -1.75516,-1.97186 -3.47756,-3.74548 -3.82762,-3.94136 -0.35001,-0.1958 -1.26113,-0.92676 -2.02471,-1.62418 -0.76354,-0.6974 -1.56806,-1.268 -1.78775,-1.268 -0.2197,0 -0.99578,-0.45164 -1.72463,-1.00366 -1.73213,-1.31182 -6.23125,-3.06616 -9.46206,-3.68952 -1.41325,-0.27268 -3.53311,-0.68956 -4.71082,-0.92642 -2.68473,-0.53996 -26.580388,-0.2453 -29.549658,0.36436 -2.886104,0.59262 -5.956828,1.71892 -8.681818,3.1844 -1.2419,0.66788 -2.437804,1.21432 -2.657586,1.21432 -1.882356,0 -10.873334,9.20248 -13.389252,13.7042 -1.02426,1.8327 -1.916016,4.3061 -3.628526,10.064 -1.221686,4.1076 -1.02229,11.76714 0.436434,16.76562 1.301256,4.45894 4.133784,10.0903 5.933444,11.79634 0.669278,0.63446 1.21689,1.40836 1.21689,1.71984 0,0.31146 1.108112,1.6424 2.462472,2.95766 4.086032,3.968 10.52456,7.61028 15.869152,8.97718 1.8036,0.46128 3.50746,0.75112 3.786382,0.6441 0.27888,-0.107 1.053382,-0.0308 1.721032,0.1694 1.705616,0.5116 25.080474,0.52188 28.191664,0.012 z m -36.39936,-9.83768 c -0.942164,-0.1524 -2.098454,-0.4978 -2.569536,-0.76772 -0.471082,-0.2699 -1.627372,-0.83344 -2.569534,-1.2524 -2.555918,-1.13646 -5.625956,-4.4187 -7.120698,-7.6128 -1.563778,-3.34178 -2.052888,-6.7262 -1.983126,-13.72216 0.04292,-4.30068 0.220252,-5.5932 1.087256,-7.92274 0.569752,-1.53102 1.133852,-3.11454 1.253506,-3.51894 0.11966,-0.40438 0.584998,-0.85186 1.034066,-0.9944 0.44907,-0.1426 0.720114,-0.41506 0.602342,-0.60564 -0.303418,-0.49096 1.72493,-2.56732 4.48427,-4.59038 2.582596,-1.89348 3.24652,-2.19796 5.53041,-2.53626 0.844692,-0.1252 2.210314,-0.40706 3.034708,-0.62652 2.091602,-0.5568 35.357286,-0.51738 38.200776,0.0452 2.10959,0.41744 5.99447,1.90178 6.98023,2.66704 0.23554,0.1828 1.35354,0.93024 2.48444,1.66086 2.49429,1.61144 4.4972,4.62236 5.81131,8.73582 0.88777,2.77898 0.95256,3.65638 0.81047,10.97114 -0.12796,6.58456 -0.27969,8.1417 -0.88311,9.06266 -0.40076,0.6116 -0.72863,1.40426 -0.72863,1.76142 0,1.05882 -5.43774,6.50354 -7.65101,7.66082 -1.12533,0.58842 -3.18858,1.28244 -4.58495,1.54228 -2.73116,0.5082 -40.115894,0.54508 -43.22319,0.0428 z m 37.82036,-46.55932 c 0.30915,-0.1238 0.67852,-0.1084 0.82083,0.0338 0.1423,0.1422 -0.11066,0.24352 -0.56208,0.22494 -0.49892,-0.0206 -0.60037,-0.122 -0.25875,-0.25874 z"
       style="fill:#c7d7db"
       sodipodi:nodetypes="cssssscssccscssscscsccsssssssscccsccccsssssssccsssssssssssssscccccsscscsscsssssssscssscccccc" />
    <path
       inkscape:connector-curvature="0"
       id="path3006-7-9"
       d="m 74.115424,301.466 c -8.079734,-1.77198 -13.90637,-4.88918 -19.872148,-10.6315 -3.047426,-2.93324 -5.211532,-5.91134 -7.27337,-10.00902 -2.43759,-4.84452 -3.429602,-8.14136 -3.987706,-13.25282 -0.928716,-8.50544 0.939594,-16.95828 5.400608,-24.4344 2.398362,-4.01932 7.58574,-9.40494 11.814298,-12.26584 2.111986,-1.42888 2.816938,-2.16264 2.921604,-3.04088 0.15392,-1.29136 1.16066,-1.90686 1.903642,-1.16384 0.66915,0.66912 2.688804,0.60772 4.105432,-0.1248 0.648722,-0.33546 2.807174,-0.93594 4.796594,-1.33436 3.018948,-0.60464 6.024962,-0.71364 18.177796,-0.65918 15.473486,0.0694 18.108546,0.30406 22.424766,1.99766 2.55541,1.00268 2.79035,1.02638 3.77589,0.38062 1.26087,-0.82616 2.27837,-0.2422 2.27837,1.3076 0,0.71432 0.54769,1.2966 2.03421,2.1626 5.26631,3.06804 11.14489,9.53076 13.99365,15.38416 3.1088,6.38766 3.75324,8.98356 3.98681,16.0596 0.24166,7.3188 -0.5125,11.35318 -3.29342,17.61826 -1.79032,4.0334 -2.72264,5.44802 -6.39232,9.6988 -5.38724,6.24032 -13.22296,10.6924 -21.65994,12.30662 -4.44098,0.8497 -31.261148,0.8503 -35.134766,0 z m 33.432356,-0.2444 c 4.61763,-0.81364 7.12027,-1.77336 13.63422,-5.22858 2.99877,-1.59062 12.24688,-10.44354 12.24688,-11.7235 0,-0.45352 0.2895,-1.23788 0.64328,-1.74304 1.08516,-1.54926 2.78276,-5.13788 2.78276,-5.88258 0,-0.38752 0.40098,-1.2469 0.89103,-1.90976 0.67365,-0.91116 0.98332,-2.23892 1.26948,-5.44292 1.10135,-12.33188 -0.53223,-18.98664 -6.97993,-28.4342 -2.1537,-3.15578 -2.47814,-3.52594 -3.87225,-4.41818 -0.65848,-0.4214 -1.40617,-1.22476 -1.66154,-1.78524 -0.25537,-0.56048 -1.0258,-1.25164 -1.71204,-1.5359 -0.68628,-0.28426 -1.82686,-1.05776 -2.53459,-1.7189 -0.70778,-0.66114 -2.38333,-1.61232 -3.72352,-2.11374 -1.34014,-0.50142 -2.63172,-1.05828 -2.87013,-1.23748 -0.23836,-0.1792 -2.36058,-0.79106 -4.71599,-1.35972 -4.12299,-0.99542 -4.84902,-1.03328 -19.48565,-1.01626 -14.56263,0.016 -15.365438,0.0602 -19.05739,1.02668 -3.432686,0.89866 -6.662892,2.29632 -10.740616,4.64734 -5.611224,3.23516 -12.767682,11.53826 -13.932752,16.16514 -0.264704,1.05126 -0.65112,1.91138 -0.858696,1.91138 -0.207576,0 -0.377422,0.29168 -0.377422,0.64818 0,0.35652 -0.17966,0.98284 -0.399178,1.39184 -0.81647,1.521 -1.827838,6.86812 -2.054942,10.86438 -0.201924,3.55352 -0.07108,4.79652 0.944304,8.9699 0.648294,2.66462 1.32768,5.14438 1.509774,5.51058 0.1821,0.36626 1.268366,2.5847 2.413908,4.92996 1.820816,3.72766 2.621568,4.80602 6.365382,8.57202 3.795204,3.81764 4.81865,4.5808 8.993376,6.70588 4.902844,2.4957 7.932498,3.59578 11.56291,4.19832 3.17509,0.52702 28.737772,0.53378 31.719332,0.008 z M 71.935986,289.47098 c -4.20586,-0.91514 -7.479746,-2.82318 -10.2769,-5.9895 -2.269458,-2.56898 -2.841308,-3.5908 -4.08188,-7.29336 -0.711674,-2.12408 -0.976466,-11.2756 -0.40543,-14.0123 1.583178,-7.58726 7.983034,-13.90306 15.757464,-15.5505 2.219994,-0.47044 6.670516,-0.6161 18.99735,-0.6218 14.71368,-0.006 16.38636,0.0662 19.44877,0.8495 7.02216,1.79596 11.90543,6.234 14.40983,13.09596 1.23398,3.38108 1.36344,12.36466 0.2322,16.11134 -0.85921,2.84572 -3.22798,6.9914 -4.90627,8.58674 -1.69778,1.61388 -6.39759,4.18878 -8.88091,4.8656 -3.01488,0.82174 -36.485144,0.78708 -40.294224,-0.0416 z m -10.58443,-64.86298 -1.20096,-0.76918 1.463738,-0.86364 1.463778,-0.86364 0,1.66414 c 0,1.87296 -0.05808,1.90094 -1.726556,0.83232 z m 59.236194,0.27656 c 0.0138,-1.07958 0.69326,-1.6164 1.61465,-1.27556 0.87673,0.32432 0.86311,0.36514 -0.35472,1.06412 -0.86761,0.4979 -1.26443,0.5645 -1.25993,0.21144 z"
       style="fill:#b7d4d8"
       sodipodi:nodetypes="cssssscccssssssscssscccsscsssscsccscssssssscsssssssscssssssssssccscccsscsccs" />
    <path
       inkscape:connector-curvature="0"
       id="path3004-5-1"
       d="m 73.157286,289.04298 c -5.56116,-1.23572 -11.0517,-5.46556 -13.58582,-10.4664 -2.120938,-4.18548 -2.898778,-10.4151 -1.935032,-15.49702 1.481766,-7.81326 7.915712,-14.372 15.721062,-16.026 3.615166,-0.76606 32.326984,-0.89652 36.331564,-0.165 6.35378,1.16052 11.77563,5.3781 14.64858,11.39492 l 1.59676,3.34402 0,6.42384 c 0,6.29878 -0.0257,6.47804 -1.32713,9.2075 -2.62619,5.5086 -6.57445,9.19212 -12.05643,11.24792 -2.35121,0.88174 -3.23205,0.9279 -19.592154,1.02654 -13.337518,0.0804 -17.72166,-0.0282 -19.8014,-0.49024 z"
       style="fill:#6f909b"
       sodipodi:nodetypes="sssssscscsss" />
    <path
       inkscape:connector-curvature="0"
       id="path3002-3-2"
       d="m 72.729844,288.16146 c -6.985368,-1.8812 -12.221396,-7.12604 -14.09099,-14.11462 -0.674204,-2.52008 -0.745936,-9.05234 -0.12886,-11.72916 1.560992,-6.771 7.245362,-12.66062 13.87532,-14.37632 3.483392,-0.90142 35.230216,-0.96708 38.560126,-0.0798 6.38705,1.70198 11.43383,6.39952 13.56612,12.62728 0.80799,2.35998 0.96957,3.7006 0.93737,7.77652 -0.057,7.21524 -1.61637,10.9486 -6.46735,15.48452 -2.49793,2.3357 -4.71382,3.54604 -8.11306,4.43142 -3.47101,0.90408 -34.76847,0.88776 -38.138674,-0.02 z"
       style="fill:#d93337"
       sodipodi:nodetypes="cscsscssscc" />
    <path
       inkscape:connector-curvature="0"
       id="path3000-5-7"
       d="m 72.729844,288.16146 c -6.985368,-1.8812 -12.221396,-7.12604 -14.09099,-14.11462 -0.674204,-2.52008 -0.745936,-9.05234 -0.12886,-11.72916 1.560992,-6.771 7.245362,-12.66062 13.87532,-14.37632 3.483392,-0.90142 35.230216,-0.96708 38.560126,-0.0798 6.38705,1.70198 11.43383,6.39952 13.56612,12.62728 0.80799,2.35998 0.96957,3.7006 0.93737,7.77652 -0.057,7.21524 -1.61637,10.9486 -6.46735,15.48452 -2.49793,2.3357 -4.71382,3.54604 -8.11306,4.43142 -3.47101,0.90408 -34.76847,0.88776 -38.138674,-0.02 z M 98.66798,277.95954 c 0.381534,-1.98098 -2.87972,-3.69858 -7.022626,-3.69858 -3.145112,0 -5.443176,0.8422 -6.437074,2.3591 -1.275902,1.94728 -0.681826,2.13892 6.5748,2.1208 6.119308,-0.016 6.7512,-0.087 6.8849,-0.78132 z M 79.023836,271.0576 c 1.487204,-0.76906 3.014322,-2.62914 3.014322,-3.67154 0,-0.91 -1.785226,-2.06408 -5.534094,-3.57758 -4.610646,-1.86142 -6.028816,-1.43436 -6.028816,1.81542 0,2.21144 1.235304,4.49442 2.92987,5.41486 1.48592,0.80706 4.077682,0.81574 5.618718,0.018 z m 31.050824,-0.088 c 2.83253,-1.35072 4.14437,-6.2521 2.19512,-8.20136 -0.55657,-0.55656 -1.00319,-0.49534 -3.76159,0.51556 -3.67876,1.3482 -6.29896,2.77338 -6.91385,3.76064 -0.32351,0.51938 -0.24325,1.00626 0.30342,1.84054 1.71975,2.6247 5.18939,3.50926 8.1769,2.08462 z"
       style="fill:#082437"
       sodipodi:nodetypes="cscsscssscccsssccssscccscscc" />
  </g>
</svg>
