<?xml version="1.0" encoding="UTF-8" standalone="no"?>
<!-- Created with Inkscape (http://www.inkscape.org/) -->

<svg
   xmlns:dc="http://purl.org/dc/elements/1.1/"
   xmlns:cc="http://creativecommons.org/ns#"
   xmlns:rdf="http://www.w3.org/1999/02/22-rdf-syntax-ns#"
   xmlns:svg="http://www.w3.org/2000/svg"
   xmlns="http://www.w3.org/2000/svg"
   xmlns:sodipodi="http://sodipodi.sourceforge.net/DTD/sodipodi-0.dtd"
   xmlns:inkscape="http://www.inkscape.org/namespaces/inkscape"
   width="99.967247"
   height="85.983002"
   id="svg3088"
   version="1.1"
   inkscape:version="0.48.4 r9939"
   sodipodi:docname="bot_no_answer.svg">
  <defs
     id="defs3090" />
  <sodipodi:namedview
     id="base"
     pagecolor="#ffffff"
     bordercolor="#666666"
     borderopacity="1.0"
     inkscape:pageopacity="0.0"
     inkscape:pageshadow="2"
     inkscape:zoom="0.7"
     inkscape:cx="413.88273"
     inkscape:cy="-140.27182"
     inkscape:document-units="px"
     inkscape:current-layer="layer1"
     showgrid="false"
     fit-margin-top="0"
     fit-margin-left="0"
     fit-margin-right="0"
     fit-margin-bottom="0"
     inkscape:window-width="1247"
     inkscape:window-height="1388"
     inkscape:window-x="1985"
     inkscape:window-y="37"
     inkscape:window-maximized="0" />
  <metadata
     id="metadata3093">
    <rdf:RDF>
      <cc:Work
         rdf:about="">
        <dc:format>image/svg+xml</dc:format>
        <dc:type
           rdf:resource="http://purl.org/dc/dcmitype/StillImage" />
        <dc:title></dc:title>
      </cc:Work>
    </rdf:RDF>
  </metadata>
  <g
     inkscape:label="Layer 1"
     inkscape:groupmode="layer"
     id="layer1"
     transform="translate(-41.841345,-217.2277)">
    <path
       inkscape:connector-curvature="0"
       id="path3010"
       d="m 74.71877,302.75988 c -3.421495,-0.56892 -8.457674,-2.36102 -12.032053,-4.28155 -9.749457,-5.23842 -16.741816,-14.16456 -19.759275,-25.22391 -1.448308,-5.30823 -1.448094,-14.50675 4.28e-4,-19.70486 2.683718,-9.63054 8.455275,-17.8541 16.192394,-23.07173 2.202405,-1.48525 2.677292,-2.01538 2.677292,-2.98893 0,-1.48362 -0.706633,-2.21155 -2.146759,-2.21155 -3.659709,0 -4.599076,-5.64264 -1.24128,-7.4562 1.821545,-0.98383 3.402004,-0.70775 4.979636,0.86987 0.974492,0.9745 1.061922,1.32145 0.828976,3.28853 -0.232217,1.96056 -0.142261,2.32247 0.829361,3.3366 l 1.089765,1.13751 3.15809,-1.00289 c 5.202301,-1.65204 7.933525,-1.88042 22.487887,-1.88042 14.600628,0 17.562358,0.25207 22.489258,1.91401 l 2.99857,1.01147 1.18164,-1.12126 c 1.06321,-1.00885 1.15509,-1.32156 0.91662,-3.11937 -0.3172,-2.39108 0.21307,-3.5651 2.03595,-4.50775 2.53798,-1.31244 5.21001,-0.0444 5.76616,2.73631 0.52115,2.60579 -0.61192,4.07621 -3.90323,5.06538 -1.02509,0.30808 -1.31171,0.65846 -1.41644,1.73169 -0.11892,1.21856 0.10332,1.49933 2.35602,2.97647 3.77189,2.47329 9.45658,8.46141 11.85988,12.49289 4.08486,6.85232 6.15405,15.17038 5.67222,22.80212 -1.15886,18.35387 -14.49799,33.67565 -32.28009,37.07793 -3.64271,0.69697 -30.721312,0.79801 -34.74102,0.12964 z"
       style="fill:#cbdae0"
       sodipodi:nodetypes="ssssssssscccssscscsssssssss" />
    <path
       inkscape:connector-curvature="0"
       id="path3008"
       d="m 76.016293,302.37277 c -15.992218,-2.19726 -29.504749,-14.93045 -32.938666,-31.03892 -0.825762,-3.87355 -0.825762,-11.99017 0,-15.86372 2.116132,-9.92679 8.452834,-19.29515 16.811727,-24.85506 2.097027,-1.39481 2.573927,-1.93469 2.680976,-3.03506 0.151043,-1.55221 -0.801774,-2.73103 -2.207331,-2.73103 -1.190303,0 -2.84911,-1.13648 -2.84911,-1.95194 0,-0.41061 0.467605,-0.62047 1.392192,-0.62483 2.074323,-0.01 2.596245,-0.51259 2.387545,-2.30016 -0.220995,-1.89316 0.481656,-2.04243 1.789245,-0.38011 0.873654,1.11066 0.929685,1.97347 0.235045,3.61985 -0.208529,0.49432 0.156654,1.2207 1.169355,2.32573 l 1.472597,1.60691 3.398405,-1.12319 c 4.972225,-1.64332 9.247068,-2.029 22.489814,-2.029 13.039663,0 16.803453,0.34059 22.122443,2.00184 l 3.55335,1.10979 1.09092,-1.02035 c 1.62608,-1.52088 1.93078,-2.30142 1.42136,-3.64128 -0.63141,-1.66074 0.17684,-3.41218 1.84267,-3.99289 1.4582,-0.50834 2.03105,-0.28202 1.2537,0.49531 -0.27878,0.27879 -0.50688,1.04296 -0.50688,1.69817 0,0.93854 0.2499,1.25727 1.178,1.50243 0.64791,0.17114 1.41896,0.26275 1.71347,0.20356 0.89435,-0.17972 0.59847,1.12235 -0.41659,1.83332 -0.52363,0.36676 -1.37728,0.66684 -1.89706,0.66684 -1.39815,0 -2.35863,1.17934 -2.20733,2.71031 0.10794,1.09226 0.67103,1.70006 3.29062,3.55192 9.72218,6.87288 15.56784,16.73745 16.76607,28.29283 1.98792,19.17081 -10.47846,37.02189 -29.47969,42.21318 -3.00795,0.82179 -4.5966,0.91089 -18.07644,1.01388 -8.12826,0.0621 -15.994446,-0.0542 -17.480407,-0.25833 z m 34.656587,-2.86659 c 5.29667,-1.54947 9.17262,-3.40221 11.4819,-5.48853 0.90509,-0.81769 1.83226,-1.48671 2.06036,-1.48671 0.22811,0 1.12815,-0.77107 2.00009,-1.71347 0.87193,-0.94241 1.75737,-1.71347 1.96758,-1.71347 0.21024,0 0.50148,-0.37572 0.64721,-0.83493 0.14578,-0.4592 0.83656,-1.44674 1.5351,-2.19453 1.3524,-1.44774 2.11416,-2.69579 3.11864,-5.10951 0.34321,-0.8246 1.0952,-2.55949 1.67114,-3.8553 1.63641,-3.68157 2.19401,-7.74341 1.92165,-13.99779 -0.13454,-3.09022 -0.52089,-6.33609 -0.88325,-7.42055 -0.35421,-1.06021 -0.88059,-2.69871 -1.1697,-3.64112 -0.2891,-0.9424 -0.88372,-2.17319 -1.32142,-2.73506 -0.43766,-0.56188 -0.79573,-1.3762 -0.79573,-1.80962 0,-0.85462 -4.34172,-6.43513 -7.08262,-9.1035 -2.91757,-2.84033 -8.32364,-6.12239 -12.59309,-7.64536 -4.98054,-1.77662 -9.17317,-2.11487 -24.446075,-1.97226 -13.582527,0.12682 -14.441959,0.18189 -16.063756,1.02934 -0.942406,0.49243 -2.291762,1.03711 -2.998568,1.21039 -1.589669,0.3897 -7.203286,3.45042 -7.926412,4.3217 -0.292403,0.35235 -0.749,0.645 -1.01463,0.65036 -0.857419,0.0173 -5.188979,4.39757 -7.615162,7.70086 -1.297866,1.76701 -2.995313,4.75487 -3.772198,6.63968 -0.776844,1.88481 -1.725419,4.19173 -2.107908,5.12647 -0.553192,1.35182 -0.695496,3.27995 -0.695496,9.42407 0,7.15618 0.07013,7.85796 0.953159,9.53784 0.524235,0.99731 0.851507,2.07821 0.727281,2.40198 -0.12427,0.32378 0.458823,1.75703 1.295767,3.185 0.8369,1.42797 1.521645,2.76392 1.521645,2.96879 0,0.20485 0.570456,1.03986 1.267708,1.85556 0.69721,0.81571 1.275505,1.72773 1.2851,2.02674 0.02999,0.94089 5.298513,5.66311 6.320724,5.66548 0.541327,10e-4 1.168242,0.41231 1.459875,0.95719 0.791364,1.47872 1.273748,1.83955 4.991415,3.73381 3.162032,1.61112 5.926154,2.404 12.090653,3.46816 1.060207,0.18302 7.710602,0.29078 14.778654,0.23949 l 12.851004,-0.0933 z m -39.022888,-8.54772 c -1.605947,-0.15664 -4.384891,-0.86115 -5.782951,-1.46609 -0.471203,-0.20388 -1.367904,-0.55545 -1.992634,-0.78129 -0.624772,-0.22583 -1.675942,-1.14544 -2.33597,-2.04358 -0.660027,-0.89815 -1.704771,-2.15233 -2.321662,-2.78707 -0.616891,-0.63474 -1.371888,-1.9841 -1.677741,-2.99857 -0.305897,-1.01446 -0.813726,-2.55003 -1.128533,-3.41238 -0.339823,-0.93094 -0.447643,-2.06207 -0.26533,-2.78438 0.168862,-0.66907 0.208529,-3.9152 0.0882,-7.21362 -0.200818,-5.50542 -0.139604,-6.19871 0.746601,-8.45557 0.530961,-1.35214 0.91649,-2.63981 0.856734,-2.86149 -0.05976,-0.22169 0.474416,-1.04304 1.187047,-1.82524 0.712631,-0.78219 1.63272,-1.95228 2.044637,-2.60018 0.411875,-0.64791 0.967252,-1.17801 1.234082,-1.17801 0.266831,0 1.081627,-0.45324 1.810664,-1.00721 0.729038,-0.55396 3.060423,-1.54945 5.180839,-2.2122 l 3.855301,-1.20502 16.512298,-0.1816 c 13.835306,-0.15216 17.099286,-0.0713 20.133246,0.49879 8.24494,1.54924 8.31892,1.5778 11.65174,4.49591 1.70871,1.49609 3.47158,3.41469 3.9175,4.26354 1.79837,3.42326 2.94446,12.11092 1.98236,15.02618 -0.39097,1.18471 -0.43227,2.24222 -0.1456,3.73135 0.40702,2.11446 0.12675,3.53673 -1.48456,7.53378 -0.80648,2.00058 -5.37377,6.73861 -7.37428,7.64993 -3.89917,1.77626 -3.90577,1.77676 -24.84528,1.86983 -11.191079,0.0498 -21.022101,0.0246 -21.846708,-0.0558 z"
       style="fill:#c7d7db"
       sodipodi:nodetypes="sssscssscscccssscssscsssssssssssssssscsccscscsssssscscccssccsccccssscssscsscccsssscssscssssssssss" />
    <path
       inkscape:connector-curvature="0"
       id="path3006"
       d="m 76.147843,301.89541 c -3.820389,-0.48357 -9.183155,-2.21803 -12.208452,-3.94853 -1.29581,-0.74121 -2.891776,-1.62395 -3.546577,-1.96164 -0.654802,-0.33769 -2.41599,-1.62475 -3.913688,-2.86016 -2.406651,-1.9851 -3.611775,-3.37223 -7.40492,-8.52315 -1.840222,-2.49893 -3.529314,-6.14711 -4.879484,-10.53897 -1.252631,-4.07446 -1.370045,-4.95541 -1.392406,-10.44682 -0.02099,-5.20397 0.121741,-6.5109 1.080941,-9.88173 1.382339,-4.85787 2.845126,-7.97934 5.884474,-12.55715 2.567845,-3.8676 6.640029,-7.90102 9.829519,-9.73588 2.765965,-1.59121 3.485407,-2.29307 3.485407,-3.40024 0,-1.1781 1.038404,-1.64006 2.140034,-0.95206 0.660071,0.41221 1.2579,0.3557 3.04843,-0.28817 5.014847,-1.80331 7.13235,-2.03861 20.29936,-2.25567 14.385329,-0.23714 20.344769,0.19941 25.182179,1.84474 3.5342,1.20205 4.2931,1.25967 5.02205,0.38133 0.69648,-0.83921 1.7091,-0.0809 1.7091,1.27999 0,0.70796 0.77958,1.47401 3.0082,2.95594 7.94707,5.28444 13.07213,12.34372 15.89931,21.89973 1.27161,4.29822 1.39404,5.2199 1.39404,10.49499 0,5.23125 -0.12787,6.21361 -1.3404,10.29707 -2.27961,7.67682 -5.4601,12.7984 -11.46906,18.46877 -2.26991,2.142 -9.07204,6.78532 -9.94766,6.79057 -0.18086,10e-4 -1.78359,0.5679 -3.5617,1.25957 -3.16139,1.2298 -10.26067,2.37397 -10.26067,1.6537 0,-0.18977 0.5388,-0.34504 1.19737,-0.34504 4.17902,0 14.74983,-4.13129 18.81639,-7.35387 5.61786,-4.45186 8.15941,-7.70539 11.32131,-14.49283 0.49391,-1.06021 1.15154,-2.21887 1.46143,-2.57481 0.30987,-0.35593 0.98459,-2.66911 1.49944,-5.14039 0.78006,-3.74454 0.89572,-5.34981 0.69401,-9.63366 -0.28251,-5.99962 -1.26759,-11.03697 -2.45305,-12.54408 -0.4608,-0.58576 -0.83775,-1.3466 -0.83775,-1.69075 0,-0.34416 -0.35581,-1.13742 -0.79069,-1.7628 -0.43487,-0.62537 -1.40179,-2.29364 -2.14872,-3.70724 -1.80904,-3.42382 -7.31257,-9.00718 -11.30645,-11.47045 -3.20221,-1.97499 -8.04203,-4.16494 -9.20457,-4.16494 -0.70964,0 -1.9561,-0.27822 -2.76991,-0.61826 -2.20797,-0.92255 -5.77986,-1.30577 -6.51143,-0.69861 -0.44961,0.37315 -3.18105,0.44144 -10.390766,0.25978 -5.379431,-0.13555 -11.315438,-0.243 -13.191171,-0.2388 -3.466987,0.008 -7.537585,0.81804 -9.813369,1.95333 -0.691984,0.34521 -1.758618,0.63678 -2.370325,0.64791 -2.762537,0.0503 -11.014981,6.34834 -14.949144,11.40882 -3.577934,4.60223 -4.283283,5.86259 -6.069744,10.846 -1.406071,3.92228 -1.832724,6.15457 -2.041896,10.68264 -0.2673,5.78791 0.410204,11.15089 1.86618,14.77195 0.561032,1.39533 1.02007,2.70033 1.02007,2.89999 0,0.19967 0.481913,1.12642 1.070917,2.05947 0.589005,0.93304 1.070917,1.98299 1.070917,2.3332 0,0.56832 0.661441,1.41801 4.722744,6.06692 1.533896,1.7558 7.060599,6.33868 8.772395,7.27428 4.20215,2.29674 12.414541,4.8857 15.501438,4.88685 0.516182,1.9e-4 1.05768,0.19312 1.203282,0.42872 0.145602,0.2356 0.108805,0.40399 -0.08181,0.37418 -0.190581,-0.0298 -1.695905,-0.22499 -3.345118,-0.43374 z M 73.36346,289.91006 c -4.887965,-0.72997 -7.434134,-1.92359 -10.428847,-4.88901 -4.203135,-4.16198 -5.683185,-7.79098 -6.10911,-14.97937 -0.315021,-5.31591 0.24751,-8.82762 2.035343,-12.70633 2.230162,-4.8384 7.353687,-8.93593 13.018323,-10.41138 3.655725,-0.95221 36.097011,-0.96662 39.740311,-0.0177 3.54894,0.92439 6.5458,2.57234 9.14059,5.02637 2.90522,2.74765 4.25191,5.07014 5.34559,9.21879 0.75238,2.8539 0.83946,4.10446 0.61868,8.88392 -0.2293,4.96327 -0.39307,5.8533 -1.52044,8.26249 -2.67678,5.72011 -6.37573,9.31405 -11.23709,10.91804 -2.52261,0.83234 -3.80326,0.89552 -20.255927,0.99925 -9.808139,0.0619 -18.792452,-0.0729 -20.347423,-0.30509 z m 19.452822,-9.06958 c 0.340166,-0.53928 0.276596,-0.89121 -0.257449,-1.42527 -0.932383,-0.93238 -2.060701,-0.46251 -2.060701,0.85812 0,1.59375 1.447237,1.94783 2.31815,0.56715 z m -0.536958,-7.68969 c -0.543298,-0.54329 -0.105721,-2.02589 0.526334,-1.78335 0.560347,0.21504 4.254625,-4.57223 4.960017,-6.42749 0.243698,-0.64095 0.442332,-1.97207 0.441475,-2.95803 -0.0056,-6.08558 -7.915619,-8.04598 -11.138266,-2.76042 -1.029365,1.6883 -1.155691,4.18049 -0.21187,4.18049 0.353402,0 0.642551,-0.35676 0.642551,-0.79281 0,-1.67532 0.987256,-3.53635 2.211957,-4.16968 1.685366,-0.87154 6.241218,-0.68696 6.18189,0.25045 -0.02227,0.35341 0.223908,0.58648 0.547325,0.51795 0.348689,-0.0739 0.495705,0.11592 0.361241,0.46634 -0.124741,0.32503 -0.08927,1.24854 0.07873,2.05226 0.247639,1.18439 0.06807,1.86718 -0.947675,3.60314 -0.689285,1.17801 -1.822401,2.79078 -2.518069,3.58393 -1.657222,1.8895 -2.679905,4.08088 -2.329973,4.99272 0.23119,0.60255 0.394269,0.63489 0.93564,0.1856 0.402536,-0.33407 0.502388,-0.69738 0.25869,-0.9411 z M 62.048879,224.71492 c -0.659299,-0.48209 -0.675833,-0.62096 -0.128124,-1.07551 0.516225,-0.42843 0.673606,-0.351 0.878408,0.43219 0.317677,1.21488 0.185912,1.32788 -0.750284,0.64332 z m 58.603361,-0.47876 c 0.14371,-0.57266 0.0756,-1.52966 -0.15138,-2.12667 -0.26413,-0.69475 -0.26439,-1.17714 0,-1.34011 0.22661,-0.14005 0.412,0.20878 0.412,0.77517 0,0.5664 0.39834,1.39027 0.88514,1.83083 0.83612,0.75671 0.84345,0.83148 0.13231,1.3515 -1.13666,0.83115 -1.56755,0.6656 -1.27734,-0.49072 z"
       style="fill:#b7d4d8"
       sodipodi:nodetypes="ssscsscssssssssssssssscsssssscscsscsscssssssscsssssssscscsssssscssssccccscccscsssscsccsscccsssscccssccc" />
    <path
       inkscape:connector-curvature="0"
       id="path3004"
       d="m 71.563333,288.70527 c -5.061624,-1.61839 -9.379047,-5.19119 -11.805787,-9.76957 -1.52533,-2.87779 -2.076166,-4.83829 -2.438735,-8.67984 -1.020842,-10.81709 5.224446,-20.36026 14.988724,-22.90352 2.05946,-0.53644 5.625099,-0.65666 19.475697,-0.65666 18.448308,0 19.846278,0.14287 24.110798,2.4639 5.22008,2.84114 9.33162,8.95903 10.17101,15.13427 1.56402,11.50644 -4.09617,21.3096 -14.08659,24.39715 -2.52487,0.78032 -4.00129,0.83969 -20.347417,0.81833 -15.836978,-0.0207 -17.872834,-0.10227 -20.0677,-0.80406 z m 21.059541,-7.50548 c 0.823322,-0.99203 0.365697,-2.16241 -0.845511,-2.16241 -0.796633,0 -1.101459,0.25768 -1.209621,1.02247 -0.214355,1.51608 1.125962,2.25953 2.055132,1.13994 z m -0.261646,-7.28909 c 0.132751,-0.34586 0.0751,-0.73158 -0.128125,-0.85716 -0.551993,-0.34115 -0.01842,-1.91282 0.572555,-1.6861 0.793549,0.30452 4.6366,-5.25933 5.24034,-7.58685 0.598429,-2.30697 0.255306,-4.23335 -1.001264,-5.62188 -2.806489,-3.10112 -8.17641,-2.56305 -9.994912,1.00149 -1.015358,1.99029 -1.117695,4.24179 -0.192808,4.24179 0.353402,0 0.642551,-0.35676 0.642551,-0.79281 0,-1.60948 0.916191,-3.34125 2.154727,-4.07288 1.645314,-0.97191 6.303075,-0.85718 6.23912,0.15365 -0.02227,0.35341 0.223908,0.58648 0.547325,0.51795 0.348689,-0.0739 0.495705,0.11592 0.361241,0.46634 -0.124741,0.32503 -0.08846,1.24854 0.08057,2.05226 0.251152,1.19421 0.07274,1.85279 -0.976162,3.60314 -0.705906,1.17801 -1.839836,2.79078 -2.519869,3.58393 -1.612629,1.88095 -2.648505,4.08857 -2.320034,4.94448 0.327572,0.85373 0.977233,0.88014 1.294739,0.0527 z"
       style="fill:#6f909b"
       sodipodi:nodetypes="sssssssssssscscccscsssccscssccc" />
    <path
       inkscape:connector-curvature="0"
       id="path3000"
       d="m 74.434377,288.63001 c -7.610108,-1.09414 -14.390468,-7.5675 -16.014664,-15.28957 -1.032664,-4.90973 -0.429223,-10.78648 1.539293,-14.99053 2.635185,-5.62793 8.721462,-9.97136 15.117921,-10.78882 4.224896,-0.53993 29.785113,-0.53865 33.626793,0.002 8.06247,1.13401 14.7739,7.38904 16.44303,15.32484 2.64619,12.58111 -4.68885,24.07584 -16.44303,25.76779 -3.59999,0.5182 -30.627711,0.49816 -34.269343,-0.0254 z m 18.538645,-6.61836 c 1.604747,-1.124 0.857804,-4.04519 -1.034379,-4.04519 -2.117545,0 -3.051984,2.31133 -1.588297,3.92866 0.866328,0.95729 1.38915,0.98052 2.622676,0.11653 z m 0.0081,-7.93977 c 0.401337,-0.72842 1.308018,-2.19578 2.014824,-3.26084 3.953225,-5.95689 4.069484,-6.20599 4.069484,-8.71894 0,-4.34175 -2.886293,-7.03493 -7.192921,-6.71163 -3.719337,0.27923 -6.514817,3.09857 -6.514817,6.57052 0,3.43551 2.638954,3.39503 3.147725,-0.0483 0.318748,-2.15743 1.558142,-3.21276 3.773055,-3.21276 2.013282,0 3.78839,1.50426 3.78839,3.21035 0,1.36268 -1.182592,3.72878 -2.998568,5.99955 -2.64585,3.30845 -3.567695,5.89919 -2.484527,6.98237 0.850309,0.85033 1.627023,0.5878 2.397355,-0.81034 z"
       style="fill:#082437"
       sodipodi:nodetypes="cssssssccssssssssscsssss" />
  </g>
</svg>
