<svg xmlns="http://www.w3.org/2000/svg" width="110" height="110" viewBox="0 0 110 110">
  <g fill="none" fill-rule="evenodd">
    <rect width="110" height="110"/>
    <g transform="translate(25 2)">
      <path stroke="#FFF" stroke-linecap="round" stroke-linejoin="round" stroke-width="4.16" d="M15.2608696 65.2307692L44.7391304 65.2307692M5.86956522 94L54.2608696 94C58.4347826 94 60.9130435 89.2923077 58.5652174 85.8923077L37.826087 54.7692308 37.826087 26 45.6521739 26 14.3478261 26 22.173913 26 22.173913 54.7692308 1.43478261 85.8923077C-.782608696 89.2923077 1.69565217 94 5.86956522 94z"/>
      <path fill="#FFF" d="M33.7742 6C31.1426 6 29 8.13423913 29 10.7569022 29 13.3789674 31.1426 15.5138043 33.7742 15.5138043 36.4064 15.5138043 38.5484 13.3789674 38.5484 10.7569022 38.5484 8.13423913 36.4064 6 33.7742 6M25 0C23.3463617 0 22 1.34110791 22 2.98913043 22 4.6367773 23.3463617 5.97826087 25 5.97826087 26.6540153 5.97826087 28 4.6367773 28 2.98913043 28 1.34110791 26.6540153 0 25 0M27 15C25.8975745 15 25 15.8940719 25 16.9927536 25 18.0911849 25.8975745 18.9855072 27 18.9855072 28.1026769 18.9855072 29 18.0911849 29 16.9927536 29 15.8940719 28.1026769 15 27 15"/>
    </g>
  </g>
</svg>
