<svg xmlns="http://www.w3.org/2000/svg" viewBox="0 0 30 30">
<rect fill="none" width="30" height="30"/>
<path fill="#000000" d="M11.71,20.71c-0.39,0.39-1.02,0.39-1.41,0s-0.39-1.02,0-1.41L14,15.59V8c0-0.55,0.45-1,1-1s1,0.45,1,1v8 c0,0.27-0.11,0.52-0.29,0.71L11.71,20.71z M24,26h-2.1c3.73-2.34,6.1-6.48,6.1-11c0-7.17-5.83-13-13-13S2,7.83,2,15 c0,6.71,5.23,12.39,11.92,12.95c0.03,0,0.06,0,0.08,0c0.51,0,0.95-0.4,1-0.92c0.04-0.55-0.36-1.03-0.92-1.08 C8.43,25.49,4,20.67,4,15C4,8.93,8.93,4,15,4s11,4.93,11,11c0,4.15-2.36,7.92-6,9.78V22c0-0.55-0.45-1-1-1s-1,0.45-1,1v5 c0,0.55,0.45,1,1,1h5c0.55,0,1-0.45,1-1S24.55,26,24,26z"/>
</svg>