<svg xmlns="http://www.w3.org/2000/svg" viewBox="0 0 30 30">
<rect fill="none" width="30" height="30"/>
<path fill="#000000" d="M12,19v6c0,0.55-0.45,1-1,1s-1-0.45-1-1v-3.59L5.71,25.7c-0.39,0.39-1.02,0.39-1.41,0s-0.39-1.02,0-1.41L8.59,20H5 c-0.55,0-1-0.45-1-1s0.45-1,1-1h6C11.55,18,12,18.44,12,19z M26,19c0-0.55-0.45-1-1-1h-6c-0.55,0-1,0.45-1,1v6c0,0.55,0.45,1,1,1 s1-0.45,1-1v-3.59l4.29,4.29c0.39,0.39,1.02,0.39,1.41,0s0.39-1.02,0-1.41L21.41,20H25C25.55,20,26,19.55,26,19z M11,4 c-0.55,0-1,0.45-1,1v3.59L5.71,4.3c-0.39-0.39-1.02-0.39-1.41,0s-0.39,1.02,0,1.41L8.59,10H5c-0.55,0-1,0.45-1,1s0.45,1,1,1h6 c0.55,0,1-0.45,1-1V5C12,4.45,11.55,4,11,4z M25,10h-3.59l4.29-4.29c0.39-0.39,0.39-1.02,0-1.41s-1.02-0.39-1.41,0L20,8.59V5 c0-0.55-0.45-1-1-1s-1,0.45-1,1v6c0,0.55,0.45,1,1,1h6c0.55,0,1-0.45,1-1S25.55,10,25,10z"/>
</svg>