<svg xmlns="http://www.w3.org/2000/svg" viewBox="0 0 30 30">
<rect fill="none" width="30" height="30"/>
<path fill="#000000" d="M15,10c2.21,0,4-1.79,4-4s-1.79-4-4-4s-4,1.79-4,4S12.79,10,15,10z M15,4c1.1,0,2,0.9,2,2s-0.9,2-2,2s-2-0.9-2-2 S13.9,4,15,4z M6,12c1.65,0,3-1.35,3-3S7.65,6,6,6S3,7.35,3,9S4.35,12,6,12z M6,8c0.55,0,1,0.45,1,1s-0.45,1-1,1S5,9.55,5,9 S5.45,8,6,8z M24,12c1.65,0,3-1.35,3-3s-1.35-3-3-3s-3,1.35-3,3S22.35,12,24,12z M24,8c0.55,0,1,0.45,1,1s-0.45,1-1,1s-1-0.45-1-1 S23.45,8,24,8z M25,14h-3.56c-0.69-1.19-1.97-2-3.44-2h-6c-1.47,0-2.75,0.81-3.44,2H5c-1.65,0-3,1.35-3,3v8c0,0.55,0.45,1,1,1h24 c0.55,0,1-0.45,1-1v-8C28,15.35,26.65,14,25,14z M8,24H4v-7c0-0.55,0.45-1,1-1h3V24z M20,24H10v-8c0-1.1,0.9-2,2-2h6 c1.1,0,2,0.9,2,2V24z M26,24h-4v-8h3c0.55,0,1,0.45,1,1V24z"/>
</svg>