<svg xmlns="http://www.w3.org/2000/svg" viewBox="0 0 30 30">
<rect fill="none" width="30" height="30"/>
<path fill="#000000" d="M15.71,25.71c-0.39,0.39-1.02,0.39-1.41,0L3.95,15.36C2.69,14.11,2,12.44,2,10.66C2,6.99,4.99,4,8.66,4 c1.78,0,3.45,0.69,4.71,1.95L15,7.59l1.64-1.64C17.89,4.69,19.56,4,21.34,4C25.01,4,28,6.99,28,10.66c0,1.78-0.69,3.45-1.95,4.71 L15.71,25.71z M8.66,6C6.09,6,4,8.09,4,10.66c0,1.24,0.48,2.41,1.36,3.29L15,23.59l9.64-9.64C25.52,13.07,26,11.9,26,10.66 C26,8.09,23.91,6,21.34,6c-1.24,0-2.41,0.48-3.29,1.36l-2.34,2.34c-0.39,0.39-1.02,0.39-1.41,0l-2.34-2.34C11.07,6.48,9.9,6,8.66,6z"/>
</svg>