<svg xmlns="http://www.w3.org/2000/svg" viewBox="0 0 30 30">
<rect fill="none" width="30" height="30"/>
<path fill="#000000" d="M10.71,21.29c0.39,0.39,0.39,1.02,0,1.41s-1.02,0.39-1.41,0l-7-7c-0.39-0.39-0.39-1.02,0-1.41l7-7 c0.39-0.39,1.02-0.39,1.41,0s0.39,1.02,0,1.41L4.41,15L10.71,21.29z M20,14h-8.59l5.29-5.29c0.39-0.39,0.39-1.02,0-1.41 s-1.02-0.39-1.41,0l-7,7c-0.39,0.39-0.39,1.02,0,1.41l7,7c0.39,0.39,1.02,0.39,1.41,0s0.39-1.02,0-1.41L11.41,16H20 c3.31,0,6,2.69,6,6v1c0,0.55,0.45,1,1,1s1-0.45,1-1v-1C28,17.59,24.41,14,20,14z"/>
</svg>