<svg xmlns="http://www.w3.org/2000/svg" viewBox="0 0 30 30">
<rect fill="none" width="30" height="30"/>
<path fill="#000000" d="M15,10c-2.76,0-5,2.24-5,5s2.24,5,5,5s5-2.24,5-5S17.76,10,15,10z M15,18c-1.65,0-3-1.35-3-3s1.35-3,3-3s3,1.35,3,3 S16.65,18,15,18z M24.9,15l1.97-3.51c0.16-0.29,0.17-0.64,0.02-0.94l-2-4C24.73,6.21,24.38,6,24,6h-4.17l-1.96-3.49 C17.69,2.2,17.36,2,17,2h-4c-0.36,0-0.69,0.2-0.87,0.51L10.17,6H6C5.62,6,5.28,6.21,5.11,6.55l-2,4c-0.15,0.3-0.14,0.65,0.02,0.94 L5.1,15l-1.97,3.51c-0.16,0.29-0.17,0.64-0.02,0.94l2,4C5.28,23.79,5.62,24,6,24h4.17l1.96,3.49C12.3,27.8,12.64,28,13,28h4 c0.36,0,0.69-0.2,0.87-0.51L19.83,24H24c0.38,0,0.73-0.21,0.89-0.55l2-4c0.15-0.3,0.14-0.65-0.02-0.94L24.9,15z M22.88,15.49 l1.99,3.54L23.38,22h-4.13c-0.36,0-0.69,0.2-0.87,0.51L16.42,26h-2.83l-1.96-3.49C11.44,22.2,11.11,22,10.75,22H6.62l-1.49-2.97 l1.99-3.54c0.17-0.3,0.17-0.68,0-0.98l-1.99-3.54L6.62,8h4.13c0.36,0,0.69-0.2,0.87-0.51L13.58,4h2.83l1.96,3.49 C18.56,7.8,18.89,8,19.25,8h4.13l1.49,2.97l-1.99,3.54C22.71,14.81,22.71,15.19,22.88,15.49z"/>
</svg>