<svg xmlns="http://www.w3.org/2000/svg" viewBox="0 0 30 30">
<rect fill="none" width="30" height="30"/>
<path fill="#000000" d="M14,15V3c0-0.55,0.45-1,1-1s1,0.45,1,1v12c0,0.55-0.45,1-1,1S14,15.55,14,15z M20.5,5.48c-0.48-0.28-1.09-0.11-1.37,0.36 c-0.28,0.48-0.11,1.09,0.36,1.37C22.28,8.82,24,11.81,24,15c0,4.96-4.04,9-9,9c-4.96,0-9-4.04-9-9c0-3.19,1.72-6.18,4.5-7.79 c0.48-0.28,0.64-0.89,0.36-1.37C10.59,5.37,9.98,5.21,9.5,5.48C6.11,7.45,4,11.09,4,15c0,6.07,4.93,11,11,11s11-4.93,11-11 C26,11.09,23.89,7.45,20.5,5.48z"/>
</svg>