<svg xmlns="http://www.w3.org/2000/svg" viewBox="0 0 30 30">
<rect fill="none" width="30" height="30"/>
<path fill="#000000" d="M27.95,12.67c-0.12-0.36-0.44-0.62-0.82-0.67l-7.47-0.93L15.9,3.55C15.73,3.21,15.39,3,15.01,3s-0.72,0.21-0.89,0.55 l-3.77,7.52L2.88,12c-0.38,0.05-0.7,0.31-0.82,0.67c-0.12,0.36-0.03,0.76,0.24,1.03l5.6,5.61l-1.86,7.45 c-0.09,0.38,0.04,0.78,0.34,1.02c0.31,0.25,0.72,0.29,1.07,0.11L15,24.12l7.55,3.78c0.35,0.17,0.77,0.13,1.07-0.11 c0.3-0.24,0.44-0.64,0.34-1.02l-1.86-7.46l5.6-5.6C27.98,13.43,28.07,13.03,27.95,12.67z M20.29,18.29 c-0.25,0.25-0.35,0.61-0.26,0.95l1.47,5.9l-6.06-3.03c-0.28-0.14-0.61-0.14-0.89,0L8.5,25.13l1.47-5.89 c0.09-0.34-0.01-0.7-0.26-0.95l-4.55-4.56l5.97-0.74c0.33-0.04,0.62-0.25,0.77-0.54l3.11-6.21l3.1,6.21c0.15,0.3,0.44,0.5,0.77,0.55 l5.97,0.74L20.29,18.29z"/>
</svg>