<svg xmlns="http://www.w3.org/2000/svg" viewBox="0 0 30 30">
<rect fill="none" width="30" height="30"/>
<path fill="#000000" d="M22.42,12.03C22.81,12.98,23,13.98,23,15s-0.19,2.02-0.58,2.97c-0.21,0.51-0.79,0.76-1.3,0.55 c-0.51-0.21-0.76-0.79-0.55-1.3C20.85,16.51,21,15.76,21,15s-0.15-1.51-0.43-2.22c-0.21-0.51,0.04-1.09,0.55-1.3 C21.63,11.27,22.22,11.52,22.42,12.03z M26.75,9.46c-0.24-0.5-0.83-0.71-1.33-0.48c-0.5,0.24-0.71,0.83-0.48,1.33 C25.65,11.8,26,13.37,26,15s-0.35,3.2-1.05,4.68c-0.24,0.5-0.02,1.09,0.48,1.33c0.5,0.24,1.09,0.02,1.33-0.48 C27.58,18.79,28,16.93,28,15S27.58,11.21,26.75,9.46z M16,5.01v20c0,0.37-0.2,0.71-0.53,0.88c-0.32,0.17-0.72,0.15-1.03-0.05L8.7,22 H3c-0.55,0-1-0.45-1-1V9c0-0.55,0.45-1,1-1h5.7l5.75-3.83c0.31-0.2,0.7-0.22,1.03-0.05C15.8,4.3,16,4.64,16,5.01z M14,6.87 L9.55,9.83C9.39,9.94,9.2,10,9,10H4v10h5c0.2,0,0.39,0.06,0.56,0.17L14,23.14V6.87z"/>
</svg>