<svg xmlns="http://www.w3.org/2000/svg" viewBox="0 0 30 30">
<rect fill="none" width="30" height="30"/>
<path fill="#000000" d="M26.71,17.29c0.39,0.39,0.39,1.02,0,1.41s-1.02,0.39-1.41,0L23,16.41l-2.29,2.29c-0.39,0.39-1.02,0.39-1.41,0 s-0.39-1.02,0-1.41L21.59,15l-2.29-2.29c-0.39-0.39-0.39-1.02,0-1.41s1.02-0.39,1.41,0L23,13.59l2.29-2.29 c0.39-0.39,1.02-0.39,1.41,0s0.39,1.02,0,1.41L24.41,15L26.71,17.29z M16,5.01v20c0,0.37-0.2,0.71-0.53,0.88 c-0.32,0.17-0.72,0.15-1.03-0.05L8.7,22H3c-0.55,0-1-0.45-1-1V9c0-0.55,0.45-1,1-1h5.7l5.75-3.83c0.31-0.2,0.7-0.22,1.03-0.05 C15.8,4.3,16,4.64,16,5.01z M14,6.87L9.55,9.83C9.39,9.94,9.2,10,9,10H4v10h5c0.2,0,0.39,0.06,0.56,0.17L14,23.14V6.87z"/>
</svg>