<svg xmlns="http://www.w3.org/2000/svg" viewBox="0 0 30 30">
<rect fill="none" width="30" height="30"/>
<path fill="#000000" d="M21,13c0,0.55-0.45,1-1,1h-2v2c0,0.55-0.45,1-1,1s-1-0.45-1-1v-2h-2c-0.55,0-1-0.45-1-1s0.45-1,1-1h2v-2c0-0.55,0.45-1,1-1 s1,0.45,1,1v2h2C20.55,12,21,12.45,21,13z M26,13c0,4.96-4.04,9-9,9c-2.12,0-4.07-0.74-5.61-1.97l-5.68,5.68 c-0.39,0.39-1.02,0.39-1.41,0c-0.39-0.39-0.39-1.03,0-1.42l5.68-5.68C8.74,17.07,8,15.12,8,13c0-4.96,4.04-9,9-9S26,8.04,26,13z M24,13c0-3.86-3.14-7-7-7s-7,3.14-7,7s3.14,7,7,7S24,16.86,24,13z"/>
</svg>