<svg xmlns="http://www.w3.org/2000/svg" viewBox="0 0 30 30">
<rect fill="none" width="30" height="30"/>
<path fill="#000000" d="M27.89,14.55l-3.45-6.89C23.94,6.64,22.91,6,21.77,6H5C3.35,6,2,7.35,2,9v14c0,0.55,0.45,1,1,1h2.35 c0.56,1.18,1.76,2,3.15,2s2.58-0.82,3.15-2h6.7c0.56,1.18,1.76,2,3.15,2s2.58-0.82,3.15-2H27c0.55,0,1-0.45,1-1v-8 C28,14.84,27.96,14.69,27.89,14.55z M8.5,24C7.67,24,7,23.33,7,22.5S7.67,21,8.5,21s1.5,0.67,1.5,1.5S9.33,24,8.5,24z M21.5,24 c-0.83,0-1.5-0.67-1.5-1.5s0.67-1.5,1.5-1.5s1.5,0.67,1.5,1.5S22.33,24,21.5,24z M26,22h-1.05c-0.25-1.69-1.69-3-3.45-3 s-3.2,1.31-3.45,3h-6.1c-0.25-1.69-1.69-3-3.45-3s-3.2,1.31-3.45,3H4V9c0-0.55,0.45-1,1-1h16.77c0.38,0,0.71,0.21,0.89,0.56 L26,15.24V22z M19.71,14.29c0.39,0.39,0.39,1.02,0,1.41l-4,4c-0.39,0.39-1.02,0.39-1.41,0s-0.39-1.02,0-1.41L16.59,16H9 c-0.55,0-1-0.45-1-1s0.45-1,1-1h7.59l-2.29-2.29c-0.39-0.39-0.39-1.02,0-1.41s1.02-0.39,1.41,0L19.71,14.29z"/>
</svg>