<svg xmlns="http://www.w3.org/2000/svg" viewBox="0 0 30 30">
<rect fill="none" width="30" height="30"/>
<path fill="#000000" d="M27,24H3c-0.55,0-1-0.45-1-1V7c0-0.55,0.45-1,1-1h24c0.55,0,1,0.45,1,1v16C28,23.55,27.55,24,27,24z M4,22h22V8H4V22z M16,13v-3c0-0.55-0.45-1-1-1s-1,0.45-1,1v3c0,0.55,0.45,1,1,1S16,13.55,16,13z M16,20v-3c0-0.55-0.45-1-1-1s-1,0.45-1,1v3 c0,0.55,0.45,1,1,1S16,20.55,16,20z M12,19c0-0.55-0.45-1-1-1H7c-0.55,0-1,0.45-1,1s0.45,1,1,1h4C11.55,20,12,19.55,12,19z M12,15 c0-0.55-0.45-1-1-1H7c-0.55,0-1,0.45-1,1s0.45,1,1,1h4C11.55,16,12,15.55,12,15z M21,16c-1.65,0-3-1.35-3-3s1.35-3,3-3s3,1.35,3,3 S22.65,16,21,16z M21,12c-0.55,0-1,0.45-1,1s0.45,1,1,1s1-0.45,1-1S21.55,12,21,12z"/>
</svg>