<svg xmlns="http://www.w3.org/2000/svg" viewBox="0 0 30 30">
<rect fill="none" width="30" height="30"/>
<path fill="#000000" d="M26,9v18c0,0.55-0.45,1-1,1s-1-0.45-1-1V9.57l-9-5.4l-9,5.4V27c0,0.55-0.45,1-1,1s-1-0.45-1-1V9c0-0.35,0.18-0.68,0.49-0.86 l10-6c0.32-0.19,0.71-0.19,1.03,0l10,6C25.82,8.32,26,8.65,26,9z M20.95,22.68c0.1,0.3,0.05,0.64-0.14,0.9 C20.62,23.85,20.32,24,20,24h-1.22l-0.81,3.24C17.86,27.69,17.46,28,17,28h-4c-0.46,0-0.86-0.31-0.97-0.76L11.22,24H10 c-0.32,0-0.62-0.15-0.81-0.42c-0.19-0.26-0.24-0.6-0.14-0.9l2-6C11.19,16.28,11.57,16,12,16h6c0.43,0,0.81,0.28,0.95,0.68 L20.95,22.68z M16.72,24h-3.44l0.5,2h2.44L16.72,24z M18.61,22l-1.33-4h-4.56l-1.33,4H18.61z M10.29,12.29l1.21-1.21 c0-0.03-0.01-0.05-0.01-0.08c0-1.93,1.57-3.5,3.5-3.5s3.5,1.57,3.5,3.5c0,0.03-0.01,0.05-0.01,0.08l1.21,1.21 c0.39,0.39,0.39,1.02,0,1.41c-0.39,0.39-1.02,0.39-1.41,0l-0.55-0.55C17.1,13.97,16.11,14.5,15,14.5s-2.1-0.53-2.74-1.35l-0.55,0.55 c-0.39,0.39-1.02,0.39-1.41,0C9.9,13.32,9.9,12.68,10.29,12.29z M13.5,11c0,0.83,0.67,1.5,1.5,1.5s1.5-0.67,1.5-1.5 S15.83,9.5,15,9.5S13.5,10.17,13.5,11z"/>
</svg>