<svg xmlns="http://www.w3.org/2000/svg" viewBox="0 0 30 30">
<rect fill="none" width="30" height="30"/>
<path fill="#000000" d="M21,2H9C7.35,2,6,3.35,6,5v20c0,1.65,1.35,3,3,3h12c1.65,0,3-1.35,3-3V5C24,3.35,22.65,2,21,2z M22,25c0,0.55-0.45,1-1,1H9 c-0.55,0-1-0.45-1-1V5c0-0.55,0.45-1,1-1h12c0.55,0,1,0.45,1,1V25z M14,23c0,0.55-0.45,1-1,1h-2c-0.55,0-1-0.45-1-1s0.45-1,1-1h2 C13.55,22,14,22.45,14,23z M20,23c0,0.55-0.45,1-1,1h-2c-0.55,0-1-0.45-1-1s0.45-1,1-1h2C19.55,22,20,22.45,20,23z M14,19 c0,0.55-0.45,1-1,1h-2c-0.55,0-1-0.45-1-1s0.45-1,1-1h2C13.55,18,14,18.45,14,19z M20,19c0,0.55-0.45,1-1,1h-2c-0.55,0-1-0.45-1-1 s0.45-1,1-1h2C19.55,18,20,18.45,20,19z M10,6h10v10H10V6z"/>
</svg>