<svg xmlns="http://www.w3.org/2000/svg" viewBox="0 0 30 30">
<rect fill="none" width="30" height="30"/>
<path fill="#000000" d="M23,4H5C4.45,4,4,4.45,4,5v3H3C2.45,8,2,8.45,2,9s0.45,1,1,1h1v4H3c-0.55,0-1,0.45-1,1s0.45,1,1,1h1v4H3c-0.55,0-1,0.45-1,1 s0.45,1,1,1h1v3c0,0.55,0.45,1,1,1h16c1.65,0,3-1.35,3-3v-7.17c1.16-0.41,2-1.53,2-2.83V7C26,5.35,24.65,4,23,4z M24,13 c0,0.55-0.45,1-1,1c-0.55,0-1,0.45-1,1v8c0,0.55-0.45,1-1,1H6v-2h1c0.55,0,1-0.45,1-1s-0.45-1-1-1H6v-4h1c0.55,0,1-0.45,1-1 s-0.45-1-1-1H6v-4h1c0.55,0,1-0.45,1-1S7.55,8,7,8H6V6h17c0.55,0,1,0.45,1,1V13z M13.37,10.01l-3.5,10h1.94l0.7-2.04h3.78l0.7,2.04 h2.13l-3.57-10H13.37z M13,16.43l0.9-2.55c0.19-0.58,0.36-1.16,0.47-1.67h0.01c0.12,0.56,0.27,1.05,0.46,1.6l0.93,2.62H13z"/>
</svg>