<svg xmlns="http://www.w3.org/2000/svg" viewBox="0 0 30 30">
<rect fill="none" width="30" height="30"/>
<path fill="#000000" d="M23,2H10C6.69,2,4,4.69,4,8v19c0,0.55,0.45,1,1,1h18c0.55,0,1-0.45,1-1V3C24,2.45,23.55,2,23,2z M22,26H6V8 c0-2.21,1.79-4,4-4h12V26z M8.51,13.95h1.98l0.95,3.95c0.12,0.52,0.22,1.12,0.26,1.69h0.01c0.08-0.56,0.17-1.1,0.31-1.64l1.06-3.99 h1.93l1.05,3.92c0.12,0.46,0.24,1.06,0.32,1.67h0.01c0.08-0.62,0.18-1.19,0.3-1.7l0.91-3.89h1.87l-2.03,8.1h-2.27l-0.96-3.81 c-0.13-0.54-0.23-1.18-0.3-1.85h-0.01c-0.06,0.62-0.16,1.21-0.3,1.79l-0.97,3.87h-2.13L8.51,13.95z"/>
</svg>