<svg xmlns="http://www.w3.org/2000/svg" viewBox="0 0 30 30">
<rect fill="none" width="30" height="30"/>
<path fill="#000000" d="M17,12H9c-1.65,0-3,1.35-3,3s1.35,3,3,3s3-1.35,3-3c0-0.35-0.07-0.69-0.18-1h2.37C14.07,14.31,14,14.65,14,15 c0,1.65,1.35,3,3,3s3-1.35,3-3S18.65,12,17,12z M9,16c-0.55,0-1-0.45-1-1s0.45-1,1-1s1,0.45,1,1S9.55,16,9,16z M17,16 c-0.55,0-1-0.45-1-1s0.45-1,1-1s1,0.45,1,1S17.55,16,17,16z M27.62,10.21c-0.24-0.19-0.56-0.26-0.86-0.18L24,10.72V9 c0-1.65-1.35-3-3-3h-7.1C13.43,3.72,11.41,2,9,2H3C2.45,2,2,2.45,2,3v18c0,1.65,1.35,3,3,3h16c1.65,0,3-1.35,3-3v-1.72l2.76,0.69 C26.84,19.99,26.92,20,27,20c0.22,0,0.44-0.07,0.62-0.21C27.86,19.6,28,19.31,28,19v-8C28,10.69,27.86,10.4,27.62,10.21z M4,4h5 c1.3,0,2.4,0.84,2.82,2H5C4.65,6,4.31,6.07,4,6.18V4z M22,21c0,0.55-0.45,1-1,1H5c-0.55,0-1-0.45-1-1V9c0-0.55,0.45-1,1-1h16 c0.55,0,1,0.45,1,1V21z M26,17.72l-2-0.5v-4.44l2-0.5V17.72z"/>
</svg>