<svg xmlns="http://www.w3.org/2000/svg" viewBox="0 0 30 30">
<rect fill="none" width="30" height="30"/>
<path fill="#000000" d="M17,15c0,1.1-0.9,2-2,2s-2-0.9-2-2c0-1.1,0.9-2,2-2S17,13.9,17,15z M10,8c-1.1,0-2,0.9-2,2c0,1.1,0.9,2,2,2s2-0.9,2-2 C12,8.9,11.1,8,10,8z M10,18c-1.1,0-2,0.9-2,2c0,1.1,0.9,2,2,2s2-0.9,2-2C12,18.9,11.1,18,10,18z M20,18c-1.1,0-2,0.9-2,2 c0,1.1,0.9,2,2,2s2-0.9,2-2C22,18.9,21.1,18,20,18z M20,8c-1.1,0-2,0.9-2,2c0,1.1,0.9,2,2,2s2-0.9,2-2C22,8.9,21.1,8,20,8z M26,8v14 c0,2.21-1.79,4-4,4H8c-2.21,0-4-1.79-4-4V8c0-2.21,1.79-4,4-4h14C24.21,4,26,5.79,26,8z M24,8c0-1.1-0.9-2-2-2H8C6.9,6,6,6.9,6,8v14 c0,1.1,0.9,2,2,2h14c1.1,0,2-0.9,2-2V8z"/>
</svg>