<svg xmlns="http://www.w3.org/2000/svg" viewBox="0 0 30 30">
<rect fill="none" width="30" height="30"/>
<path fill="#000000" d="M15,2C7.83,2,2,7.83,2,15s5.83,13,13,13s13-5.83,13-13S22.17,2,15,2z M24.79,10H21c-0.34,0-0.66,0.18-0.85,0.47 c-0.18,0.29-0.2,0.66-0.05,0.97l1.73,3.58L18.47,20l-0.85,0l-1.72-3.45C15.72,16.21,15.38,16,15,16h-3v-4h5c0.55,0,1-0.45,1-1V7 c0-0.55-0.45-1-1-1h-2.38l0.98-1.97C19.61,4.25,23.05,6.61,24.79,10z M4.02,15.44L6,17.41v3.89C4.82,19.63,4.11,17.61,4.02,15.44z M15,26c-2.66,0-5.1-0.95-7-2.52V17c0-0.27-0.11-0.52-0.29-0.71l-3.49-3.49c0.91-4.47,4.55-7.96,9.09-8.66l-1.2,2.41 c-0.16,0.31-0.14,0.68,0.04,0.97S12.65,8,13,8h3v2h-5c-0.55,0-1,0.45-1,1v6c0,0.55,0.45,1,1,1h3.38l1.72,3.45 C16.27,21.79,16.62,22,17,22c0,0,2,0,2,0c0.33,0,0.64-0.17,0.83-0.44l3.98-5.91c0.2-0.29,0.23-0.67,0.07-0.99L22.6,12h2.98 c0.27,0.96,0.43,1.96,0.43,3C26,21.07,21.07,26,15,26z"/>
</svg>