<svg xmlns="http://www.w3.org/2000/svg" viewBox="0 0 30 30">
<rect fill="none" width="30" height="30"/>
<path fill="#000000" d="M25,4H15C8.93,4,4,8.93,4,15c0,2.67,0.96,5.13,2.55,7.03l-2.26,2.26c-0.39,0.39-0.39,1.02,0,1.41s1.02,0.39,1.41,0 l2.26-2.26C9.87,25.04,12.33,26,15,26c6.07,0,11-4.93,11-11V5C26,4.45,25.55,4,25,4z M24,15c0,4.96-4.04,9-9,9 c-2.12,0-4.07-0.74-5.61-1.97L11.41,20H19c0.55,0,1-0.45,1-1s-0.45-1-1-1h-5.59l6.29-6.29c0.39-0.39,0.39-1.02,0-1.41 s-1.02-0.39-1.41,0L12,16.59V11c0-0.55-0.45-1-1-1s-1,0.45-1,1v7.59l-2.03,2.03C6.74,19.07,6,17.12,6,15c0-4.96,4.04-9,9-9h9V15z"/>
</svg>