<svg xmlns="http://www.w3.org/2000/svg" viewBox="0 0 30 30">
<rect fill="none" width="30" height="30"/>
<path fill="#000000" d="M11,21c1.13,0,2.22-0.5,2.99-1.36L15,18.5l1.01,1.14C16.78,20.51,17.87,21,19,21c2.21,0,4-1.79,4-4s-1.79-4-4-4 c-1.13,0-2.22,0.49-2.99,1.35L15,15.5l-1.01-1.14C13.22,13.5,12.14,13,11,13c-2.21,0-4,1.79-4,4S8.79,21,11,21z M17.51,15.68 C17.9,15.24,18.43,15,19,15c1.1,0,2,0.9,2,2s-0.9,2-2,2c-0.57,0-1.1-0.24-1.49-0.69L16.34,17L17.51,15.68z M11,15 c0.57,0,1.1,0.24,1.49,0.68L13.66,17l-1.17,1.32c0,0,0,0,0,0C12.1,18.76,11.57,19,11,19c-1.1,0-2-0.9-2-2S9.9,15,11,15z M25,4H5 C3.35,4,2,5.35,2,7l0,18c0,0.55,0.45,1,1,1h24c0.55,0,1-0.45,1-1l0-18C28,5.35,26.65,4,25,4z M13.41,6h5.17l-2,2h-5.17L13.41,6z M4,7c0-0.55,0.45-1,1-1h5.58l-2,2H4L4,7z M26,24H4l0-14h22L26,24z M26,8h-6.59l2-2H25c0.55,0,1,0.45,1,1L26,8z"/>
</svg>