<svg xmlns="http://www.w3.org/2000/svg" viewBox="0 0 30 30">
<rect fill="none" width="30" height="30"/>
<path fill="#000000" d="M23.66,2.24c-0.22-0.19-0.51-0.28-0.8-0.23l-14,2C8.37,4.08,8,4.5,8,5v13.56C7.41,18.21,6.73,18,6,18c-2.21,0-4,1.79-4,4 s1.79,4,4,4s4-1.79,4-4V10.87l12-1.71v7.4C21.41,16.21,20.73,16,20,16c-2.21,0-4,1.79-4,4s1.79,4,4,4s4-1.79,4-4V3 C24,2.71,23.87,2.43,23.66,2.24z M6,24c-1.1,0-2-0.9-2-2s0.9-2,2-2s2,0.9,2,2S7.1,24,6,24z M10,8.85V5.87l12-1.71v2.98L10,8.85z M20,22c-1.1,0-2-0.9-2-2s0.9-2,2-2s2,0.9,2,2S21.1,22,20,22z"/>
</svg>