<svg xmlns="http://www.w3.org/2000/svg" viewBox="0 0 30 30">
<rect fill="none" width="30" height="30"/>
<path fill="#000000" d="M27,8h-1V5c0-0.55-0.45-1-1-1H5C4.45,4,4,4.45,4,5v3H3C2.45,8,2,8.45,2,9v16c0,0.55,0.45,1,1,1h24c0.55,0,1-0.45,1-1V9 C28,8.45,27.55,8,27,8z M6,6h18v2H6V6z M12,24v-1c0-0.55,0.45-1,1-1h4c0.55,0,1,0.45,1,1v1H12z M26,24h-6v-1c0-1.66-1.34-3-3-3h-4 c-1.66,0-3,1.34-3,3v1H4V10h22V24z M14.92,18.5c1.93,0,3.5-1.57,3.5-3.5s-1.57-3.5-3.5-3.5s-3.5,1.57-3.5,3.5S12.99,18.5,14.92,18.5 z M14.92,13.5c0.83,0,1.5,0.67,1.5,1.5s-0.67,1.5-1.5,1.5s-1.5-0.67-1.5-1.5S14.09,13.5,14.92,13.5z"/>
</svg>