<svg xmlns="http://www.w3.org/2000/svg" viewBox="0 0 30 30">
<rect fill="none" width="30" height="30"/>
<path fill="#000000" d="M25,8h-1V3c0-0.55-0.45-1-1-1H7C6.45,2,6,2.45,6,3v5H5c-1.65,0-3,1.35-3,3v10c0,0.55,0.45,1,1,1h3v3c0,0.55,0.45,1,1,1h16 c0.55,0,1-0.45,1-1v-3h3c0.55,0,1-0.45,1-1V11C28,9.35,26.65,8,25,8z M8,4h14v4H8V4z M22,24H8v-6h14V24z M26,20h-2v-3 c0-0.55-0.45-1-1-1H7c-0.55,0-1,0.45-1,1v3H4v-9c0-0.55,0.45-1,1-1h20c0.55,0,1,0.45,1,1V20z M10,21c0-0.55,0.45-1,1-1h8 c0.55,0,1,0.45,1,1s-0.45,1-1,1h-8C10.45,22,10,21.55,10,21z M24,13c0,0.55-0.45,1-1,1h-4c-0.55,0-1-0.45-1-1s0.45-1,1-1h4 C23.55,12,24,12.45,24,13z"/>
</svg>