<svg xmlns="http://www.w3.org/2000/svg" viewBox="0 0 30 30">
<rect fill="none" width="30" height="30"/>
<path fill="#000000" d="M25,6H9.42l2.29-2.29c0.39-0.39,0.39-1.02,0-1.41c-0.39-0.39-1.02-0.39-1.41,0L6.6,6H5C3.35,6,2,7.35,2,9l0,14 c0,0.55,0.45,1,1,1h24c0.55,0,1-0.45,1-1l0-14C28,7.35,26.65,6,25,6z M26,22H4L4,9c0-0.55,0.45-1,1-1h20c0.55,0,1,0.45,1,1L26,22z M11,10c-2.76,0-5,2.24-5,5s2.24,5,5,5s5-2.24,5-5S13.76,10,11,10z M11,18c-1.65,0-3-1.35-3-3s1.35-3,3-3s3,1.35,3,3S12.65,18,11,18 z M24,11c0,0.55-0.45,1-1,1h-4c-0.55,0-1-0.45-1-1s0.45-1,1-1h4C23.55,10,24,10.45,24,11z M24,18c0,1.1-0.9,2-2,2s-2-0.9-2-2 c0-1.1,0.9-2,2-2S24,16.9,24,18z"/>
</svg>