<svg xmlns="http://www.w3.org/2000/svg" viewBox="0 0 30 30">
<rect fill="none" width="30" height="30"/>
<path fill="#000000" d="M24,13V9c0-1.43-1-2.62-2.34-2.92l-1.76-3.52C19.72,2.21,19.38,2,19,2h-8c-0.38,0-0.72,0.21-0.89,0.55L8.34,6.08 C7,6.38,6,7.57,6,9v12c0,1.43,1,2.62,2.34,2.92l1.76,3.52C10.28,27.79,10.62,28,11,28h8c0.38,0,0.72-0.21,0.89-0.55l1.76-3.52 C23,23.62,24,22.43,24,21v-4h2v-4H24z M11.62,4h6.76l1,2h-8.76L11.62,4z M18.38,26h-6.76l-1-2h8.76L18.38,26z M22,21 c0,0.55-0.45,1-1,1H9c-0.55,0-1-0.45-1-1V9c0-0.55,0.45-1,1-1h12c0.55,0,1,0.45,1,1V21z M17.89,13.45l-2,4 C15.73,17.77,15.39,18,15,18c-0.28,0-0.53-0.11-0.71-0.29l-2-2c-0.39-0.39-0.39-1.02,0-1.41c0.39-0.39,1.02-0.39,1.41,0l1.02,1.02 l1.38-2.76c0.25-0.49,0.85-0.69,1.34-0.45C17.94,12.35,18.14,12.95,17.89,13.45z"/>
</svg>