<svg xmlns="http://www.w3.org/2000/svg" viewBox="0 0 30 30">
<rect fill="none" width="30" height="30"/>
<path fill="#000000" d="M25.06,14.46c0.43-0.76,0.74-1.59,0.86-2.46H27c0.55,0,1-0.45,1-1s-0.45-1-1-1h-1.08c-0.17-1.18-0.64-2.27-1.32-3.18 l0.77-0.77c0.39-0.39,0.39-1.02,0-1.41s-1.02-0.39-1.41,0L23.18,5.4c-0.92-0.69-2-1.15-3.18-1.32V3c0-0.55-0.45-1-1-1s-1,0.45-1,1 v1.08c-1.17,0.17-2.26,0.64-3.18,1.33l-0.77-0.77c-0.39-0.39-1.02-0.39-1.41,0s-0.39,1.02,0,1.41l0.76,0.76 c-0.28,0.37-0.5,0.78-0.7,1.2c-3.41,0.15-6.2,2.74-6.64,6.07C3.75,14.53,2,16.56,2,19c0,2.76,2.24,5,5,5h0.38l-1.28,2.55 c-0.25,0.49-0.05,1.09,0.45,1.34c0.49,0.25,1.09,0.05,1.34-0.45L9.62,24h3.76l-1.28,2.55c-0.25,0.49-0.05,1.09,0.45,1.34 c0.49,0.25,1.09,0.05,1.34-0.45L15.62,24h3.76l-1.28,2.55c-0.25,0.49-0.05,1.09,0.45,1.34c0.49,0.25,1.09,0.05,1.34-0.45L21.62,24 H23c2.76,0,5-2.24,5-5C28,16.98,26.79,15.24,25.06,14.46z M19,6c2.76,0,5,2.24,5,5c0,1.09-0.38,2.13-1.04,3h-3.04 c-0.4-2.77-2.43-5.02-5.08-5.75C15.76,6.87,17.3,6,19,6z M23,22H7c-1.65,0-3-1.35-3-3s1.35-3,3-3c0.55,0,1-0.45,1-1 c0-2.76,2.24-5,5-5s5,2.24,5,5c0,0.55,0.45,1,1,1h4c1.65,0,3,1.35,3,3S24.65,22,23,22z"/>
</svg>