<svg xmlns="http://www.w3.org/2000/svg" viewBox="0 0 30 30">
<rect fill="none" width="30" height="30"/>
<path fill="#000000" d="M26,10.18L26,5c0-0.26-0.11-0.52-0.29-0.71S25.27,4,25,4H5C4.73,4,4.48,4.11,4.29,4.29S4,4.74,4,5l0.11,5.15 C2.89,10.53,2,11.66,2,13l0,14c0,0.55,0.45,1,1,1h24c0.55,0,1-0.45,1-1l0-14C28,11.7,27.16,10.6,26,10.18z M24,6l0,6.59l-9,9l-9-9 L6,6H24z M26,26H4l0-12.59l10.29,10.29c0.39,0.39,1.02,0.39,1.41,0L26,13.41L26,26z M9,9c0-0.55,0.45-1,1-1h10c0.55,0,1,0.45,1,1 s-0.45,1-1,1H10C9.45,10,9,9.55,9,9z M21,13c0,0.55-0.45,1-1,1H10c-0.55,0-1-0.45-1-1s0.45-1,1-1h10C20.55,12,21,12.45,21,13z"/>
</svg>