<svg xmlns="http://www.w3.org/2000/svg" viewBox="0 0 30 30">
<rect fill="none" width="30" height="30"/>
<path fill="#000000" d="M21.71,14.29c0.39,0.39,0.39,1.02,0,1.41l-4,4c-0.39,0.39-1.02,0.39-1.41,0s-0.39-1.02,0-1.41L18.59,16H9 c-0.55,0-1-0.45-1-1s0.45-1,1-1h9.59l-2.29-2.29c-0.39-0.39-0.39-1.02,0-1.41s1.02-0.39,1.41,0L21.71,14.29z M28,9l0,14 c0,0.55-0.45,1-1,1H3c-0.55,0-1-0.45-1-1L2,9c0-1.65,1.35-3,3-3h20C26.65,6,28,7.35,28,9z M26,9c0-0.55-0.45-1-1-1H5 C4.45,8,4,8.45,4,9l0,13h22L26,9z"/>
</svg>