<svg xmlns="http://www.w3.org/2000/svg" viewBox="0 0 30 30">
<rect fill="none" width="30" height="30"/>
<path fill="#000000" d="M10,7c0-0.55,0.45-1,1-1h8c0.55,0,1,0.45,1,1s-0.45,1-1,1h-8C10.45,8,10,7.55,10,7z M11,12h8c0.55,0,1-0.45,1-1s-0.45-1-1-1 h-8c-0.55,0-1,0.45-1,1S10.45,12,11,12z M28,13v12c0,0.55-0.45,1-1,1H3c-0.55,0-1-0.45-1-1V13c0-0.55,0.45-1,1-1s1,0.45,1,1v5h22v-5 c0-0.55,0.45-1,1-1S28,12.45,28,13z M26,20H4v4h22V20z M6,15L6,5c0-1.65,1.35-3,3-3h12c1.65,0,3,1.35,3,3l0,10c0,0.55-0.45,1-1,1H7 C6.45,16,6,15.55,6,15z M8,5l0,9h14l0-9c0-0.55-0.45-1-1-1H9C8.45,4,8,4.45,8,5z"/>
</svg>