<svg xmlns="http://www.w3.org/2000/svg" viewBox="0 0 30 30">
	<path d="M22,18c-1.2,0-2.3,0.6-3.1,1.5l-7.1-3.3c0.1-0.4,0.2-0.7,0.2-1.1c0-0.4-0.1-0.8-0.2-1.1l7.1-3.3c0.7,0.9,1.8,1.5,3.1,1.5
		c2.2,0,4-1.8,4-4s-1.8-4-4-4s-4,1.8-4,4c0,0.2,0,0.5,0.1,0.7l-7.3,3.4C10.1,11.4,9.1,11,8,11c-2.2,0-4,1.8-4,4s1.8,4,4,4
		c1.1,0,2.1-0.4,2.8-1.1l7.3,3.4c0,0.2-0.1,0.5-0.1,0.7c0,2.2,1.8,4,4,4s4-1.8,4-4S24.2,18,22,18z M22,6c1.1,0,2,0.9,2,2s-0.9,2-2,2
		s-2-0.9-2-2S20.9,6,22,6z M8,17c-1.1,0-2-0.9-2-2s0.9-2,2-2s2,0.9,2,2S9.1,17,8,17z M22,24c-1.1,0-2-0.9-2-2s0.9-2,2-2s2,0.9,2,2
		S23.1,24,22,24z"/>
	<rect fill="none" width="30" height="30"/>
</svg>
