<svg xmlns="http://www.w3.org/2000/svg" viewBox="0 0 30 30">
<rect fill="none" width="30" height="30"/>
<path d="M15,2C7.8,2,2,7.8,2,15s5.8,13,13,13s13-5.8,13-13S22.2,2,15,2z M15,26C8.9,26,4,21.1,4,15S8.9,4,15,4s11,4.9,11,11 S21.1,26,15,26z M16.4,15l4.3-4.3c0.4-0.4,0.3-1.1-0.1-1.4c-0.4-0.3-0.9-0.3-1.3,0L15,13.6l-4.3-4.3C10.3,8.9,9.7,9,9.3,9.4 C9,9.8,9,10.3,9.3,10.7l4.3,4.3l-4.3,4.3c-0.4,0.4-0.3,1.1,0.1,1.4c0.4,0.3,0.9,0.3,1.3,0l4.3-4.3l4.3,4.3c0.4,0.4,1.1,0.3,1.4-0.1 c0.3-0.4,0.3-0.9,0-1.3L16.4,15z"/>
</svg>
