<svg xmlns="http://www.w3.org/2000/svg" viewBox="0 0 30 30">
<rect fill="none" width="30" height="30"/>
<path d="M22.4 24h-4.9c-.9 0-1.7-.7-1.7-1.7 0-.4.2-.7.2-.8.2-.3.2-.5.2-.7 0-.7-.6-1.3-1.3-1.3-.7 0-1.3.6-1.3 1.3 0 .2.1.5.2.7.1.1.3.5.3.9 0 .9-.8 1.7-1.7 1.7H7.6c-.6 0-1-.4-1-1v-5c-.4.2-.8.3-1.3.3C3.5 18.3 2 16.8 2 15s1.5-3.2 3.3-3.2c.4 0 .9.1 1.3.3V7c0-.5.4-1 1-1h4.9c.9 0 1.7.7 1.7 1.7 0 .4-.2.7-.2.8-.2.3-.2.5-.2.7 0 .7.6 1.3 1.3 1.3.7 0 1.3-.6 1.3-1.3 0-.2-.1-.5-.2-.7-.1-.1-.3-.5-.3-.9 0-.9.8-1.7 1.7-1.7h4.9c.6 0 1 .4 1 1v5c.4-.2.8-.3 1.3-.3 1.8 0 3.3 1.5 3.3 3.2s-1.5 3.3-3.3 3.3c-.4 0-.9-.1-1.3-.3v5c-.1.8-.5 1.2-1.1 1.2zM18 22h3.4v-4.6c0-.9.8-1.7 1.7-1.7.4 0 .8.2.9.2 1 .6 2-.1 2-1 0-.7-.6-1.3-1.3-1.3-.2 0-.5.1-.7.2-.1.1-.5.3-.9.3-.9 0-1.7-.7-1.7-1.7V8H18c.2.4.3.8.3 1.3 0 1.8-1.5 3.3-3.3 3.3s-3.3-1.5-3.3-3.3c0-.4.1-.9.3-1.3H8.6v4.6c0 .9-.8 1.7-1.7 1.7-.4-.1-.8-.3-.9-.3-1-.6-2 .1-2 1 0 .7.6 1.3 1.3 1.3.2 0 .5-.1.7-.2.1-.1.5-.3.9-.3.9 0 1.7.7 1.7 1.7V22H12c-.2-.4-.3-.8-.3-1.3 0-1.8 1.5-3.3 3.3-3.3s3.3 1.5 3.3 3.3c0 .5-.1.9-.3 1.3z"/><path fill="none" d="M0 0h30v30H0V0z"/></svg>