<svg xmlns="http://www.w3.org/2000/svg" viewBox="0 0 30 30">
<rect fill="none" width="30" height="30"/>
<path fill="none" d="M0 0h30v30H0z"/><path d="M15 2C8.9 2 4 6.9 4 13v7c0 1.7 1.3 3 3 3h1v4c0 .6.4 1 1 1h12c.6 0 1-.4 1-1v-4h1c1.7 0 3-1.3 3-3v-7c0-6.1-4.9-11-11-11zm9 18c0 .6-.4 1-1 1h-4c-.6 0-1 .4-1 1s.4 1 1 1h1v3H10v-3h1c.6 0 1-.4 1-1s-.4-1-1-1H7c-.6 0-1-.4-1-1v-7c0-5 4-9 9-9s9 4 9 9v7z"/><path d="M19 13c-1.7 0-3 1.3-3 3s1.3 3 3 3 3-1.3 3-3c0-1.6-1.3-3-3-3zm-8 0c-1.7 0-3 1.3-3 3s1.3 3 3 3 3-1.3 3-3c0-1.6-1.3-3-3-3z"/><path fill="none" d="M0 0h30v30H0z"/></svg>