<svg xmlns="http://www.w3.org/2000/svg" viewBox="0 0 30 30">
<rect fill="none" width="30" height="30"/>
<path fill="#1D1D1B" d="M6.5 25.6c-.7 0-1.4-.3-2-.7-.1 0-.1-.1-.2-.1l-2.1-2.1c-.1-.3-.2-.5-.2-.8s.1-.5.3-.7L17.1 6.3s.1-.1.2-.1c1.3-1.2 3-1.8 4.7-1.8 2.4 0 4.5 1.2 5.8 3.2.1.1.2.3.2.5v1.3c0 .6-.4 1-1 1h-4v2h4c.6 0 1 .4 1 1v1.3c0 .2-.1.4-.2.5-1.3 2-3.5 3.2-5.8 3.2-1.9 0-3.6-.8-4.9-2.1l-8.4 8.4c-.1.1-.1.1-.2.1-.6.5-1.2.8-2 .8zm-.8-2.4c.5.5 1.1.5 1.5.1l.1-.1 9-9c.2-.2.5-.3.8-.3s.6.2.7.4c.9 1.3 2.5 2.1 4.1 2.1s3-.7 4-2h-4c-.6 0-1-.4-1-1v-4c0-.6.4-1 1-1h4c-.9-1.3-2.4-2-4-2-1.3 0-2.5.5-3.4 1.4l-.1.1-14 14 1.3 1.3z"/><path fill="none" d="M0 0h30v30H0z"/></svg>