<svg xmlns="http://www.w3.org/2000/svg" viewBox="0 0 30 30">
<rect fill="none" width="30" height="30"/>
<path d="M25 13h-6.6c1.8-1 3.7-1.4 4.5-2.2C23.6 10.1 24 9 24 8c0-1.1-.4-2.1-1.2-2.8-1.6-1.6-4.1-1.6-5.7 0-.7.7-1.5 2.7-2.2 4.5-.6-1.8-1.4-3.8-2.2-4.5-1.6-1.6-4.1-1.6-5.7 0-.6.7-1 1.7-1 2.8s.4 2.1 1.2 2.8c.7.7 2.7 1.2 4.5 2.2H5c-1.7 0-3 1.3-3 2.9v11c0 .6.4 1.1 1 1.1h24c.6 0 1-.5 1-1.1v-11c0-1.6-1.3-2.9-3-2.9zM8.6 9.4C8.2 9 8 8.5 8 8s.2-1 .6-1.4S9.5 6 10 6s1 .2 1.4.6c.5.5 1.3 2.7 2.1 4.9-2.3-.8-4.4-1.6-4.9-2.1zM14 26H4V15.9c0-.5.4-.9 1-.9h9v11zm4.6-19.4c.8-.8 2.1-.8 2.8 0 .4.3.6.8.6 1.4 0 .5-.2 1-.6 1.4-.5.5-2.6 1.3-4.9 2.1.7-2.3 1.6-4.5 2.1-4.9zM26 26H16V15h9c.6 0 1 .4 1 .9V26z"/><path fill="none" d="M0 0h30v30H0z"/></svg>