<svg xmlns="http://www.w3.org/2000/svg" viewBox="0 0 30 30">
<rect fill="none" width="30" height="30"/>
<path d="M26.1 10.1c-.3-1.1-1-2.1-2-2.7-.4-.2-.8-.6-1.2-1.1-.4-.4-.6-.9-.8-1.4-.4-1.1-1.1-2.1-2.2-2.6-1-.5-2.2-.5-3.4-.1-.9.3-2.3.3-3.1 0-1.1-.4-2.3-.4-3.4.1C9 2.9 8.3 3.8 7.9 5c-.2.4-.4.9-.8 1.4-.4.4-.8.8-1.1 1C5 8 4.2 9 4 10.1c-.3 1.1 0 2.3.6 3.3.3.4.5.9.6 1.5s.2 1.1.1 1.6c-.2 1.2.1 2.4.9 3.3.6.8 1.6 1.3 2.6 1.5l-1.5 1.5c-.2.2-.3.4-.3.7s.1.5.3.7l3.5 3.5c.2.2.5.3.7.3.3 0 .5-.1.7-.3l2.8-2.8 2.8 2.8c.2.2.4.3.7.3s.5-.1.7-.3l3.5-3.5c.4-.4.4-1 0-1.4l-1.5-1.5c1.1-.2 2-.7 2.6-1.5.7-.9 1-2.1.9-3.3-.1-.4 0-1 .1-1.6s.3-1.1.6-1.5c.7-1 .9-2.2.7-3.3zM11.5 25.6l-2.1-2.1 1.6-1.6c.4.2.8.5 1 .7.4.5.9.8 1.5 1l-2 2zm7 0l-1.9-1.9c.6-.2 1.1-.6 1.5-1 .2-.3.6-.5 1-.7l1.6 1.6-2.2 2zm5.3-13.3c-.4.6-.7 1.3-.9 2.1-.2.8-.2 1.6-.1 2.3.1.6-.1 1.2-.4 1.7-.4.5-.9.8-1.6.8-.7.1-1.5.3-2.2.6-.8.4-1.4.8-1.9 1.3-.8.9-2.4.9-3.2 0-.5-.5-1.1-1-1.9-1.3-.7-.4-1.5-.6-2.2-.6-.7-.1-1.2-.3-1.6-.8s-.5-1.1-.4-1.7c.1-.7.1-1.5-.1-2.3s-.5-1.5-.9-2.1c-.4-.5-.5-1.2-.4-1.8 0-.5.4-1 .9-1.4.6-.3 1.2-.9 1.7-1.5s.9-1.3 1.1-2c.3-.6.7-1.1 1.2-1.4.3-.1.7-.2 1-.2s.6.1.8.2c1.2.5 3.2.5 4.6 0 .6-.2 1.2-.2 1.8 0 .5.3 1 .7 1.2 1.4.2.7.6 1.4 1.1 2 .5.7 1.1 1.2 1.7 1.5.5.3.9.8 1.1 1.4.1.7-.1 1.3-.4 1.8z"/><path d="M15 6.6c-3.3 0-6 2.7-6 6s2.7 6 6 6 6-2.7 6-6-2.7-6-6-6zm0 10c-2.2 0-4-1.8-4-4s1.8-4 4-4 4 1.8 4 4-1.8 4-4 4z"/><path fill="none" d="M0 0h30v30H0z"/></svg>