<svg xmlns="http://www.w3.org/2000/svg" viewBox="0 0 30 30">
<rect fill="none" width="30" height="30"/>
<path d="M15 10c-.6 0-1-.4-1-1V3c0-.6.4-1 1-1s1 .4 1 1v6c0 .6-.4 1-1 1zm0 18c-.6 0-1-.4-1-1v-6c0-.6.4-1 1-1s1 .4 1 1v6c0 .6-.4 1-1 1zM9 16H3c-.6 0-1-.4-1-1s.4-1 1-1h6c.6 0 1 .4 1 1s-.4 1-1 1zm18 0h-6c-.6 0-1-.4-1-1s.4-1 1-1h6c.6 0 1 .4 1 1s-.4 1-1 1zm-16.2-4.2c-.3 0-.5-.1-.7-.3L5.8 7.2c-.4-.4-.4-1 0-1.4s1-.4 1.4 0l4.2 4.2c.4.4.4 1 0 1.4-.1.3-.4.4-.6.4zm12.7 12.7c-.3 0-.5-.1-.7-.3L18.6 20c-.4-.4-.4-1 0-1.4s1-.4 1.4 0l4.2 4.2c.4.4.4 1 0 1.4-.2.2-.5.3-.7.3zm-17 0c-.3 0-.5-.1-.7-.3-.4-.4-.4-1 0-1.4l4.2-4.2c.4-.4 1-.4 1.4 0s.4 1 0 1.4l-4.2 4.2c-.2.2-.4.3-.7.3zm12.7-12.7c-.3 0-.5-.1-.7-.3-.4-.4-.4-1 0-1.4l4.2-4.2c.4-.4 1-.4 1.4 0s.4 1 0 1.4l-4.2 4.2c-.1.2-.4.3-.7.3z"/><path fill="none" d="M0 0h30v30H0z"/></svg>