<svg xmlns="http://www.w3.org/2000/svg" viewBox="0 0 30 30">
<rect fill="none" width="30" height="30"/>
<g>
	<g>
		<path d="M11,11c-1.7,0-3,1.3-3,3s1.3,3,3,3s3-1.3,3-3S12.7,11,11,11z M11,15c-0.6,0-1-0.4-1-1s0.4-1,1-1s1,0.4,1,1S11.6,15,11,15z
			"/>
		<path d="M19,11c-1.7,0-3,1.3-3,3c0,0.6,0.4,1,1,1s1-0.4,1-1c0-0.6,0.4-1,1-1s1,0.4,1,1c0,0.6,0.4,1,1,1s1-0.4,1-1
			C22,12.3,20.7,11,19,11z"/>
		<path d="M27,13h-1.1c-0.5-3.4-3.4-6-6.9-6h-1.6l2.3-2.3c0.4-0.4,0.4-1,0-1.4s-1-0.4-1.4,0L15,6.6l-3.3-3.3c-0.4-0.4-1-0.4-1.4,0
			s-0.4,1,0,1.4L12.6,7H11c-3.5,0-6.4,2.6-6.9,6H3c-0.6,0-1,0.4-1,1c0,0.6,0.4,1,1,1h1v10c0,0.6,0.4,1,1,1h20c0.6,0,1-0.4,1-1V15h1
			c0.6,0,1-0.4,1-1C28,13.4,27.6,13,27,13z M14,21h2v1c0,0.6-0.4,1-1,1s-1-0.4-1-1V21z M24,24h-6.8c0.5-0.5,0.8-1.2,0.8-2v-1.5
			c0.8-0.3,1.4-0.6,1.4-0.6c0.5-0.2,0.7-0.8,0.4-1.3c-0.2-0.5-0.8-0.7-1.3-0.5c0,0-1.8,0.9-3.6,0.9c-1.7,0-3.5-0.9-3.6-0.9
			c-0.5-0.2-1.1,0-1.3,0.5c-0.2,0.5,0,1.1,0.4,1.3c0,0,0.6,0.3,1.4,0.6V22c0,0.8,0.3,1.5,0.8,2H6V14c0-2.8,2.2-5,5-5h8
			c2.8,0,5,2.2,5,5V24z"/>
	</g>
	<rect fill="none" width="30" height="30"/>
</g>
</svg>
