<svg xmlns="http://www.w3.org/2000/svg" viewBox="0 0 30 30">
<rect fill="none" width="30" height="30"/>
<path d="M24 28H6c-2.2 0-4-1.8-4-4V6c0-2.2 1.8-4 4-4h18c2.2 0 4 1.8 4 4v18c0 2.2-1.8 4-4 4zM6 4c-1.1 0-2 .9-2 2v18c0 1.1.9 2 2 2h18c1.1 0 2-.9 2-2V6c0-1.1-.9-2-2-2H6z"/><path d="M12.3 16.3L8 20.6V18c0-.6-.4-1-1-1s-1 .4-1 1v5c0 .1 0 .3.1.4.1.2.3.4.5.5.1.1.3.1.4.1h5c.6 0 1-.4 1-1s-.4-1-1-1H9.4l4.3-4.3c.4-.4.4-1 0-1.4s-1-.4-1.4 0zm11.6-9.7c-.1-.2-.3-.4-.5-.5-.1-.1-.3-.1-.4-.1h-5c-.6 0-1 .4-1 1s.4 1 1 1h2.6l-4.3 4.3c-.4.4-.4 1 0 1.4.2.2.5.3.7.3s.5-.1.7-.3L22 9.4V12c0 .6.4 1 1 1s1-.4 1-1V7c0-.1 0-.3-.1-.4zM19.4 18H22c.6 0 1-.4 1-1s-.4-1-1-1h-5c-.1 0-.3 0-.4.1-.2.1-.4.3-.5.5-.1.1-.1.3-.1.4v5c0 .6.4 1 1 1s1-.4 1-1v-2.6l4.3 4.3c.2.2.5.3.7.3s.5-.1.7-.3c.4-.4.4-1 0-1.4L19.4 18zM13 7c-.6 0-1 .4-1 1v2.6L7.7 6.3c-.4-.4-1-.4-1.4 0s-.4 1 0 1.4l4.3 4.3H8c-.6 0-1 .4-1 1s.4 1 1 1h5c.1 0 .3 0 .4-.1.2-.1.4-.3.5-.5.1-.1.1-.3.1-.4V8c0-.6-.4-1-1-1z"/><path fill="none" d="M0 0h30v30H0z"/></svg>