<svg xmlns="http://www.w3.org/2000/svg" viewBox="0 0 30 30">
<rect fill="none" width="30" height="30"/>
<path fill="#000000" d="M28,13c0,3.86-3.14,7-7,7h-3v-2h3c2.76,0,5-2.24,5-5s-2.24-5-5-5h-2.35c-0.42,0-0.8-0.27-0.94-0.67C17,5.34,15.11,4,13,4 c-2.76,0-5,2.24-5,5v0.1c0,0.48-0.33,0.89-0.8,0.98C5.35,10.46,4,12.11,4,14c0,2.21,1.79,4,4,4h4v2H8c-3.31,0-6-2.69-6-6 c0-2.57,1.65-4.84,4.03-5.67C6.37,4.78,9.37,2,13,2c2.71,0,5.17,1.58,6.32,4H21C24.86,6,28,9.14,28,13z M18.29,22.29L16,24.59V13 c0-0.55-0.45-1-1-1s-1,0.45-1,1v11.59l-2.29-2.29c-0.39-0.39-1.02-0.39-1.41,0s-0.39,1.02,0,1.41l4,4c0.39,0.39,1.02,0.39,1.41,0 l4-4c0.39-0.39,0.39-1.02,0-1.41S18.68,21.9,18.29,22.29z"/>
</svg>