<svg xmlns="http://www.w3.org/2000/svg" viewBox="0 0 30 30">
<rect fill="none" width="30" height="30"/>
<path fill="#000000" d="M10,26c0,1.1-0.9,2-2,2s-2-0.9-2-2c0-1.1,0.9-2,2-2S10,24.9,10,26z M20,24c-1.1,0-2,0.9-2,2c0,1.1,0.9,2,2,2s2-0.9,2-2 C22,24.9,21.1,24,20,24z M26,5v7c0,1.99-1.43,3.65-3.4,3.94L9.66,17.91L8.62,20H21c0.55,0,1,0.45,1,1s-0.45,1-1,1H7 c-0.35,0-0.67-0.18-0.85-0.47s-0.2-0.66-0.04-0.97l1.86-3.72L6,4H3C2.45,4,2,3.55,2,3s0.45-1,1-1h3c1,0,1.83,0.71,1.98,1.7L8.02,4 H25C25.55,4,26,4.45,26,5z M24,6H8.33l1.51,9.86l12.46-1.89C23.28,13.82,24,12.99,24,12V6z"/>
</svg>