<svg xmlns="http://www.w3.org/2000/svg" viewBox="0 0 30 30">
<rect fill="none" width="30" height="30"/>
<path fill="#000000" d="M28,14c0,4.41-3.59,8-8,8h-2v-2h2c3.31,0,6-2.69,6-6s-2.69-6-6-6h-1.35c-0.42,0-0.8-0.27-0.94-0.67C17,5.34,15.11,4,13,4 c-2.76,0-5,2.24-5,5v0.35c0,0.42-0.27,0.8-0.67,0.94C5.34,11,4,12.89,4,15c0,2.76,2.24,5,5,5h3v2H9c-3.86,0-7-3.14-7-7 c0-2.72,1.58-5.18,4.01-6.32C6.18,4.97,9.25,2,13,2c2.71,0,5.17,1.58,6.32,4H20C24.41,6,28,9.59,28,14z M19.71,17.71 c0.39-0.39,0.39-1.02,0-1.41l-4-4c-0.39-0.39-1.02-0.39-1.41,0l-4,4c-0.39,0.39-0.39,1.02,0,1.41s1.02,0.39,1.41,0L14,15.41V27 c0,0.55,0.45,1,1,1s1-0.45,1-1V15.41l2.29,2.29C18.68,18.1,19.32,18.1,19.71,17.71z"/>
</svg>