<svg xmlns="http://www.w3.org/2000/svg" viewBox="0 0 30 30">
<rect fill="none" width="30" height="30"/>
<path fill="#000000" d="M27.62,14.21c-0.24-0.19-0.56-0.26-0.86-0.18l-2.79,0.7c-0.1-1.1-0.79-2.04-1.76-2.47C23.31,11.17,24,9.67,24,8 c0-3.31-2.69-6-6-6c-2.09,0-3.93,1.08-5,2.71C11.92,3.08,10.09,2,8,2C4.69,2,2,4.69,2,8c0,1.67,0.69,3.17,1.79,4.26 C2.74,12.73,2,13.78,2,15v8c0,1.65,1.35,3,3,3h16c1.56,0,2.83-1.2,2.97-2.73l2.79,0.7c0.3,0.08,0.61,0.01,0.86-0.18S28,23.31,28,23 v-8C28,14.69,27.86,14.4,27.62,14.21z M12.99,11.28c0.17,0.25,0.35,0.49,0.55,0.72h-1.1C12.64,11.78,12.82,11.54,12.99,11.28z M8,4 c2.21,0,4,1.79,4,4s-1.79,4-4,4s-4-1.79-4-4S5.79,4,8,4z M22,23c0,0.55-0.45,1-1,1H5c-0.55,0-1-0.45-1-1v-8c0-0.55,0.45-1,1-1h16 c0.55,0,1,0.45,1,1V23z M18,12c-2.21,0-4-1.79-4-4s1.79-4,4-4s4,1.79,4,4S20.21,12,18,12z M26,21.72l-2-0.5v-4.44l2-0.5V21.72z"/>
</svg>