<svg xmlns="http://www.w3.org/2000/svg" viewBox="0 0 30 30">
<rect fill="none" width="30" height="30"/>
<path fill="#000000" d="M27.58,8.19c-0.26-0.19-0.6-0.24-0.9-0.14L22,9.61V9c0-1.65-1.35-3-3-3H5C3.35,6,2,7.35,2,9v12c0,1.65,1.35,3,3,3h14 c1.65,0,3-1.35,3-3v-0.61l4.68,1.56c0.3,0.1,0.64,0.05,0.9-0.14C27.85,21.62,28,21.32,28,21V9C28,8.68,27.85,8.38,27.58,8.19z M20,21c0,0.55-0.45,1-1,1H5c-0.55,0-1-0.45-1-1V9c0-0.55,0.45-1,1-1h14c0.55,0,1,0.45,1,1V21z M26,19.61l-4-1.33v-6.56l4-1.33 V19.61z"/>
</svg>