<svg xmlns="http://www.w3.org/2000/svg" viewBox="0 0 30 30">
<rect fill="none" width="30" height="30"/>
<path fill="#000000" d="M15,2C7.83,2,2,7.83,2,15s5.83,13,13,13s13-5.83,13-13S22.17,2,15,2z M24.94,10.31c0.39,0.83,0.69,1.71,0.87,2.64 l-1.39-1.01L24.94,10.31z M16.38,4.1l-1.39,1.01L13.61,4.1C14.06,4.04,14.53,4,15,4C15.47,4,15.93,4.04,16.38,4.1z M5.59,11.94 L4.2,12.95c0.18-0.93,0.47-1.81,0.87-2.64L5.59,11.94z M7.47,23h1.71l0.53,1.64C8.9,24.19,8.15,23.63,7.47,23z M12.13,25.61 l-1.27-3.92C10.72,21.28,10.34,21,9.91,21H5.79c-1.04-1.58-1.67-3.45-1.76-5.45l3.33-2.42c0.35-0.25,0.5-0.71,0.36-1.12L6.45,8.1 c1.21-1.5,2.8-2.66,4.63-3.36l3.33,2.42c0.18,0.13,0.38,0.19,0.59,0.19s0.41-0.06,0.59-0.19l3.33-2.42c1.83,0.7,3.43,1.87,4.64,3.36 l-1.27,3.91c-0.13,0.41,0.01,0.86,0.36,1.12l3.33,2.42c-0.1,2-0.73,3.87-1.76,5.45h-4.11c-0.43,0-0.82,0.28-0.95,0.69l-1.27,3.92 C16.95,25.86,15.99,26,15,26S13.05,25.86,12.13,25.61z M22.53,23c-0.67,0.63-1.42,1.19-2.24,1.64L20.82,23H22.53z M18.8,19.31 l1.76-5.42c0.13-0.41-0.01-0.86-0.36-1.12l-4.61-3.35c-0.35-0.26-0.82-0.26-1.18,0L9.8,12.78c-0.35,0.25-0.5,0.71-0.36,1.12 l1.76,5.42c0.13,0.41,0.52,0.69,0.95,0.69h5.7C18.28,20,18.67,19.72,18.8,19.31z M12.88,18l-1.31-4.03L15,11.47l3.43,2.49L17.12,18 H12.88z"/>
</svg>