<svg xmlns="http://www.w3.org/2000/svg" viewBox="0 0 30 30">
<rect fill="none" width="30" height="30"/>
<path fill="#000000" d="M15,2C7.83,2,2,7.83,2,15s5.83,13,13,13s13-5.83,13-13S22.17,2,15,2z M15,26C8.93,26,4,21.07,4,15S8.93,4,15,4 s11,4.93,11,11S21.07,26,15,26z M12.08,9.38c-0.16-0.37-0.07-0.8,0.22-1.09l2-2c0.39-0.39,1.02-0.39,1.41,0l2,2 c0.29,0.29,0.37,0.72,0.22,1.09C17.77,9.76,17.4,10,17,10h-4C12.6,10,12.23,9.76,12.08,9.38z M15,12c-1.65,0-3,1.35-3,3s1.35,3,3,3 s3-1.35,3-3S16.65,12,15,12z M15,16c-0.55,0-1-0.45-1-1s0.45-1,1-1s1,0.45,1,1S15.55,16,15,16z M17.92,20.62 c0.16,0.37,0.07,0.8-0.22,1.09l-2,2c-0.39,0.39-1.02,0.39-1.41,0l-2-2c-0.29-0.29-0.37-0.72-0.22-1.09C12.23,20.24,12.6,20,13,20h4 C17.4,20,17.77,20.24,17.92,20.62z M23.71,15.71l-2,2c-0.29,0.29-0.72,0.37-1.09,0.22C20.24,17.77,20,17.4,20,17v-4 c0-0.4,0.24-0.77,0.62-0.92c0.37-0.16,0.8-0.07,1.09,0.22l2,2C24.1,14.68,24.1,15.32,23.71,15.71z M10,13v4 c0,0.4-0.24,0.77-0.62,0.92c-0.37,0.16-0.8,0.07-1.09-0.22l-2-2c-0.39-0.39-0.39-1.02,0-1.41l2-2c0.29-0.29,0.72-0.37,1.09-0.22 C9.76,12.23,10,12.6,10,13z"/>
</svg>