<svg xmlns="http://www.w3.org/2000/svg" viewBox="0 0 30 30">
<rect fill="none" width="30" height="30"/>
<path fill="#000000" d="M23,6h-5c0-2.21-1.79-4-4-4s-4,1.79-4,4H9C7.35,6,6,7.35,6,9l0,16c0,0.55,0.45,1,1,1h18c0.55,0,1-0.45,1-1l0-16 C26,7.35,24.65,6,23,6z M12,6c0-1.1,0.9-2,2-2s2,0.9,2,2v12c0,1.1-0.9,2-2,2s-2-0.9-2-2V6z M24,24H8L8,9c0-0.55,0.45-1,1-1h1v10 c0,2.21,1.79,4,4,4s4-1.79,4-4V8h5c0.55,0,1,0.45,1,1L24,24z M22,19v2c0,0.55-0.45,1-1,1s-1-0.45-1-1v-2c0-0.55,0.45-1,1-1 S22,18.45,22,19z"/>
</svg>