<svg xmlns="http://www.w3.org/2000/svg" viewBox="0 0 30 30">
<rect fill="none" width="30" height="30"/>
<path fill="#000000" d="M15,12c-2.88,0-5.61,0.93-7.91,2.7c-0.44,0.34-0.52,0.96-0.18,1.4l2.43,3.17c0.16,0.21,0.4,0.35,0.66,0.38 c0.26,0.04,0.53-0.04,0.74-0.2c2.47-1.9,6.04-1.9,8.51,0c0.18,0.13,0.39,0.21,0.61,0.21c0.04,0,0.09,0,0.13-0.01 c0.26-0.03,0.5-0.17,0.66-0.38l2.43-3.17c0.34-0.44,0.25-1.07-0.18-1.4C20.61,12.93,17.88,12,15,12z M19.65,17.3 C18.25,16.45,16.66,16,15,16s-3.25,0.45-4.65,1.3l-1.22-1.59C10.89,14.59,12.9,14,15,14s4.11,0.59,5.87,1.71L19.65,17.3z M27.77,8.36C24.06,5.51,19.65,4,15,4S5.94,5.51,2.23,8.36c-0.44,0.34-0.52,0.96-0.18,1.4l2.43,3.17c0.16,0.21,0.4,0.35,0.66,0.38 c0.26,0.03,0.53-0.04,0.74-0.2C8.53,11.08,11.68,10,15,10s6.47,1.08,9.12,3.11c0.18,0.13,0.39,0.21,0.61,0.21 c0.04,0,0.09,0,0.13-0.01c0.26-0.03,0.5-0.17,0.66-0.38l2.43-3.17C28.29,9.32,28.21,8.69,27.77,8.36z M24.53,10.94 C21.7,9.01,18.43,8,15,8s-6.7,1.01-9.53,2.94L4.25,9.35C7.43,7.16,11.13,6,15,6s7.57,1.16,10.75,3.35L24.53,10.94z M15,20 c-1.65,0-3,1.35-3,3s1.35,3,3,3s3-1.35,3-3S16.65,20,15,20z M15,24c-0.55,0-1-0.45-1-1s0.45-1,1-1s1,0.45,1,1S15.55,24,15,24z"/>
</svg>