<svg xmlns="http://www.w3.org/2000/svg" viewBox="0 0 30 30">
<rect fill="none" width="30" height="30"/>
<path fill="#000000" d="M12,9c0-0.55,0.45-1,1-1h4c0.55,0,1,0.45,1,1s-0.45,1-1,1h-4C12.45,10,12,9.55,12,9z M14,18c0.55,0,1-0.45,1-1s-0.45-1-1-1 c-1.1,0-2-0.9-2-2h4v1c0,0.55,0.45,1,1,1s1-0.45,1-1v-1h1c0.55,0,1-0.45,1-1s-0.45-1-1-1h-8c-0.55,0-1,0.45-1,1v1 C10,16.21,11.79,18,14,18z M28,5v13c0,2.21-1.79,4-4,4h-6.67L9.6,27.8C9.43,27.93,9.23,28,9,28c-0.55,0-1-0.45-1-1v-5H6 c-2.21,0-4-1.79-4-4V5c0-0.55,0.45-1,1-1h24C27.55,4,28,4.45,28,5z M26,6H4v12c0,1.1,0.9,2,2,2h3c0.55,0,1,0.45,1,1v4l6.4-4.8 c0.17-0.13,0.38-0.2,0.6-0.2h7c1.1,0,2-0.9,2-2V6z"/>
</svg>