<svg xmlns="http://www.w3.org/2000/svg" viewBox="0 0 30 30">
<rect fill="none" width="30" height="30"/>
<path fill="#000000" d="M10.47,18.32c0.92-0.05,1.64-0.05,2.55-0.05v1.78H8.01v-1.56l1.02-1.12c1.43-1.57,1.75-2.37,1.75-2.9 c0-0.55-0.35-0.95-1.01-0.95c-0.5,0-1.05,0.19-1.43,0.43L8.06,12.3c0.54-0.26,1.27-0.48,2.23-0.48c1.73,0,2.53,1.04,2.53,2.33 c0,1.01-0.56,2.13-1.87,3.61l-0.49,0.55L10.47,18.32z M14.99,17.94c-0.61,0-1.13,0.52-1.13,1.14c0,0.61,0.52,1.13,1.13,1.13 c0.62,0,1.14-0.52,1.14-1.13C16.13,18.45,15.62,17.94,14.99,17.94z M23.29,15.91c0,2.89-1.62,4.26-3.31,4.26 c-1.66,0-3.11-1-3.11-4.11c0-2.83,1.56-4.21,3.27-4.21C22.48,11.84,23.29,13.56,23.29,15.91z M21.33,15.95 c0-1.86-0.37-2.58-1.19-2.58c-0.77,0-1.31,0.68-1.31,2.57c0,1.8,0.32,2.67,1.22,2.67C20.72,18.61,21.33,17.89,21.33,15.95z M28,9v16 c0,0.55-0.45,1-1,1H3c-0.55,0-1-0.45-1-1V9c0-1.65,1.35-3,3-3h7.59l-2.3-2.29c-0.39-0.39-0.39-1.02,0-1.42 c0.39-0.39,1.02-0.39,1.41,0L15,5.58l3.29-3.29c0.39-0.39,1.02-0.39,1.42,0c0.39,0.39,0.39,1.02,0,1.42L17.41,6H25 C26.65,6,28,7.35,28,9z M26,9c0-0.55-0.45-1-1-1H5C4.45,8,4,8.45,4,9v15h22V9z"/>
</svg>