<svg xmlns="http://www.w3.org/2000/svg" viewBox="0 0 30 30">
<rect fill="none" width="30" height="30"/>
<path fill="#000000" d="M28,7c0-0.55-0.45-1-1-1H3C2.45,6,2,6.45,2,7l0,13c0,2.21,1.79,4,4,4h18c2.21,0,4-1.79,4-4L28,7z M24,22H6c-1.1,0-2-0.9-2-2 L4,8h22l0,12C26,21.1,25.1,22,24,22z M21.76,12H8.24c-0.27,0-0.52,0.11-0.71,0.29c-2.04,2.04-2.04,5.37,0,7.41 C7.72,19.89,7.98,20,8.24,20h13.52c0.27,0,0.52-0.11,0.71-0.29c2.04-2.04,2.04-5.37,0-7.41C22.28,12.11,22.02,12,21.76,12z M18,14v4 h-6v-4H18z M8.69,14H10v4H8.69C7.77,16.83,7.77,15.17,8.69,14z M21.31,18H20v-4h1.31C22.23,15.17,22.23,16.83,21.31,18z"/>
</svg>