<svg xmlns="http://www.w3.org/2000/svg" viewBox="0 0 30 30">
<rect fill="none" width="30" height="30"/>
<path fill="#000000" d="M13.5,24c0,0.83-0.67,1.5-1.5,1.5s-1.5-0.67-1.5-1.5s0.67-1.5,1.5-1.5S13.5,23.17,13.5,24z M18,22.5 c-0.83,0-1.5,0.67-1.5,1.5s0.67,1.5,1.5,1.5s1.5-0.67,1.5-1.5S18.83,22.5,18,22.5z M15,18.5c-0.83,0-1.5,0.67-1.5,1.5 s0.67,1.5,1.5,1.5s1.5-0.67,1.5-1.5S15.83,18.5,15,18.5z M22,10h-2.07C19.44,6.61,16.52,4,13,4c-3.63,0-6.63,2.78-6.97,6.33 C3.65,11.16,2,13.43,2,16c0,3.31,2.69,6,6,6h2v-2H8c-2.21,0-4-1.79-4-4c0-1.89,1.35-3.54,3.2-3.92C7.67,11.99,8,11.58,8,11.1V11 c0-2.76,2.24-5,5-5s5,2.24,5,5c0,0.55,0.45,1,1,1h3c2.21,0,4,1.79,4,4s-1.79,4-4,4h-2v2h2c3.31,0,6-2.69,6-6S25.31,10,22,10z"/>
</svg>