<svg xmlns="http://www.w3.org/2000/svg" viewBox="0 0 30 30">
<rect fill="none" width="30" height="30"/>
<path fill="#000000" d="M25.06,14.46c0.43-0.76,0.74-1.59,0.86-2.46H27c0.55,0,1-0.45,1-1s-0.45-1-1-1h-1.08c-0.17-1.18-0.64-2.27-1.32-3.18 l0.77-0.77c0.39-0.39,0.39-1.02,0-1.41s-1.02-0.39-1.41,0L23.18,5.4c-0.92-0.69-2-1.15-3.18-1.32V3c0-0.55-0.45-1-1-1s-1,0.45-1,1 v1.08c-1.17,0.17-2.26,0.64-3.18,1.33l-0.77-0.77c-0.39-0.39-1.02-0.39-1.41,0s-0.39,1.02,0,1.41l0.76,0.76 c-0.28,0.37-0.5,0.78-0.7,1.2c-3.41,0.15-6.2,2.74-6.64,6.07C3.75,14.53,2,16.56,2,19c0,2.76,2.24,5,5,5h3v-2H7c-1.65,0-3-1.35-3-3 s1.35-3,3-3c0.55,0,1-0.45,1-1c0-2.76,2.24-5,5-5s5,2.24,5,5c0,0.55,0.45,1,1,1h4c1.65,0,3,1.35,3,3s-1.35,3-3,3h-3v2h3 c2.76,0,5-2.24,5-5C28,16.98,26.79,15.24,25.06,14.46z M14.85,8.25C15.76,6.87,17.3,6,19,6c2.76,0,5,2.24,5,5 c0,1.09-0.38,2.13-1.04,3h-3.04C19.53,11.23,17.5,8.98,14.85,8.25z M17.85,22.47c0.18,0.29,0.2,0.66,0.04,0.97l-2,4 c-0.25,0.49-0.85,0.69-1.34,0.45c-0.49-0.25-0.69-0.85-0.45-1.34L15.38,24H13c-0.35,0-0.67-0.18-0.85-0.47s-0.2-0.66-0.04-0.97l2-4 c0.25-0.49,0.85-0.69,1.34-0.45c0.49,0.25,0.69,0.85,0.45,1.34L14.62,22H17C17.35,22,17.67,22.18,17.85,22.47z"/>
</svg>