<svg xmlns="http://www.w3.org/2000/svg" viewBox="0 0 30 30">
<rect fill="none" width="30" height="30"/>
<path d="M19 11.4l3.1-3.1c.1.4.5.7.9.7h4c.6 0 1-.4 1-1V4c0-.6-.4-1-1-1h-4c-.6 0-1 .4-1 1v1.6L17.6 10H7c-.6 0-1 .4-1 1v3H3c-.6 0-1 .4-1 1s.4 1 1 1h3v3c0 .6.4 1 1 1h10.6l4.4 4.4V26c0 .6.4 1 1 1h4c.6 0 1-.4 1-1v-4c0-.6-.4-1-1-1h-4c-.4 0-.8.3-.9.7L19 18.6V16h3v1c0 .6.4 1 1 1h4c.6 0 1-.4 1-1v-4c0-.6-.4-1-1-1h-4c-.6 0-1 .4-1 1v1h-3v-2.6zM24 5h2v2h-2V5zm0 18h2v2h-2v-2zm0-9h2v2h-2v-2zm-7 4H8v-6h9v6z"/><path fill="none" d="M0 0h30v30H0V0z"/></svg>