<svg xmlns="http://www.w3.org/2000/svg" viewBox="0 0 30 30">
<rect fill="none" width="30" height="30"/>
<path d="M13.5 17.5l-5-2.9c-.3-.2-.7-.2-1 0l-5 2.9c-.3.2-.5.5-.5.8v5.8c0 .4.2.7.5.9l5 2.9c.2.1.3.1.5.1s.3 0 .5-.1l5-2.9c.3-.2.5-.5.5-.9v-5.8c0-.3-.2-.6-.5-.8zM8 16.6l3 1.7L8 20l-3-1.7 3-1.7zm-4 3.5l1 .6 2 1.2v3.5l-3-1.7v-3.6zm8 3.4l-3 1.7v-3.5l2.3-1.3.7-.4v3.5zM21 12V6.2c0-.4-.2-.7-.5-.9l-5-2.9c-.3-.2-.7-.2-1 0l-5 2.9c-.3.2-.5.6-.5.9V12c0 .4.2.7.5.9l5 2.9c.2.1.3.1.5.1s.3 0 .5-.1l5-2.9c.3-.2.5-.6.5-.9zm-6-7.5l3 1.7-3 1.7-3-1.7 3-1.7zM11 8l3 1.7v3.5l-3-1.7V8zm8 3.4l-3 1.7V9.7l2.8-1.6.2-.1v3.4zm8.5 6.1l-5-2.9c-.3-.2-.7-.2-1 0l-5 2.9c-.3.2-.5.5-.5.8v5.8c0 .4.2.7.5.9l5 2.9c.2.1.3.1.5.1s.3 0 .5-.1l5-2.9c.3-.2.5-.5.5-.9v-5.8c0-.3-.2-.6-.5-.8zm-5.5-.9l3 1.7-3 1.7-3-1.7 3-1.7zm-4 3.5l.7.4 2.3 1.3v3.5l-3-1.7v-3.5zm8 3.4l-3 1.7v-3.5l2-1.2 1-.6v3.6z"/><path fill="none" d="M0 0h30v30H0z"/></svg>