<svg xmlns="http://www.w3.org/2000/svg" viewBox="0 0 30 30">
<rect fill="none" width="30" height="30"/>
<g>
	<g>
		<path d="M16.8,19.2C16.5,19.4,15.7,20,15,20s-1.5-0.6-1.8-0.8c-0.4-0.4-1.1-0.3-1.4,0.1c-0.4,0.4-0.3,1.1,0.1,1.4
			c0.2,0.1,1.5,1.2,3,1.2s2.9-1.1,3-1.2c0.4-0.4,0.5-1,0.1-1.4C17.8,18.9,17.2,18.9,16.8,19.2z"/>
		<path d="M14,13.8c-0.1-0.5-0.7-0.9-1.2-0.7l-4,1c-0.5,0.1-0.9,0.7-0.7,1.2C8.1,15.7,8.6,16,9,16c0.1,0,0.2,0,0.2,0l4-1
			C13.8,14.8,14.1,14.3,14,13.8z"/>
		<path d="M21.2,14l-4-1c-0.5-0.1-1.1,0.2-1.2,0.7c-0.1,0.5,0.2,1.1,0.7,1.2l4,1c0.1,0,0.2,0,0.2,0c0.4,0,0.9-0.3,1-0.8
			C22.1,14.7,21.8,14.2,21.2,14z"/>
		<path d="M27,13h-1.1c-0.5-3.4-3.4-6-6.9-6h-1.6l2.3-2.3c0.4-0.4,0.4-1,0-1.4s-1-0.4-1.4,0L15,6.6l-3.3-3.3c-0.4-0.4-1-0.4-1.4,0
			s-0.4,1,0,1.4L12.6,7H11c-3.5,0-6.4,2.6-6.9,6H3c-0.6,0-1,0.4-1,1c0,0.6,0.4,1,1,1h1v10c0,0.6,0.4,1,1,1h20c0.6,0,1-0.4,1-1V15h1
			c0.6,0,1-0.4,1-1C28,13.4,27.6,13,27,13z M24,24H6V14c0-2.8,2.2-5,5-5h8c2.8,0,5,2.2,5,5V24z"/>
	</g>
	<rect fill="none" width="30" height="30"/>
</g>
</svg>
