<svg width="33" height="34" viewBox="0 0 33 34" xmlns="http://www.w3.org/2000/svg"><g fill="#FFF" fill-rule="evenodd"><path d="M16.498 0C7.401 0 0 7.402 0 16.5 0 25.598 7.401 33 16.498 33 25.597 33 33 25.598 33 16.5 33 7.402 25.597 0 16.498 0zm0 2.011c7.99 0 14.488 6.499 14.488 14.489 0 7.99-6.498 14.489-14.488 14.489-7.986 0-14.484-6.5-14.484-14.489 0-7.99 6.498-14.489 14.484-14.489z"/><path d="M19.934 14.027h-2.338v-1.532c0-.575.381-.71.65-.71h1.651V9.258l-2.274-.01c-2.523 0-3.097 1.887-3.097 3.094v1.686h-1.459v2.606h1.46v7.373h3.069v-7.373h2.07l.268-2.606"/></g></svg>