<svg width="33" height="34" viewBox="165 0 33 34" xmlns="http://www.w3.org/2000/svg"><g fill="#FFF" fill-rule="evenodd"><path d="M181.498 0C172.401 0 165 7.402 165 16.5c0 9.098 7.401 16.5 16.498 16.5C190.597 33 198 25.598 198 16.5 198 7.402 190.597 0 181.498 0zm0 2.011c7.99 0 14.488 6.499 14.488 14.489 0 7.99-6.498 14.489-14.488 14.489-7.986 0-14.484-6.5-14.484-14.489 0-7.99 6.498-14.489 14.484-14.489z"/><path d="M189.673 15.247h-2.242v-2.24a.309.309 0 0 0-.31-.307h-.637a.308.308 0 0 0-.31.307v2.24h-2.243a.31.31 0 0 0-.31.309v.638c0 .17.139.31.31.31h2.242v2.239c0 .17.138.31.311.31h.636a.31.31 0 0 0 .311-.31v-2.239h2.242c.17 0 .311-.14.311-.31v-.638a.31.31 0 0 0-.31-.309"/><path d="M178.38 11.374c.21-.239.486-.367.793-.367l.034.002c.872.025 1.708.995 1.86 2.162.087.653-.059 1.268-.387 1.643a1.037 1.037 0 0 1-.803.364h-.014c-.855-.026-1.705-1.032-1.859-2.198-.085-.65.052-1.236.377-1.606zm-1.222 8.748c0-.925 1.178-1.738 2.521-1.738h.035c.293.005.579.047.848.129.09.064.18.124.266.183.622.423 1.032.702 1.146 1.15.028.113.04.226.04.334 0 1.154-.86 1.739-2.56 1.739-1.288 0-2.296-.789-2.296-1.797zm4.981-2.914c-.472-.333-.9-.822-.906-.971 0-.274.022-.405.637-.884.794-.62 1.232-1.438 1.232-2.299 0-.783-.239-1.479-.647-1.966h.317c.065 0 .13-.02.183-.059l.88-.637a.31.31 0 0 0-.181-.56l-3.945-.001c-.43 0-.868.077-1.299.225-1.438.494-2.443 1.717-2.443 2.974 0 1.777 1.38 3.126 3.226 3.168a1.61 1.61 0 0 0-.055.416c0 .274.068.533.213.784h-.051c-1.76 0-3.346.862-3.948 2.145a2.333 2.333 0 0 0-.239 1.003c0 .322.085.634.248.927.379.677 1.192 1.202 2.291 1.479a7.401 7.401 0 0 0 1.81.216c.569 0 1.11-.075 1.612-.218 1.563-.453 2.574-1.602 2.574-2.93 0-1.272-.41-2.034-1.509-2.812z"/></g></svg>