<svg width="103" height="40" viewBox="0 0 103 40" xmlns="http://www.w3.org/2000/svg"><path fill="none" d="M0 0h103v40H0z"/><path d="M55.669 16.387c-.7-.25-1.798-.549-2.696-.549-1.049 0-1.847.25-1.847 1.199 0 2.196 5.741.848 5.741 5.441 0 3.096-2.496 4.294-5.342 4.294-1.298 0-2.596-.2-3.794-.55l.2-2.695s1.847.649 3.444.649c1.099 0 1.997-.35 1.997-1.298 0-2.397-5.741-.849-5.741-5.392 0-2.846 2.396-3.994 5.042-3.994 1.548 0 2.846.3 3.595.549l-.6 2.346zm-10.435 0c-.749-.25-1.797-.549-2.696-.549-1.048 0-1.847.25-1.847 1.199 0 2.196 5.742.848 5.742 5.441 0 3.096-2.547 4.294-5.343 4.294-1.298 0-2.596-.2-3.844-.55l.25-2.695s1.897.649 3.445.649c1.048 0 1.997-.35 1.997-1.298 0-2.397-5.742-.849-5.742-5.392 0-2.846 2.447-3.994 5.043-3.994 1.547 0 2.846.3 3.644.549l-.649 2.346zm52.822-3.045c2.496 0 3.944 1.348 3.944 4.294v8.836h-3.295v-8.187c0-1.348-.4-2.197-1.797-2.197-1.398 0-2.647 1.248-2.647 3.445v6.94h-3.245v-8.188c0-1.248-.4-2.197-1.797-2.197-1.498 0-2.646 1.348-2.646 3.595v6.79h-3.345V13.641c2.197-.25 3.045.649 3.095 2.047.8-1.448 2.197-2.347 3.994-2.347 2.297 0 3.246 1.298 3.545 2.496.6-1.298 1.997-2.496 4.194-2.496zm-67.6.25c-.699 3.794-2.546 9.835-3.744 12.83h-3.495l-2.446-8.587h-.05l-2.447 8.588H14.78c-1.099-2.996-3.146-9.187-3.745-12.831h3.295l2.197 8.836h.05l2.596-8.836h3.295l2.546 8.787h.05l2.197-8.787h3.195zM9.038 16.387c-.699-.25-1.797-.549-2.696-.549-1.048 0-1.797.25-1.797 1.199 0 2.196 5.691.848 5.691 5.441 0 3.096-2.496 4.294-5.342 4.294-1.298 0-2.596-.2-3.794-.55l.2-2.695s1.897.649 3.444.649c1.099 0 1.997-.35 1.997-1.298C6.741 20.48 1 22.029 1 17.486c0-2.846 2.396-3.994 5.043-3.994 1.547 0 2.845.3 3.594.549l-.599 2.346zM74.99 26.722c-3.644 0-6.19-1.997-6.19-6.49 0-3.994 2.695-6.89 6.59-6.89 3.644 0 5.99 2.047 5.99 6.39 0 4.194-2.546 6.99-6.39 6.99zm.15-10.534c-1.498 0-2.896 1.098-2.896 3.944 0 2.446.899 3.794 2.846 3.794 1.648 0 2.896-1.348 2.896-3.944 0-2.496-.899-3.794-2.846-3.794zM31.954 26.472h3.295v-12.83c-1.548-.15-3.295.25-3.295 2.696v10.134zm1.797-14.478c1.149 0 2.097-.899 2.097-2.047 0-1.098-.948-1.997-2.097-1.997-1.098 0-2.047.849-2.047 1.997 0 1.148.949 2.047 2.047 2.047zm30.755 14.678c-3.795 0-6.291-1.897-6.291-6.44 0-3.845 2.147-6.84 6.84-6.84.998 0 2.296.2 3.145.55l-.699 2.695c-.749-.25-1.498-.45-2.346-.45-2.397 0-3.395 1.548-3.395 3.945 0 2.296.898 3.794 3.245 3.794 1.098 0 1.847-.25 2.596-.549l.4 2.646c-.7.35-2.047.65-3.495.65z" fill="#015" fill-rule="evenodd"/></svg>