<?xml version="1.0" encoding="UTF-8"?>
<svg width="220px" height="180px" viewBox="0 0 220 180" version="1.1" xmlns="http://www.w3.org/2000/svg" xmlns:xlink="http://www.w3.org/1999/xlink">
    <!-- Generator: Sketch 46.2 (44496) - http://www.bohemiancoding.com/sketch -->
    <title>Illustration</title>
    <desc>Created with Sketch.</desc>
    <defs>
        <path d="M6.34361152,38.3814197 C5.71879616,39.0062351 5.71879616,40.0315731 6.34361152,40.6563885 C6.96842688,41.2812038 7.97774401,41.2812038 8.60255937,40.6563885 L17.7024344,31.5565135 C20.1856749,33.527085 23.3097517,34.7126321 26.706184,34.7126321 C34.6525537,34.7126321 41.125,28.2401858 41.125,20.293816 C41.125,12.3474463 34.6525537,5.875 26.706184,5.875 C18.7598142,5.875 12.2873679,12.3474463 12.2873679,20.293816 C12.2873679,23.6902483 13.472915,26.8143251 15.4434865,29.2815447 L6.34361152,38.3814197 L6.34361152,38.3814197 Z M26.706184,31.5084507 C20.522114,31.5084507 15.4915493,26.477886 15.4915493,20.293816 C15.4915493,14.1097461 20.522114,9.07918134 26.706184,9.07918134 C32.8902539,9.07918134 37.9208187,14.1097461 37.9208187,20.293816 C37.9208187,26.477886 32.8902539,31.5084507 26.706184,31.5084507 L26.706184,31.5084507 Z" id="path-1"></path>
        <rect id="path-3" x="0" y="0" width="56" height="56" rx="28"></rect>
        <path d="M13.125,17.5 C13.125,18.1015625 12.6328125,18.59375 12.03125,18.59375 L9.84375,18.59375 C9.2421875,18.59375 8.75,18.1015625 8.75,17.5 C8.75,16.8984375 9.2421875,16.40625 9.84375,16.40625 L12.03125,16.40625 C12.6328125,16.40625 13.125,16.8984375 13.125,17.5 L13.125,17.5 Z M12.03125,20.78125 L9.84375,20.78125 C9.2421875,20.78125 8.75,21.2734375 8.75,21.875 C8.75,22.4765625 9.2421875,22.96875 9.84375,22.96875 L12.03125,22.96875 C12.6328125,22.96875 13.125,22.4765625 13.125,21.875 C13.125,21.2734375 12.6328125,20.78125 12.03125,20.78125 L12.03125,20.78125 Z M16.40625,18.59375 L18.59375,18.59375 C19.1953125,18.59375 19.6875,18.1015625 19.6875,17.5 C19.6875,16.8984375 19.1953125,16.40625 18.59375,16.40625 L16.40625,16.40625 C15.8046875,16.40625 15.3125,16.8984375 15.3125,17.5 C15.3125,18.1015625 15.8046875,18.59375 16.40625,18.59375 L16.40625,18.59375 Z M19.6875,21.875 C19.6875,21.2734375 19.1953125,20.78125 18.59375,20.78125 L16.40625,20.78125 C15.8046875,20.78125 15.3125,21.2734375 15.3125,21.875 C15.3125,22.4765625 15.8046875,22.96875 16.40625,22.96875 L18.59375,22.96875 C19.1953125,22.96875 19.6875,22.4765625 19.6875,21.875 L19.6875,21.875 Z M30.625,6.5625 L30.625,30.625 C30.625,31.2265625 30.1328125,31.71875 29.53125,31.71875 L16.40625,31.71875 C15.8046875,31.71875 15.3125,31.2265625 15.3125,30.625 L15.3125,27.34375 L13.125,27.34375 L13.125,30.625 C13.125,31.2265625 12.6328125,31.71875 12.03125,31.71875 L5.46875,31.71875 C4.8671875,31.71875 4.375,31.2265625 4.375,30.625 L4.375,15.3125 C4.375,13.5078125 5.8515625,12.03125 7.65625,12.03125 L10.9375,12.03125 L10.9375,6.5625 C10.9375,4.7578125 12.4140625,3.28125 14.21875,3.28125 L27.34375,3.28125 C29.1484375,3.28125 30.625,4.7578125 30.625,6.5625 L30.625,6.5625 Z M17.5,26.25 L17.5,29.53125 L21.875,29.53125 L21.875,15.3125 C21.875,14.7109375 21.3828125,14.21875 20.78125,14.21875 L7.65625,14.21875 C7.0546875,14.21875 6.5625,14.7109375 6.5625,15.3125 L6.5625,29.53125 L10.9375,29.53125 L10.9375,26.25 C10.9375,25.6484375 11.4296875,25.15625 12.03125,25.15625 L16.40625,25.15625 C17.0078125,25.15625 17.5,25.6484375 17.5,26.25 L17.5,26.25 Z M28.4375,6.5625 C28.4375,5.9609375 27.9453125,5.46875 27.34375,5.46875 L14.21875,5.46875 C13.6171875,5.46875 13.125,5.9609375 13.125,6.5625 L13.125,12.03125 L20.78125,12.03125 C21.284375,12.03125 21.765625,12.1515625 22.1921875,12.359375 C22.3890625,12.1625 22.6625,12.03125 22.96875,12.03125 L25.15625,12.03125 C25.7578125,12.03125 26.25,12.5234375 26.25,13.125 C26.25,13.7265625 25.7578125,14.21875 25.15625,14.21875 L23.865625,14.21875 C23.9859375,14.5578125 24.0625,14.9296875 24.0625,15.3125 L24.0625,16.40625 L25.15625,16.40625 C25.7578125,16.40625 26.25,16.8984375 26.25,17.5 C26.25,18.1015625 25.7578125,18.59375 25.15625,18.59375 L24.0625,18.59375 L24.0625,20.78125 L25.15625,20.78125 C25.7578125,20.78125 26.25,21.2734375 26.25,21.875 C26.25,22.4765625 25.7578125,22.96875 25.15625,22.96875 L24.0625,22.96875 L24.0625,29.53125 L28.4375,29.53125 L28.4375,6.5625 L28.4375,6.5625 Z M18.59375,7.65625 L16.40625,7.65625 C15.8046875,7.65625 15.3125,8.1484375 15.3125,8.75 C15.3125,9.3515625 15.8046875,9.84375 16.40625,9.84375 L18.59375,9.84375 C19.1953125,9.84375 19.6875,9.3515625 19.6875,8.75 C19.6875,8.1484375 19.1953125,7.65625 18.59375,7.65625 L18.59375,7.65625 Z M25.15625,7.65625 L22.96875,7.65625 C22.3671875,7.65625 21.875,8.1484375 21.875,8.75 C21.875,9.3515625 22.3671875,9.84375 22.96875,9.84375 L25.15625,9.84375 C25.7578125,9.84375 26.25,9.3515625 26.25,8.75 C26.25,8.1484375 25.7578125,7.65625 25.15625,7.65625 L25.15625,7.65625 Z" id="path-5"></path>
        <rect id="path-7" x="0" y="0" width="56" height="56" rx="28"></rect>
        <path d="M28.4375,9.84375 L22.96875,9.84375 L22.96875,7.65625 C22.96875,6.453125 21.984375,5.46875 20.78125,5.46875 L14.21875,5.46875 C13.015625,5.46875 12.03125,6.453125 12.03125,7.65625 L12.03125,9.84375 L6.5625,9.84375 C4.7578125,9.84375 3.28125,11.3203125 3.28125,13.125 L3.28125,28.4375 C3.28125,29.0390625 3.7734375,29.53125 4.375,29.53125 L30.625,29.53125 C31.2265625,29.53125 31.71875,29.0390625 31.71875,28.4375 L31.71875,13.125 C31.71875,11.3203125 30.2421875,9.84375 28.4375,9.84375 L28.4375,9.84375 Z M22.96875,12.03125 L22.96875,27.34375 L12.03125,27.34375 L12.03125,12.03125 L22.96875,12.03125 L22.96875,12.03125 Z M14.21875,7.65625 L20.78125,7.65625 L20.78125,9.84375 L14.21875,9.84375 L14.21875,7.65625 L14.21875,7.65625 Z M5.46875,13.125 C5.46875,12.5234375 5.9609375,12.03125 6.5625,12.03125 L9.84375,12.03125 L9.84375,27.34375 L5.46875,27.34375 L5.46875,13.125 L5.46875,13.125 Z M29.53125,27.34375 L25.15625,27.34375 L25.15625,12.03125 L28.4375,12.03125 C29.0390625,12.03125 29.53125,12.5234375 29.53125,13.125 L29.53125,27.34375 L29.53125,27.34375 Z" id="path-9"></path>
        <rect id="path-11" x="0" y="0" width="56" height="56" rx="28"></rect>
        <path d="M17.5,13.125 C19.9171875,13.125 21.875,11.1671875 21.875,8.75 C21.875,6.3328125 19.9171875,4.375 17.5,4.375 C15.0828125,4.375 13.125,6.3328125 13.125,8.75 C13.125,11.1671875 15.0828125,13.125 17.5,13.125 L17.5,13.125 Z M17.5,6.5625 C18.703125,6.5625 19.6875,7.546875 19.6875,8.75 C19.6875,9.953125 18.703125,10.9375 17.5,10.9375 C16.296875,10.9375 15.3125,9.953125 15.3125,8.75 C15.3125,7.546875 16.296875,6.5625 17.5,6.5625 L17.5,6.5625 Z M7.65625,15.3125 C9.4609375,15.3125 10.9375,13.8359375 10.9375,12.03125 C10.9375,10.2265625 9.4609375,8.75 7.65625,8.75 C5.8515625,8.75 4.375,10.2265625 4.375,12.03125 C4.375,13.8359375 5.8515625,15.3125 7.65625,15.3125 L7.65625,15.3125 Z M7.65625,10.9375 C8.2578125,10.9375 8.75,11.4296875 8.75,12.03125 C8.75,12.6328125 8.2578125,13.125 7.65625,13.125 C7.0546875,13.125 6.5625,12.6328125 6.5625,12.03125 C6.5625,11.4296875 7.0546875,10.9375 7.65625,10.9375 L7.65625,10.9375 Z M27.34375,15.3125 C29.1484375,15.3125 30.625,13.8359375 30.625,12.03125 C30.625,10.2265625 29.1484375,8.75 27.34375,8.75 C25.5390625,8.75 24.0625,10.2265625 24.0625,12.03125 C24.0625,13.8359375 25.5390625,15.3125 27.34375,15.3125 L27.34375,15.3125 Z M27.34375,10.9375 C27.9453125,10.9375 28.4375,11.4296875 28.4375,12.03125 C28.4375,12.6328125 27.9453125,13.125 27.34375,13.125 C26.7421875,13.125 26.25,12.6328125 26.25,12.03125 C26.25,11.4296875 26.7421875,10.9375 27.34375,10.9375 L27.34375,10.9375 Z M28.4375,17.5 L24.54375,17.5 C23.7890625,16.1984375 22.3890625,15.3125 20.78125,15.3125 L14.21875,15.3125 C12.6109375,15.3125 11.2109375,16.1984375 10.45625,17.5 L6.5625,17.5 C4.7578125,17.5 3.28125,18.9765625 3.28125,20.78125 L3.28125,29.53125 C3.28125,30.1328125 3.7734375,30.625 4.375,30.625 L30.625,30.625 C31.2265625,30.625 31.71875,30.1328125 31.71875,29.53125 L31.71875,20.78125 C31.71875,18.9765625 30.2421875,17.5 28.4375,17.5 L28.4375,17.5 Z M9.84375,28.4375 L5.46875,28.4375 L5.46875,20.78125 C5.46875,20.1796875 5.9609375,19.6875 6.5625,19.6875 L9.84375,19.6875 L9.84375,28.4375 L9.84375,28.4375 Z M22.96875,28.4375 L12.03125,28.4375 L12.03125,19.6875 C12.03125,18.484375 13.015625,17.5 14.21875,17.5 L20.78125,17.5 C21.984375,17.5 22.96875,18.484375 22.96875,19.6875 L22.96875,28.4375 L22.96875,28.4375 Z M29.53125,28.4375 L25.15625,28.4375 L25.15625,19.6875 L28.4375,19.6875 C29.0390625,19.6875 29.53125,20.1796875 29.53125,20.78125 L29.53125,28.4375 L29.53125,28.4375 Z" id="path-13"></path>
        <rect id="path-15" x="0" y="0" width="56" height="56" rx="28"></rect>
        <path d="M27.34375,31.71875 L7.65625,31.71875 C7.0546875,31.71875 6.5625,31.2265625 6.5625,30.625 L6.5625,9.84375 C6.5625,6.2234375 9.5046875,3.28125 13.125,3.28125 L27.34375,3.28125 C27.9453125,3.28125 28.4375,3.7734375 28.4375,4.375 L28.4375,30.625 C28.4375,31.2265625 27.9453125,31.71875 27.34375,31.71875 L27.34375,31.71875 Z M8.75,29.53125 L26.25,29.53125 L26.25,5.46875 L13.125,5.46875 C10.7078125,5.46875 8.75,7.4265625 8.75,9.84375 L8.75,29.53125 L8.75,29.53125 Z M22.96875,13.125 C22.96875,12.5234375 22.4765625,12.03125 21.875,12.03125 L13.125,12.03125 C12.5234375,12.03125 12.03125,12.5234375 12.03125,13.125 C12.03125,13.7265625 12.5234375,14.21875 13.125,14.21875 L21.875,14.21875 C22.4765625,14.21875 22.96875,13.7265625 22.96875,13.125 L22.96875,13.125 Z M22.96875,17.5 C22.96875,16.8984375 22.4765625,16.40625 21.875,16.40625 L13.125,16.40625 C12.5234375,16.40625 12.03125,16.8984375 12.03125,17.5 C12.03125,18.1015625 12.5234375,18.59375 13.125,18.59375 L21.875,18.59375 C22.4765625,18.59375 22.96875,18.1015625 22.96875,17.5 L22.96875,17.5 Z" id="path-17"></path>
    </defs>
    <g id="ðŸ”TechSearch" stroke="none" stroke-width="1" fill="none" fill-rule="evenodd">
        <g id="00-Start" transform="translate(-730.000000, -160.000000)">
            <g id="Illustration-and-tip" transform="translate(615.000000, 160.000000)">
                <g id="Illustration" transform="translate(115.000000, 0.000000)">
                    <rect id="Circle" stroke="#D6D6D6" stroke-width="2" x="21" y="1" width="178" height="178" rx="89"></rect>
                    <g id="Search" transform="translate(70.000000, 50.000000)">
                        <rect id="Rectangle" fill="#D6D6D6" x="0" y="0" width="80" height="80" rx="40"></rect>
                        <g id="Icon/Search" transform="translate(16.666667, 16.666667)">
                            <rect id="Bounding-Box" fill-opacity="0.15" fill="#BD10E0" fill-rule="evenodd" opacity="0" x="0" y="0" width="47" height="47"></rect>
                            <mask id="mask-2" fill="white">
                                <use xlink:href="#path-1"></use>
                            </mask>
                            <g id="Mask"></g>
                            <g id="Color/Neutrals/Mid-Grey" mask="url(#mask-2)" fill-rule="evenodd" fill="#666666">
                                <rect id="Box" x="0" y="0" width="47" height="47"></rect>
                            </g>
                        </g>
                    </g>
                    <g id="Avatar/Avatar/File---extension" transform="translate(164.000000, 116.000000)">
                        <g id="Button/Shape/Round" opacity="0.99000001">
                            <mask id="mask-4" fill="white">
                                <use xlink:href="#path-3"></use>
                            </mask>
                            <g id="Mask" opacity="0"></g>
                            <g id="Button/State/ALT---Horizon-40%" mask="url(#mask-4)" fill-rule="evenodd" fill="#F8FAFB">
                                <g id="Color/Special/Horizon-40%">
                                    <rect id="Box" x="0" y="0" width="56" height="56"></rect>
                                </g>
                            </g>
                        </g>
                        <g id="Icon/Office" transform="translate(10.500000, 10.500000)">
                            <rect id="Bounding-Box" fill-opacity="0.15" fill="#BD10E0" fill-rule="evenodd" opacity="0" x="0" y="0" width="35" height="35"></rect>
                            <mask id="mask-6" fill="white">
                                <use xlink:href="#path-5"></use>
                            </mask>
                            <g id="Mask"></g>
                            <g id="Color/Neutrals/Mid-Grey" mask="url(#mask-6)" fill-rule="evenodd" fill="#666666">
                                <rect id="Box" x="0" y="0" width="35" height="35"></rect>
                            </g>
                        </g>
                    </g>
                    <g id="Avatar/Avatar/File---extension" transform="translate(0.000000, 116.000000)">
                        <g id="Button/Shape/Round" opacity="0.99000001">
                            <mask id="mask-8" fill="white">
                                <use xlink:href="#path-7"></use>
                            </mask>
                            <g id="Mask" opacity="0"></g>
                            <g id="Button/State/ALT---Horizon-40%" mask="url(#mask-8)" fill-rule="evenodd" fill="#F8FAFB">
                                <g id="Color/Special/Horizon-40%">
                                    <rect id="Box" x="0" y="0" width="56" height="56"></rect>
                                </g>
                            </g>
                        </g>
                        <g id="Icon/Suitcase" transform="translate(10.500000, 10.500000)">
                            <rect id="Bounding-Box" fill-opacity="0.15" fill="#BD10E0" fill-rule="evenodd" opacity="0" x="0" y="0" width="35" height="35"></rect>
                            <mask id="mask-10" fill="white">
                                <use xlink:href="#path-9"></use>
                            </mask>
                            <g id="Mask"></g>
                            <g id="Color/Neutrals/Mid-Grey" mask="url(#mask-10)" fill-rule="evenodd" fill="#666666">
                                <rect id="Box" x="0" y="0" width="35" height="35"></rect>
                            </g>
                        </g>
                    </g>
                    <g id="Avatar/Avatar/File---extension" transform="translate(164.000000, 8.000000)">
                        <g id="Button/Shape/Round" opacity="0.99000001">
                            <mask id="mask-12" fill="white">
                                <use xlink:href="#path-11"></use>
                            </mask>
                            <g id="Mask" opacity="0"></g>
                            <g id="Button/State/ALT---Horizon-40%" mask="url(#mask-12)" fill-rule="evenodd" fill="#F8FAFB">
                                <g id="Color/Special/Horizon-40%">
                                    <rect id="Box" x="0" y="0" width="56" height="56"></rect>
                                </g>
                            </g>
                        </g>
                        <g id="Icon/Group" transform="translate(10.500000, 10.500000)">
                            <rect id="Bounding-Box" fill-opacity="0.15" fill="#BD10E0" fill-rule="evenodd" opacity="0" x="0" y="0" width="35" height="35"></rect>
                            <mask id="mask-14" fill="white">
                                <use xlink:href="#path-13"></use>
                            </mask>
                            <g id="Mask"></g>
                            <g id="Color/Neutrals/Mid-Grey" mask="url(#mask-14)" fill-rule="evenodd" fill="#666666">
                                <rect id="Box" x="0" y="0" width="35" height="35"></rect>
                            </g>
                        </g>
                    </g>
                    <g id="Avatar/Avatar/File---extension" transform="translate(0.000000, 8.000000)">
                        <g id="Button/Shape/Round" opacity="0.99000001">
                            <mask id="mask-16" fill="white">
                                <use xlink:href="#path-15"></use>
                            </mask>
                            <g id="Mask" opacity="0"></g>
                            <g id="Button/State/ALT---Horizon-40%" mask="url(#mask-16)" fill-rule="evenodd" fill="#F8FAFB">
                                <g id="Color/Special/Horizon-40%">
                                    <rect id="Box" x="0" y="0" width="56" height="56"></rect>
                                </g>
                            </g>
                        </g>
                        <g id="Icon/Document" transform="translate(10.500000, 10.500000)">
                            <rect id="Bounding-Box" fill-opacity="0.15" fill="#BD10E0" fill-rule="evenodd" opacity="0" x="0" y="0" width="35" height="35"></rect>
                            <mask id="mask-18" fill="white">
                                <use xlink:href="#path-17"></use>
                            </mask>
                            <g id="Mask"></g>
                            <g id="Color/Neutrals/Mid-Grey" mask="url(#mask-18)" fill-rule="evenodd" fill="#666666">
                                <rect id="Box" x="0" y="0" width="35" height="35"></rect>
                            </g>
                        </g>
                    </g>
                </g>
            </g>
        </g>
    </g>
</svg>