<?xml version="1.0" encoding="UTF-8"?>
<svg width="27px" height="27px" viewBox="0 0 27 27" version="1.1" xmlns="http://www.w3.org/2000/svg" xmlns:xlink="http://www.w3.org/1999/xlink">
    <!-- Generator: Sketch 46.2 (44496) - http://www.bohemiancoding.com/sketch -->
    <title>Icon/PDF</title>
    <desc>Created with Sketch.</desc>
    <defs></defs>
    <g id="ðŸ”TechSearch" stroke="none" stroke-width="1" fill="none" fill-rule="evenodd">
        <g id="XX-Assets" transform="translate(-90.000000, -34.000000)">
            <g id="Icon/PDF" transform="translate(88.000000, 32.000000)">
                <rect id="Bounding-Box" fill-opacity="0.15" fill="#BD10E0" opacity="0" x="0" y="0" width="32" height="32"></rect>
                <g id="Group" stroke-width="1" transform="translate(2.000000, 2.000000)" fill="#F3293D">
                    <path d="M25.4147927,18.5110542 L24.9054376,18.5110542 C23.8157518,18.5110542 22.4588634,18.1361415 20.8285097,17.386316 C21.0309992,17.2501745 21.2000884,17.1810566 21.3378648,17.1810566 C22.8325296,17.1810566 23.8679398,17.2836863 24.4461831,17.4889458 C25.0244263,17.6921108 25.3459045,17.8638585 25.4147927,18 L25.6193697,18.2052595 C25.6193697,18.4084245 25.548394,18.5110542 25.4147927,18.5110542 M9.20728212,18.613684 L9.00479262,18.7163137 C9.20728212,18.0335118 9.54546047,17.2836863 10.0235027,16.4647428 C11.0422128,14.5566674 11.7895452,12.7847335 12.2654999,11.1468466 C13.1485212,13.193158 14.2361194,14.7619269 15.5282947,15.8510589 C15.7996724,16.1254364 16.1044504,16.3642076 16.4447163,16.5673726 C14.4740968,16.9087736 12.0630104,17.5915755 9.20728212,18.613684 M11.9607219,1.63579241 L12.0630104,1.32999767 L12.3677884,1.43262741 C12.774855,1.8410519 12.8437431,2.62648359 12.5723655,3.78473354 L12.1632114,5.93158017 L12.0630104,6.03420991 C11.5849682,4.05701652 11.5515678,2.59087736 11.9607219,1.63579241 M1.86964694,25.4647428 C1.9364476,25.0563184 2.19112512,24.5285083 2.63367951,23.8792181 C3.07414637,23.2320223 3.66908976,22.534559 4.41642217,21.7826391 C4.68779985,21.648592 5.06146606,21.4433326 5.53950829,21.1710496 C4.04275596,23.7619269 2.81946885,25.1924599 1.86964694,25.4647428 M26.6380798,16.8752618 C26.0264362,15.8510589 24.3960826,15.3400047 21.7449313,15.3400047 C20.8598225,15.3400047 19.9100006,15.4091226 18.8912905,15.5452641 C18.2107588,15.1368397 17.5991152,14.6928089 17.0563599,14.2152665 C15.6305832,13.0570165 14.4740968,11.2159646 13.5910755,8.69420526 L13.5910755,8.38631603 C13.9981421,6.88666512 14.2695198,5.3870142 14.4072961,3.88736328 C14.5408975,2.38771236 14.2695198,1.26297417 13.5910755,0.511054224 C13.2508097,0.171747731 12.8082553,0 12.2654999,0 L11.7561449,0 C11.3490783,0 10.9921123,0.171747731 10.6852468,0.511054224 C10.3804687,0.852455201 10.157104,1.22736793 10.0235027,1.63579241 C9.61643618,3.06841983 9.49535998,4.29578776 9.66653667,5.31789621 C9.83562585,6.34000465 10.1257912,7.50034908 10.5328578,8.79474052 C9.98801486,10.7740284 9.20728212,12.920875 8.18857203,15.2394694 C7.44123963,16.6700023 6.72730756,17.9664882 6.04886334,19.1247382 C5.16375457,19.5331627 4.51871068,19.8745636 4.11164415,20.1468466 C2.81946885,21.0349081 1.85085925,21.8852688 1.20581536,22.7042122 C0.560771474,23.5231557 0.168317586,24.2373749 0.0347162629,24.8510589 C-0.0341719195,25.2615778 -0.000771588623,25.6343961 0.137004776,25.9757971 L0.237205769,26.0784268 L1.25800338,26.7947405 C1.52938107,26.9329765 1.83415909,27 2.17442496,27 C3.0574462,27 4.0260558,26.4721899 5.08025374,25.4144752 C6.13236416,24.358855 7.33895112,22.6707005 8.69792708,20.3521061 L9.10708113,20.1468466 C11.2801902,19.4661392 14.2027191,18.9194787 17.8725805,18.5110542 C18.9580912,19.0577147 20.09579,19.4661392 21.2856768,19.7384222 C22.4755636,20.0107051 23.5297615,20.1468466 24.4461831,20.1468466 C25.3646922,20.1468466 25.9909484,19.9436816 26.3312142,19.5331627 C26.7403683,19.1247382 26.959558,18.6639516 26.9950458,18.1528974 C27.0263586,17.6418431 26.9094575,17.2166628 26.6380798,16.8752618" id="Fill-1"></path>
                </g>
            </g>
        </g>
    </g>
</svg>