<?xml version="1.0" encoding="UTF-8"?>
<svg width="25px" height="25px" viewBox="0 0 25 25" version="1.1" xmlns="http://www.w3.org/2000/svg" xmlns:xlink="http://www.w3.org/1999/xlink">
    <!-- Generator: Sketch 46.2 (44496) - http://www.bohemiancoding.com/sketch -->
    <title>Icon/Skype for Business</title>
    <desc>Created with Sketch.</desc>
    <defs>
        <path d="M16.3997368,22.5675 C14.5576316,22.5253947 13.2076316,22.1714474 12.3523684,21.5069737 C11.4944737,20.8438158 11.0878947,20.1477632 11.1313158,19.4188158 C11.1313158,19.0780263 11.2378947,18.7990789 11.4523684,18.5846053 C11.6655263,18.3714474 11.9444737,18.2425 12.2878947,18.1990789 C12.9734211,18.3267105 13.4865789,18.7122368 13.83,19.3556579 C14.1721053,19.9977632 15.0286842,20.3622368 16.3997368,20.4477632 C17.1273684,20.4477632 17.6944737,20.2872368 18.1023684,19.9648684 C18.5089474,19.6438158 18.7128947,19.2701316 18.7128947,18.8411842 C18.7128947,18.5846053 18.6260526,18.3385526 18.455,18.1017105 C18.2839474,17.8675 17.9615789,17.6846053 17.4918421,17.5556579 L14.2155263,16.7214474 C12.93,16.3793421 12.0839474,15.8977632 11.6773684,15.2753947 C11.2707895,14.6543421 11.0878947,14.0017105 11.1313158,13.3161842 C11.1734211,11.9464474 11.7102632,10.9714474 12.7378947,10.3925 C13.7655263,9.81486842 14.8997368,9.52539474 16.1431579,9.52539474 C17.3418421,9.52539474 18.4444737,9.79381579 19.4510526,10.3280263 C20.4576316,10.8635526 21.0036842,11.5609211 21.0892105,12.4161842 C21.0892105,12.8017105 20.9615789,13.0911842 20.7036842,13.2832895 C20.4471053,13.4767105 20.1260526,13.5727632 19.7405263,13.5727632 C19.1826316,13.4885526 18.7326316,13.1767105 18.3918421,12.6411842 C18.0484211,12.1069737 17.2352632,11.7951316 15.9497368,11.7096053 C14.6207895,11.7530263 13.9365789,12.2451316 13.8944737,13.1872368 C13.9365789,13.6161842 14.1615789,13.9161842 14.5681579,14.0872368 C14.9747368,14.2596053 15.4142105,14.4082895 15.8852632,14.5359211 L18.2628947,15.0503947 C19.5484211,15.3938158 20.4260526,15.8859211 20.8971053,16.5280263 C21.3668421,17.1701316 21.6036842,17.8780263 21.6036842,18.6477632 C21.6036842,19.7622368 21.1642105,20.6832895 20.2865789,21.4109211 C19.4076316,22.1398684 18.1128947,22.5253947 16.3997368,22.5675 M10.8747368,6.76223684 C9.67473684,6.76223684 8.69052632,7.14776316 7.91947368,7.91881579 C7.14842105,8.68986842 6.76289474,9.64381579 6.76289474,10.7780263 C6.76289474,11.9135526 7.12605263,12.8661842 7.855,13.6372368 C7.38263158,15.2227632 7.32868421,16.8069737 7.69447368,18.3911842 C8.05763158,19.9767105 8.85105263,21.3793421 10.0707895,22.5990789 C11.2918421,23.8201316 12.6944737,24.6135526 14.28,24.9767105 C15.8642105,25.3411842 17.4484211,25.2872368 19.0339474,24.8161842 C19.805,25.5451316 20.7576316,25.9082895 21.8931579,25.9082895 C23.0273684,25.9082895 23.9813158,25.5227632 24.7523684,24.7517105 C25.5234211,23.9806579 25.9089474,23.0293421 25.9089474,21.8925 C25.9089474,20.7582895 25.5431579,19.8043421 24.8155263,19.0332895 C25.2865789,17.4490789 25.3405263,15.8648684 24.9773684,14.2793421 C24.6115789,12.6951316 23.8207895,11.2925 22.5997368,10.0714474 C21.3786842,8.85039474 19.9760526,8.05960526 18.3918421,7.69381579 C16.8063158,7.33065789 15.2207895,7.38460526 13.6365789,7.85434211 C12.8655263,7.12802632 11.9444737,6.76223684 10.8747368,6.76223684 M24.5589474,8.11223684 C25.9721053,9.52539474 26.9471053,11.1425 27.4826316,12.9622368 C28.0168421,14.7832895 28.1128947,16.6148684 27.7721053,18.4556579 C28.3707895,19.4411842 28.6707895,20.5556579 28.6707895,21.7964474 C28.6273684,23.7675 27.9642105,25.3938158 26.6786842,26.6793421 C25.3944737,27.9648684 23.7668421,28.6280263 21.7971053,28.6714474 C20.5536842,28.6714474 19.4405263,28.3714474 18.455,27.7714474 C16.6128947,28.1148684 14.7826316,28.0188158 12.9628947,27.4819737 C11.1418421,26.9477632 9.52473684,25.9727632 8.11157895,24.5596053 C6.69842105,23.1451316 5.72342105,21.5293421 5.18789474,19.7082895 C4.65236842,17.8885526 4.55631579,16.0582895 4.89973684,14.2148684 C4.29973684,13.2306579 3.99973684,12.1175 3.99973684,10.8740789 C4.04184211,8.90434211 4.70631579,7.27671053 5.99184211,5.99118421 C7.27605263,4.70697368 8.90368421,4.04381579 10.8747368,4.00039474 C12.1155263,4.00039474 13.23,4.30039474 14.2155263,4.89907895 C16.0563158,4.55697368 17.8878947,4.65434211 19.7089474,5.18855263 C21.5273684,5.72407895 23.1457895,6.69776316 24.5589474,8.11223684" id="path-1"></path>
    </defs>
    <g id="ðŸ”TechSearch" stroke="none" stroke-width="1" fill="none" fill-rule="evenodd">
        <g id="XX-Assets" transform="translate(-203.000000, -35.000000)">
            <g id="Icon/Skype-for-Business" transform="translate(199.000000, 31.000000)">
                <rect id="Bounding-Box" fill-opacity="0.15" fill="#BD10E0" fill-rule="evenodd" opacity="0" x="0" y="0" width="32" height="32"></rect>
                <mask id="mask-2" fill="white">
                    <use xlink:href="#path-1"></use>
                </mask>
                <g id="Mask"></g>
                <g id="Color/Neutrals/Mid-Grey" mask="url(#mask-2)" fill-rule="evenodd" fill="#666666">
                    <rect id="Box" x="0" y="0" width="32" height="32"></rect>
                </g>
            </g>
        </g>
    </g>
</svg>