<svg width="33" height="34" viewBox="55 0 33 34" xmlns="http://www.w3.org/2000/svg"><g fill="#FFF" fill-rule="evenodd"><path d="M71.498 0C62.401 0 55 7.402 55 16.5 55 25.598 62.401 33 71.498 33 80.597 33 88 25.598 88 16.5 88 7.402 80.597 0 71.498 0zm0 2.011c7.99 0 14.488 6.499 14.488 14.489 0 7.99-6.498 14.489-14.488 14.489-7.986 0-14.484-6.5-14.484-14.489 0-7.99 6.498-14.489 14.484-14.489z"/><path d="M79.12 12.475a5.88 5.88 0 0 1-1.696.464 2.948 2.948 0 0 0 1.299-1.63 5.9 5.9 0 0 1-1.873.714 2.954 2.954 0 0 0-2.155-.93 2.949 2.949 0 0 0-2.873 3.618 8.381 8.381 0 0 1-6.084-3.079 2.945 2.945 0 0 0-.398 1.482c0 1.022.52 1.924 1.312 2.452a2.918 2.918 0 0 1-1.336-.369c-.002.014-.002.027-.002.037a2.95 2.95 0 0 0 2.369 2.89 2.896 2.896 0 0 1-1.333.052 2.95 2.95 0 0 0 2.756 2.045 5.927 5.927 0 0 1-3.665 1.261 6.37 6.37 0 0 1-.703-.04 8.371 8.371 0 0 0 4.524 1.323c5.426 0 8.393-4.49 8.393-8.383 0-.128-.001-.255-.007-.381a5.942 5.942 0 0 0 1.472-1.526"/></g></svg>