<svg width="33" height="34" viewBox="110 0 33 34" xmlns="http://www.w3.org/2000/svg"><g fill="#FFF" fill-rule="evenodd"><path d="M126.498 0C117.401 0 110 7.402 110 16.5c0 9.098 7.401 16.5 16.498 16.5C135.597 33 143 25.598 143 16.5 143 7.402 135.597 0 126.498 0zm0 2.011c7.99 0 14.487 6.499 14.487 14.489 0 7.99-6.498 14.489-14.487 14.489-7.986 0-14.484-6.5-14.484-14.489 0-7.99 6.499-14.489 14.484-14.489z"/><path d="M131.397 20.244h-1.376v.675c0 .189.024.321.07.395.049.073.13.108.245.108.119 0 .202-.03.25-.093.046-.063.071-.199.071-.41v-.163h.74v.184c0 .369-.09.646-.272.832-.178.186-.447.279-.806.279-.323 0-.576-.099-.761-.296-.183-.197-.277-.468-.277-.814v-1.613c0-.311.102-.566.305-.762.204-.197.466-.293.787-.293.33 0 .582.09.758.27.177.183.266.445.266.785v.916zm-2.493.966c0 .254-.056.448-.17.586-.112.136-.276.203-.489.203a.85.85 0 0 1-.683-.322v.275h-.727v-4.867h.727v1.567a1.15 1.15 0 0 1 .308-.249.705.705 0 0 1 .332-.084c.228 0 .401.075.521.228.121.152.18.377.18.67v1.994zm-2.608.742h-.719v-.394a1.577 1.577 0 0 1-.414.332.876.876 0 0 1-.419.116c-.166 0-.29-.054-.375-.162-.083-.107-.126-.266-.126-.48v-3.002h.718v2.754c0 .085.016.146.044.184.032.04.081.057.149.057a.407.407 0 0 0 .2-.075.988.988 0 0 0 .224-.193v-2.727h.717v3.59zm-2.369-4.16h-.839v4.16h-.809v-4.16h-.838v-.707h2.487v.707zm7.123-1.622h-9.017a2.595 2.595 0 0 0-2.596 2.592v2.084a2.595 2.595 0 0 0 2.596 2.593h9.016a2.595 2.595 0 0 0 2.596-2.593v-2.084a2.595 2.595 0 0 0-2.596-2.592z"/><path d="M130.341 18.9c-.115 0-.195.033-.246.099-.05.063-.074.171-.074.323v.361h.636v-.361c0-.152-.026-.26-.076-.323-.049-.066-.13-.099-.24-.099M127.863 18.889a.35.35 0 0 0-.151.034.533.533 0 0 0-.15.11v2.236c.06.058.116.103.17.129a.43.43 0 0 0 .176.038c.087 0 .151-.025.192-.077.043-.05.063-.133.063-.247v-1.854c0-.122-.024-.213-.076-.277-.052-.063-.126-.093-.224-.093M123.212 14.923h.912v-2.225l1.06-3.137h-.925l-.564 2.143h-.056l-.593-2.143h-.919l1.085 3.238v2.124M126.084 11.841c0-.085.03-.155.091-.209a.358.358 0 0 1 .242-.079c.107 0 .192.026.26.079a.26.26 0 0 1 .098.21v2.155c0 .106-.032.19-.097.25a.367.367 0 0 1-.262.09c-.105 0-.19-.028-.247-.089-.058-.059-.085-.142-.085-.251v-2.155zm.335 3.182c.368 0 .656-.096.866-.288.21-.194.314-.458.314-.797v-2.043c0-.301-.107-.55-.319-.741-.216-.19-.489-.286-.825-.286-.367 0-.661.09-.877.271-.219.182-.327.426-.327.732v2.051c0 .336.107.602.317.803.214.198.498.298.852.298zM128.821 14.98c.151 0 .307-.043.468-.126.163-.084.319-.208.467-.369v.438h.81v-3.956h-.81v3.003a1.092 1.092 0 0 1-.25.212.464.464 0 0 1-.226.084c-.076 0-.132-.021-.164-.063-.034-.042-.052-.11-.052-.202v-3.034h-.808v3.306c0 .236.046.412.142.529.094.119.235.178.423.178"/></g></svg>