<?xml version="1.0" encoding="UTF-8"?>
<svg width="32px" height="32px" viewBox="0 0 32 32" version="1.1" xmlns="http://www.w3.org/2000/svg" xmlns:xlink="http://www.w3.org/1999/xlink">
    <!-- Generator: Sketch 46.2 (44496) - http://www.bohemiancoding.com/sketch -->
    <title>Icon/Word</title>
    <desc>Created with Sketch.</desc>
    <defs>
        <polygon id="path-1" points="15.8601369 0.144144144 0 0.144144144 0 31.1351351 15.8601369 31.1351351 31.7202739 31.1351351 31.7202739 0.144144144"></polygon>
    </defs>
    <g id="ðŸ”TechSearch" stroke="none" stroke-width="1" fill="none" fill-rule="evenodd">
        <g id="XX-Assets" transform="translate(-143.000000, -32.000000)">
            <g id="Icon/Word" transform="translate(143.000000, 32.000000)">
                <rect id="Bounding-Box" fill-opacity="0.15" fill="#BD10E0" opacity="0" x="0" y="0" width="32" height="32"></rect>
                <g id="Page-1" stroke-width="1">
                    <g id="Group-3" transform="translate(0.000000, 0.144144)">
                        <mask id="mask-2" fill="white">
                            <use xlink:href="#path-1"></use>
                        </mask>
                        <g id="Clip-2"></g>
                        <path d="M16.5779315,0.144144144 L18.7328865,0.144144144 L18.7328865,3.02702703 C22.5887423,3.04864865 26.4411387,2.98724324 30.2935351,3.04864865 C31.1151568,2.96562162 31.7600577,3.6036036 31.6842378,4.42522523 C31.7456432,11.5243243 31.6698234,18.6265946 31.7202739,25.7256937 C31.6842378,26.4539099 31.7923459,27.2614054 31.3708685,27.906018 C30.8447423,28.2810811 30.1635171,28.2343784 29.5511928,28.2626306 C25.9435532,28.245045 22.3399495,28.2522523 18.7328865,28.2522523 L18.7328865,31.1351351 L16.4807784,31.1351351 C10.996382,30.1333333 5.49670631,29.2145586 0.00164324324,28.2522523 C-0.0021045045,19.8451892 0.00164324324,11.4378378 0.00164324324,3.03423423 C5.52553514,2.06846847 11.0537514,1.12807207 16.5779315,0.144144144" id="Fill-1" fill="#00559D" mask="url(#mask-2)"></path>
                    </g>
                    <polygon id="Fill-4" fill="#FFFFFF" points="18.7327712 4.25225225 30.6246631 4.25225225 30.6246631 27.3153153 18.7327712 27.3153153 18.7327712 24.4324324 28.1021405 24.4324324 28.1021405 22.990991 18.7327712 22.990991 18.7327712 21.1891892 28.1021405 21.1891892 28.1021405 19.7477477 18.7327712 19.7477477 18.7327712 17.9459459 28.1021405 17.9459459 28.1021405 16.5045045 18.7327712 16.5045045 18.7327712 14.7027027 28.1021405 14.7027027 28.1021405 13.2612613 18.7327712 13.2612613 18.7327712 11.4594595 28.1021405 11.4594595 28.1021405 10.018018 18.7327712 10.018018 18.7327712 8.21621622 28.1021405 8.21621622 28.1021405 6.77477477 18.7327712 6.77477477"></polygon>
                    <path d="M7.44645766,10.6196468 C8.13114234,10.5801514 8.81582703,10.5513225 9.50051171,10.5152865 C9.97964685,12.9478631 10.4694486,15.3764036 10.9886559,17.7977369 C11.3957189,15.2971243 11.8466018,12.8034306 12.2819171,10.3062775 C13.0026378,10.2811964 13.7233586,10.2414126 14.4409081,10.1981694 C13.6264937,13.6899171 12.9126919,17.210782 12.0227459,20.6806198 C11.4205117,20.9945658 10.5196108,20.666782 9.80638559,20.7166559 C9.32667387,18.3316468 8.76825946,15.9598991 8.33957477,13.5639351 C7.9180973,15.8918631 7.37006126,18.1981694 6.88746667,20.5116829 C6.19528649,20.4756468 5.50022342,20.4326919 4.8042955,20.3857009 C4.20638559,17.2145297 3.50325045,14.0649802 2.94512432,10.8866018 C3.56090811,10.857773 4.18101622,10.8324036 4.79737658,10.810782 C5.1684036,13.1061333 5.59016937,15.3911063 5.91449369,17.6896288 C6.42303423,15.3334486 6.94195315,12.9766919 7.44645766,10.6196468" id="Fill-6" fill="#FFFFFF"></path>
                </g>
            </g>
        </g>
    </g>
</svg>