<svg width="33" height="34" viewBox="223 0 33 34" xmlns="http://www.w3.org/2000/svg"><g fill="#FFF" fill-rule="evenodd"><path d="M239.498 0C230.401 0 223 7.402 223 16.5c0 9.098 7.401 16.5 16.498 16.5C248.597 33 256 25.598 256 16.5 256 7.402 248.597 0 239.498 0zm0 2.011c7.99 0 14.488 6.499 14.488 14.489 0 7.99-6.498 14.489-14.488 14.489-7.986 0-14.484-6.5-14.484-14.489 0-7.99 6.498-14.489 14.484-14.489z"/><path d="M245.065 20.951c0 .729-.594 1.322-1.325 1.322h-8.48c-.729 0-1.323-.593-1.323-1.322V15.3h2.062a3.754 3.754 0 0 0-.277 1.417 3.782 3.782 0 0 0 3.779 3.775 3.783 3.783 0 0 0 3.779-3.775c0-.501-.101-.979-.279-1.417h2.064v5.651zm-7.537-5.651a2.43 2.43 0 0 1 4.406 1.417 2.433 2.433 0 0 1-4.866 0c0-.53.172-1.017.46-1.417zm6.978-3.893l.307-.002v2.34l-2.336.007-.007-2.339 2.036-.006zm-.766-1.59h-8.48a2.67 2.67 0 0 0-2.67 2.666v8.468a2.671 2.671 0 0 0 2.67 2.668h8.48a2.671 2.671 0 0 0 2.671-2.668v-8.468a2.67 2.67 0 0 0-2.67-2.667z"/></g></svg>