<?xml version="1.0" encoding="UTF-8"?>
<svg width="32px" height="32px" viewBox="0 0 32 32" version="1.1" xmlns="http://www.w3.org/2000/svg" xmlns:xlink="http://www.w3.org/1999/xlink">
    <!-- Generator: Sketch 46.2 (44496) - http://www.bohemiancoding.com/sketch -->
    <title>Icon/Excel</title>
    <desc>Created with Sketch.</desc>
    <defs>
        <polygon id="path-1" points="0 31.9937459 31.9580977 31.9937459 31.9580977 0.0821368078 0 0.0821368078"></polygon>
    </defs>
    <g id="ðŸ”TechSearch" stroke="none" stroke-width="1" fill="none" fill-rule="evenodd">
        <g id="XX-Assets" transform="translate(-32.000000, -32.000000)">
            <g id="Icon/Excel" transform="translate(32.000000, 32.000000)">
                <rect id="Bounding-Box" fill-opacity="0.15" fill="#BD10E0" fill-rule="evenodd" opacity="0" x="0" y="0" width="32" height="32"></rect>
                <mask id="mask-2" fill="white">
                    <use xlink:href="#path-1"></use>
                </mask>
                <g id="Clip-2"></g>
                <path d="M30.7895029,26.9072669 L18.9910697,26.9072669 L18.9717611,24.7452092 L21.81358,24.7452092 L21.81358,22.2278421 L18.94953,22.2278421 L18.9362749,20.7393048 L21.81358,20.7393048 L21.81358,18.2219377 L18.9138351,18.2219377 L18.9006843,16.7334004 L21.81358,16.7334004 L21.81358,14.2160333 L18.8911865,14.2160333 L18.8911865,12.727496 L21.81358,12.727496 L21.81358,10.2101289 L18.8911865,10.2101289 L18.8911865,8.72159158 L21.81358,8.72159158 L21.81358,6.20422452 L18.8911865,6.20422452 L18.8911865,3.91697255 L30.7895029,3.91697255 L30.7895029,26.9072669 Z M30.6065402,2.73232924 L19.0302089,2.73232924 L19.0302089,-2.84217094e-14 L0,2.94143926 L0,28.7187178 L19.0302089,32 L19.0302089,27.9522945 L30.6065402,27.9522945 C31.3761734,27.9522945 32,27.3908011 32,26.6982613 L32,3.98636239 C32,3.29382258 31.3761734,2.73232924 30.6065402,2.73232924 L30.6065402,2.73232924 Z" id="Fill-1" fill="#246B46" fill-rule="evenodd" mask="url(#mask-2)"></path>
                <polygon id="Fill-4" fill="#246B46" fill-rule="evenodd" mask="url(#mask-2)" points="23.3832443 8.78134202 28.3169772 8.78134202 28.3169772 6.27043648 23.3832443 6.27043648"></polygon>
                <polygon id="Fill-5" fill="#246B46" fill-rule="evenodd" mask="url(#mask-2)" points="23.3832443 12.7769642 28.3169772 12.7769642 28.3169772 10.2660586 23.3832443 10.2660586"></polygon>
                <polygon id="Fill-6" fill="#246B46" fill-rule="evenodd" mask="url(#mask-2)" points="23.3832443 16.7725863 28.3169772 16.7725863 28.3169772 14.2616808 23.3832443 14.2616808"></polygon>
                <polygon id="Fill-7" fill="#246B46" fill-rule="evenodd" mask="url(#mask-2)" points="23.3832443 20.7682085 28.3169772 20.7682085 28.3169772 18.2573029 23.3832443 18.2573029"></polygon>
                <polygon id="Fill-8" fill="#246B46" fill-rule="evenodd" mask="url(#mask-2)" points="23.3832443 24.7638306 28.3169772 24.7638306 28.3169772 22.2529251 23.3832443 22.2529251"></polygon>
                <polyline id="Fill-9" fill="#FFFFFE" fill-rule="evenodd" mask="url(#mask-2)" points="4.96187622 9.96054723 7.41107492 9.8206645 8.95051466 14.0542541 10.7699283 9.64565472 13.219127 9.50566775 10.2451075 15.5162476 13.219127 21.5418371 10.6299414 21.3668274 8.88057329 16.7738371 7.13110098 21.1918176 4.75194788 20.9819935 7.51593485 15.65957 4.96187622 9.96054723"></polyline>
            </g>
        </g>
    </g>
</svg>