<svg xmlns="http://www.w3.org/2000/svg" width="110" height="110" viewBox="0 0 110 110">
    <g fill="none" fill-rule="evenodd">
        <rect width="110" height="110"/>
        <path fill="#FFF"
              d="M93.4266467,33.639913 C96.3996359,35.3903478 98.6414837,39.8680652 98.6414837,44.0552391 L98.6414837,79.3855652 C98.6414837,83.5117609 95.8418641,88.3607283 92.2686576,90.4238261 L61.6719185,108.088391 C59.8850163,109.119641 57.5917554,109.636163 55.2990924,109.636163 C53.0058315,109.636163 50.7125707,109.119641 48.9262663,108.088391 L18.3295272,90.4238261 C14.7557228,88.3607283 11.9567011,83.5117609 11.9567011,79.3855652 L11.9567011,44.0552391 C11.9567011,39.8680652 14.1985489,35.3903478 17.1709402,33.639913 L21.207462,31.2629565 C22.3463207,30.5927935 23.8115924,30.972413 24.4817554,32.1106739 C25.1519185,33.248337 24.7722989,34.7142065 23.634038,35.3843696 L19.5981141,37.7607283 C18.2482228,38.555837 16.7393098,41.4164348 16.7393098,44.0552391 L16.7393098,79.3855652 C16.7393098,81.8348587 18.5997446,85.0571413 20.7208315,86.282087 L21.2230054,86.5726304 L21.2230054,69.1932283 C21.2230054,63.9192065 25.5142011,59.6280109 30.7882228,59.6280109 L79.809962,59.6280109 C85.0839837,59.6280109 89.3751793,63.9192065 89.3751793,69.1932283 L89.3751793,86.5726304 L89.8773533,86.282087 C91.9984402,85.0571413 93.858875,81.8348587 93.858875,79.3855652 L93.858875,44.0552391 C93.858875,41.4164348 92.3487663,38.555837 91.0000707,37.7607283 L86.9635489,35.3843696 C85.825288,34.7142065 85.4462663,33.248337 86.1164293,32.1106739 C86.7859946,30.972413 88.2512663,30.5927935 89.3895272,31.2629565 L93.4266467,33.639913 Z M59.2806141,103.946652 L84.5925707,89.3333913 L84.5925707,69.1932283 C84.5925707,66.5562174 82.4469728,64.4106196 79.809962,64.4106196 L30.7882228,64.4106196 C28.151212,64.4106196 26.0056141,66.5562174 26.0056141,69.1932283 L26.0056141,89.3333913 L51.3175707,103.946652 C53.4386576,105.171598 57.1595272,105.171598 59.2806141,103.946652 Z M83.8408043,24.3818587 C85.1542283,24.3818587 86.2189565,25.4471848 86.2189565,26.7606087 C86.2189565,28.0740326 85.1542283,29.1387609 83.8408043,29.1387609 L81.4620543,29.1387609 L81.4620543,52.9238696 C81.4620543,54.2372935 80.3973261,55.3020217 79.0839022,55.3020217 L31.5142826,55.3020217 C30.2008587,55.3020217 29.1361304,54.2372935 29.1361304,52.9238696 L29.1361304,29.1387609 L26.7573804,29.1387609 C25.4439565,29.1387609 24.3792283,28.0740326 24.3792283,26.7606087 C24.3792283,25.4471848 25.4439565,24.3818587 26.7573804,24.3818587 L29.3250435,24.3818587 C30.4824348,16.316587 37.3998804,10.1111522 45.7849891,10.1111522 L49.5572717,10.1111522 L44.1039022,4.65778261 C43.1742826,3.72816304 43.1742826,2.22343478 44.1039022,1.29441304 C45.0329239,0.364793478 46.5376522,0.364793478 47.4666739,1.29441304 L55.2987935,9.12653261 L63.130913,1.29441304 C64.0605326,0.364793478 65.5652609,0.364793478 66.4942826,1.29441304 C67.4239022,2.22343478 67.4239022,3.72816304 66.4942826,4.65778261 L61.040913,10.1111522 L64.8125978,10.1111522 C73.1983043,10.1111522 80.11575,16.316587 81.2731413,24.3818587 L83.8408043,24.3818587 Z M76.7051522,50.5451196 L76.7051522,26.7606087 C76.7051522,20.2030543 71.3701522,14.8680543 64.8125978,14.8680543 L45.7849891,14.8680543 C39.2280326,14.8680543 33.8930326,20.2030543 33.8930326,26.7606087 L33.8930326,50.5451196 L76.7051522,50.5451196 Z M64.812837,33.8959022 L45.7852283,33.8959022 C41.8443587,33.8959022 38.6495761,30.7011196 38.6495761,26.76025 C38.6495761,22.8199783 41.8443587,19.6251957 45.7852283,19.6251957 L64.812837,19.6251957 C68.7537065,19.6251957 71.9484891,22.8199783 71.9484891,26.76025 C71.9484891,30.7011196 68.7537065,33.8959022 64.812837,33.8959022 Z M64.9745489,38.6528043 L45.9469402,38.6528043 C44.6335163,38.6528043 43.5681902,39.7175326 43.5681902,41.0315543 C43.5681902,42.3449783 44.6335163,43.4097065 45.9469402,43.4097065 L64.9745489,43.4097065 C66.2879728,43.4097065 67.3532989,42.3449783 67.3532989,41.0315543 C67.3532989,39.7175326 66.2879728,38.6528043 64.9745489,38.6528043"/>
    </g>
</svg>
