<svg xmlns="http://www.w3.org/2000/svg" viewBox="0 0 30 30">
<rect fill="none" width="30" height="30"/>
<path fill="#000000" d="M15,2C7.83,2,2,7.83,2,15c0,7.17,5.83,13,13,13c7.17,0,13-5.83,13-13C28,7.83,22.17,2,15,2z M8,23.48V23c0-1.65,1.35-3,3-3 h8c1.65,0,3,1.35,3,3v0.48C20.1,25.05,17.66,26,15,26S9.9,25.05,8,23.48z M23.78,21.6C23.17,19.53,21.27,18,19,18h-8 c-2.27,0-4.17,1.53-4.78,3.6C4.83,19.76,4,17.48,4,15C4,8.93,8.93,4,15,4s11,4.93,11,11C26,17.48,25.17,19.76,23.78,21.6z M15,6 c-2.76,0-5,2.24-5,5s2.24,5,5,5s5-2.24,5-5S17.76,6,15,6z M15,14c-1.65,0-3-1.35-3-3s1.35-3,3-3s3,1.35,3,3S16.65,14,15,14z"/>
</svg>