<svg xmlns="http://www.w3.org/2000/svg" viewBox="0 0 30 30">
<rect fill="none" width="30" height="30"/>
<path fill="#000000" d="M9,27c-3.31,0-6-2.69-6-6c0-1.6,0.62-3.11,1.76-4.24l6.4-6.57C11.92,9.42,12.93,9,14,9c2.21,0,4,1.79,4,4 c0,1.07-0.42,2.08-1.17,2.83l-5.71,5.87c-0.39,0.4-1.02,0.4-1.41,0.02c-0.4-0.39-0.4-1.02-0.02-1.41l5.72-5.88 C15.79,14.04,16,13.54,16,13c0-1.1-0.9-2-2-2c-0.53,0-1.04,0.21-1.42,0.59l-6.4,6.57C5.42,18.93,5,19.93,5,21c0,2.21,1.79,4,4,4 c1.07,0,2.07-0.42,2.83-1.17l12-12C24.58,11.07,25,10.07,25,9c0-2.21-1.79-4-4-4c-1.07,0-2.07,0.42-2.83,1.17l-1.04,1.04 c-0.39,0.39-1.02,0.39-1.41,0s-0.39-1.02,0-1.41l1.04-1.04C17.9,3.62,19.4,3,21,3c3.31,0,6,2.69,6,6c0,1.6-0.62,3.1-1.75,4.24 l-12,12C12.11,26.38,10.6,27,9,27z"/>
</svg>