<svg xmlns="http://www.w3.org/2000/svg" viewBox="0 0 30 30">
<rect fill="none" width="30" height="30"/>
<path fill="#000000" d="M10.91,19.59c-0.1-0.22-0.28-0.4-0.5-0.5l-3.24-1.46l8.52-8.52l5.21,5.21l-8.52,8.52L10.91,19.59z M6,19.29l3.24,1.46 L10.71,24H6V19.29z M25.12,12.92c1.17-1.17,1.17-3.07,0-4.24l-3.79-3.79c-1.13-1.13-3.11-1.13-4.24,0L4.73,17.24 C4.26,17.71,4,18.34,4,19v6c0,0.55,0.45,1,1,1h6c0.67,0,1.29-0.26,1.77-0.73L25.12,12.92z M23.71,11.5l-1.39,1.39l-5.21-5.21 L18.5,6.3c0.38-0.38,1.04-0.38,1.41,0l3.79,3.79C24.1,10.48,24.1,11.11,23.71,11.5z"/>
</svg>