<svg xmlns="http://www.w3.org/2000/svg" viewBox="0 0 30 30">
<rect fill="none" width="30" height="30"/>
<path fill="#000000" d="M15.01,13L11,9h8L15.01,13z M10,23v1H20v-1l-5-2L10,23z M24.01,27c0,0.55-0.45,1-1,1H7c-0.55,0-1-0.45-1-1l0.03-5.01 c0-1.06,0.42-2.07,1.17-2.82L11.36,15L7.2,10.83C6.44,10.07,6.03,9.07,6.03,8V6c0-2.21,1.79-4,4-4H20c2.21,0,4,1.79,4,4v2 c0,1.07-0.42,2.07-1.17,2.83L18.67,15l4.16,4.17C23.58,19.93,24,20.93,24,22L24.01,27z M22,26l0-4c0-0.53-0.21-1.04-0.59-1.41 l-4.87-4.88c-0.39-0.39-0.39-1.02,0-1.41l4.87-4.88C21.79,9.04,22,8.53,22,8V6c0-1.1-0.9-2-2-2h-9.97c-1.1,0-2,0.9-2,2v2 c0,0.53,0.21,1.04,0.59,1.41l4.87,4.88c0.39,0.39,0.39,1.02,0,1.41l-4.87,4.88C8.24,20.96,8.03,21.47,8.03,22L8,26H22z"/>
</svg>