<svg xmlns="http://www.w3.org/2000/svg" viewBox="0 0 30 30">
<rect fill="none" width="30" height="30"/>
<path fill="#000000" d="M15,2C7.83,2,2,7.83,2,15s5.83,13,13,13s13-5.83,13-13S22.17,2,15,2z M15,26C8.93,26,4,21.07,4,15S8.93,4,15,4 s11,4.93,11,11S21.07,26,15,26z M19.25,11.27c0,3.32-4.09,3.45-3.03,6.73h-2.56c-1.4-3.9,2.72-4.5,2.72-6.46 c0-1.24-1.53-2.06-3.94-2.17L12.77,7C17.16,7.16,19.25,9.15,19.25,11.27z M16.5,21.5c0,0.83-0.67,1.5-1.5,1.5s-1.5-0.67-1.5-1.5 S14.17,20,15,20S16.5,20.67,16.5,21.5z"/>
</svg>