<svg xmlns="http://www.w3.org/2000/svg" viewBox="0 0 30 30">
<rect fill="none" width="30" height="30"/>
<path fill="#000000" d="M11.71,22.29c0.39,0.39,0.39,1.02,0,1.41s-1.02,0.39-1.41,0l-8-8c-0.39-0.39-0.39-1.02,0-1.41l8-8 c0.39-0.39,1.02-0.39,1.41,0s0.39,1.02,0,1.41L4.41,15L11.71,22.29z M28,18v1c0,0.55-0.45,1-1,1h-9v3c0,0.4-0.24,0.77-0.62,0.92 c-0.37,0.16-0.8,0.07-1.09-0.22l-8-8c-0.39-0.39-0.39-1.02,0-1.41l8-8c0.29-0.29,0.72-0.37,1.09-0.22C17.76,6.23,18,6.6,18,7v3h2 C24.41,10,28,13.59,28,18z M26,18c0-3.31-2.69-6-6-6h-4V9.41L10.41,15L16,20.59V18H26z"/>
</svg>