<svg xmlns="http://www.w3.org/2000/svg" viewBox="0 0 30 30">
<rect fill="none" width="30" height="30"/>
<path fill="#000000" d="M21.41,10.21C22.45,11.6,23,13.26,23,15s-0.55,3.4-1.59,4.79c-0.33,0.44-0.96,0.53-1.4,0.2c-0.44-0.33-0.53-0.96-0.2-1.4 C20.59,17.55,21,16.31,21,15s-0.41-2.55-1.19-3.59c-0.33-0.44-0.24-1.07,0.2-1.4C20.45,9.67,21.08,9.77,21.41,10.21z M24.92,6.61 c-0.36-0.42-0.99-0.47-1.41-0.12c-0.42,0.36-0.47,0.99-0.12,1.41C25.08,9.88,26,12.4,26,15s-0.92,5.12-2.6,7.1 c-0.36,0.42-0.3,1.05,0.12,1.41c0.42,0.36,1.05,0.3,1.41-0.12C26.91,21.05,28,18.07,28,15S26.91,8.95,24.92,6.61z M16,5.01v20 c0,0.37-0.2,0.71-0.53,0.88c-0.32,0.17-0.72,0.15-1.03-0.05L8.7,22H3c-0.55,0-1-0.45-1-1V9c0-0.55,0.45-1,1-1h5.7l5.75-3.83 c0.31-0.2,0.7-0.22,1.03-0.05C15.8,4.3,16,4.64,16,5.01z M14,6.87L9.55,9.83C9.39,9.94,9.2,10,9,10H4v10h5 c0.2,0,0.39,0.06,0.56,0.17L14,23.14V6.87z"/>
</svg>