<svg xmlns="http://www.w3.org/2000/svg" viewBox="0 0 30 30">
<rect fill="none" width="30" height="30"/>
<path fill="#000000" d="M15.47,4.12c-0.32-0.17-0.72-0.15-1.03,0.05L8.7,8H3C2.45,8,2,8.45,2,9v12c0,0.55,0.45,1,1,1h5.7l5.75,3.84 c0.31,0.2,0.7,0.22,1.03,0.05C15.8,25.71,16,25.38,16,25.01v-20C16,4.64,15.8,4.3,15.47,4.12z M14,23.14l-4.44-2.97 C9.39,20.06,9.2,20,9,20H4V10h5c0.2,0,0.39-0.06,0.55-0.17L14,6.87V23.14z M23,15c0,1.02-0.19,2.02-0.58,2.97 c-0.21,0.51-0.79,0.76-1.3,0.55c-0.51-0.21-0.76-0.79-0.55-1.3C20.85,16.51,21,15.76,21,15s-0.15-1.51-0.43-2.22 c-0.21-0.51,0.04-1.09,0.55-1.3c0.51-0.2,1.09,0.04,1.3,0.55C22.81,12.98,23,13.98,23,15z"/>
</svg>