<svg xmlns="http://www.w3.org/2000/svg" viewBox="0 0 30 30">
<rect fill="none" width="30" height="30"/>
<path fill="#000000" d="M11,2H5C3.35,2,2,3.35,2,5l0,8c0,0.55,0.45,1,1,1h10c0.55,0,1-0.45,1-1l0-8C14,3.35,12.65,2,11,2z M12,12H4l0-7 c0-0.55,0.45-1,1-1h6c0.55,0,1,0.45,1,1L12,12z M17,14h10c0.55,0,1-0.45,1-1l0-8c0-1.65-1.35-3-3-3h-6c-1.65,0-3,1.35-3,3l0,8 C16,13.55,16.45,14,17,14z M19,4h6c0.55,0,1,0.45,1,1l0,7h-8l0-7C18,4.45,18.45,4,19,4z M25,16h-6c-1.65,0-3,1.35-3,3l0,8 c0,0.55,0.45,1,1,1h10c0.55,0,1-0.45,1-1l0-8C28,17.35,26.65,16,25,16z M26,26h-8l0-7c0-0.55,0.45-1,1-1h6c0.55,0,1,0.45,1,1L26,26z M19.79,10.21c-0.39-0.39-0.39-1.02,0-1.42l3-3.01c0.39-0.39,1.02-0.39,1.41,0c0.39,0.39,0.39,1.02,0,1.41l-3,3.01 C20.82,10.6,20.18,10.6,19.79,10.21z M10,8c0,1.1-0.9,2-2,2S6,9.1,6,8c0-1.1,0.9-2,2-2S10,6.9,10,8z M11,16H5c-1.65,0-3,1.35-3,3 l0,8c0,0.55,0.45,1,1,1h10c0.55,0,1-0.45,1-1l0-8C14,17.35,12.65,16,11,16z M12,26H4l0-7c0-0.55,0.45-1,1-1h6c0.55,0,1,0.45,1,1 L12,26z M10.21,21.2L9.41,22l0.79,0.79c0.39,0.39,0.39,1.02,0,1.41c-0.39,0.39-1.02,0.39-1.41,0L8,23.42l-0.79,0.8 c-0.39,0.39-1.02,0.38-1.42-0.01s-0.39-1.01,0-1.4l0.8-0.8l-0.79-0.79c-0.39-0.39-0.39-1.02,0-1.41s1.02-0.39,1.41,0L8,20.58 l0.79-0.8c0.39-0.39,1.02-0.39,1.41,0C10.6,20.18,10.6,20.81,10.21,21.2z"/>
</svg>