<svg xmlns="http://www.w3.org/2000/svg" viewBox="0 0 30 30">
<rect fill="none" width="30" height="30"/>
<path fill="#000000" d="M25,2H15c-1.65,0-3,1.35-3,3l0,5H5c-1.65,0-3,1.35-3,3v10c0,0.55,0.45,1,1,1h9v2H9c-0.55,0-1,0.45-1,1s0.45,1,1,1h8 c0.55,0,1-0.45,1-1s-0.45-1-1-1h-3v-2h9c0.55,0,1-0.45,1-1V13c0-1.65-1.35-3-3-3h-7l0-5c0-0.55,0.45-1,1-1h10c0.55,0,1,0.45,1,1 l0,21h-6v2h7c0.55,0,1-0.45,1-1l0-22C28,3.35,26.65,2,25,2z M22,13v9H4v-9c0-0.55,0.45-1,1-1h16C21.55,12,22,12.45,22,13z M23,6 c0.55,0,1,0.45,1,1s-0.45,1-1,1h-6c-0.55,0-1-0.45-1-1s0.45-1,1-1H23z M20,20H6v-6h14V20z"/>
</svg>