<svg xmlns="http://www.w3.org/2000/svg" viewBox="0 0 30 30">
<rect fill="none" width="30" height="30"/>
<path fill="#000000" d="M22,3v9h-2V4H8C5.79,4,4,5.79,4,8v18h16v-2h2v3c0,0.55-0.45,1-1,1H3c-0.55,0-1-0.45-1-1V8c0-3.31,2.69-6,6-6h13 C21.55,2,22,2.45,22,3z M10.31,13.89c2.06,0,3.19,0.94,3.19,2.6c0,1.57-1.13,2.88-3.19,2.88c-0.1,0-0.26,0-0.43-0.01v2.69H8.01 v-8.1C8.7,13.92,9.47,13.89,10.31,13.89z M10.27,15.42c-0.13,0-0.26,0-0.4,0.01v2.37c0.12,0.01,0.23,0.02,0.32,0.02 c0.78-0.01,1.37-0.46,1.37-1.25C11.57,15.9,11.2,15.42,10.27,15.42z M17.08,13.9c2.43,0,4.05,1.06,4.05,3.93 c0,2.77-1.78,4.27-4.41,4.27c-0.85,0-1.66-0.04-2.4-0.07v-8.06C14.95,13.94,15.98,13.9,17.08,13.9z M16.96,15.48 c-0.31,0-0.56,0-0.77,0.02v4.95c0.16,0.02,0.41,0.05,0.7,0.05c1.28,0,2.24-0.79,2.24-2.52C19.13,16.46,18.63,15.48,16.96,15.48z M26.58,15.55v-1.6h-4.46v8.1h1.87v-3.24h2.45v-1.54h-2.45v-1.73H26.58z"/>
</svg>