<svg xmlns="http://www.w3.org/2000/svg" viewBox="0 0 30 30">
<rect fill="none" width="30" height="30"/>
<path fill="#000000" d="M10.42,16.23c0.13-0.22,0.28-0.42,0.43-0.62c-0.22,0.01-0.49,0.02-1.27,0.02H7.9v-1.68h5.24v1.52l-2.75,4.41 c-0.1,0.16-0.19,0.29-0.31,0.46c0.16-0.02,0.61-0.02,1.57-0.02h1.54v1.73H7.81v-1.46L10.42,16.23z M16.19,22.05v-8.1h-1.87v8.1 H16.19z M23.22,16.5c0,1.57-1.13,2.88-3.19,2.88c-0.1,0-0.26,0-0.43-0.01v2.69h-1.87v-8.1c0.7-0.04,1.46-0.06,2.3-0.06 C22.09,13.89,23.22,14.83,23.22,16.5z M21.29,16.58c0-0.68-0.37-1.16-1.29-1.16c-0.13,0-0.26,0-0.4,0.01v2.37 c0.12,0.01,0.23,0.02,0.32,0.02C20.7,17.81,21.29,17.37,21.29,16.58z M20,26H4V8c0-2.21,1.79-4,4-4h12v8h2V3c0-0.55-0.45-1-1-1H8 C4.69,2,2,4.69,2,8v19c0,0.55,0.45,1,1,1h18c0.55,0,1-0.45,1-1v-3h-2V26z"/>
</svg>