<svg xmlns="http://www.w3.org/2000/svg" viewBox="0 0 30 30">
<rect fill="none" width="30" height="30"/>
<path fill="#000000" d="M15,12c1.66,0,3-1.34,3-3s-1.34-3-3-3s-3,1.34-3,3S13.34,12,15,12z M15,8c0.55,0,1,0.45,1,1s-0.45,1-1,1s-1-0.45-1-1 S14.45,8,15,8z M15,18c-1.66,0-3,1.34-3,3s1.34,3,3,3s3-1.34,3-3S16.66,18,15,18z M15,22c-0.55,0-1-0.45-1-1s0.45-1,1-1s1,0.45,1,1 S15.55,22,15,22z M24,15c0-1.66-1.34-3-3-3s-3,1.34-3,3s1.34,3,3,3S24,16.66,24,15z M21,16c-0.55,0-1-0.45-1-1s0.45-1,1-1 s1,0.45,1,1S21.55,16,21,16z M9,12c-1.66,0-3,1.34-3,3s1.34,3,3,3s3-1.34,3-3S10.66,12,9,12z M9,16c-0.55,0-1-0.45-1-1s0.45-1,1-1 s1,0.45,1,1S9.55,16,9,16z M26.97,24h-2.61c2.25-2.34,3.64-5.51,3.64-9c0-7.17-5.83-13-13-13C7.83,2,2,7.83,2,15s5.83,13,13,13 c2.53,0,4.89-0.74,6.9-2h5.07c0.55,0,1-0.45,1-1S27.52,24,26.97,24z M4,15C4,8.93,8.93,4,15,4s11,4.93,11,11s-4.93,11-11,11 S4,21.07,4,15z"/>
</svg>