<svg xmlns="http://www.w3.org/2000/svg" viewBox="0 0 30 30">
<rect fill="none" width="30" height="30"/>
<path fill="#000000" d="M12.71,18.71L11.41,20l1.29,1.29c0.39,0.39,0.39,1.02,0,1.41s-1.02,0.39-1.41,0L10,21.41l-1.29,1.29 c-0.39,0.39-1.02,0.39-1.41,0s-0.39-1.02,0-1.41L8.59,20l-1.29-1.29c-0.39-0.39-0.39-1.02,0-1.41s1.02-0.39,1.41,0L10,18.59 l1.29-1.29c0.39-0.39,1.02-0.39,1.41,0S13.1,18.32,12.71,18.71z M18,6.5c-0.83,0-1.5,0.67-1.5,1.5s0.67,1.5,1.5,1.5 s1.5-0.67,1.5-1.5S18.83,6.5,18,6.5z M18,10.5c-0.83,0-1.5,0.67-1.5,1.5s0.67,1.5,1.5,1.5s1.5-0.67,1.5-1.5S18.83,10.5,18,10.5z M22,10.5c-0.83,0-1.5,0.67-1.5,1.5s0.67,1.5,1.5,1.5s1.5-0.67,1.5-1.5S22.83,10.5,22,10.5z M22,6.5c-0.83,0-1.5,0.67-1.5,1.5 s0.67,1.5,1.5,1.5s1.5-0.67,1.5-1.5S22.83,6.5,22,6.5z M28,10c0,4.22-3.33,7.72-7.5,7.98l-2.52,2.52C17.72,24.67,14.22,28,10,28 c-4.41,0-8-3.59-8-8c0-2.17,0.85-4.19,2.4-5.71l9.89-9.89C15.81,2.85,17.83,2,20,2C24.41,2,28,5.59,28,10z M26,10c0-3.31-2.69-6-6-6 c-1.62,0-3.14,0.64-4.28,1.8l-9.91,9.91C4.64,16.86,4,18.38,4,20c0,3.31,2.69,6,6,6c3.27,0,5.96-2.66,6-5.94 c0-0.26,0.11-0.51,0.29-0.7l3.08-3.08C19.55,16.1,19.8,16,20.06,16C23.34,15.96,26,13.27,26,10z"/>
</svg>