<svg xmlns="http://www.w3.org/2000/svg" viewBox="0 0 30 30">
<rect fill="none" width="30" height="30"/>
<path fill="#000000" d="M28,15c0-7.17-5.83-13-13-13S2,7.83,2,15c0,3.52,1.46,6.89,4,9.34V25c0,1.65,1.35,3,3,3h2c0.55,0,1-0.45,1-1V17 c0-0.55-0.45-1-1-1H9c-1.65,0-3,1.35-3,3v2.29C4.72,19.45,4,17.26,4,15c0-1.93,0.5-3.75,1.38-5.32C5.92,10.47,6.83,11,7.87,11 c0.81,0,1.57-0.32,2.14-0.9C11.34,8.75,13.11,8,15,8s3.67,0.75,4.99,2.1c0.57,0.58,1.33,0.9,2.14,0.9c1.03,0,1.95-0.52,2.49-1.32 C25.5,11.25,26,13.07,26,15c0,2.86-1.14,5.61-3.14,7.66C22.34,22.25,21.7,22,21,22c-1.65,0-3,1.35-3,3s1.35,3,3,3s3-1.35,3-3 c0-0.21-0.02-0.41-0.06-0.6C26.52,21.95,28,18.55,28,15z M8,19c0-0.55,0.45-1,1-1h1v8H9c-0.55,0-1-0.45-1-1V19z M22.85,8.73 c-0.4,0.39-1.03,0.38-1.41-0.02C19.72,6.96,17.44,6,15,6c-2.44,0-4.72,0.96-6.43,2.71c-0.38,0.39-1.02,0.4-1.41,0.02 c-0.39-0.39-0.4-1.02-0.02-1.41C9.23,5.18,12.02,4,15,4s5.77,1.18,7.86,3.31C23.25,7.71,23.24,8.34,22.85,8.73z M21,26 c-0.55,0-1-0.45-1-1s0.45-1,1-1s1,0.45,1,1S21.55,26,21,26z"/>
</svg>