<svg xmlns="http://www.w3.org/2000/svg" viewBox="0 0 30 30">
<rect fill="none" width="30" height="30"/>
<path fill="#000000" d="M25,6H5C3.35,6,2,7.35,2,9l0,16c0,0.55,0.45,1,1,1h24c0.55,0,1-0.45,1-1l0-16C28,7.35,26.65,6,25,6z M26,24h-4v-2 c0-0.55-0.45-1-1-1s-1,0.45-1,1v2H10v-2c0-0.55-0.45-1-1-1s-1,0.45-1,1v2H4L4,9c0-0.55,0.45-1,1-1h20c0.55,0,1,0.45,1,1L26,24z M10,14c-1.1,0-2-0.9-2-2c0-1.1,0.9-2,2-2s2,0.9,2,2C12,13.1,11.1,14,10,14z M24,13c0,0.55-0.45,1-1,1h-6c-0.55,0-1-0.45-1-1 s0.45-1,1-1h6C23.55,12,24,12.45,24,13z M24,17c0,0.55-0.45,1-1,1h-6c-0.55,0-1-0.45-1-1s0.45-1,1-1h6C23.55,16,24,16.45,24,17z M13,17c0,0.55-0.45,1-1,1H8c-0.55,0-1-0.45-1-1c0-1.65,1.35-3,3-3S13,15.35,13,17z"/>
</svg>