<svg xmlns="http://www.w3.org/2000/svg" viewBox="0 0 30 30">
<rect fill="none" width="30" height="30"/>
<path fill="#000000" d="M15,2C7.83,2,2,7.83,2,15s5.83,13,13,13s13-5.83,13-13S22.17,2,15,2z M21.16,18.33C21.69,17.34,22,16.2,22,15 s-0.31-2.34-0.84-3.33l2.9-2.9C25.28,10.54,26,12.69,26,15s-0.72,4.46-1.94,6.23L21.16,18.33z M10,15c0-2.76,2.24-5,5-5s5,2.24,5,5 s-2.24,5-5,5S10,17.76,10,15z M21.23,5.94l-2.9,2.9C17.34,8.31,16.2,8,15,8s-2.34,0.31-3.33,0.84l-2.9-2.9C10.54,4.72,12.69,4,15,4 S19.46,4.72,21.23,5.94z M5.94,8.77l2.9,2.9C8.31,12.66,8,13.8,8,15s0.31,2.34,0.84,3.33l-2.9,2.9C4.72,19.46,4,17.31,4,15 S4.72,10.54,5.94,8.77z M8.77,24.06l2.9-2.9C12.66,21.69,13.8,22,15,22s2.34-0.31,3.33-0.84l2.9,2.9C19.46,25.28,17.31,26,15,26 S10.54,25.28,8.77,24.06z"/>
</svg>