<svg xmlns="http://www.w3.org/2000/svg" viewBox="0 0 30 30">
<rect fill="none" width="30" height="30"/>
<path fill="#000000" d="M15,2C7.83,2,2,7.83,2,15s5.83,13,13,13s13-5.83,13-13S22.17,2,15,2z M15,26c-1.69,0-3.51-2.32-4.42-6h8.84 C18.51,23.68,16.69,26,15,26z M10.2,18c-0.13-0.94-0.2-1.94-0.2-3s0.08-2.06,0.2-3h9.59c0.13,0.94,0.2,1.94,0.2,3s-0.08,2.06-0.2,3 H10.2z M4,15c0-1.04,0.15-2.04,0.43-3h3.76C8.07,12.96,8,13.96,8,15s0.07,2.04,0.19,3H4.43C4.15,17.04,4,16.04,4,15z M15,4 c1.69,0,3.51,2.32,4.42,6h-8.84C11.49,6.32,13.31,4,15,4z M21.81,12h3.76c0.27,0.96,0.43,1.96,0.43,3s-0.15,2.04-0.43,3h-3.76 c0.12-0.96,0.19-1.96,0.19-3S21.93,12.96,21.81,12z M24.79,10h-3.31c-0.43-1.98-1.11-3.69-1.98-5.03C21.78,6,23.65,7.78,24.79,10z M10.5,4.97C9.63,6.31,8.95,8.02,8.52,10H5.21C6.35,7.78,8.22,6,10.5,4.97z M5.21,20h3.31c0.43,1.98,1.11,3.69,1.98,5.03 C8.22,24,6.35,22.22,5.21,20z M19.5,25.03c0.86-1.33,1.55-3.05,1.98-5.03h3.31C23.65,22.22,21.78,24,19.5,25.03z"/>
</svg>