<svg xmlns="http://www.w3.org/2000/svg" viewBox="0 0 30 30">
<rect fill="none" width="30" height="30"/>
<path fill="#000000" d="M10,15c0,0.55-0.45,1-1,1H7c-0.55,0-1-0.45-1-1s0.45-1,1-1h2C9.55,14,10,14.45,10,15z M9,18H7c-0.55,0-1,0.45-1,1 s0.45,1,1,1h2c0.55,0,1-0.45,1-1S9.55,18,9,18z M13,16h2c0.55,0,1-0.45,1-1s-0.45-1-1-1h-2c-0.55,0-1,0.45-1,1S12.45,16,13,16z M16,19c0-0.55-0.45-1-1-1h-2c-0.55,0-1,0.45-1,1s0.45,1,1,1h2C15.55,20,16,19.55,16,19z M26,5v22c0,0.55-0.45,1-1,1H13 c-0.55,0-1-0.45-1-1v-3h-2v3c0,0.55-0.45,1-1,1H3c-0.55,0-1-0.45-1-1V13c0-1.65,1.35-3,3-3h3V5c0-1.65,1.35-3,3-3h12 C24.65,2,26,3.35,26,5z M14,23v3h4V13c0-0.55-0.45-1-1-1H5c-0.55,0-1,0.45-1,1v13h4v-3c0-0.55,0.45-1,1-1h4C13.55,22,14,22.45,14,23 z M24,5c0-0.55-0.45-1-1-1H11c-0.55,0-1,0.45-1,1v5h7c0.46,0,0.9,0.11,1.29,0.3C18.47,10.12,18.72,10,19,10h2c0.55,0,1,0.45,1,1 s-0.45,1-1,1h-1.18c0.11,0.31,0.18,0.65,0.18,1v1h1c0.55,0,1,0.45,1,1s-0.45,1-1,1h-1v2h1c0.55,0,1,0.45,1,1s-0.45,1-1,1h-1v6h4V5z M15,6h-2c-0.55,0-1,0.45-1,1s0.45,1,1,1h2c0.55,0,1-0.45,1-1S15.55,6,15,6z M21,6h-2c-0.55,0-1,0.45-1,1s0.45,1,1,1h2 c0.55,0,1-0.45,1-1S21.55,6,21,6z"/>
</svg>