<svg xmlns="http://www.w3.org/2000/svg" viewBox="0 0 30 30">
<rect fill="none" width="30" height="30"/>
<path fill="#000000" d="M25,6H14c0-2.21-1.79-4-4-4S6,3.79,6,6H5C3.35,6,2,7.35,2,9l0,16c0,0.55,0.45,1,1,1h24c0.55,0,1-0.45,1-1l0-16 C28,7.35,26.65,6,25,6z M8,6c0-1.1,0.9-2,2-2s2,0.9,2,2v12c0,1.1-0.9,2-2,2s-2-0.9-2-2V6z M26,24H4L4,9c0-0.55,0.45-1,1-1h1v10 c0,2.21,1.79,4,4,4s4-1.79,4-4V8h11c0.55,0,1,0.45,1,1L26,24z M24,13c0,0.55-0.45,1-1,1h-4c-0.55,0-1-0.45-1-1s0.45-1,1-1h4 C23.55,12,24,12.45,24,13z M24,17c0,0.55-0.45,1-1,1h-4c-0.55,0-1-0.45-1-1s0.45-1,1-1h4C23.55,16,24,16.45,24,17z M24,21 c0,0.55-0.45,1-1,1h-4c-0.55,0-1-0.45-1-1s0.45-1,1-1h4C23.55,20,24,20.45,24,21z"/>
</svg>