<svg xmlns="http://www.w3.org/2000/svg" viewBox="0 0 30 30">
<rect fill="none" width="30" height="30"/>
<path fill="#000000" d="M25,8h-2.38l-1.72-3.45C20.72,4.21,20.38,4,20,4H10C9.62,4,9.28,4.21,9.11,4.55L7.38,8H5c-1.65,0-3,1.35-3,3v10 c0,1.65,1.35,3,3,3h20c1.65,0,3-1.35,3-3V11C28,9.35,26.65,8,25,8z M26,21c0,0.55-0.45,1-1,1H5c-0.55,0-1-0.45-1-1V11 c0-0.55,0.45-1,1-1h3c0.38,0,0.72-0.21,0.89-0.55L10.62,6h8.76l1.72,3.45C21.28,9.79,21.62,10,22,10h3c0.55,0,1,0.45,1,1V21z M15,10 c-2.76,0-5,2.24-5,5s2.24,5,5,5s5-2.24,5-5S17.76,10,15,10z M15,18c-1.65,0-3-1.35-3-3s1.35-3,3-3s3,1.35,3,3S16.65,18,15,18z"/>
</svg>