<svg xmlns="http://www.w3.org/2000/svg" viewBox="0 0 30 30">
<rect fill="none" width="30" height="30"/>
<path fill="#000000" d="M7,20c-1.65,0-3,1.35-3,3s1.35,3,3,3s3-1.35,3-3S8.65,20,7,20z M7,24c-0.55,0-1-0.45-1-1s0.45-1,1-1s1,0.45,1,1 S7.55,24,7,24z M5,10c-0.55,0-1,0.45-1,1v4c0,0.55,0.45,1,1,1c4.96,0,9,4.04,9,9c0,0.55,0.45,1,1,1h4c0.55,0,1-0.45,1-1 C20,16.73,13.27,10,5,10z M15.96,24c-0.48-5.27-4.69-9.48-9.96-9.96v-2.01c6.37,0.49,11.47,5.59,11.96,11.96H15.96z M5,2 C4.45,2,4,2.45,4,3v4c0,0.55,0.45,1,1,1c9.37,0,17,7.63,17,17c0,0.55,0.45,1,1,1h4c0.55,0,1-0.45,1-1C28,12.32,17.68,2,5,2z M23.97,24C23.47,14.32,15.68,6.53,6,6.03v-2C16.79,4.53,25.47,13.21,25.98,24H23.97z"/>
</svg>