<svg xmlns="http://www.w3.org/2000/svg" viewBox="0 0 30 30">
<rect fill="none" width="30" height="30"/>
<path fill="#000000" d="M21,2H9C7.35,2,6,3.35,6,5l0,22c0,0.55,0.45,1,1,1h16c0.55,0,1-0.45,1-1l0-22C24,3.35,22.65,2,21,2z M22,26H8L8,5 c0-0.55,0.45-1,1-1h12c0.55,0,1,0.45,1,1L22,26z M17,21c0,1.1-0.9,2-2,2s-2-0.9-2-2c0-1.1,0.9-2,2-2S17,19.9,17,21z M20,7 c0,0.55-0.45,1-1,1h-8c-0.55,0-1-0.45-1-1s0.45-1,1-1h8C19.55,6,20,6.45,20,7z M20,11c0,0.55-0.45,1-1,1h-8c-0.55,0-1-0.45-1-1 s0.45-1,1-1h8C19.55,10,20,10.45,20,11z"/>
</svg>