<svg xmlns="http://www.w3.org/2000/svg" viewBox="0 0 30 30">
<rect fill="none" width="30" height="30"/>
<path fill="#000000" d="M8,27c0,0.55,0.45,1,1,1c0.23,0,0.43-0.07,0.6-0.2l7.73-5.8H24c2.21,0,4-1.79,4-4V5c0-0.55-0.45-1-1-1H3C2.45,4,2,4.45,2,5 v13c0,2.21,1.79,4,4,4h2V27z M26,18c0,1.1-0.9,2-2,2h-7c-0.22,0-0.43,0.07-0.6,0.2L10,25v-4c0-0.55-0.45-1-1-1H6c-1.1,0-2-0.9-2-2V6 h22V18z M8,11c0-0.55,0.45-1,1-1h12c0.55,0,1,0.45,1,1s-0.45,1-1,1H9C8.45,12,8,11.55,8,11z M8,15c0-0.55,0.45-1,1-1h12 c0.55,0,1,0.45,1,1s-0.45,1-1,1H9C8.45,16,8,15.55,8,15z"/>
</svg>