<svg xmlns="http://www.w3.org/2000/svg" viewBox="0 0 30 30">
<rect fill="none" width="30" height="30"/>
<path fill="#000000" d="M6.6,3.9C4.92,5.89,4,8.41,4,11s0.92,5.11,2.6,7.1c0.36,0.42,0.3,1.05-0.12,1.41c-0.42,0.36-1.05,0.3-1.41-0.12 C3.09,17.05,2,14.07,2,11s1.09-6.05,3.08-8.39c0.35-0.42,0.99-0.47,1.41-0.12C6.91,2.85,6.96,3.48,6.6,3.9z M10,6.01 c-0.44-0.33-1.07-0.24-1.4,0.2C7.55,7.61,7,9.27,7,11s0.55,3.39,1.6,4.79c0.33,0.44,0.96,0.53,1.4,0.2c0.44-0.33,0.53-0.96,0.2-1.4 C9.42,13.54,9,12.3,9,11s0.42-2.54,1.2-3.59C10.53,6.97,10.44,6.34,10,6.01z M24.92,2.61c-0.35-0.42-0.99-0.47-1.41-0.12 c-0.42,0.36-0.47,0.99-0.12,1.41C25.08,5.89,26,8.41,26,11s-0.92,5.11-2.6,7.1c-0.36,0.42-0.3,1.05,0.12,1.41 c0.42,0.36,1.05,0.3,1.41-0.12C26.91,17.05,28,14.07,28,11S26.91,4.95,24.92,2.61z M20,6.01c-0.44,0.33-0.53,0.96-0.2,1.4 C20.58,8.46,21,9.7,21,11s-0.42,2.54-1.2,3.59c-0.33,0.44-0.24,1.07,0.2,1.4c0.44,0.33,1.07,0.24,1.4-0.2 c1.05-1.4,1.6-3.05,1.6-4.79s-0.55-3.39-1.6-4.79C21.07,5.77,20.44,5.68,20,6.01z M18,11v16c0,0.55-0.45,1-1,1h-4 c-0.55,0-1-0.45-1-1V11c0-1.65,1.35-3,3-3S18,9.35,18,11z M16,11c0-0.55-0.45-1-1-1s-1,0.45-1,1v15h2V11z"/>
</svg>