<svg xmlns="http://www.w3.org/2000/svg" viewBox="0 0 30 30">
<rect fill="none" width="30" height="30"/>
<path fill="#000000" d="M24,6H6c-2.21,0-4,1.79-4,4l0,13c0,0.55,0.45,1,1,1h24c0.55,0,1-0.45,1-1l0-13C28,7.79,26.21,6,24,6z M26,22H4l0-12 c0-1.1,0.9-2,2-2h18c1.1,0,2,0.9,2,2L26,22z M20,11H10c-2.21,0-4,1.79-4,4s1.79,4,4,4s4-1.79,4-4c0-0.73-0.21-1.41-0.56-2h3.11 C16.21,13.59,16,14.27,16,15c0,2.21,1.79,4,4,4s4-1.79,4-4S22.21,11,20,11z M12,15c0,1.1-0.9,2-2,2s-2-0.9-2-2s0.9-2,2-2 S12,13.9,12,15z M20,17c-1.1,0-2-0.9-2-2s0.9-2,2-2s2,0.9,2,2S21.1,17,20,17z"/>
</svg>