<svg xmlns="http://www.w3.org/2000/svg" viewBox="0 0 30 30">
<rect fill="none" width="30" height="30"/>
<path fill="#000000" d="M13.5,26c0,0.83-0.67,1.5-1.5,1.5s-1.5-0.67-1.5-1.5s0.67-1.5,1.5-1.5S13.5,25.17,13.5,26z M18,24.5 c-0.83,0-1.5,0.67-1.5,1.5s0.67,1.5,1.5,1.5s1.5-0.67,1.5-1.5S18.83,24.5,18,24.5z M15,20.5c-0.83,0-1.5,0.67-1.5,1.5 s0.67,1.5,1.5,1.5s1.5-0.67,1.5-1.5S15.83,20.5,15,20.5z M28,19c0,2.76-2.24,5-5,5h-3v-2h3c1.65,0,3-1.35,3-3s-1.35-3-3-3h-4 c-0.55,0-1-0.45-1-1c0-2.76-2.24-5-5-5s-5,2.24-5,5c0,0.55-0.45,1-1,1c-1.65,0-3,1.35-3,3s1.35,3,3,3h3v2H7c-2.76,0-5-2.24-5-5 c0-2.44,1.75-4.47,4.06-4.91c0.44-3.33,3.22-5.93,6.64-6.07c0.2-0.42,0.43-0.83,0.7-1.2l-0.76-0.76c-0.39-0.39-0.39-1.02,0-1.41 s1.02-0.39,1.41,0l0.77,0.77c0.92-0.69,2.01-1.16,3.18-1.33V3c0-0.55,0.45-1,1-1s1,0.45,1,1v1.08c1.18,0.17,2.27,0.64,3.18,1.32 l0.77-0.77c0.39-0.39,1.02-0.39,1.41,0s0.39,1.02,0,1.41L24.6,6.82c0.69,0.92,1.15,2,1.32,3.18H27c0.55,0,1,0.45,1,1s-0.45,1-1,1 h-1.08c-0.13,0.87-0.43,1.69-0.86,2.46C26.79,15.24,28,16.98,28,19z M19.93,14h3.04c0.66-0.87,1.04-1.91,1.04-3c0-2.76-2.24-5-5-5 c-1.7,0-3.24,0.87-4.15,2.25C17.5,8.98,19.53,11.23,19.93,14z"/>
</svg>