<svg xmlns="http://www.w3.org/2000/svg" viewBox="0 0 30 30">
<rect fill="none" width="30" height="30"/>
<path fill="#000000" d="M10.29,7.71c-0.39-0.39-0.39-1.02,0-1.41l4-4c0.39-0.39,1.02-0.39,1.41,0l4,4c0.39,0.39,0.39,1.02,0,1.41s-1.02,0.39-1.41,0 L16,5.41V15c0,0.55-0.45,1-1,1s-1-0.45-1-1V5.41l-2.29,2.29C11.32,8.1,10.68,8.1,10.29,7.71z M28,13l0,14c0,0.55-0.45,1-1,1H3 c-0.55,0-1-0.45-1-1l0-14c0-1.65,1.35-3,3-3h7v2H5.41L15,21.59L24.59,12H18v-2h7C26.65,10,28,11.35,28,13z M26,13.41L15.71,23.71 c-0.39,0.39-1.02,0.39-1.41,0L4,13.41L4,26h22L26,13.41z"/>
</svg>