<svg xmlns="http://www.w3.org/2000/svg" viewBox="0 0 30 30">
<rect fill="none" width="30" height="30"/>
<path fill="#000000" d="M19.85,11.53l-5,8C14.67,19.81,14.36,20,14,20c-0.33,0-0.62-0.16-0.8-0.4l-3-4c-0.33-0.44-0.24-1.07,0.2-1.4 c0.44-0.33,1.07-0.24,1.4,0.2l2.12,2.83l4.23-6.76c0.29-0.47,0.91-0.61,1.38-0.32C20,10.44,20.14,11.06,19.85,11.53z M28,9l0,14 c0,0.55-0.45,1-1,1H3c-0.55,0-1-0.45-1-1L2,9c0-1.65,1.35-3,3-3h20C26.65,6,28,7.35,28,9z M26,9c0-0.55-0.45-1-1-1H5 C4.45,8,4,8.45,4,9l0,13h22L26,9z"/>
</svg>