<svg xmlns="http://www.w3.org/2000/svg" viewBox="0 0 30 30">
<rect fill="none" width="30" height="30"/>
<path d="M27 10H14.7c-1.1-1.4-2-2.9-1.9-5 0-.4-.2-.7-.5-.9-.3-.2-.8-.1-1.1.1C7.4 7 7 10.7 7 13.3v.1l-.1-.1c-.4-.4-.7-.9-.9-1.5-.1-.4-.5-.6-.8-.6-.4 0-.7.1-.9.5-1 1.6-2.2 4.3-2.2 7.6 0 4.8 4.1 8.7 9 8.7 1.5 0 2.9-.4 4.2-1H27c.6 0 1-.4 1-1V11c0-.6-.4-1-1-1zm-10.5 2H21v3h-2.1c-.7-1.1-1.5-2.1-2.4-3zM4 19.3c0-2 .5-3.7 1.1-5 .1.2.3.3.4.5l1.8 1.9c.3.3.7.4 1.1.2.4-.2.6-.5.6-.9v-2.6c0-2 .2-4.2 1.9-6.2.6 2.6 2.3 4.4 3.8 6 1.8 1.9 3.3 3.5 3.3 6.2 0 3.7-3.2 6.7-7 6.7S4 23 4 19.3zM21 25h-3.2c.8-.9 1.4-1.9 1.8-3H21v3zm5 0h-3v-3h3v3zm0-5h-6v-.7c0-.8-.1-1.6-.3-2.3H26v3zm0-5h-3v-3h3v3z"/><path fill="none" d="M0 0h30v30H0z"/></svg>