<svg xmlns="http://www.w3.org/2000/svg" viewBox="0 0 30 30">
<rect fill="none" width="30" height="30"/>
<path d="M27.6 14.1l-3.3-1.9c-.2-.1-.4-.2-.6-.2-.4 0-.7.2-.9.5-1.5 2.8-4.5 4.5-7.7 4.5S9 15.3 7.3 12.6c-.3-.5-1-.7-1.5-.4l-3.3 1.9c-.5.3-.6.9-.4 1.4.3.5.9.6 1.4.4l2.6-1.6c.7 1 1.6 1.9 2.6 2.6l-1.5 2.5c-.3.5-.1 1.1.4 1.4.2.1.4.2.6.2.3 0 .7-.2.9-.5l1.5-2.5c1.1.5 2.3.9 3.6 1v3c0 .6.4 1 1 1s1-.4 1-1v-3.1c1.3-.1 2.5-.5 3.6-1l1.5 2.5c.2.3.5.5.9.5.2 0 .3 0 .5-.1.5-.3.6-.9.4-1.4L21.4 17c1-.7 1.9-1.6 2.6-2.6l2.5 1.5c.5.3 1.1.1 1.4-.4.3-.6.2-1.2-.3-1.4z"/><path fill="none" d="M0 0h30v30H0z"/></svg>