<svg xmlns="http://www.w3.org/2000/svg" viewBox="0 0 30 30">
<rect fill="none" width="30" height="30"/>
<path d="M27.9 2.9c-.1-.4-.4-.8-.9-.9-.3 0-7.4-1-11.7 4-.7.8-1.7 2.1-2.8 3.5l-5.8-.1c-.3 0-.6.1-.7.3l-3.6 3.6c-.3.2-.4.5-.4.9.1.3.3.6.6.7l4.5 1.7c-.7 1-1.2 1.7-1.3 1.8-.3.4-.2.9.1 1.3l4.3 4.3c.2.2.5.3.7.3.2 0 .4-.1.6-.2.1-.1.8-.6 1.8-1.3l1.7 4.5c.1.3.4.6.7.6h.2c.3 0 .5-.1.7-.3l3.6-3.6c.2-.2.3-.5.3-.8l-.3-5.7c1.5-1.1 2.8-2.2 3.6-2.9 5.1-4.2 4.1-11.3 4.1-11.7zM4.8 13.6L7 11.4l4 .2c-.9 1.2-1.8 2.4-2.6 3.4l-3.6-1.4zM18.6 23l-2.2 2.2-1.4-3.6c1-.8 2.2-1.6 3.4-2.5l.2 3.9zm4-9.8c-2.4 2.1-9.3 7.2-11.5 8.8L8 18.9c1.6-2.2 6.7-9.2 8.8-11.5C19.7 4.1 24.2 3.9 26 4c.1 1.8-.1 6.3-3.4 9.2z"/><path d="M19.6 12.3c-.5 0-1-.2-1.4-.6-.8-.8-.8-2.1 0-2.9.8-.8 2.1-.8 2.9 0 .8.8.8 2.1 0 2.9-.4.4-1 .6-1.5.6zM7.4 22.7c.8.8.8 2.1 0 2.9-.3.3-.6.4-.9.5L3 27l.9-3.4c.1-.3.3-.7.5-.9.9-.8 2.2-.8 3 0z"/>
</svg>