<svg xmlns="http://www.w3.org/2000/svg" viewBox="0 0 30 30">
<rect fill="none" width="30" height="30"/>
<g>
	<path d="M11,13c0.6,0,1,0.4,1,1s-0.4,1-1,1s-1-0.4-1-1S10.4,13,11,13 M11,11c-1.7,0-3,1.3-3,3s1.3,3,3,3s3-1.3,3-3S12.7,11,11,11
		L11,11z"/>
	<path d="M19,13c0.6,0,1,0.4,1,1s-0.4,1-1,1s-1-0.4-1-1S18.4,13,19,13 M19,11c-1.7,0-3,1.3-3,3s1.3,3,3,3s3-1.3,3-3S20.7,11,19,11
		L19,11z"/>
	<path d="M15,22c-2.2,0-4.4-1.1-4.4-1.1c-0.5-0.2-0.7-0.8-0.4-1.3s0.8-0.7,1.3-0.5c0,0,1.8,0.9,3.6,0.9s3.5-0.9,3.6-0.9
		c0.5-0.2,1.1,0,1.3,0.5s0,1.1-0.4,1.3C19.4,20.9,17.2,22,15,22z"/>
	<path d="M27,13h-1.1c-0.5-3.4-3.4-6-6.9-6h-1.6l2.3-2.3c0.4-0.4,0.4-1,0-1.4s-1-0.4-1.4,0L15,6.6l-3.3-3.3c-0.4-0.4-1-0.4-1.4,0
		s-0.4,1,0,1.4L12.6,7H11c-3.5,0-6.4,2.6-6.9,6H3c-0.6,0-1,0.4-1,1c0,0.6,0.4,1,1,1h1v10c0,0.6,0.4,1,1,1h20c0.6,0,1-0.4,1-1V15h1
		c0.6,0,1-0.4,1-1C28,13.4,27.6,13,27,13z M24,24H6V14c0-2.8,2.2-5,5-5h8c2.8,0,5,2.2,5,5V24z"/>
	<rect x="0" fill="none" width="30" height="30"/>
</g>
</svg>
