<svg xmlns="http://www.w3.org/2000/svg" viewBox="0 0 30 30">
<rect fill="none" width="30" height="30"/>
<g>
	<g>
		<path d="M14,14c0-1.7-1.3-3-3-3s-3,1.3-3,3s1.3,3,3,3S14,15.7,14,14z M10,14c0-0.6,0.4-1,1-1s1,0.4,1,1s-0.4,1-1,1S10,14.6,10,14z
			"/>
		<path d="M19,11c-1.7,0-3,1.3-3,3s1.3,3,3,3s3-1.3,3-3S20.7,11,19,11z M19,15c-0.6,0-1-0.4-1-1s0.4-1,1-1s1,0.4,1,1S19.6,15,19,15z
			"/>
		<path d="M19,19L19,19l-8,0v0c-0.4,0-0.7,0.2-0.9,0.5c-0.2,0.5,0,1.1,0.4,1.3c0.1,0,2.2,1.1,4.4,1.1s4.4-1.1,4.4-1.1
			c0.5-0.2,0.7-0.8,0.4-1.3C19.7,19.2,19.4,19,19,19z"/>
		<path d="M27,13h-1.1c-0.5-3.4-3.4-6-6.9-6h-1.6l2.3-2.3c0.4-0.4,0.4-1,0-1.4s-1-0.4-1.4,0L15,6.6l-3.3-3.3c-0.4-0.4-1-0.4-1.4,0
			s-0.4,1,0,1.4L12.6,7H11c-3.5,0-6.4,2.6-6.9,6H3c-0.6,0-1,0.4-1,1s0.4,1,1,1h1v10c0,0.6,0.4,1,1,1h20c0.6,0,1-0.4,1-1V15h1
			c0.6,0,1-0.4,1-1S27.6,13,27,13z M24,24H6V14c0-2.8,2.2-5,5-5h8c2.8,0,5,2.2,5,5V24z"/>
	</g>
	<rect fill="none" width="30" height="30"/>
</g>
</svg>
