<svg xmlns="http://www.w3.org/2000/svg" viewBox="0 0 30 30">
<rect fill="none" width="30" height="30"/>
<path d="M24 28H6c-2.2 0-4-1.8-4-4V6c0-2.2 1.8-4 4-4h18c2.2 0 4 1.8 4 4v18c0 2.2-1.8 4-4 4zM6 4c-1.1 0-2 .9-2 2v18c0 1.1.9 2 2 2h18c1.1 0 2-.9 2-2V6c0-1.1-.9-2-2-2H6z"/><path d="M13.5 10.5H9.4l.8-.8c.4-.4.4-1 0-1.4s-1-.4-1.4 0l-2.5 2.5c-.2.2-.3.4-.3.7s.1.5.3.7l2.5 2.5c.2.2.4.3.7.3s.5-.1.7-.3c.4-.4.4-1 0-1.4l-.8-.8h4.1c.6 0 1-.4 1-1s-.5-1-1-1zm10.4 7.6c-.1-.1-.1-.2-.2-.3l-2.5-2.5c-.4-.4-1-.4-1.4 0s-.4 1 0 1.4l.8.8h-4.1c-.6 0-1 .4-1 1s.4 1 1 1h4.1l-.8.8c-.4.4-.4 1 0 1.4.2.2.5.3.7.3s.5-.1.7-.3l2.5-2.5c.1-.1.2-.2.2-.3.1-.3.1-.5 0-.8zm-7.4-7.6h4.1l-.8.8c-.4.4-.4 1 0 1.4.2.2.5.3.7.3s.5-.1.7-.3l2.5-2.5c.1-.1.2-.2.2-.3.1-.2.1-.5 0-.8-.1-.1-.1-.2-.2-.3l-2.5-2.5c-.4-.4-1-.4-1.4 0s-.4 1 0 1.4l.8.8h-4.1c-.6 0-1 .4-1 1s.4 1 1 1zm-3 9H9.4l.8-.8c.4-.4.4-1 0-1.4s-1-.4-1.4 0l-2.5 2.5c-.2.2-.3.4-.3.7s.1.5.3.7l2.5 2.5c.2.2.4.3.7.3s.5-.1.7-.3c.4-.4.4-1 0-1.4l-.8-.8h4.1c.6 0 1-.4 1-1s-.5-1-1-1z"/><path fill="none" d="M0 0h30v30H0z"/></svg>