<svg xmlns="http://www.w3.org/2000/svg" viewBox="0 0 30 30">
<rect fill="none" width="30" height="30"/>
<path d="M9 9h12v12H9z"/><path d="M27 14c.6 0 1-.4 1-1s-.4-1-1-1h-2v-2h2c.6 0 1-.4 1-1s-.4-1-1-1h-2V6c0-.6-.4-1-1-1h-2V3c0-.6-.4-1-1-1s-1 .4-1 1v2h-2V3c0-.6-.4-1-1-1s-1 .4-1 1v2h-2V3c0-.6-.4-1-1-1s-1 .4-1 1v2h-2V3c0-.6-.4-1-1-1s-1 .4-1 1v2H6c-.6 0-1 .4-1 1v2H3c-.6 0-1 .4-1 1s.4 1 1 1h2v2H3c-.6 0-1 .4-1 1s.4 1 1 1h2v2H3c-.6 0-1 .4-1 1s.4 1 1 1h2v2H3c-.6 0-1 .4-1 1s.4 1 1 1h2v2c0 .6.4 1 1 1h2v2c0 .6.4 1 1 1s1-.4 1-1v-2h2v2c0 .6.4 1 1 1s1-.4 1-1v-2h2v2c0 .6.4 1 1 1s1-.4 1-1v-2h2v2c0 .6.4 1 1 1s1-.4 1-1v-2h2c.6 0 1-.4 1-1v-2h2c.6 0 1-.4 1-1s-.4-1-1-1h-2v-2h2c.6 0 1-.4 1-1s-.4-1-1-1h-2v-2h2zm-4 9H7V7h16v16z"/><path fill="none" d="M0 0h30v30H0z"/></svg>