<svg width="40" height="40" viewBox="0 0 30 40" xmlns="http://www.w3.org/2000/svg"><defs><radialGradient cx="11.237%" cy="22.446%" fx="11.237%" fy="22.446%" r="138.014%" id="a"><stop stop-color="#42B4F3" stop-opacity=".98" offset="0%"/><stop stop-color="#003A80" offset="100%"/></radialGradient><radialGradient cx="86.925%" cy="42.512%" fx="86.925%" fy="42.512%" r="83.75%" id="b"><stop stop-color="#5BC0FF" stop-opacity=".98" offset="0%"/><stop stop-color="#003789" offset="100%"/></radialGradient><radialGradient cx="71.176%" cy="27.917%" fx="71.176%" fy="27.917%" r="134.815%" id="c"><stop stop-color="#5FC7FF" offset="0%"/><stop stop-color="#003785" stop-opacity=".98" offset="100%"/></radialGradient><radialGradient cx="46.793%" cy="19.857%" fx="46.793%" fy="19.857%" r="113.677%" id="d"><stop stop-color="#EC0A1C" offset="0%"/><stop stop-color="#BB0E15" offset="100%"/></radialGradient><radialGradient cx="29.824%" cy="20.385%" fx="29.824%" fy="20.385%" r="162.326%" id="e"><stop stop-color="#EC0A1C" offset="0%"/><stop stop-color="#9E0D18" offset="100%"/></radialGradient><linearGradient x1="91.082%" y1="100.996%" x2="31.124%" y2="-.026%" id="f"><stop stop-color="#320000" offset="0%"/><stop stop-color="#5D0000" offset="100%"/></linearGradient><radialGradient cx="94.023%" cy="91.876%" fx="94.023%" fy="91.876%" r="201.584%" id="g"><stop stop-color="#003789" offset="0%"/><stop stop-color="#5FC7FF" stop-opacity=".98" offset="100%"/></radialGradient></defs><g fill="none" fill-rule="evenodd"><path d="M8.34 32.825c.362.327.739.638 1.131.918a17.024 17.024 0 0 0 1.995 1.198c.534.28 1.382.654 1.916.872-.11-.171-.188-.28-.298-.467a5.737 5.737 0 0 1-.754-.996 6.383 6.383 0 0 1-.55-1.245c-.11-.327-.235-.7-.345-1.105a10.93 10.93 0 0 1-.22-.903c-.016-.062-.063-.295-.079-.358a13.352 13.352 0 0 0-.204-.918 7.64 7.64 0 0 0-.236-.856 13.539 13.539 0 0 0-.502-1.276c-.22-.498-.456-.965-.723-1.385-.173-.28-.612-.872-.817-1.121-.157-.187-.282-.343-.424-.498a4.67 4.67 0 0 1-.345-.39c-.157-.17-.33-.342-.487-.497-.016-.016 0 0-.032.015-.33.42-.628.84-.88 1.292a5.974 5.974 0 0 0-.502 1.12 4.648 4.648 0 0 0-.172.67c-.048.233-.063.467-.079.7-.016.296 0 .592.047.903.047.311.126.638.251.98.142.39.33.779.566 1.183.031.047.063.11.094.156.424.747 1.005 1.4 1.65 2.008z" fill="url(#a)"/><path d="M13.382 39.891a25.448 25.448 0 0 0 2.278-.296c.974-.17 1.963-.42 2.968-.731.848-.265 1.68-.576 2.513-.934.739-.327 1.461-.685 2.152-1.074a16.97 16.97 0 0 0 2.529-1.759 13.17 13.17 0 0 0 2.325-2.537c.675-.98 1.178-2.07 1.492-3.253a9.532 9.532 0 0 0 .298-2.039 8.038 8.038 0 0 0-.235-2.303c-.252-.996-.692-1.961-1.288-2.895-.739-1.183-1.728-2.319-2.859-3.424-1.147-1.136-2.45-2.241-3.832-3.362-.849-.685-1.713-1.37-2.592-2.07-.676-.53-1.35-1.074-2.042-1.634-.754-.623-1.508-1.245-2.246-1.884-.644-.575-1.272-1.136-1.885-1.712-.204-.186-.393-.389-.597-.575a35.197 35.197 0 0 1-1.885-2.04c.362.53.927 1.324 1.477 2.133.377.576.754 1.152 1.02 1.665.126.234.22.467.3.67.062.186.11.342.11.482v29.572z" fill="url(#b)"/><path d="M13.382 35.813s1.351-1.572 1.728-2.023c.251-.296.817-1.012 1.35-1.697.52-.669 1.006-1.307 1.163-1.51.063-.093.911-1.291.99-1.4.408-.576.11-.171.345-.467.094-.14.141-.171.738-1.074.063-.093.173-.28.267-.42.047-.094.55-.887.597-.95.094-.155.189-.31.267-.451.236-.42.409-.747.597-1.09.424-.778.644-1.151 1.021-1.976.267-.576.565-1.245.754-1.743.141-.343.346-.887.44-1.183.078-.203.251-.747.361-1.09.188-.638.298-1.058.33-1.23.016-.062-.094-.466-.094-.466-.44-.374-1.053-.903-1.461-1.23-.157-.14-1.382-1.136-1.587-1.307-.785-.638-1.931-1.557-2.764-2.226-.864-.685-1.398-1.12-2.199-1.774-2.921-2.381-4.35-3.985-5.89-5.37.77 1.728 2.733 4.203 2.733 5.915V35.33c0 .016.11.172.314.483z" fill="url(#c)"/><path d="M15.298 10.086c.142.124.252.218.582.482.14.109.486.405.612.514.251.202 1.162.934 1.257 1.027.031.031.094.078.172.14.519.42 1.87 1.494 2.278 1.821l.047.047c.314.249 1.885 1.51 2.67 2.163.723.607 1.351 1.183 1.414 1.23.157-.716.267-1.417.345-2.07.095-.919.11-1.79.032-2.584a10.442 10.442 0 0 0-.943-3.61 9.156 9.156 0 0 0-1.869-2.647c-.078-.078-.157-.155-.235-.218a9.242 9.242 0 0 0-1.398-1.074 11.119 11.119 0 0 0-1.54-.809c-.958-.39-1.916-.623-2.78-.685-1.052-.078-2.026.094-2.654.436-.126.062-.236.109-.236.109v3.75c.032.032.299.266.299.281.471.436 1.036.95 1.32 1.199.235.155.423.326.627.498z" fill="url(#d)"/><path d="M11.262 32.514c.047.17.11.358.173.529.094.264.188.513.282.778.173.39.362.778.613 1.12.188.265.408.499.675.685.11.078.236.14.377.203v-7.144s-.078-.016-.141-.031c-.063-.016-.157-.047-.157-.047V11.082c0-.42.298-.763.298-.763 0 .016 0 0 0 0 0-.124-.063-.342-.094-.436a8.702 8.702 0 0 0-.393-.871l-.094-.156c-.251-.405-.691-1.136-.958-1.525-.393-.592-.314-.467-.707-1.043a39.367 39.367 0 0 1-.565-.84c-.205-.312-.487-1.34-.629-1.681-.424.31-1.083.809-1.507 1.12-1.006.732-2.027 1.463-3 2.226A29.845 29.845 0 0 0 3.55 8.7c-.566.514-1.163 1.09-1.68 1.712-.975 1.152-1.744 2.49-1.854 3.985a5.683 5.683 0 0 0 0 .731c.015.265.047.514.11.763.188.95.612 1.774 1.162 2.49.613.81 1.382 1.526 2.167 2.21.142.11.268.234.409.343.927.794 1.869 1.572 2.749 2.412 1.272 1.214 2.434 2.568 3.25 4.234.676 1.572.896 3.284 1.399 4.934z" fill="url(#e)"/><path d="M13.382 10.304c-.99.124-1.649.684-2.042 1.571-.36.794-.55 1.681-1.083 2.397-1.1 1.495-3.959 1.152-4.398 3.207-.644 3.02 3.33 3.657 4.492 5.758.864 1.541.44 3.954 2.073 5.043.251.171.534.28.817.358.11.031.125.031.157.031-.016-.015-.016-18.365-.016-18.365z" fill="#FFF"/><path d="M13.382 28.67c-.047-.016-.094-.016-.157-.032a2.72 2.72 0 0 1-.817-.358c-1.633-1.09-1.209-3.502-2.073-5.043-.267-.482-.707-.902-1.178-1.276-.016-.015-.031-.031-.047-.031-.189.187-.471.482-.927.934-.518.513-.99 1.12-.99 1.12 1.022 1.043 1.917 2.21 2.592 3.596.801 1.743 1.006 3.657 1.618 5.478.22.67.503 1.339.911 1.9.267.357.581.668 1.052.855V28.67h.016z" fill="url(#f)"/><path d="M11.466 6.46c.173.186.393.42.597.622.251.249.471.482.754.747.173.171.392.373.58.545V.125c-.125-.032-.329-.047-.58-.032a5.074 5.074 0 0 0-1.461.296c-.408.156-.817.358-1.147.638a2.153 2.153 0 0 0-.754 1.214c-.11.53-.03 1.168.33 1.93.173.358.44.825.691 1.168.016.015.205.233.315.357.188.25.424.514.675.763z" fill="url(#g)"/></g></svg>