<?xml version="1.0" standalone="no"?>
<!DOCTYPE svg PUBLIC "-//W3C//DTD SVG 1.1//EN" "http://www.w3.org/Graphics/SVG/1.1/DTD/svg11.dtd" >
<svg xmlns="http://www.w3.org/2000/svg">
<metadata>
Copyright   : Copyright 2014 Luc(as) de Groot. All rights reserved. Published by LucasFonts.com
Designer    : Luc(as) de Groot
Foundry     : LucasFonts
Foundry URL : http://lucasfonts.com
</metadata>
<defs>
<font id="TheSansB_600_" horiz-adv-x="1126" >
<font-face units-per-em="2048" ascent="1516" descent="-532" />
<missing-glyph horiz-adv-x="446" />
<glyph unicode=" "  horiz-adv-x="446" />
<glyph unicode="&#x09;" horiz-adv-x="446" />
<glyph unicode="&#xa0;" horiz-adv-x="446" />
<glyph unicode="!" horiz-adv-x="655" d="M485 117q0 -59 -39.5 -98t-99.5 -39q-59 0 -100 38.5t-41 98.5q0 57 41 96t100 39t99 -39t40 -96zM440 362h-186l-37 1082h258z" />
<glyph unicode="&#x22;" horiz-adv-x="784" d="M293 942h-162l-33 494h226zM655 942h-163l-31 494h225z" />
<glyph unicode="#" d="M440 829l-32 -315h282l31 315h-281zM883 829l-31 -315h166v-152h-182l-39 -362h-162l39 362h-283l-37 -362h-164l39 362h-170v152h187l30 315h-167v150h184l37 352h164l-39 -352h282l37 352h162l-37 -352h168v-150h-184z" />
<glyph unicode="$" d="M954 418q0 -68 -23.5 -129.5t-67.5 -110.5t-107.5 -85t-143.5 -50v-217h-159v207q-72 0 -132.5 7t-119.5 19l18 199q59 -20 130 -31.5t130 -11.5q106 0 176 43t70 135q0 61 -42 98t-104.5 65t-136 54.5t-136 67.5t-104.5 103.5t-42 164.5q0 66 23.5 125t65.5 105.5 t102.5 78t133.5 43.5v197h160v-186q57 -2 112.5 -8.5t102.5 -16.5l-20 -188q-59 18 -116.5 26t-111.5 8q-63 0 -107 -13t-70.5 -35.5t-39 -51.5t-12.5 -59q0 -57 42 -94t105.5 -65t138 -56.5t138 -70.5t105.5 -105.5t42 -161.5z" />
<glyph unicode="%" horiz-adv-x="1546" d="M522 1081q0 96 -32.5 139.5t-100.5 43.5q-57 0 -94 -48.5t-37 -130.5q0 -98 34 -142t101 -44q55 0 92 48t37 134zM1288 301q0 98 -31.5 140t-101.5 42q-57 0 -94 -47t-37 -131q0 -98 34 -141t101 -43q55 0 92 48t37 132zM692 1094q0 -74 -22.5 -136.5t-64.5 -106.5 t-99 -68.5t-127 -24.5q-147 0 -220 85t-73 232q0 72 22.5 132.5t63.5 104.5t98.5 68.5t126.5 24.5q143 0 219 -78.5t76 -232.5zM330 -43l-142 98l1022 1368l140 -100zM1460 313q0 -74 -23.5 -135t-64.5 -105t-99.5 -68.5t-125.5 -24.5q-150 0 -222.5 83.5t-72.5 231.5 q0 72 23.5 132t64.5 104t98.5 69t126.5 25q141 0 218 -79t77 -233z" />
<glyph unicode="&#x26;" horiz-adv-x="1630" d="M942 289q-59 47 -119.5 99t-117 105.5t-107.5 103.5t-90 91q-94 -78 -135 -143.5t-41 -134.5q0 -49 18.5 -93.5t53 -78t85 -53t111.5 -19.5q111 0 196 36t146 87zM709 1202q0 59 -35 100t-111 41q-66 0 -107.5 -39.5t-41.5 -105.5q0 -47 29.5 -106.5t105.5 -145.5 q78 66 119 125t41 131zM1384 -43q-72 49 -149.5 106.5t-134.5 104.5q-100 -82 -235.5 -135t-301.5 -53q-115 0 -201 31.5t-143 86t-85 127t-28 156.5q0 68 19.5 127t56.5 111.5t87 101.5t112 96q-51 59 -86 108.5t-56.5 92.5t-31.5 84t-10 84q0 66 25.5 124t73.5 103 t119.5 70.5t164.5 25.5q168 0 256 -79.5t88 -208.5q0 -104 -58.5 -199.5t-191.5 -200.5q41 -41 91 -89t104.5 -97t110.5 -97.5t112 -91.5v-2q66 94 101.5 218t29.5 264h217q4 -168 -44 -322.5t-143 -277.5q72 -57 146 -110.5t129 -90.5z" />
<glyph unicode="'" horiz-adv-x="423" d="M293 942h-162l-33 494h226z" />
<glyph unicode="(" horiz-adv-x="622" d="M428 -432q-88 139 -146.5 271t-92 258t-48 247t-14.5 238t15.5 240.5t50 252.5t93 262t144.5 269l158 -76q-121 -211 -183.5 -448.5t-62.5 -489.5q0 -262 61.5 -496.5t190.5 -451.5z" />
<glyph unicode=")" horiz-adv-x="622" d="M504 590q0 -117 -15.5 -240t-50.5 -252t-93 -262t-144 -268l-158 74q123 211 185.5 448.5t62.5 489.5q0 520 -250 948l166 78q88 -139 145.5 -271.5t91 -258.5t47 -247.5t13.5 -238.5z" />
<glyph unicode="*" horiz-adv-x="774" d="M614 954l-180 138l29 -226h-160l27 226l-180 -138l-78 138l209 88l-209 88l80 137l180 -135l-29 225h160l-27 -225l180 135l78 -135l-209 -88l209 -88z" />
<glyph unicode="+" d="M666 518v-399h-207v399h-375v182h375v398h207v-398h376v-182h-376z" />
<glyph unicode="," horiz-adv-x="493" d="M244 264q63 0 104 -50t40 -133t-57.5 -190.5t-185.5 -224.5l-92 82q51 55 79 100.5t36 82t1 66.5t-28 54q-25 31 -28.5 68t10.5 69.5t45 54t76 21.5z" />
<glyph unicode="-" horiz-adv-x="679" d="M94 492v176h492v-176h-492z" />
<glyph unicode="&#xad;" horiz-adv-x="679" d="M94 492v176h492v-176h-492z" />
<glyph unicode="." horiz-adv-x="495" d="M393 125q0 -59 -43 -102t-102 -43t-102.5 43t-43.5 102t43 102t103 43q59 0 102 -43t43 -102z" />
<glyph unicode="/" horiz-adv-x="919" d="M207 -330h-215l719 1880h213z" />
<glyph unicode="0" d="M803 668q0 145 -14.5 241.5t-45 153.5t-75.5 80.5t-107 23.5q-51 0 -95 -23.5t-76 -80.5t-50 -150.5t-18 -230.5q0 -141 12 -239.5t40.5 -160t75 -89t111.5 -27.5q113 0 177.5 118t64.5 384zM1038 678q0 -188 -41 -320.5t-108.5 -216.5t-155.5 -122.5t-182 -38.5 q-111 0 -197 34.5t-146.5 115.5t-91 213t-30.5 329q0 174 36 302t101.5 212t154.5 125t197 41q104 0 190.5 -34t147 -112t93 -208t32.5 -320z" />
<glyph unicode="1" d="M145 0v197h347v909l-314 -123l-37 207l406 141h172v-1134h303v-197h-877z" />
<glyph unicode="2" d="M113 0v178l252 246q111 109 178 184.5t105 131t50.5 98.5t12.5 88q0 98 -63.5 162.5t-182.5 64.5q-88 0 -165 -29.5t-128 -68.5l-49 192q78 45 175 75t210 30t195.5 -32t138 -86t82 -124t26.5 -145q0 -66 -14 -126.5t-51 -126t-101.5 -139t-162.5 -167.5l-209 -197v-4 q68 4 170 5t231 1h186v-211h-886z" />
<glyph unicode="3" d="M979 414q0 -102 -41 -182t-115.5 -136.5t-181 -86t-235.5 -29.5q-72 0 -140.5 8t-118.5 24l23 191q57 -18 119.5 -28.5t134.5 -10.5q160 0 239.5 62.5t79.5 162.5q0 98 -77.5 156.5t-237.5 58.5q-55 0 -102 -3t-101 -7v172h51q205 0 323 54t118 171q0 84 -62.5 132 t-175.5 48q-86 0 -157.5 -20.5t-133.5 -50.5l-20 186q74 29 161 47.5t191 18.5q106 0 187 -24.5t133.5 -67.5t79 -101.5t26.5 -128.5q0 -117 -63.5 -194.5t-180.5 -112.5l-2 -4q61 -6 112.5 -33t88.5 -67.5t57.5 -93t20.5 -111.5z" />
<glyph unicode="4" d="M666 1112h-2l-400 -620q41 2 98.5 3t114.5 1h109h80v616zM879 299v-299h-217v299h-601l-18 180l539 852h297v-835h204v-197h-204z" />
<glyph unicode="5" d="M985 440q0 -104 -41 -189t-115.5 -145.5t-179 -93t-231.5 -32.5q-135 0 -250 26v201q59 -18 123.5 -28.5t142.5 -10.5q152 0 231.5 66.5t79.5 181.5q0 113 -88 170t-237 57q-66 0 -126.5 -4t-100.5 -12v704h739v-207h-533v-309q37 2 56.5 2h40.5q119 0 211 -28.5 t153.5 -79t93 -120t31.5 -149.5z" />
<glyph unicode="6" d="M821 418q0 111 -60.5 177.5t-182.5 66.5q-59 0 -104.5 -20.5t-77 -54.5t-48 -75t-16.5 -80q0 -57 16.5 -107.5t48 -87t78.5 -58t111 -21.5q113 0 174 72.5t61 187.5zM1042 453q0 -109 -33.5 -196t-95 -148.5t-148.5 -95t-194 -33.5q-223 0 -349 144t-126 425 q0 207 50.5 358.5t140.5 249.5t217 145.5t280 47.5q35 0 71 -1t65 -6v-190q-35 6 -71 9t-79 3q-190 0 -294.5 -101t-145.5 -284q-4 -16 -8.5 -38.5t-8.5 -53.5h2q49 74 130 114t184 40q100 0 178 -31t130 -83t78.5 -123.5t26.5 -151.5z" />
<glyph unicode="7" d="M1018 1143q-74 -139 -144.5 -287.5t-133 -296t-116 -290t-94.5 -269.5h-251q47 137 104 282.5t119.5 291t128 285.5t133.5 263q-20 0 -72.5 -1t-120 -2t-142.5 -2t-142 -1h-178v215h909v-188v0z" />
<glyph unicode="8" d="M799 332q0 49 -20.5 86t-55.5 66.5t-81 53t-97 46.5q-43 -25 -83 -50.5t-70 -55t-48 -64.5t-18 -78q0 -78 62.5 -129t180.5 -51q98 0 164 46t66 130zM772 1006q0 80 -56.5 127t-156.5 47q-98 0 -151.5 -50.5t-53.5 -119.5q0 -39 13.5 -69t41 -56.5t68.5 -51t96 -51.5 q82 47 140.5 98.5t58.5 125.5zM1028 352q0 -88 -38 -157.5t-102.5 -116.5t-151.5 -72.5t-185 -25.5q-209 0 -331 91t-122 248q0 61 21.5 111.5t58.5 93.5t85 78t102 66q-109 59 -171.5 132.5t-62.5 190.5q0 80 33 145.5t91 113.5t140 75t180 27t177 -24.5t132.5 -67.5 t82 -103.5t28.5 -132.5q0 -55 -19.5 -102.5t-52 -86t-75.5 -71.5t-90 -64q51 -29 100 -60.5t87 -72.5t60.5 -94t22.5 -121z" />
<glyph unicode="9" d="M786 901q0 119 -63.5 196t-185.5 77q-55 0 -98.5 -19.5t-74 -54.5t-46 -82t-15.5 -100q0 -117 61.5 -183.5t174.5 -66.5q59 0 105 18.5t78 51t48 74.5t16 89zM1024 782q0 -211 -50 -362.5t-141.5 -248.5t-218.5 -143t-278 -46q-41 0 -86 2t-88 12v194q96 -23 192 -22 q184 0 287.5 91t138.5 271q4 27 9.5 46.5t9.5 44.5h-2q-47 -63 -125 -99.5t-178 -36.5t-177 31t-129.5 84t-79 126t-26.5 159q0 106 35 193t97 147.5t149.5 93.5t189.5 33q106 0 193.5 -34t148.5 -103.5t95 -177.5t34 -255z" />
<glyph unicode=":" horiz-adv-x="598" d="M471 125q0 -59 -43 -102t-102 -43t-102.5 43t-43.5 102t43 102t103 43q59 0 102 -43t43 -102zM471 715q0 -59 -43 -102.5t-102 -43.5t-102.5 43t-43.5 103q0 59 43 102t103 43q59 0 102 -43t43 -102z" />
<glyph unicode=";" horiz-adv-x="598" d="M326 264q63 0 104 -50t39 -133t-57.5 -190.5t-184.5 -224.5l-92 82q51 55 79 100.5t36 82t0 66.5t-29 54q-25 31 -28 68t11.5 69.5t45.5 54t76 21.5zM471 715q0 -59 -43 -102.5t-102 -43.5t-102.5 43t-43.5 103q0 59 43 102t103 43q59 0 102 -43t43 -102z" />
<glyph unicode="&#x3c;" d="M791 27l-652 591l649 590l142 -143l-510 -444l512 -445z" />
<glyph unicode="=" d="M113 336v178h901v-178h-901zM113 702v179h901v-179h-901z" />
<glyph unicode="&#x3e;" d="M338 27l-141 143l510 446l-512 443l141 149l651 -590z" />
<glyph unicode="?" horiz-adv-x="917" d="M532 117q0 -59 -39.5 -98t-99.5 -39q-59 0 -99 38.5t-40 98.5q0 57 40 96t99 39t99 -39t40 -96zM807 1055q0 -86 -29.5 -145.5t-74 -107.5t-91.5 -89t-80.5 -89.5t-47 -110.5t13.5 -151h-213q-33 98 -25 171t39 128.5t77 98.5t88 84t71.5 85t29.5 101q0 98 -108.5 160.5 t-300.5 71.5l28 198q154 -4 270.5 -40t195.5 -91t118 -126.5t39 -147.5z" />
<glyph unicode="@" horiz-adv-x="1996" d="M1133 934q-41 14 -107 14q-61 0 -107.5 -35.5t-77 -90t-45 -118t-14.5 -118.5q0 -145 78 -146q68 0 140.5 95.5t113.5 300.5l19 98v0zM1806 838q0 -139 -35.5 -247t-100 -180.5t-151.5 -109.5t-190 -37q-59 0 -102 17.5t-68.5 47t-37 67.5t-7.5 81h-6q-14 -33 -43 -69.5 t-68 -68.5t-87 -53.5t-101 -21.5q-98 0 -150.5 72t-52.5 213q0 113 29 213t87 175t146 118t207 43q72 0 138.5 -10.5t113.5 -24.5l-76 -422q-20 -109 7.5 -155t99.5 -46q106 0 179 95.5t73 291.5q0 94 -30 184.5t-95.5 161t-171 113.5t-254.5 43q-143 0 -268 -53 t-218.5 -149.5t-147.5 -230.5t-54 -296q0 -137 37.5 -246.5t114.5 -186.5t190.5 -118t267.5 -41q90 0 177 14.5t173 40.5l33 -172q-98 -33 -207.5 -48t-202.5 -15q-188 0 -334.5 52t-247 149.5t-151.5 235.5t-51 310q0 203 70.5 374t193.5 294t288 192.5t351 69.5 q184 0 321.5 -53t229.5 -145.5t137 -213t45 -255.5z" />
<glyph unicode="A" horiz-adv-x="1269" d="M682 952q-16 51 -31.5 97.5t-25.5 91.5h-4q-20 -86 -56 -187l-166 -471h449zM1010 0l-105 305h-561l-106 -305h-226l492 1382h256l497 -1382h-247z" />
<glyph unicode="B" horiz-adv-x="1175" d="M844 414q0 59 -25.5 100t-72 66.5t-111 37t-137.5 11.5q-45 0 -115 -2v-443q57 -8 164 -10q154 2 225.5 68t71.5 172zM805 1018q0 43 -12.5 76.5t-42 61.5t-79.5 42t-120 14q-92 0 -168 -4v-411q57 -2 119 -2q154 0 228.5 58.5t74.5 164.5zM1081 418q0 -68 -25.5 -142.5 t-87 -137t-170 -103.5t-263.5 -41q-176 2 -375 6v1382q82 2 192.5 4.5t235.5 2.5q221 0 336.5 -88.5t115.5 -247.5q0 -106 -58 -190.5t-167 -125.5v-4q129 -25 197.5 -112.5t68.5 -202.5z" />
<glyph unicode="C" horiz-adv-x="1179" d="M1092 53q-78 -33 -174.5 -51t-196.5 -18q-174 0 -295 52t-195.5 143t-108.5 213t-34 261q0 162 41 298t126 234.5t213 154t302 55.5q78 0 157 -10.5t150 -32.5l-33 -205q-143 51 -292 51q-109 0 -188 -39t-131 -107.5t-76.5 -161.5t-24.5 -200q0 -242 105.5 -374 t332.5 -132q72 0 148.5 18.5t136.5 47.5l37 -197v0z" />
<glyph unicode="D" horiz-adv-x="1378" d="M1055 694q0 256 -120 383t-364 127q-51 0 -91 -1t-97 -3v-1007q35 -4 80 -7.5t86 -3.5q111 0 204 30t160.5 93.5t104.5 159.5t37 229zM1292 711q0 -178 -56 -312.5t-157.5 -225.5t-243 -136t-309.5 -45q-88 0 -159.5 2t-206.5 6v1380q86 2 210 5.5t218 3.5q164 0 294 -39 t221 -121t140 -210t49 -308z" />
<glyph unicode="E" horiz-adv-x="1019" d="M160 0v1382h729v-186h-506v-393h481v-182h-481v-431h506v-190h-729z" />
<glyph unicode="F" horiz-adv-x="956" d="M383 1194v-406h471v-182h-471v-606h-223v1382h721v-188h-498z" />
<glyph unicode="G" horiz-adv-x="1390" d="M1237 63q-104 -41 -224 -62t-239 -21q-160 0 -292 47t-222 134t-134 214t-44 282q0 164 49 300.5t141.5 234.5t239.5 153.5t324 55.5q104 0 202.5 -15.5t184.5 -42.5l-47 -204q-82 33 -170 50t-187 17q-104 0 -200.5 -33.5t-161 -99t-100 -163t-35.5 -226.5 q0 -242 128 -374t351 -132q59 0 112.5 8.5t100.5 24.5v502h223v-650v0z" />
<glyph unicode="H" horiz-adv-x="1419" d="M1036 0v621h-653v-621h-223v1382h223v-571h653v571h221v-1382h-221z" />
<glyph unicode="I" horiz-adv-x="544" d="M160 0v1382h223v-1382h-223z" />
<glyph unicode="J" horiz-adv-x="679" d="M520 373q0 -86 -18.5 -158t-60.5 -123t-110.5 -79.5t-168.5 -28.5q-49 0 -88 5t-72 11v195q27 -10 61.5 -16.5t71.5 -6.5q39 0 70 9t51 33t30.5 64.5t10.5 104.5v999h223v-1009v0z" />
<glyph unicode="K" horiz-adv-x="1208" d="M885 0l-502 676v-676h-223v1382h223v-641l504 641h274l-549 -667l570 -715h-297z" />
<glyph unicode="L" horiz-adv-x="874" d="M160 0v1382h223v-1187h475v-195h-698z" />
<glyph unicode="M" horiz-adv-x="1814" d="M1499 0l-110 741q-16 115 -25.5 198t-17.5 151h-5q-12 -59 -28.5 -126t-44.5 -159l-264 -805h-226l-250 752q-57 182 -90 338h-2q-6 -84 -16 -178.5t-23 -190.5l-88 -721h-225l207 1382h266l266 -802q18 -59 39 -132t39 -151h2q20 80 37.5 142.5t40.5 131.5l270 811h269 l211 -1382h-232z" />
<glyph unicode="N" horiz-adv-x="1441" d="M985 0l-489 831q-25 43 -64 121t-72 148q2 -51 6.5 -134t5.5 -167t1 -177.5t4 -240.5v-381h-217v1382h293l483 -813q55 -96 80.5 -148t62.5 -132q-4 59 -6 141t-4 181.5t-3 192.5t-1 228l-2 350h217v-1382h-295z" />
<glyph unicode="O" horiz-adv-x="1441" d="M1126 686q0 252 -105.5 386t-299.5 134q-80 0 -153.5 -31.5t-129 -95t-89.5 -158t-34 -219.5q0 -117 25 -214t74 -165.5t124.5 -106.5t178.5 -38q76 0 149.5 31t132 94.5t93 158.5t34.5 224zM1364 709q0 -172 -52 -307.5t-142.5 -229.5t-211 -143t-258.5 -49 q-158 0 -274.5 49t-194 140t-115.5 219t-38 288q0 172 52 307t142 228.5t211 142.5t258 49q139 0 254 -43t197 -130t127 -217t45 -304z" />
<glyph unicode="P" horiz-adv-x="1089" d="M801 950q0 123 -71 189.5t-224 66.5q-57 0 -123 -2v-510q23 -4 59.5 -7t71.5 -3q145 2 216 72.5t71 193.5zM1032 975q0 -100 -39 -194.5t-109.5 -156t-168 -94t-217.5 -32.5q-68 0 -115 6v-504h-223v1382q86 4 172 6.5t192 2.5q248 0 378 -110.5t130 -305.5z" />
<glyph unicode="Q" horiz-adv-x="1439" d="M1440 -137q-88 -12 -152.5 -8t-117 17t-97.5 31.5t-91 35t-100.5 29t-125.5 12.5h-56q-158 0 -274.5 49t-194 140t-115.5 219t-38 288q0 172 52 307t142 228.5t211 142.5t258 49q139 0 254 -43t197 -130t127 -217t45 -304q0 -137 -35 -247t-88 -190q-31 -47 -84 -93 t-106 -70q47 0 88 -11.5t85 -23t95 -18.5t121 1v-194v0zM1126 686q0 252 -105.5 386t-299.5 134q-80 0 -153.5 -31.5t-129 -95t-89.5 -158t-34 -219.5q0 -117 25 -214t74 -165.5t124.5 -106.5t178.5 -38q76 0 149.5 31t132 94.5t93 158.5t34.5 224z" />
<glyph unicode="R" horiz-adv-x="1144" d="M780 991q0 115 -69.5 166t-210.5 51q-33 0 -62.5 -1t-54.5 -3v-438q16 -2 44 -3t65 -1q135 0 211.5 62.5t76.5 166.5zM823 0l-415 598h-25v-598h-223v1382q76 4 165 6.5t205 2.5q106 0 195.5 -20.5t154 -64.5t99.5 -116t35 -174q0 -84 -30 -150.5t-81 -117t-119.5 -81 t-146.5 -38.5q29 -37 59.5 -75t55.5 -73l352 -481h-281z" />
<glyph unicode="S" horiz-adv-x="1030" d="M942 414q0 -94 -37 -174t-105.5 -137.5t-164.5 -90t-213 -32.5q-90 0 -168 10t-143 28l24 213q68 -27 142.5 -42t152.5 -15q55 0 104.5 11.5t86 37t58 65.5t21.5 97q0 72 -45 115t-112.5 74.5t-145.5 59.5t-145.5 72t-112.5 112.5t-45 180.5q0 88 33 163t97.5 128 t156.5 83t213 30q59 0 125.5 -7t124.5 -20l-23 -196q-55 18 -115.5 28.5t-121.5 10.5q-131 0 -192.5 -53.5t-61.5 -139.5q0 -70 45 -112t113.5 -73.5t147.5 -61t147.5 -75t113.5 -113.5t45 -177z" />
<glyph unicode="T" horiz-adv-x="1052" d="M637 1194v-1194h-223v1194h-379v188h983v-188h-381z" />
<glyph unicode="U" horiz-adv-x="1406" d="M1247 532q0 -279 -143 -415.5t-418 -136.5q-164 0 -266.5 40.5t-159.5 109.5t-78.5 157t-21.5 184v911h223v-895q0 -70 13.5 -129t49 -102t97 -67.5t157.5 -24.5q84 0 146.5 18.5t102.5 60.5t59.5 109.5t19.5 163.5v866h219v-850v0z" />
<glyph unicode="V" horiz-adv-x="1273" d="M760 0h-254l-492 1382h246l291 -852q23 -59 45 -133.5t41 -142.5h2q18 70 42 144.5t50 146.5l297 837h229z" />
<glyph unicode="W" horiz-adv-x="1949" d="M1530 0h-275l-235 854q-18 63 -30.5 129t-22.5 131h-2q-14 -125 -50 -256l-233 -858h-262l-359 1382h238l213 -839q18 -70 30.5 -136.5t22.5 -136.5h2q10 68 23.5 133.5t32.5 128.5l235 850h244l241 -852q16 -55 31 -121.5t25 -132.5h2q10 66 21.5 125.5t27.5 116.5 l215 864h223z" />
<glyph unicode="X" horiz-adv-x="1253" d="M944 0l-328 543l-325 -543h-262l448 711l-422 671h258l308 -505l303 505h252l-414 -667l463 -715h-281z" />
<glyph unicode="Y" horiz-adv-x="1122" d="M668 494v-494h-224v494l-432 888h244l205 -436q55 -123 98 -233h4q23 61 52.5 126.5t62.5 131.5l194 411h236z" />
<glyph unicode="Z" horiz-adv-x="1101" d="M92 0v170l545 866q25 41 49.5 77t52.5 73q-45 -2 -110 -2h-170h-346v198h891v-176l-574 -895q-16 -29 -33.5 -55.5t-38.5 -54.5q29 4 109 4h215h330v-205h-920z" />
<glyph unicode="[" horiz-adv-x="663" d="M162 -412v1997h426v-172h-221v-1651h221v-174h-426z" />
<glyph unicode="\" horiz-adv-x="940" d="M735 -330l-717 1880h213l719 -1880h-215z" />
<glyph unicode="]" horiz-adv-x="663" d="M76 -412v174h221v1651h-221v172h426v-1997h-426z" />
<glyph unicode="^" d="M825 696l-284 527l-271 -527l-147 78l338 608h172l352 -604z" />
<glyph unicode="_" d="M0 -508v176h1126v-176h-1126z" />
<glyph unicode="`" horiz-adv-x="759" d="M489 1159l-335 227l110 146l314 -256z" />
<glyph unicode="a" horiz-adv-x="1071" d="M688 467q-115 0 -186.5 -13.5t-116.5 -38t-64.5 -57t-19.5 -69.5q0 -59 39 -98t100 -39q53 0 99.5 24.5t79 65.5t51 92t18.5 106v27zM702 0q0 49 2.5 98t8.5 90l-2 2q-37 -92 -128 -151t-210 -59q-129 0 -207 78.5t-78 203.5q0 170 160 261t440 91v43q0 111 -45 161 t-156 50q-72 0 -154.5 -20.5t-152.5 -50.5l-39 170q82 33 180.5 52t196.5 19q111 0 183.5 -23.5t118.5 -67.5t66.5 -109.5t20.5 -155.5v-403q0 -66 1 -136.5t5 -142.5h-211z" />
<glyph unicode="b" horiz-adv-x="1142" d="M831 539q0 154 -48 235.5t-152 81.5q-61 0 -108.5 -32.5t-79 -84t-48 -117t-16.5 -128.5v-316q63 -20 160 -20q66 0 120 20.5t91.5 66.5t59 119t21.5 175zM1063 559q0 -133 -37 -238.5t-106.5 -181.5t-170 -115.5t-227.5 -39.5q-109 0 -193.5 10t-168.5 33v1468h219v-469 q0 -45 -4 -99.5t-15 -95.5h5q41 96 125.5 151.5t197.5 55.5q182 0 278.5 -124t96.5 -355z" />
<glyph unicode="c" horiz-adv-x="882" d="M825 35q-63 -27 -140 -39t-155 -12q-98 0 -181 25.5t-143.5 84t-94 152.5t-33.5 229q0 121 30.5 223.5t94 177t159 116.5t222.5 42q66 0 126 -9t111 -30l-37 -186q-47 18 -101 30.5t-112 12.5q-129 0 -196.5 -97.5t-67.5 -254.5q0 -70 13.5 -130.5t44 -104.5t82 -68.5 t126.5 -24.5q59 0 115.5 11.5t104.5 33.5l32 -182v0z" />
<glyph unicode="d" horiz-adv-x="1140" d="M764 842q-84 18 -162 18q-131 0 -212 -88t-81 -293q0 -154 49.5 -236.5t153.5 -82.5q61 0 107.5 32.5t79 85t49 118t16.5 130.5v316zM774 0q0 41 3 94t11 96h-4q-41 -94 -127 -152t-204 -58q-188 0 -281.5 129t-93.5 350q0 131 37 237.5t105.5 181t167.5 115.5t222 41 q37 0 75 -2t79 -6v469h217v-1495h-207z" />
<glyph unicode="e" horiz-adv-x="1046" d="M739 635q2 117 -54 178t-150 61q-90 0 -153 -62t-77 -177h434v0zM958 614q0 -66 -8 -131h-647q-4 -166 68.5 -246.5t232.5 -80.5q74 0 148.5 15t144.5 44l29 -170q-88 -33 -176 -49t-185 -16q-236 0 -360.5 125.5t-126.5 396.5q0 115 31.5 212t90 168.5t147.5 113.5 t200 42q104 0 182 -31.5t129 -90t75.5 -135.5t24.5 -167z" />
<glyph unicode="f" horiz-adv-x="720" d="M758 1311q-35 10 -70 15t-70 5q-98 0 -144 -55t-46 -176v-82h264v-170h-264v-848h-217v848h-195v170h195v78q0 414 397 413q86 0 166 -18z" />
<glyph unicode="g" horiz-adv-x="1112" d="M838 -154q0 66 -45 107t-144 45l-186 6l-53 2q-55 -39 -86 -84t-31 -98q0 -82 69.5 -128t180.5 -46q143 0 219 56t76 140zM748 672q0 94 -54.5 149.5t-156.5 55.5q-104 0 -161 -58.5t-57 -146.5q0 -96 54.5 -149.5t158.5 -53.5q100 0 158 53.5t58 149.5zM1055 -123 q0 -82 -39 -154.5t-112 -126t-173 -85t-223 -31.5q-201 0 -316.5 77.5t-115.5 227.5q0 84 50 154.5t116 107.5q-47 20 -74 60t-27 94q0 55 32 103t85 73q-72 41 -112 109.5t-40 168.5q0 76 29 145.5t84 123t137 84t191 30.5q45 0 78.5 -5t74.5 -15h347v-172h-156 q68 -57 67 -162q0 -80 -26.5 -147.5t-80.5 -116.5t-135 -77t-190 -28q-29 0 -50 3.5t-46 9.5q-29 -14 -44 -35t-15 -41q0 -41 37.5 -55.5t130.5 -18.5l172 -6q166 -6 255 -80t89 -215z" />
<glyph unicode="h" horiz-adv-x="1173" d="M797 0v653q0 96 -32 149.5t-120 53.5q-57 0 -106.5 -28.5t-84 -78t-55 -117t-20.5 -143.5v-489h-219v1495h219v-463q0 -47 -4 -104.5t-15 -100.5l5 -2q45 98 133 155.5t213 57.5q86 0 144 -25.5t94 -70.5t50.5 -103.5t14.5 -125.5v-713h-217z" />
<glyph unicode="i" horiz-adv-x="538" d="M160 0v1018h219v-1018h-219zM410 1335q0 -57 -41 -97t-99 -40q-59 0 -100 39t-41 98q0 57 41 97.5t100 40.5q57 0 98.5 -40.5t41.5 -97.5z" />
<glyph unicode="j" horiz-adv-x="548" d="M389 -96q0 -102 -18.5 -180t-61.5 -131.5t-114.5 -80t-176.5 -26.5q-35 0 -72.5 4t-68.5 14l14 189q61 -23 127 -23q88 0 121 46t33 167v1135h217v-1114v0zM420 1335q0 -57 -40 -97t-99 -40t-100.5 39t-41.5 98q0 57 41 97.5t101 40.5q59 0 99 -40.5t40 -97.5z" />
<glyph unicode="k" horiz-adv-x="1036" d="M727 0l-348 516v-516h-219v1495h219v-913l330 436h268l-377 -465l406 -553h-279z" />
<glyph unicode="l" horiz-adv-x="538" d="M160 0v1495h219v-1495h-219z" />
<glyph unicode="m" horiz-adv-x="1787" d="M1411 0v649q0 94 -29.5 150.5t-117.5 56.5q-49 0 -96.5 -26.5t-84 -74.5t-59.5 -117t-23 -153v-485h-215v649q0 43 -6 81t-21.5 65.5t-45 44t-74.5 16.5q-53 0 -100 -27.5t-82 -77t-56.5 -118t-21.5 -148.5v-485h-219v1018h209q0 -41 -3.5 -97.5t-11.5 -103.5l4 -2 q45 102 135.5 162.5t208.5 60.5q76 0 127.5 -21.5t84 -54t49 -71.5t22.5 -72q16 37 45 75t72 70.5t98 53t125 20.5q147 0 225 -80.5t78 -255.5v-702h-217z" />
<glyph unicode="n" horiz-adv-x="1173" d="M797 0v653q0 96 -32 149.5t-120 53.5q-57 0 -106.5 -28.5t-84 -78t-55 -117t-20.5 -143.5v-489h-219v1018h209q0 -41 -3.5 -99.5t-11.5 -101.5h2q45 98 135.5 159.5t219.5 61.5q86 0 144 -25.5t94 -70.5t50.5 -103.5t14.5 -125.5v-713h-217z" />
<glyph unicode="o" horiz-adv-x="1124" d="M823 514q0 164 -63.5 252t-194.5 88q-49 0 -96 -19.5t-84 -60.5t-59.5 -104.5t-22.5 -151.5q0 -174 65.5 -262t194.5 -88q53 0 100.5 20.5t83 63.5t56 108.5t20.5 153.5zM1049 528q0 -117 -37 -217t-103.5 -174t-160 -115.5t-205.5 -41.5q-106 0 -192.5 30.5t-148 93 t-94 159.5t-32.5 233q0 115 35.5 214t102.5 171.5t160 114.5t210 42q102 0 187 -29.5t146.5 -91t96.5 -158t35 -231.5z" />
<glyph unicode="p" horiz-adv-x="1142" d="M831 539q0 154 -48 236.5t-152 82.5q-61 0 -108.5 -32.5t-79 -85t-48 -118t-16.5 -130.5v-314q68 -20 160 -20q66 0 120 20.5t91.5 66.5t59 119t21.5 175zM1063 559q0 -270 -137.5 -421.5t-393.5 -151.5q-43 0 -77.5 2t-75.5 10v-498h-219v1518h207q0 -41 -2.5 -95.5 t-10.5 -95.5h4q43 98 128 154.5t202 56.5q182 0 278.5 -124t96.5 -355z" />
<glyph unicode="q" horiz-adv-x="1142" d="M766 844q-80 18 -162 18q-131 0 -212 -89t-81 -294q0 -154 48.5 -236.5t152.5 -82.5q61 0 108.5 32.5t80 86t49 119t16.5 132.5v314zM766 -500v498q0 39 2 90t12 98l-4 2q-41 -98 -125 -153t-192 -55q-182 0 -279.5 119.5t-97.5 357.5q0 131 37 238.5t106.5 182 t171 115.5t230.5 41q98 0 187 -7t169 -21v-1506h-217z" />
<glyph unicode="r" horiz-adv-x="727" d="M680 821q-154 29 -227.5 -74.5t-73.5 -332.5v-414h-219v1018h209q0 -43 -5.5 -104.5t-15.5 -120.5h4q16 51 45 98t70 82t96 53t127 10z" />
<glyph unicode="s" horiz-adv-x="862" d="M770 311q0 -72 -30.5 -133t-87 -105t-138.5 -68.5t-182 -24.5q-59 0 -118.5 7t-107.5 21l17 187q47 -18 105.5 -28.5t117.5 -10.5q86 0 140.5 35.5t54.5 97.5q0 51 -33 79.5t-83 47t-107.5 36t-107.5 48t-83 83t-33 140.5q0 68 25.5 125t77 99t130.5 66.5t183 24.5 q47 0 97 -5t95 -15l-12 -176q-92 29 -192 28q-92 0 -135.5 -33.5t-43.5 -93.5q0 -49 34 -77.5t83 -48t108.5 -38t108.5 -49t83 -82t34 -137.5z" />
<glyph unicode="t" horiz-adv-x="763" d="M698 6q-47 -10 -104 -17t-109 -7q-82 0 -136 16t-87 53t-46 96.5t-13 145.5v555h-195v170h195v323l219 60v-383h266v-170h-266v-488q0 -57 6 -94t21.5 -58.5t41 -30.5t64.5 -9q35 0 65.5 4t59.5 10l18 -176v0z" />
<glyph unicode="u" horiz-adv-x="1173" d="M805 0q0 41 3 99.5t11 101.5h-2q-45 -98 -135 -159.5t-219 -61.5q-86 0 -144.5 25.5t-94.5 70.5t-50 103.5t-14 125.5v713h217v-653q0 -96 31.5 -149.5t119.5 -53.5q57 0 106.5 28.5t84.5 77.5t55.5 116t20.5 144v490h219v-1018h-209z" />
<glyph unicode="v" horiz-adv-x="1013" d="M633 0h-258l-359 1018h21h217l192 -565q39 -123 64 -226h2q12 53 27.5 111.5t31.5 112.5l193 567h213h20z" />
<glyph unicode="w" horiz-adv-x="1626" d="M1274 0h-242l-176 532q-16 51 -30.5 103.5t-28.5 112.5h-2q-16 -68 -33 -129.5t-37 -126.5l-154 -492h-231l-313 1018h24h215l135 -473q20 -72 40 -143.5t36 -141.5h2q16 76 33.5 144.5t38.5 134.5l151 479h222l153 -471q29 -92 46.5 -156.5t33.5 -130.5h2 q16 72 32.5 136.5t39.5 140.5l141 481h203h24z" />
<glyph unicode="x" horiz-adv-x="1071" d="M758 0l-230 369l-231 -369h-264l364 512l-344 506h264l228 -363l231 363h244l-336 -502l352 -516h-278z" />
<glyph unicode="y" horiz-adv-x="1003" d="M580 -72q-47 -127 -98.5 -213t-110 -137t-129 -72.5t-156.5 -21.5q-29 0 -65.5 4t-63.5 8l25 191q27 -8 60.5 -12.5t63.5 -4.5q37 0 71 10.5t66.5 36t62.5 70.5t54 113l37 100l-381 1018h25h221l166 -465q25 -68 44.5 -134.5t35.5 -131.5h2q16 61 44 150t56 167l146 414 h211h24z" />
<glyph unicode="z" horiz-adv-x="919" d="M96 0v156l453 669q-39 -2 -103.5 -3t-142.5 -1h-197v197h703v-154l-447 -667q55 2 100.5 3t88.5 1h266v-201h-721z" />
<glyph unicode="{" horiz-adv-x="716" d="M612 -412q-186 0 -265 103.5t-79 320.5v322q0 125 -49 173t-162 54v168q57 2 97.5 13.5t66 36t36.5 66.5t11 105v213q0 98 17.5 176t58.5 133.5t106.5 84t161.5 28.5h39v-172q-51 0 -86 -11t-55.5 -39t-29.5 -75t-9 -121v-211q0 -147 -48 -219.5t-140 -89.5v-2 q90 -14 139 -92t49 -225v-320q0 -74 9 -121t29.5 -74.5t55.5 -39t86 -11.5v-174h-39z" />
<glyph unicode="|" horiz-adv-x="585" d="M203 -500v2048h174v-2048h-174z" />
<glyph unicode="}" horiz-adv-x="712" d="M670 561q-111 -6 -161 -54t-50 -173v-322q0 -217 -79 -320.5t-265 -103.5h-39v174q51 0 86 11.5t55.5 39t29.5 74.5t9 121v320q0 147 49 225t139 92v2q-92 12 -140 86t-48 217v217q0 74 -9 121t-29.5 75t-55.5 39t-86 11v172h39q96 0 161.5 -28.5t106.5 -84t58.5 -133 t17.5 -176.5v-207q0 -66 11 -108.5t36.5 -68t65.5 -37t98 -13.5v-168v0z" />
<glyph unicode="~" d="M1028 1157q0 -141 -77 -227t-212 -86q-86 0 -135 34.5t-84 75.5t-65.5 76t-79.5 35q-59 0 -85 -46t-28 -128h-162v27q0 141 77 227t212 86q86 0 135 -35t84 -76t66 -75.5t80 -34.5q59 0 84.5 47t27.5 129h162v-29v0z" />
<glyph unicode="&#xa1;" horiz-adv-x="655" d="M180 -426l35 1081h186l37 -1081h-258zM451 901q0 -57 -40 -96t-100 -39q-59 0 -99 39t-40 96q0 59 40 98t99 39t99.5 -39t40.5 -98z" />
<glyph unicode="&#xa2;" d="M967 270q-53 -25 -116 -42t-124 -21v-207h-168v207q-199 16 -300 137t-101 328q0 193 104.5 317.5t296.5 161.5v180h168v-174q53 -4 111.5 -15.5t111.5 -29.5l-43 -180q-47 23 -104.5 36t-118.5 13q-137 0 -218 -77t-81 -224q0 -129 71.5 -210t225.5 -81q61 0 121.5 14.5 t109.5 42.5l54 -176v0z" />
<glyph unicode="&#xa3;" d="M145 0v150q88 74 133.5 145.5t45.5 153.5q0 61 -13 126h-207v170h185q-8 53 -14.5 104.5t-6.5 98.5q0 111 30 187.5t85 125t134 70t177 21.5q51 0 120 -8.5t128 -24.5l-47 -184q-47 16 -102.5 27.5t-112.5 11.5q-190 0 -191 -205q0 -53 7.5 -110.5t15.5 -113.5h317v-170 h-297q6 -29 8.5 -59.5t2.5 -58.5q0 -86 -34 -148.5t-103 -124.5q35 2 74.5 3t82.5 1h430v-188h-848z" />
<glyph unicode="&#xa4;" d="M756 684q0 98 -45 158.5t-152 60.5q-78 0 -133 -58.5t-55 -166.5q0 -49 10 -91t33.5 -73t60.5 -49.5t90 -18.5q74 0 132.5 60.5t58.5 177.5zM874 111l-161 217q-76 -41 -168 -41q-70 0 -127 22l-144 -196l-168 118l146 181q-35 45 -55.5 109.5t-20.5 150.5q0 152 86 254 l-153 192l163 119l150 -205q68 33 158 33q35 0 73.5 -6t73.5 -23l150 201l161 -121l-151 -190q29 -41 46 -99.5t17 -138.5q0 -150 -80 -248l168 -209z" />
<glyph unicode="&#xa5;" d="M725 629h274v-144h-327v-135h327v-143h-327v-207h-221v207h-328v143h328v135h-328v144h274l-342 702h244l174 -381q29 -59 50.5 -116.5t37.5 -104.5h4q20 53 46 114.5t53 117.5l172 370h235z" />
<glyph unicode="&#xa6;" horiz-adv-x="585" d="M203 -500v774h174v-774h-174zM203 795v753h174v-753h-174z" />
<glyph unicode="&#xa7;" horiz-adv-x="1073" d="M709 463q0 55 -26 103t-67 95.5t-93 95.5t-105 103q-41 -31 -59.5 -70.5t-18.5 -78.5q0 -51 22.5 -97.5t61.5 -93.5t92 -97t115 -108q41 29 59.5 68t18.5 80zM909 492q0 -86 -42 -162t-115 -131q35 -45 56 -97.5t21 -115.5q0 -61 -24.5 -120t-75.5 -105t-131 -73.5 t-190 -27.5q-35 0 -79 5t-85 16l14 184q43 -12 80 -18.5t76 -6.5q92 0 137 41t45 103q0 51 -34 97t-85 94t-110.5 100.5t-110.5 113t-85 133t-34 160.5q0 86 41 161t117 132q-37 47 -57.5 98t-20.5 115q0 66 22.5 124t70.5 102t124 69.5t180 25.5q37 0 80 -4t80 -12 l-14 -184q-39 12 -73 17t-71 5q-86 0 -125.5 -34.5t-39.5 -98.5q0 -49 33.5 -96t85 -97.5t110.5 -103.5t110.5 -114.5t85 -134t33.5 -160.5z" />
<glyph unicode="&#xa8;" horiz-adv-x="1118" d="M465 1335q0 -53 -36 -89t-89 -36t-88 36t-35 89q0 51 35 87t88 36t89 -36t36 -87zM866 1335q0 -53 -35.5 -89t-87.5 -36q-53 0 -89 36t-36 89q0 51 36 87t89 36q51 0 87 -36t36 -87z" />
<glyph unicode="&#xa9;" horiz-adv-x="1552" d="M977 360q-47 -18 -98.5 -28t-106.5 -10q-164 0 -245 98t-81 256q0 74 19.5 141.5t62.5 119.5t111 83t164 31q49 0 90 -8.5t76 -20.5l-23 -152q-29 16 -64.5 25.5t-74.5 9.5q-96 0 -136 -63.5t-40 -159.5q0 -100 41 -153.5t127 -53.5q80 0 151 31l27 -146v0zM1298 684 q0 109 -40.5 205t-111.5 167.5t-167 113.5t-205 42t-205 -41t-166.5 -112.5t-111.5 -167.5t-41 -205t41 -205t111.5 -167.5t167 -113.5t204.5 -42q109 0 205 41t167 112.5t111.5 167.5t40.5 205zM1466 686q0 -143 -54 -269t-148.5 -220.5t-220 -148.5t-269.5 -54 q-147 0 -273 53t-220.5 147.5t-147.5 219.5t-53 270q0 143 54 269t148.5 220.5t220.5 148.5t271 54q143 0 270 -54t220.5 -147.5t147.5 -219.5t54 -269z" />
<glyph unicode="&#xaa;" horiz-adv-x="808" d="M496 995q-123 0 -178.5 -28.5t-55.5 -83.5q0 -33 21.5 -52.5t60.5 -19.5t67.5 17.5t47 43t28 54t9.5 49.5v20zM111 399v172h610v-172h-610zM502 686q0 23 2 51.5t8 53.5l-4 2q-20 -49 -78.5 -86t-128.5 -37q-111 0 -160 52t-49 134q0 63 30 111.5t83 80t127 48t164 16.5 v35q0 18 -4.5 37.5t-17.5 36t-37.5 26.5t-67.5 10q-59 0 -115.5 -15t-103.5 -40l-17 154q113 45 264 45q80 0 133.5 -19.5t84 -52.5t44 -75t13.5 -87v-305v-104t2 -72h-172z" />
<glyph unicode="&#xab;" horiz-adv-x="1064" d="M326 219l-226 381l230 385l166 -80l-183 -305l187 -299zM762 225l-246 375l250 379l164 -82l-199 -297l201 -291z" />
<glyph unicode="&#xac;" d="M801 205v313h-717v182h909v-495h-192z" />
<glyph unicode="&#xae;" horiz-adv-x="1153" d="M633 1180q0 53 -66 53h-39v-119h25q43 0 61.5 20.5t18.5 45.5zM635 856l-96 184h-11v-184h-110v461h174q86 0 124 -34t38 -91q0 -55 -28 -88t-75 -43q16 -16 37 -57l80 -148h-133zM901 1081q0 68 -25.5 128.5t-69.5 105.5t-103.5 71.5t-127.5 26.5t-126 -25.5t-102 -70.5 t-69.5 -103.5t-25.5 -126.5t25.5 -128t69.5 -105t102.5 -71.5t125.5 -26.5q68 0 127.5 25.5t103.5 70.5t69.5 103t25.5 126zM1040 1083q0 -94 -36.5 -178t-100 -146.5t-148.5 -98t-180 -35.5q-98 0 -182 35.5t-146.5 97t-98 145.5t-35.5 180t35.5 180.5t99 147t147.5 98 t180 35.5q98 0 182.5 -35.5t148 -97t99 -146t35.5 -182.5z" />
<glyph unicode="&#xaf;" horiz-adv-x="808" d="M139 1247v160h531v-160h-531z" />
<glyph unicode="&#xb0;" horiz-adv-x="780" d="M506 1243q0 47 -26.5 89t-92.5 42q-53 0 -87 -35.5t-34 -95.5q0 -63 33 -98t86 -35t87 38t34 95zM672 1245q0 -66 -24.5 -117t-66.5 -85.5t-95.5 -53t-108.5 -18.5q-129 0 -204 71.5t-75 196.5q0 66 26 117t66.5 86t93 53t105.5 18q74 0 128 -21.5t88 -58t50.5 -85 t16.5 -103.5z" />
<glyph unicode="&#xb1;" d="M88 0v182h950v-182h-950zM668 696v-389h-209v389h-375v183h375v387h209v-387h374v-183h-374z" />
<glyph unicode="&#xb2;" horiz-adv-x="722" d="M76 758v147l174 168q86 80 117.5 139.5t31.5 106.5q0 57 -28.5 90t-89.5 33q-94 0 -168 -45l-29 153q49 23 114.5 38.5t131.5 15.5q152 0 219 -70t67 -176q0 -78 -37.5 -158t-129.5 -164l-117 -114q66 4 144.5 4h172.5v-168h-573z" />
<glyph unicode="&#xb3;" horiz-adv-x="692" d="M610 1014q0 -119 -96 -196t-268 -77q-43 0 -91.5 5.5t-88.5 15.5l22 145q68 -23 152 -22q84 0 123.5 32.5t39.5 83.5q0 57 -64.5 92t-211.5 17v135q135 0 192.5 32t57.5 95q0 41 -32 65.5t-87 24.5q-78 0 -158 -35l-20 138q106 39 225 39q139 0 207 -56.5t68 -150.5 q0 -137 -134 -189q78 -18 121 -72t43 -122z" />
<glyph unicode="&#xb4;" horiz-adv-x="800" d="M307 1159l-86 117l311 256l111 -146z" />
<glyph unicode="&#xb6;" horiz-adv-x="1198" d="M594 492q-121 0 -210 34.5t-146.5 96t-85 143.5t-27.5 174q0 98 34 179t96 139.5t148 91t191 32.5v-890v0zM942 1210v-1407h-338v172h148v1407h329v-172h-139z" />
<glyph unicode="&#xb7;" horiz-adv-x="512" d="M406 608q0 -61 -44.5 -104t-105.5 -43t-105.5 43t-44.5 104q0 63 44.5 106.5t105.5 43.5t105.5 -43.5t44.5 -106.5z" />
<glyph unicode="&#xb8;" horiz-adv-x="819" d="M526 -82q80 -106 62.5 -204.5t-105.5 -194.5h-170q78 94 90.5 169.5t-61.5 166.5l184 63v0z" />
<glyph unicode="&#xb9;" horiz-adv-x="571" d="M223 758v643l-162 -64l-32 164l227 86h176v-829h-209z" />
<glyph unicode="&#xba;" horiz-adv-x="864" d="M584 1044q0 41 -7.5 77t-26 63.5t-48 44t-72.5 16.5q-29 0 -57.5 -11t-50 -35.5t-35 -64.5t-13.5 -96q0 -41 7.5 -77.5t24 -66.5t46 -47.5t72.5 -17.5q68 0 114 49t46 166zM119 399v172h622v-172h-622zM768 1047q0 -86 -26.5 -155t-73.5 -118t-113 -75.5t-143 -26.5 q-70 0 -129.5 19.5t-102.5 62.5t-67.5 112.5t-24.5 167.5q0 84 26.5 151.5t74 116t112 75t139.5 26.5q66 0 125.5 -17.5t105.5 -59.5t71.5 -110.5t25.5 -168.5z" />
<glyph unicode="&#xbb;" horiz-adv-x="1064" d="M297 225l-162 82l199 297l-199 291l168 84l246 -375zM735 219l-168 80l185 305l-185 299l174 82l226 -381z" />
<glyph unicode="&#xbc;" horiz-adv-x="1447" d="M260 -45l-139 100l1009 1372l140 -100zM1262 123v-123h-177v123h-313l-10 115l248 426h252v-404h96v-137h-96zM246 719v498l-123 -52l-29 150l180 67h156v-663h-184zM1083 541l-165 -285q35 2 87 2h78v283z" />
<glyph unicode="&#xbd;" horiz-adv-x="1484" d="M893 0v139l133 121q66 59 90.5 100t24.5 76q0 88 -90 88q-70 0 -129 -35l-21 146q41 16 94.5 28.5t110.5 12.5q123 0 177 -55.5t54 -141.5q0 -61 -29.5 -119.5t-101.5 -126.5l-88 -83q51 4 109.5 4h132.5v-154h-467zM260 -45l-139 100l1009 1372l140 -100zM246 719v498 l-123 -52l-29 150l180 67h156v-663h-184z" />
<glyph unicode="&#xbe;" horiz-adv-x="1480" d="M295 -45l-141 100l1009 1372l140 -100zM1294 123v-123h-176v123h-313l-8 115l245 426h252v-404h99v-137h-99zM551 924q0 -100 -76 -159.5t-217 -59.5q-33 0 -72 3t-71 9l18 129q27 -8 54.5 -13.5t60.5 -5.5q49 0 81.5 26t32.5 67q0 20 -10 37.5t-34.5 28.5t-66.5 14.5 t-104 -5.5v115q111 0 160 25.5t49 72.5q0 66 -86 66q-31 0 -64.5 -7t-64.5 -24l-18 123q43 16 93 23.5t101 7.5q113 0 167.5 -46t54.5 -122q0 -111 -113 -156q57 -10 91 -53t34 -96zM1116 541l-166 -285q18 0 41 1t46.5 1h45h33.5v283z" />
<glyph unicode="&#xbf;" horiz-adv-x="917" d="M733 -442q-154 4 -270.5 39.5t-195.5 91t-117.5 126t-38.5 148.5q0 86 29.5 145.5t73.5 107.5t91 89t81 89t47 110.5t-13 150.5h213q33 -98 24.5 -170.5t-40 -128t-76.5 -98.5t-88 -84t-73 -85t-30 -101q0 -98 109.5 -161t302.5 -71zM664 901q0 -57 -40 -96t-100 -39 q-59 0 -100 39t-41 96q0 59 41 98t100 39t99.5 -39t40.5 -98z" />
<glyph unicode="&#xc0;" horiz-adv-x="1269" d="M682 952q-16 51 -31.5 97.5t-25.5 91.5h-4q-20 -86 -56 -187l-166 -471h449zM1010 0l-105 305h-561l-106 -305h-226l492 1382h256l497 -1382h-247zM741 1477l-412 112l56 162l395 -152z" />
<glyph unicode="&#xc1;" horiz-adv-x="1269" d="M682 952q-16 51 -31.5 97.5t-25.5 91.5h-4q-20 -86 -56 -187l-166 -471h449zM1010 0l-105 305h-561l-106 -305h-226l492 1382h256l497 -1382h-247zM508 1477l-39 122l395 152l56 -162z" />
<glyph unicode="&#xc2;" horiz-adv-x="1269" d="M682 952q-16 51 -31.5 97.5t-25.5 91.5h-4q-20 -86 -56 -187l-166 -471h449zM1010 0l-105 305h-561l-106 -305h-226l492 1382h256l497 -1382h-247zM904 1475l-281 118l-270 -118l-54 114l330 174l334 -166z" />
<glyph unicode="&#xc3;" horiz-adv-x="1269" d="M682 952q-16 51 -31.5 97.5t-25.5 91.5h-4q-20 -86 -56 -187l-166 -471h449zM1010 0l-105 305h-561l-106 -305h-226l492 1382h256l497 -1382h-247zM1006 1657q-92 -158 -242 -158q-53 0 -89 16.5t-65.5 35t-55 35t-58.5 16.5q-70 0 -123 -91l-111 76q43 78 103.5 119 t138.5 41q51 0 88 -16.5t65.5 -35t55 -34.5t57.5 -16q70 0 125 90l111 -78v0z" />
<glyph unicode="&#xc4;" horiz-adv-x="1269" d="M682 952q-16 51 -31.5 97.5t-25.5 91.5h-4q-20 -86 -56 -187l-166 -471h449zM1010 0l-105 305h-561l-106 -305h-226l492 1382h256l497 -1382h-247zM530 1602q0 -51 -34.5 -85t-86.5 -34q-51 0 -85.5 33.5t-34.5 85.5q0 51 34.5 85.5t85.5 34.5t86 -34.5t35 -85.5z M971 1602q0 -51 -35 -85t-86 -34t-86 33.5t-35 85.5q0 51 35 85.5t86 34.5t86 -34.5t35 -85.5z" />
<glyph unicode="&#xc5;" horiz-adv-x="1269" d="M682 952q-16 51 -31.5 97.5t-25.5 91.5h-4q-20 -86 -56 -187l-166 -471h449zM1010 0l-105 305h-561l-106 -305h-226l492 1382h256l497 -1382h-247zM739 1677q0 41 -29.5 72t-70.5 31q-43 0 -71.5 -31t-28.5 -72t28.5 -71.5t71.5 -30.5q41 0 70.5 30.5t29.5 71.5z M866 1679q0 -45 -18.5 -85t-49 -70.5t-72.5 -48t-89 -17.5q-94 0 -159.5 61.5t-65.5 155.5q0 47 18.5 87t49 68.5t72.5 46t87 17.5q96 0 161.5 -61.5t65.5 -153.5z" />
<glyph unicode="&#xc6;" horiz-adv-x="1603" d="M743 1194h-4q-29 -63 -57.5 -128t-75.5 -155l-219 -413h356v696zM743 0v322h-434l-162 -322h-231l713 1382h827v-186h-495v-393h477v-182h-477v-431h512v-190h-730z" />
<glyph unicode="&#xc7;" horiz-adv-x="1179" d="M1092 53q-78 -33 -174.5 -51t-196.5 -18q-174 0 -295 52t-195.5 143t-108.5 213t-34 261q0 162 41 298t126 234.5t213 154t302 55.5q78 0 157 -10.5t150 -32.5l-33 -205q-143 51 -292 51q-109 0 -188 -39t-131 -107.5t-76.5 -161.5t-24.5 -200q0 -242 105.5 -374 t332.5 -132q72 0 148.5 18.5t136.5 47.5l37 -197v0zM737 -82q80 -106 62.5 -204.5t-105.5 -194.5h-170q78 94 90.5 169.5t-61.5 166.5l184 63v0z" />
<glyph unicode="&#xc8;" horiz-adv-x="1019" d="M160 0v1382h729v-186h-506v-393h481v-182h-481v-431h506v-190h-729zM635 1477l-412 112l56 162l395 -152z" />
<glyph unicode="&#xc9;" horiz-adv-x="1019" d="M160 0v1382h729v-186h-506v-393h481v-182h-481v-431h506v-190h-729zM401 1477l-39 122l395 152l56 -162z" />
<glyph unicode="&#xca;" horiz-adv-x="1019" d="M160 0v1382h729v-186h-506v-393h481v-182h-481v-431h506v-190h-729zM797 1475l-281 118l-270 -118l-54 114l330 174l334 -166z" />
<glyph unicode="&#xcb;" horiz-adv-x="1019" d="M160 0v1382h729v-186h-506v-393h481v-182h-481v-431h506v-190h-729zM415 1602q0 -51 -34.5 -85t-86.5 -34q-51 0 -85.5 33.5t-34.5 85.5q0 51 34.5 85.5t85.5 34.5t86 -34.5t35 -85.5zM856 1602q0 -51 -35 -85t-86 -34t-86 33.5t-35 85.5q0 51 35 85.5t86 34.5t86 -34.5 t35 -85.5z" />
<glyph unicode="&#xcc;" horiz-adv-x="544" d="M160 0v1382h223v-1382h-223zM383 1477l-412 112l56 162l395 -152z" />
<glyph unicode="&#xcd;" horiz-adv-x="544" d="M160 0v1382h223v-1382h-223zM168 1477l-39 122l395 152l56 -162z" />
<glyph unicode="&#xce;" horiz-adv-x="544" d="M160 0v1382h223v-1382h-223zM549 1475l-281 118l-270 -118l-54 114l330 174l334 -166z" />
<glyph unicode="&#xcf;" horiz-adv-x="544" d="M160 0v1382h223v-1382h-223zM174 1602q0 -51 -34.5 -85t-86.5 -34q-51 0 -85.5 33.5t-34.5 85.5q0 51 34.5 85.5t85.5 34.5t86 -34.5t35 -85.5zM615 1602q0 -51 -35 -85t-86 -34t-86 33.5t-35 85.5q0 51 35 85.5t86 34.5t86 -34.5t35 -85.5z" />
<glyph unicode="&#xd0;" horiz-adv-x="1396" d="M1073 692q0 246 -113.5 379t-367.5 133q-53 0 -102.5 -1t-90.5 -5v-403h275v-170h-275v-435q47 -4 82 -6t88 -2q111 0 204 30t160.5 93.5t103.5 158.5t36 228zM1311 709q0 -178 -56.5 -312.5t-158 -224.5t-241.5 -135t-310 -45q-104 0 -194.5 3t-172.5 5v625h-170v170 h170v585q82 2 195.5 5.5t234.5 3.5q164 0 294 -39t221 -122t139.5 -211t48.5 -308z" />
<glyph unicode="&#xd1;" horiz-adv-x="1441" d="M985 0l-489 831q-25 43 -64 121t-72 148q2 -51 6.5 -134t5.5 -167t1 -177.5t4 -240.5v-381h-217v1382h293l483 -813q55 -96 80.5 -148t62.5 -132q-4 59 -6 141t-4 181.5t-3 192.5t-1 228l-2 350h217v-1382h-295zM1096 1657q-92 -158 -242 -158q-53 0 -89 16.5t-65.5 35 t-55 35t-58.5 16.5q-70 0 -123 -91l-111 76q43 78 103.5 119t138.5 41q51 0 88 -16.5t65.5 -35t55 -34.5t57.5 -16q70 0 125 90l111 -78v0z" />
<glyph unicode="&#xd2;" horiz-adv-x="1441" d="M1126 686q0 252 -105.5 386t-299.5 134q-80 0 -153.5 -31.5t-129 -95t-89.5 -158t-34 -219.5q0 -117 25 -214t74 -165.5t124.5 -106.5t178.5 -38q76 0 149.5 31t132 94.5t93 158.5t34.5 224zM1364 709q0 -172 -52 -307.5t-142.5 -229.5t-211 -143t-258.5 -49 q-158 0 -274.5 49t-194 140t-115.5 219t-38 288q0 172 52 307t142 228.5t211 142.5t258 49q139 0 254 -43t197 -130t127 -217t45 -304zM825 1477l-412 112l56 162l395 -152z" />
<glyph unicode="&#xd3;" horiz-adv-x="1441" d="M1126 686q0 252 -105.5 386t-299.5 134q-80 0 -153.5 -31.5t-129 -95t-89.5 -158t-34 -219.5q0 -117 25 -214t74 -165.5t124.5 -106.5t178.5 -38q76 0 149.5 31t132 94.5t93 158.5t34.5 224zM1364 709q0 -172 -52 -307.5t-142.5 -229.5t-211 -143t-258.5 -49 q-158 0 -274.5 49t-194 140t-115.5 219t-38 288q0 172 52 307t142 228.5t211 142.5t258 49q139 0 254 -43t197 -130t127 -217t45 -304zM633 1477l-39 122l395 152l56 -162z" />
<glyph unicode="&#xd4;" horiz-adv-x="1441" d="M1126 686q0 252 -105.5 386t-299.5 134q-80 0 -153.5 -31.5t-129 -95t-89.5 -158t-34 -219.5q0 -117 25 -214t74 -165.5t124.5 -106.5t178.5 -38q76 0 149.5 31t132 94.5t93 158.5t34.5 224zM1364 709q0 -172 -52 -307.5t-142.5 -229.5t-211 -143t-258.5 -49 q-158 0 -274.5 49t-194 140t-115.5 219t-38 288q0 172 52 307t142 228.5t211 142.5t258 49q139 0 254 -43t197 -130t127 -217t45 -304zM1008 1475l-281 118l-270 -118l-54 114l330 174l334 -166z" />
<glyph unicode="&#xd5;" horiz-adv-x="1441" d="M1126 686q0 252 -105.5 386t-299.5 134q-80 0 -153.5 -31.5t-129 -95t-89.5 -158t-34 -219.5q0 -117 25 -214t74 -165.5t124.5 -106.5t178.5 -38q76 0 149.5 31t132 94.5t93 158.5t34.5 224zM1364 709q0 -172 -52 -307.5t-142.5 -229.5t-211 -143t-258.5 -49 q-158 0 -274.5 49t-194 140t-115.5 219t-38 288q0 172 52 307t142 228.5t211 142.5t258 49q139 0 254 -43t197 -130t127 -217t45 -304zM1092 1657q-92 -158 -242 -158q-53 0 -89 16.5t-65.5 35t-55 35t-58.5 16.5q-70 0 -123 -91l-111 76q43 78 103.5 119t138.5 41 q51 0 88 -16.5t65.5 -35t55 -34.5t57.5 -16q70 0 125 90l111 -78v0z" />
<glyph unicode="&#xd6;" horiz-adv-x="1441" d="M1126 686q0 252 -105.5 386t-299.5 134q-80 0 -153.5 -31.5t-129 -95t-89.5 -158t-34 -219.5q0 -117 25 -214t74 -165.5t124.5 -106.5t178.5 -38q76 0 149.5 31t132 94.5t93 158.5t34.5 224zM1364 709q0 -172 -52 -307.5t-142.5 -229.5t-211 -143t-258.5 -49 q-158 0 -274.5 49t-194 140t-115.5 219t-38 288q0 172 52 307t142 228.5t211 142.5t258 49q139 0 254 -43t197 -130t127 -217t45 -304zM631 1602q0 -51 -34.5 -85t-86.5 -34q-51 0 -85.5 33.5t-34.5 85.5q0 51 34.5 85.5t85.5 34.5t86 -34.5t35 -85.5zM1072 1602 q0 -51 -35 -85t-86 -34t-86 33.5t-35 85.5q0 51 35 85.5t86 34.5t86 -34.5t35 -85.5z" />
<glyph unicode="&#xd7;" d="M887 150l-330 331l-332 -331l-121 120l332 332l-332 330l136 135l329 -332l332 332l121 -121l-332 -332l332 -329z" />
<glyph unicode="&#xd8;" horiz-adv-x="1441" d="M1364 705q0 -172 -51 -307.5t-141.5 -227.5t-213 -141t-264.5 -49q-104 0 -184 20l-88 -209l-160 68l90 209q-143 84 -208.5 242.5t-65.5 365.5q0 172 52 307t142 228.5t211 142.5t258 49q45 0 89 -4t85 -13l86 203l160 -67l-84 -199q139 -76 213 -231.5t74 -386.5z M1133 684q0 156 -39 267.5t-113 170.5l-385 -934q59 -16 115 -16q84 0 160.5 30.5t135 94t92.5 160t34 227.5zM829 1198q-18 6 -47.5 10t-60.5 4q-82 0 -157 -32.5t-131 -96t-90 -160t-34 -221.5q0 -121 21.5 -201.5t35 -108t31 -54.5t54.5 -62l380 922h-2z" />
<glyph unicode="&#xd9;" horiz-adv-x="1406" d="M1247 532q0 -279 -143 -415.5t-418 -136.5q-164 0 -266.5 40.5t-159.5 109.5t-78.5 157t-21.5 184v911h223v-895q0 -70 13.5 -129t49 -102t97 -67.5t157.5 -24.5q84 0 146.5 18.5t102.5 60.5t59.5 109.5t19.5 163.5v866h219v-850v0zM774 1477l-412 112l56 162l395 -152z " />
<glyph unicode="&#xda;" horiz-adv-x="1406" d="M1247 532q0 -279 -143 -415.5t-418 -136.5q-164 0 -266.5 40.5t-159.5 109.5t-78.5 157t-21.5 184v911h223v-895q0 -70 13.5 -129t49 -102t97 -67.5t157.5 -24.5q84 0 146.5 18.5t102.5 60.5t59.5 109.5t19.5 163.5v866h219v-850v0zM666 1477l-39 122l395 152l56 -162z " />
<glyph unicode="&#xdb;" horiz-adv-x="1406" d="M1247 532q0 -279 -143 -415.5t-418 -136.5q-164 0 -266.5 40.5t-159.5 109.5t-78.5 157t-21.5 184v911h223v-895q0 -70 13.5 -129t49 -102t97 -67.5t157.5 -24.5q84 0 146.5 18.5t102.5 60.5t59.5 109.5t19.5 163.5v866h219v-850v0zM981 1475l-281 118l-270 -118l-54 114 l330 174l334 -166z" />
<glyph unicode="&#xdc;" horiz-adv-x="1406" d="M1247 532q0 -279 -143 -415.5t-418 -136.5q-164 0 -266.5 40.5t-159.5 109.5t-78.5 157t-21.5 184v911h223v-895q0 -70 13.5 -129t49 -102t97 -67.5t157.5 -24.5q84 0 146.5 18.5t102.5 60.5t59.5 109.5t19.5 163.5v866h219v-850v0zM602 1602q0 -51 -34.5 -85t-86.5 -34 q-51 0 -85.5 33.5t-34.5 85.5q0 51 34.5 85.5t85.5 34.5t86 -34.5t35 -85.5zM1043 1602q0 -51 -35 -85t-86 -34t-86 33.5t-35 85.5q0 51 35 85.5t86 34.5t86 -34.5t35 -85.5z" />
<glyph unicode="&#xdd;" horiz-adv-x="1122" d="M668 494v-494h-224v494l-432 888h244l205 -436q55 -123 98 -233h4q23 61 52.5 126.5t62.5 131.5l194 411h236zM510 1477l-39 122l395 152l56 -162z" />
<glyph unicode="&#xde;" horiz-adv-x="1099" d="M834 735q0 119 -76 194t-250 75q-31 0 -63.5 -3.5t-61.5 -7.5v-536q29 -4 62.5 -6t68.5 -2q147 0 233.5 72.5t86.5 213.5zM1063 750q0 -106 -41 -195.5t-114.5 -153t-178 -99.5t-231.5 -36q-55 0 -76 1t-39 3v-270h-223v1382h223v-202q39 4 77 5t85 1q242 0 380 -109.5 t138 -326.5z" />
<glyph unicode="&#xdf;" horiz-adv-x="1226" d="M1153 313q0 -74 -29.5 -135t-84 -105t-131.5 -68.5t-171 -24.5q-61 0 -115.5 7t-93.5 17l15 186q88 -39 186 -38q106 0 152.5 42t46.5 95q0 49 -29 83t-72 61.5t-93 54t-93 64.5t-71.5 91t-28.5 133q0 59 19.5 102.5t47 75t61 57t61.5 53.5t47.5 60.5t19.5 77.5 q0 68 -48.5 101.5t-127.5 33.5q-115 0 -178.5 -72.5t-63.5 -234.5v-1030h-219v1018q0 135 36.5 228t101 151.5t151 84t182.5 25.5q184 0 288.5 -78.5t104.5 -209.5q0 -68 -19.5 -113t-48 -78t-62.5 -56.5t-62.5 -47t-48 -52t-19.5 -71.5q0 -49 28.5 -82t71.5 -61.5 t94.5 -56.5t94.5 -65.5t71.5 -91t28.5 -131.5z" />
<glyph unicode="&#xe0;" horiz-adv-x="1071" d="M688 467q-115 0 -186.5 -13.5t-116.5 -38t-64.5 -57t-19.5 -69.5q0 -59 39 -98t100 -39q53 0 99.5 24.5t79 65.5t51 92t18.5 106v27zM702 0q0 49 2.5 98t8.5 90l-2 2q-37 -92 -128 -151t-210 -59q-129 0 -207 78.5t-78 203.5q0 170 160 261t440 91v43q0 111 -45 161 t-156 50q-72 0 -154.5 -20.5t-152.5 -50.5l-39 170q82 33 180.5 52t196.5 19q111 0 183.5 -23.5t118.5 -67.5t66.5 -109.5t20.5 -155.5v-403q0 -66 1 -136.5t5 -142.5h-211zM581 1159l-335 227l110 146l314 -256z" />
<glyph unicode="&#xe1;" horiz-adv-x="1071" d="M688 467q-115 0 -186.5 -13.5t-116.5 -38t-64.5 -57t-19.5 -69.5q0 -59 39 -98t100 -39q53 0 99.5 24.5t79 65.5t51 92t18.5 106v27zM702 0q0 49 2.5 98t8.5 90l-2 2q-37 -92 -128 -151t-210 -59q-129 0 -207 78.5t-78 203.5q0 170 160 261t440 91v43q0 111 -45 161 t-156 50q-72 0 -154.5 -20.5t-152.5 -50.5l-39 170q82 33 180.5 52t196.5 19q111 0 183.5 -23.5t118.5 -67.5t66.5 -109.5t20.5 -155.5v-403q0 -66 1 -136.5t5 -142.5h-211zM493 1159l-86 117l311 256l111 -146z" />
<glyph unicode="&#xe2;" horiz-adv-x="1071" d="M688 467q-115 0 -186.5 -13.5t-116.5 -38t-64.5 -57t-19.5 -69.5q0 -59 39 -98t100 -39q53 0 99.5 24.5t79 65.5t51 92t18.5 106v27zM702 0q0 49 2.5 98t8.5 90l-2 2q-37 -92 -128 -151t-210 -59q-129 0 -207 78.5t-78 203.5q0 170 160 261t440 91v43q0 111 -45 161 t-156 50q-72 0 -154.5 -20.5t-152.5 -50.5l-39 170q82 33 180.5 52t196.5 19q111 0 183.5 -23.5t118.5 -67.5t66.5 -109.5t20.5 -155.5v-403q0 -66 1 -136.5t5 -142.5h-211zM741 1159l-207 170l-209 -170l-88 101l299 272l297 -270z" />
<glyph unicode="&#xe3;" horiz-adv-x="1071" d="M688 467q-115 0 -186.5 -13.5t-116.5 -38t-64.5 -57t-19.5 -69.5q0 -59 39 -98t100 -39q53 0 99.5 24.5t79 65.5t51 92t18.5 106v27zM702 0q0 49 2.5 98t8.5 90l-2 2q-37 -92 -128 -151t-210 -59q-129 0 -207 78.5t-78 203.5q0 170 160 261t440 91v43q0 111 -45 161 t-156 50q-72 0 -154.5 -20.5t-152.5 -50.5l-39 170q82 33 180.5 52t196.5 19q111 0 183.5 -23.5t118.5 -67.5t66.5 -109.5t20.5 -155.5v-403q0 -66 1 -136.5t5 -142.5h-211zM887 1370q-88 -170 -236 -170q-51 0 -85.5 17.5t-62.5 38t-52.5 37t-55.5 16.5q-68 0 -118 -95 l-107 82q41 84 100.5 127t135.5 43q49 0 83.5 -17t62.5 -36.5t53.5 -37t56.5 -17.5q66 0 118 94l107 -82v0z" />
<glyph unicode="&#xe4;" horiz-adv-x="1071" d="M688 467q-115 0 -186.5 -13.5t-116.5 -38t-64.5 -57t-19.5 -69.5q0 -59 39 -98t100 -39q53 0 99.5 24.5t79 65.5t51 92t18.5 106v27zM702 0q0 49 2.5 98t8.5 90l-2 2q-37 -92 -128 -151t-210 -59q-129 0 -207 78.5t-78 203.5q0 170 160 261t440 91v43q0 111 -45 161 t-156 50q-72 0 -154.5 -20.5t-152.5 -50.5l-39 170q82 33 180.5 52t196.5 19q111 0 183.5 -23.5t118.5 -67.5t66.5 -109.5t20.5 -155.5v-403q0 -66 1 -136.5t5 -142.5h-211zM457 1335q0 -53 -36 -89t-89 -36t-88 36t-35 89q0 51 35 87t88 36t89 -36t36 -87zM858 1335 q0 -53 -35.5 -89t-87.5 -36q-53 0 -89 36t-36 89q0 51 36 87t89 36q51 0 87 -36t36 -87z" />
<glyph unicode="&#xe5;" horiz-adv-x="1071" d="M688 467q-115 0 -186.5 -13.5t-116.5 -38t-64.5 -57t-19.5 -69.5q0 -59 39 -98t100 -39q53 0 99.5 24.5t79 65.5t51 92t18.5 106v27zM702 0q0 49 2.5 98t8.5 90l-2 2q-37 -92 -128 -151t-210 -59q-129 0 -207 78.5t-78 203.5q0 170 160 261t440 91v43q0 111 -45 161 t-156 50q-72 0 -154.5 -20.5t-152.5 -50.5l-39 170q82 33 180.5 52t196.5 19q111 0 183.5 -23.5t118.5 -67.5t66.5 -109.5t20.5 -155.5v-403q0 -66 1 -136.5t5 -142.5h-211zM650 1362q0 47 -31 79.5t-78 32.5t-79 -32.5t-32 -79.5t32 -80t79 -33t78 33t31 80zM787 1366 q0 -49 -19.5 -93.5t-53.5 -76t-79 -51t-96 -19.5t-95 17.5t-78 48t-53.5 73.5t-19.5 94t20.5 94.5t54.5 75t79 50t94 18.5q51 0 96 -17.5t78 -48t52.5 -73.5t19.5 -92z" />
<glyph unicode="&#xe6;" horiz-adv-x="1646" d="M688 469q-115 0 -189.5 -14.5t-119.5 -39t-62.5 -57t-17.5 -69.5q0 -59 37 -98t102 -39q55 0 101.5 24.5t79 65.5t51 92t18.5 106v29zM1339 643q4 111 -51 172.5t-153 61.5q-92 0 -151.5 -62.5t-76.5 -171.5h432v0zM1559 598q0 -43 -7 -106h-649q-4 -174 72 -255t229 -81 q76 0 151 15t142 46l29 -172q-80 -33 -172 -49t-189 -16q-168 0 -268 62t-139 161h-2q-23 -45 -58.5 -86t-83 -72t-108 -48t-129.5 -17q-135 0 -212 78.5t-77 203.5q0 172 160 263t440 91v60q0 94 -46 143t-167 49q-72 0 -150.5 -20.5t-140.5 -52.5l-43 176q78 29 175.5 48 t195.5 19q109 0 190.5 -31.5t126.5 -111.5h2q47 61 127 102t185 41q111 0 188.5 -34.5t128.5 -95t75 -140.5t24 -170z" />
<glyph unicode="&#xe7;" horiz-adv-x="882" d="M825 35q-63 -27 -140 -39t-155 -12q-98 0 -181 25.5t-143.5 84t-94 152.5t-33.5 229q0 121 30.5 223.5t94 177t159 116.5t222.5 42q66 0 126 -9t111 -30l-37 -186q-47 18 -101 30.5t-112 12.5q-129 0 -196.5 -97.5t-67.5 -254.5q0 -70 13.5 -130.5t44 -104.5t82 -68.5 t126.5 -24.5q59 0 115.5 11.5t104.5 33.5l32 -182v0zM565 -82q80 -106 62.5 -204.5t-105.5 -194.5h-170q78 94 90.5 169.5t-61.5 166.5l184 63v0z" />
<glyph unicode="&#xe8;" horiz-adv-x="1046" d="M739 635q2 117 -54 178t-150 61q-90 0 -153 -62t-77 -177h434v0zM958 614q0 -66 -8 -131h-647q-4 -166 68.5 -246.5t232.5 -80.5q74 0 148.5 15t144.5 44l29 -170q-88 -33 -176 -49t-185 -16q-236 0 -360.5 125.5t-126.5 396.5q0 115 31.5 212t90 168.5t147.5 113.5 t200 42q104 0 182 -31.5t129 -90t75.5 -135.5t24.5 -167zM585 1159l-335 227l110 146l314 -256z" />
<glyph unicode="&#xe9;" horiz-adv-x="1046" d="M739 635q2 117 -54 178t-150 61q-90 0 -153 -62t-77 -177h434v0zM958 614q0 -66 -8 -131h-647q-4 -166 68.5 -246.5t232.5 -80.5q74 0 148.5 15t144.5 44l29 -170q-88 -33 -176 -49t-185 -16q-236 0 -360.5 125.5t-126.5 396.5q0 115 31.5 212t90 168.5t147.5 113.5 t200 42q104 0 182 -31.5t129 -90t75.5 -135.5t24.5 -167zM491 1159l-86 117l311 256l111 -146z" />
<glyph unicode="&#xea;" horiz-adv-x="1046" d="M739 635q2 117 -54 178t-150 61q-90 0 -153 -62t-77 -177h434v0zM958 614q0 -66 -8 -131h-647q-4 -166 68.5 -246.5t232.5 -80.5q74 0 148.5 15t144.5 44l29 -170q-88 -33 -176 -49t-185 -16q-236 0 -360.5 125.5t-126.5 396.5q0 115 31.5 212t90 168.5t147.5 113.5 t200 42q104 0 182 -31.5t129 -90t75.5 -135.5t24.5 -167zM747 1159l-207 170l-209 -170l-88 101l299 272l297 -270z" />
<glyph unicode="&#xeb;" horiz-adv-x="1046" d="M739 635q2 117 -54 178t-150 61q-90 0 -153 -62t-77 -177h434v0zM958 614q0 -66 -8 -131h-647q-4 -166 68.5 -246.5t232.5 -80.5q74 0 148.5 15t144.5 44l29 -170q-88 -33 -176 -49t-185 -16q-236 0 -360.5 125.5t-126.5 396.5q0 115 31.5 212t90 168.5t147.5 113.5 t200 42q104 0 182 -31.5t129 -90t75.5 -135.5t24.5 -167zM465 1335q0 -53 -36 -89t-89 -36t-88 36t-35 89q0 51 35 87t88 36t89 -36t36 -87zM866 1335q0 -53 -35.5 -89t-87.5 -36q-53 0 -89 36t-36 89q0 51 36 87t89 36q51 0 87 -36t36 -87z" />
<glyph unicode="&#xec;" horiz-adv-x="538" d="M160 0v1018h219v-1018h-219zM318 1139l-297 282l133 125l272 -303z" />
<glyph unicode="&#xed;" horiz-adv-x="538" d="M160 0v1018h219v-1018h-219zM215 1139l-103 102l271 305l129 -125z" />
<glyph unicode="&#xee;" horiz-adv-x="538" d="M160 0v1018h219v-1018h-219zM450 1159l-180 170l-184 -170l-82 101l268 272l267 -270z" />
<glyph unicode="&#xef;" horiz-adv-x="538" d="M160 0v1018h219v-1018h-219zM580 1335q0 -53 -36 -89t-89 -36q-51 0 -87 36t-36 89q0 51 36 87t87 36q53 0 89 -35t36 -88zM211 1335q0 -53 -34.5 -89t-88.5 -36q-53 0 -89 36t-36 89q0 51 36 87t89 36t88 -35t35 -88z" />
<glyph unicode="&#xf0;" d="M817 535q0 147 -63.5 233t-192.5 86q-51 0 -97 -20.5t-82 -62.5t-58.5 -105.5t-22.5 -151.5q0 -168 71.5 -257t196.5 -89q51 0 97.5 20.5t79 65.5t52 114t19.5 167zM1044 563q0 -147 -38.5 -257.5t-106.5 -182.5t-158 -107.5t-194 -35.5t-191.5 30.5t-149 95t-96 160.5 t-34.5 230q0 117 34.5 216t99 170.5t154 111.5t197.5 40q57 0 110.5 -18.5t82.5 -61.5q-16 29 -31.5 54.5t-26.5 42.5q-23 39 -51.5 78.5t-69.5 80.5l-200 -88l-90 107l184 82q-35 31 -75 61.5t-87 65.5l217 92q39 -31 76 -63.5t72 -67.5l194 84l90 -109l-188 -82 q133 -160 204.5 -344t71.5 -385z" />
<glyph unicode="&#xf1;" horiz-adv-x="1173" d="M797 0v653q0 96 -32 149.5t-120 53.5q-57 0 -106.5 -28.5t-84 -78t-55 -117t-20.5 -143.5v-489h-219v1018h209q0 -41 -3.5 -99.5t-11.5 -101.5h2q45 98 135.5 159.5t219.5 61.5q86 0 144 -25.5t94 -70.5t50.5 -103.5t14.5 -125.5v-713h-217zM952 1370q-88 -170 -236 -170 q-51 0 -85.5 17.5t-62.5 38t-52.5 37t-55.5 16.5q-68 0 -118 -95l-107 82q41 84 100.5 127t135.5 43q49 0 83.5 -17t62.5 -36.5t53.5 -37t56.5 -17.5q66 0 118 94l107 -82v0z" />
<glyph unicode="&#xf2;" horiz-adv-x="1124" d="M823 514q0 164 -63.5 252t-194.5 88q-49 0 -96 -19.5t-84 -60.5t-59.5 -104.5t-22.5 -151.5q0 -174 65.5 -262t194.5 -88q53 0 100.5 20.5t83 63.5t56 108.5t20.5 153.5zM1049 528q0 -117 -37 -217t-103.5 -174t-160 -115.5t-205.5 -41.5q-106 0 -192.5 30.5t-148 93 t-94 159.5t-32.5 233q0 115 35.5 214t102.5 171.5t160 114.5t210 42q102 0 187 -29.5t146.5 -91t96.5 -158t35 -231.5zM616 1159l-335 227l110 146l314 -256z" />
<glyph unicode="&#xf3;" horiz-adv-x="1124" d="M823 514q0 164 -63.5 252t-194.5 88q-49 0 -96 -19.5t-84 -60.5t-59.5 -104.5t-22.5 -151.5q0 -174 65.5 -262t194.5 -88q53 0 100.5 20.5t83 63.5t56 108.5t20.5 153.5zM1049 528q0 -117 -37 -217t-103.5 -174t-160 -115.5t-205.5 -41.5q-106 0 -192.5 30.5t-148 93 t-94 159.5t-32.5 233q0 115 35.5 214t102.5 171.5t160 114.5t210 42q102 0 187 -29.5t146.5 -91t96.5 -158t35 -231.5zM518 1159l-86 117l311 256l111 -146z" />
<glyph unicode="&#xf4;" horiz-adv-x="1124" d="M823 514q0 164 -63.5 252t-194.5 88q-49 0 -96 -19.5t-84 -60.5t-59.5 -104.5t-22.5 -151.5q0 -174 65.5 -262t194.5 -88q53 0 100.5 20.5t83 63.5t56 108.5t20.5 153.5zM1049 528q0 -117 -37 -217t-103.5 -174t-160 -115.5t-205.5 -41.5q-106 0 -192.5 30.5t-148 93 t-94 159.5t-32.5 233q0 115 35.5 214t102.5 171.5t160 114.5t210 42q102 0 187 -29.5t146.5 -91t96.5 -158t35 -231.5zM774 1159l-207 170l-209 -170l-88 101l299 272l297 -270z" />
<glyph unicode="&#xf5;" horiz-adv-x="1124" d="M823 514q0 164 -63.5 252t-194.5 88q-49 0 -96 -19.5t-84 -60.5t-59.5 -104.5t-22.5 -151.5q0 -174 65.5 -262t194.5 -88q53 0 100.5 20.5t83 63.5t56 108.5t20.5 153.5zM1049 528q0 -117 -37 -217t-103.5 -174t-160 -115.5t-205.5 -41.5q-106 0 -192.5 30.5t-148 93 t-94 159.5t-32.5 233q0 115 35.5 214t102.5 171.5t160 114.5t210 42q102 0 187 -29.5t146.5 -91t96.5 -158t35 -231.5zM934 1370q-88 -170 -236 -170q-51 0 -85.5 17.5t-62.5 38t-52.5 37t-55.5 16.5q-68 0 -118 -95l-107 82q41 84 100.5 127t135.5 43q49 0 83.5 -17 t62.5 -36.5t53.5 -37t56.5 -17.5q66 0 118 94l107 -82v0z" />
<glyph unicode="&#xf6;" horiz-adv-x="1124" d="M823 514q0 164 -63.5 252t-194.5 88q-49 0 -96 -19.5t-84 -60.5t-59.5 -104.5t-22.5 -151.5q0 -174 65.5 -262t194.5 -88q53 0 100.5 20.5t83 63.5t56 108.5t20.5 153.5zM1049 528q0 -117 -37 -217t-103.5 -174t-160 -115.5t-205.5 -41.5q-106 0 -192.5 30.5t-148 93 t-94 159.5t-32.5 233q0 115 35.5 214t102.5 171.5t160 114.5t210 42q102 0 187 -29.5t146.5 -91t96.5 -158t35 -231.5zM492 1335q0 -53 -36 -89t-89 -36t-88 36t-35 89q0 51 35 87t88 36t89 -36t36 -87zM893 1335q0 -53 -35.5 -89t-87.5 -36q-53 0 -89 36t-36 89q0 51 36 87 t89 36q51 0 87 -36t36 -87z" />
<glyph unicode="&#xf7;" d="M700 197q0 -57 -39.5 -98.5t-99.5 -41.5q-59 0 -100 41t-41 99q0 59 41 100t100 41t99 -41t40 -100zM84 518v182h958v-182h-958zM700 1020q0 -59 -39.5 -99t-99.5 -40q-59 0 -100 40t-41 99t41 99t100 40t99 -40t40 -99z" />
<glyph unicode="&#xf8;" d="M1051 528q0 -117 -36 -217t-102.5 -174t-160 -115.5t-207.5 -41.5q-84 0 -162 22l-94 -205l-129 56l96 206q-94 66 -137 178.5t-43 258.5q0 115 34.5 214t101.5 171.5t161 114.5t211 42q35 0 67.5 -4t63.5 -10l88 184l127 -55l-86 -182q92 -55 149.5 -162t57.5 -281z M840 514q0 193 -101 266l-264 -610q37 -14 90 -14q117 0 196 88t79 270zM625 860q-29 6 -60 6q-51 0 -100 -18.5t-89 -60.5t-64.5 -108.5t-24.5 -160.5q0 -84 19.5 -149.5t60.5 -106.5z" />
<glyph unicode="&#xf9;" horiz-adv-x="1173" d="M805 0q0 41 3 99.5t11 101.5h-2q-45 -98 -135 -159.5t-219 -61.5q-86 0 -144.5 25.5t-94.5 70.5t-50 103.5t-14 125.5v713h217v-653q0 -96 31.5 -149.5t119.5 -53.5q57 0 106.5 28.5t84.5 77.5t55.5 116t20.5 144v490h219v-1018h-209zM622 1159l-335 227l110 146 l314 -256z" />
<glyph unicode="&#xfa;" horiz-adv-x="1173" d="M805 0q0 41 3 99.5t11 101.5h-2q-45 -98 -135 -159.5t-219 -61.5q-86 0 -144.5 25.5t-94.5 70.5t-50 103.5t-14 125.5v713h217v-653q0 -96 31.5 -149.5t119.5 -53.5q57 0 106.5 28.5t84.5 77.5t55.5 116t20.5 144v490h219v-1018h-209zM555 1159l-86 117l311 256l111 -146 z" />
<glyph unicode="&#xfb;" horiz-adv-x="1173" d="M805 0q0 41 3 99.5t11 101.5h-2q-45 -98 -135 -159.5t-219 -61.5q-86 0 -144.5 25.5t-94.5 70.5t-50 103.5t-14 125.5v713h217v-653q0 -96 31.5 -149.5t119.5 -53.5q57 0 106.5 28.5t84.5 77.5t55.5 116t20.5 144v490h219v-1018h-209zM790 1159l-207 170l-209 -170 l-88 101l299 272l297 -270z" />
<glyph unicode="&#xfc;" horiz-adv-x="1173" d="M805 0q0 41 3 99.5t11 101.5h-2q-45 -98 -135 -159.5t-219 -61.5q-86 0 -144.5 25.5t-94.5 70.5t-50 103.5t-14 125.5v713h217v-653q0 -96 31.5 -149.5t119.5 -53.5q57 0 106.5 28.5t84.5 77.5t55.5 116t20.5 144v490h219v-1018h-209zM510 1335q0 -53 -36 -89t-89 -36 t-88 36t-35 89q0 51 35 87t88 36t89 -36t36 -87zM911 1335q0 -53 -35.5 -89t-87.5 -36q-53 0 -89 36t-36 89q0 51 36 87t89 36q51 0 87 -36t36 -87z" />
<glyph unicode="&#xfd;" horiz-adv-x="1003" d="M580 -72q-47 -127 -98.5 -213t-110 -137t-129 -72.5t-156.5 -21.5q-29 0 -65.5 4t-63.5 8l25 191q27 -8 60.5 -12.5t63.5 -4.5q37 0 71 10.5t66.5 36t62.5 70.5t54 113l37 100l-381 1018h25h221l166 -465q25 -68 44.5 -134.5t35.5 -131.5h2q16 61 44 150t56 167l146 414 h211h24zM477 1159l-86 117l311 256l111 -146z" />
<glyph unicode="&#xfe;" horiz-adv-x="1142" d="M831 539q0 154 -48 236.5t-152 82.5q-61 0 -108.5 -32.5t-79 -85t-48 -118t-16.5 -130.5v-314q68 -20 160 -20q66 0 120 20.5t91.5 66.5t59 119t21.5 175zM1063 559q0 -270 -137.5 -421.5t-393.5 -151.5q-43 0 -77.5 2t-75.5 10v-498h-219v1995h219v-434q0 -53 -3 -114.5 t-9 -104.5h4q41 88 120.5 142t196.5 54q182 0 278.5 -124t96.5 -355z" />
<glyph unicode="&#xff;" horiz-adv-x="1003" d="M580 -72q-47 -127 -98.5 -213t-110 -137t-129 -72.5t-156.5 -21.5q-29 0 -65.5 4t-63.5 8l25 191q27 -8 60.5 -12.5t63.5 -4.5q37 0 71 10.5t66.5 36t62.5 70.5t54 113l37 100l-381 1018h25h221l166 -465q25 -68 44.5 -134.5t35.5 -131.5h2q16 61 44 150t56 167l146 414 h211h24zM434 1335q0 -53 -36 -89t-89 -36t-88 36t-35 89q0 51 35 87t88 36t89 -36t36 -87zM835 1335q0 -53 -35.5 -89t-87.5 -36q-53 0 -89 36t-36 89q0 51 36 87t89 36q51 0 87 -36t36 -87z" />
<glyph unicode="&#x100;" horiz-adv-x="1269" d="M682 952q-16 51 -31.5 97.5t-25.5 91.5h-4q-20 -86 -56 -187l-166 -471h449zM1010 0l-105 305h-561l-106 -305h-226l492 1382h256l497 -1382h-247zM338 1526v143h580v-143h-580z" />
<glyph unicode="&#x101;" horiz-adv-x="1071" d="M688 467q-115 0 -186.5 -13.5t-116.5 -38t-64.5 -57t-19.5 -69.5q0 -59 39 -98t100 -39q53 0 99.5 24.5t79 65.5t51 92t18.5 106v27zM702 0q0 49 2.5 98t8.5 90l-2 2q-37 -92 -128 -151t-210 -59q-129 0 -207 78.5t-78 203.5q0 170 160 261t440 91v43q0 111 -45 161 t-156 50q-72 0 -154.5 -20.5t-152.5 -50.5l-39 170q82 33 180.5 52t196.5 19q111 0 183.5 -23.5t118.5 -67.5t66.5 -109.5t20.5 -155.5v-403q0 -66 1 -136.5t5 -142.5h-211zM270 1247v160h531v-160h-531z" />
<glyph unicode="&#x102;" horiz-adv-x="1269" d="M682 952q-16 51 -31.5 97.5t-25.5 91.5h-4q-20 -86 -56 -187l-166 -471h449zM1010 0l-105 305h-561l-106 -305h-226l492 1382h256l497 -1382h-247zM905 1751q0 -55 -18.5 -102t-54.5 -83t-88 -56.5t-120 -20.5t-119 20.5t-84.5 56.5t-51 84t-17.5 101h133q0 -51 40 -86 t101 -35q66 0 104 35t38 86h137v0z" />
<glyph unicode="&#x103;" horiz-adv-x="1071" d="M688 467q-115 0 -186.5 -13.5t-116.5 -38t-64.5 -57t-19.5 -69.5q0 -59 39 -98t100 -39q53 0 99.5 24.5t79 65.5t51 92t18.5 106v27zM702 0q0 49 2.5 98t8.5 90l-2 2q-37 -92 -128 -151t-210 -59q-129 0 -207 78.5t-78 203.5q0 170 160 261t440 91v43q0 111 -45 161 t-156 50q-72 0 -154.5 -20.5t-152.5 -50.5l-39 170q82 33 180.5 52t196.5 19q111 0 183.5 -23.5t118.5 -67.5t66.5 -109.5t20.5 -155.5v-403q0 -66 1 -136.5t5 -142.5h-211zM809 1473q0 -57 -14.5 -107.5t-48.5 -93.5t-85 -67.5t-123 -24.5q-70 0 -121 24.5t-82.5 66.5 t-46 93t-14.5 109h145q0 -57 31 -95.5t90 -38.5q55 0 88 34t33 100h148v0z" />
<glyph unicode="&#x104;" horiz-adv-x="1269" d="M1319 -309q-47 -66 -113.5 -101.5t-150.5 -35.5q-104 0 -157.5 48t-53.5 126q0 61 40 133.5t126 138.5l-105 305h-561l-106 -305h-226l492 1382h256l497 -1382q-104 -47 -152 -102.5t-48 -106.5q0 -66 69 -65q57 0 103 63zM682 952q-16 51 -31.5 98.5t-25.5 90.5h-4 q-10 -43 -24.5 -90t-31.5 -97l-166 -471h449z" />
<glyph unicode="&#x105;" horiz-adv-x="1071" d="M1018 -299q-49 -72 -121 -109.5t-152 -37.5q-88 0 -142 43t-54 131q0 92 55 164.5t125 123.5q-8 41 -12 84t-4 82l-2 2q-41 -88 -129 -146t-209 -58q-131 0 -208 78.5t-77 203.5q0 172 160 263t440 91v60q0 94 -44 143t-157 49q-72 0 -155.5 -20.5t-151.5 -48.5l-39 170 q78 31 176.5 50t200.5 19q113 0 188.5 -24.5t119.5 -68.5t62.5 -106.5t18.5 -138.5v-350q0 -92 8.5 -182t24.5 -168q-98 -53 -141 -105.5t-43 -99.5q0 -63 69 -63q59 0 103 65zM688 469q-115 0 -189.5 -14.5t-119.5 -39t-62.5 -57t-17.5 -69.5q0 -59 37 -98t102 -39 q55 0 101.5 24.5t79 65.5t51 92t18.5 106v29z" />
<glyph unicode="&#x106;" horiz-adv-x="1179" d="M1092 53q-78 -33 -174.5 -51t-196.5 -18q-174 0 -295 52t-195.5 143t-108.5 213t-34 261q0 162 41 298t126 234.5t213 154t302 55.5q78 0 157 -10.5t150 -32.5l-33 -205q-143 51 -292 51q-109 0 -188 -39t-131 -107.5t-76.5 -161.5t-24.5 -200q0 -242 105.5 -374 t332.5 -132q72 0 148.5 18.5t136.5 47.5l37 -197v0zM608 1477l-39 122l395 152l56 -162z" />
<glyph unicode="&#x107;" horiz-adv-x="882" d="M825 35q-63 -27 -140 -39t-155 -12q-98 0 -181 25.5t-143.5 84t-94 152.5t-33.5 229q0 121 30.5 223.5t94 177t159 116.5t222.5 42q66 0 126 -9t111 -30l-37 -186q-47 18 -101 30.5t-112 12.5q-129 0 -196.5 -97.5t-67.5 -254.5q0 -70 13.5 -130.5t44 -104.5t82 -68.5 t126.5 -24.5q59 0 115.5 11.5t104.5 33.5l32 -182v0zM475 1159l-86 117l311 256l111 -146z" />
<glyph unicode="&#x10c;" horiz-adv-x="1179" d="M1092 53q-78 -33 -174.5 -51t-196.5 -18q-174 0 -295 52t-195.5 143t-108.5 213t-34 261q0 162 41 298t126 234.5t213 154t302 55.5q78 0 157 -10.5t150 -32.5l-33 -205q-143 51 -292 51q-109 0 -188 -39t-131 -107.5t-76.5 -161.5t-24.5 -200q0 -242 105.5 -374 t332.5 -132q72 0 148.5 18.5t136.5 47.5l37 -197v0zM706 1475l-332 165l58 123l282 -121l269 119l53 -112z" />
<glyph unicode="&#x10d;" horiz-adv-x="882" d="M825 35q-63 -27 -140 -39t-155 -12q-98 0 -181 25.5t-143.5 84t-94 152.5t-33.5 229q0 121 30.5 223.5t94 177t159 116.5t222.5 42q66 0 126 -9t111 -30l-37 -186q-47 18 -101 30.5t-112 12.5q-129 0 -196.5 -97.5t-67.5 -254.5q0 -70 13.5 -130.5t44 -104.5t82 -68.5 t126.5 -24.5q59 0 115.5 11.5t104.5 33.5l32 -182v0zM530 1159l-297 271l92 102l207 -170l207 170l90 -100z" />
<glyph unicode="&#x10e;" horiz-adv-x="1378" d="M1055 694q0 256 -120 383t-364 127q-51 0 -91 -1t-97 -3v-1007q35 -4 80 -7.5t86 -3.5q111 0 204 30t160.5 93.5t104.5 159.5t37 229zM1292 711q0 -178 -56 -312.5t-157.5 -225.5t-243 -136t-309.5 -45q-88 0 -159.5 2t-206.5 6v1380q86 2 210 5.5t218 3.5q164 0 294 -39 t221 -121t140 -210t49 -308zM608 1475l-332 165l58 123l282 -121l269 119l53 -112z" />
<glyph unicode="&#x10f;" horiz-adv-x="1224" d="M764 842q-84 18 -162 18q-131 0 -212 -88t-81 -293q0 -154 49.5 -236.5t153.5 -82.5q61 0 107.5 32.5t79 85t49 118t16.5 130.5v316zM774 0q0 41 3 94t11 96h-4q-41 -94 -127 -152t-204 -58q-188 0 -281.5 129t-93.5 350q0 131 37 237.5t105.5 181t167.5 115.5t222 41 q37 0 75 -2t79 -6v469h217v-1495h-207zM1212 1145l-143 37l109 391l178 -43z" />
<glyph unicode="&#x110;" horiz-adv-x="1396" d="M1073 692q0 246 -113.5 379t-367.5 133q-53 0 -102.5 -1t-90.5 -5v-403h275v-170h-275v-435q47 -4 82 -6t88 -2q111 0 204 30t160.5 93.5t103.5 158.5t36 228zM1311 709q0 -178 -56.5 -312.5t-158 -224.5t-241.5 -135t-310 -45q-104 0 -194.5 3t-172.5 5v625h-170v170 h170v585q82 2 195.5 5.5t234.5 3.5q164 0 294 -39t221 -122t139.5 -211t48.5 -308z" />
<glyph unicode="&#x111;" horiz-adv-x="1140" d="M981 1202v-1202h-207q0 41 3 94t11 96h-4q-41 -94 -127 -152t-204 -58q-188 0 -281.5 129t-93.5 350q0 131 37 237.5t105.5 181t167.5 115.5t222 41q37 0 75 -2t79 -6v176h-229v144h229v149h217v-149h137v-144h-137zM764 842q-84 18 -162 18q-131 0 -212 -88t-81 -293 q0 -154 49.5 -236.5t153.5 -82.5q61 0 107.5 32.5t79 85t49 118t16.5 130.5v316z" />
<glyph unicode="&#x112;" horiz-adv-x="1019" d="M231 1526v143h580v-143h-580zM160 0v1382h729v-186h-506v-393h481v-182h-481v-431h506v-190h-729z" />
<glyph unicode="&#x113;" horiz-adv-x="1046" d="M739 635q2 117 -54 178t-150 61q-90 0 -153 -62t-77 -177h434v0zM958 614q0 -66 -8 -131h-647q-4 -166 68.5 -246.5t232.5 -80.5q74 0 148.5 15t144.5 44l29 -170q-88 -33 -176 -49t-185 -16q-236 0 -360.5 125.5t-126.5 396.5q0 115 31.5 212t90 168.5t147.5 113.5 t200 42q104 0 182 -31.5t129 -90t75.5 -135.5t24.5 -167zM266 1247v160h531v-160h-531z" />
<glyph unicode="&#x116;" horiz-adv-x="1019" d="M160 0v1382h729v-186h-506v-393h481v-182h-481v-431h506v-190h-729zM655 1604q0 -51 -36.5 -87t-90.5 -36q-53 0 -90 34.5t-37 88.5q0 51 37 88t90 37t90 -36t37 -89z" />
<glyph unicode="&#x117;" horiz-adv-x="1046" d="M739 635q2 117 -54 178t-150 61q-90 0 -153 -62t-77 -177h434v0zM958 614q0 -66 -8 -131h-647q-4 -166 68.5 -246.5t232.5 -80.5q74 0 148.5 15t144.5 44l29 -170q-88 -33 -176 -49t-185 -16q-236 0 -360.5 125.5t-126.5 396.5q0 115 31.5 212t90 168.5t147.5 113.5 t200 42q104 0 182 -31.5t129 -90t75.5 -135.5t24.5 -167zM680 1335q0 -57 -41 -97t-100 -40t-99.5 39t-40.5 98q0 57 40 97.5t100 40.5q59 0 100 -40.5t41 -97.5z" />
<glyph unicode="&#x118;" horiz-adv-x="1019" d="M961 -309q-47 -66 -114 -101.5t-151 -35.5q-104 0 -160.5 48t-56.5 126q0 70 43 143.5t117 128.5h-479v1382h725v-186h-502v-393h477v-182h-477v-431h514v-184q-94 -29 -146.5 -92.5t-52.5 -122.5q0 -66 70 -65q57 0 102 63l91 -98v0z" />
<glyph unicode="&#x119;" horiz-adv-x="1046" d="M926 45q-70 -20 -121 -51t-84 -65.5t-49.5 -70.5t-16.5 -67t17.5 -48t48.5 -17t64.5 15t58.5 44l71 -115q-47 -55 -114.5 -85.5t-149.5 -30.5q-51 0 -91 13t-65.5 35.5t-39 54.5t-13.5 71q0 57 37 128.5t113 131.5q-31 -4 -41 -4h-16q-92 0 -175.5 26.5t-144.5 87 t-99 159.5t-38 245q0 113 31.5 212t92 170.5t147.5 112.5t198 41q109 0 187.5 -33.5t127.5 -91t72.5 -135.5t23.5 -164q0 -25 -1 -58.5t-7 -66.5h-647q-4 -172 71 -252.5t230 -80.5q74 0 148.5 15t144.5 44zM739 641q4 109 -52 171t-152 62q-92 0 -152.5 -63t-75.5 -170h432 z" />
<glyph unicode="&#x11a;" horiz-adv-x="1019" d="M160 0v1382h729v-186h-506v-393h481v-182h-481v-431h506v-190h-729zM520 1475l-332 165l58 123l282 -121l269 119l53 -112z" />
<glyph unicode="&#x11b;" horiz-adv-x="1046" d="M739 635q2 117 -54 178t-150 61q-90 0 -153 -62t-77 -177h434v0zM958 614q0 -66 -8 -131h-647q-4 -166 68.5 -246.5t232.5 -80.5q74 0 148.5 15t144.5 44l29 -170q-88 -33 -176 -49t-185 -16q-236 0 -360.5 125.5t-126.5 396.5q0 115 31.5 212t90 168.5t147.5 113.5 t200 42q104 0 182 -31.5t129 -90t75.5 -135.5t24.5 -167zM538 1159l-297 271l92 102l207 -170l207 170l90 -100z" />
<glyph unicode="&#x11e;" horiz-adv-x="1390" d="M1237 63q-104 -41 -224 -62t-239 -21q-160 0 -292 47t-222 134t-134 214t-44 282q0 164 49 300.5t141.5 234.5t239.5 153.5t324 55.5q104 0 202.5 -15.5t184.5 -42.5l-47 -204q-82 33 -170 50t-187 17q-104 0 -200.5 -33.5t-161 -99t-100 -163t-35.5 -226.5 q0 -242 128 -374t351 -132q59 0 112.5 8.5t100.5 24.5v502h223v-650v0zM1071 1751q0 -55 -18.5 -102t-54.5 -83t-88 -56.5t-120 -20.5t-119 20.5t-84.5 56.5t-51 84t-17.5 101h133q0 -51 40 -86t101 -35q66 0 104 35t38 86h137v0z" />
<glyph unicode="&#x11f;" horiz-adv-x="1112" d="M838 -154q0 66 -45 107t-144 45l-186 6l-53 2q-55 -39 -86 -84t-31 -98q0 -82 69.5 -128t180.5 -46q143 0 219 56t76 140zM748 672q0 94 -54.5 149.5t-156.5 55.5q-104 0 -161 -58.5t-57 -146.5q0 -96 54.5 -149.5t158.5 -53.5q100 0 158 53.5t58 149.5zM1055 -123 q0 -82 -39 -154.5t-112 -126t-173 -85t-223 -31.5q-201 0 -316.5 77.5t-115.5 227.5q0 84 50 154.5t116 107.5q-47 20 -74 60t-27 94q0 55 32 103t85 73q-72 41 -112 109.5t-40 168.5q0 76 29 145.5t84 123t137 84t191 30.5q45 0 78.5 -5t74.5 -15h347v-172h-156 q68 -57 67 -162q0 -80 -26.5 -147.5t-80.5 -116.5t-135 -77t-190 -28q-29 0 -50 3.5t-46 9.5q-29 -14 -44 -35t-15 -41q0 -41 37.5 -55.5t130.5 -18.5l172 -6q166 -6 255 -80t89 -215zM814 1473q0 -57 -14.5 -107.5t-48.5 -93.5t-85 -67.5t-123 -24.5q-70 0 -121 24.5 t-82.5 66.5t-46 93t-14.5 109h145q0 -57 31 -95.5t90 -38.5q55 0 88 34t33 100h148v0z" />
<glyph unicode="&#x122;" horiz-adv-x="1390" d="M1237 63q-104 -41 -224 -62t-239 -21q-160 0 -292 47t-222 134t-134 214t-44 282q0 164 49 300.5t141.5 234.5t239.5 153.5t324 55.5q104 0 202.5 -15.5t184.5 -42.5l-47 -204q-82 33 -170 50t-187 17q-104 0 -200.5 -33.5t-161 -99t-100 -163t-35.5 -226.5 q0 -242 128 -374t351 -132q59 0 112.5 8.5t100.5 24.5v502h223v-650v0zM770 -98q53 0 86 -42t25.5 -102.5t-64.5 -129t-186 -122.5l-46 80q78 53 91.5 94t-2.5 76q-12 27 -10.5 52.5t15 46t37 34t54.5 13.5z" />
<glyph unicode="&#x123;" horiz-adv-x="1112" d="M838 -154q0 66 -45 107t-144 45l-186 6l-53 2q-55 -39 -86 -84t-31 -98q0 -82 69.5 -128t180.5 -46q143 0 219 56t76 140zM748 672q0 94 -54.5 149.5t-156.5 55.5q-104 0 -161 -58.5t-57 -146.5q0 -96 54.5 -149.5t158.5 -53.5q100 0 158 53.5t58 149.5zM1055 -123 q0 -82 -39 -154.5t-112 -126t-173 -85t-223 -31.5q-201 0 -316.5 77.5t-115.5 227.5q0 84 50 154.5t116 107.5q-47 20 -74 60t-27 94q0 55 32 103t85 73q-72 41 -112 109.5t-40 168.5q0 76 29 145.5t84 123t137 84t191 30.5q45 0 78.5 -5t74.5 -15h347v-172h-156 q68 -57 67 -162q0 -80 -26.5 -147.5t-80.5 -116.5t-135 -77t-190 -28q-29 0 -50 3.5t-46 9.5q-29 -14 -44 -35t-15 -41q0 -41 37.5 -55.5t130.5 -18.5l172 -6q166 -6 255 -80t89 -215zM518 1155q-49 0 -81 36t-32 91q0 31 12.5 66.5t42 71.5t77.5 70t120 60l45 -82 q-57 -35 -77.5 -65.5t-20.5 -59.5q0 -31 11 -44t11 -42q0 -47 -30.5 -74.5t-77.5 -27.5z" />
<glyph unicode="&#x12a;" horiz-adv-x="544" d="M160 0v1382h223v-1382h-223zM-15 1526v143h580v-143h-580z" />
<glyph unicode="&#x12b;" horiz-adv-x="538" d="M160 0v1018h219v-1018h-219zM21 1247v160h501v-160h-501z" />
<glyph unicode="&#x12e;" horiz-adv-x="544" d="M461 -301q-49 -72 -121 -108.5t-152 -36.5q-88 0 -142 43t-54 131q0 86 52 159.5t116 120.5v1374h223v-1382q-100 -53 -142 -106.5t-42 -100.5q0 -33 19.5 -48t49.5 -15q57 0 101 65l92 -96v0z" />
<glyph unicode="&#x12f;" horiz-adv-x="538" d="M410 1335q0 -57 -41 -97t-99 -40q-59 0 -100 39t-41 98q0 57 41 97.5t100 40.5q57 0 98.5 -40.5t41.5 -97.5zM457 -301q-49 -72 -121 -108.5t-152 -36.5q-88 0 -142 43t-54 131q0 78 47 152.5t125 127.5v1010h219v-1018q-100 -53 -142 -106.5t-42 -100.5q0 -33 19 -48 t50 -15q57 0 103 65z" />
<glyph unicode="&#x130;" horiz-adv-x="544" d="M160 0v1382h223v-1382h-223zM401 1604q0 -51 -36.5 -87t-90.5 -36q-53 0 -90 34.5t-37 88.5q0 51 37 88t90 37t90 -36t37 -89z" />
<glyph unicode="&#x131;" horiz-adv-x="538" d="M160 0v1018h219v-1018h-219z" />
<glyph unicode="&#x136;" horiz-adv-x="1208" d="M885 0l-502 676v-676h-223v1382h223v-641l504 641h274l-549 -667l570 -715h-297zM615 -98q53 0 86 -42t25.5 -102.5t-64.5 -129t-186 -122.5l-46 80q78 53 91.5 94t-2.5 76q-12 27 -10.5 52.5t15 46t37 34t54.5 13.5z" />
<glyph unicode="&#x137;" horiz-adv-x="1036" d="M727 0l-348 516v-516h-219v1495h219v-913l330 436h268l-377 -465l406 -553h-279zM535 -98q53 0 86 -42t25.5 -102.5t-64.5 -129t-186 -122.5l-46 80q78 53 91.5 94t-2.5 76q-12 27 -10.5 52.5t15 46t37 34t54.5 13.5z" />
<glyph unicode="&#x139;" horiz-adv-x="874" d="M160 0v1382h223v-1187h475v-195h-698zM285 1477l-39 122l395 152l56 -162z" />
<glyph unicode="&#x13a;" horiz-adv-x="538" d="M160 0v1495h219v-1495h-219zM194 1549l-39 122l395 152l56 -162z" />
<glyph unicode="&#x13b;" horiz-adv-x="874" d="M160 0v1382h223v-1187h475v-195h-698zM520 -98q53 0 86 -42t25.5 -102.5t-64.5 -129t-186 -122.5l-46 80q78 53 91.5 94t-2.5 76q-12 27 -10.5 52.5t15 46t37 34t54.5 13.5z" />
<glyph unicode="&#x13c;" horiz-adv-x="538" d="M160 0v1495h219v-1495h-219zM277 -98q53 0 86 -42t25.5 -102.5t-64.5 -129t-186 -122.5l-46 80q78 53 91.5 94t-2.5 76q-12 27 -10.5 52.5t15 46t37 34t54.5 13.5z" />
<glyph unicode="&#x13d;" horiz-adv-x="882" d="M160 0v1382h223v-1187h475v-195h-698zM633 1225l-127 73l213 344l160 -88z" />
<glyph unicode="&#x13e;" horiz-adv-x="620" d="M160 0v1495h219v-1495h-219zM610 1145l-143 37l109 391l178 -43z" />
<glyph unicode="&#x141;" horiz-adv-x="892" d="M178 0v684l-147 -70l-45 170l192 90v508h223v-405l215 98l46 -170l-261 -117v-593h476v-195h-699z" />
<glyph unicode="&#x142;" horiz-adv-x="604" d="M416 825v-825h-219v709l-117 -66l-49 160l166 92v600h219v-483l125 71l49 -159z" />
<glyph unicode="&#x143;" horiz-adv-x="1441" d="M985 0l-489 831q-25 43 -64 121t-72 148q2 -51 6.5 -134t5.5 -167t1 -177.5t4 -240.5v-381h-217v1382h293l483 -813q55 -96 80.5 -148t62.5 -132q-4 59 -6 141t-4 181.5t-3 192.5t-1 228l-2 350h217v-1382h-295zM670 1477l-39 122l395 152l56 -162z" />
<glyph unicode="&#x144;" horiz-adv-x="1173" d="M797 0v653q0 96 -32 149.5t-120 53.5q-57 0 -106.5 -28.5t-84 -78t-55 -117t-20.5 -143.5v-489h-219v1018h209q0 -41 -3.5 -99.5t-11.5 -101.5h2q45 98 135.5 159.5t219.5 61.5q86 0 144 -25.5t94 -70.5t50.5 -103.5t14.5 -125.5v-713h-217zM561 1159l-86 117l311 256 l111 -146z" />
<glyph unicode="&#x145;" horiz-adv-x="1441" d="M985 0l-489 831q-25 43 -64 121t-72 148q2 -51 6.5 -134t5.5 -167t1 -177.5t4 -240.5v-381h-217v1382h293l483 -813q55 -96 80.5 -148t62.5 -132q-4 59 -6 141t-4 181.5t-3 192.5t-1 228l-2 350h217v-1382h-295zM715 -98q53 0 86 -42t25.5 -102.5t-64.5 -129t-186 -122.5 l-46 80q78 53 91.5 94t-2.5 76q-12 27 -10.5 52.5t15 46t37 34t54.5 13.5z" />
<glyph unicode="&#x146;" horiz-adv-x="1173" d="M797 0v653q0 96 -32 149.5t-120 53.5q-57 0 -106.5 -28.5t-84 -78t-55 -117t-20.5 -143.5v-489h-219v1018h209q0 -41 -3.5 -99.5t-11.5 -101.5h2q45 98 135.5 159.5t219.5 61.5q86 0 144 -25.5t94 -70.5t50.5 -103.5t14.5 -125.5v-713h-217zM596 -98q53 0 86 -42 t25.5 -102.5t-64.5 -129t-186 -122.5l-46 80q78 53 91.5 94t-2.5 76q-12 27 -10.5 52.5t15 46t37 34t54.5 13.5z" />
<glyph unicode="&#x147;" horiz-adv-x="1441" d="M985 0l-489 831q-25 43 -64 121t-72 148q2 -51 6.5 -134t5.5 -167t1 -177.5t4 -240.5v-381h-217v1382h293l483 -813q55 -96 80.5 -148t62.5 -132q-4 59 -6 141t-4 181.5t-3 192.5t-1 228l-2 350h217v-1382h-295zM725 1475l-332 165l58 123l282 -121l269 119l53 -112z" />
<glyph unicode="&#x148;" horiz-adv-x="1173" d="M797 0v653q0 96 -32 149.5t-120 53.5q-57 0 -106.5 -28.5t-84 -78t-55 -117t-20.5 -143.5v-489h-219v1018h209q0 -41 -3.5 -99.5t-11.5 -101.5h2q45 98 135.5 159.5t219.5 61.5q86 0 144 -25.5t94 -70.5t50.5 -103.5t14.5 -125.5v-713h-217zM586 1159l-297 271l92 102 l207 -170l207 170l90 -100z" />
<glyph unicode="&#x14c;" horiz-adv-x="1441" d="M1126 686q0 252 -105.5 386t-299.5 134q-80 0 -153.5 -31.5t-129 -95t-89.5 -158t-34 -219.5q0 -117 25 -214t74 -165.5t124.5 -106.5t178.5 -38q76 0 149.5 31t132 94.5t93 158.5t34.5 224zM1364 709q0 -172 -52 -307.5t-142.5 -229.5t-211 -143t-258.5 -49 q-158 0 -274.5 49t-194 140t-115.5 219t-38 288q0 172 52 307t142 228.5t211 142.5t258 49q139 0 254 -43t197 -130t127 -217t45 -304zM434 1526v143h580v-143h-580z" />
<glyph unicode="&#x14d;" horiz-adv-x="1124" d="M823 514q0 164 -63.5 252t-194.5 88q-49 0 -96 -19.5t-84 -60.5t-59.5 -104.5t-22.5 -151.5q0 -174 65.5 -262t194.5 -88q53 0 100.5 20.5t83 63.5t56 108.5t20.5 153.5zM1049 528q0 -117 -37 -217t-103.5 -174t-160 -115.5t-205.5 -41.5q-106 0 -192.5 30.5t-148 93 t-94 159.5t-32.5 233q0 115 35.5 214t102.5 171.5t160 114.5t210 42q102 0 187 -29.5t146.5 -91t96.5 -158t35 -231.5zM307 1247v160h531v-160h-531z" />
<glyph unicode="&#x150;" horiz-adv-x="1441" d="M1126 686q0 252 -105.5 386t-299.5 134q-80 0 -153.5 -31.5t-129 -95t-89.5 -158t-34 -219.5q0 -117 25 -214t74 -165.5t124.5 -106.5t178.5 -38q76 0 149.5 31t132 94.5t93 158.5t34.5 224zM1364 709q0 -172 -52 -307.5t-142.5 -229.5t-211 -143t-258.5 -49 q-158 0 -274.5 49t-194 140t-115.5 219t-38 288q0 172 52 307t142 228.5t211 142.5t258 49q139 0 254 -43t197 -130t127 -217t45 -304zM529 1473l-74 100l297 221l94 -129zM940 1475l-67 104l323 201l86 -138z" />
<glyph unicode="&#x151;" horiz-adv-x="1124" d="M823 514q0 164 -63.5 252t-194.5 88q-49 0 -96 -19.5t-84 -60.5t-59.5 -104.5t-22.5 -151.5q0 -174 65.5 -262t194.5 -88q53 0 100.5 20.5t83 63.5t56 108.5t20.5 153.5zM1049 528q0 -117 -37 -217t-103.5 -174t-160 -115.5t-205.5 -41.5q-106 0 -192.5 30.5t-148 93 t-94 159.5t-32.5 233q0 115 35.5 214t102.5 171.5t160 114.5t210 42q102 0 187 -29.5t146.5 -91t96.5 -158t35 -231.5zM412 1159l-105 90l252 301l131 -110zM782 1159l-100 90l277 287l123 -117z" />
<glyph unicode="&#x152;" horiz-adv-x="1765" d="M907 1178q-43 14 -87 21t-97 7q-80 0 -153.5 -31.5t-130 -95t-90.5 -158t-34 -219.5q0 -117 25 -214t74 -165.5t124.5 -106.5t178.5 -38q47 0 96 8.5t94 22.5v969zM924 0q-53 -10 -109.5 -15t-114.5 -5q-158 0 -274.5 49t-194 140t-115.5 219t-38 288q0 172 52 307 t142 228.5t209 142.5t254 49q117 0 211 -21h690v-186h-506v-393h480v-182h-480v-431h506v-190h-712z" />
<glyph unicode="&#x153;" horiz-adv-x="1775" d="M821 514q0 164 -63.5 252t-194.5 88q-49 0 -96 -19.5t-84 -60.5t-59.5 -104.5t-22.5 -151.5q0 -174 65.5 -262t194.5 -88q53 0 100.5 20.5t83 63.5t56 108.5t20.5 153.5zM1468 643q4 111 -51 172.5t-153 61.5q-92 0 -152.5 -62.5t-75.5 -171.5h432v0zM1688 598 q0 -43 -7 -106h-649q-4 -174 72 -255t229 -81q74 0 148.5 15t144.5 46l29 -172q-80 -33 -172 -49t-189 -16q-147 0 -239 50t-146 140q-55 -84 -147 -137t-221 -53q-106 0 -192.5 29.5t-148 93t-94 160.5t-32.5 233q0 117 35.5 216t102.5 171.5t160 113.5t210 41 q104 0 199.5 -42t152.5 -132q53 78 137 126t201 48q109 0 187.5 -34.5t128.5 -95t75 -140.5t25 -170z" />
<glyph unicode="&#x154;" horiz-adv-x="1144" d="M780 991q0 115 -69.5 166t-210.5 51q-33 0 -62.5 -1t-54.5 -3v-438q16 -2 44 -3t65 -1q135 0 211.5 62.5t76.5 166.5zM823 0l-415 598h-25v-598h-223v1382q76 4 165 6.5t205 2.5q106 0 195.5 -20.5t154 -64.5t99.5 -116t35 -174q0 -84 -30 -150.5t-81 -117t-119.5 -81 t-146.5 -38.5q29 -37 59.5 -75t55.5 -73l352 -481h-281zM453 1477l-39 122l395 152l56 -162z" />
<glyph unicode="&#x155;" horiz-adv-x="727" d="M680 821q-154 29 -227.5 -74.5t-73.5 -332.5v-414h-219v1018h209q0 -43 -5.5 -104.5t-15.5 -120.5h4q16 51 45 98t70 82t96 53t127 10zM389 1159l-86 117l311 256l111 -146z" />
<glyph unicode="&#x156;" horiz-adv-x="1144" d="M780 991q0 115 -69.5 166t-210.5 51q-33 0 -62.5 -1t-54.5 -3v-438q16 -2 44 -3t65 -1q135 0 211.5 62.5t76.5 166.5zM823 0l-415 598h-25v-598h-223v1382q76 4 165 6.5t205 2.5q106 0 195.5 -20.5t154 -64.5t99.5 -116t35 -174q0 -84 -30 -150.5t-81 -117t-119.5 -81 t-146.5 -38.5q29 -37 59.5 -75t55.5 -73l352 -481h-281zM590 -98q53 0 86 -42t25.5 -102.5t-64.5 -129t-186 -122.5l-46 80q78 53 91.5 94t-2.5 76q-12 27 -10.5 52.5t15 46t37 34t54.5 13.5z" />
<glyph unicode="&#x157;" horiz-adv-x="727" d="M680 821q-154 29 -227.5 -74.5t-73.5 -332.5v-414h-219v1018h209q0 -43 -5.5 -104.5t-15.5 -120.5h4q16 51 45 98t70 82t96 53t127 10zM293 -98q53 0 86 -42t25.5 -102.5t-64.5 -129t-186 -122.5l-46 80q78 53 91.5 94t-2.5 76q-12 27 -10.5 52.5t15 46t37 34t54.5 13.5z " />
<glyph unicode="&#x158;" horiz-adv-x="1144" d="M780 991q0 115 -69.5 166t-210.5 51q-33 0 -62.5 -1t-54.5 -3v-438q16 -2 44 -3t65 -1q135 0 211.5 62.5t76.5 166.5zM823 0l-415 598h-25v-598h-223v1382q76 4 165 6.5t205 2.5q106 0 195.5 -20.5t154 -64.5t99.5 -116t35 -174q0 -84 -30 -150.5t-81 -117t-119.5 -81 t-146.5 -38.5q29 -37 59.5 -75t55.5 -73l352 -481h-281zM540 1475l-332 165l58 123l282 -121l269 119l53 -112z" />
<glyph unicode="&#x159;" horiz-adv-x="727" d="M680 821q-154 29 -227.5 -74.5t-73.5 -332.5v-414h-219v1018h209q0 -43 -5.5 -104.5t-15.5 -120.5h4q16 51 45 98t70 82t96 53t127 10zM426 1159l-297 271l92 102l207 -170l207 170l90 -100z" />
<glyph unicode="&#x15a;" horiz-adv-x="1030" d="M942 414q0 -94 -37 -174t-105.5 -137.5t-164.5 -90t-213 -32.5q-90 0 -168 10t-143 28l24 213q68 -27 142.5 -42t152.5 -15q55 0 104.5 11.5t86 37t58 65.5t21.5 97q0 72 -45 115t-112.5 74.5t-145.5 59.5t-145.5 72t-112.5 112.5t-45 180.5q0 88 33 163t97.5 128 t156.5 83t213 30q59 0 125.5 -7t124.5 -20l-23 -196q-55 18 -115.5 28.5t-121.5 10.5q-131 0 -192.5 -53.5t-61.5 -139.5q0 -70 45 -112t113.5 -73.5t147.5 -61t147.5 -75t113.5 -113.5t45 -177zM444 1477l-39 122l395 152l56 -162z" />
<glyph unicode="&#x15b;" horiz-adv-x="862" d="M770 311q0 -72 -30.5 -133t-87 -105t-138.5 -68.5t-182 -24.5q-59 0 -118.5 7t-107.5 21l17 187q47 -18 105.5 -28.5t117.5 -10.5q86 0 140.5 35.5t54.5 97.5q0 51 -33 79.5t-83 47t-107.5 36t-107.5 48t-83 83t-33 140.5q0 68 25.5 125t77 99t130.5 66.5t183 24.5 q47 0 97 -5t95 -15l-12 -176q-92 29 -192 28q-92 0 -135.5 -33.5t-43.5 -93.5q0 -49 34 -77.5t83 -48t108.5 -38t108.5 -49t83 -82t34 -137.5zM399 1159l-86 117l311 256l111 -146z" />
<glyph unicode="&#x15e;" horiz-adv-x="1030" d="M942 414q0 -94 -37 -174t-105.5 -137.5t-164.5 -90t-213 -32.5q-90 0 -168 10t-143 28l24 213q68 -27 142.5 -42t152.5 -15q55 0 104.5 11.5t86 37t58 65.5t21.5 97q0 72 -45 115t-112.5 74.5t-145.5 59.5t-145.5 72t-112.5 112.5t-45 180.5q0 88 33 163t97.5 128 t156.5 83t213 30q59 0 125.5 -7t124.5 -20l-23 -196q-55 18 -115.5 28.5t-121.5 10.5q-131 0 -192.5 -53.5t-61.5 -139.5q0 -70 45 -112t113.5 -73.5t147.5 -61t147.5 -75t113.5 -113.5t45 -177zM567 -82q80 -106 62.5 -204.5t-105.5 -194.5h-170q78 94 90.5 169.5 t-61.5 166.5l184 63v0z" />
<glyph unicode="&#x15f;" horiz-adv-x="862" d="M770 311q0 -72 -30.5 -133t-87 -105t-138.5 -68.5t-182 -24.5q-59 0 -118.5 7t-107.5 21l17 187q47 -18 105.5 -28.5t117.5 -10.5q86 0 140.5 35.5t54.5 97.5q0 51 -33 79.5t-83 47t-107.5 36t-107.5 48t-83 83t-33 140.5q0 68 25.5 125t77 99t130.5 66.5t183 24.5 q47 0 97 -5t95 -15l-12 -176q-92 29 -192 28q-92 0 -135.5 -33.5t-43.5 -93.5q0 -49 34 -77.5t83 -48t108.5 -38t108.5 -49t83 -82t34 -137.5zM497 -82q80 -106 62.5 -204.5t-105.5 -194.5h-170q78 94 90.5 169.5t-61.5 166.5l184 63v0z" />
<glyph unicode="&#x160;" horiz-adv-x="1030" d="M942 414q0 -94 -37 -174t-105.5 -137.5t-164.5 -90t-213 -32.5q-90 0 -168 10t-143 28l24 213q68 -27 142.5 -42t152.5 -15q55 0 104.5 11.5t86 37t58 65.5t21.5 97q0 72 -45 115t-112.5 74.5t-145.5 59.5t-145.5 72t-112.5 112.5t-45 180.5q0 88 33 163t97.5 128 t156.5 83t213 30q59 0 125.5 -7t124.5 -20l-23 -196q-55 18 -115.5 28.5t-121.5 10.5q-131 0 -192.5 -53.5t-61.5 -139.5q0 -70 45 -112t113.5 -73.5t147.5 -61t147.5 -75t113.5 -113.5t45 -177zM520 1475l-332 165l58 123l282 -121l269 119l53 -112z" />
<glyph unicode="&#x161;" horiz-adv-x="862" d="M770 311q0 -72 -30.5 -133t-87 -105t-138.5 -68.5t-182 -24.5q-59 0 -118.5 7t-107.5 21l17 187q47 -18 105.5 -28.5t117.5 -10.5q86 0 140.5 35.5t54.5 97.5q0 51 -33 79.5t-83 47t-107.5 36t-107.5 48t-83 83t-33 140.5q0 68 25.5 125t77 99t130.5 66.5t183 24.5 q47 0 97 -5t95 -15l-12 -176q-92 29 -192 28q-92 0 -135.5 -33.5t-43.5 -93.5q0 -49 34 -77.5t83 -48t108.5 -38t108.5 -49t83 -82t34 -137.5zM434 1159l-297 271l92 102l207 -170l207 170l90 -100z" />
<glyph unicode="&#x162;" horiz-adv-x="1052" d="M637 1194v-1194h-223v1194h-379v188h983v-188h-381zM608 -82q80 -106 62.5 -204.5t-105.5 -194.5h-170q78 94 90.5 169.5t-61.5 166.5l184 63v0z" />
<glyph unicode="&#x163;" horiz-adv-x="763" d="M698 6q-47 -10 -104 -17t-109 -7q-82 0 -136 16t-87 53t-46 96.5t-13 145.5v555h-195v170h195v323l219 60v-383h266v-170h-266v-488q0 -57 6 -94t21.5 -58.5t41 -30.5t64.5 -9q35 0 65.5 4t59.5 10l18 -176v0zM524 -82q80 -106 62.5 -204.5t-105.5 -194.5h-170 q78 94 90.5 169.5t-61.5 166.5l184 63v0z" />
<glyph unicode="&#x164;" horiz-adv-x="1052" d="M637 1194v-1194h-223v1194h-379v188h983v-188h-381zM522 1475l-332 165l58 123l282 -121l269 119l53 -112z" />
<glyph unicode="&#x165;" horiz-adv-x="772" d="M698 6q-47 -10 -104 -17t-109 -7q-82 0 -136 16t-87 53t-46 96.5t-13 145.5v555h-195v170h195v323l219 60v-383h266v-170h-266v-488q0 -57 6 -94t21.5 -58.5t41 -30.5t64.5 -9q35 0 65.5 4t59.5 10l18 -176v0zM667 1145l-143 37l109 391l178 -43z" />
<glyph unicode="&#x16a;" horiz-adv-x="1406" d="M1247 532q0 -279 -143 -415.5t-418 -136.5q-164 0 -266.5 40.5t-159.5 109.5t-78.5 157t-21.5 184v911h223v-895q0 -70 13.5 -129t49 -102t97 -67.5t157.5 -24.5q84 0 146.5 18.5t102.5 60.5t59.5 109.5t19.5 163.5v866h219v-850v0zM415 1526v143h580v-143h-580z" />
<glyph unicode="&#x16b;" horiz-adv-x="1173" d="M805 0q0 41 3 99.5t11 101.5h-2q-45 -98 -135 -159.5t-219 -61.5q-86 0 -144.5 25.5t-94.5 70.5t-50 103.5t-14 125.5v713h217v-653q0 -96 31.5 -149.5t119.5 -53.5q57 0 106.5 28.5t84.5 77.5t55.5 116t20.5 144v490h219v-1018h-209zM321 1247v160h531v-160h-531z" />
<glyph unicode="&#x16e;" horiz-adv-x="1406" d="M1247 532q0 -279 -143 -415.5t-418 -136.5q-164 0 -266.5 40.5t-159.5 109.5t-78.5 157t-21.5 184v911h223v-895q0 -70 13.5 -129t49 -102t97 -67.5t157.5 -24.5q84 0 146.5 18.5t102.5 60.5t59.5 109.5t19.5 163.5v866h219v-850v0zM804 1583q0 41 -29.5 72t-70.5 31 q-43 0 -71.5 -31t-28.5 -72t28.5 -71.5t71.5 -30.5q41 0 70.5 30.5t29.5 71.5zM931 1585q0 -45 -18.5 -85t-49 -70.5t-72.5 -48t-89 -17.5q-94 0 -159.5 61.5t-65.5 155.5q0 47 18.5 87t49 68.5t72.5 46t87 17.5q96 0 161.5 -61.5t65.5 -153.5z" />
<glyph unicode="&#x16f;" horiz-adv-x="1173" d="M805 0q0 41 3 99.5t11 101.5h-2q-45 -98 -135 -159.5t-219 -61.5q-86 0 -144.5 25.5t-94.5 70.5t-50 103.5t-14 125.5v713h217v-653q0 -96 31.5 -149.5t119.5 -53.5q57 0 106.5 28.5t84.5 77.5t55.5 116t20.5 144v490h219v-1018h-209zM695 1346q0 47 -31 79.5t-78 32.5 t-79 -32.5t-32 -79.5t32 -80t79 -33t78 33t31 80zM832 1350q0 -49 -19.5 -93.5t-53.5 -76t-79 -51t-96 -19.5t-95 17.5t-78 48t-53.5 73.5t-19.5 94t20.5 94.5t54.5 75t79 50t94 18.5q51 0 96 -17.5t78 -48t52.5 -73.5t19.5 -92z" />
<glyph unicode="&#x170;" horiz-adv-x="1406" d="M1247 532q0 -279 -143 -415.5t-418 -136.5q-164 0 -266.5 40.5t-159.5 109.5t-78.5 157t-21.5 184v911h223v-895q0 -70 13.5 -129t49 -102t97 -67.5t157.5 -24.5q84 0 146.5 18.5t102.5 60.5t59.5 109.5t19.5 163.5v866h219v-850v0zM481 1473l-74 100l297 221l94 -129z M892 1475l-67 104l323 201l86 -138z" />
<glyph unicode="&#x171;" horiz-adv-x="1173" d="M805 0q0 41 3 99.5t11 101.5h-2q-45 -98 -135 -159.5t-219 -61.5q-86 0 -144.5 25.5t-94.5 70.5t-50 103.5t-14 125.5v713h217v-653q0 -96 31.5 -149.5t119.5 -53.5q57 0 106.5 28.5t84.5 77.5t55.5 116t20.5 144v490h219v-1018h-209zM420 1159l-105 90l252 301l131 -110 zM790 1159l-100 90l277 287l123 -117z" />
<glyph unicode="&#x172;" horiz-adv-x="1406" d="M1247 532q0 -362 -250 -489q-100 -51 -158.5 -122t-58.5 -130q0 -31 19.5 -48t52.5 -17q55 0 102 63l90 -98q-49 -66 -115.5 -101.5t-150.5 -35.5q-104 0 -157.5 48t-53.5 126q0 61 37 128.5t113 127.5q-12 0 -26.5 -1t-28.5 -1q-145 0 -241.5 38.5t-155 104t-82 155 t-23.5 191.5v911h223v-895q0 -70 13.5 -129t49 -102t97 -67.5t157.5 -24.5q84 0 146.5 18.5t102.5 60.5t59.5 109.5t19.5 163.5v866h219v-850v0z" />
<glyph unicode="&#x173;" horiz-adv-x="1173" d="M1124 -299q-49 -72 -120.5 -109.5t-151.5 -37.5q-88 0 -142.5 43t-54.5 131q0 92 54.5 164.5t126.5 123.5q-8 41 -13.5 88.5t-3.5 85.5h-2q-47 -92 -136 -151t-218 -59q-86 0 -144.5 25.5t-94.5 70.5t-50 103.5t-14 125.5v713h217v-653q0 -96 31.5 -149.5t119.5 -53.5 q57 0 106.5 28.5t84.5 77.5t55.5 116t20.5 144v490h219v-668q0 -92 8 -182t25 -168q-98 -53 -141.5 -105.5t-43.5 -99.5q0 -63 70 -63q27 0 54.5 17.5t47.5 47.5l90 -96v0z" />
<glyph unicode="&#x178;" horiz-adv-x="1122" d="M668 494v-494h-224v494l-432 888h244l205 -436q55 -123 98 -233h4q23 61 52.5 126.5t62.5 131.5l194 411h236zM467 1602q0 -51 -34.5 -85t-86.5 -34q-51 0 -85.5 33.5t-34.5 85.5q0 51 34.5 85.5t85.5 34.5t86 -34.5t35 -85.5zM908 1602q0 -51 -35 -85t-86 -34t-86 33.5 t-35 85.5q0 51 35 85.5t86 34.5t86 -34.5t35 -85.5z" />
<glyph unicode="&#x179;" horiz-adv-x="1101" d="M92 0v170l545 866q25 41 49.5 77t52.5 73q-45 -2 -110 -2h-170h-346v198h891v-176l-574 -895q-16 -29 -33.5 -55.5t-38.5 -54.5q29 4 109 4h215h330v-205h-920zM479 1477l-39 122l395 152l56 -162z" />
<glyph unicode="&#x17a;" horiz-adv-x="919" d="M96 0v156l453 669q-39 -2 -103.5 -3t-142.5 -1h-197v197h703v-154l-447 -667q55 2 100.5 3t88.5 1h266v-201h-721zM420 1159l-86 117l311 256l111 -146z" />
<glyph unicode="&#x17b;" horiz-adv-x="1101" d="M92 0v170l545 866q25 41 49.5 77t52.5 73q-45 -2 -110 -2h-170h-346v198h891v-176l-574 -895q-16 -29 -33.5 -55.5t-38.5 -54.5q29 4 109 4h215h330v-205h-920zM680 1604q0 -51 -36.5 -87t-90.5 -36q-53 0 -90 34.5t-37 88.5q0 51 37 88t90 37t90 -36t37 -89z" />
<glyph unicode="&#x17c;" horiz-adv-x="919" d="M96 0v156l453 669q-39 -2 -103.5 -3t-142.5 -1h-197v197h703v-154l-447 -667q55 2 100.5 3t88.5 1h266v-201h-721zM594 1335q0 -57 -41 -97t-100 -40t-99.5 39t-40.5 98q0 57 40 97.5t100 40.5q59 0 100 -40.5t41 -97.5z" />
<glyph unicode="&#x17d;" horiz-adv-x="1101" d="M92 0v170l545 866q25 41 49.5 77t52.5 73q-45 -2 -110 -2h-170h-346v198h891v-176l-574 -895q-16 -29 -33.5 -55.5t-38.5 -54.5q29 4 109 4h215h330v-205h-920zM559 1475l-332 165l58 123l282 -121l269 119l53 -112z" />
<glyph unicode="&#x17e;" horiz-adv-x="919" d="M96 0v156l453 669q-39 -2 -103.5 -3t-142.5 -1h-197v197h703v-154l-447 -667q55 2 100.5 3t88.5 1h266v-201h-721zM459 1159l-297 271l92 102l207 -170l207 170l90 -100z" />
<glyph unicode="&#x192;" d="M1032 1227q-47 16 -93 24.5t-85 8.5q-94 0 -140 -54.5t-59 -177.5l-26 -283h299v-170h-316l-45 -475q-20 -225 -130.5 -326.5t-307.5 -101.5q-41 0 -91 6.5t-97 18.5l28 184q43 -12 92.5 -21.5t90.5 -9.5q90 0 137 53.5t57 176.5l47 495h-233v170h250l26 265 q23 225 132.5 326.5t305.5 101.5q43 0 92.5 -7.5t92.5 -17.5z" />
<glyph unicode="&#x218;" horiz-adv-x="1030" d="M942 414q0 -94 -37 -174t-105.5 -137.5t-164.5 -90t-213 -32.5q-90 0 -168 10t-143 28l24 213q68 -27 142.5 -42t152.5 -15q55 0 104.5 11.5t86 37t58 65.5t21.5 97q0 72 -45 115t-112.5 74.5t-145.5 59.5t-145.5 72t-112.5 112.5t-45 180.5q0 88 33 163t97.5 128 t156.5 83t213 30q59 0 125.5 -7t124.5 -20l-23 -196q-55 18 -115.5 28.5t-121.5 10.5q-131 0 -192.5 -53.5t-61.5 -139.5q0 -70 45 -112t113.5 -73.5t147.5 -61t147.5 -75t113.5 -113.5t45 -177zM510 -98q53 0 86 -42t25.5 -102.5t-64.5 -129t-186 -122.5l-46 80 q78 53 91.5 94t-2.5 76q-12 27 -10.5 52.5t15 46t37 34t54.5 13.5z" />
<glyph unicode="&#x219;" horiz-adv-x="862" d="M770 311q0 -72 -30.5 -133t-87 -105t-138.5 -68.5t-182 -24.5q-59 0 -118.5 7t-107.5 21l17 187q47 -18 105.5 -28.5t117.5 -10.5q86 0 140.5 35.5t54.5 97.5q0 51 -33 79.5t-83 47t-107.5 36t-107.5 48t-83 83t-33 140.5q0 68 25.5 125t77 99t130.5 66.5t183 24.5 q47 0 97 -5t95 -15l-12 -176q-92 29 -192 28q-92 0 -135.5 -33.5t-43.5 -93.5q0 -49 34 -77.5t83 -48t108.5 -38t108.5 -49t83 -82t34 -137.5zM441 -98q53 0 86 -42t25.5 -102.5t-64.5 -129t-186 -122.5l-46 80q78 53 91.5 94t-2.5 76q-12 27 -10.5 52.5t15 46t37 34 t54.5 13.5z" />
<glyph unicode="&#x21a;" horiz-adv-x="1052" d="M637 1194v-1194h-223v1194h-379v188h983v-188h-381zM535 -98q53 0 86 -42t25.5 -102.5t-64.5 -129t-186 -122.5l-46 80q78 53 91.5 94t-2.5 76q-12 27 -10.5 52.5t15 46t37 34t54.5 13.5z" />
<glyph unicode="&#x21b;" horiz-adv-x="763" d="M698 6q-47 -10 -104 -17t-109 -7q-82 0 -136 16t-87 53t-46 96.5t-13 145.5v555h-195v170h195v323l219 60v-383h266v-170h-266v-488q0 -57 6 -94t21.5 -58.5t41 -30.5t64.5 -9q35 0 65.5 4t59.5 10l18 -176v0zM451 -98q53 0 86 -42t25.5 -102.5t-64.5 -129t-186 -122.5 l-46 80q78 53 91.5 94t-2.5 76q-12 27 -10.5 52.5t15 46t37 34t54.5 13.5z" />
<glyph unicode="&#x2c6;" horiz-adv-x="880" d="M643 1159l-207 170l-209 -170l-88 101l299 272l297 -270z" />
<glyph unicode="&#x2c7;" horiz-adv-x="880" d="M432 1159l-297 271l92 102l207 -170l207 170l90 -100z" />
<glyph unicode="&#x2d8;" horiz-adv-x="794" d="M664 1473q0 -57 -14.5 -107.5t-48.5 -93.5t-85 -67.5t-123 -24.5q-70 0 -121 24.5t-82.5 66.5t-46 93t-14.5 109h145q0 -57 31 -95.5t90 -38.5q55 0 88 34t33 100h148v0z" />
<glyph unicode="&#x2d9;" horiz-adv-x="583" d="M426 1335q0 -57 -41 -97t-100 -40t-99.5 39t-40.5 98q0 57 40 97.5t100 40.5q59 0 100 -40.5t41 -97.5z" />
<glyph unicode="&#x2da;" horiz-adv-x="768" d="M494 1346q0 47 -31 79.5t-78 32.5t-79 -32.5t-32 -79.5t32 -80t79 -33t78 33t31 80zM631 1350q0 -49 -19.5 -93.5t-53.5 -76t-79 -51t-96 -19.5t-95 17.5t-78 48t-53.5 73.5t-19.5 94t20.5 94.5t54.5 75t79 50t94 18.5q51 0 96 -17.5t78 -48t52.5 -73.5t19.5 -92z" />
<glyph unicode="&#x2db;" horiz-adv-x="929" d="M379 0q-100 -53 -142 -106.5t-42 -100.5q0 -33 19 -48t50 -15q57 0 103 65l90 -96q-49 -72 -121 -108.5t-152 -36.5q-88 0 -142 43t-54 131q0 78 49 154.5t135 135.5z" />
<glyph unicode="&#x2dc;" horiz-adv-x="976" d="M850 1370q-88 -170 -236 -170q-51 0 -85.5 17.5t-62.5 38t-52.5 37t-55.5 16.5q-68 0 -118 -95l-107 82q41 84 100.5 127t135.5 43q49 0 83.5 -17t62.5 -36.5t53.5 -37t56.5 -17.5q66 0 118 94l107 -82v0z" />
<glyph unicode="&#x2dd;" horiz-adv-x="1019" d="M248 1159l-105 90l252 301l131 -110zM618 1159l-100 90l277 287l123 -117z" />
<glyph unicode="&#x312;" horiz-adv-x="948" d="M330 1155q-49 0 -81 36t-32 91q0 31 12.5 66.5t42 71.5t77.5 70t120 60l45 -82q-57 -35 -77.5 -65.5t-20.5 -59.5q0 -31 11 -44t11 -42q0 -47 -30.5 -74.5t-77.5 -27.5z" />
<glyph unicode="&#x315;" horiz-adv-x="737" d="M356 1145l-143 37l109 391l178 -43z" />
<glyph unicode="&#x326;" horiz-adv-x="579" d="M289 -98q53 0 86 -42t25.5 -102.5t-64.5 -129t-186 -122.5l-46 80q78 53 91.5 94t-2.5 76q-12 27 -10.5 52.5t15 46t37 34t54.5 13.5z" />
<glyph unicode="&#x394;" horiz-adv-x="1251" d="M57 0v166l428 1216h273l436 -1216v-166h-1137zM662 997q-16 47 -26.5 89t-21.5 90h-2q-10 -47 -22 -93.5t-27 -91.5l-274 -792h651z" />
<glyph unicode="&#x3a9;" horiz-adv-x="1468" d="M868 0v178q129 96 195.5 221t66.5 312q0 106 -24.5 198t-74.5 158t-125 102.5t-177 36.5q-82 0 -154.5 -33.5t-125 -97t-83 -157t-30.5 -203.5q0 -96 14.5 -170t46 -136.5t80.5 -115.5t123 -113v-180h-516v182h272q-117 84 -187.5 218.5t-70.5 314.5q0 156 51.5 284.5 t139.5 218t207.5 137.5t257.5 48q129 0 241.5 -40t195.5 -123t130 -210t47 -293q0 -100 -20.5 -181t-57.5 -149.5t-82 -123t-106 -101.5h282v-182h-516z" />
<glyph unicode="&#x3bc;" horiz-adv-x="1198" d="M1133 -8q-25 -4 -47.5 -6t-43.5 -2q-125 0 -171 58t-44 155l-2 2q-41 -98 -119.5 -156.5t-195.5 -58.5q-49 0 -89 15t-63 46l25 -545h-223v1518h219v-666q0 -190 151 -190q57 0 106.5 26.5t85.5 75.5t55.5 118t19.5 150v486h217v-660q0 -61 5 -99t18.5 -59.5t37 -28.5 t58.5 -7v-172v0z" />
<glyph unicode="&#x3c0;" horiz-adv-x="1294" d="M993 838q0 -182 8.5 -310.5t24.5 -208.5q16 -90 41 -121.5t63 -31.5q37 0 78 10l21 -176q-27 -8 -64 -12t-78 -4q-61 0 -107 14t-79 47t-55.5 86t-36.5 131q-18 94 -27.5 241.5t-9.5 334.5h-303q4 -211 -23.5 -428t-97.5 -428l-237 36q76 213 113.5 412t33.5 408h-233 v180h1202v-180h-234z" />
<glyph unicode="&#x2013;" d="M0 514v191h1126v-191h-1126z" />
<glyph unicode="&#x2014;" horiz-adv-x="2048" d="M236 514v191h1576v-191h-1576z" />
<glyph unicode="&#x2018;" horiz-adv-x="520" d="M440 1458q-51 -53 -78.5 -98t-36 -82t0 -67.5t28.5 -55.5q25 -31 28 -67.5t-11.5 -68.5t-45 -54.5t-73.5 -22.5q-63 0 -105.5 50t-40 133t57.5 190.5t184 224.5l92 -82v0z" />
<glyph unicode="&#x2019;" horiz-adv-x="520" d="M266 1526q63 0 104.5 -50.5t40.5 -133t-56.5 -190.5t-184.5 -224l-92 82q49 55 76.5 99t36 81t1 67.5t-27.5 55.5q-25 31 -29 67.5t10.5 68.5t45 54.5t75.5 22.5z" />
<glyph unicode="&#x201a;" horiz-adv-x="520" d="M266 264q63 0 104.5 -50t40.5 -133t-56.5 -190.5t-184.5 -224.5l-92 82q49 55 76.5 100.5t36 82t1 66.5t-27.5 54q-25 31 -29 68t10.5 69.5t45 54t75.5 21.5z" />
<glyph unicode="&#x201c;" horiz-adv-x="935" d="M440 1458q-51 -53 -78.5 -98t-36 -82t0 -67.5t28.5 -55.5q25 -31 28 -67.5t-11.5 -67.5t-45 -53.5t-73.5 -22.5q-63 0 -105.5 49t-40 132t57.5 190.5t184 224.5l92 -82v0zM856 1458q-51 -53 -78.5 -98t-36 -82t0 -67.5t28.5 -55.5q25 -31 28 -67.5t-11.5 -68.5t-45 -53.5 t-75.5 -21.5q-63 0 -104.5 49t-40.5 132t57.5 190.5t185.5 224.5l92 -82v0z" />
<glyph unicode="&#x201d;" horiz-adv-x="933" d="M266 1526q63 0 104.5 -50.5t40.5 -133t-56.5 -190.5t-184.5 -224l-92 82q49 55 76.5 99t36 81t1 67.5t-27.5 55.5q-25 31 -29 67.5t10.5 68.5t45 54.5t75.5 22.5zM682 1526q63 0 104 -50.5t40 -133t-57 -190.5t-185 -224l-92 82q51 55 78.5 99t35.5 81t0 67.5t-28 55.5 q-25 31 -28 67.5t11 68.5t45 54.5t76 22.5z" />
<glyph unicode="&#x201e;" horiz-adv-x="933" d="M266 264q63 0 104.5 -50t40.5 -133t-56.5 -190.5t-184.5 -224.5l-92 82q49 55 76.5 100.5t36 82t1 66.5t-27.5 54q-25 31 -29 68t10.5 69.5t45 54t75.5 21.5zM682 264q63 0 104 -50t40 -133t-57 -190.5t-185 -224.5l-92 82q51 55 78.5 100.5t35.5 82t0 66.5t-28 54 q-25 31 -28 68t11 69.5t45 54t76 21.5z" />
<glyph unicode="&#x2020;" horiz-adv-x="925" d="M551 1118l39 -190l-43 -518h-168l-43 518l39 190h-283v170h283l-39 281h254l-39 -281h283v-170h-283z" />
<glyph unicode="&#x2021;" horiz-adv-x="925" d="M553 598l39 -260h-258l39 260h-281v168h281l-37 186l37 189h-281v168h281l-37 260h254l-37 -260h281v-168h-281l37 -189l-37 -186h281v-168h-281z" />
<glyph unicode="&#x2022;" horiz-adv-x="862" d="M705 608q0 -55 -21.5 -105t-58.5 -87t-87.5 -58.5t-105.5 -21.5q-57 0 -106.5 21.5t-86 58.5t-58 87t-21.5 105t21.5 105.5t58 87.5t86 58.5t106.5 21.5q55 0 105.5 -21.5t87.5 -58.5t58.5 -87.5t21.5 -105.5z" />
<glyph unicode="&#x2026;" horiz-adv-x="1415" d="M383 119q0 -57 -41 -98t-100 -41q-57 0 -98.5 40.5t-41.5 98.5q0 59 41 100t99 41q59 0 100 -41t41 -100zM840 119q0 -57 -41 -98t-101 -41q-57 0 -98 40.5t-41 98.5q0 59 41 100t98 41q59 0 100.5 -41t41.5 -100zM1296 119q0 -57 -41 -98t-98 -41q-59 0 -100 40.5 t-41 98.5q0 59 41 100t100 41q57 0 98 -41t41 -100z" />
<glyph unicode="&#x2030;" horiz-adv-x="2123" d="M664 1102q0 -78 -24 -139.5t-64.5 -104.5t-94 -65.5t-112.5 -22.5q-127 0 -203 75t-76 230q0 76 23.5 137.5t64.5 103.5t94.5 64.5t112.5 22.5t110.5 -16.5t88.5 -53.5t58.5 -94t21.5 -137zM500 1087q0 92 -29 133.5t-90 41.5q-57 0 -91 -47.5t-34 -129.5 q0 -92 30.5 -133t90.5 -41q55 0 89 46t34 130zM252 -37l-133 103l1073 1351l133 -102zM1356 311q0 -78 -23.5 -139t-64.5 -104t-94.5 -65.5t-112.5 -22.5q-127 0 -203 74.5t-76 230.5q0 76 23.5 137t64.5 103t94.5 64.5t112.5 22.5t110.5 -16t88.5 -53t58.5 -94.5 t21.5 -137.5zM1192 297q0 92 -28.5 133t-90.5 41q-57 0 -91 -47t-34 -129q0 -92 30 -133t91 -41q55 0 89 46t34 130zM2017 311q0 -78 -23.5 -139t-64.5 -104t-95 -65.5t-114 -22.5q-125 0 -200.5 74.5t-75.5 230.5q0 76 23.5 137t64.5 103t94 64.5t113 22.5q59 0 110.5 -16 t88 -53t58 -94.5t21.5 -137.5zM1853 297q0 92 -29.5 133t-90.5 41q-55 0 -89 -47t-34 -129q0 -92 29.5 -133t89.5 -41q55 0 89.5 46t34.5 130z" />
<glyph unicode="&#x2039;" horiz-adv-x="641" d="M336 221l-238 379l242 383l164 -84l-193 -299l195 -293z" />
<glyph unicode="&#x203a;" horiz-adv-x="641" d="M301 221l-164 84l193 299l-193 293l170 86l236 -379z" />
<glyph unicode="&#x2044;" horiz-adv-x="417" d="M-360 -297l-140 96l1321 1852l137 -97z" />
<glyph unicode="&#x20ac;" d="M1059 47q-78 -35 -166 -51t-174 -16q-221 0 -354.5 109.5t-167.5 354.5h-174v140h161q-2 29 -2 37v24q0 35 1 55.5t3 53.5h-163v139h184q20 100 63 184t111 145.5t163 95.5t218 34q72 0 147.5 -15.5t134.5 -38.5l-53 -174q-49 23 -116.5 38.5t-135.5 15.5t-119 -21.5 t-87.5 -60.5t-60 -90.5t-38.5 -112.5h365v-139h-389q-2 -31 -2 -88v-82h391v-140h-371q27 -147 104.5 -216.5t223.5 -69.5q63 0 127.5 15t124.5 42l51 -168v0z" />
<glyph unicode="&#x2122;" horiz-adv-x="1421" d="M383 1249v-442h-160v442h-147v133h450v-133h-143zM1165 807l-41 278l-12 103l-20 -92l-82 -289h-156l-80 295l-20 86l-6 -74l-43 -307h-152l90 575h199l80 -286l20 -90l16 84l84 292h197l92 -575h-166z" />
<glyph unicode="&#x2202;" horiz-adv-x="1302" d="M877 487q0 102 -62.5 170t-185.5 68q-59 0 -109.5 -22.5t-86.5 -61.5t-55.5 -93t-19.5 -116q0 -129 64.5 -193.5t171.5 -64.5q61 0 112.5 23.5t89.5 65.5t59.5 99t21.5 125zM1163 827q0 -184 -46 -358t-152 -301q-72 -84 -174.5 -134t-225.5 -50q-104 0 -183 30.5 t-133 87t-81 135t-27 177.5q0 106 36 196t101.5 157t156.5 104.5t204 37.5q106 0 182 -45t115 -121q-4 49 -4 84q0 37 -4 72q-8 106 -45 186t-94.5 134.5t-133 80t-163.5 25.5l26 182q145 -2 264 -49t204 -134t131 -213t46 -284z" />
<glyph unicode="&#x220f;" horiz-adv-x="1605" d="M1309 1309v-1809h-207v1809h-596v-1809h-209v1809h-209v186h1428v-186h-207z" />
<glyph unicode="&#x2211;" horiz-adv-x="1245" d="M74 -500v170l616 846l-579 809v170h995v-186h-723l561 -785l-610 -831h803v-193h-1063z" />
<glyph unicode="&#x2212;" d="M84 514v191h958v-191h-958z" />
<glyph unicode="&#x221a;" horiz-adv-x="1253" d="M733 0h-254l-293 852h-182v166h363l180 -563q16 -53 32.5 -107.5t30.5 -109.5h4q20 106 50 202l307 1112h239z" />
<glyph unicode="&#x221e;" horiz-adv-x="2004" d="M831 608q-100 76 -183 124t-154 48q-86 0 -130.5 -50t-44.5 -118q0 -72 46.5 -120t132.5 -48q72 0 154.5 46t178.5 118zM1688 612q0 72 -47.5 120t-133.5 48q-72 0 -155.5 -47t-177.5 -119q100 -76 183 -123t156 -47q86 0 130.5 50t44.5 118zM1901 623q0 -76 -27 -142.5 t-77 -117t-125 -80t-171 -29.5q-121 0 -244.5 61.5t-261.5 165.5q-57 -43 -118.5 -84t-126 -72.5t-131 -51t-136.5 -19.5q-96 0 -166.5 27.5t-117.5 76t-71 110.5t-24 134q0 78 28 145.5t79 116.5t124 78t161 29q129 0 253.5 -64.5t260.5 -165.5q55 41 115.5 82t125 74 t132 53.5t135.5 20.5q92 0 163.5 -26.5t120.5 -74t74 -110.5t25 -137z" />
<glyph unicode="&#x222b;" horiz-adv-x="698" d="M649 1804q-20 6 -47 11.5t-53 5.5q-35 0 -60.5 -11.5t-42 -45t-24.5 -93t-8 -155.5q0 -82 3 -205t6 -269.5t8 -306.5t8 -314.5t6.5 -293.5t3.5 -244q0 -145 -20.5 -247.5t-60.5 -167t-102.5 -94t-144.5 -29.5q-27 0 -55.5 4t-55.5 8v192q20 -6 46 -10t48 -4q37 0 64 11.5 t43 44t24.5 91t8.5 152.5q0 78 -3 200t-6.5 268.5t-8.5 307t-8 316t-6 296t-3 246.5q0 147 22.5 251t64.5 167.5t104.5 92t142.5 28.5q25 0 53.5 -3t52.5 -9v-191v0z" />
<glyph unicode="&#x2248;" d="M1040 379q-53 -47 -125.5 -81t-150.5 -34q-72 0 -123 18.5t-94 42t-87 42t-102 18.5q-59 0 -109 -27.5t-89 -60.5l-74 149q47 43 116.5 83t153.5 40q70 0 121 -19.5t96 -42t92.5 -42t108.5 -19.5q104 0 195 82l71 -149v0zM1038 766q-49 -51 -117.5 -88t-154.5 -37 q-70 0 -119 18.5t-93 42t-89 42t-107 18.5q-59 0 -110 -26.5t-90 -59.5l-72 149q53 47 126 84t155 37q70 0 122 -19.5t97 -42t88 -42t96 -19.5t101.5 25.5t95.5 66.5l71 -149v0z" />
<glyph unicode="&#x2260;" d="M551 336l-107 -268h-194l106 268h-254v178h324l76 188h-400v179h469l109 272h197l-109 -272h256v-179h-328l-75 -188h403v-178h-473z" />
<glyph unicode="&#x2264;" d="M141 0v182h844v-182h-844zM829 276l-714 517l712 516l134 -150l-545 -364l545 -363z" />
<glyph unicode="&#x2265;" d="M141 0v182h844v-182h-844zM299 276l-133 150l545 367l-545 360l131 156l715 -514z" />
<glyph unicode="&#x25ca;" horiz-adv-x="1273" d="M627 1161l-328 -459l348 -481l330 457zM711 -18h-138l-516 714l510 705h133l517 -715z" />
<glyph unicode="&#x25fc;" horiz-adv-x="1013" d="M0 1014h1014v-1014h-1014v1014z" />
<glyph unicode="&#xf6c9;" horiz-adv-x="800" d="M217 1477l-39 122l395 152l56 -162z" />
<glyph unicode="&#xf6ca;" horiz-adv-x="880" d="M434 1475l-332 165l58 123l282 -121l269 119l53 -112z" />
<glyph unicode="&#xf6cb;" horiz-adv-x="1118" d="M438 1602q0 -51 -34.5 -85t-86.5 -34q-51 0 -85.5 33.5t-34.5 85.5q0 51 34.5 85.5t85.5 34.5t86 -34.5t35 -85.5zM879 1602q0 -51 -35 -85t-86 -34t-86 33.5t-35 85.5q0 51 35 85.5t86 34.5t86 -34.5t35 -85.5z" />
<glyph unicode="&#xf6ce;" horiz-adv-x="759" d="M551 1477l-412 112l56 162l395 -152z" />
<glyph unicode="&#xf6cf;" horiz-adv-x="1019" d="M248 1473l-74 100l297 221l94 -129zM659 1475l-67 104l323 201l86 -138z" />
<glyph unicode="&#xf6d0;" horiz-adv-x="856" d="M139 1526v143h580v-143h-580z" />
<glyph unicode="&#xf730;" horiz-adv-x="1251" d="M1155 547q0 -137 -45 -241.5t-118.5 -176.5t-174 -110.5t-213.5 -38.5q-106 0 -199.5 30.5t-161 95t-107.5 166t-40 250.5q0 127 44 234.5t123 181.5t174 110.5t202 36.5q135 0 232.5 -42t161 -115.5t93 -172.5t29.5 -208zM936 537q0 78 -17.5 142t-57.5 116.5t-96 79 t-134 26.5q-66 0 -120 -23.5t-99 -70.5t-71 -115.5t-26 -152.5t19.5 -150.5t54.5 -115t93.5 -77t140.5 -28.5q63 0 117.5 24.5t98.5 71.5t70.5 115t26.5 158z" />
<glyph unicode="&#xf731;" horiz-adv-x="696" d="M299 0v860l-221 -94l-37 186l309 117h174v-1069h-225z" />
<glyph unicode="&#xf732;" horiz-adv-x="987" d="M102 0v176l240 203q154 123 192.5 171t55 82t16.5 87q0 78 -51 130t-149 52q-68 0 -137.5 -23.5t-114.5 -52.5l-31 187q76 35 155.5 54t176.5 19q190 0 291.5 -91t101.5 -236q0 -113 -64.5 -212.5t-195.5 -199.5l-189 -151l-2 -7q63 4 168 5.5t180 1.5h146v-195h-789z " />
<glyph unicode="&#xf733;" horiz-adv-x="942" d="M844 84q0 -98 -39 -185t-111.5 -150.5t-179 -100.5t-242.5 -37q-92 0 -198 24l22 193q35 -10 86 -18.5t105 -8.5q150 0 234.5 71t84.5 185q0 74 -33.5 122t-92 77t-141.5 37t-185 -2v176q201 -2 313.5 61.5t112.5 186.5q0 84 -57.5 137t-160.5 53q-59 0 -119.5 -16.5 t-115.5 -44.5l-21 184q141 57 300 57q104 0 181 -26.5t125 -70.5t72.5 -104.5t24.5 -127.5q0 -117 -65.5 -204t-172.5 -132v-2q127 -23 200 -117t73 -217z" />
<glyph unicode="&#xf734;" horiz-adv-x="1124" d="M860 0v-377h-215v377h-577l-35 178l549 887h67h211v-868h234v-197h-234zM649 852h-2l-403 -657q106 2 165.5 2h102.5h137v655z" />
<glyph unicode="&#xf735;" horiz-adv-x="954" d="M862 117q0 -106 -44 -196.5t-122 -159t-192.5 -109.5t-245.5 -41q-41 0 -85 4t-81 10l25 201q31 -6 72.5 -12.5t84.5 -6.5q92 0 160 24t110 61.5t63.5 87t21.5 106.5q0 127 -93.5 194.5t-281.5 69.5q-31 0 -54.5 -1t-52.5 -3v719h668v-215l-461 2v-320q125 0 219.5 -30.5 t159 -86t97 -132t32.5 -166.5z" />
<glyph unicode="&#xf736;" horiz-adv-x="1191" d="M1102 471q0 -106 -37 -197.5t-104.5 -156t-160.5 -101t-208 -36.5q-215 0 -341 150.5t-128 436.5q0 215 54 378t151.5 273.5t233.5 167t300 56.5q20 0 51 -1t54 -3v-195q-29 4 -62 7t-61 3q-100 0 -180 -29.5t-138.5 -85t-97.5 -132t-59 -170.5l-8.5 -34t-8.5 -40l2 -2 q47 68 129 107.5t193 39.5q98 0 177 -30.5t134 -88t85 -138.5t30 -179zM868 444q0 127 -64.5 200t-178.5 73q-63 0 -111.5 -21.5t-80.5 -57.5t-48 -82t-16 -95q0 -57 15 -111.5t46 -94.5t78 -64.5t110 -24.5q117 0 183.5 78.5t66.5 199.5z" />
<glyph unicode="&#xf737;" horiz-adv-x="940" d="M885 881q-119 -281 -225.5 -599.5t-182.5 -658.5h-246q82 330 187.5 644.5t220.5 588.5q-109 -4 -155 -5t-160 -1h-277v215h838v-184v0z" />
<glyph unicode="&#xf738;" horiz-adv-x="1132" d="M1028 373q0 -94 -38 -168t-104.5 -123t-153.5 -75.5t-187 -26.5q-106 0 -188.5 26.5t-138.5 74.5t-85 113.5t-29 145.5q0 72 25 128t62.5 101t86 83t95.5 69q-125 72 -187.5 158t-62.5 196q0 84 32.5 153.5t93 120t144.5 77t182 26.5t176 -23.5t134.5 -68.5t86 -107.5 t29.5 -138.5q0 -109 -61 -193.5t-192 -168.5q53 -31 102 -67t89 -82t64.5 -102t24.5 -128zM774 1092q0 78 -55 129t-154 51q-98 0 -155.5 -52.5t-57.5 -132.5q0 -76 57.5 -132t165.5 -115q104 68 151.5 124t47.5 128zM797 352q0 88 -69 154.5t-181 122.5h-2 q-92 -53 -150.5 -120t-58.5 -144q0 -92 63.5 -147.5t167.5 -55.5q96 0 163 51t67 139z" />
<glyph unicode="&#xf739;" horiz-adv-x="1191" d="M1069 489q0 -428 -203.5 -653t-552.5 -225q-25 0 -60.5 2t-68.5 8v203q31 -10 70 -15.5t70 -5.5q203 0 320.5 97.5t162.5 292.5q4 18 8 39.5t8 60.5h-2q-47 -63 -129 -101t-184 -38q-98 0 -175 30.5t-131.5 88t-83 137t-28.5 178.5q0 109 36 200t101.5 156.5t158.5 103 t204 37.5q104 0 192 -34.5t151.5 -107.5t99.5 -185.5t36 -268.5zM819 598q0 131 -63.5 216t-184.5 85q-57 0 -103 -21.5t-79 -58.5t-50 -87t-17 -109q0 -131 62 -203t183 -72q59 0 105.5 20.5t79 54.5t50 80t17.5 95z" />
<glyph unicode="&#xf8ff;" horiz-adv-x="2134" d="M322 741q-4 -53 0 -102l-283 -25q-6 76 0 152zM1087 727q4 0 5 10q0 10 -5 11q6 -11 0 -21zM1081 731q10 0 5 4t-1 4v2q-10 0 -4 -4t0 -4v-2v0zM1075 735q-4 -4 -4 -2q0 4 4 2zM1075 731h2v6q0 10 -8 2q4 0 6 -2q-4 0 -6 -4t6 0v-2zM1069 727q-6 10 0 21q-4 0 -4 -11 q0 -10 4 -10zM1061 733q-4 -2 -4 2q0 6 4 4v2q-4 2 -5 -5t5 -5v2zM1051 741v-6q0 -4 -1 -3t-1 3v6h-2v-6q0 -4 2 -4q4 0 4 4v6h-2zM1044 733h-4v12h-2v-14h6v2zM1296 -25l-487 -125l49 -120h420l27 61l-13 25l-147 -39l-27 76l209 53zM1294 145l-487 -125l31 -73l487 123z M813 297v-104l31 -74l477 121v57h-508zM1153 682q-25 4 -45 4h-39h-43q-20 0 -45 -4l29 -289h114l29 289v0zM926 393l-31 275q-29 -6 -46.5 -14.5t-31.5 -12.5t-22.5 11.5t-10.5 36t2.5 38.5t14.5 23q59 16 128.5 28.5t139.5 12.5q72 0 139.5 -12.5t128.5 -28.5 q8 -2 12.5 -21.5t3.5 -40t-10.5 -36t-23.5 -9.5q-29 12 -80 25l-29 -275h113q53 49 94 125t41 172q0 80 -30.5 151.5t-84 125t-124 84t-150.5 30.5q-82 0 -152.5 -30.5t-124 -84t-84 -125t-30.5 -151.5q0 -86 36 -163.5t101 -133.5h111zM1577 690q0 -104 -39 -195.5 t-98 -152.5v-160l-33 -10l66 -154l-64 -16l64 -147l-66 -17l20 -51l-61 -141h-111q-6 -41 -59 -68t-127 -27q-78 0 -131 27t-57 68h-111l-106 256l63 18l-65 154l71 18l-39 92v160q-59 66 -97 155t-38 191q0 104 40 197.5t108.5 162t162 108.5t199.5 40q104 0 196.5 -40 t162 -108.5t109.5 -162t40 -197.5zM2095 764q4 -39 4 -76q0 -35 -2 -72l-278 23q4 51 0 102l276 23v0zM1733 1460q29 -25 55.5 -50.5t48.5 -55.5l-209 -176q-16 18 -36.5 37.5t-37.5 33.5zM1120 1415q-27 4 -52.5 3t-51.5 -3l-23 273q37 4 76 4t74 -4l-23 -273v0zM297 1358 q25 29 51.5 55.5t54.5 48.5l181 -215q-18 -14 -38 -33.5t-36 -37.5l-213 182v0z" />
<glyph unicode="&#xfb00;" horiz-adv-x="1339" />
<glyph unicode="&#xfb01;" horiz-adv-x="1212" d="M836 0v848h-408v-848h-217v848h-195v170h195v41q0 221 117.5 335.5t367.5 114.5q84 0 157 -10t144 -29l-39 -182q-59 18 -125.5 29.5t-123.5 11.5q-150 0 -215.5 -64.5t-65.5 -187.5v-59h625v-1018h-217z" />
<glyph unicode="&#xfb02;" horiz-adv-x="1212" d="M836 0v1317q-78 14 -162 14q-123 0 -184.5 -51t-61.5 -168v-94h254v-170h-254v-848h-217v848h-195v170h195v108q0 86 27.5 157t86 121t150.5 77.5t219 27.5q78 0 172.5 -8t186.5 -24v-1477h-217z" />
<glyph unicode="&#xfb03;" horiz-adv-x="1828" />
<glyph unicode="&#xfb04;" horiz-adv-x="1828" />
<glyph d="M922 205v717h-717v-717h717zM512 717v102h307v-512h-102v205h-205v102h205v103h-205zM102 102v922h922v-922h-922zM307 307v512h103v-409h204v-103h-307z" />
<glyph horiz-adv-x="1966" d="M1817 1169q-4 -8 -7 -8q-23 4 -44 1t-44 -5q-70 -4 -108.5 -6t-75.5 -8q-16 -14 -17 -32.5t-12 -35.5q-2 -10 1 -16t3 -15q4 -6 12.5 -9t14.5 -5q16 2 29.5 8t21.5 19q0 14 -10 24q-10 8 -21.5 6t-19.5 9q8 10 21.5 8t25.5 -2q16 -6 27 -33q-8 -31 -43 -55 q-10 -4 -21.5 -5t-23.5 -5q-23 6 -48.5 16t-37.5 33q-6 25 3 46t13 44q-4 10 -12 8t-17 0l-69 -2q0 4 -2 4t-2 4q8 4 16 4t14 2q18 -4 39 -2t39 2q10 6 11.5 15.5t3.5 19.5q8 14 10 32.5t16 29.5q10 6 15.5 -2.5t9.5 -12.5q10 -16 4 -35.5t0 -38.5q4 -12 18.5 -8t24.5 0 q47 4 100.5 3t132.5 10q7 -5 9 -7zM1323 1028q-25 0 -52.5 -1t-53.5 -9q-6 4 -12.5 5t-10.5 11q8 29 13 57.5t1 57.5q-4 6 -13 1t-15 -9q-31 -16 -60.5 -40t-36.5 -59q-8 -8 -19 -11t-20 1q-10 14 -2.5 30.5t2.5 33.5l7 63q-6 6 -16.5 3t-20.5 1q-4 4 -13.5 2t-7.5 9 q27 -2 52.5 2t54.5 0q6 -6 5 -14.5t-3 -16.5t0 -14.5t10 -10.5q29 12 55.5 29.5t55.5 28.5q6 -4 14 -3t14 1q8 0 13.5 -3.5t7.5 -13.5q2 -23 -1 -44t-5 -44q2 -6 1 -13t3 -11q18 -4 26 0q8 0 16.5 -2.5t18.5 -2.5q6 -4 0 -10zM926 1145q2 -37 -21 -64q-25 -14 -45 -31.5 t-49 -21.5q-6 2 -8 -1t-5 -6t-6.5 -5t-9.5 2q-10 8 -24.5 4t-26.5 -2q-12 0 -21.5 1t-19.5 5q-14 14 -27.5 31.5t1.5 42.5q16 41 55 61q23 10 47.5 21.5t50.5 5.5q33 -2 65 -8t44 -35zM961 1360q-27 -27 -62 -17q-8 12 -15 23.5t-7 26.5q-20 41 -64.5 51t-87.5 22l-63 4 q-4 -4 -12.5 -2t-14.5 -2q-37 -10 -63.5 -20t-53.5 -23q-14 -16 -35.5 -27.5t-27.5 -33.5q-16 -31 -24.5 -70t-14.5 -73q10 -8 22.5 -5t22.5 0q45 4 86 5h90q10 -4 0 -15q-18 -12 -31.5 -1t-30.5 5q-20 2 -42.5 -1t-43.5 -1q-18 -4 -38 -4t-37 -10l-6 -8q-8 -39 -10.5 -63.5 t-2.5 -65.5q2 -14 -3 -28.5t5 -29.5q27 -2 42.5 -1t28.5 2t28.5 3.5t42.5 2.5q8 4 14 2t12 -5q2 -2 1 -4t1 -4l-10 -4q-23 4 -41 3t-37.5 -3t-42 -4t-53.5 0q-23 -2 -47.5 -4t-48.5 0q-31 -2 -66 -2t-63 8l-2 6q6 6 18 11q16 -8 36.5 -9.5t41.5 -5.5q16 2 29.5 1t25.5 7 q4 53 18.5 94.5t24.5 96.5l-4 8q-31 2 -59.5 0t-55.5 10q0 10 9 11q27 -8 55 -9q31 0 59 2l4 7q10 35 20.5 70.5t27.5 64.5l2 6q51 53 115.5 86t142.5 41q35 4 71.5 -4t65.5 -23q10 -4 20 -4q12 0 23 -4q35 -8 66.5 -24.5t52.5 -47.5q2 -4 0 -9t-4 -9zM1571 -127 q-45 4 -100.5 -5t-98.5 -3q-115 4 -223.5 -8.5t-220.5 0.5q-51 -8 -99.5 -3t-97.5 9q-59 4 -121.5 3t-126.5 -1q-43 0 -102 -3t-102 -14q-8 -2 -19 -2q-8 0 -12 11q0 33 -2 66.5t8 66.5q4 41 2 82t4 82q-8 47 -1 91t-1 91q0 66 5 132.5t9 135.5q4 74 1 146.5t1 146.5 q8 16 23.5 13t30.5 1q16 -10 37.5 -5t37.5 3q6 6 15.5 11.5t11.5 -9.5q4 -4 1 -12t5 -12q-4 -29 -3 -78t4 -106.5t7.5 -118t6.5 -109.5q66 20 120 56t117 59q10 4 19.5 12t23.5 12q4 2 8 6.5t13 0.5q10 -4 8 -14.5t-2 -20.5q-20 -59 -10 -125q4 -10 13 -6t15 4 q16 14 34.5 23.5t35.5 21.5q20 12 40.5 23.5t43.5 19.5q25 16 48 32.5t50 26.5l41 33q2 8 12 14q6 0 11.5 -4t11.5 -8q0 -29 6 -58.5t6 -58.5q2 -6 6 -5t6 -3q8 -10 4 -20.5t-8 -20.5l4 -4q35 8 65 26.5t59.5 39t59 39t64.5 26.5q10 10 22.5 13t22.5 14q10 2 18.5 9t17.5 13 t19.5 9.5t22.5 -7.5q4 0 8 -2t6 -6q-2 -8 1.5 -13t7.5 -11q-4 -16 0 -29.5t-4 -26.5q2 -27 0 -51.5t10 -46.5q-4 -14 5 -25.5t-1 -21.5q2 -16 0 -29.5t8 -25.5q2 -10 3 -19.5t-5 -17.5q4 -23 5 -47.5t9 -47.5q-4 -8 -2 -16t2 -16q0 -78 11.5 -151t13.5 -150q0 -4 3 -9.5 t-1 -9.5zM877 1104q-4 23 -12.5 44t-33.5 26q-4 -10 -13 -7.5t-17 0.5q-27 12 -56 -12q-25 -31 -13.5 -59.5t26.5 -55.5q2 -8 9 -6t15 0q12 -4 25.5 3t26.5 12q14 12 30.5 22t12.5 33zM1475 -20q-4 16 -9.5 33.5t-15.5 31.5q-10 23 -20.5 42t-8.5 46q-2 10 -6 17.5t0 17.5 q18 16 41 26.5t39 26.5l-14 35q-18 -2 -33.5 -9t-32.5 -11q-10 -4 -21.5 -12.5t-19.5 1.5q10 41 18.5 81t14.5 79l-4 6q-16 0 -27.5 5t-25.5 10q-6 -23 -13.5 -48.5t-11.5 -50.5q-8 -16 -8 -41q0 -23 -10 -39q-10 -63 -23.5 -106t-19.5 -105l-4 -14h49q6 2 12 -2t12 2 q4 14 5 27.5t5.5 30t0 34t18.5 23.5q12 -4 10 -13.5t2 -17.5q-2 -14 5 -24.5t7 -22.5q18 -12 25.5 -32.5t24.5 -35.5q6 2 10 -3t14 -1q15 1 15 13zM1280 367q-2 10 -6 18t-14 12q-4 4 -10.5 5t-10.5 -5q-10 -12 -17.5 -30.5t-0.5 -30.5q2 -10 14 -11t22 3q23 12 23 39z M1219 31q8 41 14 80t12 75q10 31 10 54q-12 10 -26.5 4t-30.5 -4q-18 -23 -20 -49.5t-9 -53.5q-8 -10 -11 -24.5t-7 -28.5q4 -20 -5 -45t1 -45q29 0 63 10q9 11 9 27zM1161 252q-16 -2 -34.5 -5t-32.5 -22q-10 -8 -15.5 -23.5t-21.5 -11.5q-4 16 -1 29.5t7 30.5 q-8 4 -15.5 0t-15.5 0q-18 -8 -28 -27q-10 -59 -20.5 -113.5t-14.5 -113.5l6 -8q10 -8 23.5 -3t23.5 1q-4 23 5 42t5 42q10 23 20.5 46t30.5 44q12 10 26.5 13t31.5 13q4 16 12 33t8 33zM915 61q25 35 27 72t0 78q4 6 -2 12t-14 10.5t-16.5 9.5t-10.5 7q-4 4 -10 4 q-4 0 -6 -6q-23 2 -41 -8q-12 -6 -18.5 -16.5t-16.5 -14.5q-4 -4 -9 -1t-7 7q14 37 17 75t5 77l-2 14h-16q-18 -6 -19.5 -22.5t-7.5 -28.5q-12 -35 -17.5 -70t-17.5 -70q-4 -35 -13 -67.5t-11 -63.5q-4 -18 -10.5 -35.5t-8.5 -37.5q12 -8 30.5 -2t33.5 12q10 4 16 2t11 -8 t8.5 -12.5t9.5 -10.5q16 0 26 2q25 12 55.5 39.5t34.5 52.5zM659 70q-2 23 4.5 48t12.5 50t10 49.5t-4 42.5q-10 8 -24.5 13.5t-18.5 -5.5l-4 -12q-16 -4 -38 4t-40 -4q-16 -8 -21.5 -16.5t-9.5 -24.5q2 -6 -3 -9t-12 -6t-12 -9.5t-3 -18.5q-4 -8 -1 -13t-6 -14 q-4 -10 -11 -26.5t-13 -20.5q-20 -12 -17 -40.5t11 -45.5q-4 -14 5 -22t19 -13q4 4 8.5 6.5t8.5 -1.5q16 -4 38.5 15t39.5 30q12 2 12 -2t-3 -10.5t-5 -14.5t2 -12q10 -4 13 -7.5t13 -3.5q8 4 16.5 5.5t16.5 7.5zM545 371q-25 4 -52.5 3t-54.5 -3q-16 -2 -31.5 -5.5 t-27.5 -11.5q-10 -33 -20.5 -66.5t-18.5 -66.5q-6 -53 -19.5 -111.5t-21.5 -113.5q8 0 16.5 3t12.5 -1q14 4 24 -1t23 1q10 33 15 64.5t16 64.5q6 10 16 15t20.5 9.5t17.5 0t15 6.5l8 57q-6 10 -18 9t-25 -1q-8 -8 -14 -8q-16 4 -11 19.5t1 25.5q-2 6 3 11t9 10q23 6 43.5 9 t40.5 7l12 8q2 18 9.5 34t11.5 32zM877 158q8 -29 -5.5 -59.5t-35.5 -53.5q-6 -8 -13.5 -9t-15.5 -5q-25 4 -24 26.5t1 40.5q8 16 12.5 34t14.5 32q16 8 26.5 22.5t26.5 14.5l4 -6q-8 -14 -0.5 -20.5t9.5 -16.5zM596 117q-2 -16 -17.5 -41t-31.5 -37q-8 -2 -17.5 -8t-19.5 0 q-12 4 -5 15t11 22q0 4 3 20t12.5 36.5t22.5 42t32 34.5q18 2 22 2q6 0 13 4q4 -6 -0.5 -18.5t-9.5 -27t-10 -27.5t-5 -17z" />
<glyph horiz-adv-x="2695" d="M1939 -70q-10 -12 -23 -16t-27.5 -6l-29 -4t-24.5 -10q-35 -4 -65.5 -13.5t-45.5 -44.5q-8 -20 -19 -39.5t-21.5 -40t-16.5 -42t0 -46.5q4 -18 22.5 -17t30.5 5q8 0 13.5 9t15.5 3t2 -12t-12 -14q-16 -10 -37 -15.5t-41 4.5q-16 16 -24.5 34t-2.5 40q4 16 17.5 49 t54.5 103q-16 8 -32.5 6t-32 -5t-32 -5.5t-32.5 4.5q10 12 25.5 18t29.5 10q27 6 56.5 4t46.5 25q14 23 10 46.5t0 47.5q-10 4 -10 12.5v12.5q-12 23 -30.5 35t-40.5 17t-44.5 6t-42.5 1q-47 -4 -87 -34.5t-56 -71.5q-14 -33 -11.5 -66t17.5 -67q-4 -25 5 -47.5t20.5 -44 t16.5 -46t-7 -51.5q-10 -10 -25.5 -8t-28.5 6q-29 14 -32 45t-13 57q16 12 14.5 34t10.5 38q4 10 2 26.5t-17 22.5q-35 -4 -76.5 -4t-70.5 -24q2 -23 5 -45.5t2 -45t-9 -43t-29 -34.5q-23 -6 -49 8q-23 18 -19.5 44t3.5 50q16 31 31.5 64.5t50.5 46.5q16 -10 33.5 -6t33.5 8 l101 2q10 10 9 25.5t3 27.5q18 59 64.5 105.5t111.5 50.5q35 4 67.5 2t63.5 -19q2 -10 8 -16t14.5 -10t15.5 -10.5t9 -16.5q18 -29 13 -67.5t-11 -71.5q47 0 92 8t86 16zM1108 -111q-8 -6 -16.5 -3t-16.5 7.5t-17 7.5t-18 -3q-14 -10 -20 -22.5t-9 -26t-7.5 -26.5t-12.5 -24 q-4 -29 -10 -54.5t-6 -51.5q-6 -4 -12.5 -8t-16.5 0q-12 16 -6 36.5t4 36.5q14 18 11 44t8 46q-6 10 -5.5 25.5t-3.5 26.5q-10 4 -15 -4.5t-15 2.5q4 20 28 36q16 0 24.5 -12t14.5 -24q8 2 15.5 11t14.5 16t16.5 9.5t19.5 -8.5zM836 -18q-2 -78 3 -156t1 -152.5t-28 -142.5 t-81 -125q-66 -41 -144.5 -50t-152.5 11q-8 4 -16 11.5t-8 17.5q4 20 12 40.5t33 28.5q-6 -16 -13.5 -32.5t-11.5 -34.5q27 -16 59.5 -22.5t68.5 -4.5t70 12.5t60 24.5q29 10 46.5 28.5t27.5 41t18 46t19 46.5q12 72 14 154.5t-2 144.5q8 23 2 49.5t-2 48.5q-4 10 -12 7 t-13 -5q-16 -16 -22 -35.5t-23 -31.5q2 -16 -4 -24.5t-15 -15.5t-17.5 -15.5t-8.5 -22.5q-41 -47 -76.5 -95t-70.5 -98q-8 -12 -14.5 -24.5t-22.5 -9.5q-10 14 -11 29.5t0 30.5t3 31.5t0 32.5q10 35 18 72t35 72q18 49 52 97t83 79q29 8 50.5 -5t43.5 -28q16 20 25 49 q25 -10 25 -41q-10 -10 -3 -17t3 -17zM1497 428q-37 -6 -71.5 -16.5t-69.5 -20.5t-70 -17t-72 -3q-6 -6 -10 -22.5t-1 -33t11.5 -26.5t26.5 -4q6 8 9 23.5t16 19.5q10 -18 3 -36t-20 -32q-6 -4 -21.5 -5t-29.5 8t-23.5 31.5t-3.5 65.5q-4 6 -9 12.5t-1 16.5q23 16 25 42 t6 52q-4 2 -4 4t-4 5q-35 -23 -53.5 -60t-45.5 -65q0 -14 -8 -25.5t-17 -23t-16.5 -23.5t-3.5 -29q-6 -6 -7 -16t-2 -19.5t-5 -16.5t-18 -9q-18 4 -24.5 15t-6.5 24.5t2 28t0 26.5q-6 39 2 71.5t2 67.5q-18 -10 -23.5 -28.5t-19.5 -34.5q-10 -12 -19.5 -28.5t-19.5 -31 t-25.5 -21.5t-35.5 -3q-23 35 -8.5 73.5t34.5 73.5q8 10 18.5 23.5t22 24t25.5 15.5t31 -1q10 -6 20 0q18 43 27.5 90t13.5 94l20 16q12 -4 14.5 -10t-0.5 -14t-6 -16.5t-1 -16.5q-8 -57 -19.5 -113.5t-15.5 -111.5q-2 -31 -8.5 -59.5t4.5 -59.5q33 43 61.5 94t73.5 94 q12 16 28.5 33t36.5 29q16 -12 30.5 -29.5t31.5 -27.5q0 -18 -2 -41t2 -41q55 12 105.5 20t103.5 25q16 -11 14 -27zM2179 1190q-4 59 -32.5 118.5t-90.5 88.5q12 18 25.5 16t26 -12t22.5 -25.5t18 -23.5q33 -39 47.5 -85t15.5 -95.5t-10.5 -98.5t-29.5 -94 q-29 -70 -84 -130.5t-129 -90.5q29 20 54.5 43.5t43.5 54.5q33 33 61.5 72t36.5 92q25 41 27 84t-2 86zM1995 983q-6 -16 -18.5 -31.5t-30.5 -19.5q-16 4 -23.5 13t-17.5 22l4 28q10 -4 9 -16t13 -16q10 -4 19.5 6t13.5 16q8 47 1 92t-32 86l-12 -6q-25 -23 -46.5 -42 t-35.5 -50l-16 -8q-29 -29 -49.5 -60.5t-44.5 -54.5q-12 -2 -17.5 3t-8.5 13.5t-4 18.5t-5 16q8 20 -6 35q-12 2 -13.5 -7t-7.5 -13q-16 -16 -29.5 -23.5t-35.5 -9.5q-23 6 -29 18.5t-3 27.5t8 33.5t5 35.5q8 31 26.5 54t41.5 48q20 4 44.5 12t41.5 -16l8 -12 q-12 -35 -15.5 -73t-7.5 -75q2 -6 5.5 -13t11.5 -7q23 0 28 18t19 31q45 39 84 79t76 81q12 -4 17 -15.5t6 -24t2 -25.5t7 -22q10 -4 7 -16q16 -31 15 -63.5t-5 -67.5zM1716 1384q-6 -10 -19.5 -20t-29.5 -8q-4 6 -9 14t-16 -2q-59 -47 -113 -99t-77 -122q-6 -41 -10 -86 t2 -88t23.5 -81t52.5 -65q20 -16 44.5 -13t49.5 1q12 8 21.5 17.5t21.5 17.5q4 -18 -13.5 -26.5t-29.5 -20.5q-31 -12 -67 -5t-60 29q-47 43 -55 95q-10 4 -10.5 10t1.5 12t3 12.5t-7 10.5q4 6 2 13t-5 15.5t-4 15.5t5 17q-2 61 17.5 113.5t52.5 98.5t76 86t88 75q8 0 18 3 t20.5 3t17.5 -4.5t9 -18.5zM1341 1020q-14 -35 -44.5 -60.5t-71.5 -25.5t-77 15.5t-54 49.5q-16 23 -15.5 48.5t4.5 54.5q4 18 15.5 30.5t13.5 30.5q59 49 131 25q8 -6 16.5 -9t6.5 -16q-6 -8 -14.5 0t-18.5 8q-55 14 -103 -32q-16 -25 -24 -54.5t4 -58.5q45 -61 111 -70 q18 8 39.5 8.5t37.5 20.5q12 8 19.5 25.5t23.5 9.5zM1026 963q-10 -25 -18.5 -50.5t-26.5 -48.5q-14 -6 -25.5 1t-17.5 20q-33 76 -20 153q-4 2 -2 16.5t3 33t1 37t-7 26.5q-12 -31 -13 -63.5t-2 -64.5t-8 -61.5t-32 -56.5q-4 -4 -14 -7t-24.5 3t-27 23.5t-18.5 58.5 q6 39 8 75t9 72q4 14 -4.5 30t8.5 28q14 8 26 -8q2 -31 -2 -65t-6 -65.5t-1 -59t13 -48.5q14 -10 21.5 -4t10.5 18.5t5 25.5t6 17q8 41 6 86t11 86q6 6 10 15.5t8 16.5t11.5 10.5t19.5 -5.5q14 -41 15 -78.5t-1 -76.5t-1 -78t14 -78q2 -6 9 -8t13 6l4 11q4 12 9 24 t12.5 22.5t17.5 10.5zM707 901q-4 -4 -8.5 -8t-20.5 -8t-49 -9.5t-94 -9.5q-70 -6 -132.5 -17t-128.5 -34q-10 -23 -27.5 -16.5t-29.5 12.5q-2 8 2 14t10.5 11.5t12.5 10.5t8 13q12 25 21.5 49.5t17.5 48.5q-4 12 4 26.5t14 27.5q45 104 86 209.5t66 216.5q-8 29 6 43 q12 4 16 -4.5t11 -14.5q-14 -80 -41 -153.5t-58 -146t-60.5 -146.5t-49.5 -152l4 -4q78 12 149.5 26.5t153.5 16.5q25 -4 55.5 -4t54.5 10zM1446 -315q12 27 4 57.5t-25 52.5q-10 -12 -12 -26.5t-4 -28.5q4 -16 9 -33.5t28 -21.5zM1171 -188q-4 -23 -7 -47.5t5 -47.5 q6 -6 16.5 -5t19.5 7.5t13.5 17.5t-1.5 27q2 8 5 22.5t2 28t-6.5 23.5t-17.5 12zM762 -12q-6 23 -30.5 26.5t-43.5 -4.5q-23 -18 -44 -38.5t-38 -43.5q-10 -31 -24.5 -61.5t-26.5 -61t-19.5 -62.5t-3.5 -67q6 -2 7.5 1.5t5.5 7.5q27 37 58.5 71.5t62 71.5t55.5 76t41 84z M1227 426q4 10 8 27.5t-12 21.5l-11 -59q10 2 10.5 4t4.5 6zM944 471q-14 4 -26.5 -6t-20.5 -23q-23 -29 -40 -61.5t-3 -67.5q10 -4 14 2.5t9 12.5q23 23 40 47t31 55zM1696 1178q-10 8 -14.5 -1.5t-10.5 -5.5q-47 -23 -62.5 -69.5t-13.5 -93.5q14 -4 24.5 8t25.5 8 q6 14 17 29.5t20.5 31t12.5 33t-12 33.5q12 0 12.5 11.5t0.5 15.5z" />
<glyph horiz-adv-x="880" d="M709 1475l-281 118l-270 -118l-54 114l330 174l334 -166z" />
<glyph horiz-adv-x="989" d="M883 1657q-92 -158 -242 -158q-53 0 -89 16.5t-65.5 35t-55 35t-58.5 16.5q-70 0 -123 -91l-111 76q43 78 103.5 119t138.5 41q51 0 88 -16.5t65.5 -35t55 -34.5t57.5 -16q70 0 125 90l111 -78v0z" />
<glyph horiz-adv-x="794" d="M674 1751q0 -55 -18.5 -102t-54.5 -83t-88 -56.5t-120 -20.5t-119 20.5t-84.5 56.5t-51 84t-17.5 101h133q0 -51 40 -86t101 -35q66 0 104 35t38 86h137v0z" />
<glyph horiz-adv-x="583" d="M481 1604q0 -51 -36.5 -87t-90.5 -36q-53 0 -90 34.5t-37 88.5q0 51 37 88t90 37t90 -36t37 -89z" />
<glyph horiz-adv-x="768" d="M485 1583q0 41 -29.5 72t-70.5 31q-43 0 -71.5 -31t-28.5 -72t28.5 -71.5t71.5 -30.5q41 0 70.5 30.5t29.5 71.5zM612 1585q0 -45 -18.5 -85t-49 -70.5t-72.5 -48t-89 -17.5q-94 0 -159.5 61.5t-65.5 155.5q0 47 18.5 87t49 68.5t72.5 46t87 17.5q96 0 161.5 -61.5 t65.5 -153.5z" />
<glyph horiz-adv-x="696" d="M289 1225l-127 73l213 344l160 -88z" />
<glyph horiz-adv-x="1118" d="M860 1602q0 -51 -34.5 -85t-86.5 -34q-51 0 -86 33.5t-35 85.5q0 51 35 85.5t86 34.5t86 -34.5t35 -85.5zM457 1602q0 -51 -35 -85t-86 -34t-86 33.5t-35 85.5q0 51 35 85.5t86 34.5t86 -34.5t35 -85.5z" />
<glyph horiz-adv-x="651" d="M633 1335q0 -53 -36 -89t-89 -36q-51 0 -87 36t-36 89q0 51 36 87t87 36q53 0 89 -35t36 -88zM264 1335q0 -53 -34.5 -89t-88.5 -36q-53 0 -89 36t-36 89q0 51 36 87t89 36t88 -35t35 -88z" />
<glyph horiz-adv-x="759" d="M457 1139l-297 282l133 125l272 -303z" />
<glyph horiz-adv-x="800" d="M336 1139l-103 102l271 305l129 -125z" />
<glyph horiz-adv-x="880" d="M616 1159l-180 170l-184 -170l-82 101l268 272l267 -270z" />
<glyph horiz-adv-x="976" d="M803 1370q-35 -78 -87 -121t-126 -43q-37 0 -66.5 15.5t-55.5 33t-47.5 33t-39.5 15.5q-31 0 -55.5 -27t-38.5 -59l-105 75q25 68 79 119t134 51q37 0 68 -15t55.5 -33.5t46 -34t39.5 -15.5q31 0 54.5 26.5t39.5 59.5z" />
<glyph horiz-adv-x="808" d="M154 1247v160h501v-160h-501z" />
<glyph horiz-adv-x="794" d="M647 1473q0 -141 -65.5 -217t-188.5 -76t-185.5 76.5t-62.5 216.5h146q0 -53 26.5 -93.5t77.5 -40.5q49 0 77 36t28 98h147z" />
<glyph horiz-adv-x="1818" d="M1507 539q0 154 -48 235.5t-152 81.5q-61 0 -108.5 -32.5t-80.5 -84t-49 -116t-16 -129.5v-316q68 -20 161 -20q131 0 212 88t81 293zM1739 559q0 -131 -37 -237.5t-106.5 -182.5t-169 -115.5t-224.5 -39.5q-117 0 -199.5 11t-166.5 32v1292q-78 14 -162 14 q-123 0 -184.5 -52t-61.5 -169v-94h254v-170h-254v-848h-217v848h-195v170h195v108q0 174 114.5 279.5t368.5 105.5q78 0 172.5 -9t186.5 -23v-453q0 -45 -4.5 -99.5t-12.5 -95.5h4q41 96 126 151.5t198 55.5q182 0 278.5 -124t96.5 -355z" />
<glyph horiz-adv-x="1847" d="M1473 0v655q0 96 -32 148.5t-120 52.5q-57 0 -106.5 -28.5t-85 -78t-56 -116t-20.5 -144.5v-489h-217v1319q-78 14 -162 14q-123 0 -184.5 -52t-61.5 -169v-94h254v-170h-254v-848h-217v848h-195v170h195v108q0 174 114.5 279.5t368.5 105.5q78 0 172.5 -9t186.5 -23 v-445q0 -47 -3 -105.5t-14 -99.5l4 -2q45 96 133.5 153.5t212.5 57.5q86 0 144.5 -25.5t93.5 -69.5t50.5 -103.5t15.5 -126.5v-713h-217z" />
<glyph horiz-adv-x="1210" d="M1053 -96q0 -102 -18.5 -180t-61.5 -131.5t-115 -80t-176 -26.5q-35 0 -73 4t-68 14l16 189q29 -10 61.5 -16.5t63.5 -6.5q45 0 74.5 10.5t47 35t25 65.5t7.5 102v965h-408v-848h-217v848h-195v170h195v41q0 221 117.5 336.5t367.5 115.5q84 0 157 -10t144 -28l-39 -183 q-59 18 -125.5 29.5t-123.5 11.5q-150 0 -215.5 -65.5t-65.5 -188.5v-59h625v-1114v0z" />
<glyph horiz-adv-x="1712" d="M836 1319q-78 14 -162 14q-123 0 -184.5 -52t-61.5 -169v-94h254v-170h-254v-848h-217v848h-195v170h195v108q0 174 114.5 279.5t368.5 105.5q78 0 172.5 -9t186.5 -23v-897l331 436h269l-377 -465l405 -553h-278l-350 516v-516h-217v1319v0z" />
<glyph horiz-adv-x="358" d="M358 2007v-2662h-358v2662h358z" />
<glyph horiz-adv-x="1439" d="M1126 686q0 252 -105.5 386t-299.5 134q-80 0 -153.5 -31.5t-129 -95t-89.5 -158t-34 -219.5q0 -117 25 -214t74 -165.5t124.5 -106.5t178.5 -38q76 0 149.5 31t132 94.5t93 158.5t34.5 224zM1438 -395q-137 -20 -236.5 -8t-187.5 32.5t-175 34.5t-200 0v199 q129 14 223 0.5t180 -32.5t178.5 -32.5t217.5 2.5v-196v0zM1364 709q0 -172 -52 -307.5t-142.5 -229.5t-211 -143t-258.5 -49q-158 0 -274.5 49t-194 140t-115.5 219t-38 288q0 172 52 307t142 228.5t211 142.5t258 49q139 0 254 -43t197 -130t127 -217t45 -304z" />
</font>
</defs>
</svg>
