<?xml version="1.0" standalone="no"?>
<!DOCTYPE svg PUBLIC "-//W3C//DTD SVG 1.1//EN" "http://www.w3.org/Graphics/SVG/1.1/DTD/svg11.dtd" >
<svg xmlns="http://www.w3.org/2000/svg">
<metadata>
Copyright   : Copyright 2014 Luc(as) de Groot. All rights reserved. Published by LucasFonts.com
Designer    : Luc(as) de Groot
Foundry     : LucasFonts
Foundry URL : http://lucasfonts.com
</metadata>
<defs>
<font id="TheSansB_200_" horiz-adv-x="1126" >
<font-face units-per-em="2048" ascent="1516" descent="-532" />
<missing-glyph horiz-adv-x="446" />
<glyph unicode=" "  horiz-adv-x="446" />
<glyph unicode="&#x09;" horiz-adv-x="446" />
<glyph unicode="&#xa0;" horiz-adv-x="446" />
<glyph unicode="!" horiz-adv-x="651" d="M434 74q0 -37 -25.5 -62.5t-62.5 -25.5t-62.5 25.5t-25.5 62.5t25.5 62.5t62.5 25.5t62.5 -25.5t25.5 -62.5zM389 305h-86l-22 1125h131z" />
<glyph unicode="&#x22;" horiz-adv-x="671" d="M225 1004h-78l-24 421h127zM524 1004h-78l-24 421h127z" />
<glyph unicode="#" d="M416 879l-41 -410h340l41 410h-340zM846 879l-41 -410h199v-74h-207l-43 -395h-90l43 395h-340l-43 -395h-91l43 395h-202v74h211l41 410h-203v73h211l41 379h90l-41 -379h340l41 379h90l-41 -379h199v-73h-207z" />
<glyph unicode="$" d="M915 395q0 -135 -90 -234.5t-258 -121.5v-213h-88v209q-78 0 -141.5 7t-122.5 24l16 110q25 -10 59 -18t70.5 -14.5t72.5 -10.5t67 -4q63 0 118.5 14.5t96.5 44t65.5 75.5t24.5 112q0 78 -45 125t-113.5 80.5t-147.5 61.5t-147.5 68t-113.5 100t-45 157q0 63 23.5 119.5 t67.5 99.5t106.5 71.5t137.5 36.5v201h88v-197q66 -2 125.5 -8t102.5 -16l-17 -105q-53 16 -112.5 26.5t-118.5 10.5q-84 0 -141.5 -20.5t-92 -52t-50 -71.5t-15.5 -79q0 -76 46 -123t114.5 -82t148.5 -63.5t148.5 -68.5t114.5 -98.5t46 -152.5z" />
<glyph unicode="%" horiz-adv-x="1515" d="M563 1081q0 115 -42 174.5t-140 59.5q-78 0 -126 -62.5t-48 -160.5q0 -117 42 -177.5t142 -60.5q78 0 125 63.5t47 163.5zM1309 295q0 115 -42 174t-141 59q-78 0 -126 -62.5t-48 -160.5q0 -117 42 -177t143 -60q78 0 125 63.5t47 163.5zM668 1096q0 -70 -19.5 -129.5 t-56.5 -103.5t-91.5 -68.5t-125.5 -24.5q-147 0 -210 80t-63 227q0 68 19.5 126.5t56.5 102.5t92.5 68.5t124.5 24.5q147 0 210 -80t63 -223zM289 -39l-76 51l1010 1405l75 -51zM1413 309q0 -70 -19.5 -129t-56.5 -103t-91 -68.5t-126 -24.5q-147 0 -209.5 79.5t-62.5 227.5 q0 68 19.5 126t56.5 102t92 68.5t125 24.5q147 0 209.5 -80t62.5 -223z" />
<glyph unicode="&#x26;" horiz-adv-x="1624" d="M1044 256q-72 61 -147.5 129t-147 136.5t-136 135t-113.5 121.5q-70 -53 -119 -102t-80 -95t-45 -92.5t-14 -95.5q0 -66 24.5 -124t69.5 -101t108.5 -67.5t143.5 -24.5q154 0 267 54t189 126zM739 1233q0 76 -46 130t-150 54q-88 0 -143.5 -53t-55.5 -139q0 -57 40 -130 t142 -190q106 86 159.5 161t53.5 167zM1415 -31q-78 53 -156.5 113.5t-144.5 116.5q-104 -98 -240.5 -156.5t-310.5 -58.5q-102 0 -182 28.5t-135.5 80.5t-85 125t-29.5 159q0 74 22.5 135t64.5 116.5t99.5 106.5t124.5 105q-61 70 -101 123t-63.5 97t-32.5 82t-9 79 q0 57 21.5 108t62 90t100 61.5t137.5 22.5q143 0 217 -73.5t74 -180.5q0 -102 -58.5 -197.5t-205.5 -209.5q51 -55 114.5 -121t132 -131.5t141 -131t142.5 -120.5v-2q74 98 120 238.5t34 320.5h112q6 -184 -44 -341t-148 -278q88 -70 161.5 -125t133.5 -96z" />
<glyph unicode="'" horiz-adv-x="372" d="M225 1004h-78l-24 421h127z" />
<glyph unicode="(" horiz-adv-x="614" d="M475 -416q-96 152 -153.5 288t-89 259t-42 234.5t-10.5 214.5q0 102 12.5 218.5t46 244.5t91 265.5t147.5 280.5l74 -43q-133 -221 -199.5 -463.5t-66.5 -490.5q0 -268 64.5 -503.5t203.5 -461.5z" />
<glyph unicode=")" horiz-adv-x="614" d="M451 594q0 -102 -12.5 -219t-46.5 -245t-91 -265t-147 -281l-74 43q133 221 199.5 464t66.5 491q0 268 -64.5 503.5t-203.5 460.5l78 43q94 -152 152.5 -288t90 -258.5t42 -234.5t10.5 -214z" />
<glyph unicode="*" horiz-adv-x="743" d="M590 1024l-197 131l15 -235h-91l15 235l-197 -131l-43 78l213 104l-213 105l45 78l197 -129l-15 235h91l-15 -235l197 129l43 -76l-213 -105l213 -104z" />
<glyph unicode="+" d="M612 563v-440h-102v440h-418v92h418v439h102v-439h422v-92h-422z" />
<glyph unicode="," horiz-adv-x="409" d="M199 162q39 0 63.5 -31t24.5 -80q0 -66 -43 -147.5t-144 -182.5l-51 46q61 70 85 120t24 95q0 20 -4 33.5t-11.5 23.5t-12.5 24.5t-5 24.5q0 8 3 20.5t12.5 24.5t26 20.5t32.5 8.5z" />
<glyph unicode="-" horiz-adv-x="667" d="M102 561v92h463v-92h-463z" />
<glyph unicode="&#xad;" horiz-adv-x="667" d="M102 561v92h463v-92h-463z" />
<glyph unicode="." horiz-adv-x="409" d="M293 74q0 -37 -25.5 -62.5t-62.5 -25.5t-62.5 25.5t-25.5 62.5t25.5 62.5t62.5 25.5t62.5 -25.5t25.5 -62.5z" />
<glyph unicode="/" horiz-adv-x="845" d="M131 -330h-98l717 1880h98z" />
<glyph unicode="0" d="M887 668q0 313 -80 451t-246 138q-68 0 -127 -31.5t-102 -99t-68.5 -176t-25.5 -262.5q0 -145 16 -259t54 -191.5t99.5 -119.5t153.5 -42q152 0 239 154.5t87 437.5zM1004 682q0 -197 -40 -331t-104.5 -216t-146.5 -116.5t-164 -34.5q-109 0 -188.5 38.5t-133 121.5 t-80 214t-26.5 316q0 174 34.5 302t95 210t143.5 122t181 40q86 0 164 -30t136.5 -104.5t93.5 -203.5t35 -328z" />
<glyph unicode="1" d="M170 0v98h379v1129l-356 -142l-23 101l395 145h97v-1233h335v-98h-827z" />
<glyph unicode="2" d="M133 0v86l385 379q92 90 149.5 156.5t89 122t43 105.5t11.5 107q0 61 -20.5 116.5t-60.5 96.5t-96 64.5t-130 23.5q-49 0 -95.5 -10t-87 -27.5t-75.5 -38t-60 -40.5l-41 88q74 51 166 85t201 34q100 0 177 -31t129 -83t79 -119.5t27 -143.5q0 -66 -13.5 -124.5 t-49.5 -123t-98.5 -139t-162.5 -168.5l-332 -316v-2q59 2 177 3t286 1h244v-102h-842z" />
<glyph unicode="3" d="M948 391q0 -92 -35.5 -166.5t-103.5 -128t-165 -83t-220 -29.5q-63 0 -127 8t-117 24l17 107q53 -18 116.5 -30.5t130.5 -12.5q186 0 286.5 79t100.5 212q0 135 -99 210.5t-275 75.5q-53 0 -96.5 -2t-94.5 -6v94h33q244 0 373 70t129 215q0 109 -79 169t-202 60 q-86 0 -158.5 -22.5t-142.5 -58.5l-14 102q70 29 148.5 49.5t176.5 20.5q94 0 167 -25t121 -65.5t72.5 -98t24.5 -121.5q0 -123 -71.5 -204.5t-202.5 -116.5v-2q63 -4 119.5 -31t98.5 -71t65.5 -101.5t23.5 -120.5z" />
<glyph unicode="4" d="M717 1223h-2l-541 -803q57 2 135 3l156 2t145 1h107v797zM825 326v-326h-108v326h-654l-6 82l621 923h147v-905h254v-100h-254z" />
<glyph unicode="5" d="M946 428q0 -100 -37 -182t-105.5 -140.5t-165.5 -90t-216 -31.5q-121 0 -234 26v107q113 -39 248 -39q195 0 296.5 90t101.5 242q0 145 -108 220t-282 75q-63 0 -123.5 -5.5t-95.5 -11.5v643h676v-106h-577v-434q35 4 74.5 5t68.5 1q119 0 209 -30t150.5 -80t90 -116.5 t29.5 -142.5z" />
<glyph unicode="6" d="M901 418q0 139 -79 228t-234 89q-78 0 -138.5 -28.5t-101.5 -72.5t-63.5 -97.5t-22.5 -102.5q0 -74 21.5 -139.5t62.5 -114.5t102.5 -77.5t141.5 -28.5q74 0 132 25.5t98 70.5t60.5 108.5t20.5 139.5zM1012 442q0 -100 -31 -184t-88 -145.5t-138 -95t-182 -33.5 q-104 0 -186 38.5t-138 109.5t-86 171t-30 221q0 227 50 384t139.5 254.5t210 141.5t262.5 44q25 0 50 -1t38 -4v-98q-23 4 -47.5 5t-59.5 1q-238 0 -362.5 -137t-163.5 -385q-4 -16 -8 -48t-9 -71h3q53 104 150 160.5t218 56.5q98 0 174 -29.5t128 -81.5t79 -123t27 -151z " />
<glyph unicode="7" d="M1006 1237q-86 -156 -166 -316.5t-153 -318.5t-136.5 -310.5t-114.5 -291.5h-129q117 289 259.5 600t316.5 629q-14 0 -74.5 -1t-143.5 -2t-178 -1h-178h-184v106h881v-94z" />
<glyph unicode="8" d="M870 305q0 66 -26.5 115t-69.5 88t-100.5 68.5t-118.5 58.5q-59 -33 -113.5 -66.5t-95.5 -71.5t-66.5 -84t-25.5 -104q0 -104 81 -168.5t234 -64.5q61 0 115.5 14t96.5 44t65.5 73t23.5 98zM836 1024q0 117 -79 174t-198 57q-125 0 -197.5 -65.5t-72.5 -159.5 q0 -49 16.5 -88t50 -72.5t87 -64.5t126.5 -68q53 29 101.5 59.5t85.5 64.5t58.5 74t21.5 89zM987 317q0 -74 -31.5 -134t-90 -105t-138.5 -69.5t-174 -24.5q-92 0 -169 22.5t-131 64.5t-85 99t-31 129q0 68 28 123t73 101t103 83t122 72q-139 66 -215 143.5t-76 200.5 q0 68 27.5 127t80 103t126 70t165.5 26q180 0 280.5 -87t100.5 -227q0 -59 -23.5 -108t-63.5 -90t-93 -76t-110 -68q61 -31 119.5 -64.5t104.5 -77.5t73.5 -100.5t27.5 -132.5z" />
<glyph unicode="9" d="M856 899q0 76 -21.5 142.5t-61.5 113.5t-100.5 74.5t-135.5 27.5q-74 0 -131.5 -26.5t-97.5 -72.5t-60.5 -107.5t-20.5 -130.5q0 -147 80 -236.5t223 -89.5q78 0 138.5 24.5t102.5 66.5t63.5 97.5t21.5 116.5zM983 807q0 -233 -52 -391t-142.5 -254t-212 -137t-261.5 -41 q-72 0 -141 12v104q37 -8 80 -13t88 -5q227 0 351 121t157 364q4 35 8 60.5t10 54.5h-2q-51 -86 -142 -136t-210 -50q-96 0 -171 29.5t-125 84t-76.5 128t-26.5 161.5q0 100 31.5 182t90 141.5t137.5 92.5t175 33q98 0 178 -31t136.5 -96.5t88 -168t31.5 -245.5z" />
<glyph unicode=":" horiz-adv-x="563" d="M406 74q0 -37 -26 -62.5t-63 -25.5t-62.5 25.5t-25.5 62.5t26 62.5t62 25.5q37 0 63 -25.5t26 -62.5zM406 692q0 -37 -26 -62.5t-63 -25.5t-62.5 25.5t-25.5 62.5t26 62.5t62 25.5q37 0 63 -25.5t26 -62.5z" />
<glyph unicode=";" horiz-adv-x="563" d="M406 692q0 -37 -26 -62.5t-63 -25.5t-62.5 25.5t-25.5 62.5t26 62.5t62 25.5q37 0 63 -25.5t26 -62.5zM315 162q39 0 63.5 -29t24.5 -82q0 -59 -40.5 -144t-145.5 -186l-51 46q61 66 85.5 120t24.5 95q0 20 -5 33.5t-12 23.5t-12 21.5t-5 27.5q0 8 3 20.5t12 24.5 t22 20.5t36 8.5z" />
<glyph unicode="&#x3c;" d="M807 66l-643 557l643 559l67 -68l-571 -489l571 -484z" />
<glyph unicode="=" d="M119 408v94h889v-94h-889zM119 717v94h889v-94h-889z" />
<glyph unicode="&#x3e;" d="M319 66l-67 67l571 490l-571 483l67 76l644 -557z" />
<glyph unicode="?" horiz-adv-x="901" d="M477 74q0 -37 -25.5 -62.5t-62.5 -25.5t-62.5 25.5t-25.5 62.5t25.5 62.5t62.5 25.5t62.5 -25.5t25.5 -62.5zM752 1065q0 -84 -32 -143.5t-77 -108.5t-93 -94t-83 -101.5t-45 -131t20 -181.5h-106q-33 106 -23.5 183t42 136.5t79.5 107.5t91 96.5t75 101.5t31 123 q0 55 -31 105t-86 89t-134 63.5t-175 28.5l14 101q117 -6 215 -38t169 -82t110 -115.5t39 -139.5z" />
<glyph unicode="@" horiz-adv-x="2097" d="M1266 924q-16 4 -57.5 9t-98.5 5q-86 0 -152.5 -43t-107.5 -112.5t-61.5 -150.5t-20.5 -159q0 -221 139 -221q49 0 98.5 36t94.5 104.5t82 170t59 225.5zM1901 752q0 -135 -36 -246t-98.5 -188.5t-145.5 -117.5t-175 -40q-70 0 -120 23.5t-77.5 63.5t-38 88t-2.5 99h-4 q-16 -49 -45 -97t-69.5 -88t-94 -64.5t-112.5 -24.5q-109 0 -169.5 77.5t-60.5 211.5q0 117 31 222t91.5 186t150.5 127t204 46q88 0 163 -7t108 -13l-90 -469q-27 -141 14 -215t137 -74q72 0 133.5 33.5t106.5 99.5t69.5 157t24.5 201q0 123 -39 236t-121 203t-213 142 t-307 52q-170 0 -320.5 -64.5t-264 -183t-176 -277.5t-62.5 -341q0 -164 48 -298t141 -229.5t227.5 -146.5t304.5 -51q86 0 175 12.5t177 34.5l14 -88q-86 -25 -186 -37t-193 -12q-186 0 -337.5 56t-258 161.5t-163 253t-56.5 326.5q0 209 74 388t206 311t302 202.5 t356 70.5q190 0 338 -58t245 -158.5t145.5 -228.5t48.5 -267z" />
<glyph unicode="A" horiz-adv-x="1239" d="M680 1077q-37 100 -64 185h-2q-14 -43 -29.5 -88.5t-31.5 -92.5l-231 -628h587zM1073 0l-131 362h-653l-133 -362h-119l526 1382h117l522 -1382h-129z" />
<glyph unicode="B" horiz-adv-x="1146" d="M909 383q0 72 -24.5 125t-77.5 90t-137 55.5t-201 18.5t-154 -2v-574q31 -4 93.5 -8t113.5 -4q100 0 174 22.5t121 63.5t69.5 95.5t22.5 117.5zM860 1040q0 57 -15.5 103.5t-54 81.5t-106.5 55t-166 20q-37 0 -87 -2t-116 -4v-534q47 -2 164 -2q186 0 283.5 72.5 t97.5 209.5zM1024 395q0 -66 -24.5 -134t-84 -129.5t-162 -99.5t-249.5 -38q-63 0 -137 2t-162 4v1382q41 2 134 4.5t198 2.5q115 0 197.5 -24t136 -68t79 -104t25.5 -134q0 -117 -68.5 -206t-187.5 -126v-2q70 -10 126 -35.5t96 -67.5t61.5 -99.5t21.5 -127.5z" />
<glyph unicode="C" horiz-adv-x="1228" d="M1128 68q-86 -37 -189 -59.5t-212 -22.5q-299 0 -457.5 178t-158.5 502q0 158 37.5 289.5t117.5 231t206 155t300 55.5q82 0 173 -12.5t163 -34.5l-23 -103q-84 29 -171 44.5t-169 15.5q-135 0 -234 -48.5t-161.5 -134.5t-92.5 -198.5t-30 -241.5q0 -291 132.5 -447.5 t394.5 -156.5q88 0 181 21.5t169 56.5z" />
<glyph unicode="D" horiz-adv-x="1411" d="M1186 694q0 303 -158 454.5t-461 151.5q-53 0 -101 -1t-151 -5v-1196q49 -6 113 -10t109 -4q147 0 266 37t205 111.5t132 190t46 271.5zM1300 700q0 -174 -57 -308t-161.5 -222t-248 -132t-315.5 -44q-66 0 -168 4t-145 2v1382q51 0 181 3.5t198 3.5q348 0 532 -172.5 t184 -516.5z" />
<glyph unicode="E" horiz-adv-x="1056" d="M205 0v1382h692v-88h-582v-536h535v-88h-535v-580h582v-90h-692z" />
<glyph unicode="F" horiz-adv-x="966" d="M315 1294v-536h531v-88h-531v-670h-110v1382h680v-88h-570z" />
<glyph unicode="G" horiz-adv-x="1411" d="M1219 57q-102 -37 -218 -55t-223 -18q-154 0 -279.5 46t-213.5 134t-135.5 215t-47.5 289q0 158 45.5 291t135.5 232t226 153.5t312 54.5q94 0 186.5 -14.5t188.5 -45.5l-29 -100q-88 35 -181 52.5t-183 17.5q-152 0 -263.5 -50.5t-182 -137.5t-104.5 -198.5t-34 -234.5 q0 -145 40 -260t116 -193.5t183.5 -118.5t240.5 -40q86 0 161.5 11t147.5 36v561h111v-627z" />
<glyph unicode="H" horiz-adv-x="1452" d="M1137 0v674h-822v-674h-110v1382h110v-618h822v618h110v-1382h-110z" />
<glyph unicode="I" horiz-adv-x="520" d="M205 0v1382h110v-1382h-110z" />
<glyph unicode="J" horiz-adv-x="704" d="M500 336q0 -174 -85 -261t-255 -87q-33 0 -80 5t-78 11v105q33 -10 85 -18.5t91 -8.5q49 0 87 12t65.5 41t43 81t15.5 132v1034h111v-1046z" />
<glyph unicode="K" horiz-adv-x="1171" d="M965 0l-650 707v-707h-110v1382h110v-675l650 675h137l-658 -667l682 -715h-161z" />
<glyph unicode="L" horiz-adv-x="868" d="M205 0v1382h110v-1292h541v-90h-651z" />
<glyph unicode="M" horiz-adv-x="1824" d="M1581 0l-133 932q-18 123 -29.5 211t-15.5 141h-4q-8 -29 -29.5 -93.5t-38.5 -111.5l-385 -1079h-100l-363 1014q-23 63 -50 142t-42 128h-2q-4 -74 -13 -160t-24 -204l-108 -920h-117l190 1382h150l369 -1026q20 -53 36.5 -107t28.5 -106h2q12 53 28.5 108.5t35.5 104.5 l368 1026h162l201 -1382h-117z" />
<glyph unicode="N" horiz-adv-x="1425" d="M1110 0l-645 1008q-47 74 -87 140t-77 136q2 -66 5 -197t5 -266t3 -259t1 -167v-395h-110v1382h149l639 -995q47 -76 68.5 -111.5t62.5 -113.5q-4 111 -6 206t-4 193t-3 227.5t-1 235.5v358h111v-1382h-111z" />
<glyph unicode="O" horiz-adv-x="1445" d="M1229 680q0 285 -130 456t-376 171q-104 0 -196.5 -39t-162 -117t-108.5 -190.5t-39 -255.5q0 -139 32 -255t96.5 -200t159.5 -129t218 -45q104 0 196.5 39t162 116.5t108.5 191.5t39 257zM1343 705q0 -170 -49 -305.5t-137 -228.5t-203.5 -140t-246.5 -47 q-143 0 -256 49t-191 141t-118 220t-40 284q0 170 49.5 305t137.5 228.5t203.5 140.5t246.5 47q143 0 256 -49.5t191 -141.5t117.5 -219.5t39.5 -283.5z" />
<glyph unicode="P" horiz-adv-x="1120" d="M1036 973q0 -102 -37.5 -188.5t-109.5 -150t-172.5 -98t-218.5 -34.5q-39 0 -80 2t-66.5 4t-36.5 2v-510h-110v1382q20 0 71.5 2t124 3.5t131.5 1.5q129 0 226.5 -34t158 -92.5t90 -133t29.5 -156.5zM922 950q0 160 -104.5 254t-311.5 94q-57 0 -111.5 -1t-79.5 -3v-688 q10 -2 38 -5t72 -6t87 -3q199 0 304.5 101t105.5 257z" />
<glyph unicode="Q" horiz-adv-x="1445" d="M1448 -137q-80 -8 -143.5 -4t-110.5 16t-114.5 38t-103.5 38t-93.5 22.5t-128.5 10.5h-47q-143 0 -256 49t-191 141t-118 220t-40 284q0 170 49.5 305t137.5 228.5t203.5 140.5t246.5 47q143 0 256 -49.5t191 -141.5t117.5 -220t39.5 -283q0 -94 -16 -180.5t-47 -161 t-76 -137t-104.5 -108.5t-128.5 -75q47 -2 101 -19.5t107.5 -35t118 -25.5t150.5 0v-100zM1229 680q0 285 -130 456t-376 171q-104 0 -196.5 -39t-162 -117t-108.5 -190.5t-39 -255.5q0 -139 32 -255t96.5 -200t159.5 -129t218 -45q104 0 196.5 39t162 116.5t108.5 191.5 t39 257z" />
<glyph unicode="R" horiz-adv-x="1146" d="M864 1016q0 139 -93 211.5t-267 72.5q-57 0 -110.5 -2t-78.5 -4v-569q25 0 76 -1t105 -1q178 0 273 78t95 215zM930 0l-488 637h-127v-637h-110v1380q43 2 134 5.5t181 3.5q100 0 184 -20.5t145.5 -64.5t95.5 -112t34 -158q0 -92 -33 -163.5t-89 -121t-131 -76 t-159 -32.5q16 -16 50 -56t71 -89l385 -496h-143z" />
<glyph unicode="S" horiz-adv-x="1032" d="M907 373q0 -86 -33.5 -161t-103.5 -128t-155 -76.5t-191 -23.5q-80 0 -158 11t-141 30l20 106q70 -25 143.5 -38t145.5 -13q78 0 139.5 14.5t111.5 46t80 86t30 133.5q0 88 -49.5 144.5t-123 94.5t-161.5 73t-166 81t-124 117.5t-46 171.5q0 78 27.5 140.5t85 111.5 t141.5 77t192 28q63 0 128 -7.5t120 -19.5l-16 -102q-55 16 -117.5 26.5t-122.5 10.5q-162 0 -244.5 -69t-82.5 -185q0 -82 47 -138.5t120.5 -93.5t162.5 -72.5t165 -79.5t126 -117t50 -179z" />
<glyph unicode="T" horiz-adv-x="1069" d="M590 1292v-1292h-111v1292h-438v90h987v-90h-438z" />
<glyph unicode="U" horiz-adv-x="1441" d="M1237 520q0 -262 -132 -399t-400 -137q-160 0 -258.5 41t-151.5 107.5t-71.5 150.5t-18.5 168v931h110v-917q0 -78 16.5 -149.5t60.5 -125t122 -85t201 -31.5q102 0 180 22.5t130 74.5t77.5 134t25.5 203v874h109v-862z" />
<glyph unicode="V" horiz-adv-x="1243" d="M670 0h-117l-516 1382h129l348 -966q23 -63 50.5 -142t49.5 -155h2q23 72 50.5 150.5t56.5 156.5l362 956h117z" />
<glyph unicode="W" horiz-adv-x="1951" d="M1473 0h-142l-313 1059q-14 51 -25.5 93t-19.5 81h-2q-18 -94 -41 -174l-305 -1059h-144l-391 1382h119l291 -1034q20 -80 33.5 -137t25.5 -115h2q14 68 27.5 127.5t29.5 112.5l302 1046h112l318 -1065q16 -55 30.5 -112.5t24.5 -108.5h2q10 53 20.5 97.5t22.5 89.5 l303 1099h109z" />
<glyph unicode="X" horiz-adv-x="1167" d="M981 0l-406 633l-401 -633h-125l467 717l-438 665h129l371 -575l366 575h125l-430 -653l479 -729h-137z" />
<glyph unicode="Y" horiz-adv-x="1050" d="M580 553v-553h-111v553l-457 829h125l279 -512q31 -59 56.5 -111t55.5 -120h2q29 63 57.5 121.5t57.5 109.5l275 512h118z" />
<glyph unicode="Z" horiz-adv-x="1107" d="M96 0v76l660 1011q41 63 71.5 108.5t65.5 92.5q-74 -2 -163 -3t-191 -1h-418v98h889v-75l-695 -1065q-23 -35 -43 -66t-55 -82q35 4 123 5t266 1h410v-100h-920z" />
<glyph unicode="[" horiz-adv-x="647" d="M205 -395v1964h360v-80h-260v-1802h260v-82h-360z" />
<glyph unicode="\" horiz-adv-x="829" d="M750 -330l-717 1880h98l717 -1880h-98z" />
<glyph unicode="]" horiz-adv-x="647" d="M82 -395v82h260v1802h-260v80h360v-1964h-360z" />
<glyph unicode="^" d="M858 715l-321 577l-308 -577l-79 43l342 624h96l356 -622z" />
<glyph unicode="_" d="M0 -516v84h1126v-84h-1126z" />
<glyph unicode="`" horiz-adv-x="716" d="M449 1186l-244 262l82 68l225 -277z" />
<glyph unicode="a" horiz-adv-x="1060" d="M745 500q-145 0 -246.5 -19.5t-162 -52.5t-86 -75t-25.5 -89q0 -82 51.5 -135t135.5 -53q72 0 134 33.5t107 91t68.5 127t23.5 141.5v31zM745 0q0 74 3.5 131t9.5 100l-4 2q-18 -51 -52 -97t-82.5 -79.5t-107.5 -53t-125 -19.5q-57 0 -107.5 17t-88 51t-58 83t-20.5 109 q0 74 40 137t119.5 109.5t199.5 72t273 25.5v69q0 147 -55 217t-192 70q-72 0 -154 -20.5t-156 -53.5l-22 91q82 35 169 54t175 19q94 0 160.5 -24.5t106.5 -71.5t58.5 -111.5t18.5 -146.5v-356q0 -74 1 -158t3 -166h-113z" />
<glyph unicode="b" horiz-adv-x="1142" d="M926 545q0 190 -69 295.5t-206 105.5q-82 0 -146.5 -43t-106.5 -111.5t-63.5 -148.5t-21.5 -151v-386q25 -8 86.5 -19t139.5 -11q90 0 160.5 27.5t121.5 85t78 146.5t27 210zM1040 553q0 -137 -36.5 -242.5t-104.5 -177.5t-162 -107.5t-211 -35.5q-106 0 -195 13t-126 22 v1470h108v-549q0 -45 -5 -95t-13 -87l4 -2q45 129 142.5 200.5t222.5 71.5q180 0 278 -121.5t98 -359.5z" />
<glyph unicode="c" horiz-adv-x="913" d="M852 49q-68 -29 -153 -45t-169 -16q-86 0 -160.5 21.5t-136 74.5t-98.5 149.5t-37 239.5q0 127 31 230.5t91.5 176t148.5 111.5t200 39q78 0 148.5 -13t128.5 -36l-27 -92q-59 23 -130 38t-142 15q-78 0 -140.5 -32.5t-105.5 -92t-65.5 -140.5t-22.5 -177 q0 -90 15.5 -165t53 -132.5t105.5 -90t166 -32.5q150 0 274 57z" />
<glyph unicode="d" horiz-adv-x="1142" d="M829 915q-113 27 -225 27q-90 0 -160.5 -27.5t-122 -85t-78 -146.5t-26.5 -210q0 -190 68.5 -295.5t206.5 -105.5q82 0 146 43t106 111.5t63.5 148.5t21.5 151v389zM823 0q0 27 1 58.5t4 65.5t6.5 65.5t9.5 54.5l-4 2q-43 -121 -140.5 -191.5t-220.5 -70.5 q-186 0 -281.5 126t-95.5 355q0 137 37 242.5t104.5 177t162 107.5t210.5 36q49 0 100.5 -3t112.5 -9v479h109v-1495h-115z" />
<glyph unicode="e" horiz-adv-x="1026" d="M918 627q0 -31 -1.5 -55.5t-1.5 -34.5h-702q-4 -236 85 -347.5t273 -111.5q74 0 147 13t148 42l21 -88q-84 -29 -166 -45t-166 -16q-227 0 -342 129t-115 393q0 113 30 210t86 168.5t137 110.5t181 39t174 -31.5t120 -88t69 -130t23 -157.5zM801 623q2 152 -72 237.5 t-205 85.5q-121 0 -202.5 -84t-102.5 -239h582z" />
<glyph unicode="f" horiz-adv-x="706" d="M784 1391q-86 25 -172 24q-129 0 -189.5 -79t-60.5 -246v-72h326v-86h-326v-932h-108v932h-242v86h242v67q0 209 98.5 313.5t276.5 104.5q84 0 168 -18z" />
<glyph unicode="g" horiz-adv-x="1081" d="M903 -182q0 96 -67.5 149t-219.5 58l-182 6q-31 0 -59 6q-82 -51 -126 -115.5t-44 -134.5q0 -55 22.5 -98t65.5 -73t102.5 -44t132.5 -14q180 0 277.5 71.5t97.5 188.5zM795 674q0 121 -73 196.5t-200 75.5q-63 0 -114.5 -20.5t-86 -56t-53 -86t-18.5 -109.5 q0 -121 72.5 -197t199.5 -76t200 76t73 197zM1018 -168q0 -82 -36 -149.5t-103.5 -115.5t-160.5 -73.5t-208 -25.5q-96 0 -174 20t-133.5 59t-84 95.5t-28.5 128.5q0 90 52.5 166.5t131.5 130.5q-45 23 -68.5 58.5t-23.5 82.5q0 45 27 87t78 77q-72 47 -110 123.5t-38 162.5 q0 78 25.5 146.5t77 120t125 80t168.5 28.5q31 0 61.5 -4t62.5 -12h342v-86h-194q47 -45 72.5 -108.5t25.5 -135.5q0 -78 -25.5 -146.5t-76.5 -119.5t-125 -80t-168 -29q-76 0 -135 19q-39 -25 -60.5 -52.5t-21.5 -54.5q0 -41 41 -65.5t129 -26.5l182 -6q188 -6 280.5 -84 t92.5 -211z" />
<glyph unicode="h" horiz-adv-x="1187" d="M874 0v662q0 135 -46 209.5t-173 74.5q-76 0 -139 -33.5t-108.5 -95t-70 -146.5t-24.5 -186v-485h-108v1495h108v-526q0 -53 -3 -108.5t-13 -92.5l4 -2q45 123 141.5 195.5t233.5 72.5q88 0 147.5 -25.5t94 -69.5t50 -104.5t15.5 -127.5v-707h-109z" />
<glyph unicode="i" horiz-adv-x="518" d="M205 0v1018h108v-1018h-108zM342 1352q0 -35 -23.5 -58.5t-58.5 -23.5t-58.5 23.5t-23.5 58.5t23.5 58.5t58.5 23.5t58.5 -23.5t23.5 -58.5z" />
<glyph unicode="j" horiz-adv-x="536" d="M332 -150q0 -102 -15.5 -173.5t-50.5 -118.5t-95 -68.5t-148 -21.5q-33 0 -70 4t-66 14l15 100q29 -10 63.5 -17t71.5 -7q55 0 92 12t57.5 45t28.5 88t8 139v1172h109v-1168zM360 1352q0 -35 -23.5 -58.5t-57.5 -23.5q-35 0 -58.5 23.5t-23.5 58.5t23.5 58.5t58.5 23.5 t58 -23.5t23 -58.5z" />
<glyph unicode="k" horiz-adv-x="952" d="M750 0l-437 547v-547h-108v1495h108v-946l418 469h127l-422 -461l461 -557h-147z" />
<glyph unicode="l" horiz-adv-x="518" d="M205 0v1495h108v-1495h-108z" />
<glyph unicode="m" horiz-adv-x="1824" d="M205 1018h112q0 -57 -4 -127t-14 -119l4 -2q43 121 140.5 192.5t228.5 71.5q94 0 151.5 -30.5t87 -72.5t38.5 -86t7 -71q12 37 40 82t73 85t106.5 66.5t145.5 26.5q141 0 220 -76.5t79 -250.5v-707h-109v662q0 63 -9 116t-32.5 90t-63.5 57.5t-103 20.5 q-66 0 -126.5 -31.5t-107.5 -91t-74.5 -145.5t-27.5 -197v-481h-109v664q0 57 -7 108t-29.5 90t-63.5 61.5t-109 22.5q-72 0 -132 -33.5t-106 -95t-72 -147.5t-26 -189v-481h-108v1018z" />
<glyph unicode="n" horiz-adv-x="1187" d="M874 0v662q0 135 -46 209.5t-173 74.5q-76 0 -139 -33.5t-108.5 -95t-70 -146.5t-24.5 -186v-485h-108v1018h112q0 -57 -4 -127t-14 -119l4 -2q43 121 139.5 192.5t233.5 71.5q88 0 147.5 -25.5t94 -69.5t50 -104.5t15.5 -127.5v-707h-109z" />
<glyph unicode="o" horiz-adv-x="1101" d="M893 510q0 207 -90 321.5t-250 114.5q-78 0 -141.5 -27.5t-108.5 -84t-69.5 -138.5t-24.5 -188q0 -207 90 -320.5t250 -113.5q74 0 136.5 25.5t109.5 78.5t72.5 137t25.5 195zM1006 516q0 -113 -30 -209t-90.5 -168.5t-148.5 -113.5t-202 -41q-205 0 -322 131t-117 387 q0 113 30 209t90 168.5t148.5 113.5t202.5 41q100 0 181 -31.5t138.5 -96t88.5 -163t31 -227.5z" />
<glyph unicode="p" horiz-adv-x="1142" d="M926 545q0 186 -66.5 293.5t-208.5 107.5q-86 0 -150.5 -45t-105.5 -112.5t-61.5 -147.5t-20.5 -149v-386q51 -16 105.5 -23t120.5 -7q88 0 159.5 26.5t121.5 84t78 146.5t28 212zM1040 553q0 -139 -36.5 -244.5t-104.5 -176.5t-163 -106.5t-210 -35.5q-59 0 -106 2 t-107 12v-520h-108v1534h114q0 -25 -1 -57.5t-4 -66.5t-6 -64.5t-9 -55.5l4 -2q43 121 139.5 191.5t221.5 70.5q180 0 278 -119.5t98 -361.5z" />
<glyph unicode="q" horiz-adv-x="1142" d="M829 918q-113 27 -225 26q-176 0 -281.5 -111.5t-105.5 -359.5q0 -186 66.5 -293.5t208.5 -107.5q86 0 149.5 45t105 112.5t62 147.5t20.5 149v392zM829 -516v594q0 29 2.5 76t12.5 90l-4 2q-43 -121 -139.5 -191.5t-221.5 -70.5q-180 0 -278.5 119.5t-98.5 361.5 q0 139 37 244.5t104.5 177t164 107.5t215.5 36q76 0 157.5 -7t157.5 -19v-1520h-109z" />
<glyph unicode="r" horiz-adv-x="724" d="M666 926q-180 27 -266.5 -110.5t-86.5 -412.5v-403h-108v1018h112q0 -55 -6 -130t-20 -147l4 -2q14 57 42 114.5t73 100.5t109.5 65.5t150.5 12.5z" />
<glyph unicode="s" horiz-adv-x="886" d="M766 276q0 -61 -26.5 -114t-78 -93t-125 -62.5t-167.5 -22.5q-63 0 -130 8t-116 20l14 109q51 -18 120 -30.5t130 -12.5q129 0 198.5 50t69.5 140q0 63 -35.5 102.5t-80.5 57.5t-139.5 48t-149.5 60.5t-92 85t-37 140.5q0 119 99 195.5t276 76.5q51 0 104 -5t102 -15 l-14 -101q-47 16 -103.5 24.5t-107.5 8.5q-121 0 -183.5 -47t-62.5 -129q0 -63 36 -102t81 -57.5t139.5 -48.5t149.5 -60.5t92 -85t37 -140.5z" />
<glyph unicode="t" horiz-adv-x="753" d="M682 6q-41 -10 -90 -15t-92 -5q-72 0 -120 17t-78 53t-42 90.5t-12 132.5v653h-236v86h236v348l108 31v-379h320v-86h-320v-613q0 -72 7.5 -116.5t26 -71.5t49 -38t81.5 -11q39 0 78 5t72 13z" />
<glyph unicode="u" horiz-adv-x="1187" d="M870 0q0 61 5.5 130t13.5 116l-4 2q-43 -123 -140.5 -193.5t-232.5 -70.5q-86 0 -145.5 24.5t-95 68.5t-51 103.5t-15.5 130.5v707h108v-662q0 -143 49.5 -213.5t169.5 -70.5q76 0 138.5 33.5t108.5 96t70.5 146.5t24.5 184v486h109v-1018h-113z" />
<glyph unicode="v" horiz-adv-x="954" d="M530 0h-114l-389 1018h127l268 -750q20 -59 31.5 -92t21.5 -70h2q12 37 25.5 76t27.5 80l277 756h121z" />
<glyph unicode="w" horiz-adv-x="1617" d="M1235 0h-133l-256 743q-14 43 -28.5 88.5t-26.5 92.5h-3q-14 -55 -28.5 -103.5t-46.5 -152.5l-211 -668h-140l-317 1018h125l201 -696q10 -41 33.5 -120t31.5 -108h2q12 49 29.5 108.5t38.5 121.5l223 694h141l228 -694q18 -55 28.5 -88t18.5 -58.5t13 -45t11 -40.5h2 q10 37 33 109.5t37 120.5l211 696h121z" />
<glyph unicode="x" horiz-adv-x="1042" d="M831 0l-315 438l-315 -438h-140l398 508l-379 510h141l303 -428l312 428h129l-383 -502l399 -516h-150z" />
<glyph unicode="y" horiz-adv-x="937" d="M526 0l-43 -113q-43 -115 -87 -194.5t-97 -129.5t-117.5 -72.5t-148.5 -22.5q-49 0 -96 10l12 98q23 -6 55.5 -10t58.5 -4q47 0 88.5 13t78 50t71.5 95.5t70 148.5l51 131l-395 1018h129l243 -664q27 -72 44.5 -123t33.5 -104h2q12 41 41 125t64 180l207 586h120z" />
<glyph unicode="z" horiz-adv-x="909" d="M102 0v76l566 850q-57 -2 -142.5 -3t-177.5 -1h-235v96h673v-74l-561 -848q25 0 64 1t83 2t89 1h336v-100h-695z" />
<glyph unicode="{" horiz-adv-x="657" d="M559 -395q-74 0 -126 22.5t-83 66.5t-45 107.5t-14 147.5v438q0 59 -11.5 98t-36 66t-68.5 40t-112 17v94q70 4 114 16.5t68.5 38t35 65.5t10.5 102v301q0 70 12 130t43 108t84 77t129 29h31v-80q-111 0 -155 -57.5t-44 -198.5v-299q0 -115 -47 -186.5t-145 -90.5v-2 q96 -14 144 -88.5t48 -189.5v-436q0 -141 44 -197.5t155 -56.5v-82h-31z" />
<glyph unicode="|" horiz-adv-x="577" d="M246 -516v2048h86v-2048h-86z" />
<glyph unicode="}" horiz-adv-x="657" d="M610 608q-68 -4 -110.5 -17t-69.5 -40t-37 -67t-10 -97v-438q0 -164 -59.5 -254t-208.5 -90h-31v82q113 0 156 57t43 197v436q0 111 46 186.5t146 91.5v2q-104 14 -148 88t-44 179v309q0 139 -43 197.5t-156 58.5v80h31q80 0 132 -30t81.5 -78t42 -110.5t12.5 -125.5 v-291q0 -63 9 -106.5t35 -70t70 -38.5t113 -17v-94z" />
<glyph unicode="~" d="M995 1153q0 -121 -64.5 -197.5t-174.5 -76.5q-55 0 -94 17t-68 44t-52.5 57.5t-48 57t-54 44t-72.5 17.5q-78 0 -113 -57.5t-37 -140.5h-82v4q0 121 64.5 197.5t175.5 76.5q82 0 130 -37t84 -82t73.5 -82t101.5 -37q78 0 112.5 57.5t36.5 141.5h82v-4z" />
<glyph unicode="&#xa1;" horiz-adv-x="651" d="M240 -412l22 1125h86l23 -1125h-131zM393 944q0 -37 -25.5 -62.5t-62.5 -25.5t-62.5 25.5t-25.5 62.5t25.5 62.5t62.5 25.5t62.5 -25.5t25.5 -62.5z" />
<glyph unicode="&#xa2;" d="M952 293q-127 -61 -270 -74v-219h-92v219q-197 8 -306.5 120t-109.5 339q0 199 111.5 318.5t304.5 144.5v190h92v-186q59 -2 124.5 -14.5t129.5 -38.5l-18 -97q-57 27 -123 43.5t-138 16.5q-174 0 -272 -93.5t-98 -279.5q0 -78 18.5 -145.5t60.5 -116.5t111.5 -78 t171.5 -29q74 0 146.5 18.5t128.5 51.5z" />
<glyph unicode="&#xa3;" d="M160 0v78q104 94 161.5 174t57.5 174q0 45 -5 92t-14 96h-237v86h223q-12 68 -21.5 137.5t-9.5 137.5q0 197 97.5 285t261.5 88q51 0 117.5 -9.5t119.5 -27.5l-26 -94q-53 18 -112.5 30.5t-113.5 12.5q-119 0 -177 -69t-58 -198q0 -72 11 -146.5t24 -146.5h342v-86h-330 q8 -47 12 -90t4 -86q0 -106 -47 -184t-143 -160q35 2 80 3t98 1h490v-98h-805z" />
<glyph unicode="&#xa4;" d="M799 684q0 55 -12.5 103.5t-42 84t-75.5 56t-114 20.5q-98 0 -162.5 -72.5t-64.5 -195.5q0 -57 12 -107.5t40 -88.5t75 -60.5t114 -22.5q45 0 87 20.5t74 57.5t50.5 89.5t18.5 115.5zM928 147l-172 232q-88 -63 -207 -64q-96 0 -166 35l-152 -203l-73 58l157 192 q-43 47 -67.5 116t-24.5 165q0 164 103 262l-168 205l71 57l158 -215q41 25 88 36t98 11q47 0 97.5 -9t97.5 -38l164 215l67 -57l-172 -213q35 -39 55.5 -100.5t20.5 -147.5q0 -78 -23.5 -141.5t-64.5 -110.5l184 -225z" />
<glyph unicode="&#xa5;" d="M641 559h330v-84h-357v-166h357v-84h-357v-225h-110v225h-357v84h357v166h-357v84h330l-381 772h123l232 -481q35 -70 60.5 -132.5t49.5 -127.5h2q29 72 59.5 142.5t65.5 137.5l227 461h117z" />
<glyph unicode="&#xa6;" horiz-adv-x="577" d="M246 -516v774h86v-774h-86zM246 778v754h86v-754h-86z" />
<glyph unicode="&#xa7;" horiz-adv-x="1044" d="M729 442q0 68 -32.5 130.5t-82 122t-107.5 118.5t-112 121q-59 -41 -84.5 -94.5t-25.5 -104.5q0 -68 32.5 -130t82 -121.5t108.5 -119t113 -118.5q59 41 83.5 93t24.5 103zM840 457q0 -162 -164 -283q37 -51 59.5 -102.5t22.5 -110.5t-21.5 -112.5t-61.5 -93.5 t-98.5 -63.5t-134.5 -23.5q-33 0 -72.5 5t-80.5 18l12 94q49 -16 82 -21.5t70 -5.5q92 0 143 52.5t51 136.5q0 61 -34.5 120.5t-88 119t-114 120t-113.5 126t-88 137t-35 151.5q0 158 164 285q-37 51 -59.5 103t-22.5 110q0 59 19.5 111t58.5 90t96 60.5t133 22.5 q33 0 71 -4t71 -14l-13 -94q-41 12 -71.5 17t-67.5 5q-92 0 -139 -48t-47 -132q0 -61 34.5 -120.5t88 -119t114 -121t113.5 -127t88 -137t35 -151.5z" />
<glyph unicode="&#xa8;" horiz-adv-x="942" d="M365 1352q0 -35 -23 -57.5t-57 -22.5q-35 0 -57.5 22.5t-22.5 57.5t22.5 57.5t57.5 22.5t57.5 -22.5t22.5 -57.5zM737 1352q0 -35 -22.5 -57.5t-57.5 -22.5t-57 22.5t-22 57.5t22.5 57.5t56.5 22.5q35 0 57.5 -22.5t22.5 -57.5z" />
<glyph unicode="&#xa9;" horiz-adv-x="1536" d="M963 356q-45 -16 -96.5 -23t-100.5 -7q-90 0 -151.5 27.5t-98.5 74.5t-53.5 110.5t-16.5 137.5q0 72 18.5 140.5t59.5 120.5t109.5 84t167.5 32q43 0 82 -6.5t73 -16.5l-6 -90q-78 33 -164 33q-68 0 -112.5 -22.5t-72.5 -62.5t-39 -92.5t-11 -111.5q0 -129 53 -201.5 t174 -72.5q94 0 178 30zM1343 686q0 119 -45 225.5t-123.5 186.5t-184 127t-226.5 47t-226.5 -45t-184.5 -124t-124 -185.5t-45 -227.5t45 -227.5t124 -186t184.5 -127t226.5 -47.5t226.5 46.5t184 125t123.5 185t45 227.5zM1438 690q0 -139 -53.5 -262t-144.5 -214 t-214 -144.5t-262 -53.5q-145 0 -269 52.5t-214.5 142.5t-141.5 212t-51 263q0 139 53.5 262t144.5 214t214 144.5t264 53.5t264 -52.5t214 -142.5t143.5 -212t52.5 -263z" />
<glyph unicode="&#xaa;" horiz-adv-x="765" d="M512 1042q-160 0 -225.5 -34.5t-65.5 -102.5q0 -43 26.5 -67.5t74.5 -24.5q49 0 85.5 22.5t59 57.5t34 70.5t11.5 62.5v16zM131 504v88h545v-88h-545zM506 739q0 27 3 57.5t9 59.5h-2q-14 -31 -34.5 -54.5t-48 -40t-59.5 -25.5t-67 -9q-92 0 -141 45t-49 119 q0 102 98 164.5t297 62.5v43q0 27 -5 52.5t-20.5 48t-46 36t-78.5 13.5q-51 0 -102 -13.5t-100 -37.5l-6 92q49 20 106 31.5t117 11.5q66 0 112 -17.5t72.5 -48.5t38.5 -68.5t12 -82.5v-128v-128q0 -55 1 -106.5t1 -76.5h-108z" />
<glyph unicode="&#xab;" horiz-adv-x="993" d="M377 264l-242 338l244 344l76 -51l-203 -291l203 -287zM737 264l-258 338l260 344l76 -51l-219 -291l219 -287z" />
<glyph unicode="&#xac;" d="M881 227v336h-789v92h881v-428h-92z" />
<glyph unicode="&#xae;" horiz-adv-x="1148" d="M653 1192q0 35 -18.5 51.5t-65.5 16.5h-55v-152h35q59 0 81.5 27.5t22.5 56.5zM657 844l-139 215h-4v-215h-76v477h135q86 0 122 -33t36 -86q0 -61 -34.5 -97t-94.5 -42q8 -10 20.5 -27.5t26.5 -40.5l105 -151h-97zM909 1075q0 70 -26.5 132.5t-71.5 110.5t-106.5 75.5 t-131.5 27.5t-131 -26.5t-106 -72.5t-71.5 -107.5t-26.5 -131.5t26.5 -132t71.5 -110t106.5 -76t130.5 -28q70 0 131.5 27t106.5 73t71.5 107t26.5 131zM997 1079q0 -86 -33.5 -162.5t-92 -135t-135.5 -92.5t-163 -34q-90 0 -167.5 33t-135 90.5t-89 134t-31.5 166.5 q0 88 33.5 165t91 134.5t134 91t164.5 33.5q90 0 168 -32.5t134.5 -89t89 -134.5t32.5 -168z" />
<glyph unicode="&#xaf;" horiz-adv-x="890" d="M205 1296v86h481v-86h-481z" />
<glyph unicode="&#xb0;" horiz-adv-x="745" d="M516 1264q0 27 -6 54.5t-23.5 51t-46 38.5t-71.5 15q-59 0 -100.5 -43t-41.5 -114q0 -74 39 -116t103 -42q63 0 105 43t42 113zM612 1266q0 -53 -21.5 -96.5t-56 -74t-78.5 -48t-91 -17.5q-109 0 -171.5 63.5t-62.5 168.5q0 55 20.5 100t54.5 75.5t78 47t91 16.5 q59 0 103 -19.5t74 -51t45 -74.5t15 -90z" />
<glyph unicode="&#xb1;" d="M92 0v92h942v-92h-942zM614 666v-428h-102v428h-420v92h420v426h102v-426h420v-92h-420z" />
<glyph unicode="&#xb2;" horiz-adv-x="700" d="M88 758v78l234 231q84 84 115.5 148.5t31.5 125.5q0 78 -41 127.5t-127 49.5q-53 0 -100 -15.5t-82 -38.5l-21 80q43 23 100.5 40.5t120.5 17.5q127 0 191.5 -70t64.5 -174q0 -86 -40.5 -165t-133.5 -169l-180 -176q78 4 179.5 4h217.5v-94h-530z" />
<glyph unicode="&#xb3;" horiz-adv-x="677" d="M571 1004q0 -59 -25.5 -106.5t-69.5 -82.5t-104.5 -53.5t-129.5 -18.5q-72 0 -154 17l14 96q33 -10 74 -17.5t86 -7.5q98 0 149.5 45.5t51.5 116.5q0 82 -77 125t-241 23v86q137 0 212 34.5t75 127.5q0 61 -41 94t-112 33q-47 0 -86 -10.5t-76 -26.5l-15 86 q51 18 97.5 27.5t97.5 9.5q111 0 176.5 -52.5t65.5 -150.5q0 -152 -152 -199q84 -12 134 -68t50 -128z" />
<glyph unicode="&#xb4;" horiz-adv-x="716" d="M268 1186l-63 53l225 277l82 -68z" />
<glyph unicode="&#xb6;" horiz-adv-x="1142" d="M584 541q-109 0 -189 32.5t-132 91t-78.5 136.5t-26.5 166q0 86 30.5 161.5t86 132t134 89t175.5 32.5v-841zM844 1303v-1500h-266v80h155v1499h266v-79h-155z" />
<glyph unicode="&#xb7;" horiz-adv-x="409" d="M299 608q0 -41 -26.5 -67.5t-67.5 -26.5t-67.5 26.5t-26.5 67.5t26.5 67.5t67.5 26.5t67.5 -26.5t26.5 -67.5z" />
<glyph unicode="&#xb8;" horiz-adv-x="620" d="M354 -84q76 -96 58.5 -192.5t-105.5 -206.5h-102q43 55 69.5 100t33.5 85t-6 79t-50 82z" />
<glyph unicode="&#xb9;" horiz-adv-x="526" d="M254 758v729l-195 -78l-20 92l237 86h80v-829h-102z" />
<glyph unicode="&#xba;" horiz-adv-x="845" d="M612 1063q0 57 -13 103t-37.5 78t-59.5 48.5t-78 16.5t-78 -15.5t-60.5 -47.5t-39 -78t-13.5 -105t13.5 -104.5t38 -77t59.5 -48t78 -16.5q88 0 139 63.5t51 182.5zM152 504v88h544v-88h-544zM725 1067q0 -70 -20.5 -131.5t-59.5 -108.5t-98.5 -72.5t-134.5 -25.5 q-135 0 -213 83t-78 247q0 70 20.5 131t59.5 108.5t98 73t135 25.5q68 0 121 -20.5t91 -61.5t58.5 -103.5t20.5 -144.5z" />
<glyph unicode="&#xbb;" horiz-adv-x="993" d="M252 264l-76 51l221 291l-217 287l78 53l256 -338zM612 264l-75 51l204 291l-200 287l77 53l240 -338z" />
<glyph unicode="&#xbc;" horiz-adv-x="1624" d="M254 758v729l-195 -78l-20 92l237 86h80v-829h-102zM174 -270l-80 55l1284 1851l80 -55zM1389 -7v-196h-102v196h-396l-8 70l363 563h143v-543h145v-90h-145zM1287 538l-293 -459q31 2 71.5 3t81.5 1h79h61v455z" />
<glyph unicode="&#xbd;" horiz-adv-x="1697" d="M174 -270l-80 55l1284 1851l80 -55zM254 758v729l-195 -78l-20 92l237 86h80v-829h-102zM1053 -203v78l234 231q84 84 115.5 148.5t31.5 125.5q0 78 -41 127.5t-127 49.5q-53 0 -100 -15.5t-82 -38.5l-21 80q43 23 100.5 40.5t120.5 17.5q127 0 191.5 -70t64.5 -174 q0 -86 -40.5 -165t-133.5 -169l-180 -176q78 4 179.5 4h217.5v-94h-530z" />
<glyph unicode="&#xbe;" horiz-adv-x="1671" d="M222 -270l-80 55l1284 1851l80 -55zM571 1004q0 -59 -25.5 -106.5t-69.5 -82.5t-104.5 -53.5t-129.5 -18.5q-72 0 -154 17l14 96q33 -10 74 -17.5t86 -7.5q98 0 149.5 45.5t51.5 116.5q0 82 -77 125t-241 23v86q137 0 212 34.5t75 127.5q0 61 -41 94t-112 33 q-47 0 -86 -10.5t-76 -26.5l-15 86q51 18 97.5 27.5t97.5 9.5q111 0 176.5 -52.5t65.5 -150.5q0 -152 -152 -199q84 -12 134 -68t50 -128zM1436 -7v-196h-102v196h-396l-8 70l363 563h143v-543h145v-90h-145zM1334 538l-293 -459q31 2 71.5 3t81.5 1h79h61v455z" />
<glyph unicode="&#xbf;" horiz-adv-x="901" d="M682 -422q-117 6 -215 38t-169 82t-109.5 115.5t-38.5 139.5q0 84 31.5 143.5t76.5 108.5t93 94t83 103.5t41 103.5t6 65q0 61 -22 142h106q27 -84 25 -148q0 -29 -6 -72.5t-38 -101t-79 -105.5t-91 -96.5t-75 -101.5t-31 -123q0 -55 31 -105t86 -89t134 -63.5t175 -29.5 zM600 944q0 -37 -25.5 -62.5t-62.5 -25.5t-62.5 25.5t-25.5 62.5t25.5 62.5t62.5 25.5t62.5 -25.5t25.5 -62.5z" />
<glyph unicode="&#xc0;" horiz-adv-x="1239" d="M680 1077q-37 100 -64 185h-2q-14 -43 -29.5 -88.5t-31.5 -92.5l-231 -628h587zM1073 0l-131 362h-653l-133 -362h-119l526 1382h117l522 -1382h-129zM688 1503l-338 121l45 98l321 -149z" />
<glyph unicode="&#xc1;" horiz-adv-x="1239" d="M680 1077q-37 100 -64 185h-2q-14 -43 -29.5 -88.5t-31.5 -92.5l-231 -628h587zM1073 0l-131 362h-653l-133 -362h-119l526 1382h117l522 -1382h-129zM534 1503l-28 70l321 149l45 -98z" />
<glyph unicode="&#xc2;" horiz-adv-x="1239" d="M680 1077q-37 100 -64 185h-2q-14 -43 -29.5 -88.5t-31.5 -92.5l-231 -628h587zM1073 0l-131 362h-653l-133 -362h-119l526 1382h117l522 -1382h-129zM884 1499l-274 135l-262 -135l-39 72l307 170l313 -164z" />
<glyph unicode="&#xc3;" horiz-adv-x="1239" d="M680 1077q-37 100 -64 185h-2q-14 -43 -29.5 -88.5t-31.5 -92.5l-231 -628h587zM1073 0l-131 362h-653l-133 -362h-119l526 1382h117l522 -1382h-129zM967 1653q-37 -63 -88 -98t-115 -35q-51 0 -88 18t-67.5 39.5t-59.5 40t-66 18.5q-35 0 -71.5 -24.5t-65.5 -71.5 l-61 47q35 63 87 98t116 35q51 0 87.5 -18.5t67.5 -40t59.5 -39.5t65.5 -18q76 0 137 96z" />
<glyph unicode="&#xc4;" horiz-adv-x="1239" d="M680 1077q-37 100 -64 185h-2q-14 -43 -29.5 -88.5t-31.5 -92.5l-231 -628h587zM1073 0l-131 362h-653l-133 -362h-119l526 1382h117l522 -1382h-129zM482 1589q0 -35 -23 -57.5t-57 -22.5q-35 0 -57.5 22.5t-22.5 57.5t22.5 57.5t57.5 22.5t57.5 -22.5t22.5 -57.5z M916 1589q0 -35 -22.5 -57.5t-57.5 -22.5t-57.5 22.5t-22.5 57.5t22.5 57.5t57.5 22.5t57.5 -22.5t22.5 -57.5z" />
<glyph unicode="&#xc5;" horiz-adv-x="1239" d="M680 1077q-37 100 -64 185h-2q-14 -43 -29.5 -88.5t-31.5 -92.5l-231 -628h587zM1073 0l-131 362h-653l-133 -362h-119l526 1382h117l522 -1382h-129zM835 1667q0 -84 -55 -144.5t-160 -60.5q-92 0 -145 49.5t-53 147.5q0 84 55 144.5t160 60.5q92 0 145 -49.5t53 -147.5 zM739 1663q0 59 -28.5 91t-81.5 32q-41 0 -76 -28.5t-35 -94.5q0 -59 28.5 -91t82.5 -32q41 0 75.5 28.5t34.5 94.5z" />
<glyph unicode="&#xc6;" horiz-adv-x="1576" d="M745 1294h-10q-29 -57 -60.5 -119.5t-84.5 -156.5l-316 -565h471v841zM745 0v362h-520l-200 -362h-121l782 1382h719v-88h-549v-536h514v-88h-514v-580h561v-90h-672z" />
<glyph unicode="&#xc7;" horiz-adv-x="1228" d="M1128 68q-86 -37 -189 -59.5t-212 -22.5q-299 0 -457.5 178t-158.5 502q0 158 37.5 289.5t117.5 231t206 155t300 55.5q82 0 173 -12.5t163 -34.5l-23 -103q-84 29 -171 44.5t-169 15.5q-135 0 -234 -48.5t-161.5 -134.5t-92.5 -198.5t-30 -241.5q0 -291 132.5 -447.5 t394.5 -156.5q88 0 181 21.5t169 56.5zM725 -84q76 -96 58.5 -192.5t-105.5 -206.5h-102q43 55 69.5 100t33.5 85t-6 79t-50 82z" />
<glyph unicode="&#xc8;" horiz-adv-x="1056" d="M205 0v1382h692v-88h-582v-536h535v-88h-535v-580h582v-90h-692zM613 1503l-338 121l45 98l321 -149z" />
<glyph unicode="&#xc9;" horiz-adv-x="1056" d="M205 0v1382h692v-88h-582v-536h535v-88h-535v-580h582v-90h-692zM454 1503l-28 70l321 149l45 -98z" />
<glyph unicode="&#xca;" horiz-adv-x="1056" d="M205 0v1382h692v-88h-582v-536h535v-88h-535v-580h582v-90h-692zM805 1499l-274 135l-262 -135l-39 72l307 170l313 -164z" />
<glyph unicode="&#xcb;" horiz-adv-x="1056" d="M205 0v1382h692v-88h-582v-536h535v-88h-535v-580h582v-90h-692zM390 1589q0 -35 -23 -57.5t-57 -22.5q-35 0 -57.5 22.5t-22.5 57.5t22.5 57.5t57.5 22.5t57.5 -22.5t22.5 -57.5zM824 1589q0 -35 -22.5 -57.5t-57.5 -22.5t-57.5 22.5t-22.5 57.5t22.5 57.5t57.5 22.5 t57.5 -22.5t22.5 -57.5z" />
<glyph unicode="&#xcc;" horiz-adv-x="520" d="M205 0v1382h110v-1382h-110zM328 1503l-338 121l45 98l321 -149z" />
<glyph unicode="&#xcd;" horiz-adv-x="520" d="M205 0v1382h110v-1382h-110zM200 1503l-28 70l321 149l45 -98z" />
<glyph unicode="&#xce;" horiz-adv-x="520" d="M205 0v1382h110v-1382h-110zM526 1499l-274 135l-262 -135l-39 72l307 170l313 -164z" />
<glyph unicode="&#xcf;" horiz-adv-x="520" d="M205 0v1382h110v-1382h-110zM600 1589q0 -35 -22.5 -57.5t-57.5 -22.5t-57.5 22.5t-22.5 57.5t23 57.5t57 22.5q35 0 57.5 -22.5t22.5 -57.5zM207 1589q0 -35 -22.5 -57.5t-57.5 -22.5t-57.5 22.5t-22.5 57.5t22.5 57.5t57.5 22.5t57.5 -22.5t22.5 -57.5z" />
<glyph unicode="&#xd0;" horiz-adv-x="1427" d="M1202 692q0 307 -158.5 457.5t-459.5 150.5q-63 0 -134 -2t-118 -4v-536h338v-88h-338v-572q14 -2 35.5 -4t63.5 -5t70.5 -4t51.5 -1q143 0 263 36t206 110.5t133 189t47 272.5zM1317 698q0 -178 -58.5 -310t-163 -220t-247.5 -131t-313 -43q-63 0 -152.5 3t-161.5 3v670 h-217v88h217v624q80 0 180.5 3.5t198.5 3.5q346 0 531.5 -170.5t185.5 -520.5z" />
<glyph unicode="&#xd1;" horiz-adv-x="1425" d="M1110 0l-645 1008q-47 74 -87 140t-77 136q2 -66 5 -197t5 -266t3 -259t1 -167v-395h-110v1382h149l639 -995q47 -76 68.5 -111.5t62.5 -113.5q-4 111 -6 206t-4 193t-3 227.5t-1 235.5v358h111v-1382h-111zM1065 1653q-37 -63 -88 -98t-115 -35q-51 0 -88 18t-67.5 39.5 t-59.5 40t-66 18.5q-35 0 -71.5 -24.5t-65.5 -71.5l-61 47q35 63 87 98t116 35q51 0 87.5 -18.5t67.5 -40t59.5 -39.5t65.5 -18q76 0 137 96z" />
<glyph unicode="&#xd2;" horiz-adv-x="1445" d="M1229 680q0 285 -130 456t-376 171q-104 0 -196.5 -39t-162 -117t-108.5 -190.5t-39 -255.5q0 -139 32 -255t96.5 -200t159.5 -129t218 -45q104 0 196.5 39t162 116.5t108.5 191.5t39 257zM1343 705q0 -170 -49 -305.5t-137 -228.5t-203.5 -140t-246.5 -47 q-143 0 -256 49t-191 141t-118 220t-40 284q0 170 49.5 305t137.5 228.5t203.5 140.5t246.5 47q143 0 256 -49.5t191 -141.5t117.5 -219.5t39.5 -283.5zM772 1503l-338 121l45 98l321 -149z" />
<glyph unicode="&#xd3;" horiz-adv-x="1445" d="M1229 680q0 285 -130 456t-376 171q-104 0 -196.5 -39t-162 -117t-108.5 -190.5t-39 -255.5q0 -139 32 -255t96.5 -200t159.5 -129t218 -45q104 0 196.5 39t162 116.5t108.5 191.5t39 257zM1343 705q0 -170 -49 -305.5t-137 -228.5t-203.5 -140t-246.5 -47 q-143 0 -256 49t-191 141t-118 220t-40 284q0 170 49.5 305t137.5 228.5t203.5 140.5t246.5 47q143 0 256 -49.5t191 -141.5t117.5 -219.5t39.5 -283.5zM682 1503l-28 70l321 149l45 -98z" />
<glyph unicode="&#xd4;" horiz-adv-x="1445" d="M1229 680q0 285 -130 456t-376 171q-104 0 -196.5 -39t-162 -117t-108.5 -190.5t-39 -255.5q0 -139 32 -255t96.5 -200t159.5 -129t218 -45q104 0 196.5 39t162 116.5t108.5 191.5t39 257zM1343 705q0 -170 -49 -305.5t-137 -228.5t-203.5 -140t-246.5 -47 q-143 0 -256 49t-191 141t-118 220t-40 284q0 170 49.5 305t137.5 228.5t203.5 140.5t246.5 47q143 0 256 -49.5t191 -141.5t117.5 -219.5t39.5 -283.5zM997 1499l-274 135l-262 -135l-39 72l307 170l313 -164z" />
<glyph unicode="&#xd5;" horiz-adv-x="1445" d="M1229 680q0 285 -130 456t-376 171q-104 0 -196.5 -39t-162 -117t-108.5 -190.5t-39 -255.5q0 -139 32 -255t96.5 -200t159.5 -129t218 -45q104 0 196.5 39t162 116.5t108.5 191.5t39 257zM1343 705q0 -170 -49 -305.5t-137 -228.5t-203.5 -140t-246.5 -47 q-143 0 -256 49t-191 141t-118 220t-40 284q0 170 49.5 305t137.5 228.5t203.5 140.5t246.5 47q143 0 256 -49.5t191 -141.5t117.5 -219.5t39.5 -283.5zM1061 1653q-37 -63 -88 -98t-115 -35q-51 0 -88 18t-67.5 39.5t-59.5 40t-66 18.5q-35 0 -71.5 -24.5t-65.5 -71.5 l-61 47q35 63 87 98t116 35q51 0 87.5 -18.5t67.5 -40t59.5 -39.5t65.5 -18q76 0 137 96z" />
<glyph unicode="&#xd6;" horiz-adv-x="1445" d="M1229 680q0 285 -130 456t-376 171q-104 0 -196.5 -39t-162 -117t-108.5 -190.5t-39 -255.5q0 -139 32 -255t96.5 -200t159.5 -129t218 -45q104 0 196.5 39t162 116.5t108.5 191.5t39 257zM1343 705q0 -170 -49 -305.5t-137 -228.5t-203.5 -140t-246.5 -47 q-143 0 -256 49t-191 141t-118 220t-40 284q0 170 49.5 305t137.5 228.5t203.5 140.5t246.5 47q143 0 256 -49.5t191 -141.5t117.5 -219.5t39.5 -283.5zM592 1589q0 -35 -23 -57.5t-57 -22.5q-35 0 -57.5 22.5t-22.5 57.5t22.5 57.5t57.5 22.5t57.5 -22.5t22.5 -57.5z M1026 1589q0 -35 -22.5 -57.5t-57.5 -22.5t-57.5 22.5t-22.5 57.5t22.5 57.5t57.5 22.5t57.5 -22.5t22.5 -57.5z" />
<glyph unicode="&#xd7;" d="M932 174l-371 371l-371 -371l-61 62l371 370l-371 371l66 65l370 -370l371 370l61 -61l-370 -371l370 -370z" />
<glyph unicode="&#xd8;" horiz-adv-x="1445" d="M961 1251q-49 27 -111 41.5t-127 14.5q-104 0 -196.5 -39t-162 -117t-108.5 -190.5t-39 -255.5q0 -184 52.5 -316.5t138.5 -204.5zM1229 680q0 182 -52.5 314t-138.5 204l-553 -1067q49 -27 110.5 -41t127.5 -14q104 0 196.5 39t162 116.5t108.5 191.5t39 257zM1343 705 q0 -170 -49 -305.5t-137 -228.5t-203.5 -140t-246.5 -47q-152 0 -269 55l-112 -219l-84 41l114 223q-59 41 -105 98.5t-80 132t-51.5 165.5t-17.5 198q0 170 49.5 305t137.5 228.5t203.5 140.5t246.5 47q76 0 142.5 -13.5t126.5 -42.5l112 220l84 -41l-114 -224 q119 -82 186 -232t67 -361z" />
<glyph unicode="&#xd9;" horiz-adv-x="1441" d="M1237 520q0 -262 -132 -399t-400 -137q-160 0 -258.5 41t-151.5 107.5t-71.5 150.5t-18.5 168v931h110v-917q0 -78 16.5 -149.5t60.5 -125t122 -85t201 -31.5q102 0 180 22.5t130 74.5t77.5 134t25.5 203v874h109v-862zM766 1503l-338 121l45 98l321 -149z" />
<glyph unicode="&#xda;" horiz-adv-x="1441" d="M1237 520q0 -262 -132 -399t-400 -137q-160 0 -258.5 41t-151.5 107.5t-71.5 150.5t-18.5 168v931h110v-917q0 -78 16.5 -149.5t60.5 -125t122 -85t201 -31.5q102 0 180 22.5t130 74.5t77.5 134t25.5 203v874h109v-862zM698 1503l-28 70l321 149l45 -98z" />
<glyph unicode="&#xdb;" horiz-adv-x="1441" d="M1237 520q0 -262 -132 -399t-400 -137q-160 0 -258.5 41t-151.5 107.5t-71.5 150.5t-18.5 168v931h110v-917q0 -78 16.5 -149.5t60.5 -125t122 -85t201 -31.5q102 0 180 22.5t130 74.5t77.5 134t25.5 203v874h109v-862zM991 1499l-274 135l-262 -135l-39 72l307 170 l313 -164z" />
<glyph unicode="&#xdc;" horiz-adv-x="1441" d="M1237 520q0 -262 -132 -399t-400 -137q-160 0 -258.5 41t-151.5 107.5t-71.5 150.5t-18.5 168v931h110v-917q0 -78 16.5 -149.5t60.5 -125t122 -85t201 -31.5q102 0 180 22.5t130 74.5t77.5 134t25.5 203v874h109v-862zM582 1589q0 -35 -23 -57.5t-57 -22.5 q-35 0 -57.5 22.5t-22.5 57.5t22.5 57.5t57.5 22.5t57.5 -22.5t22.5 -57.5zM1016 1589q0 -35 -22.5 -57.5t-57.5 -22.5t-57.5 22.5t-22.5 57.5t22.5 57.5t57.5 22.5t57.5 -22.5t22.5 -57.5z" />
<glyph unicode="&#xdd;" horiz-adv-x="1050" d="M580 553v-553h-111v553l-457 829h125l279 -512q31 -59 56.5 -111t55.5 -120h2q29 63 57.5 121.5t57.5 109.5l275 512h118zM499 1503l-28 70l321 149l45 -98z" />
<glyph unicode="&#xde;" horiz-adv-x="1081" d="M922 735q0 78 -25 141.5t-77 110.5t-131 71.5t-183 24.5q-92 0 -191 -10v-684q25 -2 81.5 -7t115.5 -5q199 0 304.5 101t105.5 257zM1036 758q0 -102 -37.5 -188.5t-109.5 -150t-172.5 -98t-218.5 -34.5q-55 0 -106.5 3t-76.5 5v-295h-110v1382h110v-215q25 2 84.5 4.5 t132.5 2.5q252 0 378 -121t126 -295z" />
<glyph unicode="&#xdf;" horiz-adv-x="1183" d="M1083 291q0 -66 -26.5 -121t-76.5 -97t-123 -65.5t-167 -23.5q-106 0 -188 16l12 109q90 -29 188 -29q141 0 206 57.5t65 134.5q0 66 -33 107t-82 72.5t-105.5 59.5t-105.5 65.5t-82 91t-33 135.5q0 61 24 104t59.5 74t76.5 55.5t77 52t59.5 62.5t23.5 86q0 92 -65.5 135 t-168.5 43q-145 0 -225 -85t-80 -286v-1044h-108v1034q0 131 32.5 220t90 144.5t135.5 80t168 24.5q82 0 144.5 -20.5t103.5 -54t61.5 -79.5t20.5 -98q0 -72 -24 -119t-58.5 -79.5t-76.5 -56t-77 -48t-58.5 -56.5t-23.5 -81q0 -61 33 -101t82 -72t105.5 -60.5t105.5 -65.5 t81.5 -89t32.5 -132z" />
<glyph unicode="&#xe0;" horiz-adv-x="1060" d="M745 500q-145 0 -246.5 -19.5t-162 -52.5t-86 -75t-25.5 -89q0 -82 51.5 -135t135.5 -53q72 0 134 33.5t107 91t68.5 127t23.5 141.5v31zM745 0q0 74 3.5 131t9.5 100l-4 2q-18 -51 -52 -97t-82.5 -79.5t-107.5 -53t-125 -19.5q-57 0 -107.5 17t-88 51t-58 83t-20.5 109 q0 74 40 137t119.5 109.5t199.5 72t273 25.5v69q0 147 -55 217t-192 70q-72 0 -154 -20.5t-156 -53.5l-22 91q82 35 169 54t175 19q94 0 160.5 -24.5t106.5 -71.5t58.5 -111.5t18.5 -146.5v-356q0 -74 1 -158t3 -166h-113zM525 1186l-244 262l82 68l225 -277z" />
<glyph unicode="&#xe1;" horiz-adv-x="1060" d="M745 500q-145 0 -246.5 -19.5t-162 -52.5t-86 -75t-25.5 -89q0 -82 51.5 -135t135.5 -53q72 0 134 33.5t107 91t68.5 127t23.5 141.5v31zM745 0q0 74 3.5 131t9.5 100l-4 2q-18 -51 -52 -97t-82.5 -79.5t-107.5 -53t-125 -19.5q-57 0 -107.5 17t-88 51t-58 83t-20.5 109 q0 74 40 137t119.5 109.5t199.5 72t273 25.5v69q0 147 -55 217t-192 70q-72 0 -154 -20.5t-156 -53.5l-22 91q82 35 169 54t175 19q94 0 160.5 -24.5t106.5 -71.5t58.5 -111.5t18.5 -146.5v-356q0 -74 1 -158t3 -166h-113zM512 1186l-63 53l225 277l82 -68z" />
<glyph unicode="&#xe2;" horiz-adv-x="1060" d="M745 500q-145 0 -246.5 -19.5t-162 -52.5t-86 -75t-25.5 -89q0 -82 51.5 -135t135.5 -53q72 0 134 33.5t107 91t68.5 127t23.5 141.5v31zM745 0q0 74 3.5 131t9.5 100l-4 2q-18 -51 -52 -97t-82.5 -79.5t-107.5 -53t-125 -19.5q-57 0 -107.5 17t-88 51t-58 83t-20.5 109 q0 74 40 137t119.5 109.5t199.5 72t273 25.5v69q0 147 -55 217t-192 70q-72 0 -154 -20.5t-156 -53.5l-22 91q82 35 169 54t175 19q94 0 160.5 -24.5t106.5 -71.5t58.5 -111.5t18.5 -146.5v-356q0 -74 1 -158t3 -166h-113zM710 1190l-196 180l-197 -180l-57 53l258 260 l254 -256z" />
<glyph unicode="&#xe3;" horiz-adv-x="1060" d="M745 500q-145 0 -246.5 -19.5t-162 -52.5t-86 -75t-25.5 -89q0 -82 51.5 -135t135.5 -53q72 0 134 33.5t107 91t68.5 127t23.5 141.5v31zM745 0q0 74 3.5 131t9.5 100l-4 2q-18 -51 -52 -97t-82.5 -79.5t-107.5 -53t-125 -19.5q-57 0 -107.5 17t-88 51t-58 83t-20.5 109 q0 74 40 137t119.5 109.5t199.5 72t273 25.5v69q0 147 -55 217t-192 70q-72 0 -154 -20.5t-156 -53.5l-22 91q82 35 169 54t175 19q94 0 160.5 -24.5t106.5 -71.5t58.5 -111.5t18.5 -146.5v-356q0 -74 1 -158t3 -166h-113zM837 1382q-35 -66 -86 -100.5t-112 -34.5 q-49 0 -84 18.5t-66 41t-58.5 41t-62.5 18.5t-68.5 -24.5t-62.5 -73.5l-59 49q35 66 86 100.5t112 34.5q49 0 85 -18.5t66 -41t57.5 -41t62.5 -18.5q72 0 131 99z" />
<glyph unicode="&#xe4;" horiz-adv-x="1060" d="M745 500q-145 0 -246.5 -19.5t-162 -52.5t-86 -75t-25.5 -89q0 -82 51.5 -135t135.5 -53q72 0 134 33.5t107 91t68.5 127t23.5 141.5v31zM745 0q0 74 3.5 131t9.5 100l-4 2q-18 -51 -52 -97t-82.5 -79.5t-107.5 -53t-125 -19.5q-57 0 -107.5 17t-88 51t-58 83t-20.5 109 q0 74 40 137t119.5 109.5t199.5 72t273 25.5v69q0 147 -55 217t-192 70q-72 0 -154 -20.5t-156 -53.5l-22 91q82 35 169 54t175 19q94 0 160.5 -24.5t106.5 -71.5t58.5 -111.5t18.5 -146.5v-356q0 -74 1 -158t3 -166h-113zM404 1352q0 -35 -23 -57.5t-57 -22.5 q-35 0 -57.5 22.5t-22.5 57.5t22.5 57.5t57.5 22.5t57.5 -22.5t22.5 -57.5zM776 1352q0 -35 -22.5 -57.5t-57.5 -22.5t-57 22.5t-22 57.5t22.5 57.5t56.5 22.5q35 0 57.5 -22.5t22.5 -57.5z" />
<glyph unicode="&#xe5;" horiz-adv-x="1060" d="M745 500q-145 0 -246.5 -19.5t-162 -52.5t-86 -75t-25.5 -89q0 -82 51.5 -135t135.5 -53q72 0 134 33.5t107 91t68.5 127t23.5 141.5v31zM745 0q0 74 3.5 131t9.5 100l-4 2q-18 -51 -52 -97t-82.5 -79.5t-107.5 -53t-125 -19.5q-57 0 -107.5 17t-88 51t-58 83t-20.5 109 q0 74 40 137t119.5 109.5t199.5 72t273 25.5v69q0 147 -55 217t-192 70q-72 0 -154 -20.5t-156 -53.5l-22 91q82 35 169 54t175 19q94 0 160.5 -24.5t106.5 -71.5t58.5 -111.5t18.5 -146.5v-356q0 -74 1 -158t3 -166h-113zM731 1359q0 -86 -58 -145t-157 -59q-92 0 -145 50 t-53 146q0 86 58.5 145.5t156.5 59.5q92 0 145 -50.5t53 -146.5zM635 1355q0 57 -28.5 90t-81.5 33q-45 0 -78 -30.5t-33 -92.5q0 -57 28.5 -89.5t82.5 -32.5q45 0 77.5 31.5t32.5 90.5z" />
<glyph unicode="&#xe6;" horiz-adv-x="1665" d="M745 500q-145 0 -246.5 -19.5t-162 -52.5t-86 -75t-25.5 -89q0 -82 51.5 -135t135.5 -53q72 0 134 33.5t107 91t68.5 127t23.5 141.5v31zM1438 635q4 145 -70 228t-205 83q-119 0 -200.5 -82t-102.5 -229h578zM1556 631v-37t-1 -32l-1 -13h-700q-8 -244 82 -357.5 t274 -113.5q74 0 147 13t148 42l21 -88q-84 -29 -166 -45t-166 -16q-92 0 -161.5 20.5t-119 55t-80 80.5t-47.5 102h-2q-20 -49 -58 -95.5t-89 -83t-114.5 -58t-135.5 -21.5q-57 0 -107.5 17t-88 51t-58 83t-20.5 109q0 74 40 137t119.5 109.5t199.5 72t273 25.5v69 q0 147 -55 217t-192 70q-72 0 -154 -20.5t-156 -53.5l-22 91q82 35 169 54t175 19q129 0 209 -48t106 -142h2q49 84 138.5 137t205.5 53q100 0 174 -31.5t120 -88t68.5 -129t22.5 -154.5z" />
<glyph unicode="&#xe7;" horiz-adv-x="913" d="M852 49q-68 -29 -153 -45t-169 -16q-86 0 -160.5 21.5t-136 74.5t-98.5 149.5t-37 239.5q0 127 31 230.5t91.5 176t148.5 111.5t200 39q78 0 148.5 -13t128.5 -36l-27 -92q-59 23 -130 38t-142 15q-78 0 -140.5 -32.5t-105.5 -92t-65.5 -140.5t-22.5 -177 q0 -90 15.5 -165t53 -132.5t105.5 -90t166 -32.5q150 0 274 57zM555 -84q76 -96 58.5 -192.5t-105.5 -206.5h-102q43 55 69.5 100t33.5 85t-6 79t-50 82z" />
<glyph unicode="&#xe8;" horiz-adv-x="1026" d="M918 627q0 -31 -1.5 -55.5t-1.5 -34.5h-702q-4 -236 85 -347.5t273 -111.5q74 0 147 13t148 42l21 -88q-84 -29 -166 -45t-166 -16q-227 0 -342 129t-115 393q0 113 30 210t86 168.5t137 110.5t181 39t174 -31.5t120 -88t69 -130t23 -157.5zM801 623q2 152 -72 237.5 t-205 85.5q-121 0 -202.5 -84t-102.5 -239h582zM529 1186l-244 262l82 68l225 -277z" />
<glyph unicode="&#xe9;" horiz-adv-x="1026" d="M918 627q0 -31 -1.5 -55.5t-1.5 -34.5h-702q-4 -236 85 -347.5t273 -111.5q74 0 147 13t148 42l21 -88q-84 -29 -166 -45t-166 -16q-227 0 -342 129t-115 393q0 113 30 210t86 168.5t137 110.5t181 39t174 -31.5t120 -88t69 -130t23 -157.5zM801 623q2 152 -72 237.5 t-205 85.5q-121 0 -202.5 -84t-102.5 -239h582zM522 1186l-63 53l225 277l82 -68z" />
<glyph unicode="&#xea;" horiz-adv-x="1026" d="M918 627q0 -31 -1.5 -55.5t-1.5 -34.5h-702q-4 -236 85 -347.5t273 -111.5q74 0 147 13t148 42l21 -88q-84 -29 -166 -45t-166 -16q-227 0 -342 129t-115 393q0 113 30 210t86 168.5t137 110.5t181 39t174 -31.5t120 -88t69 -130t23 -157.5zM801 623q2 152 -72 237.5 t-205 85.5q-121 0 -202.5 -84t-102.5 -239h582zM723 1190l-196 180l-197 -180l-57 53l258 260l254 -256z" />
<glyph unicode="&#xeb;" horiz-adv-x="1026" d="M918 627q0 -31 -1.5 -55.5t-1.5 -34.5h-702q-4 -236 85 -347.5t273 -111.5q74 0 147 13t148 42l21 -88q-84 -29 -166 -45t-166 -16q-227 0 -342 129t-115 393q0 113 30 210t86 168.5t137 110.5t181 39t174 -31.5t120 -88t69 -130t23 -157.5zM801 623q2 152 -72 237.5 t-205 85.5q-121 0 -202.5 -84t-102.5 -239h582zM422 1352q0 -35 -23 -57.5t-57 -22.5q-35 0 -57.5 22.5t-22.5 57.5t22.5 57.5t57.5 22.5t57.5 -22.5t22.5 -57.5zM794 1352q0 -35 -22.5 -57.5t-57.5 -22.5t-57 22.5t-22 57.5t22.5 57.5t56.5 22.5q35 0 57.5 -22.5 t22.5 -57.5z" />
<glyph unicode="&#xec;" horiz-adv-x="518" d="M205 0v1018h108v-1018h-108zM241 1174l-180 307l94 49l160 -318z" />
<glyph unicode="&#xed;" horiz-adv-x="518" d="M205 0v1018h108v-1018h-108zM274 1184l-69 45l194 291l88 -56z" />
<glyph unicode="&#xee;" horiz-adv-x="518" d="M205 0v1018h108v-1018h-108zM434 1190l-176 180l-172 -180l-59 53l235 258l232 -254z" />
<glyph unicode="&#xef;" horiz-adv-x="518" d="M205 0v1018h108v-1018h-108zM508 1352q0 -35 -22.5 -57.5t-57.5 -22.5t-57.5 22.5t-22.5 57.5t22.5 57.5t57.5 22.5t57.5 -22.5t22.5 -57.5zM170 1352q0 -35 -22.5 -57.5t-57.5 -22.5t-57.5 22.5t-22.5 57.5t22.5 57.5t57.5 22.5t57.5 -22.5t22.5 -57.5z" />
<glyph unicode="&#xf0;" horiz-adv-x="1101" d="M889 535q0 188 -85 299.5t-253 111.5q-66 0 -128.5 -25.5t-110.5 -77.5t-76.5 -134t-28.5 -193q0 -211 93 -326.5t259 -115.5q66 0 126 24.5t105.5 79.5t72 143.5t26.5 213.5zM1001 549q0 -145 -35.5 -250.5t-98 -176.5t-147.5 -104.5t-183 -33.5q-100 0 -181.5 31.5 t-139.5 97t-90 164t-32 231.5q0 104 31 200.5t90 168t147.5 114.5t202.5 43q80 0 155 -28.5t111 -94.5q-20 41 -40.5 76t-30.5 51q-29 53 -66 103.5t-88 105.5l-227 -102l-51 69l215 97q-37 35 -81 72.5t-97 78.5l114 49q45 -35 86 -73.5t82 -79.5l227 100l52 -69l-219 -97 q137 -162 215.5 -350t78.5 -393z" />
<glyph unicode="&#xf1;" horiz-adv-x="1187" d="M874 0v662q0 135 -46 209.5t-173 74.5q-76 0 -139 -33.5t-108.5 -95t-70 -146.5t-24.5 -186v-485h-108v1018h112q0 -57 -4 -127t-14 -119l4 -2q43 121 139.5 192.5t233.5 71.5q88 0 147.5 -25.5t94 -69.5t50 -104.5t15.5 -127.5v-707h-109zM932 1382q-35 -66 -86 -100.5 t-112 -34.5q-49 0 -84 18.5t-66 41t-58.5 41t-62.5 18.5t-68.5 -24.5t-62.5 -73.5l-59 49q35 66 86 100.5t112 34.5q49 0 85 -18.5t66 -41t57.5 -41t62.5 -18.5q72 0 131 99z" />
<glyph unicode="&#xf2;" horiz-adv-x="1101" d="M893 510q0 207 -90 321.5t-250 114.5q-78 0 -141.5 -27.5t-108.5 -84t-69.5 -138.5t-24.5 -188q0 -207 90 -320.5t250 -113.5q74 0 136.5 25.5t109.5 78.5t72.5 137t25.5 195zM1006 516q0 -113 -30 -209t-90.5 -168.5t-148.5 -113.5t-202 -41q-205 0 -322 131t-117 387 q0 113 30 209t90 168.5t148.5 113.5t202.5 41q100 0 181 -31.5t138.5 -96t88.5 -163t31 -227.5zM568 1186l-244 262l82 68l225 -277z" />
<glyph unicode="&#xf3;" horiz-adv-x="1101" d="M893 510q0 207 -90 321.5t-250 114.5q-78 0 -141.5 -27.5t-108.5 -84t-69.5 -138.5t-24.5 -188q0 -207 90 -320.5t250 -113.5q74 0 136.5 25.5t109.5 78.5t72.5 137t25.5 195zM1006 516q0 -113 -30 -209t-90.5 -168.5t-148.5 -113.5t-202 -41q-205 0 -322 131t-117 387 q0 113 30 209t90 168.5t148.5 113.5t202.5 41q100 0 181 -31.5t138.5 -96t88.5 -163t31 -227.5zM555 1186l-63 53l225 277l82 -68z" />
<glyph unicode="&#xf4;" horiz-adv-x="1101" d="M893 510q0 207 -90 321.5t-250 114.5q-78 0 -141.5 -27.5t-108.5 -84t-69.5 -138.5t-24.5 -188q0 -207 90 -320.5t250 -113.5q74 0 136.5 25.5t109.5 78.5t72.5 137t25.5 195zM1006 516q0 -113 -30 -209t-90.5 -168.5t-148.5 -113.5t-202 -41q-205 0 -322 131t-117 387 q0 113 30 209t90 168.5t148.5 113.5t202.5 41q100 0 181 -31.5t138.5 -96t88.5 -163t31 -227.5zM743 1190l-196 180l-197 -180l-57 53l258 260l254 -256z" />
<glyph unicode="&#xf5;" horiz-adv-x="1101" d="M893 510q0 207 -90 321.5t-250 114.5q-78 0 -141.5 -27.5t-108.5 -84t-69.5 -138.5t-24.5 -188q0 -207 90 -320.5t250 -113.5q74 0 136.5 25.5t109.5 78.5t72.5 137t25.5 195zM1006 516q0 -113 -30 -209t-90.5 -168.5t-148.5 -113.5t-202 -41q-205 0 -322 131t-117 387 q0 113 30 209t90 168.5t148.5 113.5t202.5 41q100 0 181 -31.5t138.5 -96t88.5 -163t31 -227.5zM887 1382q-35 -66 -86 -100.5t-112 -34.5q-49 0 -84 18.5t-66 41t-58.5 41t-62.5 18.5t-68.5 -24.5t-62.5 -73.5l-59 49q35 66 86 100.5t112 34.5q49 0 85 -18.5t66 -41 t57.5 -41t62.5 -18.5q72 0 131 99z" />
<glyph unicode="&#xf6;" horiz-adv-x="1101" d="M893 510q0 207 -90 321.5t-250 114.5q-78 0 -141.5 -27.5t-108.5 -84t-69.5 -138.5t-24.5 -188q0 -207 90 -320.5t250 -113.5q74 0 136.5 25.5t109.5 78.5t72.5 137t25.5 195zM1006 516q0 -113 -30 -209t-90.5 -168.5t-148.5 -113.5t-202 -41q-205 0 -322 131t-117 387 q0 113 30 209t90 168.5t148.5 113.5t202.5 41q100 0 181 -31.5t138.5 -96t88.5 -163t31 -227.5zM441 1352q0 -35 -23 -57.5t-57 -22.5q-35 0 -57.5 22.5t-22.5 57.5t22.5 57.5t57.5 22.5t57.5 -22.5t22.5 -57.5zM813 1352q0 -35 -22.5 -57.5t-57.5 -22.5t-57 22.5t-22 57.5 t22.5 57.5t56.5 22.5q35 0 57.5 -22.5t22.5 -57.5z" />
<glyph unicode="&#xf7;" d="M647 195q0 -37 -25.5 -63t-62.5 -26t-62.5 26t-25.5 63t25.5 62.5t62.5 25.5t62.5 -25.5t25.5 -62.5zM92 563v92h942v-92h-942zM647 1020q0 -37 -25.5 -62.5t-62.5 -25.5t-62.5 25.5t-25.5 62.5t25.5 62.5t62.5 25.5t62.5 -25.5t25.5 -62.5z" />
<glyph unicode="&#xf8;" horiz-adv-x="1101" d="M711 911q-74 35 -158 35q-78 0 -141.5 -27.5t-109.5 -84t-70.5 -138.5t-24.5 -188q0 -115 29.5 -204t78.5 -140zM895 510q0 115 -29.5 204t-79.5 140l-395 -748q74 -35 158 -34q78 0 141.5 27.5t109.5 84t70.5 138.5t24.5 188zM1006 516q0 -113 -30 -209t-90.5 -168.5 t-148.5 -113.5t-202 -41q-106 0 -191 36l-100 -192l-84 41l104 197q-39 31 -69.5 72.5t-52 95t-34 121t-12.5 147.5q0 113 30 209t90 168.5t148.5 113.5t202.5 41q106 0 191 -37l100 193l84 -41l-104 -197q39 -31 69.5 -72.5t52 -95t34 -121t12.5 -147.5z" />
<glyph unicode="&#xf9;" horiz-adv-x="1187" d="M870 0q0 61 5.5 130t13.5 116l-4 2q-43 -123 -140.5 -193.5t-232.5 -70.5q-86 0 -145.5 24.5t-95 68.5t-51 103.5t-15.5 130.5v707h108v-662q0 -143 49.5 -213.5t169.5 -70.5q76 0 138.5 33.5t108.5 96t70.5 146.5t24.5 184v486h109v-1018h-113zM590 1186l-244 262l82 68 l225 -277z" />
<glyph unicode="&#xfa;" horiz-adv-x="1187" d="M870 0q0 61 5.5 130t13.5 116l-4 2q-43 -123 -140.5 -193.5t-232.5 -70.5q-86 0 -145.5 24.5t-95 68.5t-51 103.5t-15.5 130.5v707h108v-662q0 -143 49.5 -213.5t169.5 -70.5q76 0 138.5 33.5t108.5 96t70.5 146.5t24.5 184v486h109v-1018h-113zM602 1186l-63 53l225 277 l82 -68z" />
<glyph unicode="&#xfb;" horiz-adv-x="1187" d="M870 0q0 61 5.5 130t13.5 116l-4 2q-43 -123 -140.5 -193.5t-232.5 -70.5q-86 0 -145.5 24.5t-95 68.5t-51 103.5t-15.5 130.5v707h108v-662q0 -143 49.5 -213.5t169.5 -70.5q76 0 138.5 33.5t108.5 96t70.5 146.5t24.5 184v486h109v-1018h-113zM788 1190l-196 180 l-197 -180l-57 53l258 260l254 -256z" />
<glyph unicode="&#xfc;" horiz-adv-x="1187" d="M870 0q0 61 5.5 130t13.5 116l-4 2q-43 -123 -140.5 -193.5t-232.5 -70.5q-86 0 -145.5 24.5t-95 68.5t-51 103.5t-15.5 130.5v707h108v-662q0 -143 49.5 -213.5t169.5 -70.5q76 0 138.5 33.5t108.5 96t70.5 146.5t24.5 184v486h109v-1018h-113zM486 1352 q0 -35 -23 -57.5t-57 -22.5q-35 0 -57.5 22.5t-22.5 57.5t22.5 57.5t57.5 22.5t57.5 -22.5t22.5 -57.5zM858 1352q0 -35 -22.5 -57.5t-57.5 -22.5t-57 22.5t-22 57.5t22.5 57.5t56.5 22.5q35 0 57.5 -22.5t22.5 -57.5z" />
<glyph unicode="&#xfd;" horiz-adv-x="937" d="M526 0l-43 -113q-43 -115 -87 -194.5t-97 -129.5t-117.5 -72.5t-148.5 -22.5q-49 0 -96 10l12 98q23 -6 55.5 -10t58.5 -4q47 0 88.5 13t78 50t71.5 95.5t70 148.5l51 131l-395 1018h129l243 -664q27 -72 44.5 -123t33.5 -104h2q12 41 41 125t64 180l207 586h120z M483 1186l-63 53l225 277l82 -68z" />
<glyph unicode="&#xfe;" horiz-adv-x="1142" d="M926 545q0 186 -66.5 293.5t-208.5 107.5q-86 0 -150.5 -45t-105.5 -112.5t-61.5 -147.5t-20.5 -149v-386q51 -16 105.5 -23t120.5 -7q88 0 159.5 26.5t121.5 84t78 146.5t28 212zM1040 553q0 -139 -36.5 -244.5t-104.5 -176.5t-163 -106.5t-210 -35.5q-59 0 -106 2 t-107 12v-520h-108v2011h108v-477q0 -31 -1 -65.5t-2 -68.5t-4 -62.5t-7 -47.5l4 -2q43 121 139.5 191.5t221.5 70.5q180 0 278 -119.5t98 -361.5z" />
<glyph unicode="&#xff;" horiz-adv-x="937" d="M526 0l-43 -113q-43 -115 -87 -194.5t-97 -129.5t-117.5 -72.5t-148.5 -22.5q-49 0 -96 10l12 98q23 -6 55.5 -10t58.5 -4q47 0 88.5 13t78 50t71.5 95.5t70 148.5l51 131l-395 1018h129l243 -664q27 -72 44.5 -123t33.5 -104h2q12 41 41 125t64 180l207 586h120z M367 1352q0 -35 -23 -57.5t-57 -22.5q-35 0 -57.5 22.5t-22.5 57.5t22.5 57.5t57.5 22.5t57.5 -22.5t22.5 -57.5zM739 1352q0 -35 -22.5 -57.5t-57.5 -22.5t-57 22.5t-22 57.5t22.5 57.5t56.5 22.5q35 0 57.5 -22.5t22.5 -57.5z" />
<glyph unicode="&#x100;" horiz-adv-x="1239" d="M680 1077q-37 100 -64 185h-2q-14 -43 -29.5 -88.5t-31.5 -92.5l-231 -628h587zM1073 0l-131 362h-653l-133 -362h-119l526 1382h117l522 -1382h-129zM357 1546v88h530v-88h-530z" />
<glyph unicode="&#x101;" horiz-adv-x="1060" d="M745 500q-145 0 -246.5 -19.5t-162 -52.5t-86 -75t-25.5 -89q0 -82 51.5 -135t135.5 -53q72 0 134 33.5t107 91t68.5 127t23.5 141.5v31zM745 0q0 74 3.5 131t9.5 100l-4 2q-18 -51 -52 -97t-82.5 -79.5t-107.5 -53t-125 -19.5q-57 0 -107.5 17t-88 51t-58 83t-20.5 109 q0 74 40 137t119.5 109.5t199.5 72t273 25.5v69q0 147 -55 217t-192 70q-72 0 -154 -20.5t-156 -53.5l-22 91q82 35 169 54t175 19q94 0 160.5 -24.5t106.5 -71.5t58.5 -111.5t18.5 -146.5v-356q0 -74 1 -158t3 -166h-113zM275 1296v86h481v-86h-481z" />
<glyph unicode="&#x102;" horiz-adv-x="1239" d="M680 1077q-37 100 -64 185h-2q-14 -43 -29.5 -88.5t-31.5 -92.5l-231 -628h587zM1073 0l-131 362h-653l-133 -362h-119l526 1382h117l522 -1382h-129zM856 1731q0 -98 -66.5 -160t-177.5 -62q-119 0 -178 64.5t-59 157.5h82q0 -55 44 -94.5t113 -39.5q72 0 115 39t43 95 h84v0z" />
<glyph unicode="&#x103;" horiz-adv-x="1060" d="M745 500q-145 0 -246.5 -19.5t-162 -52.5t-86 -75t-25.5 -89q0 -82 51.5 -135t135.5 -53q72 0 134 33.5t107 91t68.5 127t23.5 141.5v31zM745 0q0 74 3.5 131t9.5 100l-4 2q-18 -51 -52 -97t-82.5 -79.5t-107.5 -53t-125 -19.5q-57 0 -107.5 17t-88 51t-58 83t-20.5 109 q0 74 40 137t119.5 109.5t199.5 72t273 25.5v69q0 147 -55 217t-192 70q-72 0 -154 -20.5t-156 -53.5l-22 91q82 35 169 54t175 19q94 0 160.5 -24.5t106.5 -71.5t58.5 -111.5t18.5 -146.5v-356q0 -74 1 -158t3 -166h-113zM754 1464q0 -47 -14.5 -90t-43 -75.5t-72.5 -52 t-106 -19.5q-61 0 -104 19.5t-71 53t-41 75.5t-13 89h82q0 -59 37.5 -104t111.5 -45q70 0 110 40t40 109h84z" />
<glyph unicode="&#x104;" horiz-adv-x="1239" d="M680 1077q-37 100 -64 185h-2q-12 -41 -27.5 -85t-33.5 -96l-231 -628h587zM1266 -395q-43 -37 -92.5 -57.5t-102.5 -20.5q-90 0 -138 45t-48 119q0 78 47 158.5t141 150.5l-131 362h-653l-133 -362h-119l526 1382h117l522 -1382q-113 -78 -160 -150.5t-47 -140.5 q0 -92 90 -92q63 0 138 55z" />
<glyph unicode="&#x105;" horiz-adv-x="1060" d="M745 500q-145 0 -246.5 -19.5t-162 -52.5t-86 -75t-25.5 -89q0 -82 51.5 -135t135.5 -53q72 0 134 33.5t107 91t68.5 127t23.5 141.5v31zM961 -395q-43 -37 -92.5 -57.5t-102.5 -20.5q-90 0 -138 45t-48 119q0 39 11 77.5t34.5 79.5t61.5 82t89 80q-8 59 -12 115.5 t-2 101.5l-4 2q-20 -51 -56 -95t-83.5 -77.5t-106.5 -53t-125 -19.5q-57 0 -107.5 17t-88 51t-58 83t-20.5 109q0 74 40 137t119.5 109.5t199.5 72t273 25.5v69q0 147 -55 217t-192 70q-72 0 -154 -20.5t-156 -53.5l-22 91q82 35 169 54t175 19q94 0 160.5 -24.5 t106.5 -71.5t58.5 -111.5t18.5 -146.5v-295q0 -96 9 -198.5t26 -186.5q-109 -82 -154 -153.5t-45 -137.5q0 -92 90 -92q63 0 138 55z" />
<glyph unicode="&#x106;" horiz-adv-x="1228" d="M1128 68q-86 -37 -189 -59.5t-212 -22.5q-299 0 -457.5 178t-158.5 502q0 158 37.5 289.5t117.5 231t206 155t300 55.5q82 0 173 -12.5t163 -34.5l-23 -103q-84 29 -171 44.5t-169 15.5q-135 0 -234 -48.5t-161.5 -134.5t-92.5 -198.5t-30 -241.5q0 -291 132.5 -447.5 t394.5 -156.5q88 0 181 21.5t169 56.5zM677 1503l-28 70l321 149l45 -98z" />
<glyph unicode="&#x107;" horiz-adv-x="913" d="M852 49q-68 -29 -153 -45t-169 -16q-86 0 -160.5 21.5t-136 74.5t-98.5 149.5t-37 239.5q0 127 31 230.5t91.5 176t148.5 111.5t200 39q78 0 148.5 -13t128.5 -36l-27 -92q-59 23 -130 38t-142 15q-78 0 -140.5 -32.5t-105.5 -92t-65.5 -140.5t-22.5 -177 q0 -90 15.5 -165t53 -132.5t105.5 -90t166 -32.5q150 0 274 57zM532 1186l-63 53l225 277l82 -68z" />
<glyph unicode="&#x10c;" horiz-adv-x="1228" d="M1128 68q-86 -37 -189 -59.5t-212 -22.5q-299 0 -457.5 178t-158.5 502q0 158 37.5 289.5t117.5 231t206 155t300 55.5q82 0 173 -12.5t163 -34.5l-23 -103q-84 29 -171 44.5t-169 15.5q-135 0 -234 -48.5t-161.5 -134.5t-92.5 -198.5t-30 -241.5q0 -291 132.5 -447.5 t394.5 -156.5q88 0 181 21.5t169 56.5zM729 1499l-313 164l45 78l274 -135l262 135l39 -72z" />
<glyph unicode="&#x10d;" horiz-adv-x="913" d="M852 49q-68 -29 -153 -45t-169 -16q-86 0 -160.5 21.5t-136 74.5t-98.5 149.5t-37 239.5q0 127 31 230.5t91.5 176t148.5 111.5t200 39q78 0 148.5 -13t128.5 -36l-27 -92q-59 23 -130 38t-142 15q-78 0 -140.5 -32.5t-105.5 -92t-65.5 -140.5t-22.5 -177 q0 -90 15.5 -165t53 -132.5t105.5 -90t166 -32.5q150 0 274 57zM551 1190l-254 256l61 57l197 -180l196 180l58 -53z" />
<glyph unicode="&#x10e;" horiz-adv-x="1411" d="M1186 694q0 303 -158 454.5t-461 151.5q-53 0 -101 -1t-151 -5v-1196q49 -6 113 -10t109 -4q147 0 266 37t205 111.5t132 190t46 271.5zM1300 700q0 -174 -57 -308t-161.5 -222t-248 -132t-315.5 -44q-66 0 -168 4t-145 2v1382q51 0 181 3.5t198 3.5q348 0 532 -172.5 t184 -516.5zM629 1499l-313 164l45 78l274 -135l262 135l39 -72z" />
<glyph unicode="&#x10f;" horiz-adv-x="1163" d="M829 915q-113 27 -225 27q-90 0 -160.5 -27.5t-122 -85t-78 -146.5t-26.5 -210q0 -190 68.5 -295.5t206.5 -105.5q82 0 146 43t106 111.5t63.5 148.5t21.5 151v389zM823 0q0 27 1 58.5t4 65.5t6.5 65.5t9.5 54.5l-4 2q-43 -121 -140.5 -191.5t-220.5 -70.5 q-186 0 -281.5 126t-95.5 355q0 137 37 242.5t104.5 177t162 107.5t210.5 36q49 0 100.5 -3t112.5 -9v479h109v-1495h-115zM1448 1180l-78 30l123 322l100 -37z" />
<glyph unicode="&#x110;" horiz-adv-x="1427" d="M1202 692q0 307 -158.5 457.5t-459.5 150.5q-63 0 -134 -2t-118 -4v-536h338v-88h-338v-572q14 -2 35.5 -4t63.5 -5t70.5 -4t51.5 -1q143 0 263 36t206 110.5t133 189t47 272.5zM1317 698q0 -178 -58.5 -310t-163 -220t-247.5 -131t-313 -43q-63 0 -152.5 3t-161.5 3v670 h-217v88h217v624q80 0 180.5 3.5t198.5 3.5q346 0 531.5 -170.5t185.5 -520.5z" />
<glyph unicode="&#x111;" horiz-adv-x="1142" d="M829 915q-113 27 -225 27q-88 0 -159.5 -26.5t-122 -84t-78 -146.5t-27.5 -212q0 -186 66.5 -293.5t208.5 -107.5q86 0 150.5 45t105 112.5t61 147.5t20.5 149v389zM938 1227v-1227h-115q0 25 1 57.5t4 65.5t6.5 64.5t9.5 56.5l-4 2q-43 -121 -139.5 -191.5t-221.5 -70.5 q-190 0 -283.5 129t-93.5 352q0 139 37 244.5t104.5 176t163 106.5t209.5 36q51 0 102.5 -3t110.5 -9v211h-260v86h260v182h109v-182h164v-86h-164z" />
<glyph unicode="&#x112;" horiz-adv-x="1056" d="M205 0v1382h692v-88h-582v-536h535v-88h-535v-580h582v-90h-692zM271 1546v88h530v-88h-530z" />
<glyph unicode="&#x113;" horiz-adv-x="1026" d="M918 627q0 -31 -1.5 -55.5t-1.5 -34.5h-702q-4 -236 85 -347.5t273 -111.5q74 0 147 13t148 42l21 -88q-84 -29 -166 -45t-166 -16q-227 0 -342 129t-115 393q0 113 30 210t86 168.5t137 110.5t181 39t174 -31.5t120 -88t69 -130t23 -157.5zM801 623q2 152 -72 237.5 t-205 85.5q-121 0 -202.5 -84t-102.5 -239h582zM277 1296v86h481v-86h-481z" />
<glyph unicode="&#x116;" horiz-adv-x="1056" d="M205 0v1382h692v-88h-582v-536h535v-88h-535v-580h582v-90h-692zM623 1591q0 -35 -23.5 -58.5t-58.5 -23.5t-58.5 23.5t-23.5 58.5t23.5 58.5t58.5 23.5t58.5 -23.5t23.5 -58.5z" />
<glyph unicode="&#x117;" horiz-adv-x="1026" d="M918 627q0 -31 -1.5 -55.5t-1.5 -34.5h-702q-4 -236 85 -347.5t273 -111.5q74 0 147 13t148 42l21 -88q-84 -29 -166 -45t-166 -16q-227 0 -342 129t-115 393q0 113 30 210t86 168.5t137 110.5t181 39t174 -31.5t120 -88t69 -130t23 -157.5zM801 623q2 152 -72 237.5 t-205 85.5q-121 0 -202.5 -84t-102.5 -239h582zM609 1352q0 -35 -23.5 -58.5t-58.5 -23.5t-58.5 23.5t-23.5 58.5t23.5 58.5t58.5 23.5t58.5 -23.5t23.5 -58.5z" />
<glyph unicode="&#x118;" horiz-adv-x="1056" d="M944 -395q-43 -37 -92 -57.5t-102 -20.5q-90 0 -138.5 45t-48.5 119q0 88 57.5 176t133.5 133h-549v1382h692v-88h-582v-536h535v-88h-535v-580h582v-82q-41 -18 -82 -52t-72.5 -76t-50 -86t-18.5 -85q0 -92 90 -92q63 0 137 55z" />
<glyph unicode="&#x119;" horiz-adv-x="1026" d="M887 47q-51 -16 -106.5 -50t-100.5 -80t-73.5 -99.5t-28.5 -108.5q0 -92 90 -92q63 0 137 55l43 -67q-41 -37 -91 -57.5t-104 -20.5q-92 0 -139 46t-47 118q0 76 44 154.5t128 142.5q-16 -2 -42 -3t-42 -1q-225 0 -341 127t-116 395q0 113 30 210t85 167.5t136 110.5 t183 40t176 -32.5t120 -89t68 -130t22 -155.5q0 -16 -1.5 -32.5t-1.5 -29.5v-28h-702q-4 -242 86 -350.5t272 -108.5q143 0 295 55zM801 623q4 154 -71 238.5t-206 84.5q-119 0 -201.5 -82t-103.5 -241h582z" />
<glyph unicode="&#x11a;" horiz-adv-x="1056" d="M205 0v1382h692v-88h-582v-536h535v-88h-535v-580h582v-90h-692zM532 1499l-313 164l45 78l274 -135l262 135l39 -72z" />
<glyph unicode="&#x11b;" horiz-adv-x="1026" d="M918 627q0 -31 -1.5 -55.5t-1.5 -34.5h-702q-4 -236 85 -347.5t273 -111.5q74 0 147 13t148 42l21 -88q-84 -29 -166 -45t-166 -16q-227 0 -342 129t-115 393q0 113 30 210t86 168.5t137 110.5t181 39t174 -31.5t120 -88t69 -130t23 -157.5zM801 623q2 152 -72 237.5 t-205 85.5q-121 0 -202.5 -84t-102.5 -239h582zM522 1190l-254 256l61 57l197 -180l196 180l58 -53z" />
<glyph unicode="&#x11e;" horiz-adv-x="1411" d="M1219 57q-102 -37 -218 -55t-223 -18q-154 0 -279.5 46t-213.5 134t-135.5 215t-47.5 289q0 158 45.5 291t135.5 232t226 153.5t312 54.5q94 0 186.5 -14.5t188.5 -45.5l-29 -100q-88 35 -181 52.5t-183 17.5q-152 0 -263.5 -50.5t-182 -137.5t-104.5 -198.5t-34 -234.5 q0 -145 40 -260t116 -193.5t183.5 -118.5t240.5 -40q86 0 161.5 11t147.5 36v561h111v-627zM1024 1731q0 -98 -66.5 -160t-177.5 -62q-119 0 -178 64.5t-59 157.5h82q0 -55 44 -94.5t113 -39.5q72 0 115 39t43 95h84v0z" />
<glyph unicode="&#x11f;" horiz-adv-x="1081" d="M903 -182q0 96 -67.5 149t-219.5 58l-182 6q-31 0 -59 6q-82 -51 -126 -115.5t-44 -134.5q0 -55 22.5 -98t65.5 -73t102.5 -44t132.5 -14q180 0 277.5 71.5t97.5 188.5zM795 674q0 121 -73 196.5t-200 75.5q-63 0 -114.5 -20.5t-86 -56t-53 -86t-18.5 -109.5 q0 -121 72.5 -197t199.5 -76t200 76t73 197zM1018 -168q0 -82 -36 -149.5t-103.5 -115.5t-160.5 -73.5t-208 -25.5q-96 0 -174 20t-133.5 59t-84 95.5t-28.5 128.5q0 90 52.5 166.5t131.5 130.5q-45 23 -68.5 58.5t-23.5 82.5q0 45 27 87t78 77q-72 47 -110 123.5t-38 162.5 q0 78 25.5 146.5t77 120t125 80t168.5 28.5q31 0 61.5 -4t62.5 -12h342v-86h-194q47 -45 72.5 -108.5t25.5 -135.5q0 -78 -25.5 -146.5t-76.5 -119.5t-125 -80t-168 -29q-76 0 -135 19q-39 -25 -60.5 -52.5t-21.5 -54.5q0 -41 41 -65.5t129 -26.5l182 -6q188 -6 280.5 -84 t92.5 -211zM770 1464q0 -47 -14.5 -90t-43 -75.5t-72.5 -52t-106 -19.5q-61 0 -104 19.5t-71 53t-41 75.5t-13 89h82q0 -59 37.5 -104t111.5 -45q70 0 110 40t40 109h84z" />
<glyph unicode="&#x122;" horiz-adv-x="1411" d="M1219 57q-102 -37 -218 -55t-223 -18q-154 0 -279.5 46t-213.5 134t-135.5 215t-47.5 289q0 158 45.5 291t135.5 232t226 153.5t312 54.5q94 0 186.5 -14.5t188.5 -45.5l-29 -100q-88 35 -181 52.5t-183 17.5q-152 0 -263.5 -50.5t-182 -137.5t-104.5 -198.5t-34 -234.5 q0 -145 40 -260t116 -193.5t183.5 -118.5t240.5 -40q86 0 161.5 11t147.5 36v561h111v-627zM606 -444q51 51 69.5 93t18.5 70q0 20 -5 31.5t-11 22t-11.5 20.5t-5.5 27q0 29 19.5 52.5t54.5 23.5q39 0 62.5 -30t23.5 -71q0 -49 -33.5 -118.5t-130.5 -163.5z" />
<glyph unicode="&#x123;" horiz-adv-x="1081" d="M903 -182q0 96 -67.5 149t-219.5 58l-182 6q-31 0 -59 6q-82 -51 -126 -115.5t-44 -134.5q0 -55 22.5 -98t65.5 -73t102.5 -44t132.5 -14q180 0 277.5 71.5t97.5 188.5zM795 674q0 121 -73 196.5t-200 75.5q-63 0 -114.5 -20.5t-86 -56t-53 -86t-18.5 -109.5 q0 -121 72.5 -197t199.5 -76t200 76t73 197zM1018 -168q0 -82 -36 -149.5t-103.5 -115.5t-160.5 -73.5t-208 -25.5q-96 0 -174 20t-133.5 59t-84 95.5t-28.5 128.5q0 90 52.5 166.5t131.5 130.5q-45 23 -68.5 58.5t-23.5 82.5q0 45 27 87t78 77q-72 47 -110 123.5t-38 162.5 q0 78 25.5 146.5t77 120t125 80t168.5 28.5q31 0 61.5 -4t62.5 -12h342v-86h-194q47 -45 72.5 -108.5t25.5 -135.5q0 -78 -25.5 -146.5t-76.5 -119.5t-125 -80t-168 -29q-76 0 -135 19q-39 -25 -60.5 -52.5t-21.5 -54.5q0 -41 41 -65.5t129 -26.5l182 -6q188 -6 280.5 -84 t92.5 -211zM663 1507q-49 -49 -68.5 -91t-19.5 -73q0 -18 5 -30.5t11.5 -22.5t11.5 -20t5 -29q0 -31 -21.5 -52.5t-52.5 -21.5q-33 0 -59.5 26t-26.5 77q0 49 36 118.5t128 161.5z" />
<glyph unicode="&#x12a;" horiz-adv-x="520" d="M205 0v1382h110v-1382h-110zM-2 1546v88h530v-88h-530z" />
<glyph unicode="&#x12b;" horiz-adv-x="518" d="M205 0v1018h108v-1018h-108zM37 1296v86h449v-86h-449z" />
<glyph unicode="&#x12e;" horiz-adv-x="520" d="M432 -395q-43 -37 -92 -57.5t-102 -20.5q-90 0 -138.5 45t-48.5 119q0 37 9.5 74.5t29 76.5t48 80t67.5 84v1376h110v-1382q-82 -82 -117.5 -155.5t-35.5 -135.5q0 -92 90 -92q63 0 137 55z" />
<glyph unicode="&#x12f;" horiz-adv-x="518" d="M432 -395q-43 -37 -92 -57.5t-102 -20.5q-90 0 -138.5 45t-48.5 119t38 150.5t116 164.5v1012h108v-1018q-82 -82 -116.5 -155.5t-34.5 -135.5q0 -92 90 -92q63 0 137 55zM342 1352q0 -33 -23.5 -57.5t-58.5 -24.5t-58.5 23.5t-23.5 58.5t24.5 58.5t57.5 23.5 q35 0 58.5 -23.5t23.5 -58.5z" />
<glyph unicode="&#x130;" horiz-adv-x="520" d="M205 0v1382h110v-1382h-110zM344 1591q0 -35 -23.5 -58.5t-58.5 -23.5t-58.5 23.5t-23.5 58.5t23.5 58.5t58.5 23.5t58.5 -23.5t23.5 -58.5z" />
<glyph unicode="&#x131;" horiz-adv-x="518" d="M205 0v1018h108v-1018h-108z" />
<glyph unicode="&#x136;" horiz-adv-x="1171" d="M965 0l-650 707v-707h-110v1382h110v-675l650 675h137l-658 -667l682 -715h-161zM475 -444q51 51 69.5 93t18.5 70q0 20 -5 31.5t-11 22t-11.5 20.5t-5.5 27q0 29 19.5 52.5t54.5 23.5q39 0 62.5 -30t23.5 -71q0 -49 -33.5 -118.5t-130.5 -163.5z" />
<glyph unicode="&#x137;" horiz-adv-x="952" d="M750 0l-437 547v-547h-108v1495h108v-946l418 469h127l-422 -461l461 -557h-147zM366 -444q51 51 69.5 93t18.5 70q0 20 -5 31.5t-11 22t-11.5 20.5t-5.5 27q0 29 19.5 52.5t54.5 23.5q39 0 62.5 -30t23.5 -71q0 -49 -33.5 -118.5t-130.5 -163.5z" />
<glyph unicode="&#x139;" horiz-adv-x="868" d="M205 0v1382h110v-1292h541v-90h-651zM358 1503l-28 70l321 149l45 -98z" />
<glyph unicode="&#x13a;" horiz-adv-x="518" d="M205 0v1495h108v-1495h-108zM219 1626l-28 70l321 149l45 -98z" />
<glyph unicode="&#x13b;" horiz-adv-x="868" d="M205 0v1382h110v-1292h541v-90h-651zM403 -444q51 51 69.5 93t18.5 70q0 20 -5 31.5t-11 22t-11.5 20.5t-5.5 27q0 29 19.5 52.5t54.5 23.5q39 0 62.5 -30t23.5 -71q0 -49 -33.5 -118.5t-130.5 -163.5z" />
<glyph unicode="&#x13c;" horiz-adv-x="518" d="M205 0v1495h108v-1495h-108zM131 -444q51 51 69.5 93t18.5 70q0 20 -5 31.5t-11 22t-11.5 20.5t-5.5 27q0 29 19.5 52.5t54.5 23.5q39 0 62.5 -30t23.5 -71q0 -49 -33.5 -118.5t-130.5 -163.5z" />
<glyph unicode="&#x13d;" horiz-adv-x="868" d="M205 0v1382h110v-1292h541v-90h-651zM559 1278l-63 51l213 268l86 -63z" />
<glyph unicode="&#x13e;" horiz-adv-x="538" d="M205 0v1495h108v-1495h-108zM824 1180l-78 30l123 322l100 -37z" />
<glyph unicode="&#x141;" horiz-adv-x="884" d="M221 0v782l-184 -84l-31 80l215 99v505h111v-454l254 114l30 -79l-284 -129v-744h540v-90h-651z" />
<glyph unicode="&#x142;" horiz-adv-x="579" d="M350 881v-881h-108v817l-150 -88l-39 74l189 110v582h108v-518l166 96l39 -74z" />
<glyph unicode="&#x143;" horiz-adv-x="1425" d="M1110 0l-645 1008q-47 74 -87 140t-77 136q2 -66 5 -197t5 -266t3 -259t1 -167v-395h-110v1382h149l639 -995q47 -76 68.5 -111.5t62.5 -113.5q-4 111 -6 206t-4 193t-3 227.5t-1 235.5v358h111v-1382h-111zM688 1503l-28 70l321 149l45 -98z" />
<glyph unicode="&#x144;" horiz-adv-x="1187" d="M874 0v662q0 135 -46 209.5t-173 74.5q-76 0 -139 -33.5t-108.5 -95t-70 -146.5t-24.5 -186v-485h-108v1018h112q0 -57 -4 -127t-14 -119l4 -2q43 121 139.5 192.5t233.5 71.5q88 0 147.5 -25.5t94 -69.5t50 -104.5t15.5 -127.5v-707h-109zM612 1186l-63 53l225 277 l82 -68z" />
<glyph unicode="&#x145;" horiz-adv-x="1425" d="M1110 0l-645 1008q-47 74 -87 140t-77 136q2 -66 5 -197t5 -266t3 -259t1 -167v-395h-110v1382h149l639 -995q47 -76 68.5 -111.5t62.5 -113.5q-4 111 -6 206t-4 193t-3 227.5t-1 235.5v358h111v-1382h-111zM586 -444q51 51 69.5 93t18.5 70q0 20 -5 31.5t-11 22 t-11.5 20.5t-5.5 27q0 29 19.5 52.5t54.5 23.5q39 0 62.5 -30t23.5 -71q0 -49 -33.5 -118.5t-130.5 -163.5z" />
<glyph unicode="&#x146;" horiz-adv-x="1187" d="M874 0v662q0 135 -46 209.5t-173 74.5q-76 0 -139 -33.5t-108.5 -95t-70 -146.5t-24.5 -186v-485h-108v1018h112q0 -57 -4 -127t-14 -119l4 -2q43 121 139.5 192.5t233.5 71.5q88 0 147.5 -25.5t94 -69.5t50 -104.5t15.5 -127.5v-707h-109zM475 -444q51 51 69.5 93 t18.5 70q0 20 -5 31.5t-11 22t-11.5 20.5t-5.5 27q0 29 19.5 52.5t54.5 23.5q39 0 62.5 -30t23.5 -71q0 -49 -33.5 -118.5t-130.5 -163.5z" />
<glyph unicode="&#x147;" horiz-adv-x="1425" d="M1110 0l-645 1008q-47 74 -87 140t-77 136q2 -66 5 -197t5 -266t3 -259t1 -167v-395h-110v1382h149l639 -995q47 -76 68.5 -111.5t62.5 -113.5q-4 111 -6 206t-4 193t-3 227.5t-1 235.5v358h111v-1382h-111zM733 1499l-313 164l45 78l274 -135l262 135l39 -72z" />
<glyph unicode="&#x148;" horiz-adv-x="1187" d="M874 0v662q0 135 -46 209.5t-173 74.5q-76 0 -139 -33.5t-108.5 -95t-70 -146.5t-24.5 -186v-485h-108v1018h112q0 -57 -4 -127t-14 -119l4 -2q43 121 139.5 192.5t233.5 71.5q88 0 147.5 -25.5t94 -69.5t50 -104.5t15.5 -127.5v-707h-109zM606 1190l-254 256l61 57 l197 -180l196 180l58 -53z" />
<glyph unicode="&#x14c;" horiz-adv-x="1445" d="M1229 680q0 285 -130 456t-376 171q-104 0 -196.5 -39t-162 -117t-108.5 -190.5t-39 -255.5q0 -139 32 -255t96.5 -200t159.5 -129t218 -45q104 0 196.5 39t162 116.5t108.5 191.5t39 257zM1343 705q0 -170 -49 -305.5t-137 -228.5t-203.5 -140t-246.5 -47 q-143 0 -256 49t-191 141t-118 220t-40 284q0 170 49.5 305t137.5 228.5t203.5 140.5t246.5 47q143 0 256 -49.5t191 -141.5t117.5 -219.5t39.5 -283.5zM459 1546v88h530v-88h-530z" />
<glyph unicode="&#x14d;" horiz-adv-x="1101" d="M893 510q0 207 -90 321.5t-250 114.5q-78 0 -141.5 -27.5t-108.5 -84t-69.5 -138.5t-24.5 -188q0 -207 90 -320.5t250 -113.5q74 0 136.5 25.5t109.5 78.5t72.5 137t25.5 195zM1006 516q0 -113 -30 -209t-90.5 -168.5t-148.5 -113.5t-202 -41q-205 0 -322 131t-117 387 q0 113 30 209t90 168.5t148.5 113.5t202.5 41q100 0 181 -31.5t138.5 -96t88.5 -163t31 -227.5zM314 1296v86h481v-86h-481z" />
<glyph unicode="&#x150;" horiz-adv-x="1445" d="M1229 680q0 285 -130 456t-376 171q-104 0 -196.5 -39t-162 -117t-108.5 -190.5t-39 -255.5q0 -139 32 -255t96.5 -200t159.5 -129t218 -45q104 0 196.5 39t162 116.5t108.5 191.5t39 257zM1343 705q0 -170 -49 -305.5t-137 -228.5t-203.5 -140t-246.5 -47 q-143 0 -256 49t-191 141t-118 220t-40 284q0 170 49.5 305t137.5 228.5t203.5 140.5t246.5 47q143 0 256 -49.5t191 -141.5t117.5 -219.5t39.5 -283.5zM569 1503l-59 60l207 227l75 -76zM897 1503l-60 60l242 227l76 -76z" />
<glyph unicode="&#x151;" horiz-adv-x="1101" d="M893 510q0 207 -90 321.5t-250 114.5q-78 0 -141.5 -27.5t-108.5 -84t-69.5 -138.5t-24.5 -188q0 -207 90 -320.5t250 -113.5q74 0 136.5 25.5t109.5 78.5t72.5 137t25.5 195zM1006 516q0 -113 -30 -209t-90.5 -168.5t-148.5 -113.5t-202 -41q-205 0 -322 131t-117 387 q0 113 30 209t90 168.5t148.5 113.5t202.5 41q100 0 181 -31.5t138.5 -96t88.5 -163t31 -227.5zM416 1190l-61 55l219 258l80 -69zM738 1190l-62 55l234 250l80 -70z" />
<glyph unicode="&#x152;" horiz-adv-x="1794" d="M954 1278q-51 14 -109.5 21.5t-117.5 7.5q-102 0 -197.5 -39t-164 -116t-108.5 -190.5t-40 -256.5q0 -139 33 -254t96.5 -198t156.5 -130t220 -47q49 0 115.5 6t115.5 18v1178zM954 0q-59 -8 -123.5 -12t-123.5 -4q-154 0 -264.5 51t-186.5 142t-115 218t-39 283 q0 174 50.5 309t137.5 226.5t202.5 138.5t246.5 47q53 0 112.5 -5t106.5 -12h668v-88h-561v-536h534v-88h-534v-580h561v-90h-672z" />
<glyph unicode="&#x153;" horiz-adv-x="1814" d="M893 510q0 207 -90 321.5t-250 114.5q-78 0 -141.5 -27.5t-108.5 -84t-69.5 -138.5t-24.5 -188q0 -207 90 -320.5t250 -113.5q74 0 136.5 25.5t109.5 78.5t72.5 137t25.5 195zM1587 635q4 145 -69.5 228t-204.5 83q-119 0 -201 -82t-102 -229h577zM1706 631v-37t-1 -32 l-1 -13h-700q-8 -244 82 -357.5t274 -113.5q74 0 146.5 13t148.5 42l20 -88q-84 -29 -166 -45t-166 -16q-166 0 -263 63.5t-142 179.5q-55 -113 -153.5 -178t-249.5 -65q-205 0 -322 131t-117 387q0 113 30 209t90 168.5t148.5 113.5t202.5 41q133 0 232.5 -58t152.5 -177 q53 111 146.5 173t222.5 62q100 0 174 -31.5t120 -88t68.5 -129t22.5 -154.5z" />
<glyph unicode="&#x154;" horiz-adv-x="1146" d="M864 1016q0 139 -93 211.5t-267 72.5q-57 0 -110.5 -2t-78.5 -4v-569q25 0 76 -1t105 -1q178 0 273 78t95 215zM930 0l-488 637h-127v-637h-110v1380q43 2 134 5.5t181 3.5q100 0 184 -20.5t145.5 -64.5t95.5 -112t34 -158q0 -92 -33 -163.5t-89 -121t-131 -76 t-159 -32.5q16 -16 50 -56t71 -89l385 -496h-143zM460 1503l-28 70l321 149l45 -98z" />
<glyph unicode="&#x155;" horiz-adv-x="724" d="M666 926q-180 27 -266.5 -110.5t-86.5 -412.5v-403h-108v1018h112q0 -55 -6 -130t-20 -147l4 -2q14 57 42 114.5t73 100.5t109.5 65.5t150.5 12.5zM448 1186l-63 53l225 277l82 -68z" />
<glyph unicode="&#x156;" horiz-adv-x="1146" d="M864 1016q0 139 -93 211.5t-267 72.5q-57 0 -110.5 -2t-78.5 -4v-569q25 0 76 -1t105 -1q178 0 273 78t95 215zM930 0l-488 637h-127v-637h-110v1380q43 2 134 5.5t181 3.5q100 0 184 -20.5t145.5 -64.5t95.5 -112t34 -158q0 -92 -33 -163.5t-89 -121t-131 -76 t-159 -32.5q16 -16 50 -56t71 -89l385 -496h-143zM450 -444q51 51 69.5 93t18.5 70q0 20 -5 31.5t-11 22t-11.5 20.5t-5.5 27q0 29 19.5 52.5t54.5 23.5q39 0 62.5 -30t23.5 -71q0 -49 -33.5 -118.5t-130.5 -163.5z" />
<glyph unicode="&#x157;" horiz-adv-x="724" d="M666 926q-180 27 -266.5 -110.5t-86.5 -412.5v-403h-108v1018h112q0 -55 -6 -130t-20 -147l4 -2q14 57 42 114.5t73 100.5t109.5 65.5t150.5 12.5zM143 -444q51 51 69.5 93t18.5 70q0 20 -5 31.5t-11 22t-11.5 20.5t-5.5 27q0 29 19.5 52.5t54.5 23.5q39 0 62.5 -30 t23.5 -71q0 -49 -33.5 -118.5t-130.5 -163.5z" />
<glyph unicode="&#x158;" horiz-adv-x="1146" d="M864 1016q0 139 -93 211.5t-267 72.5q-57 0 -110.5 -2t-78.5 -4v-569q25 0 76 -1t105 -1q178 0 273 78t95 215zM930 0l-488 637h-127v-637h-110v1380q43 2 134 5.5t181 3.5q100 0 184 -20.5t145.5 -64.5t95.5 -112t34 -158q0 -92 -33 -163.5t-89 -121t-131 -76 t-159 -32.5q16 -16 50 -56t71 -89l385 -496h-143zM524 1499l-313 164l45 78l274 -135l262 135l39 -72z" />
<glyph unicode="&#x159;" horiz-adv-x="724" d="M666 926q-180 27 -266.5 -110.5t-86.5 -412.5v-403h-108v1018h112q0 -55 -6 -130t-20 -147l4 -2q14 57 42 114.5t73 100.5t109.5 65.5t150.5 12.5zM439 1190l-254 256l61 57l197 -180l196 180l58 -53z" />
<glyph unicode="&#x15a;" horiz-adv-x="1032" d="M907 373q0 -86 -33.5 -161t-103.5 -128t-155 -76.5t-191 -23.5q-80 0 -158 11t-141 30l20 106q70 -25 143.5 -38t145.5 -13q78 0 139.5 14.5t111.5 46t80 86t30 133.5q0 88 -49.5 144.5t-123 94.5t-161.5 73t-166 81t-124 117.5t-46 171.5q0 78 27.5 140.5t85 111.5 t141.5 77t192 28q63 0 128 -7.5t120 -19.5l-16 -102q-55 16 -117.5 26.5t-122.5 10.5q-162 0 -244.5 -69t-82.5 -185q0 -82 47 -138.5t120.5 -93.5t162.5 -72.5t165 -79.5t126 -117t50 -179zM479 1503l-28 70l321 149l45 -98z" />
<glyph unicode="&#x15b;" horiz-adv-x="886" d="M766 276q0 -61 -26.5 -114t-78 -93t-125 -62.5t-167.5 -22.5q-63 0 -130 8t-116 20l14 109q51 -18 120 -30.5t130 -12.5q129 0 198.5 50t69.5 140q0 63 -35.5 102.5t-80.5 57.5t-139.5 48t-149.5 60.5t-92 85t-37 140.5q0 119 99 195.5t276 76.5q51 0 104 -5t102 -15 l-14 -101q-47 16 -103.5 24.5t-107.5 8.5q-121 0 -183.5 -47t-62.5 -129q0 -63 36 -102t81 -57.5t139.5 -48.5t149.5 -60.5t92 -85t37 -140.5zM413 1186l-63 53l225 277l82 -68z" />
<glyph unicode="&#x15e;" horiz-adv-x="1032" d="M907 373q0 -86 -33.5 -161t-103.5 -128t-155 -76.5t-191 -23.5q-80 0 -158 11t-141 30l20 106q70 -25 143.5 -38t145.5 -13q78 0 139.5 14.5t111.5 46t80 86t30 133.5q0 88 -49.5 144.5t-123 94.5t-161.5 73t-166 81t-124 117.5t-46 171.5q0 78 27.5 140.5t85 111.5 t141.5 77t192 28q63 0 128 -7.5t120 -19.5l-16 -102q-55 16 -117.5 26.5t-122.5 10.5q-162 0 -244.5 -69t-82.5 -185q0 -82 47 -138.5t120.5 -93.5t162.5 -72.5t165 -79.5t126 -117t50 -179zM522 -84q76 -96 58.5 -192.5t-105.5 -206.5h-102q43 55 69.5 100t33.5 85t-6 79 t-50 82z" />
<glyph unicode="&#x15f;" horiz-adv-x="886" d="M766 276q0 -61 -26.5 -114t-78 -93t-125 -62.5t-167.5 -22.5q-63 0 -130 8t-116 20l14 109q51 -18 120 -30.5t130 -12.5q129 0 198.5 50t69.5 140q0 63 -35.5 102.5t-80.5 57.5t-139.5 48t-149.5 60.5t-92 85t-37 140.5q0 119 99 195.5t276 76.5q51 0 104 -5t102 -15 l-14 -101q-47 16 -103.5 24.5t-107.5 8.5q-121 0 -183.5 -47t-62.5 -129q0 -63 36 -102t81 -57.5t139.5 -48.5t149.5 -60.5t92 -85t37 -140.5zM452 -84q76 -96 58.5 -192.5t-105.5 -206.5h-102q43 55 69.5 100t33.5 85t-6 79t-50 82z" />
<glyph unicode="&#x160;" horiz-adv-x="1032" d="M907 373q0 -86 -33.5 -161t-103.5 -128t-155 -76.5t-191 -23.5q-80 0 -158 11t-141 30l20 106q70 -25 143.5 -38t145.5 -13q78 0 139.5 14.5t111.5 46t80 86t30 133.5q0 88 -49.5 144.5t-123 94.5t-161.5 73t-166 81t-124 117.5t-46 171.5q0 78 27.5 140.5t85 111.5 t141.5 77t192 28q63 0 128 -7.5t120 -19.5l-16 -102q-55 16 -117.5 26.5t-122.5 10.5q-162 0 -244.5 -69t-82.5 -185q0 -82 47 -138.5t120.5 -93.5t162.5 -72.5t165 -79.5t126 -117t50 -179zM518 1499l-313 164l45 78l274 -135l262 135l39 -72z" />
<glyph unicode="&#x161;" horiz-adv-x="886" d="M766 276q0 -61 -26.5 -114t-78 -93t-125 -62.5t-167.5 -22.5q-63 0 -130 8t-116 20l14 109q51 -18 120 -30.5t130 -12.5q129 0 198.5 50t69.5 140q0 63 -35.5 102.5t-80.5 57.5t-139.5 48t-149.5 60.5t-92 85t-37 140.5q0 119 99 195.5t276 76.5q51 0 104 -5t102 -15 l-14 -101q-47 16 -103.5 24.5t-107.5 8.5q-121 0 -183.5 -47t-62.5 -129q0 -63 36 -102t81 -57.5t139.5 -48.5t149.5 -60.5t92 -85t37 -140.5zM445 1190l-254 256l61 57l197 -180l196 180l58 -53z" />
<glyph unicode="&#x162;" horiz-adv-x="1069" d="M590 1292v-1292h-111v1292h-438v90h987v-90h-438zM577 -84q76 -96 58.5 -192.5t-105.5 -206.5h-102q43 55 69.5 100t33.5 85t-6 79t-50 82z" />
<glyph unicode="&#x163;" horiz-adv-x="753" d="M682 6q-41 -10 -90 -15t-92 -5q-72 0 -120 17t-78 53t-42 90.5t-12 132.5v653h-236v86h236v348l108 31v-379h320v-86h-320v-613q0 -72 7.5 -116.5t26 -71.5t49 -38t81.5 -11q39 0 78 5t72 13zM485 -84q76 -96 58.5 -192.5t-105.5 -206.5h-102q43 55 69.5 100t33.5 85 t-6 79t-50 82z" />
<glyph unicode="&#x164;" horiz-adv-x="1069" d="M590 1292v-1292h-111v1292h-438v90h987v-90h-438zM532 1499l-313 164l45 78l274 -135l262 135l39 -72z" />
<glyph unicode="&#x165;" horiz-adv-x="757" d="M682 6q-41 -10 -90 -15t-92 -5q-72 0 -120 17t-78 53t-42 90.5t-12 132.5v653h-236v86h236v348l108 31v-379h320v-86h-320v-613q0 -72 7.5 -116.5t26 -71.5t49 -38t81.5 -11q39 0 78 5t72 13zM885 1180l-78 30l123 322l100 -37z" />
<glyph unicode="&#x16a;" horiz-adv-x="1441" d="M1237 520q0 -262 -132 -399t-400 -137q-160 0 -258.5 41t-151.5 107.5t-71.5 150.5t-18.5 168v931h110v-917q0 -78 16.5 -149.5t60.5 -125t122 -85t201 -31.5q102 0 180 22.5t130 74.5t77.5 134t25.5 203v874h109v-862zM457 1546v88h530v-88h-530z" />
<glyph unicode="&#x16b;" horiz-adv-x="1187" d="M870 0q0 61 5.5 130t13.5 116l-4 2q-43 -123 -140.5 -193.5t-232.5 -70.5q-86 0 -145.5 24.5t-95 68.5t-51 103.5t-15.5 130.5v707h108v-662q0 -143 49.5 -213.5t169.5 -70.5q76 0 138.5 33.5t108.5 96t70.5 146.5t24.5 184v486h109v-1018h-113zM355 1296v86h481v-86 h-481z" />
<glyph unicode="&#x16e;" horiz-adv-x="1441" d="M1237 520q0 -262 -132 -399t-400 -137q-160 0 -258.5 41t-151.5 107.5t-71.5 150.5t-18.5 168v931h110v-917q0 -78 16.5 -149.5t60.5 -125t122 -85t201 -31.5q102 0 180 22.5t130 74.5t77.5 134t25.5 203v874h109v-862zM925 1628q0 -84 -55 -144.5t-160 -60.5 q-92 0 -145 49.5t-53 147.5q0 84 55 144.5t160 60.5q92 0 145 -49.5t53 -147.5zM829 1624q0 59 -28.5 91t-81.5 32q-41 0 -76 -28.5t-35 -94.5q0 -59 28.5 -91t82.5 -32q41 0 75.5 28.5t34.5 94.5z" />
<glyph unicode="&#x16f;" horiz-adv-x="1187" d="M870 0q0 61 5.5 130t13.5 116l-4 2q-43 -123 -140.5 -193.5t-232.5 -70.5q-86 0 -145.5 24.5t-95 68.5t-51 103.5t-15.5 130.5v707h108v-662q0 -143 49.5 -213.5t169.5 -70.5q76 0 138.5 33.5t108.5 96t70.5 146.5t24.5 184v486h109v-1018h-113zM802 1343q0 -86 -58 -145 t-157 -59q-92 0 -145 50t-53 146q0 86 58.5 145.5t156.5 59.5q92 0 145 -50.5t53 -146.5zM706 1339q0 57 -28.5 90t-81.5 33q-45 0 -78 -30.5t-33 -92.5q0 -57 28.5 -89.5t82.5 -32.5q45 0 77.5 31.5t32.5 90.5z" />
<glyph unicode="&#x170;" horiz-adv-x="1441" d="M1237 520q0 -262 -132 -399t-400 -137q-160 0 -258.5 41t-151.5 107.5t-71.5 150.5t-18.5 168v931h110v-917q0 -78 16.5 -149.5t60.5 -125t122 -85t201 -31.5q102 0 180 22.5t130 74.5t77.5 134t25.5 203v874h109v-862zM538 1503l-59 60l207 227l75 -76zM866 1503l-60 60 l242 227l76 -76z" />
<glyph unicode="&#x171;" horiz-adv-x="1187" d="M870 0q0 61 5.5 130t13.5 116l-4 2q-43 -123 -140.5 -193.5t-232.5 -70.5q-86 0 -145.5 24.5t-95 68.5t-51 103.5t-15.5 130.5v707h108v-662q0 -143 49.5 -213.5t169.5 -70.5q76 0 138.5 33.5t108.5 96t70.5 146.5t24.5 184v486h109v-1018h-113zM448 1190l-61 55l219 258 l80 -69zM770 1190l-62 55l234 250l80 -70z" />
<glyph unicode="&#x172;" horiz-adv-x="1441" d="M1237 520q0 -133 -34 -233.5t-101 -167.5q-31 -31 -126 -90.5t-145 -108.5q-106 -106 -106 -211q0 -92 90 -92q63 0 137 55l43 -67q-43 -37 -92 -57.5t-102 -20.5q-90 0 -138.5 45t-48.5 119q0 76 44 153.5t128 143.5q-18 -2 -41.5 -3t-39.5 -1q-152 0 -252.5 38.5 t-153.5 105.5t-73.5 147.5t-20.5 175.5v931h110v-917q0 -86 17.5 -154.5t61.5 -122t123 -84t198 -30.5q211 0 312 100t101 334v874h109v-862z" />
<glyph unicode="&#x173;" horiz-adv-x="1187" d="M1090 -395q-43 -37 -92.5 -57.5t-102.5 -20.5q-90 0 -138 45t-48 119q0 39 11 77.5t34.5 79.5t61.5 82t89 80q-8 57 -12 118.5t-2 107.5h-2q-51 -117 -147.5 -184.5t-229.5 -67.5q-86 0 -145.5 24.5t-95 68.5t-51 103.5t-15.5 130.5v707h108v-662q0 -143 49.5 -213.5 t169.5 -70.5q76 0 138.5 33.5t108.5 96t70.5 146.5t24.5 184v486h109v-633q0 -96 9 -198.5t26 -186.5q-109 -82 -154 -153.5t-45 -137.5q0 -92 90 -92q63 0 138 55z" />
<glyph unicode="&#x178;" horiz-adv-x="1050" d="M580 553v-553h-111v553l-457 829h125l279 -512q31 -59 56.5 -111t55.5 -120h2q29 63 57.5 121.5t57.5 109.5l275 512h118zM390 1589q0 -35 -23 -57.5t-57 -22.5q-35 0 -57.5 22.5t-22.5 57.5t22.5 57.5t57.5 22.5t57.5 -22.5t22.5 -57.5zM824 1589q0 -35 -22.5 -57.5 t-57.5 -22.5t-57.5 22.5t-22.5 57.5t22.5 57.5t57.5 22.5t57.5 -22.5t22.5 -57.5z" />
<glyph unicode="&#x179;" horiz-adv-x="1107" d="M96 0v76l660 1011q41 63 71.5 108.5t65.5 92.5q-74 -2 -163 -3t-191 -1h-418v98h889v-75l-695 -1065q-23 -35 -43 -66t-55 -82q35 4 123 5t266 1h410v-100h-920zM542 1503l-28 70l321 149l45 -98z" />
<glyph unicode="&#x17a;" horiz-adv-x="909" d="M102 0v76l566 850q-57 -2 -142.5 -3t-177.5 -1h-235v96h673v-74l-561 -848q25 0 64 1t83 2t89 1h336v-100h-695zM469 1186l-63 53l225 277l82 -68z" />
<glyph unicode="&#x17b;" horiz-adv-x="1107" d="M96 0v76l660 1011q41 63 71.5 108.5t65.5 92.5q-74 -2 -163 -3t-191 -1h-418v98h889v-75l-695 -1065q-23 -35 -43 -66t-55 -82q35 4 123 5t266 1h410v-100h-920zM633 1591q0 -35 -23.5 -58.5t-58.5 -23.5t-58.5 23.5t-23.5 58.5t23.5 58.5t58.5 23.5t58.5 -23.5 t23.5 -58.5z" />
<glyph unicode="&#x17c;" horiz-adv-x="909" d="M102 0v76l566 850q-57 -2 -142.5 -3t-177.5 -1h-235v96h673v-74l-561 -848q25 0 64 1t83 2t89 1h336v-100h-695zM527 1352q0 -35 -23.5 -58.5t-58.5 -23.5t-58.5 23.5t-23.5 58.5t23.5 58.5t58.5 23.5t58.5 -23.5t23.5 -58.5z" />
<glyph unicode="&#x17d;" horiz-adv-x="1107" d="M96 0v76l660 1011q41 63 71.5 108.5t65.5 92.5q-74 -2 -163 -3t-191 -1h-418v98h889v-75l-695 -1065q-23 -35 -43 -66t-55 -82q35 4 123 5t266 1h410v-100h-920zM565 1499l-313 164l45 78l274 -135l262 135l39 -72z" />
<glyph unicode="&#x17e;" horiz-adv-x="909" d="M102 0v76l566 850q-57 -2 -142.5 -3t-177.5 -1h-235v96h673v-74l-561 -848q25 0 64 1t83 2t89 1h336v-100h-695zM455 1190l-254 256l61 57l197 -180l196 180l58 -53z" />
<glyph unicode="&#x192;" d="M1032 1313q-47 16 -97 24.5t-91 8.5q-111 0 -166 -64.5t-70 -206.5l-37 -375h322v-86h-330l-53 -563q-18 -201 -113.5 -289t-261.5 -88q-88 0 -184 29l22 92q47 -16 97.5 -24.5t91.5 -8.5q111 0 166 64.5t69 204.5l56 583h-238v86h246l37 357q20 201 113.5 289t258.5 88 q88 0 185 -29z" />
<glyph unicode="&#x218;" horiz-adv-x="1032" d="M907 373q0 -86 -33.5 -161t-103.5 -128t-155 -76.5t-191 -23.5q-80 0 -158 11t-141 30l20 106q70 -25 143.5 -38t145.5 -13q78 0 139.5 14.5t111.5 46t80 86t30 133.5q0 88 -49.5 144.5t-123 94.5t-161.5 73t-166 81t-124 117.5t-46 171.5q0 78 27.5 140.5t85 111.5 t141.5 77t192 28q63 0 128 -7.5t120 -19.5l-16 -102q-55 16 -117.5 26.5t-122.5 10.5q-162 0 -244.5 -69t-82.5 -185q0 -82 47 -138.5t120.5 -93.5t162.5 -72.5t165 -79.5t126 -117t50 -179zM366 -444q51 51 69.5 93t18.5 70q0 20 -5 31.5t-11 22t-11.5 20.5t-5.5 27 q0 29 19.5 52.5t54.5 23.5q39 0 62.5 -30t23.5 -71q0 -49 -33.5 -118.5t-130.5 -163.5z" />
<glyph unicode="&#x219;" horiz-adv-x="886" d="M766 276q0 -61 -26.5 -114t-78 -93t-125 -62.5t-167.5 -22.5q-63 0 -130 8t-116 20l14 109q51 -18 120 -30.5t130 -12.5q129 0 198.5 50t69.5 140q0 63 -35.5 102.5t-80.5 57.5t-139.5 48t-149.5 60.5t-92 85t-37 140.5q0 119 99 195.5t276 76.5q51 0 104 -5t102 -15 l-14 -101q-47 16 -103.5 24.5t-107.5 8.5q-121 0 -183.5 -47t-62.5 -129q0 -63 36 -102t81 -57.5t139.5 -48.5t149.5 -60.5t92 -85t37 -140.5zM305 -444q51 51 69.5 93t18.5 70q0 20 -5 31.5t-11 22t-11.5 20.5t-5.5 27q0 29 19.5 52.5t54.5 23.5q39 0 62.5 -30t23.5 -71 q0 -49 -33.5 -118.5t-130.5 -163.5z" />
<glyph unicode="&#x21a;" horiz-adv-x="1069" d="M590 1292v-1292h-111v1292h-438v90h987v-90h-438zM407 -444q51 51 69.5 93t18.5 70q0 20 -5 31.5t-11 22t-11.5 20.5t-5.5 27q0 29 19.5 52.5t54.5 23.5q39 0 62.5 -30t23.5 -71q0 -49 -33.5 -118.5t-130.5 -163.5z" />
<glyph unicode="&#x21b;" horiz-adv-x="753" d="M682 6q-41 -10 -90 -15t-92 -5q-72 0 -120 17t-78 53t-42 90.5t-12 132.5v653h-236v86h236v348l108 31v-379h320v-86h-320v-613q0 -72 7.5 -116.5t26 -71.5t49 -38t81.5 -11q39 0 78 5t72 13zM305 -444q51 51 69.5 93t18.5 70q0 20 -5 31.5t-11 22t-11.5 20.5t-5.5 27 q0 29 19.5 52.5t54.5 23.5q39 0 62.5 -30t23.5 -71q0 -49 -33.5 -118.5t-130.5 -163.5z" />
<glyph unicode="&#x2bc;" horiz-adv-x="124" d="M47 1118q45 49 69.5 92t34 79t5.5 61.5t-17 42.5q-14 20 -15 41.5t8 39t25.5 28.5t39.5 11q41 0 66.5 -33.5t20.5 -93t-48 -140.5t-138 -173z" />
<glyph unicode="&#x2c6;" horiz-adv-x="921" d="M655 1190l-196 180l-197 -180l-57 53l258 260l254 -256z" />
<glyph unicode="&#x2c7;" horiz-adv-x="921" d="M459 1190l-254 256l61 57l197 -180l196 180l58 -53z" />
<glyph unicode="&#x2d8;" horiz-adv-x="874" d="M670 1464q0 -47 -14.5 -90t-43 -75.5t-72.5 -52t-106 -19.5q-61 0 -104 19.5t-71 53t-41 75.5t-13 89h82q0 -59 37.5 -104t111.5 -45q70 0 110 40t40 109h84z" />
<glyph unicode="&#x2d9;" horiz-adv-x="573" d="M369 1352q0 -35 -23.5 -58.5t-58.5 -23.5t-58.5 23.5t-23.5 58.5t23.5 58.5t58.5 23.5t58.5 -23.5t23.5 -58.5z" />
<glyph unicode="&#x2da;" horiz-adv-x="823" d="M618 1343q0 -86 -58 -145t-157 -59q-92 0 -145 50t-53 146q0 86 58.5 145.5t156.5 59.5q92 0 145 -50.5t53 -146.5zM522 1339q0 57 -28.5 90t-81.5 33q-45 0 -78 -30.5t-33 -92.5q0 -57 28.5 -89.5t82.5 -32.5q45 0 77.5 31.5t32.5 90.5z" />
<glyph unicode="&#x2db;" horiz-adv-x="790" d="M514 0q-115 -88 -157 -159.5t-42 -131.5q0 -92 91 -92q63 0 137 55l43 -67q-41 -37 -91.5 -57.5t-103.5 -20.5q-92 0 -139 46t-47 118q0 76 46 157.5t150 161.5z" />
<glyph unicode="&#x2dc;" horiz-adv-x="1069" d="M864 1382q-35 -66 -86 -100.5t-112 -34.5q-49 0 -84 18.5t-66 41t-58.5 41t-62.5 18.5t-68.5 -24.5t-62.5 -73.5l-59 49q35 66 86 100.5t112 34.5q49 0 85 -18.5t66 -41t57.5 -41t62.5 -18.5q72 0 131 99z" />
<glyph unicode="&#x2dd;" horiz-adv-x="1044" d="M266 1190l-61 55l219 258l80 -69zM588 1190l-62 55l234 250l80 -70z" />
<glyph unicode="&#x312;" horiz-adv-x="0" d="M-463 1507q-49 -49 -68.5 -91t-19.5 -73q0 -18 5 -30.5t11.5 -22.5t11.5 -20t5 -29q0 -31 -21.5 -52.5t-52.5 -21.5q-33 0 -59.5 26t-26.5 77q0 49 36 118.5t128 161.5z" />
<glyph unicode="&#x315;" horiz-adv-x="10" d="M283 1180l-78 30l123 322l100 -37z" />
<glyph unicode="&#x326;" horiz-adv-x="0" d="M-717 -444q51 51 69.5 93t18.5 70q0 20 -5 31.5t-11 22t-11.5 20.5t-5.5 27q0 29 19.5 52.5t54.5 23.5q39 0 62.5 -30t23.5 -71q0 -49 -33.5 -118.5t-130.5 -163.5z" />
<glyph unicode="&#x394;" horiz-adv-x="1230" d="M61 0v76l490 1306h131l487 -1306v-76h-1108zM641 1190q-10 33 -17.5 56.5t-11.5 43.5h-2q-6 -23 -14 -48t-18 -56l-392 -1090h848z" />
<glyph unicode="&#x3a9;" horiz-adv-x="1486" d="M928 0v98q70 57 128 117.5t100 131.5t65.5 157t23.5 194q0 129 -31.5 240t-95 192.5t-157 129t-218.5 47.5q-102 0 -193 -41t-159.5 -118t-108.5 -188.5t-40 -250.5q0 -102 17 -185.5t56 -155t98.5 -137t145.5 -133.5v-98h-459v100h330q-139 100 -223 249t-84 345 q0 170 51 302t138 221.5t203 135.5t245 46t239.5 -44t191.5 -130t127 -215t46 -299q0 -106 -26.5 -197.5t-70.5 -167.5t-101.5 -137.5t-118.5 -108.5h339v-100h-458z" />
<glyph unicode="&#x3bc;" horiz-adv-x="1208" d="M1114 -10q-16 -2 -28.5 -2h-22.5q-203 0 -174 258l-2 2q-45 -121 -141.5 -192.5t-233.5 -71.5q-72 0 -126 22.5t-83 69.5l14 -592h-112v1534h108v-682q0 -135 52.5 -199.5t166.5 -64.5q76 0 139.5 33.5t108.5 95t69.5 146.5t24.5 185v486h109v-680q0 -84 6 -134t21.5 -78 t40 -37t63.5 -9v-90z" />
<glyph unicode="&#x3c0;" horiz-adv-x="1302" d="M938 928q0 -236 12.5 -389.5t30.5 -251.5q23 -119 51.5 -163t75.5 -44q57 0 106 16l19 -92q-25 -8 -60.5 -12t-70.5 -4q-96 0 -148.5 63.5t-83.5 220.5q-23 111 -32 270.5t-9 385.5h-411q4 -233 -28 -464t-109 -464h-129q84 236 123.5 466t35.5 462h-282v90h1196v-90 h-287z" />
<glyph unicode="&#x2013;" d="M0 563v94h1126v-94h-1126z" />
<glyph unicode="&#x2014;" horiz-adv-x="2048" d="M256 563v94h1536v-94h-1536z" />
<glyph unicode="&#x2015;" horiz-adv-x="2048" />
<glyph unicode="&#x2018;" horiz-adv-x="452" d="M360 1479q-43 -47 -68.5 -90t-34.5 -79t-5 -62.5t16 -43.5q14 -20 15.5 -41.5t-8 -39t-27 -29t-37.5 -11.5q-41 0 -66.5 35t-20.5 96.5t50 141.5t135 168z" />
<glyph unicode="&#x2019;" horiz-adv-x="452" d="M88 1118q45 49 69.5 92t34 79t5.5 61.5t-17 42.5q-14 20 -15 41.5t8 39t25.5 28.5t39.5 11q41 0 66.5 -33.5t20 -93t-48.5 -140.5t-137 -173z" />
<glyph unicode="&#x201a;" horiz-adv-x="452" d="M238 162q41 0 66.5 -35t20 -96.5t-50.5 -141t-135 -168.5l-51 46q43 47 68.5 90t35 78.5t5.5 62.5t-17 43q-14 20 -15 41.5t8 39t27 29t38 11.5z" />
<glyph unicode="&#x201c;" horiz-adv-x="784" d="M360 1479q-43 -47 -68.5 -90t-34.5 -79t-5 -62.5t16 -43.5q14 -20 15.5 -41.5t-8 -39t-27 -29t-37.5 -11.5q-41 0 -66.5 35t-20.5 96.5t50 141.5t135 168zM692 1479q-43 -47 -68.5 -90t-34.5 -79t-5 -62.5t16 -43.5q14 -20 15 -41.5t-8 -39t-26.5 -29t-37.5 -11.5 q-41 0 -66.5 35t-20.5 96.5t50 141.5t135 168z" />
<glyph unicode="&#x201d;" horiz-adv-x="784" d="M238 1513q41 0 66.5 -33.5t20 -93t-48.5 -140.5t-137 -173l-51 45q45 49 69.5 92t34 79t5.5 61.5t-17 42.5q-14 20 -15 41.5t8 39t25.5 28.5t39.5 11zM569 1513q41 0 67 -33.5t20.5 -93t-48.5 -140.5t-137 -173l-51 45q45 49 69.5 92t33.5 79t5 61.5t-16 42.5 q-14 20 -15 41.5t8 39t25 28.5t39 11z" />
<glyph unicode="&#x201e;" horiz-adv-x="784" d="M238 162q41 0 66.5 -35t20 -96.5t-50.5 -141t-135 -168.5l-51 46q43 47 68.5 90t35 78.5t5.5 62.5t-17 43q-14 20 -15 41.5t8 39t27 29t38 11.5zM569 162q41 0 67 -35t20.5 -96.5t-50.5 -141t-135 -168.5l-51 46q43 47 68.5 90t34.5 78.5t5 62.5t-16 43q-14 20 -15 41.5 t8 39t26.5 29t37.5 11.5z" />
<glyph unicode="&#x2020;" horiz-adv-x="901" d="M492 1188l24 -219l-29 -506h-73l-29 506l25 219h-297v86h297l-25 282h131l-24 -282h296v-86h-296z" />
<glyph unicode="&#x2021;" horiz-adv-x="901" d="M492 623l24 -283h-131l25 283h-297v86h297l-25 239l25 240h-297v86h297l-25 282h131l-24 -282h296v-86h-296l24 -240l-24 -239h296v-86h-296z" />
<glyph unicode="&#x2022;" horiz-adv-x="856" d="M621 608q0 -41 -15.5 -75.5t-41 -60.5t-61.5 -41t-75 -15q-80 0 -136 56t-56 136q0 39 15 75t40.5 61.5t60.5 41t76 15.5q39 0 75 -15.5t61.5 -41t41 -61.5t15.5 -75z" />
<glyph unicode="&#x2026;" horiz-adv-x="1245" d="M293 74q0 -37 -25.5 -62.5t-62.5 -25.5t-62.5 25.5t-25.5 62.5t25.5 62.5t62.5 25.5t62.5 -25.5t25.5 -62.5zM696 74q0 -37 -25.5 -62.5t-62.5 -25.5t-62.5 25.5t-25.5 62.5t25.5 62.5t62.5 25.5t62.5 -25.5t25.5 -62.5zM1100 74q0 -37 -25.5 -62.5t-62.5 -25.5 t-62.5 25.5t-25.5 62.5t25.5 62.5t62.5 25.5t62.5 -25.5t25.5 -62.5z" />
<glyph unicode="&#x2030;" horiz-adv-x="2048" d="M639 1110q0 -78 -21.5 -137.5t-58.5 -99t-87 -61t-107 -21.5q-113 0 -183.5 65.5t-70.5 222.5q0 76 21.5 135.5t59 99.5t88 61.5t105.5 21.5q113 0 183.5 -65.5t70.5 -221.5zM537 1096q0 104 -36 160.5t-124 56.5q-78 0 -121 -60.5t-43 -158.5q0 -106 36 -163t124 -57 q78 0 121 61t43 161zM182 -27l-71 56l1095 1380l74 -57zM1280 303q0 -78 -21.5 -137.5t-58.5 -99t-87 -61t-107 -21.5q-113 0 -183.5 65.5t-70.5 222.5q0 76 21.5 135.5t59 99.5t88 61.5t105.5 21.5q113 0 183.5 -65.5t70.5 -221.5zM1178 289q0 104 -36 160.5t-124 56.5 q-78 0 -121 -60.5t-43 -158.5q0 -106 36 -162.5t124 -56.5q78 0 121 60.5t43 160.5zM1915 303q0 -78 -21.5 -137.5t-58.5 -99t-87 -61t-108 -21.5q-113 0 -183.5 65.5t-70.5 222.5q0 76 22 135.5t59.5 99.5t88 61.5t105.5 21.5q113 0 183.5 -65.5t70.5 -221.5zM1812 289 q0 104 -35.5 160.5t-123.5 56.5q-78 0 -121 -60.5t-43 -158.5q0 -106 36 -162.5t124 -56.5q78 0 120.5 60.5t42.5 160.5z" />
<glyph unicode="&#x2039;" horiz-adv-x="643" d="M387 264l-252 338l254 344l74 -55l-213 -287l213 -282z" />
<glyph unicode="&#x203a;" horiz-adv-x="643" d="M252 264l-74 55l215 287l-211 283l76 57l250 -338z" />
<glyph unicode="&#x2044;" horiz-adv-x="438" d="M-356 -270l-80 55l1284 1851l80 -55z" />
<glyph unicode="&#x2074;" horiz-adv-x="747" d="M551 954v-196h-102v196h-396l-8 70l363 563h143v-543h145v-90h-145zM449 1499l-293 -459q31 2 71.5 3t81.5 1h79h61v455z" />
<glyph unicode="&#x207f;" horiz-adv-x="851" d="M594 758v434q0 78 -27.5 121t-103.5 43q-92 0 -148.5 -77t-56.5 -200v-321h-102v667h102q0 -31 -3 -73.5t-9 -71.5q41 90 106.5 125t139.5 35q57 0 97 -17.5t63.5 -46t33.5 -67.5t10 -84v-467h-102z" />
<glyph unicode="&#x20ac;" d="M1040 55q-80 -35 -168 -53t-161 -18q-227 0 -347 122.5t-147 372.5h-194v84h188q-2 16 -2 35v41q0 72 6 139h-192v84h202q16 109 55 198t101.5 153.5t153 99.5t206.5 35q72 0 148 -16.5t127 -39.5l-31 -90q-53 23 -125 39t-147 16q-90 0 -154.5 -31.5t-108.5 -85 t-72 -126t-40 -152.5h438v-84h-448q-2 -29 -3 -58.5t-1 -62.5v-47q0 -25 2 -47h450v-84h-444q25 -199 120 -298t287 -99q63 0 137 17.5t136 43.5z" />
<glyph unicode="&#x2122;" horiz-adv-x="1449" d="M381 1313v-506h-96v506h-164v69h424v-69h-164zM1221 807l-54 354l-16 123l-29 -102l-118 -375h-109l-115 379l-26 98l-6 -78l-62 -399h-86l86 575h133l113 -376l24 -105l21 92l123 389h129l84 -575h-92z" />
<glyph unicode="&#x2202;" horiz-adv-x="1310" d="M954 487q0 63 -20.5 119t-60 95.5t-99 63t-135.5 23.5q-78 0 -141.5 -29.5t-109.5 -80.5t-71.5 -120t-25.5 -146q0 -170 85 -253t216 -83q78 0 144.5 31.5t114.5 88t75.5 131t27.5 160.5zM1139 856q0 -84 -8.5 -173t-29 -176t-52 -168t-78.5 -149q-61 -90 -161.5 -148 t-229.5 -58q-199 0 -300.5 111.5t-101.5 305.5q0 100 35 188.5t97.5 152t150.5 100.5t192 37q145 0 239.5 -71t131.5 -181q4 57 5 106t1 98q0 150 -37 260.5t-102.5 183.5t-154.5 107.5t-193 32.5l6 88q135 -4 243.5 -48t185.5 -126t119 -200.5t42 -272.5z" />
<glyph unicode="&#x220f;" horiz-adv-x="1605" d="M1272 1399v-1915h-111v1915h-717v-1915h-110v1915h-234v96h1405v-96h-233z" />
<glyph unicode="&#x2211;" horiz-adv-x="1251" d="M74 -516v82l669 940l-628 907v82h979v-96h-840l620 -889l-665 -926h913v-100h-1048z" />
<glyph unicode="&#x2212;" d="M92 563v92h942v-92h-942z" />
<glyph unicode="&#x221a;" horiz-adv-x="1228" d="M651 0h-123l-331 932h-197v86h281l223 -653q23 -66 44 -133.5t42 -133.5h4q16 63 32.5 125t35.5 121l358 1208h115z" />
<glyph unicode="&#x221e;" horiz-adv-x="1978" d="M903 608q-55 43 -110.5 82t-108.5 68.5t-105.5 48t-103.5 18.5t-91 -17t-67.5 -46t-42 -67t-14.5 -81q0 -96 57.5 -156.5t169.5 -60.5q47 0 96.5 17.5t101.5 46t107.5 66.5t110.5 81zM1718 608q0 96 -57 156.5t-170 60.5q-47 0 -96 -17t-101.5 -46t-106.5 -67t-110 -81 q55 -43 110.5 -81.5t109 -68.5t104.5 -48.5t102 -18.5t91 17.5t68 46t42 66.5t14 81zM1835 618q0 -63 -23.5 -120.5t-66.5 -101.5t-105.5 -69.5t-142.5 -25.5q-66 0 -131.5 20.5t-128.5 54.5t-126.5 79t-125.5 92q-61 -47 -124.5 -91t-127 -78t-129 -55.5t-129.5 -21.5 q-84 0 -146.5 24.5t-103.5 66.5t-61.5 96.5t-20.5 115.5q0 63 23.5 120.5t66.5 101.5t105.5 70t142.5 26q66 0 131.5 -20.5t130 -55.5t128 -79t124.5 -91q61 47 125 91t127.5 79t128 55.5t127.5 20.5q84 0 146.5 -25t103.5 -67t61.5 -96.5t20.5 -115.5z" />
<glyph unicode="&#x222b;" horiz-adv-x="681" d="M649 1896q-23 8 -52.5 13.5t-57.5 5.5q-47 0 -79 -15.5t-53.5 -59.5t-30.5 -123t-9 -206q0 -82 1 -203.5t3 -267t5 -305.5t5 -316.5t3 -301t1 -258.5q0 -145 -17.5 -243.5t-53 -158t-90 -86t-128.5 -26.5q-53 0 -100 10v100q20 -6 50 -11t58 -5q45 0 78 14.5t54.5 56 t30.5 116.5t9 198q0 74 -1 194.5t-3 268t-5 310.5t-5 322.5t-3 307t-1 262.5q0 145 17.5 244.5t53.5 160t90 87t128 26.5q55 0 102 -12v-99v0z" />
<glyph unicode="&#x2248;" d="M1016 436q-41 -31 -100.5 -61.5t-141.5 -30.5q-78 0 -130 19.5t-96 43t-90 43t-114 19.5q-35 0 -64.5 -9t-54 -22.5t-44 -28t-34.5 -26.5l-36 82q41 35 100 67.5t141 32.5q72 0 125 -20.5t99.5 -44t94.5 -44t111 -20.5q55 0 101.5 21.5t95.5 60.5zM1016 758 q-41 -39 -100.5 -71t-141.5 -32q-78 0 -130 19.5t-96 43t-90 43t-114 19.5q-35 0 -64.5 -9t-54 -22.5t-44 -27.5t-34.5 -27l-36 82q41 35 100 68t141 33q72 0 125 -20.5t99.5 -44.5t94.5 -44t111 -20q55 0 101.5 24.5t95.5 67.5z" />
<glyph unicode="&#x2260;" d="M526 408l-129 -320h-94l129 320h-313v94h350l86 215h-436v94h473l133 330h96l-133 -330h320v-94h-357l-88 -215h445v-94h-482z" />
<glyph unicode="&#x2264;" d="M133 0v92h860v-92h-860zM918 223l-795 490l792 493l54 -80l-674 -411l674 -404z" />
<glyph unicode="&#x2265;" d="M133 0v92h860v-92h-860zM211 223l-53 80l673 412l-673 403l51 88l795 -489z" />
<glyph unicode="&#x25ca;" horiz-adv-x="1253" d="M616 1280l-405 -575l428 -596l405 565zM670 -16h-70l-508 716l496 699h63l510 -715z" />
<glyph unicode="&#xe000;" horiz-adv-x="1013" d="M0 1014h1014v-1014h-1014v1014z" />
<glyph unicode="&#xeeee;" horiz-adv-x="358" d="M358 2007v-2662h-358v2662h358z" />
<glyph unicode="&#xf000;" d="M922 205v717h-717v-717h717zM512 717v102h307v-512h-102v205h-205v102h205v103h-205zM102 102v922h922v-922h-922zM307 307v512h103v-409h204v-103h-307z" />
<glyph unicode="&#xf001;" horiz-adv-x="1198" d="M885 0v932h-523v-932h-108v932h-242v86h242v53q0 207 108.5 319.5t315.5 112.5q78 0 148.5 -10t131.5 -27l-24 -92q-57 18 -126 29.5t-142 11.5q-154 0 -229 -85t-75 -236v-76h631v-1018h-108z" />
<glyph unicode="&#xf002;" horiz-adv-x="1198" d="M885 0v1399q-109 18 -226 18q-147 0 -222 -72.5t-75 -240.5v-86h326v-86h-326v-932h-108v932h-242v86h242v78q0 197 103.5 302t324.5 105q84 0 162 -7t149 -17v-1479h-108z" />
<glyph unicode="&#xf6c9;" horiz-adv-x="776" d="M233 1503l-28 70l321 149l45 -98z" />
<glyph unicode="&#xf6ca;" horiz-adv-x="1032" d="M518 1499l-313 164l45 78l274 -135l262 135l39 -72z" />
<glyph unicode="&#xf6cb;" horiz-adv-x="1003" d="M365 1589q0 -35 -23 -57.5t-57 -22.5q-35 0 -57.5 22.5t-22.5 57.5t22.5 57.5t57.5 22.5t57.5 -22.5t22.5 -57.5zM799 1589q0 -35 -22.5 -57.5t-57.5 -22.5t-57.5 22.5t-22.5 57.5t22.5 57.5t57.5 22.5t57.5 -22.5t22.5 -57.5z" />
<glyph unicode="&#xf6ce;" horiz-adv-x="776" d="M543 1503l-338 121l45 98l321 -149z" />
<glyph unicode="&#xf6cf;" horiz-adv-x="1054" d="M264 1503l-59 60l207 227l75 -76zM592 1503l-60 60l242 227l76 -76z" />
<glyph unicode="&#xf6d0;" horiz-adv-x="940" d="M205 1546v88h530v-88h-530z" />
<glyph unicode="&#xf8ff;" horiz-adv-x="2127" d="M1087 727q4 0 5 10q0 10 -5 11q6 -11 0 -21zM1081 731q10 0 5 4t-1 4v2q-10 0 -4 -4t0 -4v-2zM1075 735q-4 -4 -4 -2q0 4 4 2zM1075 731h2v6q0 10 -8 2q4 0 6 -2q-4 0 -6 -4t6 0v-2zM1069 727q-6 10 0 21q-4 0 -4 -11q0 -10 4 -10zM1061 733q-4 -2 -4 2q0 6 4 4v2 q-4 2 -5 -5t5 -5v2zM1051 741v-6q0 -4 -1 -3t-1 3v6h-2v-6q0 -4 2 -4q4 0 4 4v6h-2zM1044 733h-4v12h-2v-14h6v2zM1300 18l-509 -129l57 -139h436l33 78l-17 35l-161 -41l-21 51l221 55zM1298 184l-507 -131l38 -96l510 127zM801 336v-127l35 -86l493 125v88h-528zM1163 698 q-29 6 -52.5 7.5t-45.5 1.5q-23 0 -48.5 -1t-53.5 -8l30 -307h142zM946 391l-35 299q-25 -6 -41 -13t-30 -11q-12 -4 -19.5 4t-9.5 20t2 23.5t10 13.5q55 16 118 27.5t124 11.5q63 0 124.5 -11.5t119.5 -27.5q6 -2 9 -13.5t1 -23.5t-8 -20t-19 -4q-16 8 -34.5 13t-43.5 11 l-30 -299h139q53 47 96 126t43 179q0 82 -31.5 156t-85 127t-126 85t-154.5 32q-84 0 -156.5 -32t-126 -85t-85 -127t-31.5 -156q0 -86 34.5 -165.5t106.5 -139.5h139zM1530 696q0 -109 -41 -194.5t-100 -139.5v-153l-33 -10l63 -150l-59 -14l59 -144l-59 -14l22 -53 l-57 -129h-94q-4 -35 -52.5 -59.5t-113.5 -24.5q-68 0 -115 24.5t-51 59.5h-94l-94 229l61 17l-61 149l67 16l-39 97v157q-59 57 -100 144.5t-41 191.5q0 96 37 181.5t99.5 149t147.5 100t183 36.5q96 0 181 -36.5t147.5 -100t99.5 -149t37 -181.5zM2068 662l-215 8v55 l215 8v-71zM1735 1417q27 -25 49 -49l-156 -145q-10 10 -19.5 20t-19.5 21zM1036 1446l-6 213h70l-6 -213h-58zM344 1370q12 12 23.5 24.5t25.5 24.5l146 -157q-10 -10 -20.5 -18.5t-20.5 -18.5zM274 725v-55l-215 -8v71z" />
<glyph unicode="&#xfb00;" horiz-adv-x="1327" d="M1405 1391q-86 25 -172 24q-129 0 -189.5 -79t-60.5 -246v-72h326v-86h-326v-932h-109v932h-512v-932h-108v932h-242v86h242v53q0 80 19.5 152.5t64.5 132t126 95.5t198 36q78 0 165.5 -17.5t171.5 -46.5q96 80 250 80q84 0 168 -18zM932 1343q-68 27 -141.5 41.5 t-143.5 14.5q-143 0 -214 -77t-71 -228v-76h512v67q0 80 14.5 143.5t43.5 114.5z" />
<glyph unicode="&#xfb01;" horiz-adv-x="1198" d="M885 0v932h-523v-932h-108v932h-242v86h242v53q0 207 107.5 319.5t316.5 112.5q74 0 147.5 -10t132.5 -27l-24 -92q-57 18 -128 29.5t-140 11.5q-152 0 -228 -84t-76 -237v-76h631v-1018h-108z" />
<glyph unicode="&#xfb02;" horiz-adv-x="1198" d="M885 0v1399q-113 18 -226 18q-154 0 -225.5 -72.5t-71.5 -240.5v-86h326v-86h-326v-932h-108v932h-242v86h242v78q0 209 106.5 308t319.5 99q92 0 182 -9t131 -15v-1479h-108z" />
<glyph unicode="&#xfb03;" horiz-adv-x="1818" d="M1505 0v932h-522v-932h-109v932h-512v-932h-108v932h-242v86h242v53q0 80 19.5 152.5t64.5 132t126 95.5t198 36q78 0 170 -18.5t180 -51.5q55 43 124.5 64.5t161.5 21.5q74 0 148 -10t133 -27l-25 -92q-57 18 -127.5 29.5t-140.5 11.5q-152 0 -227.5 -84t-75.5 -237v-76 h631v-1018h-109zM942 1339q-72 29 -147.5 44.5t-147.5 15.5q-143 0 -214 -77t-71 -228v-76h512v53q0 74 15.5 142.5t52.5 125.5z" />
<glyph unicode="&#xfb04;" horiz-adv-x="1818" d="M1505 0v1399q-113 18 -225 18q-154 0 -225.5 -72.5t-71.5 -240.5v-86h326v-86h-326v-932h-109v932h-512v-932h-108v932h-242v86h242v53q0 80 19.5 151.5t64.5 131t126 95.5t198 36q78 0 168 -17.5t171 -46.5q104 82 299 82q92 0 182.5 -9t131.5 -15v-1479h-109zM932 1343 q-68 27 -141.5 41.5t-143.5 14.5q-143 0 -214 -77t-71 -228v-76h512v78q1 151 58 247z" />
<glyph unicode="&#xfb06;" horiz-adv-x="1613" d="M1542 6q-41 -10 -90 -15t-92 -5q-72 0 -121 17t-77.5 53t-41 91.5t-12.5 131.5v653h-236v86h236v26q0 174 -87 269.5t-226 95.5q-121 0 -178.5 -58.5t-57.5 -146.5q0 -66 36 -123t105 -82l-14 -86q-41 14 -96 23.5t-113 9.5q-123 0 -184.5 -48t-61.5 -128 q0 -70 40 -106.5t99.5 -61t128 -43t128 -50.5t99.5 -86t40 -147q0 -61 -25.5 -114t-77 -93t-125 -62.5t-169.5 -22.5q-66 0 -132.5 8t-113.5 20l14 109q49 -18 118 -30.5t132 -12.5q129 0 198.5 50t69.5 140q0 68 -40 106t-99 62.5t-128 43t-128 50t-99 86t-40 146.5 q0 63 29.5 116.5t85 90.5t132 53t169.5 4q-35 23 -59.5 67t-24.5 109q0 61 22.5 114.5t67.5 93.5t110.5 63.5t151.5 23.5q82 0 155.5 -25.5t131 -79t91.5 -139.5t34 -204v-31h319v-86h-319v-613q0 -70 7 -114.5t25.5 -72.5t50 -39t80.5 -11q41 0 80 5t70 13z" />
<glyph horiz-adv-x="1966" d="M1817 1169q-4 -8 -7 -8q-23 4 -44 1t-44 -5q-70 -4 -108.5 -6t-75.5 -8q-16 -14 -17 -32.5t-12 -35.5q-2 -10 1 -16t3 -15q4 -6 12.5 -9t14.5 -5q16 2 29.5 8t21.5 19q0 14 -10 24q-10 8 -21.5 6t-19.5 9q8 10 21.5 8t25.5 -2q16 -6 27 -33q-8 -31 -43 -55 q-10 -4 -21.5 -5t-23.5 -5q-23 6 -48.5 16t-37.5 33q-6 25 3 46t13 44q-4 10 -12 8t-17 0l-69 -2q0 4 -2 4t-2 4q8 4 16 4t14 2q18 -4 39 -2t39 2q10 6 11.5 15.5t3.5 19.5q8 14 10 32.5t16 29.5q10 6 15.5 -2.5t9.5 -12.5q10 -16 4 -35.5t0 -38.5q4 -12 18.5 -8t24.5 0 q47 4 100.5 3t132.5 10q7 -5 9 -7zM1323 1028q-25 0 -52.5 -1t-53.5 -9q-6 4 -12.5 5t-10.5 11q8 29 13 57.5t1 57.5q-4 6 -13 1t-15 -9q-31 -16 -60.5 -40t-36.5 -59q-8 -8 -19 -11t-20 1q-10 14 -2.5 30.5t2.5 33.5l7 63q-6 6 -16.5 3t-20.5 1q-4 4 -13.5 2t-7.5 9 q27 -2 52.5 2t54.5 0q6 -6 5 -14.5t-3 -16.5t0 -14.5t10 -10.5q29 12 55.5 29.5t55.5 28.5q6 -4 14 -3t14 1q8 0 13.5 -3.5t7.5 -13.5q2 -23 -1 -44t-5 -44q2 -6 1 -13t3 -11q18 -4 26 0q8 0 16.5 -2.5t18.5 -2.5q6 -4 0 -10zM926 1145q2 -37 -21 -64q-25 -14 -45 -31.5 t-49 -21.5q-6 2 -8 -1t-5 -6t-6.5 -5t-9.5 2q-10 8 -24.5 4t-26.5 -2q-12 0 -21.5 1t-19.5 5q-14 14 -27.5 31.5t1.5 42.5q16 41 55 61q23 10 47.5 21.5t50.5 5.5q33 -2 65 -8t44 -35zM961 1360q-27 -27 -62 -17q-8 12 -15 23.5t-7 26.5q-20 41 -64.5 51t-87.5 22l-63 4 q-4 -4 -12.5 -2t-14.5 -2q-37 -10 -63.5 -20t-53.5 -23q-14 -16 -35.5 -27.5t-27.5 -33.5q-16 -31 -24.5 -70t-14.5 -73q10 -8 22.5 -5t22.5 0q45 4 86 5h90q10 -4 0 -15q-18 -12 -31.5 -1t-30.5 5q-20 2 -42.5 -1t-43.5 -1q-18 -4 -38 -4t-37 -10l-6 -8q-8 -39 -10.5 -63.5 t-2.5 -65.5q2 -14 -3 -28.5t5 -29.5q27 -2 42.5 -1t28.5 2t28.5 3.5t42.5 2.5q8 4 14 2t12 -5q2 -2 1 -4t1 -4l-10 -4q-23 4 -41 3t-37.5 -3t-42 -4t-53.5 0q-23 -2 -47.5 -4t-48.5 0q-31 -2 -66 -2t-63 8l-2 6q6 6 18 11q16 -8 36.5 -9.5t41.5 -5.5q16 2 29.5 1t25.5 7 q4 53 18.5 94.5t24.5 96.5l-4 8q-31 2 -59.5 0t-55.5 10q0 10 9 11q27 -8 55 -9q31 0 59 2l4 7q10 35 20.5 70.5t27.5 64.5l2 6q51 53 115.5 86t142.5 41q35 4 71.5 -4t65.5 -23q10 -4 20 -4q12 0 23 -4q35 -8 66.5 -24.5t52.5 -47.5q2 -4 0 -9t-4 -9zM1571 -127 q-45 4 -100.5 -5t-98.5 -3q-115 4 -223.5 -8.5t-220.5 0.5q-51 -8 -99.5 -3t-97.5 9q-59 4 -121.5 3t-126.5 -1q-43 0 -102 -3t-102 -14q-8 -2 -19 -2q-8 0 -12 11q0 33 -2 66.5t8 66.5q4 41 2 82t4 82q-8 47 -1 91t-1 91q0 66 5 132.5t9 135.5q4 74 1 146.5t1 146.5 q8 16 23.5 13t30.5 1q16 -10 37.5 -5t37.5 3q6 6 15.5 11.5t11.5 -9.5q4 -4 1 -12t5 -12q-4 -29 -3 -78t4 -106.5t7.5 -118t6.5 -109.5q66 20 120 56t117 59q10 4 19.5 12t23.5 12q4 2 8 6.5t13 0.5q10 -4 8 -14.5t-2 -20.5q-20 -59 -10 -125q4 -10 13 -6t15 4 q16 14 34.5 23.5t35.5 21.5q20 12 40.5 23.5t43.5 19.5q25 16 48 32.5t50 26.5l41 33q2 8 12 14q6 0 11.5 -4t11.5 -8q0 -29 6 -58.5t6 -58.5q2 -6 6 -5t6 -3q8 -10 4 -20.5t-8 -20.5l4 -4q35 8 65 26.5t59.5 39t59 39t64.5 26.5q10 10 22.5 13t22.5 14q10 2 18.5 9t17.5 13 t19.5 9.5t22.5 -7.5q4 0 8 -2t6 -6q-2 -8 1.5 -13t7.5 -11q-4 -16 0 -29.5t-4 -26.5q2 -27 0 -51.5t10 -46.5q-4 -14 5 -25.5t-1 -21.5q2 -16 0 -29.5t8 -25.5q2 -10 3 -19.5t-5 -17.5q4 -23 5 -47.5t9 -47.5q-4 -8 -2 -16t2 -16q0 -78 11.5 -151t13.5 -150q0 -4 3 -9.5 t-1 -9.5zM877 1104q-4 23 -12.5 44t-33.5 26q-4 -10 -13 -7.5t-17 0.5q-27 12 -56 -12q-25 -31 -13.5 -59.5t26.5 -55.5q2 -8 9 -6t15 0q12 -4 25.5 3t26.5 12q14 12 30.5 22t12.5 33zM1475 -20q-4 16 -9.5 33.5t-15.5 31.5q-10 23 -20.5 42t-8.5 46q-2 10 -6 17.5t0 17.5 q18 16 41 26.5t39 26.5l-14 35q-18 -2 -33.5 -9t-32.5 -11q-10 -4 -21.5 -12.5t-19.5 1.5q10 41 18.5 81t14.5 79l-4 6q-16 0 -27.5 5t-25.5 10q-6 -23 -13.5 -48.5t-11.5 -50.5q-8 -16 -8 -41q0 -23 -10 -39q-10 -63 -23.5 -106t-19.5 -105l-4 -14h49q6 2 12 -2t12 2 q4 14 5 27.5t5.5 30t0 34t18.5 23.5q12 -4 10 -13.5t2 -17.5q-2 -14 5 -24.5t7 -22.5q18 -12 25.5 -32.5t24.5 -35.5q6 2 10 -3t14 -1q15 1 15 13zM1280 367q-2 10 -6 18t-14 12q-4 4 -10.5 5t-10.5 -5q-10 -12 -17.5 -30.5t-0.5 -30.5q2 -10 14 -11t22 3q23 12 23 39z M1219 31q8 41 14 80t12 75q10 31 10 54q-12 10 -26.5 4t-30.5 -4q-18 -23 -20 -49.5t-9 -53.5q-8 -10 -11 -24.5t-7 -28.5q4 -20 -5 -45t1 -45q29 0 63 10q9 11 9 27zM1161 252q-16 -2 -34.5 -5t-32.5 -22q-10 -8 -15.5 -23.5t-21.5 -11.5q-4 16 -1 29.5t7 30.5 q-8 4 -15.5 0t-15.5 0q-18 -8 -28 -27q-10 -59 -20.5 -113.5t-14.5 -113.5l6 -8q10 -8 23.5 -3t23.5 1q-4 23 5 42t5 42q10 23 20.5 46t30.5 44q12 10 26.5 13t31.5 13q4 16 12 33t8 33zM915 61q25 35 27 72t0 78q4 6 -2 12t-14 10.5t-16.5 9.5t-10.5 7q-4 4 -10 4 q-4 0 -6 -6q-23 2 -41 -8q-12 -6 -18.5 -16.5t-16.5 -14.5q-4 -4 -9 -1t-7 7q14 37 17 75t5 77l-2 14h-16q-18 -6 -19.5 -22.5t-7.5 -28.5q-12 -35 -17.5 -70t-17.5 -70q-4 -35 -13 -67.5t-11 -63.5q-4 -18 -10.5 -35.5t-8.5 -37.5q12 -8 30.5 -2t33.5 12q10 4 16 2t11 -8 t8.5 -12.5t9.5 -10.5q16 0 26 2q25 12 55.5 39.5t34.5 52.5zM659 70q-2 23 4.5 48t12.5 50t10 49.5t-4 42.5q-10 8 -24.5 13.5t-18.5 -5.5l-4 -12q-16 -4 -38 4t-40 -4q-16 -8 -21.5 -16.5t-9.5 -24.5q2 -6 -3 -9t-12 -6t-12 -9.5t-3 -18.5q-4 -8 -1 -13t-6 -14 q-4 -10 -11 -26.5t-13 -20.5q-20 -12 -17 -40.5t11 -45.5q-4 -14 5 -22t19 -13q4 4 8.5 6.5t8.5 -1.5q16 -4 38.5 15t39.5 30q12 2 12 -2t-3 -10.5t-5 -14.5t2 -12q10 -4 13 -7.5t13 -3.5q8 4 16.5 5.5t16.5 7.5zM545 371q-25 4 -52.5 3t-54.5 -3q-16 -2 -31.5 -5.5 t-27.5 -11.5q-10 -33 -20.5 -66.5t-18.5 -66.5q-6 -53 -19.5 -111.5t-21.5 -113.5q8 0 16.5 3t12.5 -1q14 4 24 -1t23 1q10 33 15 64.5t16 64.5q6 10 16 15t20.5 9.5t17.5 0t15 6.5l8 57q-6 10 -18 9t-25 -1q-8 -8 -14 -8q-16 4 -11 19.5t1 25.5q-2 6 3 11t9 10q23 6 43.5 9 t40.5 7l12 8q2 18 9.5 34t11.5 32zM877 158q8 -29 -5.5 -59.5t-35.5 -53.5q-6 -8 -13.5 -9t-15.5 -5q-25 4 -24 26.5t1 40.5q8 16 12.5 34t14.5 32q16 8 26.5 22.5t26.5 14.5l4 -6q-8 -14 -0.5 -20.5t9.5 -16.5zM596 117q-2 -16 -17.5 -41t-31.5 -37q-8 -2 -17.5 -8t-19.5 0 q-12 4 -5 15t11 22q0 4 3 20t12.5 36.5t22.5 42t32 34.5q18 2 22 2q6 0 13 4q4 -6 -0.5 -18.5t-9.5 -27t-10 -27.5t-5 -17z" />
<glyph horiz-adv-x="2695" d="M1696 1178q-10 8 -14.5 -1.5t-10.5 -5.5q-47 -23 -62.5 -69.5t-13.5 -93.5q14 -4 24.5 8t25.5 8q6 14 17 29.5t20.5 31t12.5 33t-12 33.5q12 0 13 10v17zM944 471q-14 4 -26.5 -6t-20.5 -23q-23 -29 -40 -61.5t-3 -67.5q10 -4 14 2.5t9 12.5q23 23 40 47t31 55zM1227 426 q4 10 8 27.5t-12 21.5l-11 -59q10 2 11 4q0 2 4 6zM762 -12q-6 23 -30.5 26.5t-43.5 -4.5q-23 -18 -44 -38.5t-38 -43.5q-10 -31 -24.5 -61.5t-26.5 -61t-19.5 -62.5t-3.5 -67q6 -2 7.5 1.5t5.5 7.5q27 37 58.5 71.5t62 71.5t55.5 76t41 84zM1171 -188q-4 -23 -7 -47.5 t5 -47.5q6 -6 16.5 -5t19.5 7.5t13.5 17.5t-1.5 27q2 8 5 22.5t2 28t-6.5 23.5t-17.5 12zM1446 -315q12 27 4 57.5t-25 52.5q-10 -12 -12 -26.5t-4 -28.5q4 -16 9 -33.5t28 -21.5zM707 901q-4 -4 -8.5 -8t-20.5 -8t-49 -9.5t-94 -9.5q-70 -6 -132.5 -17t-128.5 -34 q-10 -23 -27.5 -16.5t-29.5 12.5q-2 8 2 14t10.5 11.5t12.5 10.5t8 13q12 25 21.5 49.5t17.5 48.5q-4 12 4 26.5t14 27.5q45 104 86 209.5t66 216.5q-8 29 6 43q12 4 16 -4.5t11 -14.5q-14 -80 -41 -153.5t-58 -146t-60.5 -146.5t-49.5 -152l4 -4q78 12 149.5 26.5 t153.5 16.5q25 -4 55 -4q31 0 55 10zM1026 963q-10 -25 -18.5 -50.5t-26.5 -48.5q-14 -6 -25.5 1t-17.5 20q-33 76 -20 153q-4 2 -2 16.5t3 33t1 36.5t-7 27q-12 -31 -13 -63.5t-2 -64.5t-8 -61.5t-32 -56.5q-4 -4 -14 -7t-24.5 3t-27 23.5t-18.5 58.5q6 39 8 75t9 72 q4 14 -4.5 30t8.5 28q14 8 26 -8q2 -31 -2 -65t-6 -65.5t-1 -59t13 -48.5q14 -10 21.5 -4t10.5 18.5t5 25.5t6 17q8 41 6 86t11 86q6 6 10 15.5t8 16.5t11.5 10.5t19.5 -5.5q14 -41 15 -78.5t-1 -76.5t-1 -78t14 -78q2 -6 9 -8t13 6l4 11q4 12 9 24t12.5 22.5t17.5 10.5z M1341 1020q-14 -35 -44.5 -60.5t-71.5 -25.5t-77 15.5t-54 49.5q-16 23 -15.5 48.5t4.5 54.5q4 18 15.5 30.5t13.5 30.5q59 49 131 25q8 -6 16.5 -9t6.5 -16q-6 -8 -14.5 0t-18.5 8q-55 14 -103 -32q-16 -25 -24 -54.5t4 -58.5q45 -61 111 -70q18 8 39 9q23 0 38 20 q12 8 19.5 25.5t23.5 9.5zM1716 1384q-6 -10 -19.5 -20t-29.5 -8q-4 6 -9 14t-16 -2q-59 -47 -113 -99t-77 -122q-6 -41 -10 -86t2 -88t23.5 -81t52.5 -65q20 -16 44.5 -13t49.5 1q12 8 21.5 17.5t21.5 17.5q4 -18 -13.5 -26.5t-29.5 -20.5q-31 -12 -67 -5t-60 29 q-47 43 -55 95q-10 4 -11 10q0 6 2 12t3 12.5t-7 10.5q4 6 2 13t-5 15.5t-4 15.5t5 17q-2 61 17.5 113.5t52.5 98.5t76 86t88 75q8 0 18 3t21 3q10 0 17 -4.5t9 -18.5zM1995 983q-6 -16 -18.5 -31.5t-30.5 -19.5q-16 4 -23.5 13t-17.5 22l4 28q10 -4 9 -16t13 -16 q10 -4 19.5 6t13.5 16q8 47 1 92t-32 86l-12 -6q-25 -23 -46.5 -42t-35.5 -50l-16 -8q-29 -29 -49.5 -60.5t-44.5 -54.5q-12 -2 -17.5 3t-8.5 13.5t-4 18.5t-5 16q8 20 -6 35q-12 2 -13.5 -7t-7.5 -13q-16 -16 -29.5 -23.5t-35.5 -9.5q-23 6 -29 18.5t-3 27.5t8 33.5t5 35.5 q8 31 26.5 54t41.5 48q20 4 44.5 12t41.5 -16l8 -12q-12 -35 -15.5 -73t-7.5 -75q2 -6 5.5 -13t11.5 -7q23 0 28 18t19 31q45 39 84 79t76 81q12 -4 17 -15.5t6 -24t2 -25.5t7 -22q10 -4 7 -16q16 -31 15 -63.5t-5 -67.5zM2179 1190q-4 59 -32.5 118.5t-90.5 88.5 q12 18 25.5 16t26 -12t22.5 -25.5t18 -23.5q33 -39 47.5 -85t15.5 -95.5t-10.5 -98.5t-29.5 -94q-29 -70 -84 -130.5t-129 -90.5q29 20 54.5 43.5t43.5 54.5q33 33 61.5 72t36.5 92q25 41 27 84t-2 86zM1497 428q-37 -6 -71.5 -16.5t-69.5 -20.5t-70 -17t-72 -3 q-6 -6 -10 -22.5t-1 -33t11.5 -26.5t26.5 -4q6 8 9 23.5t16 19.5q10 -18 3 -36t-20 -32q-6 -4 -21.5 -5t-29.5 8t-23.5 31.5t-3.5 65.5q-4 6 -9 12.5t-1 16.5q23 16 25 42t6 52q-4 2 -4 4t-4 5q-35 -23 -53.5 -60t-45.5 -65q0 -14 -8 -25.5t-17 -23t-16.5 -23.5t-3.5 -29 q-6 -6 -7 -16t-2 -19.5t-5 -16.5t-18 -9q-18 4 -24.5 15t-6.5 24q0 14 2 28.5t0 26.5q-6 39 2 71.5t2 67.5q-18 -10 -23.5 -28.5t-19.5 -34.5q-10 -12 -19.5 -28.5t-19.5 -31t-25.5 -21.5t-35.5 -3q-23 35 -8.5 73.5t34.5 73.5q8 10 18.5 23.5t22 24t25.5 15.5t31 -1 q10 -6 20 0q18 43 27.5 90t13.5 94l20 16q12 -4 14.5 -10t-0.5 -14t-6 -16.5t-1 -16.5q-8 -57 -19.5 -113.5t-15.5 -111.5q-2 -31 -8.5 -59.5t4.5 -59.5q33 43 61.5 94t73.5 94q12 16 28.5 33t36.5 29q16 -12 30.5 -29.5t31.5 -27.5q0 -18 -2 -41t2 -41q55 12 105.5 20 t103.5 25q16 -11 14 -27zM836 -18q-2 -78 3 -156t1 -152.5t-28 -142.5t-81 -125q-66 -41 -144.5 -50t-152.5 11q-8 4 -16 11.5t-8 17.5q4 20 12 40.5t33 28.5q-6 -16 -13.5 -32.5t-11.5 -34.5q27 -16 59.5 -22.5t68.5 -4.5t70 12.5t60 24.5q29 10 46.5 28.5t27.5 41t18 46 t19 46.5q12 72 14 154.5t-2 144.5q8 23 2 49.5t-2 48.5q-4 10 -12 7t-13 -5q-16 -16 -22 -35.5t-23 -31.5q2 -16 -4 -24.5t-15 -15.5t-17.5 -15.5t-8.5 -22.5q-41 -47 -76.5 -95t-70.5 -98q-8 -12 -14.5 -24.5t-22.5 -9.5q-10 14 -11 29.5t0 30.5t3 31.5t0 32.5q10 35 18 72 t35 72q18 49 52 97t83 79q29 8 50.5 -5t43.5 -28q16 20 25 49q25 -10 25 -41q-10 -10 -3 -17t3 -17zM1108 -111q-8 -6 -16.5 -3t-16.5 7.5t-17 7.5t-18 -3q-14 -10 -20 -22.5t-9 -26t-7.5 -26.5t-12.5 -24q-4 -29 -10 -54.5t-6 -51.5q-6 -4 -12.5 -8t-16.5 0q-12 16 -6 36.5 t4 36.5q14 18 11 44t8 46q-6 10 -5.5 25.5t-3.5 26.5q-10 4 -15 -4.5t-15 2.5q4 20 28 36q16 0 24.5 -12t14.5 -24q8 2 15.5 11t14.5 16t16.5 9.5t19.5 -8.5zM1939 -70q-10 -12 -23 -16t-27.5 -6l-29 -4t-24.5 -10q-35 -4 -65.5 -13.5t-45.5 -44.5q-8 -20 -19 -39.5 t-21.5 -40t-16.5 -42t0 -46.5q4 -18 22.5 -17t30.5 5q8 0 13.5 9t15.5 3t2 -12t-12 -14q-16 -10 -37 -15.5t-41 4.5q-16 16 -24.5 34t-2.5 40q4 16 17.5 49t54.5 103q-16 8 -32.5 6t-32 -5t-32 -5.5t-32.5 4.5q10 12 25.5 18t29.5 10q27 6 56.5 4t46.5 25q14 23 10 46.5 t0 47.5q-10 4 -10 12v13q-12 23 -30.5 35t-40.5 17t-44.5 6t-42.5 1q-47 -4 -87 -34.5t-56 -71.5q-14 -33 -11.5 -66t17.5 -67q-4 -25 5 -47.5t20.5 -44t16.5 -46t-7 -51.5q-10 -10 -25.5 -8t-28.5 6q-29 14 -32 45t-13 57q16 12 14.5 34t10.5 38q4 10 2 26.5t-17 22.5 q-35 -4 -77 -4q-41 0 -70 -24q2 -23 5 -45.5t2 -45t-9 -43t-29 -34.5q-23 -6 -49 8q-23 18 -19.5 44t3.5 50q16 31 31.5 64.5t50.5 46.5q16 -10 33.5 -6t33.5 8l101 2q10 10 9 25.5t3 27.5q18 59 64.5 105.5t111.5 50.5q35 4 67.5 2t63.5 -19q2 -10 8 -16t14.5 -10 t15.5 -10.5t9 -16.5q18 -29 13 -67.5t-11 -71.5q47 0 92 8t86 16z" />
<glyph horiz-adv-x="1032" d="M780 1499l-274 135l-262 -135l-39 72l307 170l313 -164z" />
<glyph horiz-adv-x="1091" d="M887 1653q-37 -63 -88 -98t-115 -35q-51 0 -88 18t-67.5 39.5t-59.5 40t-66 18.5q-35 0 -71.5 -24.5t-65.5 -71.5l-61 47q35 63 87 98t116 35q51 0 87.5 -18.5t67.5 -40t59.5 -39.5t65.5 -18q76 0 137 96z" />
<glyph horiz-adv-x="890" d="M686 1731q0 -98 -66.5 -160t-177.5 -62q-119 0 -178 64.5t-59 157.5h82q0 -55 44 -94.5t113 -39.5q72 0 115 39t43 95h84v0z" />
<glyph horiz-adv-x="573" d="M369 1591q0 -35 -23.5 -58.5t-58.5 -23.5t-58.5 23.5t-23.5 58.5t23.5 58.5t58.5 23.5t58.5 -23.5t23.5 -58.5z" />
<glyph horiz-adv-x="823" d="M618 1667q0 -84 -55 -144.5t-160 -60.5q-92 0 -145 49.5t-53 147.5q0 84 55 144.5t160 60.5q92 0 145 -49.5t53 -147.5zM522 1663q0 59 -28.5 91t-81.5 32q-41 0 -76 -28.5t-35 -94.5q0 -59 28.5 -91t82.5 -32q41 0 75.5 28.5t34.5 94.5z" />
<glyph horiz-adv-x="708" d="M268 1278l-63 51l213 268l86 -63z" />
<glyph horiz-adv-x="962" d="M819 1589q0 -35 -22.5 -57.5t-57.5 -22.5t-57.5 22.5t-22.5 57.5t23 57.5t57 22.5q35 0 57.5 -22.5t22.5 -57.5zM426 1589q0 -35 -22.5 -57.5t-57.5 -22.5t-57.5 22.5t-22.5 57.5t22.5 57.5t57.5 22.5t57.5 -22.5t22.5 -57.5z" />
<glyph horiz-adv-x="518" d="M508 1352q0 -35 -22.5 -57.5t-57.5 -22.5t-57.5 22.5t-22.5 57.5t22.5 57.5t57.5 22.5t57.5 -22.5t22.5 -57.5zM170 1352q0 -35 -22.5 -57.5t-57.5 -22.5t-57.5 22.5t-22.5 57.5t22.5 57.5t57.5 22.5t57.5 -22.5t22.5 -57.5z" />
<glyph horiz-adv-x="747" d="M397 1174l-180 307l94 49l160 -318z" />
<glyph horiz-adv-x="743" d="M274 1184l-69 45l194 291l88 -56z" />
<glyph horiz-adv-x="901" d="M618 1190l-176 180l-172 -180l-59 53l235 258l232 -254z" />
<glyph horiz-adv-x="1052" d="M799 1382q-63 -125 -172 -125q-35 0 -65 15.5t-55.5 34t-49 34t-43.5 15.5q-33 0 -57.5 -25.5t-41.5 -60.5l-61 43q25 51 68 90t106 39q33 0 63.5 -15.5t56 -34t49.5 -34t44 -15.5q31 0 55.5 24t42.5 63z" />
<glyph horiz-adv-x="808" d="M180 1296v86h449v-86h-449z" />
<glyph horiz-adv-x="874" d="M653 1464q0 -117 -58 -177t-161 -60q-104 0 -158.5 61.5t-54.5 175.5h82q0 -59 34 -104t99 -45q61 0 97 40t36 109h84z" />
<glyph horiz-adv-x="1822" d="M1720 553q0 -137 -36.5 -242.5t-104.5 -177.5t-162 -107.5t-211 -35.5q-106 0 -195 13t-126 22v1374q-113 18 -226 18q-154 0 -225.5 -72.5t-71.5 -240.5v-86h326v-86h-326v-932h-108v932h-242v86h242v78q0 209 106.5 308t319.5 99q92 0 182 -9t131 -15v-533 q0 -45 -5 -95t-13 -87l4 -2q45 129 142.5 200.5t221.5 71.5q180 0 278.5 -121.5t98.5 -359.5zM1606 545q0 190 -69 295.5t-206 105.5q-82 0 -146.5 -43t-106.5 -111.5t-63.5 -148.5t-21.5 -151v-386q25 -8 86.5 -19t139.5 -11q90 0 160.5 27.5t121.5 85t78 146.5t27 210z " />
<glyph horiz-adv-x="1867" d="M1554 0v662q0 143 -49 213.5t-170 70.5q-76 0 -138 -33.5t-108.5 -96t-71 -146.5t-24.5 -185v-485h-108v1399q-113 18 -226 18q-154 0 -225.5 -72.5t-71.5 -240.5v-86h326v-86h-326v-932h-108v932h-242v86h242v78q0 209 106.5 308t319.5 99q92 0 182 -9t131 -15v-510 q0 -59 -4 -112.5t-12 -88.5l4 -2q45 125 142.5 196.5t232.5 71.5q86 0 145.5 -24.5t95 -68.5t51 -103.5t15.5 -130.5v-707h-109z" />
<glyph horiz-adv-x="1198" d="M993 -150q0 -104 -15 -175.5t-50 -117.5t-94.5 -67.5t-149.5 -21.5q-33 0 -69.5 5t-65.5 13l14 100q31 -12 66 -18t69 -6q57 0 93 13t56.5 45t29 85t8.5 141v1086h-523v-932h-108v932h-242v86h242v53q0 207 107.5 319.5t316.5 112.5q74 0 147.5 -10t132.5 -27l-24 -92 q-57 18 -128 29.5t-140 11.5q-152 0 -228 -84t-76 -237v-76h631v-1168z" />
<glyph horiz-adv-x="1632" d="M885 1399q-113 18 -226 18q-154 0 -225.5 -72.5t-71.5 -240.5v-86h326v-86h-326v-932h-108v932h-242v86h242v78q0 209 106.5 308t319.5 99q92 0 182 -9t131 -15v-930l418 469h131l-424 -463l459 -555h-147l-437 547v-547h-108v1399z" />
</font>
</defs>
</svg>
