<svg xmlns="http://www.w3.org/2000/svg" viewBox="0 0 30 30">
<rect fill="none" width="30" height="30"/>
<path fill="#000000" d="M25,6h-5V4c0-1.1-0.9-2-2-2h-6c-1.1,0-2,0.9-2,2v2H5C4.45,6,4,6.45,4,7s0.45,1,1,1h1v19c0,0.55,0.45,1,1,1h16 c0.55,0,1-0.45,1-1V8h1c0.55,0,1-0.45,1-1S25.55,6,25,6z M12,4h6v2h-6V4z M22,26H8V8h14V26z M10,23V11c0-0.55,0.45-1,1-1s1,0.45,1,1 v12c0,0.55-0.45,1-1,1S10,23.55,10,23z M14,23V11c0-0.55,0.45-1,1-1s1,0.45,1,1v12c0,0.55-0.45,1-1,1S14,23.55,14,23z M18,23V11 c0-0.55,0.45-1,1-1s1,0.45,1,1v12c0,0.55-0.45,1-1,1S18,23.55,18,23z"/>
</svg>