<svg xmlns="http://www.w3.org/2000/svg" viewBox="0 0 30 30">
<rect fill="none" width="30" height="30"/>
<path fill="#000000" d="M26,19v6c0,0.55-0.45,1-1,1h-6c-0.55,0-1-0.45-1-1s0.45-1,1-1h3.59l-4.29-4.29c-0.39-0.39-0.39-1.02,0-1.41 s1.02-0.39,1.41,0L24,22.59V19c0-0.55,0.45-1,1-1S26,18.44,26,19z M12,5c0-0.55-0.45-1-1-1H5C4.45,4,4,4.45,4,5v6c0,0.55,0.45,1,1,1 s1-0.45,1-1V7.41l4.29,4.29C10.49,11.9,10.74,12,11,12s0.51-0.1,0.71-0.29c0.39-0.39,0.39-1.02,0-1.41L7.41,6H11 C11.55,6,12,5.55,12,5z M25,4h-6c-0.55,0-1,0.45-1,1s0.45,1,1,1h3.59l-4.29,4.29c-0.39,0.39-0.39,1.02,0,1.41 C18.49,11.9,18.74,12,19,12s0.51-0.1,0.71-0.29L24,7.41V11c0,0.55,0.45,1,1,1s1-0.45,1-1V5C26,4.45,25.55,4,25,4z M11.71,18.29 c-0.39-0.39-1.02-0.39-1.41,0L6,22.59V19c0-0.55-0.45-1-1-1s-1,0.45-1,1v6c0,0.55,0.45,1,1,1h6c0.55,0,1-0.45,1-1s-0.45-1-1-1H7.41 l4.29-4.29C12.1,19.32,12.1,18.68,11.71,18.29z"/>
</svg>