<svg xmlns="http://www.w3.org/2000/svg" viewBox="0 0 30 30">
<rect fill="none" width="30" height="30"/>
<path fill="#000000" d="M20,8c-1.1,0-2,0.9-2,2s0.9,2,2,2c1.1,0,2-0.9,2-2S21.1,8,20,8z M18.5,3C13.81,3,10,6.81,10,11.5 c0,0.91,0.14,1.81,0.42,2.66l-6.13,6.13C4.11,20.48,4,20.73,4,21v4c0,0.55,0.45,1,1,1h5c0.55,0,1-0.45,1-1v-3h3c0.55,0,1-0.45,1-1 v-1.76c1.09,0.5,2.28,0.76,3.5,0.76c4.69,0,8.5-3.81,8.5-8.5S23.19,3,18.5,3z M18.5,5c3.58,0,6.5,2.92,6.5,6.5S22.08,18,18.5,18 c-1.41,0-2.76-0.45-3.9-1.31c-0.3-0.23-0.71-0.27-1.05-0.1C13.21,16.76,13,17.11,13,17.49V20h-3c-0.55,0-1,0.45-1,1v3H6v-2.59 l6.29-6.29c0.29-0.29,0.37-0.72,0.21-1.1C12.17,13.23,12,12.38,12,11.5C12,7.92,14.92,5,18.5,5z"/>
</svg>