<svg xmlns="http://www.w3.org/2000/svg" viewBox="0 0 30 30"><rect fill="none" width="30" height="30"/><path d="M12.6,8.2c-0.3-0.2-0.7-0.2-1,0c-0.3,0.2-0.5,0.5-0.5,0.9v12c0,0.4,0.2,0.7,0.5,0.9c0.3,0.2,0.7,0.2,1,0l9-6c0.3-0.2,0.4-0.5,0.4-0.8s-0.2-0.6-0.4-0.8L12.6,8.2z M13.1,19.1v-8.3l6.2,4.1L13.1,19.1z"/><path d="M15,2C7.8,2,2,7.8,2,15s5.8,13,13,13c3.9,0,7.6-1.8,10-4.7V26c0,0.6,0.4,1,1,1s1-0.4,1-1v-5c0-0.6-0.4-1-1-1h-5c-0.6,0-1,0.4-1,1s0.4,1,1,1h2.4c-2.1,2.5-5.2,4-8.4,4C8.9,26,4,21.1,4,15S8.9,4,15,4s11,4.9,11,11c0,0.6,0.4,1,1,1s1-0.4,1-1C28,7.8,22.2,2,15,2z"/></svg>