<svg xmlns="http://www.w3.org/2000/svg" viewBox="0 0 30 30">
<rect fill="none" width="30" height="30"/>
<path fill="#000000" d="M25.94,16.1C25.38,21.74,20.68,26,15,26c-3.63,0-6.97-1.79-9-4.69V24c0,0.55-0.45,1-1,1s-1-0.45-1-1v-5c0-0.55,0.45-1,1-1h5 c0.55,0,1,0.45,1,1s-0.45,1-1,1H7.54c1.65,2.46,4.43,4,7.46,4c4.65,0,8.5-3.48,8.95-8.1c0.06-0.55,0.56-0.94,1.09-0.9 C25.6,15.06,26,15.55,25.94,16.1z M25,5c-0.55,0-1,0.45-1,1v2.69C21.97,5.79,18.63,4,15,4C9.32,4,4.62,8.26,4.06,13.9 C4,14.45,4.4,14.94,4.95,15c0.54,0.05,1.04-0.35,1.09-0.9C6.5,9.48,10.35,6,15,6c3.03,0,5.81,1.54,7.46,4H20c-0.55,0-1,0.45-1,1 s0.45,1,1,1h5c0.55,0,1-0.45,1-1V6C26,5.45,25.55,5,25,5z"/>
</svg>