<svg xmlns="http://www.w3.org/2000/svg" viewBox="0 0 30 30">
<rect fill="none" width="30" height="30"/>
<path fill="#000000" d="M23,11h-4.91l0.73-2.71C18.94,7.82,19,7.41,19,7c0-2.76-2.24-5-5-5h-1c-0.55,0-1,0.45-1,1v6.72l-1.89,3.15 C9.57,12.33,8.82,12,8,12H3c-0.55,0-1,0.45-1,1v12c0,0.55,0.45,1,1,1h5c1.65,0,3-1.35,3-3v-0.23l3.49,2.09 C14.64,24.95,14.82,25,15,25h4c3.86,0,7-3.14,7-7v-4C26,12.35,24.65,11,23,11z M9,23c0,0.55-0.45,1-1,1H4V14h4c0.55,0,1,0.45,1,1V23 z M24,18c0,2.76-2.24,5-5,5h-3.72L11,20.43v-5.16l2.86-4.76C13.95,10.36,14,10.18,14,10V4c1.65,0,3,1.35,3,3 c0,0.23-0.04,0.47-0.12,0.77l-1.06,3.97c-0.08,0.3-0.02,0.62,0.17,0.87c0.19,0.25,0.48,0.39,0.79,0.39H23c0.55,0,1,0.45,1,1V18z"/>
</svg>