<svg xmlns="http://www.w3.org/2000/svg" viewBox="0 0 30 30">
<rect fill="none" width="30" height="30"/>
<path fill="#000000" d="M27.62,21.54l-10-18C17.09,2.59,16.09,2,15,2s-2.09,0.59-2.62,1.54l-10,18C2.13,21.99,2,22.49,2,23c0,1.65,1.35,3,3,3h20 c1.65,0,3-1.35,3-3C28,22.49,27.87,21.99,27.62,21.54z M25,24H5c-0.55,0-1-0.45-1-1c0-0.17,0.04-0.33,0.13-0.49l10-18 C14.3,4.2,14.64,4,15,4s0.7,0.2,0.87,0.51l10,18C25.96,22.67,26,22.83,26,23C26,23.55,25.55,24,25,24z M16.5,20.5 c0,0.83-0.67,1.5-1.5,1.5s-1.5-0.67-1.5-1.5S14.17,19,15,19S16.5,19.67,16.5,20.5z M13.5,10h3v3L16,18h-2l-0.5-5V10z"/>
</svg>