<svg xmlns="http://www.w3.org/2000/svg" viewBox="0 0 30 30">
<rect fill="none" width="30" height="30"/>
<path fill="#000000" d="M25,6h-5V4c0-1.1-0.9-2-2-2h-6c-1.1,0-2,0.9-2,2v2H5C3.35,6,2,7.35,2,9v14c0,0.55,0.45,1,1,1h24c0.55,0,1-0.45,1-1V9 C28,7.35,26.65,6,25,6z M12,4h6v2h-6V4z M26,22H4V9c0-0.55,0.45-1,1-1h20c0.55,0,1,0.45,1,1V22z M20,15c0,0.55-0.45,1-1,1h-3v3 c0,0.55-0.45,1-1,1s-1-0.45-1-1v-3h-3c-0.55,0-1-0.45-1-1s0.45-1,1-1h3v-3c0-0.55,0.45-1,1-1s1,0.45,1,1v3h3 C19.55,14,20,14.45,20,15z"/>
</svg>