<svg xmlns="http://www.w3.org/2000/svg" viewBox="0 0 30 30">
<rect fill="none" width="30" height="30"/>
<path fill="#000000" d="M15,13c0,0.55-0.45,1-1,1h-2v2c0,0.55-0.45,1-1,1s-1-0.45-1-1v-2H8c-0.55,0-1-0.45-1-1s0.45-1,1-1h2v-2c0-0.55,0.45-1,1-1 s1,0.45,1,1v2h2C14.55,12,15,12.45,15,13z M28,15v8c0,0.55-0.45,1-1,1h-2.35c-0.56,1.18-1.76,2-3.15,2s-2.58-0.82-3.15-2h-6.7 c-0.56,1.18-1.76,2-3.15,2s-2.58-0.82-3.15-2H3c-0.55,0-1-0.45-1-1V9c0-1.65,1.35-3,3-3h10.5V5.5C15.5,4.67,16.17,4,17,4 s1.5,0.67,1.5,1.5V6h3.27c1.14,0,2.16,0.64,2.67,1.66l3.45,6.89C27.96,14.69,28,14.84,28,15z M10,22.5c0-0.83-0.67-1.5-1.5-1.5 S7,21.67,7,22.5S7.67,24,8.5,24S10,23.33,10,22.5z M23,22.5c0-0.83-0.67-1.5-1.5-1.5S20,21.67,20,22.5s0.67,1.5,1.5,1.5 S23,23.33,23,22.5z M26,16h-7c-0.55,0-1-0.45-1-1v-4c0-0.55,0.45-1,1-1h4.38l-0.72-1.44C22.49,8.21,22.15,8,21.77,8H5 C4.45,8,4,8.45,4,9v13h1.05c0.25-1.69,1.69-3,3.45-3s3.2,1.31,3.45,3h6.1c0.25-1.69,1.69-3,3.45-3s3.2,1.31,3.45,3H26V16z"/>
</svg>