<svg xmlns="http://www.w3.org/2000/svg" viewBox="0 0 30 30">
<rect fill="none" width="30" height="30"/>
<path fill="#000000" d="M27.89,8.55l-2-4C25.72,4.21,25.38,4,25,4H5C4.62,4,4.28,4.21,4.11,4.55l-2,4C2.04,8.69,2,8.84,2,9v16c0,0.55,0.45,1,1,1h24 c0.55,0,1-0.45,1-1V9C28,8.84,27.96,8.69,27.89,8.55z M5.62,6h18.76l1,2H4.62L5.62,6z M4,24V10h22v14H4z M21.71,16.29 c0.39,0.39,0.39,1.02,0,1.41l-4,4c-0.39,0.39-1.02,0.39-1.41,0s-0.39-1.02,0-1.41L18.59,18H9c-0.55,0-1-0.45-1-1s0.45-1,1-1h9.59 l-2.29-2.29c-0.39-0.39-0.39-1.02,0-1.41s1.02-0.39,1.41,0L21.71,16.29z"/>
</svg>