<svg xmlns="http://www.w3.org/2000/svg" viewBox="0 0 30 30">
<rect fill="none" width="30" height="30"/>
<path fill="#000000" d="M15,14c3.31,0,6-2.69,6-6s-2.69-6-6-6S9,4.69,9,8S11.69,14,15,14z M15,4c2.21,0,4,1.79,4,4s-1.79,4-4,4s-4-1.79-4-4 S12.79,4,15,4z M23.22,16.95c-0.25-0.16-0.56-0.2-0.84-0.11c-0.28,0.09-0.51,0.3-0.62,0.58L18.32,26h-6.65l-3.43-8.58 c-0.11-0.28-0.34-0.49-0.62-0.58c-0.28-0.09-0.59-0.05-0.84,0.11C5.04,18.06,4,19.95,4,22v5c0,0.55,0.45,1,1,1h20c0.55,0,1-0.45,1-1 v-5C26,19.95,24.96,18.06,23.22,16.95z M6,26v-4c0-0.94,0.33-1.83,0.91-2.53L9.52,26H6z M24,26h-3.52l2.61-6.53 C23.67,20.17,24,21.06,24,22V26z M11,20c0,0.4,0.24,0.77,0.62,0.92c0.37,0.15,0.8,0.07,1.09-0.22L15,18.41l2.29,2.29 c0.29,0.29,0.72,0.37,1.09,0.22C18.76,20.77,19,20.4,19,20v-4c0-0.4-0.24-0.77-0.62-0.92c-0.37-0.15-0.8-0.07-1.09,0.22L15,17.59 l-2.29-2.29c-0.29-0.29-0.72-0.37-1.09-0.22C11.24,15.23,11,15.6,11,16V20z"/>
</svg>