<svg xmlns="http://www.w3.org/2000/svg" viewBox="0 0 30 30">
<rect fill="none" width="30" height="30"/>
<path fill="#000000" d="M19,22h-8c-2.96,0-5.61,1.88-6.59,4.67c-0.11,0.31-0.06,0.65,0.13,0.91C4.72,27.84,5.02,28,5.35,28h19.3 c0.32,0,0.63-0.16,0.82-0.42c0.19-0.26,0.23-0.6,0.13-0.91C24.61,23.88,21.96,22,19,22z M7.01,26c0.93-1.23,2.4-2,3.99-2h8 c1.6,0,3.07,0.77,3.99,2H7.01z M24.27,8.29C22.76,4.51,19.09,2,15,2S7.24,4.51,5.73,8.29C4.71,8.77,4,9.8,4,11v4c0,1.65,1.35,3,3,3 h3.11c1.26,1.24,2.99,2,4.89,2s3.63-0.76,4.89-2H23c1.65,0,3-1.35,3-3v-4C26,9.8,25.29,8.77,24.27,8.29z M15,4 c2.88,0,5.49,1.57,6.9,4h-2.01C18.63,6.76,16.9,6,15,6s-3.63,0.76-4.89,2H8.1C9.51,5.57,12.12,4,15,4z M6,15v-4c0-0.55,0.45-1,1-1h1 v6H7C6.45,16,6,15.55,6,15z M15,18c-2.76,0-5-2.24-5-5s2.24-5,5-5s5,2.24,5,5c0,0.34-0.04,0.68-0.1,1H15c-0.55,0-1,0.45-1,1 s0.45,1,1,1h3.97C18.06,17.21,16.63,18,15,18z M24,15c0,0.55-0.45,1-1,1h-1v-6h1c0.55,0,1,0.45,1,1V15z"/>
</svg>