<svg xmlns="http://www.w3.org/2000/svg" viewBox="0 0 30 30">
<rect fill="none" width="30" height="30"/>
<path fill="#000000" d="M19,2c-3.92,0-7,2.2-7,5v2.81C11.12,9.3,10.09,9,9,9c-3.31,0-6,2.69-6,6s2.69,6,6,6c3.27,0,5.93-2.63,5.99-5.88 C16.12,15.68,17.5,16,19,16c3.92,0,7-2.2,7-5V7C26,4.2,22.92,2,19,2z M19,4c2.71,0,5,1.37,5,3s-2.29,3-5,3s-5-1.37-5-3S16.29,4,19,4 z M9,19c-2.21,0-4-1.79-4-4c0-2.21,1.79-4,4-4s4,1.79,4,4C13,17.21,11.21,19,9,19z M19,14c-2.71,0-5-1.37-5-3v-0.47 c1.26,0.91,3.02,1.47,5,1.47s3.74-0.56,5-1.47V11C24,12.63,21.71,14,19,14z M19,18c-2.76,0-5,2.24-5,5s2.24,5,5,5s5-2.24,5-5 S21.76,18,19,18z M19,26c-1.65,0-3-1.35-3-3s1.35-3,3-3s3,1.35,3,3S20.65,26,19,26z"/>
</svg>