<svg xmlns="http://www.w3.org/2000/svg" viewBox="0 0 30 30">
<rect fill="none" width="30" height="30"/>
<path fill="#000000" d="M15,2C7.83,2,2,7.83,2,15c0,7.17,5.83,13,13,13s13-5.83,13-13C28,7.83,22.17,2,15,2z M15,26C8.93,26,4,21.07,4,15 S8.93,4,15,4s11,4.93,11,11S21.07,26,15,26z M9.86,21.51l4.33-2.6C14.45,18.97,14.72,19,15,19c2.21,0,4-1.79,4-4 c0-0.28-0.03-0.55-0.08-0.81l2.6-4.33c0.24-0.39,0.17-0.9-0.15-1.22c-0.32-0.32-0.83-0.39-1.22-0.15l-4.33,2.6 C15.55,11.03,15.28,11,15,11c-2.21,0-4,1.79-4,4c0,0.28,0.03,0.55,0.08,0.81l-2.6,4.33c-0.24,0.39-0.17,0.9,0.15,1.22 C8.96,21.69,9.46,21.75,9.86,21.51z M15,17c-1.1,0-2-0.9-2-2c0-1.1,0.9-2,2-2s2,0.9,2,2C17,16.1,16.1,17,15,17z"/>
</svg>