<svg xmlns="http://www.w3.org/2000/svg" viewBox="0 0 30 30">
<rect fill="none" width="30" height="30"/>
<path fill="#000000" d="M27.71,6.29l-1.87-1.87c-1.62-1.62-4.28-1.92-7.49-0.85c-2.98,0.99-6.15,3.07-8.93,5.85c-2.78,2.78-4.86,5.95-5.85,8.93 c-1.07,3.21-0.77,5.87,0.85,7.49l1.87,1.87c0.39,0.39,1.02,0.39,1.41,0l6-6c0.39-0.39,0.39-1.02,0-1.41L11.41,18L18,11.41l2.29,2.29 c0.39,0.39,1.02,0.39,1.41,0l6-6C28.1,7.32,28.1,6.68,27.71,6.29z M21,11.59l-2.29-2.29c-0.39-0.39-1.02-0.39-1.41,0l-8,8 c-0.39,0.39-0.39,1.02,0,1.41L11.59,21L7,25.59l-1.16-1.16c-1.04-1.04-1.17-3.02-0.37-5.44c0.9-2.69,2.8-5.58,5.37-8.14 s5.46-4.47,8.14-5.37c2.42-0.81,4.4-0.67,5.44,0.37L25.59,7L21,11.59z"/>
</svg>