<svg xmlns="http://www.w3.org/2000/svg" viewBox="0 0 30 30">
<rect fill="none" width="30" height="30"/>
<path fill="#000000" d="M5.81,7.22c-0.39-0.39-0.39-1.02,0-1.41c5.07-5.07,13.32-5.07,18.38,0c0.39,0.39,0.39,1.02,0,1.41s-1.02,0.39-1.41,0 c-4.29-4.29-11.27-4.29-15.56,0C6.83,7.61,6.2,7.61,5.81,7.22z M21.36,10.05c0.39-0.39,0.39-1.02,0-1.41 c-3.51-3.51-9.22-3.51-12.73,0c-0.39,0.39-0.39,1.02,0,1.41s1.02,0.39,1.41,0c2.73-2.73,7.17-2.73,9.9,0 C20.34,10.44,20.97,10.44,21.36,10.05z M11.46,11.46c-0.39,0.39-0.39,1.02,0,1.41c0.39,0.39,1.02,0.39,1.41,0 c1.13-1.13,3.11-1.13,4.24,0c0.39,0.39,1.02,0.39,1.41,0c0.39-0.39,0.39-1.02,0-1.41C16.58,9.51,13.42,9.51,11.46,11.46z M28,19l0,6 c0,0.55-0.45,1-1,1H3c-0.55,0-1-0.45-1-1l0-6c0-1.65,1.35-3,3-3h20C26.65,16,28,17.35,28,19z M26,19c0-0.55-0.45-1-1-1H5 c-0.55,0-1,0.45-1,1l0,5h22L26,19z M11,20H7c-0.55,0-1,0.45-1,1s0.45,1,1,1h4c0.55,0,1-0.45,1-1S11.55,20,11,20z"/>
</svg>