<svg xmlns="http://www.w3.org/2000/svg" viewBox="0 0 30 30">
<rect fill="none" width="30" height="30"/>
<path fill="#000000" d="M12,20v-6c0-0.36,0.19-0.69,0.51-0.87s0.7-0.17,1.01,0.01l5,3C18.82,16.32,19,16.65,19,17s-0.18,0.68-0.49,0.86l-5,3 c-0.31,0.19-0.69,0.19-1.01,0.01S12,20.36,12,20z M28,7l0,18c0,0.55-0.45,1-1,1H3c-0.55,0-1-0.45-1-1L2,7c0-1.65,1.35-3,3-3h20 C26.65,4,28,5.35,28,7z M11.41,8h5.17l2-2h-5.17L11.41,8z M4,8h4.58l2-2H5C4.45,6,4,6.45,4,7L4,8z M26,10H4l0,14h22L26,10z M26,7 c0-0.55-0.45-1-1-1h-3.59l-2,2H26L26,7z"/>
</svg>