<svg xmlns="http://www.w3.org/2000/svg" viewBox="0 0 30 30">
<rect fill="none" width="30" height="30"/>
<path fill="#000000" d="M12.53,11.95h1.87v8.1h-1.87v-3.37H9.57v3.37H7.7v-8.1h1.87v3.11h2.96V11.95z M22.75,15.84c0,2.77-1.78,4.27-4.41,4.27 c-0.85,0-1.66-0.04-2.4-0.07v-8.06c0.64-0.04,1.67-0.07,2.76-0.07C21.13,11.9,22.75,12.96,22.75,15.84z M20.75,15.98 c0-1.52-0.49-2.51-2.17-2.51c-0.31,0-0.56,0-0.77,0.02v4.95c0.16,0.02,0.41,0.05,0.7,0.05C19.79,18.5,20.75,17.71,20.75,15.98z M28,9v16c0,0.55-0.45,1-1,1H3c-0.55,0-1-0.45-1-1V9c0-1.65,1.35-3,3-3h7.59l-2.3-2.29c-0.39-0.39-0.39-1.02,0-1.42 c0.39-0.39,1.02-0.39,1.41,0L15,5.58l3.29-3.29c0.39-0.39,1.02-0.39,1.42,0c0.39,0.39,0.39,1.02,0,1.42L17.41,6H25 C26.65,6,28,7.35,28,9z M26,9c0-0.55-0.45-1-1-1H5C4.45,8,4,8.45,4,9v15h22V9z"/>
</svg>