<svg xmlns="http://www.w3.org/2000/svg" viewBox="0 0 30 30">
<rect fill="none" width="30" height="30"/>
<path fill="#000000" d="M22,10h-2.07C19.44,6.61,16.52,4,13,4c-3.63,0-6.63,2.78-6.97,6.33C3.65,11.16,2,13.43,2,16c0,3.11,2.37,5.67,5.4,5.97 l-1.29,2.58c-0.25,0.49-0.05,1.09,0.45,1.34c0.49,0.25,1.09,0.05,1.34-0.45L9.62,22h3.76l-1.28,2.55c-0.25,0.49-0.05,1.09,0.45,1.34 c0.5,0.25,1.09,0.05,1.34-0.45L15.62,22h3.76l-1.28,2.55c-0.25,0.49-0.05,1.09,0.45,1.34c0.49,0.25,1.09,0.05,1.34-0.45L21.62,22H22 c3.31,0,6-2.69,6-6S25.31,10,22,10z M22,20H8c-2.21,0-4-1.79-4-4c0-1.89,1.35-3.54,3.2-3.92C7.67,11.99,8,11.58,8,11.1V11 c0-2.76,2.24-5,5-5s5,2.24,5,5c0,0.55,0.45,1,1,1h3c2.21,0,4,1.79,4,4S24.21,20,22,20z"/>
</svg>