<svg xmlns="http://www.w3.org/2000/svg" viewBox="0 0 30 30">
<rect fill="none" width="30" height="30"/>
<path fill="#000000" d="M28,16c0,3.31-2.69,6-6,6h-2v-2h2c2.21,0,4-1.79,4-4s-1.79-4-4-4h-3c-0.55,0-1-0.45-1-1c0-2.76-2.24-5-5-5s-5,2.24-5,5v0.1 c0,0.48-0.33,0.89-0.8,0.98C5.35,12.46,4,14.11,4,16c0,2.21,1.79,4,4,4h2v2H8c-3.31,0-6-2.69-6-6c0-2.57,1.65-4.84,4.03-5.67 C6.37,6.78,9.37,4,13,4c3.52,0,6.44,2.61,6.93,6H22C25.31,10,28,12.69,28,16z M17,20h-2.38l1.28-2.55c0.25-0.49,0.05-1.09-0.45-1.34 c-0.49-0.25-1.09-0.05-1.34,0.45l-2,4c-0.16,0.31-0.14,0.68,0.04,0.97S12.65,22,13,22h2.38l-1.28,2.55 c-0.25,0.49-0.05,1.09,0.45,1.34c0.49,0.25,1.09,0.05,1.34-0.45l2-4c0.16-0.31,0.14-0.68-0.04-0.97S17.35,20,17,20z"/>
</svg>