<svg xmlns="http://www.w3.org/2000/svg" viewBox="0 0 30 30">
<rect fill="none" width="30" height="30"/>
<path fill="#000000" d="M27,14h-3.06c-0.19-1.73-0.88-3.32-1.92-4.61l2.17-2.17c0.39-0.39,0.39-1.02,0-1.41s-1.02-0.39-1.41,0l-2.17,2.17 C19.32,6.94,17.73,6.25,16,6.06V3c0-0.55-0.45-1-1-1s-1,0.45-1,1v3.06c-1.73,0.19-3.32,0.88-4.61,1.92L7.22,5.81 c-0.39-0.39-1.02-0.39-1.41,0s-0.39,1.02,0,1.41l2.17,2.17C6.94,10.68,6.25,12.27,6.06,14H3c-0.55,0-1,0.45-1,1s0.45,1,1,1h3.06 c0.19,1.73,0.88,3.32,1.92,4.61l-2.17,2.17c-0.39,0.39-0.39,1.02,0,1.41c0.2,0.2,0.45,0.29,0.71,0.29s0.51-0.1,0.71-0.29l2.17-2.17 c1.29,1.04,2.88,1.72,4.61,1.92V27c0,0.55,0.45,1,1,1s1-0.45,1-1v-3.06c1.73-0.19,3.32-0.88,4.61-1.92l2.17,2.17 c0.2,0.2,0.45,0.29,0.71,0.29s0.51-0.1,0.71-0.29c0.39-0.39,0.39-1.02,0-1.41l-2.17-2.17c1.04-1.29,1.72-2.88,1.92-4.61H27 c0.55,0,1-0.45,1-1S27.55,14,27,14z M15,22c-3.86,0-7-3.14-7-7s3.14-7,7-7s7,3.14,7,7S18.86,22,15,22z"/>
</svg>