<svg xmlns="http://www.w3.org/2000/svg" viewBox="0 0 30 30">
<rect fill="none" width="30" height="30"/>
<path fill="#000000" d="M20,9c0,0.55-0.45,1-1,1h-8c-0.55,0-1-0.45-1-1s0.45-1,1-1h8C19.55,8,20,8.45,20,9z M7,8C6.45,8,6,8.45,6,9 c0,0.55,0.45,1,1,1s1-0.45,1-1C8,8.45,7.55,8,7,8z M28,11v14c0,0.55-0.45,1-1,1H7c-0.55,0-1-0.45-1-1v-3H3c-0.55,0-1-0.45-1-1V7 c0-1.65,1.35-3,3-3h16c1.65,0,3,1.35,3,3v1h1C26.65,8,28,9.35,28,11z M4,20h18V7c0-0.55-0.45-1-1-1H5C4.45,6,4,6.45,4,7V20z M26,11 c0-0.55-0.45-1-1-1h-1v11c0,0.55-0.45,1-1,1H8v2h18V11z"/>
</svg>