<svg xmlns="http://www.w3.org/2000/svg" viewBox="0 0 30 30">
<rect fill="none" width="30" height="30"/>
<path d="M15 28c-5.4 0-9.8-4.2-9.8-9.4 0-3.6 1.3-6.5 2.4-8.3.3-.3.6-.5 1-.5s.7.3.8.6c.3.7.6 1.3 1 1.7l.2.2V12c0-2.8.4-6.9 4.5-9.9.4-.1.9-.2 1.2 0 .3.2.5.5.5.9-.1 3.2 1.8 5.3 3.8 7.3 2.1 2.2 4.2 4.4 4.2 8.2 0 5.3-4.4 9.5-9.8 9.5zM8.5 12.9c-.7 1.5-1.3 3.4-1.3 5.7 0 4.1 3.5 7.4 7.8 7.4s7.8-3.3 7.8-7.4c0-3-1.7-4.8-3.6-6.8C17.5 10 15.6 8 15 5.1c-2 2.2-2.3 4.7-2.3 7v2.8c0 .4-.2.8-.6.9-.4.2-.8.1-1.1-.2l-2-2c-.1-.3-.3-.5-.5-.7z"/><path fill="none" d="M0 0h30v30H0z"/></svg>