<svg xmlns="http://www.w3.org/2000/svg" viewBox="0 0 30 30">
<rect fill="none" width="30" height="30"/>
<path d="M13.8,19.2l-4-4c-0.4-0.4-0.4-1,0-1.4s1-0.4,1.4,0l3.1,3.1L18.6,9c0.3-0.5,0.9-0.7,1.4-0.4c0.5,0.3,0.7,0.9,0.4,1.4l-5,9
	c-0.2,0.3-0.5,0.5-0.9,0.5C14.2,19.5,14,19.4,13.8,19.2z"/>
<g>
	<path d="M15,4l8,2.7V17c0,4.2-6.1,8-8,8.9c-1.9-1-8-4.7-8-8.9V6.7L15,4 M15,2c-0.1,0-0.2,0-0.4,0.1l-8.9,3C5.3,5.2,5,5.6,5,6v11
		c0,6,8.6,10.5,9.6,10.9C14.7,28,14.9,28,15,28s0.3,0,0.4-0.1C16.4,27.5,25,23,25,17V6c0-0.4-0.3-0.8-0.7-0.9l-8.9-3
		C15.2,2,15.1,2,15,2L15,2z"/>
</g>
</svg>
