<svg xmlns="http://www.w3.org/2000/svg" viewBox="0 0 30 30">
<rect fill="none" width="30" height="30"/>
<path d="M24 28H6c-2.2 0-4-1.8-4-4V6c0-2.2 1.8-4 4-4h18c2.2 0 4 1.8 4 4v18c0 2.2-1.8 4-4 4zM6 4c-1.1 0-2 .9-2 2v18c0 1.1.9 2 2 2h18c1.1 0 2-.9 2-2V6c0-1.1-.9-2-2-2H6z"/><path d="M10 22c-.6 0-1-.4-1-1V9c0-.6.4-1 1-1s1 .4 1 1v12c0 .6-.4 1-1 1zm7.5-14H15c-.6 0-1 .4-1 1v12c0 .6.4 1 1 1s1-.4 1-1v-4h1.5c2.5 0 4.5-2 4.5-4.5S20 8 17.5 8zm0 7H16v-5h1.5c1.4 0 2.5 1.1 2.5 2.5S18.9 15 17.5 15z"/><path fill="none" d="M0 0h30v30H0z"/></svg>