<?xml version="1.0" encoding="utf-8"?>
<!-- Generator: Adobe Illustrator 22.1.0, SVG Export Plug-In . SVG Version: 6.00 Build 0)  -->
<svg version="1.1" id="Calque_1" xmlns="http://www.w3.org/2000/svg" xmlns:xlink="http://www.w3.org/1999/xlink" x="0px" y="0px"
	 viewBox="0 0 463.5 88.5" style="enable-background:new 0 0 463.5 88.5;" xml:space="preserve">
<style type="text/css">
	.st0{fill:url(#SVGID_1_);}
	.st1{fill:url(#SVGID_2_);}
	.st2{fill:url(#SVGID_3_);}
	.st3{fill:url(#SVGID_4_);}
	.st4{fill:url(#SVGID_5_);}
	.st5{fill:url(#SVGID_6_);}
	.st6{fill:url(#SVGID_7_);}
	.st7{fill:url(#SVGID_8_);}
	.st8{fill:url(#SVGID_9_);}
	.st9{fill:url(#SVGID_10_);}
	.st10{fill:url(#SVGID_11_);}
	.st11{fill:url(#SVGID_12_);}
	.st12{fill:url(#SVGID_13_);}
	.st13{fill:url(#SVGID_14_);}
	.st14{fill:none;stroke:#001155;stroke-width:2;stroke-miterlimit:10;}
	.st15{fill:none;stroke:url(#SVGID_15_);stroke-width:2;stroke-miterlimit:10;}
	.st16{fill:none;stroke:url(#SVGID_16_);stroke-miterlimit:10;}
	.st17{fill:none;stroke:url(#SVGID_17_);stroke-width:2;stroke-miterlimit:10;}
	.st18{fill:none;stroke:url(#SVGID_18_);stroke-miterlimit:10;}
	.st19{fill:none;stroke:url(#SVGID_19_);stroke-width:2;stroke-miterlimit:10;}
	.st20{fill:none;stroke:url(#SVGID_20_);stroke-width:2;stroke-miterlimit:10;}
	.st21{fill:#FFFFFF;stroke:url(#SVGID_21_);stroke-width:2;stroke-miterlimit:10;}
	.st22{fill:#FFFFFF;stroke:url(#SVGID_22_);stroke-width:2;stroke-miterlimit:10;}
	.st23{fill:none;stroke:url(#SVGID_23_);stroke-width:2;stroke-miterlimit:10;}
	.st24{fill:#FFFFFF;stroke:url(#SVGID_24_);stroke-width:2;stroke-miterlimit:10;}
	.st25{fill:url(#SVGID_25_);}
	.st26{fill:url(#SVGID_26_);}
	.st27{fill:url(#SVGID_27_);}
</style>
<g>
	<linearGradient id="SVGID_1_" gradientUnits="userSpaceOnUse" x1="118.0711" y1="55.6023" x2="85.7651" y2="23.2962">
		<stop  offset="0" style="stop-color:#001155"/>
		<stop  offset="1" style="stop-color:#264C82"/>
	</linearGradient>
	<path class="st0" d="M109.3,56.6L97.7,40H97v16.6h-6.2V18.2c1.4-0.1,2.9-0.1,4.6-0.2c1.6,0,3.6-0.1,5.7-0.1c2,0,3.8,0.2,5.4,0.6
		c1.7,0.4,3.1,1,4.3,1.8c1.2,0.8,2.1,1.9,2.8,3.2c0.6,1.3,1,2.9,1,4.8c0,1.6-0.3,2.9-0.8,4.2c-0.6,1.2-1.3,2.3-2.2,3.2
		c-0.9,0.9-2.1,1.7-3.3,2.2c-1.3,0.6-2.6,0.9-4.1,1.1c0.5,0.7,1.1,1.4,1.7,2.1c0.6,0.7,1.1,1.4,1.5,2l9.8,13.4H109.3z M108.1,29.1
		c0-2.1-0.6-3.7-1.9-4.6c-1.3-0.9-3.2-1.4-5.9-1.4c-0.6,0-1.2,0-1.7,0c-0.5,0-1.1,0-1.5,0.1v12.2c0.3,0,0.7,0.1,1.2,0.1
		c0.5,0,1.1,0,1.8,0c2.5,0,4.5-0.6,5.9-1.7C107.4,32.6,108.1,31,108.1,29.1z"/>
	<linearGradient id="SVGID_2_" gradientUnits="userSpaceOnUse" x1="143.9212" y1="54.3811" x2="122.1391" y2="32.5989">
		<stop  offset="0" style="stop-color:#001155"/>
		<stop  offset="1" style="stop-color:#264C82"/>
	</linearGradient>
	<path class="st1" d="M143.8,39.5c0,1.2-0.1,2.4-0.2,3.6h-18c-0.1,3.1,0.6,5.4,1.9,6.9c1.3,1.5,3.5,2.3,6.5,2.3
		c1.4,0,2.8-0.1,4.1-0.4c1.4-0.3,2.7-0.7,4-1.2l0.8,4.7c-1.6,0.6-3.3,1-4.9,1.3c-1.6,0.3-3.3,0.4-5.1,0.4c-4.4,0-7.7-1.2-10-3.5
		c-2.3-2.3-3.5-6-3.5-11c0-2.1,0.3-4.1,0.9-5.9c0.6-1.8,1.4-3.4,2.5-4.7c1.1-1.3,2.4-2.4,4.1-3.2c1.7-0.8,3.5-1.2,5.5-1.2
		c1.9,0,3.6,0.3,5.1,0.9c1.4,0.6,2.6,1.4,3.6,2.5c0.9,1.1,1.6,2.3,2.1,3.8C143.6,36.3,143.8,37.9,143.8,39.5z M136.2,34
		c-1-1.1-2.4-1.7-4.2-1.7c-1.7,0-3.1,0.6-4.3,1.7c-1.2,1.1-1.9,2.8-2.1,4.9h12.1C137.8,36.8,137.2,35.1,136.2,34z"/>
	<linearGradient id="SVGID_3_" gradientUnits="userSpaceOnUse" x1="167.0541" y1="51.9908" x2="148.5058" y2="33.4425">
		<stop  offset="0" style="stop-color:#001155"/>
		<stop  offset="1" style="stop-color:#264C82"/>
	</linearGradient>
	<path class="st2" d="M167.6,48c0,1.3-0.3,2.6-0.9,3.7c-0.6,1.1-1.4,2.1-2.4,2.9c-1,0.8-2.3,1.4-3.8,1.9c-1.5,0.5-3.2,0.7-5.1,0.7
		c-1.1,0-2.2-0.1-3.3-0.2c-1.1-0.1-2.1-0.3-3-0.6l0.5-5.2c0.9,0.3,1.8,0.6,2.9,0.8c1.1,0.2,2.2,0.3,3.3,0.3c1.6,0,2.9-0.3,3.9-1
		c1-0.7,1.5-1.6,1.5-2.7c0-0.9-0.3-1.7-0.9-2.2c-0.6-0.5-1.4-1-2.3-1.3s-1.9-0.7-3-1c-1.1-0.3-2.1-0.8-3-1.3
		c-0.9-0.6-1.7-1.3-2.3-2.3c-0.6-1-0.9-2.3-0.9-3.9c0-1.3,0.2-2.4,0.7-3.5c0.5-1.1,1.2-2,2.1-2.8c0.9-0.8,2.2-1.4,3.6-1.8
		c1.5-0.5,3.2-0.7,5.1-0.7c0.9,0,1.8,0.1,2.7,0.2c0.9,0.1,1.8,0.3,2.6,0.5l-0.3,4.8c-1.7-0.5-3.5-0.8-5.4-0.8c-1.7,0-3,0.3-3.8,0.9
		c-0.8,0.6-1.2,1.5-1.2,2.6c0,0.9,0.3,1.6,0.9,2.2c0.6,0.5,1.4,1,2.3,1.3c0.9,0.4,1.9,0.7,3,1.1c1.1,0.3,2.1,0.8,3,1.4
		c0.9,0.6,1.7,1.3,2.3,2.3C167.3,45.1,167.6,46.4,167.6,48z"/>
	<linearGradient id="SVGID_4_" gradientUnits="userSpaceOnUse" x1="196.9283" y1="54.3811" x2="175.1461" y2="32.5989">
		<stop  offset="0" style="stop-color:#001155"/>
		<stop  offset="1" style="stop-color:#264C82"/>
	</linearGradient>
	<path class="st3" d="M196.8,39.5c0,1.2-0.1,2.4-0.2,3.6h-18c-0.1,3.1,0.6,5.4,1.9,6.9c1.3,1.5,3.5,2.3,6.5,2.3
		c1.4,0,2.8-0.1,4.1-0.4c1.4-0.3,2.7-0.7,4-1.2l0.8,4.7c-1.6,0.6-3.3,1-4.9,1.3c-1.6,0.3-3.3,0.4-5.1,0.4c-4.4,0-7.7-1.2-10-3.5
		c-2.3-2.3-3.5-6-3.5-11c0-2.1,0.3-4.1,0.9-5.9c0.6-1.8,1.4-3.4,2.5-4.7c1.1-1.3,2.4-2.4,4.1-3.2c1.7-0.8,3.5-1.2,5.5-1.2
		c1.9,0,3.6,0.3,5.1,0.9c1.4,0.6,2.6,1.4,3.6,2.5c0.9,1.1,1.6,2.3,2.1,3.8C196.6,36.3,196.8,37.9,196.8,39.5z M189.2,34
		c-1-1.1-2.4-1.7-4.2-1.7c-1.7,0-3.1,0.6-4.3,1.7c-1.2,1.1-1.9,2.8-2.1,4.9h12.1C190.8,36.8,190.3,35.1,189.2,34z"/>
	<linearGradient id="SVGID_5_" gradientUnits="userSpaceOnUse" x1="225.7647" y1="55.4606" x2="201.6201" y2="31.3159">
		<stop  offset="0" style="stop-color:#001155"/>
		<stop  offset="1" style="stop-color:#264C82"/>
	</linearGradient>
	<path class="st4" d="M218.8,56.6c0-0.9,0-1.8,0.1-2.7c0-0.9,0.1-1.7,0.2-2.5l-0.1-0.1c-0.7,1.7-1.9,3.1-3.6,4.2
		c-1.7,1.1-3.6,1.7-5.8,1.7c-2.4,0-4.3-0.7-5.7-2.2c-1.4-1.5-2.2-3.3-2.2-5.7c0-3.1,1.5-5.6,4.4-7.3c3-1.7,7-2.5,12.2-2.5v-1.2
		c0-2-0.4-3.5-1.3-4.5c-0.8-0.9-2.3-1.4-4.3-1.4c-1.3,0-2.8,0.2-4.3,0.6c-1.5,0.4-2.9,0.9-4.2,1.4l-1.1-4.7c1.5-0.6,3.2-1.1,5-1.4
		c1.8-0.4,3.6-0.5,5.5-0.5c2,0,3.7,0.2,5.1,0.7c1.3,0.4,2.4,1.1,3.3,1.9c0.9,0.8,1.5,1.8,1.8,3c0.4,1.2,0.6,2.7,0.6,4.3v11.2
		c0,1.2,0,2.5,0,3.8c0,1.3,0.1,2.6,0.1,4H218.8z M218.4,43.6c-2.1,0-3.8,0.1-5.2,0.4c-1.3,0.2-2.4,0.6-3.2,1c-0.8,0.5-1.4,1-1.8,1.6
		c-0.4,0.6-0.5,1.2-0.5,1.9c0,1.1,0.4,2,1.1,2.7c0.7,0.7,1.7,1.1,2.8,1.1c1,0,1.9-0.2,2.8-0.7c0.9-0.4,1.6-1,2.2-1.8
		c0.6-0.7,1.1-1.6,1.4-2.5c0.3-0.9,0.5-1.9,0.5-3V43.6z"/>
	<linearGradient id="SVGID_6_" gradientUnits="userSpaceOnUse" x1="247.3553" y1="48.7708" x2="230.1784" y2="31.5939">
		<stop  offset="0" style="stop-color:#001155"/>
		<stop  offset="1" style="stop-color:#264C82"/>
	</linearGradient>
	<path class="st5" d="M247.9,33.8c-2.8-0.5-4.9,0.2-6.3,2.1c-1.4,1.9-2,5-2,9.2v11.5h-6.1V28.3h5.8c0,0.8,0,1.8-0.1,2.9
		c-0.1,1.1-0.2,2.3-0.4,3.4h0.1c0.3-0.9,0.7-1.9,1.3-2.7c0.5-0.9,1.2-1.6,1.9-2.3c0.8-0.6,1.6-1.1,2.7-1.5c1-0.3,2.2-0.4,3.5-0.3
		L247.9,33.8z"/>
	<linearGradient id="SVGID_7_" gradientUnits="userSpaceOnUse" x1="274.4285" y1="52.9234" x2="254.0536" y2="32.5485">
		<stop  offset="0" style="stop-color:#001155"/>
		<stop  offset="1" style="stop-color:#264C82"/>
	</linearGradient>
	<path class="st6" d="M267.8,56.7c-1.4,0.2-2.9,0.3-4.3,0.3c-1.8,0-3.5-0.2-5-0.7c-1.5-0.5-2.9-1.3-4-2.3c-1.1-1.1-2-2.5-2.6-4.2
		c-0.6-1.7-0.9-3.9-0.9-6.4c0-2.2,0.3-4.3,0.9-6.2c0.6-1.9,1.4-3.5,2.6-4.9c1.2-1.4,2.6-2.5,4.4-3.2c1.8-0.8,3.8-1.2,6.2-1.2
		c1.2,0,2.4,0.1,3.5,0.3c1.1,0.2,2.2,0.4,3.1,0.8l-1,5.2c-0.9-0.3-1.8-0.6-2.8-0.9c-1-0.2-2-0.3-3.1-0.3c-2.4,0-4.2,0.9-5.5,2.7
		c-1.3,1.8-1.9,4.2-1.9,7.1c0,1.3,0.1,2.5,0.4,3.6c0.2,1.1,0.7,2.1,1.2,2.9c0.6,0.8,1.3,1.5,2.3,1.9c0.9,0.5,2.1,0.7,3.5,0.7
		c1.1,0,2.2-0.1,3.2-0.3c1-0.2,2-0.5,2.9-0.9l0.9,5.1C270.5,56.2,269.2,56.5,267.8,56.7z"/>
	<linearGradient id="SVGID_8_" gradientUnits="userSpaceOnUse" x1="301.5798" y1="56.4275" x2="268.9619" y2="23.8096">
		<stop  offset="0" style="stop-color:#001155"/>
		<stop  offset="1" style="stop-color:#264C82"/>
	</linearGradient>
	<path class="st7" d="M295.4,56.6V38.5c0-1.8-0.3-3.2-0.9-4.2c-0.6-1-1.7-1.5-3.3-1.5c-1.1,0-2,0.3-3,0.8c-0.9,0.5-1.7,1.3-2.3,2.2
		c-0.6,0.9-1.2,2-1.5,3.2c-0.4,1.3-0.6,2.6-0.6,4v13.6h-6.1V15.1h6.1v12.9c0,0.9,0,1.8-0.1,2.9c-0.1,1.1-0.2,2-0.4,2.8l0.1,0.1
		c0.8-1.8,2.1-3.3,3.7-4.3c1.6-1.1,3.6-1.6,5.9-1.6c1.6,0,2.9,0.2,4,0.7c1.1,0.5,2,1.1,2.6,2c0.7,0.8,1.1,1.8,1.4,2.9
		c0.3,1.1,0.4,2.2,0.4,3.5v19.8H295.4z"/>
	<linearGradient id="SVGID_9_" gradientUnits="userSpaceOnUse" x1="350.95" y1="51.1356" x2="327.1757" y2="27.3613">
		<stop  offset="0" style="stop-color:#001155"/>
		<stop  offset="1" style="stop-color:#264C82"/>
	</linearGradient>
	<path class="st8" d="M339.7,56.6c0-0.8,0-1.6,0.1-2.6c0.1-1,0.2-1.9,0.3-2.7H340c-0.8,1.7-1.9,3.2-3.5,4.2s-3.5,1.6-5.7,1.6
		c-3.5,0-6.1-1.2-7.8-3.6c-1.7-2.4-2.6-5.6-2.6-9.7c0-2.4,0.3-4.6,1-6.6c0.7-2,1.7-3.6,2.9-5c1.3-1.4,2.8-2.5,4.7-3.2
		c1.8-0.8,3.9-1.1,6.2-1.1c0.7,0,1.4,0,2.1,0.1c0.7,0,1.4,0.1,2.2,0.2v-13h6v41.5H339.7z M339.5,33.2c-1.6-0.3-3.1-0.5-4.5-0.5
		c-2.4,0-4.4,0.8-5.9,2.4c-1.5,1.6-2.2,4.3-2.2,8.1c0,2.8,0.5,5,1.4,6.6c0.9,1.5,2.3,2.3,4.3,2.3c1.1,0,2.1-0.3,3-0.9
		c0.9-0.6,1.6-1.4,2.2-2.4c0.6-1,1.1-2.1,1.4-3.3c0.3-1.2,0.5-2.4,0.5-3.6V33.2z"/>
	<linearGradient id="SVGID_10_" gradientUnits="userSpaceOnUse" x1="376.6551" y1="54.3803" x2="354.8734" y2="32.5987">
		<stop  offset="0" style="stop-color:#001155"/>
		<stop  offset="1" style="stop-color:#264C82"/>
	</linearGradient>
	<path class="st9" d="M376.5,39.5c0,1.2-0.1,2.4-0.2,3.6h-18c-0.1,3.1,0.6,5.4,1.9,6.9c1.3,1.5,3.5,2.3,6.5,2.3
		c1.4,0,2.8-0.1,4.1-0.4c1.4-0.3,2.7-0.7,4-1.2l0.8,4.7c-1.6,0.6-3.3,1-4.9,1.3c-1.6,0.3-3.3,0.4-5.1,0.4c-4.4,0-7.7-1.2-10-3.5
		c-2.3-2.3-3.5-6-3.5-11c0-2.1,0.3-4.1,0.9-5.9c0.6-1.8,1.4-3.4,2.5-4.7c1.1-1.3,2.4-2.4,4.1-3.2c1.6-0.8,3.5-1.2,5.5-1.2
		c1.9,0,3.6,0.3,5.1,0.9c1.4,0.6,2.6,1.4,3.6,2.5c0.9,1.1,1.7,2.3,2.1,3.8C376.3,36.3,376.5,37.9,376.5,39.5z M368.9,34
		c-1-1.1-2.4-1.7-4.2-1.7c-1.7,0-3.1,0.6-4.3,1.7c-1.2,1.1-1.9,2.8-2.1,4.9h12.1C370.5,36.8,370,35.1,368.9,34z"/>
	<linearGradient id="SVGID_11_" gradientUnits="userSpaceOnUse" x1="420.1093" y1="60.6931" x2="385.5849" y2="26.1688">
		<stop  offset="0" style="stop-color:#001155"/>
		<stop  offset="1" style="stop-color:#264C82"/>
	</linearGradient>
	<path class="st10" d="M418.2,56.6v-18c0-1.7-0.3-3.1-0.8-4.2c-0.6-1-1.6-1.6-3.3-1.6c-0.9,0-1.8,0.2-2.7,0.7
		c-0.9,0.5-1.6,1.2-2.3,2.1c-0.7,0.9-1.2,2-1.7,3.2c-0.4,1.3-0.6,2.7-0.6,4.2v13.5h-6v-18c0-0.8-0.1-1.5-0.2-2.2
		c-0.1-0.7-0.3-1.3-0.6-1.8c-0.3-0.5-0.7-0.9-1.2-1.2c-0.6-0.3-1.2-0.5-2.1-0.5c-1,0-1.9,0.3-2.8,0.8s-1.6,1.2-2.3,2.1
		c-0.6,0.9-1.2,2-1.6,3.3c-0.4,1.3-0.6,2.6-0.6,4.1v13.5h-6.1V28.3h5.8c0,0.8,0,1.7-0.1,2.7c-0.1,1-0.2,2-0.3,2.9l0.1,0.1
		c0.8-1.9,2.1-3.4,3.8-4.5c1.7-1.1,3.6-1.7,5.8-1.7c1.4,0,2.6,0.2,3.5,0.6c0.9,0.4,1.7,0.9,2.3,1.5s1.1,1.3,1.4,2
		c0.3,0.7,0.5,1.4,0.6,2c0.3-0.7,0.7-1.4,1.3-2.1c0.5-0.7,1.2-1.4,2-2c0.8-0.6,1.7-1.1,2.7-1.5c1-0.4,2.2-0.6,3.5-0.6
		c2.7,0,4.8,0.7,6.3,2.2c1.4,1.5,2.2,3.9,2.2,7.1v19.5H418.2z"/>
	<linearGradient id="SVGID_12_" gradientUnits="userSpaceOnUse" x1="454.2158" y1="52.4586" x2="434.2165" y2="32.4593">
		<stop  offset="0" style="stop-color:#001155"/>
		<stop  offset="1" style="stop-color:#264C82"/>
	</linearGradient>
	<path class="st11" d="M457.8,41.9c0,2.2-0.3,4.2-1,6c-0.7,1.9-1.6,3.5-2.9,4.8c-1.2,1.4-2.7,2.4-4.4,3.2c-1.7,0.8-3.6,1.2-5.7,1.2
		c-2,0-3.8-0.3-5.3-0.9c-1.6-0.6-3-1.4-4.1-2.6c-1.1-1.2-2-2.6-2.6-4.4c-0.6-1.8-0.9-4-0.9-6.5c0-2.1,0.3-4.1,1-5.9
		c0.7-1.8,1.6-3.4,2.8-4.8c1.2-1.3,2.7-2.4,4.4-3.2c1.7-0.8,3.7-1.2,5.8-1.2c1.9,0,3.6,0.3,5.2,0.8c1.6,0.5,2.9,1.4,4.1,2.5
		c1.1,1.1,2,2.6,2.7,4.4S457.8,39.4,457.8,41.9z M451.6,42.4c0-3-0.6-5.4-1.8-7c-1.2-1.6-3-2.4-5.4-2.4c-0.9,0-1.8,0.2-2.7,0.5
		c-0.9,0.4-1.7,0.9-2.3,1.7c-0.7,0.8-1.2,1.7-1.6,2.9c-0.4,1.2-0.6,2.6-0.6,4.2c0,3.2,0.6,5.7,1.8,7.3c1.2,1.6,3,2.4,5.4,2.4
		c1,0,1.9-0.2,2.8-0.6c0.9-0.4,1.7-1,2.3-1.8c0.7-0.8,1.2-1.8,1.6-3C451.4,45.4,451.6,44,451.6,42.4z"/>
</g>
<g>
	<linearGradient id="SVGID_13_" gradientUnits="userSpaceOnUse" x1="48.1018" y1="58.4738" x2="18.4295" y2="28.8014">
		<stop  offset="0" style="stop-color:#001155"/>
		<stop  offset="1" style="stop-color:#264C82"/>
	</linearGradient>
	<path class="st12" d="M43.8,56l-2.9-8.5H25.2l-3,8.5H16l13.6-38.4h7.1L50.6,56H43.8z M34.6,29.5c-0.3-0.9-0.6-1.8-0.9-2.7
		c-0.3-0.9-0.5-1.7-0.7-2.5h-0.1c-0.4,1.6-0.9,3.3-1.5,5.2l-4.6,13.1h12.5L34.6,29.5z"/>
	<linearGradient id="SVGID_14_" gradientUnits="userSpaceOnUse" x1="69.5781" y1="47.9177" x2="47.2826" y2="25.6221">
		<stop  offset="0" style="stop-color:#001155"/>
		<stop  offset="1" style="stop-color:#264C82"/>
	</linearGradient>
	<path class="st13" d="M55.3,56V17.6h6.2V56H55.3z"/>
</g>
<line class="st14" x1="48.4" y1="71.2" x2="49.4" y2="76.7"/>
<linearGradient id="SVGID_15_" gradientUnits="userSpaceOnUse" x1="10.9821" y1="13.391" x2="16.2092" y2="13.391" gradientTransform="matrix(1.0283 2.350231e-02 2.966329e-02 1.0249 -0.6741 -0.5628)">
	<stop  offset="0" style="stop-color:#001155"/>
	<stop  offset="1" style="stop-color:#264C82"/>
</linearGradient>
<line class="st15" x1="11.7" y1="11.6" x2="15.7" y2="15.4"/>
<linearGradient id="SVGID_16_" gradientUnits="userSpaceOnUse" x1="18.5114" y1="11.1912" x2="18.5114" y2="11.1912">
	<stop  offset="0" style="stop-color:#001155"/>
	<stop  offset="1" style="stop-color:#264C82"/>
</linearGradient>
<path class="st16" d="M18.5,11.2"/>
<linearGradient id="SVGID_17_" gradientUnits="userSpaceOnUse" x1="47.5867" y1="70.648" x2="2.5735" y2="25.6348">
	<stop  offset="0" style="stop-color:#001155"/>
	<stop  offset="1" style="stop-color:#264C82"/>
</linearGradient>
<path class="st17" d="M44.4,72.8c-1,0.1-2,0.1-2.9,0.1C22,72.9,6.3,57.2,6.3,37.8c0-9.1,3.5-17.4,9.1-23.6"/>
<linearGradient id="SVGID_18_" gradientUnits="userSpaceOnUse" x1="44.3642" y1="72.7912" x2="44.3642" y2="72.7912">
	<stop  offset="0" style="stop-color:#001155"/>
	<stop  offset="1" style="stop-color:#264C82"/>
</linearGradient>
<path class="st18" d="M44.4,72.8"/>
<linearGradient id="SVGID_19_" gradientUnits="userSpaceOnUse" x1="72.0501" y1="58.241" x2="52.8154" y2="39.0063">
	<stop  offset="0" style="stop-color:#001155"/>
	<stop  offset="1" style="stop-color:#264C82"/>
</linearGradient>
<path class="st19" d="M71.9,20.3c3,5.1,4.7,11.1,4.7,17.5c0,17.2-12.4,31.5-28.7,34.5"/>
<linearGradient id="SVGID_20_" gradientUnits="userSpaceOnUse" x1="59.2251" y1="28.2728" x2="29.6223" y2="-1.33">
	<stop  offset="0" style="stop-color:#001155"/>
	<stop  offset="1" style="stop-color:#264C82"/>
</linearGradient>
<path class="st20" d="M18.5,11.2c6.1-5.3,14.2-8.5,22.9-8.5c11.8,0,22.2,5.8,28.5,14.6"/>
<linearGradient id="SVGID_21_" gradientUnits="userSpaceOnUse" x1="12.259" y1="12.3855" x2="3.7737" y2="3.9003">
	<stop  offset="0" style="stop-color:#001155"/>
	<stop  offset="1" style="stop-color:#264C82"/>
</linearGradient>
<circle class="st21" cx="8" cy="8.1" r="5"/>
<linearGradient id="SVGID_22_" gradientUnits="userSpaceOnUse" x1="40.772" y1="108.9397" x2="32.2882" y2="100.4558" gradientTransform="matrix(-0.2103 -0.9776 0.9776 -0.2103 -44.3133 139.2781)">
	<stop  offset="0" style="stop-color:#001155"/>
	<stop  offset="1" style="stop-color:#264C82"/>
</linearGradient>
<circle class="st22" cx="50.4" cy="81.5" r="5"/>
<linearGradient id="SVGID_23_" gradientUnits="userSpaceOnUse" x1="56.3763" y1="23.8956" x2="61.6034" y2="23.8956" gradientTransform="matrix(0.248 -1.0274 1.0406 0.144 31.7898 73.0165)">
	<stop  offset="0" style="stop-color:#001155"/>
	<stop  offset="1" style="stop-color:#264C82"/>
</linearGradient>
<line class="st23" x1="68.9" y1="17.6" x2="73.6" y2="14.1"/>
<linearGradient id="SVGID_24_" gradientUnits="userSpaceOnUse" x1="78.3859" y1="20.1677" x2="69.9022" y2="11.684" gradientTransform="matrix(0.8941 -0.4478 0.4478 0.8941 4.2317 30.0982)">
	<stop  offset="0" style="stop-color:#001155"/>
	<stop  offset="1" style="stop-color:#264C82"/>
</linearGradient>
<circle class="st24" cx="77.7" cy="11.1" r="5"/>
<linearGradient id="SVGID_25_" gradientUnits="userSpaceOnUse" x1="8.8118" y1="8.9384" x2="7.2208" y2="7.3474">
	<stop  offset="0" style="stop-color:#001155"/>
	<stop  offset="1" style="stop-color:#264C82"/>
</linearGradient>
<circle class="st25" cx="8" cy="8.1" r="1.1"/>
<linearGradient id="SVGID_26_" gradientUnits="userSpaceOnUse" x1="51.1568" y1="82.3432" x2="49.5658" y2="80.7523">
	<stop  offset="0" style="stop-color:#001155"/>
	<stop  offset="1" style="stop-color:#264C82"/>
</linearGradient>
<circle class="st26" cx="50.4" cy="81.5" r="1.1"/>
<linearGradient id="SVGID_27_" gradientUnits="userSpaceOnUse" x1="78.4537" y1="11.9325" x2="76.8627" y2="10.3415">
	<stop  offset="0" style="stop-color:#001155"/>
	<stop  offset="1" style="stop-color:#264C82"/>
</linearGradient>
<circle class="st27" cx="77.7" cy="11.1" r="1.1"/>
</svg>
