<?xml version="1.0" encoding="utf-8"?>
<!-- Generator: Adobe Illustrator 22.1.0, SVG Export Plug-In . SVG Version: 6.00 Build 0)  -->
<svg version="1.1" id="Calque_1" xmlns="http://www.w3.org/2000/svg" xmlns:xlink="http://www.w3.org/1999/xlink" x="0px" y="0px"
	 viewBox="0 0 463.5 56.5" style="enable-background:new 0 0 463.5 56.5;" xml:space="preserve">
<style type="text/css">
	.st0{fill:url(#SVGID_1_);}
	.st1{fill:url(#SVGID_2_);}
	.st2{fill:url(#SVGID_3_);}
	.st3{fill:url(#SVGID_4_);}
	.st4{fill:url(#SVGID_5_);}
	.st5{fill:url(#SVGID_6_);}
	.st6{fill:url(#SVGID_7_);}
	.st7{fill:url(#SVGID_8_);}
	.st8{fill:url(#SVGID_9_);}
	.st9{fill:url(#SVGID_10_);}
	.st10{fill:url(#SVGID_11_);}
	.st11{fill:url(#SVGID_12_);}
	.st12{fill:url(#SVGID_13_);}
	.st13{fill:url(#SVGID_14_);}
</style>
<g>
	<g>
		
			<linearGradient id="SVGID_1_" gradientUnits="userSpaceOnUse" x1="107.9166" y1="10.277" x2="75.6106" y2="42.5831" gradientTransform="matrix(1 0 0 -1 0 58)">
			<stop  offset="0" style="stop-color:#001155"/>
			<stop  offset="1" style="stop-color:#265895"/>
		</linearGradient>
		<path class="st0" d="M99.1,48.7L87.5,32.1h-0.7v16.6h-6.2V10.3c1.4-0.1,2.9-0.1,4.6-0.2c1.6,0,3.6-0.1,5.7-0.1
			c2,0,3.8,0.2,5.4,0.6c1.7,0.4,3.1,1,4.3,1.8c1.2,0.8,2.1,1.9,2.8,3.2c0.6,1.3,1,2.9,1,4.8c0,1.6-0.3,2.9-0.8,4.2
			c-0.6,1.2-1.3,2.3-2.2,3.2c-0.9,0.9-2.1,1.7-3.3,2.2c-1.3,0.6-2.6,0.9-4.1,1.1c0.5,0.7,1.1,1.4,1.7,2.1c0.6,0.7,1.1,1.4,1.5,2
			l9.8,13.4L99.1,48.7L99.1,48.7z M97.9,21.2c0-2.1-0.6-3.7-1.9-4.6c-1.3-0.9-3.2-1.4-5.9-1.4c-0.6,0-1.2,0-1.7,0s-1.1,0-1.5,0.1
			v12.2c0.3,0,0.7,0.1,1.2,0.1s1.1,0,1.8,0c2.5,0,4.5-0.6,5.9-1.7C97.2,24.7,97.9,23.1,97.9,21.2z"/>
		
			<linearGradient id="SVGID_2_" gradientUnits="userSpaceOnUse" x1="133.8434" y1="11.6038" x2="112.058" y2="33.3892" gradientTransform="matrix(1 0 0 -1 0 58)">
			<stop  offset="0" style="stop-color:#001155"/>
			<stop  offset="1" style="stop-color:#265895"/>
		</linearGradient>
		<path class="st1" d="M133.6,31.6c0,1.2-0.1,2.4-0.2,3.6h-18c-0.1,3.1,0.6,5.4,1.9,6.9c1.3,1.5,3.5,2.3,6.5,2.3
			c1.4,0,2.8-0.1,4.1-0.4c1.4-0.3,2.7-0.7,4-1.2l0.8,4.7c-1.6,0.6-3.3,1-4.9,1.3c-1.6,0.3-3.3,0.4-5.1,0.4c-4.4,0-7.7-1.2-10-3.5
			s-3.5-6-3.5-11c0-2.1,0.3-4.1,0.9-5.9c0.6-1.8,1.4-3.4,2.5-4.7s2.4-2.4,4.1-3.2s3.5-1.2,5.5-1.2c1.9,0,3.6,0.3,5.1,0.9
			c1.4,0.6,2.6,1.4,3.6,2.5c0.9,1.1,1.6,2.3,2.1,3.8C133.4,28.4,133.6,30,133.6,31.6z M126,26.1c-1-1.1-2.4-1.7-4.2-1.7
			c-1.7,0-3.1,0.6-4.3,1.7c-1.2,1.1-1.9,2.8-2.1,4.9h12.1C127.6,28.9,127,27.2,126,26.1z"/>
		
			<linearGradient id="SVGID_3_" gradientUnits="userSpaceOnUse" x1="156.812" y1="13.8276" x2="138.2614" y2="32.3782" gradientTransform="matrix(1 0 0 -1 0 58)">
			<stop  offset="0" style="stop-color:#001155"/>
			<stop  offset="1" style="stop-color:#265895"/>
		</linearGradient>
		<path class="st2" d="M157.4,40.1c0,1.3-0.3,2.6-0.9,3.7c-0.6,1.1-1.4,2.1-2.4,2.9c-1,0.8-2.3,1.4-3.8,1.9s-3.2,0.7-5.1,0.7
			c-1.1,0-2.2-0.1-3.3-0.2c-1.1-0.1-2.1-0.3-3-0.6l0.5-5.2c0.9,0.3,1.8,0.6,2.9,0.8c1.1,0.2,2.2,0.3,3.3,0.3c1.6,0,2.9-0.3,3.9-1
			s1.5-1.6,1.5-2.7c0-0.9-0.3-1.7-0.9-2.2c-0.6-0.5-1.4-1-2.3-1.3s-1.9-0.7-3-1s-2.1-0.8-3-1.3c-0.9-0.6-1.7-1.3-2.3-2.3
			s-0.9-2.3-0.9-3.9c0-1.3,0.2-2.4,0.7-3.5s1.2-2,2.1-2.8c0.9-0.8,2.2-1.4,3.6-1.8c1.5-0.5,3.2-0.7,5.1-0.7c0.9,0,1.8,0.1,2.7,0.2
			c0.9,0.1,1.8,0.3,2.6,0.5l-0.3,4.8c-1.7-0.5-3.5-0.8-5.4-0.8c-1.7,0-3,0.3-3.8,0.9c-0.8,0.6-1.2,1.5-1.2,2.6
			c0,0.9,0.3,1.6,0.9,2.2c0.6,0.5,1.4,1,2.3,1.3c0.9,0.4,1.9,0.7,3,1.1c1.1,0.3,2.1,0.8,3,1.4c0.9,0.6,1.7,1.3,2.3,2.3
			C157.1,37.2,157.4,38.5,157.4,40.1z"/>
		
			<linearGradient id="SVGID_4_" gradientUnits="userSpaceOnUse" x1="186.8434" y1="11.6038" x2="165.0579" y2="33.3892" gradientTransform="matrix(1 0 0 -1 0 58)">
			<stop  offset="0" style="stop-color:#001155"/>
			<stop  offset="1" style="stop-color:#265895"/>
		</linearGradient>
		<path class="st3" d="M186.6,31.6c0,1.2-0.1,2.4-0.2,3.6h-18c-0.1,3.1,0.6,5.4,1.9,6.9c1.3,1.5,3.5,2.3,6.5,2.3
			c1.4,0,2.8-0.1,4.1-0.4c1.4-0.3,2.7-0.7,4-1.2l0.8,4.7c-1.6,0.6-3.3,1-4.9,1.3c-1.6,0.3-3.3,0.4-5.1,0.4c-4.4,0-7.7-1.2-10-3.5
			s-3.5-6-3.5-11c0-2.1,0.3-4.1,0.9-5.9c0.6-1.8,1.4-3.4,2.5-4.7s2.4-2.4,4.1-3.2c1.7-0.8,3.5-1.2,5.5-1.2c1.9,0,3.6,0.3,5.1,0.9
			c1.4,0.6,2.6,1.4,3.6,2.5c0.9,1.1,1.6,2.3,2.1,3.8C186.4,28.4,186.6,30,186.6,31.6z M179,26.1c-1-1.1-2.4-1.7-4.2-1.7
			c-1.7,0-3.1,0.6-4.3,1.7c-1.2,1.1-1.9,2.8-2.1,4.9h12.1C180.6,28.9,180.1,27.2,179,26.1z"/>
		
			<linearGradient id="SVGID_5_" gradientUnits="userSpaceOnUse" x1="215.5669" y1="10.4273" x2="191.4223" y2="34.572" gradientTransform="matrix(1 0 0 -1 0 58)">
			<stop  offset="0" style="stop-color:#001155"/>
			<stop  offset="1" style="stop-color:#265895"/>
		</linearGradient>
		<path class="st4" d="M208.6,48.7c0-0.9,0-1.8,0.1-2.7c0-0.9,0.1-1.7,0.2-2.5l-0.1-0.1c-0.7,1.7-1.9,3.1-3.6,4.2
			c-1.7,1.1-3.6,1.7-5.8,1.7c-2.4,0-4.3-0.7-5.7-2.2s-2.2-3.3-2.2-5.7c0-3.1,1.5-5.6,4.4-7.3c3-1.7,7-2.5,12.2-2.5v-1.2
			c0-2-0.4-3.5-1.3-4.5c-0.8-0.9-2.3-1.4-4.3-1.4c-1.3,0-2.8,0.2-4.3,0.6c-1.5,0.4-2.9,0.9-4.2,1.4l-1.1-4.7c1.5-0.6,3.2-1.1,5-1.4
			c1.8-0.4,3.6-0.5,5.5-0.5c2,0,3.7,0.2,5.1,0.7c1.3,0.4,2.4,1.1,3.3,1.9c0.9,0.8,1.5,1.8,1.8,3c0.4,1.2,0.6,2.7,0.6,4.3V41
			c0,1.2,0,2.5,0,3.8s0.1,2.6,0.1,4L208.6,48.7L208.6,48.7z M208.2,35.7c-2.1,0-3.8,0.1-5.2,0.4c-1.3,0.2-2.4,0.6-3.2,1
			c-0.8,0.5-1.4,1-1.8,1.6c-0.4,0.6-0.5,1.2-0.5,1.9c0,1.1,0.4,2,1.1,2.7c0.7,0.7,1.7,1.1,2.8,1.1c1,0,1.9-0.2,2.8-0.7
			c0.9-0.4,1.6-1,2.2-1.8c0.6-0.7,1.1-1.6,1.4-2.5c0.3-0.9,0.5-1.9,0.5-3v-0.7H208.2z"/>
		
			<linearGradient id="SVGID_6_" gradientUnits="userSpaceOnUse" x1="237.2526" y1="17.1869" x2="220.0757" y2="34.3638" gradientTransform="matrix(1 0 0 -1 0 58)">
			<stop  offset="0" style="stop-color:#001155"/>
			<stop  offset="1" style="stop-color:#265895"/>
		</linearGradient>
		<path class="st5" d="M237.7,25.9c-2.8-0.5-4.9,0.2-6.3,2.1c-1.4,1.9-2,5-2,9.2v11.5h-6.1V20.4h5.8c0,0.8,0,1.8-0.1,2.9
			c-0.1,1.1-0.2,2.3-0.4,3.4h0.1c0.3-0.9,0.7-1.9,1.3-2.7c0.5-0.9,1.2-1.6,1.9-2.3c0.8-0.6,1.6-1.1,2.7-1.5c1-0.3,2.2-0.4,3.5-0.3
			L237.7,25.9z"/>
		
			<linearGradient id="SVGID_7_" gradientUnits="userSpaceOnUse" x1="264.3156" y1="13.0241" x2="243.9406" y2="33.399" gradientTransform="matrix(1 0 0 -1 0 58)">
			<stop  offset="0" style="stop-color:#001155"/>
			<stop  offset="1" style="stop-color:#265895"/>
		</linearGradient>
		<path class="st6" d="M257.6,48.8c-1.4,0.2-2.9,0.3-4.3,0.3c-1.8,0-3.5-0.2-5-0.7s-2.9-1.3-4-2.3c-1.1-1.1-2-2.5-2.6-4.2
			s-0.9-3.9-0.9-6.4c0-2.2,0.3-4.3,0.9-6.2c0.6-1.9,1.4-3.5,2.6-4.9c1.2-1.4,2.6-2.5,4.4-3.2c1.8-0.8,3.8-1.2,6.2-1.2
			c1.2,0,2.4,0.1,3.5,0.3s2.2,0.4,3.1,0.8l-1,5.2c-0.9-0.3-1.8-0.6-2.8-0.9c-1-0.2-2-0.3-3.1-0.3c-2.4,0-4.2,0.9-5.5,2.7
			s-1.9,4.2-1.9,7.1c0,1.3,0.1,2.5,0.4,3.6c0.2,1.1,0.7,2.1,1.2,2.9c0.6,0.8,1.3,1.5,2.3,1.9c0.9,0.5,2.1,0.7,3.5,0.7
			c1.1,0,2.2-0.1,3.2-0.3s2-0.5,2.9-0.9l0.9,5.1C260.3,48.3,259,48.6,257.6,48.8z"/>
		
			<linearGradient id="SVGID_8_" gradientUnits="userSpaceOnUse" x1="291.3977" y1="9.4508" x2="258.7798" y2="42.0687" gradientTransform="matrix(1 0 0 -1 0 58)">
			<stop  offset="0" style="stop-color:#001155"/>
			<stop  offset="1" style="stop-color:#265895"/>
		</linearGradient>
		<path class="st7" d="M285.2,48.7V30.6c0-1.8-0.3-3.2-0.9-4.2s-1.7-1.5-3.3-1.5c-1.1,0-2,0.3-3,0.8c-0.9,0.5-1.7,1.3-2.3,2.2
			c-0.6,0.9-1.2,2-1.5,3.2c-0.4,1.3-0.6,2.6-0.6,4v13.6h-6.1V7.2h6.1v12.9c0,0.9,0,1.8-0.1,2.9c-0.1,1.1-0.2,2-0.4,2.8l0.1,0.1
			c0.8-1.8,2.1-3.3,3.7-4.3c1.6-1.1,3.6-1.6,5.9-1.6c1.6,0,2.9,0.2,4,0.7s2,1.1,2.6,2c0.7,0.8,1.1,1.8,1.4,2.9s0.4,2.2,0.4,3.5v19.8
			h-6V48.7z"/>
		
			<linearGradient id="SVGID_9_" gradientUnits="userSpaceOnUse" x1="340.7887" y1="14.7635" x2="317.0143" y2="38.5378" gradientTransform="matrix(1 0 0 -1 0 58)">
			<stop  offset="0" style="stop-color:#001155"/>
			<stop  offset="1" style="stop-color:#265895"/>
		</linearGradient>
		<path class="st8" d="M329.5,48.7c0-0.8,0-1.6,0.1-2.6s0.2-1.9,0.3-2.7h-0.1c-0.8,1.7-1.9,3.2-3.5,4.2s-3.5,1.6-5.7,1.6
			c-3.5,0-6.1-1.2-7.8-3.6c-1.7-2.4-2.6-5.6-2.6-9.7c0-2.4,0.3-4.6,1-6.6s1.7-3.6,2.9-5c1.3-1.4,2.8-2.5,4.7-3.2
			c1.8-0.8,3.9-1.1,6.2-1.1c0.7,0,1.4,0,2.1,0.1c0.7,0,1.4,0.1,2.2,0.2v-13h6v41.5h-5.8V48.7z M329.3,25.3c-1.6-0.3-3.1-0.5-4.5-0.5
			c-2.4,0-4.4,0.8-5.9,2.4c-1.5,1.6-2.2,4.3-2.2,8.1c0,2.8,0.5,5,1.4,6.6c0.9,1.5,2.3,2.3,4.3,2.3c1.1,0,2.1-0.3,3-0.9
			c0.9-0.6,1.6-1.4,2.2-2.4s1.1-2.1,1.4-3.3s0.5-2.4,0.5-3.6v-8.7H329.3z"/>
		
			<linearGradient id="SVGID_10_" gradientUnits="userSpaceOnUse" x1="366.5434" y1="11.6038" x2="344.7579" y2="33.3892" gradientTransform="matrix(1 0 0 -1 0 58)">
			<stop  offset="0" style="stop-color:#001155"/>
			<stop  offset="1" style="stop-color:#265895"/>
		</linearGradient>
		<path class="st9" d="M366.3,31.6c0,1.2-0.1,2.4-0.2,3.6h-18c-0.1,3.1,0.6,5.4,1.9,6.9s3.5,2.3,6.5,2.3c1.4,0,2.8-0.1,4.1-0.4
			c1.4-0.3,2.7-0.7,4-1.2l0.8,4.7c-1.6,0.6-3.3,1-4.9,1.3s-3.3,0.4-5.1,0.4c-4.4,0-7.7-1.2-10-3.5s-3.5-6-3.5-11
			c0-2.1,0.3-4.1,0.9-5.9c0.6-1.8,1.4-3.4,2.5-4.7s2.4-2.4,4.1-3.2c1.6-0.8,3.5-1.2,5.5-1.2c1.9,0,3.6,0.3,5.1,0.9
			c1.4,0.6,2.6,1.4,3.6,2.5c0.9,1.1,1.7,2.3,2.1,3.8C366.1,28.4,366.3,30,366.3,31.6z M358.7,26.1c-1-1.1-2.4-1.7-4.2-1.7
			c-1.7,0-3.1,0.6-4.3,1.7c-1.2,1.1-1.9,2.8-2.1,4.9h12.1C360.3,28.9,359.8,27.2,358.7,26.1z"/>
		
			<linearGradient id="SVGID_11_" gradientUnits="userSpaceOnUse" x1="409.9408" y1="5.1988" x2="375.3907" y2="39.7487" gradientTransform="matrix(1 0 0 -1 0 58)">
			<stop  offset="0" style="stop-color:#001155"/>
			<stop  offset="1" style="stop-color:#265895"/>
		</linearGradient>
		<path class="st10" d="M408,48.7v-18c0-1.7-0.3-3.1-0.8-4.2c-0.6-1-1.6-1.6-3.3-1.6c-0.9,0-1.8,0.2-2.7,0.7
			c-0.9,0.5-1.6,1.2-2.3,2.1c-0.7,0.9-1.2,2-1.7,3.2c-0.4,1.3-0.6,2.7-0.6,4.2v13.5h-6v-18c0-0.8-0.1-1.5-0.2-2.2s-0.3-1.3-0.6-1.8
			c-0.3-0.5-0.7-0.9-1.2-1.2c-0.6-0.3-1.2-0.5-2.1-0.5c-1,0-1.9,0.3-2.8,0.8s-1.6,1.2-2.3,2.1c-0.6,0.9-1.2,2-1.6,3.3
			s-0.6,2.6-0.6,4.1v13.5h-6.1V20.4h5.8c0,0.8,0,1.7-0.1,2.7s-0.2,2-0.3,2.9l0.1,0.1c0.8-1.9,2.1-3.4,3.8-4.5
			c1.7-1.1,3.6-1.7,5.8-1.7c1.4,0,2.6,0.2,3.5,0.6c0.9,0.4,1.7,0.9,2.3,1.5c0.6,0.6,1.1,1.3,1.4,2s0.5,1.4,0.6,2
			c0.3-0.7,0.7-1.4,1.3-2.1c0.5-0.7,1.2-1.4,2-2c0.8-0.6,1.7-1.1,2.7-1.5c1-0.4,2.2-0.6,3.5-0.6c2.7,0,4.8,0.7,6.3,2.2
			c1.4,1.5,2.2,3.9,2.2,7.1v19.5L408,48.7L408,48.7z"/>
		
			<linearGradient id="SVGID_12_" gradientUnits="userSpaceOnUse" x1="444.1837" y1="13.6004" x2="424.2044" y2="33.5798" gradientTransform="matrix(1 0 0 -1 0 58)">
			<stop  offset="0" style="stop-color:#001155"/>
			<stop  offset="1" style="stop-color:#265895"/>
		</linearGradient>
		<path class="st11" d="M447.6,34c0,2.2-0.3,4.2-1,6c-0.7,1.9-1.6,3.5-2.9,4.8c-1.2,1.4-2.7,2.4-4.4,3.2c-1.7,0.8-3.6,1.2-5.7,1.2
			c-2,0-3.8-0.3-5.3-0.9c-1.6-0.6-3-1.4-4.1-2.6c-1.1-1.2-2-2.6-2.6-4.4c-0.6-1.8-0.9-4-0.9-6.5c0-2.1,0.3-4.1,1-5.9
			c0.7-1.8,1.6-3.4,2.8-4.8c1.2-1.3,2.7-2.4,4.4-3.2c1.7-0.8,3.7-1.2,5.8-1.2c1.9,0,3.6,0.3,5.2,0.8s2.9,1.4,4.1,2.5
			c1.1,1.1,2,2.6,2.7,4.4S447.6,31.5,447.6,34z M441.4,34.5c0-3-0.6-5.4-1.8-7c-1.2-1.6-3-2.4-5.4-2.4c-0.9,0-1.8,0.2-2.7,0.5
			c-0.9,0.4-1.7,0.9-2.3,1.7c-0.7,0.8-1.2,1.7-1.6,2.9s-0.6,2.6-0.6,4.2c0,3.2,0.6,5.7,1.8,7.3c1.2,1.6,3,2.4,5.4,2.4
			c1,0,1.9-0.2,2.8-0.6c0.9-0.4,1.7-1,2.3-1.8c0.7-0.8,1.2-1.8,1.6-3C441.2,37.5,441.4,36.1,441.4,34.5z"/>
	</g>
	<g>
		
			<linearGradient id="SVGID_13_" gradientUnits="userSpaceOnUse" x1="47.9354" y1="6.7416" x2="18.2354" y2="36.4417" gradientTransform="matrix(1 0 0 -1 0 58)">
			<stop  offset="0" style="stop-color:#001155"/>
			<stop  offset="1" style="stop-color:#265895"/>
		</linearGradient>
		<path class="st12" d="M43.7,48.7l-2.9-8.5H25.1l-3,8.5h-6.2l13.6-38.4h7.1l13.9,38.4H43.7z M34.5,22.2c-0.3-0.9-0.6-1.8-0.9-2.7
			c-0.3-0.9-0.5-1.7-0.7-2.5h-0.1c-0.4,1.6-0.9,3.3-1.5,5.2l-4.6,13.1h12.5L34.5,22.2z"/>
		
			<linearGradient id="SVGID_14_" gradientUnits="userSpaceOnUse" x1="69.4104" y1="17.3166" x2="47.1104" y2="39.6167" gradientTransform="matrix(1 0 0 -1 0 58)">
			<stop  offset="0" style="stop-color:#001155"/>
			<stop  offset="1" style="stop-color:#265895"/>
		</linearGradient>
		<path class="st13" d="M55.2,48.7V10.3h6.2v38.4H55.2z"/>
	</g>
</g>
</svg>
