<?xml version="1.0" encoding="utf-8"?>
<!-- Generator: Adobe Illustrator 22.1.0, SVG Export Plug-In . SVG Version: 6.00 Build 0)  -->
<svg version="1.1" id="Calque_1" xmlns="http://www.w3.org/2000/svg" xmlns:xlink="http://www.w3.org/1999/xlink" x="0px" y="0px"
	 viewBox="0 0 30 30" style="enable-background:new 0 0 30 30;" xml:space="preserve">
<style type="text/css">
	.st0{fill:none;}
	.st1{fill:#5C5C5C;}
</style>
<rect class="st0" width="30" height="30"/>
<path class="st1" d="M11,2H5C3.3,2,2,3.3,2,5v8c0,0.6,0.5,1,1,1h10c0.6,0,1-0.4,1-1V5C14,3.3,12.6,2,11,2z M12,12H4V5
	c0-0.6,0.4-1,1-1h6c0.6,0,1,0.4,1,1V12z M17,14h10c0.5,0,1-0.4,1-1V5c0-1.7-1.4-3-3-3h-6c-1.6,0-3,1.3-3,3v8C16,13.6,16.5,14,17,14z
	 M19,4h6c0.5,0,1,0.4,1,1v7h-8V5C18,4.4,18.5,4,19,4z M25,16h-6c-1.6,0-3,1.4-3,3v8c0,0.5,0.5,1,1,1h10c0.5,0,1-0.5,1-1v-8
	C28,17.4,26.6,16,25,16z M26,26h-8v-7c0-0.5,0.5-1,1-1h6c0.5,0,1,0.5,1,1V26z M11,16H5c-1.7,0-3,1.4-3,3v8c0,0.5,0.5,1,1,1h10
	c0.6,0,1-0.5,1-1v-8C14,17.4,12.6,16,11,16z M12,26H4v-7c0-0.5,0.4-1,1-1h6c0.6,0,1,0.5,1,1V26z"/>
</svg>
