<?xml version="1.0" encoding="utf-8"?>
<!-- Generator: Adobe Illustrator 22.1.0, SVG Export Plug-In . SVG Version: 6.00 Build 0)  -->
<svg version="1.1" id="layer_1" xmlns="http://www.w3.org/2000/svg" xmlns:xlink="http://www.w3.org/1999/xlink" x="0px" y="0px"
	 viewBox="0 0 261.2 89.6" style="enable-background:new 0 0 261.2 89.6;" xml:space="preserve">
<style type="text/css">
	.st0{fill:#001155;}
</style>
<path class="st0" d="M140.3,42.5c-1.7-0.6-4.3-1.3-6.4-1.3c-2.4,0-4.3,0.6-4.3,2.8c0,5.2,13.4,2,13.4,12.7c0,7.2-5.9,10-12.5,10
	c-3,0-6.1-0.5-8.9-1.3l0.5-6.4c0,0,4.4,1.5,8,1.5c2.6,0,4.7-0.8,4.7-3c0-5.6-13.4-2-13.4-12.6c0-6.7,5.6-9.4,11.8-9.4
	c3.7,0,6.7,0.7,8.4,1.3L140.3,42.5z M115.9,42.5c-1.7-0.6-4.3-1.3-6.3-1.3c-2.4,0-4.4,0.6-4.4,2.8c0,5.2,13.4,2,13.4,12.7
	c0,7.2-5.9,10-12.5,10c-3,0-6.1-0.5-9-1.3l0.6-6.4c0,0,4.4,1.5,8.1,1.5c2.5,0,4.6-0.8,4.6-3c0-5.6-13.4-2-13.4-12.6
	c0-6.7,5.7-9.4,11.8-9.4c3.7,0,6.7,0.7,8.5,1.3L115.9,42.5z M239.5,35.4c5.8,0,9.2,3.1,9.2,10v20.7H241V47c0-3.1-0.9-5.1-4.2-5.1
	c-3.3,0-6.2,2.9-6.2,8.1v16.2H223V47c0-2.9-0.9-5.1-4.3-5.1c-3.5,0-6.1,3.2-6.1,8.4v15.8h-7.9V36c5.1-0.6,7.1,1.5,7.3,4.8
	c1.9-3.4,5.1-5.5,9.4-5.5c5.4,0,7.6,3,8.3,5.8C231,38.2,234.4,35.4,239.5,35.4L239.5,35.4z M81.3,36c-1.7,8.9-6,23-8.7,30.1h-8.2
	l-5.8-20h-0.1l-5.8,20h-8.1c-2.6-7-7.3-21.5-8.7-30.1h7.7l5.1,20.7h0.1L54.9,36h7.7l5.9,20.5h0.1L73.8,36H81.3z M31.3,42.5
	c-1.7-0.6-4.3-1.3-6.4-1.3c-2.4,0-4.3,0.6-4.3,2.8c0,5.2,13.3,2,13.3,12.7c0,7.2-5.9,10-12.5,10c-3,0-6.1-0.5-8.9-1.3l0.5-6.4
	c0,0,4.4,1.5,8.1,1.5c2.6,0,4.7-0.8,4.7-3c0-5.6-13.4-2-13.4-12.6c0-6.7,5.6-9.4,11.8-9.4c3.7,0,6.6,0.7,8.4,1.3L31.3,42.5z
	 M185.5,66.7C177,66.7,171,62,171,51.5c0-9.4,6.3-16.2,15.4-16.2c8.5,0,14,4.8,14,15C200.4,60.2,194.5,66.7,185.5,66.7L185.5,66.7z
	 M185.9,42c-3.5,0-6.8,2.6-6.8,9.2c0,5.7,2.2,8.9,6.7,8.9c3.8,0,6.8-3.1,6.8-9.2C192.5,45.1,190.4,42,185.9,42L185.9,42z M84.8,66.1
	h7.7V36c-3.6-0.4-7.7,0.6-7.7,6.3V66.1z M89,32.2c2.7,0,4.9-2.1,4.9-4.8c0-2.6-2.2-4.6-4.9-4.6c-2.5,0-4.8,2-4.8,4.6
	C84.3,30.1,86.5,32.2,89,32.2L89,32.2z M161,66.6c-8.9,0-14.7-4.5-14.7-15.1c0-9,5-16,16-16c2.4,0,5.4,0.5,7.3,1.3l-1.7,6.3
	c-1.8-0.6-3.5-1.1-5.5-1.1c-5.6,0-7.9,3.7-7.9,9.2c0,5.4,2.1,8.9,7.6,8.9c2.6,0,4.4-0.6,6.1-1.3l0.9,6.2
	C167.6,65.9,164.4,66.6,161,66.6z"/>
</svg>
