<?xml version="1.0" standalone="no"?>
<!DOCTYPE svg PUBLIC "-//W3C//DTD SVG 1.1//EN" "http://www.w3.org/Graphics/SVG/1.1/DTD/svg11.dtd" >
<svg xmlns="http://www.w3.org/2000/svg">
<metadata>
Copyright   : Copyright 2014 Luc(as) de Groot. All rights reserved. Published by LucasFonts.com
Designer    : Luc(as) de Groot
Foundry     : LucasFonts
Foundry URL : http://lucasfonts.com
</metadata>
<defs>
<font id="TheSansB_300_" horiz-adv-x="1126" >
<font-face units-per-em="2048" ascent="1516" descent="-532" />
<missing-glyph horiz-adv-x="446" />
<glyph unicode=" "  horiz-adv-x="446" />
<glyph unicode="&#x09;" horiz-adv-x="446" />
<glyph unicode="&#xa0;" horiz-adv-x="446" />
<glyph unicode="!" horiz-adv-x="651" d="M444 82q0 -41 -28.5 -69.5t-69.5 -28.5t-69.5 28.5t-28.5 69.5t28.5 68.5t69.5 27.5t69.5 -27.5t28.5 -68.5zM399 315h-104l-27 1117h156z" />
<glyph unicode="&#x22;" horiz-adv-x="692" d="M238 991h-95l-24 436h145zM549 991h-94l-25 436h143z" />
<glyph unicode="#" horiz-adv-x="1173" d="M889 903l-45 -409h205v-88h-215l-41 -406h-107l43 406h-346l-41 -406h-106l43 406h-205v88h213l45 409h-207v88h215l43 391h104l-41 -391h345l43 391h106l-43 -391h201v-88h-209zM438 903l-45 -409h344l45 409h-344z" />
<glyph unicode="$" horiz-adv-x="995" d="M870 354q0 -141 -90 -240.5t-256 -123.5v-279h-100v273q-78 2 -139.5 9t-120.5 23l8 127q27 -10 60.5 -19t70.5 -15.5t74 -9.5t67 -3q61 0 114.5 13.5t93.5 41t63.5 72.5t23.5 109q0 78 -45 125t-111.5 80.5t-145.5 62.5t-145.5 71t-111.5 104.5t-45 164.5q0 66 23.5 123 t67.5 100t105.5 71t137.5 36v223h102v-217q63 -2 118.5 -8t101.5 -17l-9 -121q-55 16 -115.5 26.5t-117.5 10.5q-80 0 -135.5 -18.5t-89 -47t-48 -66.5t-14.5 -77q0 -76 45 -123t112.5 -80.5t146.5 -63t146.5 -71.5t112.5 -105t45 -161z" />
<glyph unicode="%" horiz-adv-x="1521" d="M555 1081q0 111 -40 167.5t-132 56.5q-76 0 -121 -59.5t-45 -155.5q0 -111 40 -169.5t134 -58.5q74 0 119 60.5t45 158.5zM1305 297q0 111 -40 167t-132 56q-76 0 -121 -59.5t-45 -155.5q0 -113 40 -170t134 -57q72 0 118 60.5t46 158.5zM672 1096q0 -70 -19.5 -130.5 t-58.5 -104.5t-93.5 -68.5t-125.5 -24.5q-147 0 -212 81t-65 228q0 68 20.5 127.5t58.5 103.5t93.5 68.5t124.5 24.5q147 0 212 -80t65 -225zM297 -39l-88 59l1012 1399l88 -61zM1421 309q0 -141 -77.5 -233t-219.5 -92q-147 0 -211.5 79.5t-64.5 227.5q0 68 20.5 127 t58.5 103t93 68.5t125 24.5q147 0 211.5 -79t64.5 -226z" />
<glyph unicode="&#x26;" horiz-adv-x="1626" d="M1026 262q-70 57 -142.5 123t-142 131.5t-131 129t-108.5 116.5q-131 -102 -187.5 -187.5t-56.5 -179.5q0 -61 23.5 -116.5t66.5 -97.5t104.5 -65.5t137.5 -23.5q145 0 253.5 51t182.5 119zM733 1227q0 72 -44 124t-142 52q-86 0 -138.5 -50t-52.5 -132q0 -55 38 -126 t136 -182q100 80 151.5 153t51.5 161zM1409 -33q-78 53 -155.5 112.5t-141.5 113.5q-104 -94 -239.5 -151.5t-309.5 -57.5q-104 0 -185 28.5t-136.5 80.5t-85 125t-29.5 159q0 74 22.5 135t62.5 115.5t95 105.5t123 103q-59 68 -97 120t-61.5 96t-33 83t-9.5 79 q0 57 21.5 110.5t63.5 93.5t104.5 63.5t142.5 23.5q147 0 224 -75.5t77 -186.5q0 -102 -58.5 -197.5t-203.5 -207.5q49 -53 109.5 -114.5t127 -124t136 -125t137.5 -116.5v-2q72 96 116 233.5t34 311.5h131q6 -180 -43.5 -336.5t-147.5 -279.5q86 -66 159 -121t132 -96z" />
<glyph unicode="'" horiz-adv-x="382" d="M238 991h-95l-24 436h145z" />
<glyph unicode="(" horiz-adv-x="616" d="M467 -420q-94 150 -152.5 285t-90 259t-43 237.5t-11.5 218.5q0 104 13.5 223t47 246t91 264t147.5 278l88 -47q-129 -219 -195.5 -461.5t-66.5 -490.5q0 -266 64.5 -501.5t201.5 -459.5z" />
<glyph unicode=")" horiz-adv-x="616" d="M461 594q0 -104 -13.5 -223t-47 -247t-92 -265.5t-146.5 -278.5l-88 49q129 219 195.5 461t66.5 492q0 266 -64.5 501.5t-199.5 458.5l94 49q94 -150 151.5 -285t89 -257.5t43 -236.5t11.5 -218z" />
<glyph unicode="*" horiz-adv-x="749" d="M594 1012l-193 131l17 -234h-103l17 234l-195 -131l-49 88l213 102l-213 101l51 90l195 -131l-17 233h103l-17 -233l193 131l49 -88l-211 -101l211 -102z" />
<glyph unicode="+" d="M623 555v-432h-123v432h-410v109h410v430h123v-430h413v-109h-413z" />
<glyph unicode="," horiz-adv-x="425" d="M207 180q45 0 73.5 -37t23.5 -100t-50 -148t-145 -184l-60 51q94 100 106.5 173t-14.5 108q-16 23 -18 47.5t8 44t30.5 32.5t45.5 13z" />
<glyph unicode="-" horiz-adv-x="669" d="M100 549v106h469v-106h-469z" />
<glyph unicode="&#xad;" horiz-adv-x="669" d="M100 549v106h469v-106h-469z" />
<glyph unicode="." horiz-adv-x="425" d="M311 84q0 -41 -28.5 -70.5t-69.5 -29.5t-69.5 29.5t-28.5 70.5t28.5 69.5t69.5 28.5t69.5 -28.5t28.5 -69.5z" />
<glyph unicode="/" horiz-adv-x="860" d="M145 -330h-120l716 1880h121z" />
<glyph unicode="0" d="M870 668q0 154 -18 263t-57 178t-96.5 100.5t-137.5 31.5q-66 0 -121 -29.5t-97 -96t-65.5 -172t-23.5 -257.5q0 -143 15.5 -253.5t51 -186.5t95 -115t145.5 -39q145 0 227 147.5t82 428.5zM1010 682q0 -197 -40 -330t-105.5 -215t-148.5 -117.5t-167 -35.5 q-109 0 -189.5 37.5t-135 119.5t-82 213t-27.5 320q0 174 34.5 302t96 210t146.5 122t183 40q90 0 169 -30t138.5 -105.5t93.5 -204.5t34 -326z" />
<glyph unicode="1" d="M166 0v117h373v1087l-349 -137l-26 119l397 145h111v-1214h329v-117h-835z" />
<glyph unicode="2" d="M129 0v102l360 355q94 94 153.5 162.5t93.5 124t45.5 103.5t11.5 103q0 59 -19.5 112.5t-58.5 92.5t-94.5 61.5t-124.5 22.5q-47 0 -92.5 -10t-86.5 -26.5t-74.5 -37t-58.5 -41.5l-43 109q74 49 167 82t204 33q102 0 180 -31t130 -83t79 -121t27 -144q0 -66 -13.5 -124.5 t-49.5 -123t-98 -139t-163 -168.5l-309 -293v-2q59 2 175 3t275 1h234v-123h-850z" />
<glyph unicode="3" d="M954 395q0 -92 -36.5 -168.5t-106.5 -130t-168 -83t-223 -29.5q-66 0 -129.5 8t-116.5 24l19 121q53 -18 116.5 -29.5t130.5 -11.5q180 0 277.5 76t97.5 203t-95 199.5t-269 72.5q-53 0 -96.5 -2t-96.5 -6v109h37q236 0 362.5 66.5t126.5 207.5q0 104 -74.5 161.5 t-197.5 57.5q-86 0 -158.5 -22.5t-140.5 -57.5l-14 119q70 29 150.5 48.5t178.5 19.5t172 -25t123 -67t74 -98t25 -122q0 -123 -70 -202.5t-199 -114.5l-2 -4q63 -4 118.5 -31t96.5 -70t64.5 -99.5t23.5 -119.5z" />
<glyph unicode="4" d="M707 1202h-2l-515 -768q53 2 128 3t149 1h240v764zM836 322v-322h-129v322h-644l-8 98l604 911h177v-893h243v-116h-243z" />
<glyph unicode="5" d="M954 430q0 -100 -37.5 -183t-107.5 -141.5t-168 -90t-219 -31.5q-125 0 -238 26v123q55 -18 119 -28.5t133 -10.5q186 0 283.5 86t97.5 232q0 139 -103.5 209.5t-273.5 70.5q-66 0 -125 -4t-96 -12v655h688v-125h-569v-411q31 4 68.5 5t66.5 1q119 0 210 -30t150.5 -80 t90 -117.5t30.5 -143.5z" />
<glyph unicode="6" d="M887 418q0 135 -76 219t-225 84q-74 0 -131.5 -26.5t-97.5 -68.5t-61.5 -93.5t-21.5 -98.5q0 -70 20.5 -132t60.5 -109.5t98.5 -75t136.5 -27.5q141 0 219 91.5t78 236.5zM1018 444q0 -102 -32 -187t-90 -145.5t-140 -94t-183 -33.5q-106 0 -189 38.5t-140.5 109.5 t-87 171t-29.5 225q0 223 50 379t139.5 254.5t211 142.5t265.5 44q27 0 54 -1t42 -4v-114q-25 4 -51.5 5t-63.5 1q-227 0 -349 -130t-161 -366q-2 -16 -7 -46.5t-9 -67.5h2q53 98 147.5 151t210.5 53q98 0 175 -29.5t129.5 -81.5t79 -123t26.5 -151z" />
<glyph unicode="7" d="M1008 1219q-84 -152 -162 -310.5t-148.5 -314.5t-132 -306.5t-110.5 -287.5h-154q113 287 253 595t306 613q-16 0 -74.5 -1t-138.5 -2t-172 -1h-170h-182v127h885v-112v0z" />
<glyph unicode="8" d="M858 309q0 63 -25.5 110.5t-67.5 84.5t-97.5 65.5t-114.5 55.5q-55 -31 -106.5 -63t-91.5 -68.5t-63.5 -80.5t-23.5 -100q0 -98 77 -160.5t224 -62.5q59 0 111.5 14.5t92.5 42t62.5 68.5t22.5 94zM823 1020q0 111 -73.5 166t-190.5 55q-121 0 -189.5 -62.5t-68.5 -152.5 q0 -47 15.5 -84t48 -69.5t84 -62.5t120.5 -65q51 29 97.5 57.5t81 61.5t55 71t20.5 85zM995 324q0 -76 -32.5 -138.5t-92 -107.5t-140.5 -69.5t-177 -24.5q-94 0 -172 22.5t-134.5 64.5t-87 101t-30.5 131q0 68 26.5 122t70.5 98t100.5 82t117.5 71q-133 63 -206.5 141 t-73.5 199q0 70 28.5 130t83 105t129 71t166.5 26q186 0 288 -87t102 -229q0 -59 -24 -107t-61.5 -89t-89 -76t-106.5 -66q59 -31 115.5 -64.5t101.5 -76.5t71.5 -99t26.5 -130z" />
<glyph unicode="9" d="M844 899q0 74 -20.5 136.5t-59.5 108.5t-96.5 71.5t-130.5 25.5q-70 0 -125.5 -25.5t-93 -68.5t-57 -101.5t-19.5 -125.5q0 -141 75.5 -226.5t214.5 -85.5q74 0 132.5 23.5t98.5 63.5t60.5 92.5t20.5 111.5zM991 803q0 -229 -52 -386t-142 -253t-213 -138t-265 -42 q-74 0 -147 12v121q39 -8 83 -13.5t89 -5.5q219 0 339 115t155 348q4 33 8 56.5t10 52.5h-2q-51 -82 -139 -129t-205 -47q-96 0 -171 29.5t-126 84t-77.5 128t-26.5 161.5q0 100 32.5 184t91 142.5t139.5 91.5t177 33q100 0 181 -31t139.5 -97.5t90 -170t31.5 -246.5z" />
<glyph unicode=":" horiz-adv-x="569" d="M418 84q0 -41 -29 -70.5t-70 -29.5t-69.5 29.5t-28.5 70.5t29 69.5t69 28.5q41 0 70 -28.5t29 -69.5zM418 696q0 -41 -29 -69.5t-70 -28.5t-69.5 28.5t-28.5 69.5t29 70t69 29q41 0 70 -29t29 -70z" />
<glyph unicode=";" horiz-adv-x="569" d="M317 180q45 0 73 -37t24 -100t-49.5 -148t-145.5 -184l-59 51q47 51 71.5 94.5t33.5 79t4 62.5t-17 45q-16 23 -18.5 47.5t8 44t29.5 32.5t46 13zM418 696q0 -41 -29 -69.5t-70 -28.5t-69.5 28.5t-28.5 69.5t29 70t69 29q41 0 70 -29t29 -70z" />
<glyph unicode="&#x3c;" d="M803 59l-643 564l643 563l82 -80l-559 -481l559 -478z" />
<glyph unicode="=" d="M117 393v111h893v-111h-893zM117 715v108h893v-108h-893z" />
<glyph unicode="&#x3e;" d="M324 59l-82 80l559 482l-559 477l82 88l643 -563z" />
<glyph unicode="?" horiz-adv-x="903" d="M487 82q0 -41 -28.5 -69.5t-69.5 -28.5t-68.5 28.5t-27.5 69.5t27.5 68.5t68.5 27.5t69.5 -27.5t28.5 -68.5zM762 1063q0 -84 -32 -143.5t-76 -107.5t-92 -93t-83 -100.5t-46 -128t20 -175.5h-127q-33 104 -24 181t42 135.5t80 105.5t90 94.5t73.5 98.5t30.5 119 q0 53 -30.5 101t-86 86t-133 61.5t-171.5 27.5l16 119q125 -6 226.5 -38t173 -84t110.5 -118.5t39 -140.5z" />
<glyph unicode="@" horiz-adv-x="2015" d="M1200 967q-55 14 -141 14q-82 0 -140.5 -43t-95.5 -107.5t-54 -138.5t-17 -137q0 -176 104 -176q43 0 90 29.5t90 88t80 146.5t60 205l24 119v0zM1812 821q0 -133 -34.5 -237.5t-94 -175t-140.5 -107.5t-173 -37q-68 0 -114 21.5t-72.5 55.5t-33.5 78t1 87h-6 q-10 -31 -39 -73t-72 -80t-96 -63.5t-113 -25.5q-102 0 -148 69.5t-46 192.5q0 113 28.5 213.5t85 176t141.5 119.5t197 44q68 0 134.5 -6t115.5 -16l-84 -457q-23 -117 17.5 -171t128.5 -54q63 0 117.5 28.5t94.5 85t62.5 138.5t22.5 186q0 106 -34 210.5t-109.5 187.5 t-194.5 133.5t-287 50.5q-158 0 -297 -59.5t-241.5 -166t-162 -252t-59.5 -319.5q0 -154 44 -276.5t130 -210.5t210 -135.5t284 -47.5q92 0 172 11.5t164 37.5l18 -110q-86 -27 -185.5 -39t-185.5 -12q-180 0 -323 54t-243.5 153.5t-154 239.5t-53.5 315q0 201 72 369.5 t194.5 290.5t284.5 190.5t342 68.5q186 0 325.5 -56.5t229.5 -150.5t135 -216t45 -253z" />
<glyph unicode="A" horiz-adv-x="1245" d="M680 1055q-18 49 -33.5 94t-28.5 90h-2q-14 -45 -29.5 -91t-31.5 -89l-219 -600h561zM1061 0l-125 352h-637l-129 -352h-137l520 1382h141l518 -1382h-151z" />
<glyph unicode="B" horiz-adv-x="1153" d="M897 399q0 78 -34 129.5t-92 82t-136 43t-168 12.5h-58t-81 -2v-551q31 -4 79 -8.5t119 -4.5q98 0 169 22.5t115 62.5t65.5 95.5t21.5 118.5zM854 1040q0 51 -14.5 96.5t-50 77t-96 50t-154.5 18.5q-53 0 -108.5 -1t-102.5 -3v-510q45 -2 71.5 -2h67.5q195 0 291 71.5 t96 202.5zM1032 406q0 -53 -18.5 -124t-74.5 -135.5t-157.5 -108.5t-267.5 -44q-61 0 -150.5 2t-166.5 4v1382q66 0 153.5 2t210.5 2q221 0 324.5 -88t103.5 -235q0 -117 -68.5 -205t-191.5 -127v-2q82 -12 139.5 -43t94 -75t53 -97t16.5 -108z" />
<glyph unicode="C" horiz-adv-x="1218" d="M1122 66q-82 -35 -183 -57.5t-214 -22.5q-156 0 -271.5 46t-192.5 134t-116 214t-39 284q0 154 38 287.5t118 233t206 156t304 56.5q82 0 167 -12.5t163 -34.5l-25 -121q-162 57 -334 57q-133 0 -227 -48t-153.5 -130t-87 -191.5t-27.5 -230.5q0 -279 126 -432.5 t390 -153.5q86 0 175 21.5t157 56.5l26 -112v0z" />
<glyph unicode="D" horiz-adv-x="1404" d="M1161 694q0 297 -150.5 442.5t-443.5 145.5q-59 0 -126.5 -2t-112.5 -4v-1159q47 -6 106.5 -10.5t104.5 -4.5q137 0 251.5 35t197.5 107.5t128 184t45 265.5zM1298 702q0 -178 -58 -311t-161.5 -221t-246 -132t-312.5 -44q-104 0 -180 4t-143 2v1382q80 0 182 3.5 t205 3.5q170 0 303 -42t224 -126t139 -214.5t48 -304.5z" />
<glyph unicode="E" horiz-adv-x="1040" d="M197 0v1382h682v-106h-551v-510h524v-104h-524v-553h551v-109h-682z" />
<glyph unicode="F" horiz-adv-x="964" d="M328 1276v-512h520v-107h-520v-657h-131v1382h680v-106h-549z" />
<glyph unicode="G" horiz-adv-x="1406" d="M1223 59q-104 -39 -222 -57t-223 -18q-156 0 -283.5 46t-213.5 133t-134.5 214t-48.5 289q0 166 49.5 301t137.5 227t221 148.5t317 56.5q98 0 190.5 -15.5t186.5 -44.5l-31 -118q-88 35 -179 52t-185 17q-117 0 -216.5 -32.5t-178 -107.5t-125.5 -192.5t-47 -269.5 q0 -143 39.5 -253.5t113.5 -186.5t178.5 -115t229.5 -39q84 0 154.5 11.5t138.5 33.5v551h131v-631v0z" />
<glyph unicode="H" horiz-adv-x="1445" d="M1118 0v664h-790v-664h-131v1382h131v-610h790v610h131v-1382h-131z" />
<glyph unicode="I" horiz-adv-x="524" d="M197 0v1382h131v-1382h-131z" />
<glyph unicode="J" horiz-adv-x="665" d="M471 342q0 -174 -76 -264t-252 -90q-37 0 -74.5 5t-66.5 11v121q31 -10 72 -18.5t80 -8.5q45 0 78.5 11.5t57 40t36 77.5t12.5 127v1028h133v-1040v0z" />
<glyph unicode="K" horiz-adv-x="1177" d="M950 0l-622 700v-700h-131v1382h131v-669l622 669h166l-639 -669l660 -713h-187z" />
<glyph unicode="L" horiz-adv-x="870" d="M197 0v1382h131v-1273h528v-109h-659z" />
<glyph unicode="M" horiz-adv-x="1832" d="M1571 0l-129 897q-16 123 -27.5 209t-17.5 141h-4q-10 -39 -25.5 -94t-40.5 -125l-348 -1028h-158l-329 965q-29 84 -49.5 153.5t-36.5 128.5h-3q-6 -82 -15 -169t-21 -195l-107 -883h-135l192 1382h172l336 -985q16 -47 39 -119.5t41 -144.5h2q20 70 38 128t38 120 l342 1001h180l203 -1382h-137z" />
<glyph unicode="N" horiz-adv-x="1462" d="M1087 0l-616 975q-43 70 -83 136.5t-77 139.5q2 -51 5 -162.5t5.5 -228.5t4.5 -358v-502h-129v1382h176l610 -962q43 -68 84 -136.5t82 -144.5q-2 78 -5 201t-5 257t-3 225t-1 204v356h131v-1382h-179z" />
<glyph unicode="O" horiz-adv-x="1445" d="M1206 682q0 283 -127 444.5t-356 161.5q-96 0 -184 -39t-155 -113.5t-105.5 -183t-38.5 -247.5q0 -135 29.5 -247t89 -192t150.5 -125t212 -45q96 0 184 38t155.5 113t106.5 184.5t39 250.5zM1348 705q0 -174 -51.5 -308.5t-138.5 -226.5t-204.5 -139t-248.5 -47 q-154 0 -267.5 50t-189.5 141t-113 219t-37 284q0 174 51.5 308t138.5 226.5t203.5 139.5t247.5 47q141 0 255 -46t193 -135.5t120 -218t41 -294.5z" />
<glyph unicode="P" horiz-adv-x="1064" d="M848 979q0 150 -89 225.5t-270 75.5q-45 0 -79.5 -1t-81.5 -3v-602q31 -4 70.5 -8t95.5 -4q176 0 266 87t88 230zM985 1001q0 -102 -37 -187t-109.5 -146.5t-165.5 -89t-196 -27.5q-98 2 -149 8v-559h-131v1382q176 6 317 7q113 0 202 -28t148.5 -80t90 -123t30.5 -157z " />
<glyph unicode="Q" horiz-adv-x="1443" d="M1446 -137q-86 -10 -148.5 -5t-115 18t-96.5 31.5t-92 36t-106.5 29t-133.5 11.5h-49q-154 0 -267.5 50t-189.5 141t-113 219t-37 284q0 174 51.5 308t138.5 226.5t203.5 139.5t247.5 47q141 0 255 -46t192 -135.5t120 -218.5t42 -292q0 -135 -31 -246t-90 -201 q-18 -29 -44 -58.5t-58.5 -57t-71.5 -50t-76 -37.5q57 0 106.5 -14t102.5 -30.5t115.5 -28t144.5 -0.5v-121v0zM1206 680q0 293 -127 450.5t-356 157.5q-96 0 -184 -39t-155 -113.5t-105.5 -183t-38.5 -247.5q0 -135 29.5 -247t89 -192t150.5 -125t214 -45q98 0 184 39 t152.5 113t106.5 183.5t40 248.5z" />
<glyph unicode="R" horiz-adv-x="1114" d="M815 1026q0 145 -90 201.5t-256 56.5q-41 0 -74 -1t-67 -5v-520q18 -2 51 -3t82 -1q170 0 262 75.5t92 196.5zM864 0l-510 653h-26v-653h-131v1382q63 2 131.5 4.5t177.5 2.5q94 0 175 -17.5t141.5 -57.5t95 -105.5t34.5 -159.5q0 -96 -36.5 -168t-100 -121t-145.5 -75 t-170 -28q31 -35 64.5 -71.5t60.5 -71.5l413 -514h-174z" />
<glyph unicode="S" horiz-adv-x="1032" d="M913 391q0 -90 -34.5 -164.5t-99 -129t-157 -84t-204.5 -29.5q-80 0 -156 10t-137 29l22 129q66 -25 137.5 -39.5t143.5 -14.5q70 0 133.5 15.5t110.5 48.5t75.5 85t28.5 128q0 86 -49 137t-122 87t-158 66.5t-157.5 74.5t-121.5 109.5t-49 174.5q0 80 29.5 148.5 t88 118.5t143.5 79t195 29q63 0 128 -7.5t120 -19.5l-16 -119q-55 16 -117.5 26.5t-122.5 10.5q-160 0 -237.5 -68.5t-77.5 -183.5q0 -84 49 -134t123 -86t159 -66.5t158.5 -74.5t122.5 -110.5t49 -175.5z" />
<glyph unicode="T" horiz-adv-x="1064" d="M598 1274v-1274h-131v1274h-428v108h987v-108h-428z" />
<glyph unicode="U" horiz-adv-x="1435" d="M1239 522q0 -264 -134 -401t-405 -137q-160 0 -258 41t-153.5 107.5t-73.5 151.5t-18 171v927h131v-913q0 -78 15 -146.5t58 -119.5t118 -82t194 -31q98 0 173 22.5t125 71.5t74.5 129t24.5 197v872h129v-860v0z" />
<glyph unicode="V" horiz-adv-x="1249" d="M686 0h-141l-512 1382h151l336 -946q23 -61 49.5 -140t48.5 -153h3q23 72 49 150t55 156l350 933h137z" />
<glyph unicode="W" horiz-adv-x="1951" d="M1495 0h-166l-305 1049q-16 55 -29.5 107t-23.5 99h-2q-8 -51 -20.5 -102t-28.5 -106l-295 -1047h-166l-375 1382h141l264 -997q20 -72 34 -131t26 -125h2q12 61 26.5 122.5t30.5 121.5l287 1009h164l301 -1026q16 -53 30.5 -111.5t24.5 -115.5h2q10 53 20.5 100t24.5 97 l275 1056h129z" />
<glyph unicode="X" horiz-adv-x="1183" d="M975 0l-391 616l-387 -616h-152l463 715l-434 667h153l359 -563l354 563h150l-428 -655l477 -727h-164z" />
<glyph unicode="Y" horiz-adv-x="1062" d="M592 504v-504h-131v504l-432 878h145l246 -514q31 -63 58.5 -125.5t51.5 -124.5h2q27 66 59 134.5t64 136.5l240 493h139z" />
<glyph unicode="Z" horiz-adv-x="1105" d="M96 0v92l637 985q35 53 65.5 98.5t65.5 94.5q-59 -2 -144 -3t-196 -1h-405v116h889v-94l-672 -1034q-23 -35 -45.5 -69.5t-46.5 -69.5q37 4 135 4h242h395v-119h-920z" />
<glyph unicode="[" horiz-adv-x="651" d="M197 -399v1970h372v-96h-252v-1774h252v-100h-372z" />
<glyph unicode="\" horiz-adv-x="849" d="M748 -330l-717 1880h119l716 -1880h-118z" />
<glyph unicode="]" horiz-adv-x="651" d="M80 -399v100h254v1774h-254v96h373v-1970h-373z" />
<glyph unicode="^" d="M852 711l-315 569l-299 -569l-93 51l340 620h111l356 -618z" />
<glyph unicode="_" d="M0 -514v100h1126v-100h-1126z" />
<glyph unicode="`" horiz-adv-x="749" d="M449 1184l-263 241l86 84l244 -258z" />
<glyph unicode="a" horiz-adv-x="1062" d="M735 494q-145 0 -240.5 -19.5t-151.5 -50.5t-79.5 -72t-23.5 -84q0 -78 48 -128t128 -50q72 0 131 33t101 87t64.5 121.5t22.5 137.5v25zM737 0q0 61 2 119.5t11 103.5l-5 2q-37 -100 -131 -170.5t-229 -70.5q-119 0 -197.5 70.5t-78.5 193.5q0 76 39.5 139.5 t120.5 109.5t199 70.5t267 26.5v78q0 125 -55 191.5t-186 66.5q-70 0 -155 -21.5t-146 -56.5l-33 109q72 33 164 53t190 20q102 0 166.5 -24.5t102.5 -68.5t59.5 -103.5t21.5 -128.5v-394q0 -78 1 -161.5t3 -153.5h-131z" />
<glyph unicode="b" horiz-adv-x="1142" d="M909 543q0 182 -63.5 284.5t-198.5 102.5q-82 0 -142.5 -43t-100 -107.5t-59 -142.5t-19.5 -145v-371q47 -16 99 -23.5t114 -7.5q168 0 269 106.5t101 346.5zM1044 555q0 -139 -36.5 -244.5t-105 -177.5t-164 -108.5t-212.5 -36.5q-102 0 -177 9t-152 28v1470h129v-534 q0 -41 -4.5 -93.5t-14.5 -91.5l4 -2q43 123 141.5 191.5t215.5 68.5q180 0 278 -119.5t98 -359.5z" />
<glyph unicode="c" horiz-adv-x="907" d="M848 47q-68 -29 -151 -44t-167 -15q-80 0 -158.5 20.5t-140 74.5t-99.5 148.5t-38 241.5q0 127 31 229.5t91 175t149.5 112.5t205.5 40q158 0 271 -47l-29 -106q-53 20 -121.5 35.5t-140.5 15.5q-78 0 -137.5 -32t-99.5 -89t-61.5 -136t-21.5 -171q0 -82 14.5 -156 t50.5 -129t99.5 -87t161.5 -32q72 0 138.5 14.5t125.5 41.5l27 -105v0z" />
<glyph unicode="d" horiz-adv-x="1138" d="M813 901q-106 27 -213 27q-168 0 -268.5 -106.5t-100.5 -346.5q0 -182 62.5 -284.5t198.5 -102.5q82 0 142 43t100 107.5t59.5 142.5t19.5 145v375zM811 0q0 25 1 55.5t3 62.5t6 61.5t8 53.5l-4 3q-41 -117 -136 -184.5t-218 -67.5q-193 0 -285 128t-92 351 q0 137 37 243.5t105.5 178t164 108.5t211.5 37q90 0 201 -12v477h129v-1495h-131z" />
<glyph unicode="e" horiz-adv-x="1030" d="M788 647q0 127 -69.5 206t-192.5 79q-113 0 -189.5 -76t-98.5 -221h550v12zM926 625v-28.5t-4 -59.5h-691q-4 -106 16.5 -193.5t64.5 -143t112 -81t158 -25.5q74 0 147.5 15.5t138.5 44.5l25 -109q-72 -29 -158 -45t-182 -16q-223 0 -341 126t-118 396q0 113 30 210 t87 167.5t138 110.5t186 40q104 0 177.5 -32.5t122 -91t70 -131t21.5 -154.5z" />
<glyph unicode="f" horiz-adv-x="708" d="M780 1376q-41 12 -83 17.5t-83 5.5q-127 0 -183 -75t-56 -232v-74h313v-103h-313v-915h-129v915h-234v103h234v69q0 215 100 316.5t279 101.5q84 0 168 -18z" />
<glyph unicode="g" horiz-adv-x="1099" d="M903 -174q0 88 -59.5 138t-181.5 54l-213 9h-70q-72 -47 -114 -104.5t-42 -127.5q0 -53 23.5 -93t65.5 -68.5t99.5 -43t125.5 -14.5q178 0 272 70.5t94 179.5zM805 672q0 123 -68.5 192.5t-195.5 69.5q-135 0 -208 -76t-73 -188q0 -123 70.5 -189.5t199.5 -66.5 q127 0 201 67.5t74 190.5zM1036 -156q0 -80 -39 -148.5t-108.5 -118.5t-165.5 -78.5t-211 -28.5q-190 0 -306 79.5t-116 225.5q0 98 54.5 169.5t127.5 114.5q-47 20 -74.5 60.5t-27.5 89.5q0 51 28.5 94t80.5 70q-72 43 -111 112.5t-39 171.5q0 76 27.5 143.5t82 120 t132.5 83t178 30.5q37 0 64.5 -4t64.5 -12h346v-103h-193q49 -37 77 -96t28 -133q0 -78 -25.5 -145.5t-79 -117.5t-133.5 -80t-186 -30q-37 0 -67.5 4.5t-61.5 14.5q-39 -16 -59.5 -44t-20.5 -57q0 -47 46 -66.5t143 -23.5l206 -8q166 -6 252 -83t86 -206z" />
<glyph unicode="h" horiz-adv-x="1185" d="M860 0v659q0 127 -44 199t-163 72q-72 0 -132 -33t-103 -92.5t-67.5 -141t-24.5 -178.5v-485h-129v1495h129v-514q0 -53 -3.5 -108.5t-13.5 -94.5l4 -2q45 119 139.5 188.5t229.5 69.5q88 0 147.5 -25.5t94 -69.5t50 -103.5t15.5 -126.5v-709h-129z" />
<glyph unicode="i" horiz-adv-x="522" d="M197 0v1018h129v-1018h-129zM354 1348q0 -37 -26.5 -65t-65.5 -28t-65.5 27t-26.5 66t26.5 65.5t65.5 26.5t65.5 -25.5t26.5 -66.5z" />
<glyph unicode="j" horiz-adv-x="538" d="M342 -139q0 -102 -15.5 -175t-52 -121t-98 -70.5t-153.5 -22.5q-35 0 -72 4t-66 14l15 117q29 -10 63.5 -17.5t69.5 -7.5q55 0 90 12.5t54.5 43t27.5 83t8 132.5v1165h129v-1157v0zM371 1348q0 -37 -27 -65t-65 -28q-39 0 -66 27t-27 66t27 65.5t66 26.5t65.5 -25.5 t26.5 -66.5z" />
<glyph unicode="k" horiz-adv-x="968" d="M745 0l-419 541v-541h-129v1495h129v-940l401 463h156l-414 -463l449 -555h-173z" />
<glyph unicode="l" horiz-adv-x="522" d="M197 0v1495h129v-1495h-129z" />
<glyph unicode="m" horiz-adv-x="1818" d="M1493 0v659q0 61 -8 111.5t-30.5 85.5t-60.5 54.5t-98 19.5q-63 0 -121.5 -31t-102.5 -88t-71.5 -141t-27.5 -189v-481h-129v662q0 55 -7.5 103t-29 85t-59 58.5t-101.5 21.5q-68 0 -126 -33t-101 -92.5t-68.5 -142t-25.5 -181.5v-481h-129v1018h131q0 -53 -4.5 -121 t-14.5 -117l4 -2q43 117 139.5 186.5t225.5 69.5q90 0 146.5 -28.5t87 -69.5t41 -84t10.5 -70q12 37 39.5 80t71.5 82t105.5 64.5t141.5 25.5q143 0 222 -76.5t79 -250.5v-707h-129z" />
<glyph unicode="n" horiz-adv-x="1185" d="M860 0v659q0 127 -44 199t-163 72q-72 0 -132 -33t-103 -92.5t-67.5 -141t-24.5 -178.5v-485h-129v1018h131q0 -53 -4.5 -122t-14.5 -116l4 -2q43 117 138.5 186.5t230.5 69.5q88 0 147.5 -25.5t94 -69.5t50 -103.5t15.5 -126.5v-709h-129z" />
<glyph unicode="o" horiz-adv-x="1105" d="M881 518q0 195 -83 303.5t-245 108.5q-57 0 -118.5 -24.5t-107.5 -76t-74 -129t-28 -184.5q0 -205 88 -315.5t242 -110.5q63 0 121.5 24.5t104.5 77t72 133t28 193.5zM1012 524q2 -111 -31 -209t-94.5 -171.5t-151.5 -116.5t-203 -43q-203 0 -319.5 127t-122.5 395 q2 106 35 202.5t91 168t150.5 114.5t200.5 43q90 0 170 -26.5t142.5 -86t98.5 -158t34 -239.5z" />
<glyph unicode="p" horiz-adv-x="1142" d="M909 543q0 182 -63.5 284.5t-198.5 102.5q-82 0 -142.5 -43t-100 -107.5t-59 -142.5t-19.5 -145v-371q47 -16 99 -23.5t114 -7.5q168 0 269 106.5t101 346.5zM1044 555q0 -139 -36.5 -244.5t-104 -176.5t-163 -107.5t-212.5 -36.5q-57 0 -102 2t-100 10v-516h-129v1532 h131q0 -25 -1 -55.5t-3 -62.5t-5.5 -62.5t-9.5 -53.5l4 -2q43 117 137.5 184.5t217.5 67.5q180 0 278 -119.5t98 -359.5z" />
<glyph unicode="q" horiz-adv-x="1142" d="M817 903q-104 27 -213 27q-168 0 -268 -107.5t-100 -347.5q0 -182 62 -284.5t198 -102.5q82 0 142 43t100 107.5t59.5 142.5t19.5 145v377zM817 -514v577q0 29 2 77t12 93l-4 3q-41 -117 -135 -184.5t-217 -67.5q-180 0 -278.5 118.5t-98.5 360.5q0 137 37 243.5 t105.5 178t165 108.5t217.5 37q80 0 162.5 -7t160.5 -19v-1518h-129z" />
<glyph unicode="r" horiz-adv-x="724" d="M668 907q-174 27 -258 -104t-84 -397v-406h-129v1018h131q0 -53 -6.5 -126t-20.5 -140l4 -2q14 57 42 112.5t73 96t107.5 62t146.5 11.5z" />
<glyph unicode="s" horiz-adv-x="882" d="M766 299q0 -66 -28.5 -123t-82 -100t-131.5 -67.5t-176 -24.5q-59 0 -119.5 6t-107.5 20l18 123q49 -18 110.5 -28.5t121.5 -10.5q115 0 188.5 50.5t73.5 136.5q0 66 -38 100.5t-95.5 55t-125 36.5t-124.5 46t-95 81t-38 143q0 127 97 209t288 82q49 0 103 -6t102 -16 l-17 -111q-47 14 -100 22.5t-107 8.5q-119 0 -177 -47t-58 -127q0 -66 38 -100.5t96 -56t124.5 -38t125 -45.5t96.5 -80t38 -139z" />
<glyph unicode="t" horiz-adv-x="755" d="M684 6q-41 -10 -94 -15t-101 -5q-74 0 -124 17t-78.5 53t-39.5 91.5t-11 133.5v634h-234v103h234v344l126 35v-379h314v-103h-314v-571q0 -74 7.5 -121t26 -74.5t50 -38t78.5 -10.5q80 0 142 17l18 -111v0z" />
<glyph unicode="u" horiz-adv-x="1185" d="M858 0q0 53 4 121.5t15 116.5l-5 2q-43 -117 -138 -186.5t-230 -69.5q-88 0 -147.5 25.5t-94.5 69.5t-50 103.5t-15 126.5v709h129v-660q0 -127 43 -198.5t163 -71.5q72 0 132.5 33t103.5 92t67.5 141t24.5 178v486h129v-1018h-131z" />
<glyph unicode="v" horiz-adv-x="964" d="M549 0h-141l-383 1018h147l254 -715q20 -61 29.5 -88t25.5 -86h2q16 53 25.5 82t30.5 86l260 721h141z" />
<glyph unicode="w" horiz-adv-x="1619" d="M1243 0h-153l-242 705q-33 96 -55 186h-2q-16 -66 -36 -128.5t-40 -127.5l-201 -635h-156l-317 1018h147l189 -656q18 -66 36.5 -128t30.5 -109h2q14 57 32 117.5t36 119.5l211 656h156l213 -653q16 -49 27.5 -85t19.5 -64t14 -49.5t12 -43.5h2q14 55 31 107.5t39 129.5 l199 658h139z" />
<glyph unicode="x" horiz-adv-x="1048" d="M817 0l-299 426l-299 -426h-164l391 508l-370 510h164l288 -416l297 416h150l-375 -502l391 -516h-174z" />
<glyph unicode="y" horiz-adv-x="950" d="M502 -104q-45 -117 -90 -198t-99.5 -132t-120 -73.5t-149.5 -22.5q-25 0 -52.5 4t-49.5 8l14 119q23 -8 55.5 -12.5t61.5 -4.5q45 0 85 13.5t75.5 46t69.5 89t67 142.5l49 125l-393 1018h151l230 -627q27 -72 44 -126t33 -109h2q12 47 41 132t62 177l196 553h142z" />
<glyph unicode="z" horiz-adv-x="911" d="M100 0v90l545 817q-53 -2 -134 -3t-171 -1h-229v115h680v-88l-541 -815q25 0 65.5 1t79.5 2t82 1h84h240v-119h-701z" />
<glyph unicode="{" horiz-adv-x="667" d="M569 -399q-158 0 -220 93t-62 267v416q0 57 -10.5 98t-37 67.5t-69.5 40t-109 17.5v107q68 4 112 16t68.5 37.5t35 66.5t10.5 101v284q0 72 13 136.5t45 113.5t86 79t138 30h33v-96q-111 0 -153.5 -56.5t-42.5 -197.5v-283q0 -117 -46.5 -189.5t-144.5 -93.5v-2 q98 -16 144.5 -92t46.5 -192v-416q0 -141 43 -196.5t153 -55.5v-100h-33z" />
<glyph unicode="|" horiz-adv-x="579" d="M238 -514v2048h102v-2048h-102z" />
<glyph unicode="}" horiz-adv-x="659" d="M621 600q-66 -4 -108 -17.5t-68.5 -40t-37 -67.5t-10.5 -98v-416q0 -174 -62.5 -267t-219.5 -93h-33v100q111 0 154 55.5t43 196.5v416q0 117 46 192.5t144 91.5v2q-100 14 -145 88t-45 185v293q0 141 -43 197.5t-154 56.5v96h33q82 0 137 -30t87 -79t45 -113.5 t13 -136.5v-274q0 -63 10.5 -106.5t35 -70t67.5 -38.5t111 -16v-107v0z" />
<glyph unicode="~" d="M1001 1153q0 -123 -66.5 -202t-180.5 -79q-84 0 -132.5 37t-84 80t-71.5 80t-97 37q-74 0 -108 -55.5t-36 -137.5h-96v9q0 123 66.5 201.5t181.5 78.5q84 0 132 -37t84 -80t71.5 -79.5t97.5 -36.5q74 0 107.5 55t35.5 139h96v-10v0z" />
<glyph unicode="&#xa1;" horiz-adv-x="651" d="M229 -414l25 1116h104l25 -1116h-154zM403 936q0 -41 -27.5 -68.5t-68.5 -27.5t-69.5 27.5t-28.5 68.5t28.5 69.5t69.5 28.5t68.5 -28.5t27.5 -69.5z" />
<glyph unicode="&#xa2;" horiz-adv-x="935" d="M850 145q-47 -23 -108.5 -39t-133.5 -22v-223h-104v223q-197 16 -304.5 138t-107.5 345q0 98 29 183.5t82 150t129 104t172 52.5v186h104v-182q59 -2 118.5 -13.5t117.5 -33.5l-10 -117q-109 57 -252 57q-166 0 -261.5 -101t-95.5 -282q0 -76 17.5 -144.5t59.5 -120.5 t109.5 -82.5t168.5 -30.5q70 0 139 19t121 50l10 -117v0z" />
<glyph unicode="&#xa3;" horiz-adv-x="956" d="M88 0v92q63 51 106.5 98.5t69 96.5t35.5 102t10 119q0 31 -3 73t-11 107h-234v100h220q-10 66 -18.5 134.5t-8.5 121.5q0 170 95 262.5t274 92.5q47 0 101 -6.5t101 -22.5l-22 -113q-45 16 -96.5 25.5t-98.5 9.5q-106 0 -165.5 -58t-59.5 -169q0 -41 7 -113.5t22 -163.5 h331v-100h-319q12 -98 12 -166q0 -72 -9 -127t-30.5 -103t-59.5 -93t-95 -95q41 4 95 7.5t105 3.5h449v-115h-803z" />
<glyph unicode="&#xa4;" d="M791 684q0 53 -12.5 100t-40 82t-72.5 54.5t-111 19.5q-94 0 -156.5 -70.5t-62.5 -189.5q0 -55 11 -104.5t39 -86t73 -58t110 -21.5q43 0 83 19.5t71 55t49.5 86t18.5 113.5zM918 141l-170 228q-88 -59 -199 -60q-90 0 -160 33l-149 -201l-93 68l156 190 q-41 47 -64.5 116t-23.5 161q0 164 98 262l-163 203l88 67l155 -213q41 23 87 34t95 11q43 0 92.5 -9t92.5 -36l162 213l86 -69l-170 -209q35 -39 54 -99.5t19 -146.5q0 -154 -86 -250l183 -223z" />
<glyph unicode="&#xa5;" horiz-adv-x="1198" d="M696 569h320v-96h-352v-158h352v-96h-352v-219h-132v219h-350v96h350v158h-350v96h320l-402 813h146l246 -512q35 -68 60.5 -130t47.5 -126h2q29 72 58.5 141.5t64.5 137.5l244 489h137z" />
<glyph unicode="&#xa6;" horiz-adv-x="579" d="M238 -514v774h102v-774h-102zM238 780v754h102v-754h-102z" />
<glyph unicode="&#xa7;" horiz-adv-x="1050" d="M725 446q0 63 -30.5 124t-79 118t-105.5 114.5t-111 117.5q-57 -39 -80.5 -90.5t-23.5 -98.5q0 -63 30.5 -122.5t79 -118t105.5 -116t113 -116.5q55 39 78.5 89t23.5 99zM852 463q0 -162 -162 -285q37 -49 58.5 -101t21.5 -112q0 -59 -21.5 -113.5t-63.5 -95.5 t-104.5 -65.5t-144.5 -24.5q-33 0 -73.5 5t-81.5 18l12 110q47 -14 81 -20t72 -6q92 0 141.5 51t49.5 129q0 59 -35 115.5t-87 114t-112.5 116.5t-112.5 123.5t-87 136.5t-35 154q0 162 162 286q-37 51 -58.5 102.5t-21.5 110.5q0 61 20.5 114.5t60.5 93.5t100.5 62.5 t141.5 22.5q33 0 72 -4t72 -14l-12 -111q-41 12 -72 17.5t-68 5.5q-92 0 -137 -47t-45 -125q0 -59 35 -116.5t87 -115t112.5 -118t112.5 -125t87 -136t35 -153.5z" />
<glyph unicode="&#xa8;" horiz-adv-x="1118" d="M442 1348q0 -37 -25.5 -62.5t-62.5 -25.5q-39 0 -63.5 25.5t-24.5 62.5q0 39 24.5 63.5t63.5 24.5q37 0 62.5 -24.5t25.5 -63.5zM819 1348q0 -37 -25.5 -62.5t-62.5 -25.5t-62.5 25.5t-25.5 62.5q0 39 25.5 63.5t62.5 24.5t62.5 -24.5t25.5 -63.5z" />
<glyph unicode="&#xa9;" horiz-adv-x="1540" d="M965 356q-45 -16 -96.5 -23t-100.5 -7q-90 0 -150.5 26.5t-99.5 74.5t-55.5 111.5t-16.5 137.5q0 72 18.5 140.5t60.5 120.5t109.5 84t166.5 32q45 0 84 -7.5t73 -17.5l-8 -100q-76 33 -159 33q-63 0 -106.5 -21.5t-70 -59.5t-38 -88.5t-11.5 -107.5q0 -125 51.5 -193.5 t165.5 -68.5q92 0 172 31l11 -97v0zM1335 686q0 117 -45 222.5t-121.5 183t-180 124t-222.5 46.5t-222.5 -45.5t-180 -122t-121.5 -181t-45 -223.5t45 -224.5t121.5 -183t180 -123.5t222.5 -46t222.5 45t180 122.5t121.5 182t45 223.5zM1444 690q0 -141 -53.5 -264 t-145.5 -215t-215 -145.5t-264 -53.5q-145 0 -269 52.5t-215.5 143.5t-143.5 214t-52 264t53.5 264t145.5 214t216 144.5t265 53.5t265 -52.5t215 -143.5t144.5 -213t53.5 -263z" />
<glyph unicode="&#xaa;" horiz-adv-x="774" d="M510 1034q-154 0 -217.5 -38t-63.5 -99q0 -39 25 -61.5t72 -22.5q49 0 84.5 23.5t57 55.5t32 66.5t10.5 57.5v18zM127 485v103h557v-103h-557zM506 729q0 25 2 55.5t8 59.5l-4 2q-8 -25 -28.5 -47.5t-48 -41t-61.5 -29.5t-69 -11q-100 0 -146 45t-46 117q0 102 100 170.5 t297 66.5v43q0 20 -4 46t-19.5 46.5t-44 34.5t-75.5 14q-57 0 -111.5 -15t-97.5 -38l-8 107q47 20 108 31.5t125 11.5q70 0 116 -18.5t73.5 -49.5t39 -70.5t11.5 -82.5v-265v-129q0 -37 2 -53h-119z" />
<glyph unicode="&#xab;" horiz-adv-x="1007" d="M367 256l-238 346l242 352l92 -57l-199 -293l199 -289zM741 258l-256 344l258 350l93 -57l-215 -291l217 -289z" />
<glyph unicode="&#xac;" d="M866 223v332h-776v109h887v-441h-111z" />
<glyph unicode="&#xae;" horiz-adv-x="1148" d="M649 1190q0 35 -17.5 50t-62.5 15h-53v-145h33q57 0 78.5 25.5t21.5 54.5zM653 846l-131 209h-6v-209h-82v475h144q86 0 121.5 -34t35.5 -87q0 -59 -33.5 -95t-91.5 -42q8 -10 20.5 -27.5t26.5 -38.5l99 -151h-103zM907 1077q0 70 -25.5 131.5t-70.5 108.5t-106.5 74.5 t-131.5 27.5t-130 -26.5t-105 -71.5t-71.5 -106.5t-26.5 -131.5t26.5 -131t71.5 -108t105.5 -75t129.5 -28q70 0 131.5 27t106.5 72t70.5 106t25.5 131zM1006 1079q0 -88 -35 -165.5t-94.5 -136t-137 -93.5t-166.5 -35q-92 0 -169.5 34t-136 92.5t-91.5 136t-33 167.5 q0 88 34 167t92.5 138.5t136 93t167.5 33.5q92 0 171 -32.5t137.5 -91t91.5 -137.5t33 -171z" />
<glyph unicode="&#xaf;" horiz-adv-x="808" d="M160 1288v98h489v-98h-489z" />
<glyph unicode="&#xb0;" horiz-adv-x="751" d="M514 1260q0 25 -6 52t-22.5 49.5t-44 37t-68.5 14.5q-59 0 -99.5 -42t-40.5 -111q0 -72 39 -112t99 -40q61 0 102 42t41 110zM623 1262q0 -55 -21.5 -100.5t-57.5 -77t-82 -49t-95 -17.5q-111 0 -176.5 64.5t-65.5 172.5q0 57 21.5 103.5t56.5 79t81 49t93 16.5 q61 0 107 -19.5t77 -53t46.5 -76.5t15.5 -92z" />
<glyph unicode="&#xb1;" d="M92 0v109h942v-109h-942zM625 672v-422h-123v422h-412v108h412v418h123v-418h411v-108h-411z" />
<glyph unicode="&#xb2;" horiz-adv-x="708" d="M86 754v92l221 219q84 86 119 149.5t35 124.5q0 74 -39 121t-123 47q-51 0 -99 -14t-83 -37l-21 92q43 23 102.5 40.5t125.5 17.5q129 0 196.5 -69t67.5 -177q0 -88 -41 -167t-133 -167l-170 -168q76 4 174 4h211v-108h-543z" />
<glyph unicode="&#xb3;" horiz-adv-x="686" d="M584 1004q0 -59 -26 -107.5t-72 -83.5t-107.5 -54.5t-134.5 -19.5q-37 0 -79 5.5t-81 13.5l16 104q33 -10 75 -17t85 -7q94 0 145.5 43t51.5 112q0 78 -77 120t-239 22v96q137 0 211 33.5t74 121.5q0 59 -39 91t-111 32q-45 0 -84.5 -10t-78.5 -26l-15 96q100 37 203 37 q115 0 182.5 -52.5t67.5 -152.5q0 -152 -148 -199q84 -14 132.5 -70t48.5 -128z" />
<glyph unicode="&#xb4;" horiz-adv-x="788" d="M299 1184l-66 67l242 258l86 -84z" />
<glyph unicode="&#xb6;" horiz-adv-x="1153" d="M586 532q-111 0 -192 34t-135 92.5t-80.5 137t-26.5 167.5q0 88 30.5 164.5t88 133t137 89t178.5 32.5v-850v0zM862 1286v-1483h-280v97h155v1482h277v-96h-152z" />
<glyph unicode="&#xb7;" horiz-adv-x="428" d="M319 608q0 -45 -30.5 -74.5t-73.5 -29.5q-45 0 -74.5 29.5t-29.5 74.5t29.5 75t74.5 30q43 0 73.5 -30t30.5 -75z" />
<glyph unicode="&#xb8;" horiz-adv-x="819" d="M532 -84q78 -98 60.5 -194.5t-105.5 -204.5h-114q43 53 68.5 98t31.5 85t-7 79t-50 82l116 55v0z" />
<glyph unicode="&#xb9;" horiz-adv-x="536" d="M250 754v721l-191 -76l-22 106l237 86h99v-837h-123z" />
<glyph unicode="&#xba;" horiz-adv-x="849" d="M600 1069q0 41 -8 81t-28.5 72.5t-55.5 52t-86 19.5q-35 0 -67.5 -13t-59.5 -41t-42 -72t-15 -107q0 -43 7 -85t26.5 -76t54 -55.5t88.5 -21.5q84 0 135 59.5t51 186.5zM141 485v103h559v-103h-559zM729 1069q0 -78 -23.5 -142.5t-66.5 -110.5t-103.5 -71.5t-132.5 -25.5 q-133 0 -212.5 77.5t-79.5 264.5q0 72 23.5 134t64.5 107.5t99 71t128 25.5q49 0 103.5 -13.5t98.5 -50.5t72.5 -101.5t28.5 -164.5z" />
<glyph unicode="&#xbb;" horiz-adv-x="1007" d="M260 258l-92 55l217 293l-213 287l94 59l254 -344zM635 256l-92 57l200 293l-198 289l96 59l238 -346z" />
<glyph unicode="&#xbc;" horiz-adv-x="1419" d="M1077 573l-213 -337q20 0 50 1t61 1h102v335zM276 719v555l-147 -60l-20 99l188 69h96v-663h-117zM1190 145v-145h-113v145h-317l-6 76l278 443h158v-426h110v-93h-110zM238 -41l-86 61l964 1403l88 -61z" />
<glyph unicode="&#xbd;" horiz-adv-x="1476" d="M276 719v555l-147 -60l-20 99l188 69h96v-663h-117zM238 -41l-86 61l964 1403l88 -61zM889 0v86l168 166q68 66 92.5 113t24.5 94q0 53 -30 86t-89 33q-41 0 -77 -11.5t-65 -29.5l-16 94q37 16 84 28.5t100 12.5q109 0 161 -54.5t52 -138.5q0 -66 -32.5 -127t-104.5 -133 l-125 -119q59 4 133 4h160v-104h-436z" />
<glyph unicode="&#xbe;" horiz-adv-x="1458" d="M1116 573l-213 -337q20 0 50 1t61 1h102v335zM518 922q0 -98 -71.5 -155.5t-188.5 -57.5q-63 0 -125 12l14 94q27 -10 53.5 -15t59.5 -5q59 0 99 32.5t40 87.5t-53 87t-182 16v82q111 0 169 27.5t58 93.5q0 41 -27.5 63.5t-76.5 22.5q-35 0 -68 -8.5t-61 -22.5l-13 88 q41 16 82 22.5t84 6.5q92 0 143.5 -41t51.5 -119q0 -123 -121 -160q63 -6 98 -52t35 -99zM1229 145v-145h-113v145h-315l-8 76l278 443h158v-426h110v-93h-110zM279 -41l-89 61l967 1403l88 -61z" />
<glyph unicode="&#xbf;" horiz-adv-x="903" d="M692 -426q-125 6 -226 38t-173 84t-111 118.5t-39 140.5q0 84 32 143.5t76 107.5t92 93t82 100.5t45 127t-19 175.5h127q33 -104 23.5 -181t-42.5 -135t-80 -105.5t-90 -94.5t-73.5 -98t-30.5 -119q0 -53 30.5 -101t86 -86t133 -61.5t174.5 -27.5zM612 936 q0 -41 -28.5 -68.5t-69.5 -27.5t-69.5 27.5t-28.5 68.5t28.5 69.5t69.5 28.5t69.5 -28.5t28.5 -69.5z" />
<glyph unicode="&#xc0;" horiz-adv-x="1245" d="M680 1055q-18 49 -33.5 94t-28.5 90h-2q-14 -45 -29.5 -91t-31.5 -89l-219 -600h561zM1061 0l-125 352h-637l-129 -352h-137l520 1382h141l518 -1382h-151zM698 1499l-352 119l47 111l336 -152z" />
<glyph unicode="&#xc1;" horiz-adv-x="1245" d="M680 1055q-18 49 -33.5 94t-28.5 90h-2q-14 -45 -29.5 -91t-31.5 -89l-219 -600h561zM1061 0l-125 352h-637l-129 -352h-137l520 1382h141l518 -1382h-151zM528 1499l-30 78l334 152l47 -111z" />
<glyph unicode="&#xc2;" horiz-adv-x="1245" d="M680 1055q-18 49 -33.5 94t-28.5 90h-2q-14 -45 -29.5 -91t-31.5 -89l-219 -600h561zM1061 0l-125 352h-637l-129 -352h-137l520 1382h141l518 -1382h-151zM887 1495l-275 131l-264 -131l-41 80l311 170l318 -164z" />
<glyph unicode="&#xc3;" horiz-adv-x="1245" d="M680 1055q-18 49 -33.5 94t-28.5 90h-2q-14 -45 -29.5 -91t-31.5 -89l-219 -600h561zM1061 0l-125 352h-637l-129 -352h-137l520 1382h141l518 -1382h-151zM975 1653q-39 -66 -92 -101.5t-119 -35.5q-51 0 -88 17t-65.5 38.5t-59.5 40t-65 18.5q-35 0 -71 -24.5 t-63 -71.5l-71 53q82 137 211 137q51 0 88 -17t66.5 -38.5t58 -39t63.5 -17.5q78 0 135 94l72 -53v0z" />
<glyph unicode="&#xc4;" horiz-adv-x="1245" d="M680 1055q-18 49 -33.5 94t-28.5 90h-2q-14 -45 -29.5 -91t-31.5 -89l-219 -600h561zM1061 0l-125 352h-637l-129 -352h-137l520 1382h141l518 -1382h-151zM488 1591q0 -35 -25 -60.5t-61 -25.5q-35 0 -60.5 25.5t-25.5 60.5q0 37 25.5 61.5t60.5 24.5q37 0 61.5 -24.5 t24.5 -61.5zM924 1591q0 -35 -25.5 -60.5t-60.5 -25.5q-37 0 -61.5 25.5t-24.5 60.5q0 37 24.5 61.5t61.5 24.5q35 0 60.5 -24.5t25.5 -61.5z" />
<glyph unicode="&#xc5;" horiz-adv-x="1245" d="M680 1055q-18 49 -33.5 94t-28.5 90h-2q-14 -45 -29.5 -91t-31.5 -89l-219 -600h561zM1061 0l-125 352h-637l-129 -352h-137l520 1382h141l518 -1382h-151zM737 1656q0 45 -30.5 78t-75.5 33q-47 0 -78 -32.5t-31 -78.5q0 -47 30.5 -78.5t78.5 -31.5q45 0 75.5 31.5 t30.5 78.5zM833 1661q0 -39 -16.5 -76t-45 -64.5t-65.5 -44t-78 -16.5q-86 0 -143 53t-57 139q0 41 16.5 78t45 63.5t65.5 42t78 15.5q86 0 143 -54t57 -136z" />
<glyph unicode="&#xc6;" horiz-adv-x="1591" d="M739 1272h-4q-25 -51 -55.5 -111.5t-85.5 -163.5l-299 -536h444v811zM739 0v354h-497l-195 -354h-141l770 1382h127h604v-106h-537v-510h519v-104h-519v-553h562v-109h-693z" />
<glyph unicode="&#xc7;" horiz-adv-x="1218" d="M1122 66q-82 -35 -183 -57.5t-214 -22.5q-156 0 -271.5 46t-192.5 134t-116 214t-39 284q0 154 38 287.5t118 233t206 156t304 56.5q82 0 167 -12.5t163 -34.5l-25 -121q-162 57 -334 57q-133 0 -227 -48t-153.5 -130t-87 -191.5t-27.5 -230.5q0 -279 126 -432.5 t390 -153.5q86 0 175 21.5t157 56.5l26 -112v0zM727 -84q78 -98 60.5 -194.5t-105.5 -204.5h-114q43 53 68.5 98t31.5 85t-7 79t-50 82l116 55v0z" />
<glyph unicode="&#xc8;" horiz-adv-x="1040" d="M197 0v1382h682v-106h-551v-510h524v-104h-524v-553h551v-109h-682zM618 1499l-352 119l47 111l336 -152z" />
<glyph unicode="&#xc9;" horiz-adv-x="1040" d="M197 0v1382h682v-106h-551v-510h524v-104h-524v-553h551v-109h-682zM444 1499l-30 78l334 152l47 -111z" />
<glyph unicode="&#xca;" horiz-adv-x="1040" d="M197 0v1382h682v-106h-551v-510h524v-104h-524v-553h551v-109h-682zM803 1495l-275 131l-264 -131l-41 80l311 170l318 -164z" />
<glyph unicode="&#xcb;" horiz-adv-x="1040" d="M197 0v1382h682v-106h-551v-510h524v-104h-524v-553h551v-109h-682zM394 1591q0 -35 -25 -60.5t-61 -25.5q-35 0 -60.5 25.5t-25.5 60.5q0 37 25.5 61.5t60.5 24.5q37 0 61.5 -24.5t24.5 -61.5zM830 1591q0 -35 -25.5 -60.5t-60.5 -25.5q-37 0 -61.5 25.5t-24.5 60.5 q0 37 24.5 61.5t61.5 24.5q35 0 60.5 -24.5t25.5 -61.5z" />
<glyph unicode="&#xcc;" horiz-adv-x="524" d="M197 0v1382h131v-1382h-131zM340 1499l-352 119l47 111l336 -152z" />
<glyph unicode="&#xcd;" horiz-adv-x="524" d="M197 0v1382h131v-1382h-131zM194 1499l-30 78l334 152l47 -111z" />
<glyph unicode="&#xce;" horiz-adv-x="524" d="M197 0v1382h131v-1382h-131zM533 1495l-275 131l-264 -131l-41 80l311 170l318 -164z" />
<glyph unicode="&#xcf;" horiz-adv-x="524" d="M197 0v1382h131v-1382h-131zM131 1591q0 -35 -25 -60.5t-61 -25.5q-35 0 -60.5 25.5t-25.5 60.5q0 37 25.5 61.5t60.5 24.5q37 0 61.5 -24.5t24.5 -61.5zM567 1591q0 -35 -25.5 -60.5t-60.5 -25.5q-37 0 -61.5 25.5t-24.5 60.5q0 37 24.5 61.5t61.5 24.5q35 0 60.5 -24.5 t25.5 -61.5z" />
<glyph unicode="&#xd0;" horiz-adv-x="1421" d="M1178 692q0 297 -150.5 443.5t-443.5 146.5q-61 0 -128 -2t-112 -4v-512h326v-102h-326v-547q6 0 30.5 -3t57.5 -5.5t66.5 -3.5t56.5 -1q137 0 252 35t197.5 106.5t128 183t45.5 265.5zM1315 700q0 -178 -58.5 -311t-162 -220t-246.5 -131t-313 -44q-102 0 -178 4t-144 2 v662h-209v102h209v618q80 0 181.5 3.5t205.5 3.5q170 0 304 -42t226.5 -127t138.5 -215.5t46 -304.5z" />
<glyph unicode="&#xd1;" horiz-adv-x="1462" d="M1087 0l-616 975q-43 70 -83 136.5t-77 139.5q2 -51 5 -162.5t5.5 -228.5t4.5 -358v-502h-129v1382h176l610 -962q43 -68 84 -136.5t82 -144.5q-2 78 -5 201t-5 257t-3 225t-1 204v356h131v-1382h-179zM1077 1653q-39 -66 -92 -101.5t-119 -35.5q-51 0 -88 17t-65.5 38.5 t-59.5 40t-65 18.5q-35 0 -71 -24.5t-63 -71.5l-71 53q82 137 211 137q51 0 88 -17t66.5 -38.5t58 -39t63.5 -17.5q78 0 135 94l72 -53v0z" />
<glyph unicode="&#xd2;" horiz-adv-x="1445" d="M1206 682q0 283 -127 444.5t-356 161.5q-96 0 -184 -39t-155 -113.5t-105.5 -183t-38.5 -247.5q0 -135 29.5 -247t89 -192t150.5 -125t212 -45q96 0 184 38t155.5 113t106.5 184.5t39 250.5zM1348 705q0 -174 -51.5 -308.5t-138.5 -226.5t-204.5 -139t-248.5 -47 q-154 0 -267.5 50t-189.5 141t-113 219t-37 284q0 174 51.5 308t138.5 226.5t203.5 139.5t247.5 47q141 0 255 -46t193 -135.5t120 -218t41 -294.5zM782 1499l-352 119l47 111l336 -152z" />
<glyph unicode="&#xd3;" horiz-adv-x="1445" d="M1206 682q0 283 -127 444.5t-356 161.5q-96 0 -184 -39t-155 -113.5t-105.5 -183t-38.5 -247.5q0 -135 29.5 -247t89 -192t150.5 -125t212 -45q96 0 184 38t155.5 113t106.5 184.5t39 250.5zM1348 705q0 -174 -51.5 -308.5t-138.5 -226.5t-204.5 -139t-248.5 -47 q-154 0 -267.5 50t-189.5 141t-113 219t-37 284q0 174 51.5 308t138.5 226.5t203.5 139.5t247.5 47q141 0 255 -46t193 -135.5t120 -218t41 -294.5zM671 1499l-30 78l334 152l47 -111z" />
<glyph unicode="&#xd4;" horiz-adv-x="1445" d="M1206 682q0 283 -127 444.5t-356 161.5q-96 0 -184 -39t-155 -113.5t-105.5 -183t-38.5 -247.5q0 -135 29.5 -247t89 -192t150.5 -125t212 -45q96 0 184 38t155.5 113t106.5 184.5t39 250.5zM1348 705q0 -174 -51.5 -308.5t-138.5 -226.5t-204.5 -139t-248.5 -47 q-154 0 -267.5 50t-189.5 141t-113 219t-37 284q0 174 51.5 308t138.5 226.5t203.5 139.5t247.5 47q141 0 255 -46t193 -135.5t120 -218t41 -294.5zM998 1495l-275 131l-264 -131l-41 80l311 170l318 -164z" />
<glyph unicode="&#xd5;" horiz-adv-x="1445" d="M1206 682q0 283 -127 444.5t-356 161.5q-96 0 -184 -39t-155 -113.5t-105.5 -183t-38.5 -247.5q0 -135 29.5 -247t89 -192t150.5 -125t212 -45q96 0 184 38t155.5 113t106.5 184.5t39 250.5zM1348 705q0 -174 -51.5 -308.5t-138.5 -226.5t-204.5 -139t-248.5 -47 q-154 0 -267.5 50t-189.5 141t-113 219t-37 284q0 174 51.5 308t138.5 226.5t203.5 139.5t247.5 47q141 0 255 -46t193 -135.5t120 -218t41 -294.5zM1067 1653q-39 -66 -92 -101.5t-119 -35.5q-51 0 -88 17t-65.5 38.5t-59.5 40t-65 18.5q-35 0 -71 -24.5t-63 -71.5l-71 53 q82 137 211 137q51 0 88 -17t66.5 -38.5t58 -39t63.5 -17.5q78 0 135 94l72 -53v0z" />
<glyph unicode="&#xd6;" horiz-adv-x="1445" d="M1206 682q0 283 -127 444.5t-356 161.5q-96 0 -184 -39t-155 -113.5t-105.5 -183t-38.5 -247.5q0 -135 29.5 -247t89 -192t150.5 -125t212 -45q96 0 184 38t155.5 113t106.5 184.5t39 250.5zM1348 705q0 -174 -51.5 -308.5t-138.5 -226.5t-204.5 -139t-248.5 -47 q-154 0 -267.5 50t-189.5 141t-113 219t-37 284q0 174 51.5 308t138.5 226.5t203.5 139.5t247.5 47q141 0 255 -46t193 -135.5t120 -218t41 -294.5zM598 1591q0 -35 -25 -60.5t-61 -25.5q-35 0 -60.5 25.5t-25.5 60.5q0 37 25.5 61.5t60.5 24.5q37 0 61.5 -24.5t24.5 -61.5z M1034 1591q0 -35 -25.5 -60.5t-60.5 -25.5q-37 0 -61.5 25.5t-24.5 60.5q0 37 24.5 61.5t61.5 24.5q35 0 60.5 -24.5t25.5 -61.5z" />
<glyph unicode="&#xd7;" d="M924 170l-363 362l-364 -362l-72 72l362 364l-362 363l78 78l362 -363l365 363l71 -72l-362 -365l362 -362z" />
<glyph unicode="&#xd8;" horiz-adv-x="1445" d="M1348 698q0 -174 -49.5 -307t-137.5 -224t-206.5 -137t-256.5 -46q-53 0 -101 5t-91 17l-82 -215l-102 39l84 215q-162 82 -235 250t-73 383q0 174 51.5 308t138.5 226.5t203.5 139.5t247.5 47q47 0 95.5 -4t89.5 -15l77 203l103 -39l-78 -201q158 -72 240 -235.5 t82 -409.5zM1208 678q0 188 -53 330.5t-178 218.5l-426 -1108q39 -14 80 -18.5t80 -4.5q106 0 197 38t158 111.5t104.5 182.5t37.5 250zM881 1270q-29 10 -71 14t-87 4q-96 0 -184 -39t-155 -112.5t-106.5 -182t-39.5 -249.5q0 -195 53 -331t164 -208z" />
<glyph unicode="&#xd9;" horiz-adv-x="1435" d="M1239 522q0 -264 -134 -401t-405 -137q-160 0 -258 41t-153.5 107.5t-73.5 151.5t-18 171v927h131v-913q0 -78 15 -146.5t58 -119.5t118 -82t194 -31q98 0 173 22.5t125 71.5t74.5 129t24.5 197v872h129v-860v0zM768 1499l-352 119l47 111l336 -152z" />
<glyph unicode="&#xda;" horiz-adv-x="1435" d="M1239 522q0 -264 -134 -401t-405 -137q-160 0 -258 41t-153.5 107.5t-73.5 151.5t-18 171v927h131v-913q0 -78 15 -146.5t58 -119.5t118 -82t194 -31q98 0 173 22.5t125 71.5t74.5 129t24.5 197v872h129v-860v0zM692 1499l-30 78l334 152l47 -111z" />
<glyph unicode="&#xdb;" horiz-adv-x="1435" d="M1239 522q0 -264 -134 -401t-405 -137q-160 0 -258 41t-153.5 107.5t-73.5 151.5t-18 171v927h131v-913q0 -78 15 -146.5t58 -119.5t118 -82t194 -31q98 0 173 22.5t125 71.5t74.5 129t24.5 197v872h129v-860v0zM989 1495l-275 131l-264 -131l-41 80l311 170l318 -164z " />
<glyph unicode="&#xdc;" horiz-adv-x="1435" d="M1239 522q0 -264 -134 -401t-405 -137q-160 0 -258 41t-153.5 107.5t-73.5 151.5t-18 171v927h131v-913q0 -78 15 -146.5t58 -119.5t118 -82t194 -31q98 0 173 22.5t125 71.5t74.5 129t24.5 197v872h129v-860v0zM584 1591q0 -35 -25 -60.5t-61 -25.5q-35 0 -60.5 25.5 t-25.5 60.5q0 37 25.5 61.5t60.5 24.5q37 0 61.5 -24.5t24.5 -61.5zM1020 1591q0 -35 -25.5 -60.5t-60.5 -25.5q-37 0 -61.5 25.5t-24.5 60.5q0 37 24.5 61.5t61.5 24.5q35 0 60.5 -24.5t25.5 -61.5z" />
<glyph unicode="&#xdd;" horiz-adv-x="1062" d="M592 504v-504h-131v504l-432 878h145l246 -514q31 -63 58.5 -125.5t51.5 -124.5h2q27 66 59 134.5t64 136.5l240 493h139zM501 1499l-30 78l334 152l47 -111z" />
<glyph unicode="&#xde;" horiz-adv-x="1067" d="M887 741q0 72 -22.5 130.5t-72 100.5t-126 64.5t-183.5 22.5q-37 0 -76.5 -3t-78.5 -9v-637q35 -4 73.5 -7.5t83.5 -3.5q193 0 297.5 89t104.5 253zM1022 754q0 -106 -42 -192.5t-115.5 -146t-176 -92t-221.5 -32.5q-41 0 -74 2t-65 6v-299h-131v1382h131v-221q47 4 92 5 t94 1q242 0 375 -104t133 -309z" />
<glyph unicode="&#xdf;" horiz-adv-x="1191" d="M1096 295q0 -66 -27 -123t-78 -99t-124.5 -65.5t-168.5 -23.5q-111 0 -192 16l14 123q86 -29 187 -29q135 0 196.5 54.5t61.5 125.5q0 61 -32 101.5t-80 72t-103.5 59.5t-103.5 65.5t-79.5 91t-31.5 135.5q0 61 22.5 103t57 74t73.5 56.5t74 52t57.5 61.5t22.5 85 q0 86 -62.5 128t-161.5 42q-141 0 -216.5 -82t-75.5 -277v-1042h-129v1032q0 131 32.5 221t91 145.5t138.5 80t172 24.5q84 0 148.5 -20.5t107.5 -55t64.5 -82t21.5 -100.5q0 -72 -22.5 -118t-57.5 -78.5t-74 -56t-73.5 -48t-57 -56.5t-22.5 -79q0 -59 31.5 -98t79.5 -70 t103.5 -58.5t103.5 -65.5t80 -90t32 -132z" />
<glyph unicode="&#xe0;" horiz-adv-x="1062" d="M735 494q-145 0 -240.5 -19.5t-151.5 -50.5t-79.5 -72t-23.5 -84q0 -78 48 -128t128 -50q72 0 131 33t101 87t64.5 121.5t22.5 137.5v25zM737 0q0 61 2 119.5t11 103.5l-5 2q-37 -100 -131 -170.5t-229 -70.5q-119 0 -197.5 70.5t-78.5 193.5q0 76 39.5 139.5 t120.5 109.5t199 70.5t267 26.5v78q0 125 -55 191.5t-186 66.5q-70 0 -155 -21.5t-146 -56.5l-33 109q72 33 164 53t190 20q102 0 166.5 -24.5t102.5 -68.5t59.5 -103.5t21.5 -128.5v-394q0 -78 1 -161.5t3 -153.5h-131zM541 1184l-263 241l86 84l244 -258z" />
<glyph unicode="&#xe1;" horiz-adv-x="1062" d="M735 494q-145 0 -240.5 -19.5t-151.5 -50.5t-79.5 -72t-23.5 -84q0 -78 48 -128t128 -50q72 0 131 33t101 87t64.5 121.5t22.5 137.5v25zM737 0q0 61 2 119.5t11 103.5l-5 2q-37 -100 -131 -170.5t-229 -70.5q-119 0 -197.5 70.5t-78.5 193.5q0 76 39.5 139.5 t120.5 109.5t199 70.5t267 26.5v78q0 125 -55 191.5t-186 66.5q-70 0 -155 -21.5t-146 -56.5l-33 109q72 33 164 53t190 20q102 0 166.5 -24.5t102.5 -68.5t59.5 -103.5t21.5 -128.5v-394q0 -78 1 -161.5t3 -153.5h-131zM508 1184l-66 67l242 258l86 -84z" />
<glyph unicode="&#xe2;" horiz-adv-x="1062" d="M735 494q-145 0 -240.5 -19.5t-151.5 -50.5t-79.5 -72t-23.5 -84q0 -78 48 -128t128 -50q72 0 131 33t101 87t64.5 121.5t22.5 137.5v25zM737 0q0 61 2 119.5t11 103.5l-5 2q-37 -100 -131 -170.5t-229 -70.5q-119 0 -197.5 70.5t-78.5 193.5q0 76 39.5 139.5 t120.5 109.5t199 70.5t267 26.5v78q0 125 -55 191.5t-186 66.5q-70 0 -155 -21.5t-146 -56.5l-33 109q72 33 164 53t190 20q102 0 166.5 -24.5t102.5 -68.5t59.5 -103.5t21.5 -128.5v-394q0 -78 1 -161.5t3 -153.5h-131zM715 1184l-199 178l-198 -178l-62 61l264 264 l263 -260z" />
<glyph unicode="&#xe3;" horiz-adv-x="1062" d="M735 494q-145 0 -240.5 -19.5t-151.5 -50.5t-79.5 -72t-23.5 -84q0 -78 48 -128t128 -50q72 0 131 33t101 87t64.5 121.5t22.5 137.5v25zM737 0q0 61 2 119.5t11 103.5l-5 2q-37 -100 -131 -170.5t-229 -70.5q-119 0 -197.5 70.5t-78.5 193.5q0 76 39.5 139.5 t120.5 109.5t199 70.5t267 26.5v78q0 125 -55 191.5t-186 66.5q-70 0 -155 -21.5t-146 -56.5l-33 109q72 33 164 53t190 20q102 0 166.5 -24.5t102.5 -68.5t59.5 -103.5t21.5 -128.5v-394q0 -78 1 -161.5t3 -153.5h-131zM846 1380q-37 -68 -89 -104.5t-118 -36.5 q-49 0 -84 18.5t-64.5 40t-57 40t-60.5 18.5q-72 0 -127 -99l-70 58q37 68 93.5 104.5t113.5 36.5q49 0 84 -18.5t63.5 -40t56.5 -41t62 -19.5q74 0 129 99l68 -56v0z" />
<glyph unicode="&#xe4;" horiz-adv-x="1062" d="M735 494q-145 0 -240.5 -19.5t-151.5 -50.5t-79.5 -72t-23.5 -84q0 -78 48 -128t128 -50q72 0 131 33t101 87t64.5 121.5t22.5 137.5v25zM737 0q0 61 2 119.5t11 103.5l-5 2q-37 -100 -131 -170.5t-229 -70.5q-119 0 -197.5 70.5t-78.5 193.5q0 76 39.5 139.5 t120.5 109.5t199 70.5t267 26.5v78q0 125 -55 191.5t-186 66.5q-70 0 -155 -21.5t-146 -56.5l-33 109q72 33 164 53t190 20q102 0 166.5 -24.5t102.5 -68.5t59.5 -103.5t21.5 -128.5v-394q0 -78 1 -161.5t3 -153.5h-131zM415 1348q0 -37 -25.5 -62.5t-62.5 -25.5 q-39 0 -63.5 25.5t-24.5 62.5q0 39 24.5 63.5t63.5 24.5q37 0 62.5 -24.5t25.5 -63.5zM792 1348q0 -37 -25.5 -62.5t-62.5 -25.5t-62.5 25.5t-25.5 62.5q0 39 25.5 63.5t62.5 24.5t62.5 -24.5t25.5 -63.5z" />
<glyph unicode="&#xe5;" horiz-adv-x="1062" d="M735 494q-145 0 -240.5 -19.5t-151.5 -50.5t-79.5 -72t-23.5 -84q0 -78 48 -128t128 -50q72 0 131 33t101 87t64.5 121.5t22.5 137.5v25zM737 0q0 61 2 119.5t11 103.5l-5 2q-37 -100 -131 -170.5t-229 -70.5q-119 0 -197.5 70.5t-78.5 193.5q0 76 39.5 139.5 t120.5 109.5t199 70.5t267 26.5v78q0 125 -55 191.5t-186 66.5q-70 0 -155 -21.5t-146 -56.5l-33 109q72 33 164 53t190 20q102 0 166.5 -24.5t102.5 -68.5t59.5 -103.5t21.5 -128.5v-394q0 -78 1 -161.5t3 -153.5h-131zM645 1349q0 51 -32.5 86t-81.5 35q-51 0 -86 -35 t-35 -86q0 -49 34.5 -85t86.5 -36q49 0 81.5 36t32.5 85zM741 1349q-2 -41 -18 -78.5t-48 -66.5t-66.5 -45.5t-77.5 -16.5q-94 0 -156 57.5t-62 149.5q0 43 17.5 81t48.5 66.5t70 45t82 16.5q92 0 151 -60.5t59 -148.5z" />
<glyph unicode="&#xe6;" horiz-adv-x="1660" d="M735 494q-145 0 -240.5 -19.5t-151.5 -50.5t-79.5 -72t-23.5 -84q0 -78 48 -128t128 -50q72 0 131 33t101 87t64.5 121.5t22.5 137.5v25zM1419 649q4 129 -66.5 208t-195.5 79q-113 0 -188.5 -76t-98.5 -211h549v0zM1556 625q0 -33 -2 -74h-692q-4 -121 16.5 -208 t65.5 -142.5t112.5 -81t155.5 -25.5q76 0 150 15.5t139 44.5l25 -109q-72 -29 -158 -45t-182 -16q-90 0 -159 19.5t-118 53t-80.5 79.5t-48.5 97h-2q-20 -47 -57 -92t-87 -79.5t-112.5 -56t-136.5 -21.5q-119 0 -197.5 70.5t-78.5 193.5q0 76 39.5 139.5t118.5 109.5 t197 71.5t271 25.5v78q0 125 -52 191.5t-189 66.5q-74 0 -157 -21.5t-144 -56.5l-33 109q72 33 164 53t190 20q119 0 199 -42t112 -138h2q47 76 134.5 128t203.5 52q104 0 178 -32.5t122 -89t69.5 -131t21.5 -156.5z" />
<glyph unicode="&#xe7;" horiz-adv-x="907" d="M848 47q-68 -29 -151 -44t-167 -15q-80 0 -158.5 20.5t-140 74.5t-99.5 148.5t-38 241.5q0 127 31 229.5t91 175t149.5 112.5t205.5 40q158 0 271 -47l-29 -106q-53 20 -121.5 35.5t-140.5 15.5q-78 0 -137.5 -32t-99.5 -89t-61.5 -136t-21.5 -171q0 -82 14.5 -156 t50.5 -129t99.5 -87t161.5 -32q72 0 138.5 14.5t125.5 41.5l27 -105v0zM557 -84q78 -98 60.5 -194.5t-105.5 -204.5h-114q43 53 68.5 98t31.5 85t-7 79t-50 82l116 55v0z" />
<glyph unicode="&#xe8;" horiz-adv-x="1030" d="M788 647q0 127 -69.5 206t-192.5 79q-113 0 -189.5 -76t-98.5 -221h550v12zM926 625v-28.5t-4 -59.5h-691q-4 -106 16.5 -193.5t64.5 -143t112 -81t158 -25.5q74 0 147.5 15.5t138.5 44.5l25 -109q-72 -29 -158 -45t-182 -16q-223 0 -341 126t-118 396q0 113 30 210 t87 167.5t138 110.5t186 40q104 0 177.5 -32.5t122 -91t70 -131t21.5 -154.5zM545 1184l-263 241l86 84l244 -258z" />
<glyph unicode="&#xe9;" horiz-adv-x="1030" d="M788 647q0 127 -69.5 206t-192.5 79q-113 0 -189.5 -76t-98.5 -221h550v12zM926 625v-28.5t-4 -59.5h-691q-4 -106 16.5 -193.5t64.5 -143t112 -81t158 -25.5q74 0 147.5 15.5t138.5 44.5l25 -109q-72 -29 -158 -45t-182 -16q-223 0 -341 126t-118 396q0 113 30 210 t87 167.5t138 110.5t186 40q104 0 177.5 -32.5t122 -91t70 -131t21.5 -154.5zM510 1184l-66 67l242 258l86 -84z" />
<glyph unicode="&#xea;" horiz-adv-x="1030" d="M788 647q0 127 -69.5 206t-192.5 79q-113 0 -189.5 -76t-98.5 -221h550v12zM926 625v-28.5t-4 -59.5h-691q-4 -106 16.5 -193.5t64.5 -143t112 -81t158 -25.5q74 0 147.5 15.5t138.5 44.5l25 -109q-72 -29 -158 -45t-182 -16q-223 0 -341 126t-118 396q0 113 30 210 t87 167.5t138 110.5t186 40q104 0 177.5 -32.5t122 -91t70 -131t21.5 -154.5zM727 1184l-199 178l-198 -178l-62 61l264 264l263 -260z" />
<glyph unicode="&#xeb;" horiz-adv-x="1030" d="M788 647q0 127 -69.5 206t-192.5 79q-113 0 -189.5 -76t-98.5 -221h550v12zM926 625v-28.5t-4 -59.5h-691q-4 -106 16.5 -193.5t64.5 -143t112 -81t158 -25.5q74 0 147.5 15.5t138.5 44.5l25 -109q-72 -29 -158 -45t-182 -16q-223 0 -341 126t-118 396q0 113 30 210 t87 167.5t138 110.5t186 40q104 0 177.5 -32.5t122 -91t70 -131t21.5 -154.5zM432 1348q0 -37 -25.5 -62.5t-62.5 -25.5q-39 0 -63.5 25.5t-24.5 62.5q0 39 24.5 63.5t63.5 24.5q37 0 62.5 -24.5t25.5 -63.5zM809 1348q0 -37 -25.5 -62.5t-62.5 -25.5t-62.5 25.5t-25.5 62.5 q0 39 25.5 63.5t62.5 24.5t62.5 -24.5t25.5 -63.5z" />
<glyph unicode="&#xec;" horiz-adv-x="522" d="M197 0v1018h129v-1018h-129zM289 1171l-235 273l92 74l215 -285z" />
<glyph unicode="&#xed;" horiz-adv-x="522" d="M197 0v1018h129v-1018h-129zM227 1171l-69 62l213 285l92 -74z" />
<glyph unicode="&#xee;" horiz-adv-x="522" d="M197 0v1018h129v-1018h-129zM438 1184l-178 178l-174 -178l-63 61l241 262l238 -258z" />
<glyph unicode="&#xef;" horiz-adv-x="522" d="M197 0v1018h129v-1018h-129zM180 1348q0 -37 -25.5 -62.5t-62.5 -25.5t-62.5 25.5t-25.5 62.5q0 39 25.5 63.5t62.5 24.5t62.5 -24.5t25.5 -63.5zM522 1348q0 -37 -25.5 -62.5t-62.5 -25.5t-62.5 25.5t-25.5 62.5q0 39 26 63.5t62 24.5q37 0 62.5 -24.5t25.5 -63.5z" />
<glyph unicode="&#xf0;" horiz-adv-x="1105" d="M874 535q0 180 -80.5 287.5t-240.5 107.5q-63 0 -121.5 -24.5t-104.5 -76t-74 -129t-28 -184.5q0 -205 89 -315.5t247 -110.5q63 0 120.5 24.5t100.5 78t67.5 137.5t24.5 205zM1010 551q0 -145 -36 -251.5t-99.5 -177.5t-149.5 -104.5t-186 -33.5t-183.5 31.5t-141.5 96 t-91 163t-33 231.5q0 106 32 202.5t92 169t148.5 114.5t202.5 42q76 0 146.5 -26.5t105.5 -87.5q-20 39 -39.5 71.5t-29.5 48.5q-29 51 -64 99.5t-84 101.5l-221 -100l-60 76l209 94q-35 35 -78.5 70.5t-95.5 76.5l133 58q43 -35 84 -72t80 -78l221 96l60 -76l-213 -94 q135 -162 213 -349t78 -392z" />
<glyph unicode="&#xf1;" horiz-adv-x="1185" d="M860 0v659q0 127 -44 199t-163 72q-72 0 -132 -33t-103 -92.5t-67.5 -141t-24.5 -178.5v-485h-129v1018h131q0 -53 -4.5 -122t-14.5 -116l4 -2q43 117 138.5 186.5t230.5 69.5q88 0 147.5 -25.5t94 -69.5t50 -103.5t15.5 -126.5v-709h-129zM934 1380q-37 -68 -89 -104.5 t-118 -36.5q-49 0 -84 18.5t-64.5 40t-57 40t-60.5 18.5q-72 0 -127 -99l-70 58q37 68 93.5 104.5t113.5 36.5q49 0 84 -18.5t63.5 -40t56.5 -41t62 -19.5q74 0 129 99l68 -56v0z" />
<glyph unicode="&#xf2;" horiz-adv-x="1105" d="M881 518q0 195 -83 303.5t-245 108.5q-57 0 -118.5 -24.5t-107.5 -76t-74 -129t-28 -184.5q0 -205 88 -315.5t242 -110.5q63 0 121.5 24.5t104.5 77t72 133t28 193.5zM1012 524q2 -111 -31 -209t-94.5 -171.5t-151.5 -116.5t-203 -43q-203 0 -319.5 127t-122.5 395 q2 106 35 202.5t91 168t150.5 114.5t200.5 43q90 0 170 -26.5t142.5 -86t98.5 -158t34 -239.5zM582 1184l-263 241l86 84l244 -258z" />
<glyph unicode="&#xf3;" horiz-adv-x="1105" d="M881 518q0 195 -83 303.5t-245 108.5q-57 0 -118.5 -24.5t-107.5 -76t-74 -129t-28 -184.5q0 -205 88 -315.5t242 -110.5q63 0 121.5 24.5t104.5 77t72 133t28 193.5zM1012 524q2 -111 -31 -209t-94.5 -171.5t-151.5 -116.5t-203 -43q-203 0 -319.5 127t-122.5 395 q2 106 35 202.5t91 168t150.5 114.5t200.5 43q90 0 170 -26.5t142.5 -86t98.5 -158t34 -239.5zM543 1184l-66 67l242 258l86 -84z" />
<glyph unicode="&#xf4;" horiz-adv-x="1105" d="M881 518q0 195 -83 303.5t-245 108.5q-57 0 -118.5 -24.5t-107.5 -76t-74 -129t-28 -184.5q0 -205 88 -315.5t242 -110.5q63 0 121.5 24.5t104.5 77t72 133t28 193.5zM1012 524q2 -111 -31 -209t-94.5 -171.5t-151.5 -116.5t-203 -43q-203 0 -319.5 127t-122.5 395 q2 106 35 202.5t91 168t150.5 114.5t200.5 43q90 0 170 -26.5t142.5 -86t98.5 -158t34 -239.5zM748 1184l-199 178l-198 -178l-62 61l264 264l263 -260z" />
<glyph unicode="&#xf5;" horiz-adv-x="1105" d="M881 518q0 195 -83 303.5t-245 108.5q-57 0 -118.5 -24.5t-107.5 -76t-74 -129t-28 -184.5q0 -205 88 -315.5t242 -110.5q63 0 121.5 24.5t104.5 77t72 133t28 193.5zM1012 524q2 -111 -31 -209t-94.5 -171.5t-151.5 -116.5t-203 -43q-203 0 -319.5 127t-122.5 395 q2 106 35 202.5t91 168t150.5 114.5t200.5 43q90 0 170 -26.5t142.5 -86t98.5 -158t34 -239.5zM895 1380q-37 -68 -89 -104.5t-118 -36.5q-49 0 -84 18.5t-64.5 40t-57 40t-60.5 18.5q-72 0 -127 -99l-70 58q37 68 93.5 104.5t113.5 36.5q49 0 84 -18.5t63.5 -40t56.5 -41 t62 -19.5q74 0 129 99l68 -56v0z" />
<glyph unicode="&#xf6;" horiz-adv-x="1105" d="M881 518q0 195 -83 303.5t-245 108.5q-57 0 -118.5 -24.5t-107.5 -76t-74 -129t-28 -184.5q0 -205 88 -315.5t242 -110.5q63 0 121.5 24.5t104.5 77t72 133t28 193.5zM1012 524q2 -111 -31 -209t-94.5 -171.5t-151.5 -116.5t-203 -43q-203 0 -319.5 127t-122.5 395 q2 106 35 202.5t91 168t150.5 114.5t200.5 43q90 0 170 -26.5t142.5 -86t98.5 -158t34 -239.5zM450 1348q0 -37 -25.5 -62.5t-62.5 -25.5q-39 0 -63.5 25.5t-24.5 62.5q0 39 24.5 63.5t63.5 24.5q37 0 62.5 -24.5t25.5 -63.5zM827 1348q0 -37 -25.5 -62.5t-62.5 -25.5 t-62.5 25.5t-25.5 62.5q0 39 25.5 63.5t62.5 24.5t62.5 -24.5t25.5 -63.5z" />
<glyph unicode="&#xf7;" d="M657 195q0 -41 -28.5 -69t-69.5 -28t-69.5 28t-28.5 69t28.5 69.5t69.5 28.5t69.5 -28.5t28.5 -69.5zM90 555v109h946v-109h-946zM657 1020q0 -41 -28.5 -69.5t-69.5 -28.5t-69.5 28.5t-28.5 69.5t28.5 69.5t69.5 28.5t69.5 -28.5t28.5 -69.5z" />
<glyph unicode="&#xf8;" horiz-adv-x="1105" d="M1012 524q0 -111 -33 -209t-94.5 -171.5t-149.5 -116.5t-198 -43q-82 0 -154 22l-84 -213l-96 35l88 219q-53 33 -91 81t-62.5 108.5t-36 128t-11.5 141.5q0 106 32 202.5t93 168t150.5 114.5t203.5 43q29 0 55.5 -3t55.5 -7l76 190l96 -34l-78 -189q51 -25 94 -64.5 t75 -96t50.5 -132.5t18.5 -174zM883 518q0 272 -156 365l-299 -772q51 -23 129 -23q63 0 122.5 24.5t104.5 77t72 134t27 194.5zM637 924q-45 10 -86 10q-59 0 -117.5 -21.5t-106.5 -70.5t-78 -129t-30 -197t32 -207t93 -141z" />
<glyph unicode="&#xf9;" horiz-adv-x="1185" d="M858 0q0 53 4 121.5t15 116.5l-5 2q-43 -117 -138 -186.5t-230 -69.5q-88 0 -147.5 25.5t-94.5 69.5t-50 103.5t-15 126.5v709h129v-660q0 -127 43 -198.5t163 -71.5q72 0 132.5 33t103.5 92t67.5 141t24.5 178v486h129v-1018h-131zM603 1184l-263 241l86 84l244 -258z " />
<glyph unicode="&#xfa;" horiz-adv-x="1185" d="M858 0q0 53 4 121.5t15 116.5l-5 2q-43 -117 -138 -186.5t-230 -69.5q-88 0 -147.5 25.5t-94.5 69.5t-50 103.5t-15 126.5v709h129v-660q0 -127 43 -198.5t163 -71.5q72 0 132.5 33t103.5 92t67.5 141t24.5 178v486h129v-1018h-131zM588 1184l-66 67l242 258l86 -84z" />
<glyph unicode="&#xfb;" horiz-adv-x="1185" d="M858 0q0 53 4 121.5t15 116.5l-5 2q-43 -117 -138 -186.5t-230 -69.5q-88 0 -147.5 25.5t-94.5 69.5t-50 103.5t-15 126.5v709h129v-660q0 -127 43 -198.5t163 -71.5q72 0 132.5 33t103.5 92t67.5 141t24.5 178v486h129v-1018h-131zM789 1184l-199 178l-198 -178l-62 61 l264 264l263 -260z" />
<glyph unicode="&#xfc;" horiz-adv-x="1185" d="M858 0q0 53 4 121.5t15 116.5l-5 2q-43 -117 -138 -186.5t-230 -69.5q-88 0 -147.5 25.5t-94.5 69.5t-50 103.5t-15 126.5v709h129v-660q0 -127 43 -198.5t163 -71.5q72 0 132.5 33t103.5 92t67.5 141t24.5 178v486h129v-1018h-131zM491 1348q0 -37 -25.5 -62.5 t-62.5 -25.5q-39 0 -63.5 25.5t-24.5 62.5q0 39 24.5 63.5t63.5 24.5q37 0 62.5 -24.5t25.5 -63.5zM868 1348q0 -37 -25.5 -62.5t-62.5 -25.5t-62.5 25.5t-25.5 62.5q0 39 25.5 63.5t62.5 24.5t62.5 -24.5t25.5 -63.5z" />
<glyph unicode="&#xfd;" horiz-adv-x="950" d="M502 -104q-45 -117 -90 -198t-99.5 -132t-120 -73.5t-149.5 -22.5q-25 0 -52.5 4t-49.5 8l14 119q23 -8 55.5 -12.5t61.5 -4.5q45 0 85 13.5t75.5 46t69.5 89t67 142.5l49 125l-393 1018h151l230 -627q27 -72 44 -126t33 -109h2q12 47 41 132t62 177l196 553h142z M475 1184l-66 67l242 258l86 -84z" />
<glyph unicode="&#xfe;" horiz-adv-x="1142" d="M909 543q0 182 -63.5 284.5t-198.5 102.5q-82 0 -142.5 -43t-100 -107.5t-59 -142.5t-19.5 -145v-371q47 -16 99 -23.5t114 -7.5q168 0 269 106.5t101 346.5zM1044 555q0 -139 -36.5 -244.5t-104 -176.5t-163 -107.5t-212.5 -36.5q-57 0 -102 2t-100 10v-516h-129v2009 h129v-469q0 -31 -1 -64.5t-2 -66.5t-4.5 -61.5t-7.5 -47.5l4 -2q43 115 136.5 182.5t216.5 67.5q180 0 278 -119.5t98 -359.5z" />
<glyph unicode="&#xff;" horiz-adv-x="950" d="M502 -104q-45 -117 -90 -198t-99.5 -132t-120 -73.5t-149.5 -22.5q-25 0 -52.5 4t-49.5 8l14 119q23 -8 55.5 -12.5t61.5 -4.5q45 0 85 13.5t75.5 46t69.5 89t67 142.5l49 125l-393 1018h151l230 -627q27 -72 44 -126t33 -109h2q12 47 41 132t62 177l196 553h142z M381 1348q0 -37 -25.5 -62.5t-62.5 -25.5q-39 0 -63.5 25.5t-24.5 62.5q0 39 24.5 63.5t63.5 24.5q37 0 62.5 -24.5t25.5 -63.5zM758 1348q0 -37 -25.5 -62.5t-62.5 -25.5t-62.5 25.5t-25.5 62.5q0 39 25.5 63.5t62.5 24.5t62.5 -24.5t25.5 -63.5z" />
<glyph unicode="&#x100;" horiz-adv-x="1245" d="M680 1055q-18 49 -33.5 94t-28.5 90h-2q-14 -45 -29.5 -91t-31.5 -89l-219 -600h561zM1061 0l-125 352h-637l-129 -352h-137l520 1382h141l518 -1382h-151zM352 1542v98h541v-98h-541z" />
<glyph unicode="&#x101;" horiz-adv-x="1062" d="M735 494q-145 0 -240.5 -19.5t-151.5 -50.5t-79.5 -72t-23.5 -84q0 -78 48 -128t128 -50q72 0 131 33t101 87t64.5 121.5t22.5 137.5v25zM737 0q0 61 2 119.5t11 103.5l-5 2q-37 -100 -131 -170.5t-229 -70.5q-119 0 -197.5 70.5t-78.5 193.5q0 76 39.5 139.5 t120.5 109.5t199 70.5t267 26.5v78q0 125 -55 191.5t-186 66.5q-70 0 -155 -21.5t-146 -56.5l-33 109q72 33 164 53t190 20q102 0 166.5 -24.5t102.5 -68.5t59.5 -103.5t21.5 -128.5v-394q0 -78 1 -161.5t3 -153.5h-131zM275 1288v98h489v-98h-489z" />
<glyph unicode="&#x102;" horiz-adv-x="1245" d="M680 1055q-18 49 -33.5 94t-28.5 90h-2q-14 -45 -29.5 -91t-31.5 -89l-219 -600h561zM1061 0l-125 352h-637l-129 -352h-137l520 1382h141l518 -1382h-151zM866 1735q0 -100 -67.5 -165t-184.5 -65q-61 0 -106.5 18.5t-76 49.5t-46 73t-15.5 89h92q0 -55 43 -93t111 -38 q72 0 114 37.5t42 93.5h94v0z" />
<glyph unicode="&#x103;" horiz-adv-x="1062" d="M735 494q-145 0 -240.5 -19.5t-151.5 -50.5t-79.5 -72t-23.5 -84q0 -78 48 -128t128 -50q72 0 131 33t101 87t64.5 121.5t22.5 137.5v25zM737 0q0 61 2 119.5t11 103.5l-5 2q-37 -100 -131 -170.5t-229 -70.5q-119 0 -197.5 70.5t-78.5 193.5q0 76 39.5 139.5 t120.5 109.5t199 70.5t267 26.5v78q0 125 -55 191.5t-186 66.5q-70 0 -155 -21.5t-146 -56.5l-33 109q72 33 164 53t190 20q102 0 166.5 -24.5t102.5 -68.5t59.5 -103.5t21.5 -128.5v-394q0 -78 1 -161.5t3 -153.5h-131zM762 1466q0 -49 -14.5 -93t-44 -78.5t-75 -55 t-108.5 -20.5q-61 0 -106.5 20.5t-74 55t-42 79.5t-13.5 92h95q0 -57 36.5 -102t108.5 -45q68 0 105.5 40t37.5 107h95v0z" />
<glyph unicode="&#x104;" horiz-adv-x="1245" d="M680 1053q-18 51 -33.5 96t-28.5 88h-2q-14 -43 -29.5 -88t-31.5 -94l-219 -596h561zM1251 -291q-35 -61 -87 -94t-115 -33q-78 0 -121 37t-43 109q0 61 42 136t134 136l-125 352h-637l-129 -352h-137l520 1382h141l518 -1382q-98 -59 -144 -119.5t-46 -113.5 q0 -72 72 -72q49 0 92 67l65 -53v0z" />
<glyph unicode="&#x105;" horiz-adv-x="1062" d="M735 494q-145 0 -240.5 -19.5t-151.5 -50.5t-79.5 -72t-23.5 -84q0 -78 48 -128t128 -50q72 0 131 33t101 87t64.5 121.5t22.5 137.5v25zM942 -289q-35 -61 -89 -95t-118 -34q-74 0 -117 37t-43 109q0 45 16.5 87t44.5 77.5t62.5 65.5t69.5 54q-8 49 -13 104.5t-1 102.5 l-4 2q-41 -98 -136.5 -167.5t-228.5 -69.5q-119 0 -197.5 70.5t-78.5 193.5q0 76 39.5 139.5t118.5 109.5t197 71.5t271 25.5v78q0 125 -52 191.5t-189 66.5q-74 0 -157 -21.5t-144 -56.5l-33 109q72 33 164 53t190 20q102 0 170 -24.5t107.5 -68.5t56 -103.5t16.5 -128.5 v-330q0 -96 9.5 -195.5t25.5 -183.5q-98 -59 -143 -119.5t-45 -113.5q0 -70 71 -70q49 0 92 67l68 -53v0z" />
<glyph unicode="&#x106;" horiz-adv-x="1218" d="M1122 66q-82 -35 -183 -57.5t-214 -22.5q-156 0 -271.5 46t-192.5 134t-116 214t-39 284q0 154 38 287.5t118 233t206 156t304 56.5q82 0 167 -12.5t163 -34.5l-25 -121q-162 57 -334 57q-133 0 -227 -48t-153.5 -130t-87 -191.5t-27.5 -230.5q0 -279 126 -432.5 t390 -153.5q86 0 175 21.5t157 56.5l26 -112v0zM663 1499l-30 78l334 152l47 -111z" />
<glyph unicode="&#x107;" horiz-adv-x="907" d="M848 47q-68 -29 -151 -44t-167 -15q-80 0 -158.5 20.5t-140 74.5t-99.5 148.5t-38 241.5q0 127 31 229.5t91 175t149.5 112.5t205.5 40q158 0 271 -47l-29 -106q-53 20 -121.5 35.5t-140.5 15.5q-78 0 -137.5 -32t-99.5 -89t-61.5 -136t-21.5 -171q0 -82 14.5 -156 t50.5 -129t99.5 -87t161.5 -32q72 0 138.5 14.5t125.5 41.5l27 -105v0zM530 1184l-66 67l242 258l86 -84z" />
<glyph unicode="&#x10c;" horiz-adv-x="1218" d="M1122 66q-82 -35 -183 -57.5t-214 -22.5q-156 0 -271.5 46t-192.5 134t-116 214t-39 284q0 154 38 287.5t118 233t206 156t304 56.5q82 0 167 -12.5t163 -34.5l-25 -121q-162 57 -334 57q-133 0 -227 -48t-153.5 -130t-87 -191.5t-27.5 -230.5q0 -279 126 -432.5 t390 -153.5q86 0 175 21.5t157 56.5l26 -112v0zM725 1495l-317 164l47 86l277 -133l264 133l41 -80z" />
<glyph unicode="&#x10d;" horiz-adv-x="907" d="M848 47q-68 -29 -151 -44t-167 -15q-80 0 -158.5 20.5t-140 74.5t-99.5 148.5t-38 241.5q0 127 31 229.5t91 175t149.5 112.5t205.5 40q158 0 271 -47l-29 -106q-53 20 -121.5 35.5t-140.5 15.5q-78 0 -137.5 -32t-99.5 -89t-61.5 -136t-21.5 -171q0 -82 14.5 -156 t50.5 -129t99.5 -87t161.5 -32q72 0 138.5 14.5t125.5 41.5l27 -105v0zM547 1184l-262 258l66 67l198 -180l199 180l63 -63z" />
<glyph unicode="&#x10e;" horiz-adv-x="1404" d="M1161 694q0 297 -150.5 442.5t-443.5 145.5q-59 0 -126.5 -2t-112.5 -4v-1159q47 -6 106.5 -10.5t104.5 -4.5q137 0 251.5 35t197.5 107.5t128 184t45 265.5zM1298 702q0 -178 -58 -311t-161.5 -221t-246 -132t-312.5 -44q-104 0 -180 4t-143 2v1382q80 0 182 3.5 t205 3.5q170 0 303 -42t224 -126t139 -214.5t48 -304.5zM624 1495l-317 164l47 86l277 -133l264 133l41 -80z" />
<glyph unicode="&#x10f;" horiz-adv-x="1171" d="M813 901q-106 27 -213 27q-168 0 -268.5 -106.5t-100.5 -346.5q0 -182 62.5 -284.5t198.5 -102.5q82 0 142 43t100 107.5t59.5 142.5t19.5 145v375zM811 0q0 25 1 55.5t3 62.5t6 61.5t8 53.5l-4 3q-41 -117 -136 -184.5t-218 -67.5q-193 0 -285 128t-92 351 q0 137 37 243.5t105.5 178t164 108.5t211.5 37q90 0 201 -12v477h129v-1495h-131zM1151 1174l-88 30l118 336l115 -39z" />
<glyph unicode="&#x110;" horiz-adv-x="1421" d="M1178 692q0 297 -150.5 443.5t-443.5 146.5q-61 0 -128 -2t-112 -4v-512h326v-102h-326v-547q6 0 30.5 -3t57.5 -5.5t66.5 -3.5t56.5 -1q137 0 252 35t197.5 106.5t128 183t45.5 265.5zM1315 700q0 -178 -58.5 -311t-162 -220t-246.5 -131t-313 -44q-102 0 -178 4t-144 2 v662h-209v102h209v618q80 0 181.5 3.5t205.5 3.5q170 0 304 -42t226.5 -127t138.5 -215.5t46 -304.5z" />
<glyph unicode="&#x111;" horiz-adv-x="1138" d="M813 901q-106 27 -213 27q-168 0 -268.5 -106.5t-100.5 -346.5q0 -182 62.5 -284.5t198.5 -102.5q82 0 142 43t100 107.5t59.5 142.5t19.5 145v375zM942 1223v-1223h-131q0 25 1 55.5t3 62.5t6 61.5t8 53.5l-4 3q-41 -117 -136 -184.5t-218 -67.5q-193 0 -285 128 t-92 351q0 137 37 243.5t105.5 178t164 108.5t211.5 37q90 0 201 -12v205h-254v96h254v176h129v-176h160v-96h-160z" />
<glyph unicode="&#x112;" horiz-adv-x="1040" d="M197 0v1382h682v-106h-551v-510h524v-104h-524v-553h551v-109h-682zM262 1542v98h541v-98h-541z" />
<glyph unicode="&#x113;" horiz-adv-x="1030" d="M788 647q0 127 -69.5 206t-192.5 79q-113 0 -189.5 -76t-98.5 -221h550v12zM926 625v-28.5t-4 -59.5h-691q-4 -106 16.5 -193.5t64.5 -143t112 -81t158 -25.5q74 0 147.5 15.5t138.5 44.5l25 -109q-72 -29 -158 -45t-182 -16q-223 0 -341 126t-118 396q0 113 30 210 t87 167.5t138 110.5t186 40q104 0 177.5 -32.5t122 -91t70 -131t21.5 -154.5zM275 1288v98h489v-98h-489z" />
<glyph unicode="&#x116;" horiz-adv-x="1040" d="M197 0v1382h682v-106h-551v-510h524v-104h-524v-553h551v-109h-682zM628 1593q0 -37 -26.5 -63.5t-65.5 -26.5q-37 0 -63.5 25.5t-26.5 64.5q0 37 26.5 63.5t63.5 26.5q39 0 65.5 -25.5t26.5 -64.5z" />
<glyph unicode="&#x117;" horiz-adv-x="1030" d="M788 647q0 127 -69.5 206t-192.5 79q-113 0 -189.5 -76t-98.5 -221h550v12zM926 625v-28.5t-4 -59.5h-691q-4 -106 16.5 -193.5t64.5 -143t112 -81t158 -25.5q74 0 147.5 15.5t138.5 44.5l25 -109q-72 -29 -158 -45t-182 -16q-223 0 -341 126t-118 396q0 113 30 210 t87 167.5t138 110.5t186 40q104 0 177.5 -32.5t122 -91t70 -131t21.5 -154.5zM621 1348q0 -37 -26.5 -65t-65.5 -28t-65.5 27t-26.5 66t26.5 65.5t65.5 26.5t65.5 -25.5t26.5 -66.5z" />
<glyph unicode="&#x118;" horiz-adv-x="1040" d="M928 -291q-74 -127 -205 -127q-78 0 -124 37t-46 109t46 147.5t118 124.5h-520v1382h677v-106h-546v-510h520v-104h-520v-553h559v-101q-41 -12 -75 -39.5t-60.5 -61.5t-41 -71t-14.5 -69q0 -72 72 -72q49 0 92 67l68 -53v0z" />
<glyph unicode="&#x119;" horiz-adv-x="1030" d="M788 645q4 129 -66.5 209t-195.5 80q-115 0 -190.5 -77t-95.5 -212h548v0zM827 -291q-37 -63 -90 -95t-114 -32q-78 0 -120 37t-42 109q0 57 38 127.5t117 130.5q-31 -2 -67 -2q-215 0 -335 124.5t-120 397.5q0 113 30 210t87 167.5t138 110.5t186 40q104 0 177.5 -32.5 t121 -89t70 -131t22.5 -156.5q0 -35 -4 -76h-691q-4 -121 16.5 -207t64.5 -141.5t112 -81t158 -25.5q74 0 148.5 15.5t137.5 44.5l27 -109q-78 -25 -134 -59.5t-93 -73.5t-54.5 -77t-17.5 -68q0 -37 19.5 -54.5t52.5 -17.5q51 0 92 67l67 -53v0z" />
<glyph unicode="&#x11a;" horiz-adv-x="1040" d="M197 0v1382h682v-106h-551v-510h524v-104h-524v-553h551v-109h-682zM530 1495l-317 164l47 86l277 -133l264 133l41 -80z" />
<glyph unicode="&#x11b;" horiz-adv-x="1030" d="M788 647q0 127 -69.5 206t-192.5 79q-113 0 -189.5 -76t-98.5 -221h550v12zM926 625v-28.5t-4 -59.5h-691q-4 -106 16.5 -193.5t64.5 -143t112 -81t158 -25.5q74 0 147.5 15.5t138.5 44.5l25 -109q-72 -29 -158 -45t-182 -16q-223 0 -341 126t-118 396q0 113 30 210 t87 167.5t138 110.5t186 40q104 0 177.5 -32.5t122 -91t70 -131t21.5 -154.5zM526 1184l-262 258l66 67l198 -180l199 180l63 -63z" />
<glyph unicode="&#x11e;" horiz-adv-x="1406" d="M1223 59q-104 -39 -222 -57t-223 -18q-156 0 -283.5 46t-213.5 133t-134.5 214t-48.5 289q0 166 49.5 301t137.5 227t221 148.5t317 56.5q98 0 190.5 -15.5t186.5 -44.5l-31 -118q-88 35 -179 52t-185 17q-117 0 -216.5 -32.5t-178 -107.5t-125.5 -192.5t-47 -269.5 q0 -143 39.5 -253.5t113.5 -186.5t178.5 -115t229.5 -39q84 0 154.5 11.5t138.5 33.5v551h131v-631v0zM1034 1735q0 -100 -67.5 -165t-184.5 -65q-61 0 -106 18.5t-76 49.5t-46 73t-15 89h92q0 -55 43 -93t110 -38q72 0 114 37.5t42 93.5h94v0z" />
<glyph unicode="&#x11f;" horiz-adv-x="1099" d="M903 -174q0 88 -59.5 138t-181.5 54l-213 9h-70q-72 -47 -114 -104.5t-42 -127.5q0 -53 23.5 -93t65.5 -68.5t99.5 -43t125.5 -14.5q178 0 272 70.5t94 179.5zM805 672q0 123 -68.5 192.5t-195.5 69.5q-135 0 -208 -76t-73 -188q0 -123 70.5 -189.5t199.5 -66.5 q127 0 201 67.5t74 190.5zM1036 -156q0 -80 -39 -148.5t-108.5 -118.5t-165.5 -78.5t-211 -28.5q-190 0 -306 79.5t-116 225.5q0 98 54.5 169.5t127.5 114.5q-47 20 -74.5 60.5t-27.5 89.5q0 51 28.5 94t80.5 70q-72 43 -111 112.5t-39 171.5q0 76 27.5 143.5t82 120 t132.5 83t178 30.5q37 0 64.5 -4t64.5 -12h346v-103h-193q49 -37 77 -96t28 -133q0 -78 -25.5 -145.5t-79 -117.5t-133.5 -80t-186 -30q-37 0 -67.5 4.5t-61.5 14.5q-39 -16 -59.5 -44t-20.5 -57q0 -47 46 -66.5t143 -23.5l206 -8q166 -6 252 -83t86 -206zM777 1466 q0 -49 -14.5 -93t-44 -78.5t-75 -55t-108.5 -20.5q-61 0 -106.5 20.5t-74 55t-42 79.5t-13.5 92h95q0 -57 36.5 -102t108.5 -45q68 0 105.5 40t37.5 107h95v0z" />
<glyph unicode="&#x122;" horiz-adv-x="1406" d="M1223 59q-104 -39 -222 -57t-223 -18q-156 0 -283.5 46t-213.5 133t-134.5 214t-48.5 289q0 166 49.5 301t137.5 227t221 148.5t317 56.5q98 0 190.5 -15.5t186.5 -44.5l-31 -118q-88 35 -179 52t-185 17q-117 0 -216.5 -32.5t-178 -107.5t-125.5 -192.5t-47 -269.5 q0 -143 39.5 -253.5t113.5 -186.5t178.5 -115t229.5 -39q84 0 154.5 11.5t138.5 33.5v551h131v-631v0zM741 -102q37 0 65 -29t26.5 -81t-41 -123t-138.5 -154l-51 51q76 72 87 125t-11 84q-14 20 -15 42.5t9 41t28 31t41 12.5z" />
<glyph unicode="&#x123;" horiz-adv-x="1099" d="M903 -174q0 88 -59.5 138t-181.5 54l-213 9h-70q-72 -47 -114 -104.5t-42 -127.5q0 -53 23.5 -93t65.5 -68.5t99.5 -43t125.5 -14.5q178 0 272 70.5t94 179.5zM805 672q0 123 -68.5 192.5t-195.5 69.5q-135 0 -208 -76t-73 -188q0 -123 70.5 -189.5t199.5 -66.5 q127 0 201 67.5t74 190.5zM1036 -156q0 -80 -39 -148.5t-108.5 -118.5t-165.5 -78.5t-211 -28.5q-190 0 -306 79.5t-116 225.5q0 98 54.5 169.5t127.5 114.5q-47 20 -74.5 60.5t-27.5 89.5q0 51 28.5 94t80.5 70q-72 43 -111 112.5t-39 171.5q0 76 27.5 143.5t82 120 t132.5 83t178 30.5q37 0 64.5 -4t64.5 -12h346v-103h-193q49 -37 77 -96t28 -133q0 -78 -25.5 -145.5t-79 -117.5t-133.5 -80t-186 -30q-37 0 -67.5 4.5t-61.5 14.5q-39 -16 -59.5 -44t-20.5 -57q0 -47 46 -66.5t143 -23.5l206 -8q166 -6 252 -83t86 -206zM532 1165 q-37 0 -64.5 29t-26.5 80t41 121.5t141 154.5l49 -49q-76 -72 -86.5 -125t12.5 -86q14 -20 14 -43t-10 -41t-28.5 -29.5t-41.5 -11.5z" />
<glyph unicode="&#x12a;" horiz-adv-x="524" d="M197 0v1382h131v-1382h-131zM-4 1542v98h541v-98h-541z" />
<glyph unicode="&#x12b;" horiz-adv-x="522" d="M197 0v1018h129v-1018h-129zM35 1288v98h457v-98h-457z" />
<glyph unicode="&#x12e;" horiz-adv-x="524" d="M371 -289q-35 -63 -89.5 -96t-115.5 -33q-74 0 -118 37t-44 109q0 43 17.5 86t45 79.5t61.5 67.5t69 51v1370h131v-1382q-98 -59 -142.5 -119.5t-44.5 -113.5q0 -70 70 -70q49 0 92 65l68 -51v0z" />
<glyph unicode="&#x12f;" horiz-adv-x="522" d="M369 -289q-35 -63 -89.5 -96t-117.5 -33q-74 0 -117 37t-43 109q0 78 54.5 154.5t140.5 129.5v1006h129v-1018q-98 -59 -143.5 -119.5t-45.5 -113.5q0 -35 19.5 -52.5t52.5 -17.5q49 0 92 65l68 -51v0zM354 1348q0 -37 -26.5 -65t-65.5 -28t-65.5 27t-26.5 66t26.5 65.5 t65.5 26.5t65.5 -25.5t26.5 -66.5z" />
<glyph unicode="&#x130;" horiz-adv-x="524" d="M197 0v1382h131v-1382h-131zM356 1593q0 -37 -26.5 -63.5t-65.5 -26.5q-37 0 -63.5 25.5t-26.5 64.5q0 37 26.5 63.5t63.5 26.5q39 0 65.5 -25.5t26.5 -64.5z" />
<glyph unicode="&#x131;" horiz-adv-x="522" d="M197 0v1018h129v-1018h-129z" />
<glyph unicode="&#x136;" horiz-adv-x="1177" d="M950 0l-622 700v-700h-131v1382h131v-669l622 669h166l-639 -669l660 -713h-187zM606 -102q37 0 64.5 -29t26.5 -81t-41 -123t-138 -154l-51 51q76 72 87 125t-12 84q-14 20 -15 42.5t9 41t28.5 31t41.5 12.5z" />
<glyph unicode="&#x137;" horiz-adv-x="968" d="M745 0l-419 541v-541h-129v1495h129v-940l401 463h156l-414 -463l449 -555h-173zM502 -102q37 0 64.5 -29t26.5 -81t-41 -123t-138 -154l-51 51q76 72 87 125t-12 84q-14 20 -15 42.5t9 41t28.5 31t41.5 12.5z" />
<glyph unicode="&#x139;" horiz-adv-x="870" d="M197 0v1382h131v-1273h528v-109h-659zM344 1499l-30 78l334 152l47 -111z" />
<glyph unicode="&#x13a;" horiz-adv-x="522" d="M197 0v1495h129v-1495h-129zM213 1546l-30 78l334 152l47 -111z" />
<glyph unicode="&#x13b;" horiz-adv-x="870" d="M197 0v1382h131v-1273h528v-109h-659zM531 -102q37 0 64.5 -29t26.5 -81t-41 -123t-138 -154l-51 51q76 72 87 125t-12 84q-14 20 -15 42.5t9 41t28.5 31t41.5 12.5z" />
<glyph unicode="&#x13c;" horiz-adv-x="522" d="M197 0v1495h129v-1495h-129zM262 -102q37 0 64.5 -29t26.5 -81t-41 -123t-138 -154l-51 51q76 72 87 125t-12 84q-14 20 -15 42.5t9 41t28.5 31t41.5 12.5z" />
<glyph unicode="&#x13d;" horiz-adv-x="870" d="M197 0v1382h131v-1273h528v-109h-659zM573 1268l-75 55l213 283l100 -68z" />
<glyph unicode="&#x13e;" horiz-adv-x="552" d="M197 0v1495h129v-1495h-129zM535 1174l-88 30l118 336l115 -39z" />
<glyph unicode="&#x141;" horiz-adv-x="886" d="M213 0v764l-178 -82l-33 98l211 97v505h131v-444l248 111l33 -97l-281 -127v-716h528v-109h-659z" />
<glyph unicode="&#x142;" horiz-adv-x="583" d="M362 870v-870h-129v797l-143 -84l-41 90l184 106v586h129v-512l158 92l41 -90z" />
<glyph unicode="&#x143;" horiz-adv-x="1462" d="M1087 0l-616 975q-43 70 -83 136.5t-77 139.5q2 -51 5 -162.5t5.5 -228.5t4.5 -358v-502h-129v1382h176l610 -962q43 -68 84 -136.5t82 -144.5q-2 78 -5 201t-5 257t-3 225t-1 204v356h131v-1382h-179zM700 1499l-30 78l334 152l47 -111z" />
<glyph unicode="&#x144;" horiz-adv-x="1185" d="M860 0v659q0 127 -44 199t-163 72q-72 0 -132 -33t-103 -92.5t-67.5 -141t-24.5 -178.5v-485h-129v1018h131q0 -53 -4.5 -122t-14.5 -116l4 -2q43 117 138.5 186.5t230.5 69.5q88 0 147.5 -25.5t94 -69.5t50 -103.5t15.5 -126.5v-709h-129zM596 1184l-66 67l242 258 l86 -84z" />
<glyph unicode="&#x145;" horiz-adv-x="1462" d="M1087 0l-616 975q-43 70 -83 136.5t-77 139.5q2 -51 5 -162.5t5.5 -228.5t4.5 -358v-502h-129v1382h176l610 -962q43 -68 84 -136.5t82 -144.5q-2 78 -5 201t-5 257t-3 225t-1 204v356h131v-1382h-179zM715 -102q37 0 64.5 -29t26.5 -81t-41 -123t-138 -154l-51 51 q76 72 87 125t-12 84q-14 20 -15 42.5t9 41t28.5 31t41.5 12.5z" />
<glyph unicode="&#x146;" horiz-adv-x="1185" d="M860 0v659q0 127 -44 199t-163 72q-72 0 -132 -33t-103 -92.5t-67.5 -141t-24.5 -178.5v-485h-129v1018h131q0 -53 -4.5 -122t-14.5 -116l4 -2q43 117 138.5 186.5t230.5 69.5q88 0 147.5 -25.5t94 -69.5t50 -103.5t15.5 -126.5v-709h-129zM602 -102q37 0 64.5 -29 t26.5 -81t-41 -123t-138 -154l-51 51q76 72 87 125t-12 84q-14 20 -15 42.5t9 41t28.5 31t41.5 12.5z" />
<glyph unicode="&#x147;" horiz-adv-x="1462" d="M1087 0l-616 975q-43 70 -83 136.5t-77 139.5q2 -51 5 -162.5t5.5 -228.5t4.5 -358v-502h-129v1382h176l610 -962q43 -68 84 -136.5t82 -144.5q-2 78 -5 201t-5 257t-3 225t-1 204v356h131v-1382h-179zM739 1495l-317 164l47 86l277 -133l264 133l41 -80z" />
<glyph unicode="&#x148;" horiz-adv-x="1185" d="M860 0v659q0 127 -44 199t-163 72q-72 0 -132 -33t-103 -92.5t-67.5 -141t-24.5 -178.5v-485h-129v1018h131q0 -53 -4.5 -122t-14.5 -116l4 -2q43 117 138.5 186.5t230.5 69.5q88 0 147.5 -25.5t94 -69.5t50 -103.5t15.5 -126.5v-709h-129zM604 1184l-262 258l66 67 l198 -180l199 180l63 -63z" />
<glyph unicode="&#x14c;" horiz-adv-x="1445" d="M1206 682q0 283 -127 444.5t-356 161.5q-96 0 -184 -39t-155 -113.5t-105.5 -183t-38.5 -247.5q0 -135 29.5 -247t89 -192t150.5 -125t212 -45q96 0 184 38t155.5 113t106.5 184.5t39 250.5zM1348 705q0 -174 -51.5 -308.5t-138.5 -226.5t-204.5 -139t-248.5 -47 q-154 0 -267.5 50t-189.5 141t-113 219t-37 284q0 174 51.5 308t138.5 226.5t203.5 139.5t247.5 47q141 0 255 -46t193 -135.5t120 -218t41 -294.5zM451 1542v98h541v-98h-541z" />
<glyph unicode="&#x14d;" horiz-adv-x="1105" d="M881 518q0 195 -83 303.5t-245 108.5q-57 0 -118.5 -24.5t-107.5 -76t-74 -129t-28 -184.5q0 -205 88 -315.5t242 -110.5q63 0 121.5 24.5t104.5 77t72 133t28 193.5zM1012 524q2 -111 -31 -209t-94.5 -171.5t-151.5 -116.5t-203 -43q-203 0 -319.5 127t-122.5 395 q2 106 35 202.5t91 168t150.5 114.5t200.5 43q90 0 170 -26.5t142.5 -86t98.5 -158t34 -239.5zM314 1288v98h489v-98h-489z" />
<glyph unicode="&#x150;" horiz-adv-x="1445" d="M1206 682q0 283 -127 444.5t-356 161.5q-96 0 -184 -39t-155 -113.5t-105.5 -183t-38.5 -247.5q0 -135 29.5 -247t89 -192t150.5 -125t212 -45q96 0 184 38t155.5 113t106.5 184.5t39 250.5zM1348 705q0 -174 -51.5 -308.5t-138.5 -226.5t-204.5 -139t-248.5 -47 q-154 0 -267.5 50t-189.5 141t-113 219t-37 284q0 174 51.5 308t138.5 226.5t203.5 139.5t247.5 47q141 0 255 -46t193 -135.5t120 -218t41 -294.5zM555 1497l-55 68l260 202l73 -88zM915 1497l-51 70l289 190l68 -94z" />
<glyph unicode="&#x151;" horiz-adv-x="1105" d="M881 518q0 195 -83 303.5t-245 108.5q-57 0 -118.5 -24.5t-107.5 -76t-74 -129t-28 -184.5q0 -205 88 -315.5t242 -110.5q63 0 121.5 24.5t104.5 77t72 133t28 193.5zM1012 524q2 -111 -31 -209t-94.5 -171.5t-151.5 -116.5t-203 -43q-203 0 -319.5 127t-122.5 395 q2 106 35 202.5t91 168t150.5 114.5t200.5 43q90 0 170 -26.5t142.5 -86t98.5 -158t34 -239.5zM416 1184l-70 61l225 266l91 -75zM746 1184l-68 61l242 258l88 -80z" />
<glyph unicode="&#x152;" horiz-adv-x="1771" d="M930 1260q-51 14 -98.5 21t-104.5 7q-98 0 -186 -39t-156 -113.5t-106.5 -183t-38.5 -247.5q0 -135 29.5 -247t89 -192t150.5 -125t212 -45q49 0 104.5 6.5t104.5 20.5v1137zM932 0q-57 -8 -112.5 -12t-114.5 -4q-154 0 -267.5 50t-189.5 141t-113 219t-37 284 q0 174 51.5 308t138.5 226.5t203.5 139.5t247.5 47q53 0 103.5 -4t97.5 -13h672v-106h-551v-510h524v-104h-524v-553h551v-109h-680z" />
<glyph unicode="&#x153;" horiz-adv-x="1806" d="M879 518q0 193 -82 302.5t-244 109.5q-63 0 -121.5 -24.5t-104.5 -76t-74 -129t-28 -184.5q0 -205 85 -315.5t245 -110.5q63 0 121.5 24.5t103.5 77t72 133t27 193.5zM1563 649q4 129 -66 208t-194 79q-115 0 -192 -76t-97 -211h549v0zM1702 625q0 -10 -1 -28.5t-3 -45.5 h-690q-4 -121 16 -208t64.5 -142.5t112 -81t155.5 -25.5q76 0 149.5 15.5t139.5 44.5l24 -109q-72 -29 -158 -45t-182 -16q-162 0 -259 63.5t-142 171.5q-53 -102 -149.5 -168.5t-246.5 -66.5q-203 0 -322.5 127t-119.5 395q0 106 32 202.5t92 168t149.5 114.5t203.5 43 q121 0 223.5 -52t157.5 -169q51 98 142.5 159.5t220.5 61.5q104 0 178 -32.5t121 -89t69.5 -131t22.5 -156.5z" />
<glyph unicode="&#x154;" horiz-adv-x="1114" d="M815 1026q0 145 -90 201.5t-256 56.5q-41 0 -74 -1t-67 -5v-520q18 -2 51 -3t82 -1q170 0 262 75.5t92 196.5zM864 0l-510 653h-26v-653h-131v1382q63 2 131.5 4.5t177.5 2.5q94 0 175 -17.5t141.5 -57.5t95 -105.5t34.5 -159.5q0 -96 -36.5 -168t-100 -121t-145.5 -75 t-170 -28q31 -35 64.5 -71.5t60.5 -71.5l413 -514h-174zM458 1499l-30 78l334 152l47 -111z" />
<glyph unicode="&#x155;" horiz-adv-x="724" d="M668 907q-174 27 -258 -104t-84 -397v-406h-129v1018h131q0 -53 -6.5 -126t-20.5 -140l4 -2q14 57 42 112.5t73 96t107.5 62t146.5 11.5zM430 1184l-66 67l242 258l86 -84z" />
<glyph unicode="&#x156;" horiz-adv-x="1114" d="M815 1026q0 145 -90 201.5t-256 56.5q-41 0 -74 -1t-67 -5v-520q18 -2 51 -3t82 -1q170 0 262 75.5t92 196.5zM864 0l-510 653h-26v-653h-131v1382q63 2 131.5 4.5t177.5 2.5q94 0 175 -17.5t141.5 -57.5t95 -105.5t34.5 -159.5q0 -96 -36.5 -168t-100 -121t-145.5 -75 t-170 -28q31 -35 64.5 -71.5t60.5 -71.5l413 -514h-174zM582 -102q37 0 64.5 -29t26.5 -81t-41 -123t-138 -154l-51 51q76 72 87 125t-12 84q-14 20 -15 42.5t9 41t28.5 31t41.5 12.5z" />
<glyph unicode="&#x157;" horiz-adv-x="724" d="M668 907q-174 27 -258 -104t-84 -397v-406h-129v1018h131q0 -53 -6.5 -126t-20.5 -140l4 -2q14 57 42 112.5t73 96t107.5 62t146.5 11.5zM277 -102q37 0 64.5 -29t26.5 -81t-41 -123t-138 -154l-51 51q76 72 87 125t-12 84q-14 20 -15 42.5t9 41t28.5 31t41.5 12.5z" />
<glyph unicode="&#x158;" horiz-adv-x="1114" d="M815 1026q0 145 -90 201.5t-256 56.5q-41 0 -74 -1t-67 -5v-520q18 -2 51 -3t82 -1q170 0 262 75.5t92 196.5zM864 0l-510 653h-26v-653h-131v1382q63 2 131.5 4.5t177.5 2.5q94 0 175 -17.5t141.5 -57.5t95 -105.5t34.5 -159.5q0 -96 -36.5 -168t-100 -121t-145.5 -75 t-170 -28q31 -35 64.5 -71.5t60.5 -71.5l413 -514h-174zM528 1495l-317 164l47 86l277 -133l264 133l41 -80z" />
<glyph unicode="&#x159;" horiz-adv-x="724" d="M668 907q-174 27 -258 -104t-84 -397v-406h-129v1018h131q0 -53 -6.5 -126t-20.5 -140l4 -2q14 57 42 112.5t73 96t107.5 62t146.5 11.5zM436 1184l-262 258l66 67l198 -180l199 180l63 -63z" />
<glyph unicode="&#x15a;" horiz-adv-x="1032" d="M913 391q0 -90 -34.5 -164.5t-99 -129t-157 -84t-204.5 -29.5q-80 0 -156 10t-137 29l22 129q66 -25 137.5 -39.5t143.5 -14.5q70 0 133.5 15.5t110.5 48.5t75.5 85t28.5 128q0 86 -49 137t-122 87t-158 66.5t-157.5 74.5t-121.5 109.5t-49 174.5q0 80 29.5 148.5 t88 118.5t143.5 79t195 29q63 0 128 -7.5t120 -19.5l-16 -119q-55 16 -117.5 26.5t-122.5 10.5q-160 0 -237.5 -68.5t-77.5 -183.5q0 -84 49 -134t123 -86t159 -66.5t158.5 -74.5t122.5 -110.5t49 -175.5zM473 1499l-30 78l334 152l47 -111z" />
<glyph unicode="&#x15b;" horiz-adv-x="882" d="M766 299q0 -66 -28.5 -123t-82 -100t-131.5 -67.5t-176 -24.5q-59 0 -119.5 6t-107.5 20l18 123q49 -18 110.5 -28.5t121.5 -10.5q115 0 188.5 50.5t73.5 136.5q0 66 -38 100.5t-95.5 55t-125 36.5t-124.5 46t-95 81t-38 143q0 127 97 209t288 82q49 0 103 -6t102 -16 l-17 -111q-47 14 -100 22.5t-107 8.5q-119 0 -177 -47t-58 -127q0 -66 38 -100.5t96 -56t124.5 -38t125 -45.5t96.5 -80t38 -139zM430 1184l-66 67l242 258l86 -84z" />
<glyph unicode="&#x15e;" horiz-adv-x="1032" d="M913 391q0 -90 -34.5 -164.5t-99 -129t-157 -84t-204.5 -29.5q-80 0 -156 10t-137 29l22 129q66 -25 137.5 -39.5t143.5 -14.5q70 0 133.5 15.5t110.5 48.5t75.5 85t28.5 128q0 86 -49 137t-122 87t-158 66.5t-157.5 74.5t-121.5 109.5t-49 174.5q0 80 29.5 148.5 t88 118.5t143.5 79t195 29q63 0 128 -7.5t120 -19.5l-16 -119q-55 16 -117.5 26.5t-122.5 10.5q-160 0 -237.5 -68.5t-77.5 -183.5q0 -84 49 -134t123 -86t159 -66.5t158.5 -74.5t122.5 -110.5t49 -175.5zM532 -84q78 -98 60.5 -194.5t-105.5 -204.5h-114q43 53 68.5 98 t31.5 85t-7 79t-50 82l116 55v0z" />
<glyph unicode="&#x15f;" horiz-adv-x="882" d="M766 299q0 -66 -28.5 -123t-82 -100t-131.5 -67.5t-176 -24.5q-59 0 -119.5 6t-107.5 20l18 123q49 -18 110.5 -28.5t121.5 -10.5q115 0 188.5 50.5t73.5 136.5q0 66 -38 100.5t-95.5 55t-125 36.5t-124.5 46t-95 81t-38 143q0 127 97 209t288 82q49 0 103 -6t102 -16 l-17 -111q-47 14 -100 22.5t-107 8.5q-119 0 -177 -47t-58 -127q0 -66 38 -100.5t96 -56t124.5 -38t125 -45.5t96.5 -80t38 -139zM462 -84q78 -98 60.5 -194.5t-105.5 -204.5h-114q43 53 68.5 98t31.5 85t-7 79t-50 82l116 55v0z" />
<glyph unicode="&#x160;" horiz-adv-x="1032" d="M913 391q0 -90 -34.5 -164.5t-99 -129t-157 -84t-204.5 -29.5q-80 0 -156 10t-137 29l22 129q66 -25 137.5 -39.5t143.5 -14.5q70 0 133.5 15.5t110.5 48.5t75.5 85t28.5 128q0 86 -49 137t-122 87t-158 66.5t-157.5 74.5t-121.5 109.5t-49 174.5q0 80 29.5 148.5 t88 118.5t143.5 79t195 29q63 0 128 -7.5t120 -19.5l-16 -119q-55 16 -117.5 26.5t-122.5 10.5q-160 0 -237.5 -68.5t-77.5 -183.5q0 -84 49 -134t123 -86t159 -66.5t158.5 -74.5t122.5 -110.5t49 -175.5zM518 1495l-317 164l47 86l277 -133l264 133l41 -80z" />
<glyph unicode="&#x161;" horiz-adv-x="882" d="M766 299q0 -66 -28.5 -123t-82 -100t-131.5 -67.5t-176 -24.5q-59 0 -119.5 6t-107.5 20l18 123q49 -18 110.5 -28.5t121.5 -10.5q115 0 188.5 50.5t73.5 136.5q0 66 -38 100.5t-95.5 55t-125 36.5t-124.5 46t-95 81t-38 143q0 127 97 209t288 82q49 0 103 -6t102 -16 l-17 -111q-47 14 -100 22.5t-107 8.5q-119 0 -177 -47t-58 -127q0 -66 38 -100.5t96 -56t124.5 -38t125 -45.5t96.5 -80t38 -139zM442 1184l-262 258l66 67l198 -180l199 180l63 -63z" />
<glyph unicode="&#x162;" horiz-adv-x="1064" d="M598 1274v-1274h-131v1274h-428v108h987v-108h-428zM557 -84q78 -98 60.5 -194.5t-105.5 -204.5h-114q43 53 68.5 98t31.5 85t-7 79t-50 82l116 55v0z" />
<glyph unicode="&#x163;" horiz-adv-x="755" d="M684 6q-41 -10 -94 -15t-101 -5q-74 0 -124 17t-78.5 53t-39.5 91.5t-11 133.5v634h-234v103h234v344l126 35v-379h314v-103h-314v-571q0 -74 7.5 -121t26 -74.5t50 -38t78.5 -10.5q80 0 142 17l18 -111v0zM458 -84q78 -98 60.5 -194.5t-105.5 -204.5h-114q43 53 68.5 98 t31.5 85t-7 79t-50 82l116 55v0z" />
<glyph unicode="&#x164;" horiz-adv-x="1064" d="M598 1274v-1274h-131v1274h-428v108h987v-108h-428zM530 1495l-317 164l47 86l277 -133l264 133l41 -80z" />
<glyph unicode="&#x165;" horiz-adv-x="759" d="M684 6q-41 -10 -94 -15t-101 -5q-74 0 -124 17t-78.5 53t-39.5 91.5t-11 133.5v634h-234v103h234v344l126 35v-379h314v-103h-314v-571q0 -74 7.5 -121t26 -74.5t50 -38t78.5 -10.5q80 0 142 17l18 -111v0zM594 1174l-88 30l118 336l115 -39z" />
<glyph unicode="&#x16a;" horiz-adv-x="1435" d="M1239 522q0 -264 -134 -401t-405 -137q-160 0 -258 41t-153.5 107.5t-73.5 151.5t-18 171v927h131v-913q0 -78 15 -146.5t58 -119.5t118 -82t194 -31q98 0 173 22.5t125 71.5t74.5 129t24.5 197v872h129v-860v0zM448 1542v98h541v-98h-541z" />
<glyph unicode="&#x16b;" horiz-adv-x="1185" d="M858 0q0 53 4 121.5t15 116.5l-5 2q-43 -117 -138 -186.5t-230 -69.5q-88 0 -147.5 25.5t-94.5 69.5t-50 103.5t-15 126.5v709h129v-660q0 -127 43 -198.5t163 -71.5q72 0 132.5 33t103.5 92t67.5 141t24.5 178v486h129v-1018h-131zM348 1288v98h489v-98h-489z" />
<glyph unicode="&#x16e;" horiz-adv-x="1435" d="M1239 522q0 -264 -134 -401t-405 -137q-160 0 -258 41t-153.5 107.5t-73.5 151.5t-18 171v927h131v-913q0 -78 15 -146.5t58 -119.5t118 -82t194 -31q98 0 173 22.5t125 71.5t74.5 129t24.5 197v872h129v-860v0zM823 1556q0 45 -30.5 78t-75.5 33q-47 0 -78 -32.5 t-31 -78.5q0 -47 30.5 -78.5t78.5 -31.5q45 0 75.5 31.5t30.5 78.5zM919 1561q0 -39 -16.5 -76t-45 -64.5t-65.5 -44t-78 -16.5q-86 0 -143 53t-57 139q0 41 16.5 78t45 63.5t65.5 42t78 15.5q86 0 143 -54t57 -136z" />
<glyph unicode="&#x16f;" horiz-adv-x="1185" d="M858 0q0 53 4 121.5t15 116.5l-5 2q-43 -117 -138 -186.5t-230 -69.5q-88 0 -147.5 25.5t-94.5 69.5t-50 103.5t-15 126.5v709h129v-660q0 -127 43 -198.5t163 -71.5q72 0 132.5 33t103.5 92t67.5 141t24.5 178v486h129v-1018h-131zM710 1333q0 51 -32.5 86t-81.5 35 q-51 0 -86 -35t-35 -86q0 -49 34.5 -85t86.5 -36q49 0 81.5 36t32.5 85zM806 1333q-2 -41 -18 -78.5t-48 -66.5t-66.5 -45.5t-77.5 -16.5q-94 0 -156 57.5t-62 149.5q0 43 17.5 81t48.5 66.5t70 45t82 16.5q92 0 151 -60.5t59 -148.5z" />
<glyph unicode="&#x170;" horiz-adv-x="1435" d="M1239 522q0 -264 -134 -401t-405 -137q-160 0 -258 41t-153.5 107.5t-73.5 151.5t-18 171v927h131v-913q0 -78 15 -146.5t58 -119.5t118 -82t194 -31q98 0 173 22.5t125 71.5t74.5 129t24.5 197v872h129v-860v0zM520 1497l-55 68l260 202l73 -88zM880 1497l-51 70 l289 190l68 -94z" />
<glyph unicode="&#x171;" horiz-adv-x="1185" d="M858 0q0 53 4 121.5t15 116.5l-5 2q-43 -117 -138 -186.5t-230 -69.5q-88 0 -147.5 25.5t-94.5 69.5t-50 103.5t-15 126.5v709h129v-660q0 -127 43 -198.5t163 -71.5q72 0 132.5 33t103.5 92t67.5 141t24.5 178v486h129v-1018h-131zM443 1184l-70 61l225 266l91 -75z M773 1184l-68 61l242 258l88 -80z" />
<glyph unicode="&#x172;" horiz-adv-x="1435" d="M1239 522q0 -180 -61.5 -299t-192.5 -184q-113 -57 -178.5 -134t-65.5 -138q0 -72 70 -72q49 0 94 67l66 -53q-37 -63 -90.5 -95t-114.5 -32q-78 0 -120 37t-42 109q0 63 39 131.5t123 128.5q-16 -2 -34.5 -3t-35.5 -1q-158 0 -255 41t-151 107.5t-73.5 150.5t-19.5 172 v927h131v-913q0 -78 15 -146.5t58 -119.5t118 -82t194 -31q98 0 173 22.5t125 71.5t74.5 129t24.5 197v872h129v-860v0z" />
<glyph unicode="&#x173;" horiz-adv-x="1185" d="M1065 -289q-35 -61 -88 -95t-117 -34q-74 0 -117 37t-43 109q0 45 16.5 87t44 77.5t62.5 65.5t70 54q-8 49 -13.5 108.5t-0.5 106.5h-2q-49 -111 -143.5 -177t-229.5 -66q-88 0 -147.5 25.5t-94.5 69.5t-50 103.5t-15 126.5v709h129v-660q0 -127 43 -198.5t163 -71.5 q72 0 132.5 33t103.5 92t67.5 141t24.5 178v486h129v-639q0 -96 9.5 -195.5t25.5 -183.5q-98 -59 -143 -119.5t-45 -113.5q0 -70 71 -70q49 0 92 67l66 -53v0z" />
<glyph unicode="&#x178;" horiz-adv-x="1062" d="M592 504v-504h-131v504l-432 878h145l246 -514q31 -63 58.5 -125.5t51.5 -124.5h2q27 66 59 134.5t64 136.5l240 493h139zM408 1591q0 -35 -25 -60.5t-61 -25.5q-35 0 -60.5 25.5t-25.5 60.5q0 37 25.5 61.5t60.5 24.5q37 0 61.5 -24.5t24.5 -61.5zM844 1591 q0 -35 -25.5 -60.5t-60.5 -25.5q-37 0 -61.5 25.5t-24.5 60.5q0 37 24.5 61.5t61.5 24.5q35 0 60.5 -24.5t25.5 -61.5z" />
<glyph unicode="&#x179;" horiz-adv-x="1105" d="M96 0v92l637 985q35 53 65.5 98.5t65.5 94.5q-59 -2 -144 -3t-196 -1h-405v116h889v-94l-672 -1034q-23 -35 -45.5 -69.5t-46.5 -69.5q37 4 135 4h242h395v-119h-920zM530 1499l-30 78l334 152l47 -111z" />
<glyph unicode="&#x17a;" horiz-adv-x="911" d="M100 0v90l545 817q-53 -2 -134 -3t-171 -1h-229v115h680v-88l-541 -815q25 0 65.5 1t79.5 2t82 1h84h240v-119h-701zM453 1184l-66 67l242 258l86 -84z" />
<glyph unicode="&#x17b;" horiz-adv-x="1105" d="M96 0v92l637 985q35 53 65.5 98.5t65.5 94.5q-59 -2 -144 -3t-196 -1h-405v116h889v-94l-672 -1034q-23 -35 -45.5 -69.5t-46.5 -69.5q37 4 135 4h242h395v-119h-920zM643 1593q0 -37 -26.5 -63.5t-65.5 -26.5q-37 0 -63.5 25.5t-26.5 64.5q0 37 26.5 63.5t63.5 26.5 q39 0 65.5 -25.5t26.5 -64.5z" />
<glyph unicode="&#x17c;" horiz-adv-x="911" d="M100 0v90l545 817q-53 -2 -134 -3t-171 -1h-229v115h680v-88l-541 -815q25 0 65.5 1t79.5 2t82 1h84h240v-119h-701zM539 1348q0 -37 -26.5 -65t-65.5 -28t-65.5 27t-26.5 66t26.5 65.5t65.5 26.5t65.5 -25.5t26.5 -66.5z" />
<glyph unicode="&#x17d;" horiz-adv-x="1105" d="M96 0v92l637 985q35 53 65.5 98.5t65.5 94.5q-59 -2 -144 -3t-196 -1h-405v116h889v-94l-672 -1034q-23 -35 -45.5 -69.5t-46.5 -69.5q37 4 135 4h242h395v-119h-920zM563 1495l-317 164l47 86l277 -133l264 133l41 -80z" />
<glyph unicode="&#x17e;" horiz-adv-x="911" d="M100 0v90l545 817q-53 -2 -134 -3t-171 -1h-229v115h680v-88l-541 -815q25 0 65.5 1t79.5 2t82 1h84h240v-119h-701zM454 1184l-262 258l66 67l198 -180l199 180l63 -63z" />
<glyph unicode="&#x192;" horiz-adv-x="886" d="M365 182q-14 -135 -40 -230t-71 -156.5t-112.5 -90.5t-166.5 -29q-35 0 -73.5 4.5t-73.5 14.5l25 115q31 -10 71.5 -18.5t79.5 -8.5q55 0 93 16.5t64.5 57.5t42 110.5t27.5 177.5l60 578h-260v100h272l31 301q20 176 109 280.5t264 104.5q31 0 69.5 -3t73.5 -9l-19 -108 q-72 16 -153 16q-96 0 -146.5 -63.5t-64.5 -196.5l-33 -322h354v-100h-366z" />
<glyph unicode="&#x218;" horiz-adv-x="1032" d="M913 391q0 -90 -34.5 -164.5t-99 -129t-157 -84t-204.5 -29.5q-80 0 -156 10t-137 29l22 129q66 -25 137.5 -39.5t143.5 -14.5q70 0 133.5 15.5t110.5 48.5t75.5 85t28.5 128q0 86 -49 137t-122 87t-158 66.5t-157.5 74.5t-121.5 109.5t-49 174.5q0 80 29.5 148.5 t88 118.5t143.5 79t195 29q63 0 128 -7.5t120 -19.5l-16 -119q-55 16 -117.5 26.5t-122.5 10.5q-160 0 -237.5 -68.5t-77.5 -183.5q0 -84 49 -134t123 -86t159 -66.5t158.5 -74.5t122.5 -110.5t49 -175.5zM498 -102q37 0 64.5 -29t26.5 -81t-41 -123t-138 -154l-51 51 q76 72 87 125t-12 84q-14 20 -15 42.5t9 41t28.5 31t41.5 12.5z" />
<glyph unicode="&#x219;" horiz-adv-x="882" d="M766 299q0 -66 -28.5 -123t-82 -100t-131.5 -67.5t-176 -24.5q-59 0 -119.5 6t-107.5 20l18 123q49 -18 110.5 -28.5t121.5 -10.5q115 0 188.5 50.5t73.5 136.5q0 66 -38 100.5t-95.5 55t-125 36.5t-124.5 46t-95 81t-38 143q0 127 97 209t288 82q49 0 103 -6t102 -16 l-17 -111q-47 14 -100 22.5t-107 8.5q-119 0 -177 -47t-58 -127q0 -66 38 -100.5t96 -56t124.5 -38t125 -45.5t96.5 -80t38 -139zM434 -102q37 0 64.5 -29t26.5 -81t-41 -123t-138 -154l-51 51q76 72 87 125t-12 84q-14 20 -15 42.5t9 41t28.5 31t41.5 12.5z" />
<glyph unicode="&#x21a;" horiz-adv-x="1064" d="M598 1274v-1274h-131v1274h-428v108h987v-108h-428zM537 -102q37 0 64.5 -29t26.5 -81t-41 -123t-138 -154l-51 51q76 72 87 125t-12 84q-14 20 -15 42.5t9 41t28.5 31t41.5 12.5z" />
<glyph unicode="&#x21b;" horiz-adv-x="755" d="M684 6q-41 -10 -94 -15t-101 -5q-74 0 -124 17t-78.5 53t-39.5 91.5t-11 133.5v634h-234v103h234v344l126 35v-379h314v-103h-314v-571q0 -74 7.5 -121t26 -74.5t50 -38t78.5 -10.5q80 0 142 17l18 -111v0zM436 -102q37 0 64.5 -29t26.5 -81t-41 -123t-138 -154l-51 51 q76 72 87 125t-12 84q-14 20 -15 42.5t9 41t28.5 31t41.5 12.5z" />
<glyph unicode="&#x2c6;" horiz-adv-x="897" d="M639 1184l-199 178l-198 -178l-62 61l264 264l263 -260z" />
<glyph unicode="&#x2c7;" horiz-adv-x="897" d="M436 1184l-262 258l66 67l198 -180l199 180l63 -63z" />
<glyph unicode="&#x2d8;" horiz-adv-x="860" d="M668 1466q0 -49 -14.5 -93t-44 -78.5t-75 -55t-108.5 -20.5q-61 0 -106.5 20.5t-74 55t-42 79.5t-13.5 92h95q0 -57 36.5 -102t108.5 -45q68 0 105.5 40t37.5 107h95v0z" />
<glyph unicode="&#x2d9;" horiz-adv-x="575" d="M379 1348q0 -37 -26.5 -65t-65.5 -28t-65.5 27t-26.5 66t26.5 65.5t65.5 26.5t65.5 -25.5t26.5 -66.5z" />
<glyph unicode="&#x2da;" horiz-adv-x="808" d="M522 1333q0 51 -32.5 86t-81.5 35q-51 0 -86 -35t-35 -86q0 -49 34.5 -85t86.5 -36q49 0 81.5 36t32.5 85zM618 1333q-2 -41 -18 -78.5t-48 -66.5t-66.5 -45.5t-77.5 -16.5q-94 0 -156 57.5t-62 149.5q0 43 17.5 81t48.5 66.5t70 45t82 16.5q92 0 151 -60.5t59 -148.5z " />
<glyph unicode="&#x2db;" horiz-adv-x="1140" d="M326 0q-98 -59 -143.5 -119.5t-45.5 -113.5q0 -35 19.5 -52.5t52.5 -17.5q49 0 92 65l68 -51q-35 -63 -89.5 -96t-117.5 -33q-74 0 -117 37t-43 109q0 78 54.5 155.5t142.5 130.5z" />
<glyph unicode="&#x2dc;" horiz-adv-x="1056" d="M854 1380q-37 -68 -89 -104.5t-118 -36.5q-49 0 -84 18.5t-64.5 40t-57 40t-60.5 18.5q-72 0 -127 -99l-70 58q37 68 93.5 104.5t113.5 36.5q49 0 84 -18.5t63.5 -40t56.5 -41t62 -19.5q74 0 129 99l68 -56v0z" />
<glyph unicode="&#x2dd;" horiz-adv-x="993" d="M248 1184l-70 61l225 266l91 -75zM578 1184l-68 61l242 258l88 -80z" />
<glyph unicode="&#x312;" horiz-adv-x="843" d="M231 1165q-37 0 -64.5 29t-26.5 80t41 121.5t141 154.5l49 -49q-76 -72 -86.5 -125t12.5 -86q14 -20 14 -43t-10 -41t-28.5 -29.5t-41.5 -11.5z" />
<glyph unicode="&#x315;" horiz-adv-x="720" d="M324 1174l-88 30l118 336l115 -39z" />
<glyph unicode="&#x326;" horiz-adv-x="440" d="M207 -102q37 0 64.5 -29t26.5 -81t-41 -123t-138 -154l-51 51q76 72 87 125t-12 84q-14 20 -15 42.5t9 41t28.5 31t41.5 12.5z" />
<glyph unicode="&#x394;" horiz-adv-x="1234" d="M645 1155q-12 35 -19.5 62.5t-13.5 52.5h-2q-6 -27 -15 -56.5t-20 -64.5l-370 -1034h811zM61 0v92l478 1290h157l478 -1290v-92h-1113z" />
<glyph unicode="&#x3a9;" horiz-adv-x="1482" d="M918 0v113q68 55 125 114.5t97 129t62.5 153.5t22.5 190q0 125 -31 232.5t-91.5 186.5t-151.5 124t-210 45q-98 0 -186 -40t-153.5 -113.5t-103.5 -181t-38 -242.5q0 -100 16.5 -181t53.5 -152t95 -135.5t142 -129.5v-113h-471v115h320q-135 98 -216 243.5t-81 339.5 q0 168 50 299t137 220.5t204 135.5t248 46q129 0 239.5 -43t192.5 -128t128 -213t46 -298q0 -104 -25.5 -194.5t-67.5 -165t-97.5 -136t-116.5 -106.5h329v-115h-468z" />
<glyph unicode="&#x3bc;" horiz-adv-x="1206" d="M1118 -10q-29 -2 -59 -2q-106 0 -149.5 63.5t-32.5 186.5h-3q-43 -117 -136 -185.5t-226 -68.5q-68 0 -119 21.5t-80 64.5l17 -584h-133v1532h129v-680q0 -127 49 -188.5t157 -61.5q74 0 134.5 33t103.5 92t66.5 141t23.5 178v486h129v-676q0 -80 6 -128t20.5 -73.5 t39 -35t63.5 -9.5v-106v0z" />
<glyph unicode="&#x3c0;" horiz-adv-x="1300" d="M948 911q0 -225 11.5 -374.5t29.5 -243.5q23 -113 49.5 -155t73.5 -42q25 0 51.5 4t48.5 11l21 -107q-27 -8 -62.5 -12t-70.5 -4q-51 0 -89 14t-67 48t-50.5 88.5t-35.5 131.5q-39 207 -39 641h-391q4 -229 -27.5 -457.5t-107.5 -457.5l-150 8q82 229 122 454.5t36 452.5 h-272v107h1196v-107h-277z" />
<glyph unicode="&#x2013;" d="M0 555v109h1126v-109h-1126z" />
<glyph unicode="&#x2014;" horiz-adv-x="2048" d="M252 555v109h1544v-109h-1544z" />
<glyph unicode="&#x2018;" horiz-adv-x="464" d="M375 1475q-47 -51 -71.5 -94.5t-33 -78t-3.5 -61.5t18 -45q16 -23 17 -47.5t-9 -45t-29.5 -33.5t-44.5 -13q-45 0 -73.5 36.5t-24.5 101.5t49 150t147 183l58 -53v0z" />
<glyph unicode="&#x2019;" horiz-adv-x="464" d="M244 1516q45 0 72.5 -37t23.5 -100.5t-49 -149.5t-146 -182l-59 51q47 51 71.5 94t34 79t4 62.5t-19.5 44.5q-16 23 -17 47.5t9 44t29.5 33t46.5 13.5z" />
<glyph unicode="&#x201a;" horiz-adv-x="464" d="M244 180q45 0 72.5 -37t23.5 -100t-49 -148t-146 -184l-59 51q47 51 71.5 94.5t34 79t4 62.5t-19.5 45q-16 23 -17 47.5t9 44t29.5 32.5t46.5 13z" />
<glyph unicode="&#x201c;" horiz-adv-x="813" d="M375 1475q-47 -51 -71.5 -94.5t-33 -78t-3.5 -61.5t18 -45q16 -23 17 -47.5t-9 -45t-29.5 -33.5t-44.5 -13q-45 0 -73.5 36.5t-24.5 101.5t49 150t147 183l58 -53v0zM723 1475q-47 -51 -71.5 -94.5t-34 -78t-4.5 -61.5t18 -45q16 -23 18 -47.5t-8 -45t-29.5 -33.5 t-46.5 -13q-45 0 -72.5 36.5t-23.5 101.5t48 150t147 183l59 -53v0z" />
<glyph unicode="&#x201d;" horiz-adv-x="813" d="M244 1516q45 0 72.5 -37t23.5 -100.5t-49 -149.5t-146 -182l-59 51q47 51 71.5 94t34 79t4 62.5t-19.5 44.5q-16 23 -17 47.5t9 44t29.5 33t46.5 13.5zM590 1516q45 0 73.5 -37t24.5 -100.5t-49 -149.5t-147 -182l-58 51q47 51 71.5 94t33 79t3.5 62.5t-18 44.5 q-16 23 -18 47.5t8 44t30.5 33t45.5 13.5z" />
<glyph unicode="&#x201e;" horiz-adv-x="813" d="M244 180q45 0 72.5 -37t23.5 -100t-49 -148t-146 -184l-59 51q47 51 71.5 94.5t34 79t4 62.5t-19.5 45q-16 23 -17 47.5t9 44t29.5 32.5t46.5 13zM590 180q45 0 73.5 -37t24.5 -100t-49 -148t-147 -184l-58 51q47 51 71.5 94.5t33 79t3.5 62.5t-18 45q-16 23 -18 47.5 t8 44t30.5 32.5t45.5 13z" />
<glyph unicode="&#x2020;" horiz-adv-x="905" d="M502 1176l28 -215l-32 -508h-90l-31 508l26 215h-294v100h294l-26 283h153l-28 -283h295v-100h-295z" />
<glyph unicode="&#x2021;" horiz-adv-x="905" d="M504 618l26 -278h-155l28 278h-294v101h294l-26 229l26 232h-294v100h294l-26 279h153l-26 -279h293v-100h-293l26 -232l-26 -229h293v-101h-293z" />
<glyph unicode="&#x2022;" horiz-adv-x="858" d="M637 608q0 -43 -16.5 -81t-45 -65.5t-66.5 -44t-81 -16.5t-81 16.5t-65.5 44t-44 65.5t-16.5 81t16.5 81t44 65.5t65.5 44t81 16.5t81 -16.5t66.5 -44t45 -65.5t16.5 -81z" />
<glyph unicode="&#x2026;" horiz-adv-x="1275" d="M309 82q0 -41 -28.5 -69.5t-69.5 -28.5t-68.5 28.5t-27.5 69.5t27.5 69.5t68.5 28.5t69.5 -28.5t28.5 -69.5zM723 82q0 -41 -28.5 -69.5t-69.5 -28.5t-69 28.5t-28 69.5t28 69.5t69 28.5t69.5 -28.5t28.5 -69.5zM1137 82q0 -41 -29 -69.5t-70 -28.5t-69.5 28.5 t-28.5 69.5t28.5 69.5t69.5 28.5t70 -28.5t29 -69.5z" />
<glyph unicode="&#x2030;" horiz-adv-x="2062" d="M643 1108q0 -78 -21.5 -137.5t-59.5 -100.5t-89 -62.5t-108 -21.5q-115 0 -187 68t-72 225q0 76 23 135.5t60.5 100.5t88 62.5t107.5 21.5t104.5 -15.5t81 -50.5t53 -90t19.5 -135zM530 1094q0 104 -34.5 156.5t-118.5 52.5q-74 0 -115 -57.5t-41 -153.5 q0 -104 35 -157.5t117 -53.5q76 0 116.5 57.5t40.5 155.5zM195 -29l-82 64l1091 1376l84 -65zM1294 305q0 -78 -21.5 -137t-59 -100t-89 -62.5t-108.5 -21.5q-115 0 -186.5 66.5t-71.5 223.5q0 76 22.5 135.5t60.5 100.5t88 62.5t107 21.5t104.5 -15.5t81 -50t53 -90 t19.5 -133.5zM1180 291q0 102 -34 155.5t-118 53.5q-74 0 -115 -57.5t-41 -153.5q0 -104 34 -157.5t118 -53.5q74 0 115 57.5t41 155.5zM1933 305q0 -78 -21.5 -137t-59 -100t-89 -62.5t-108.5 -21.5q-115 0 -186.5 66.5t-71.5 223.5q0 76 22.5 135.5t60.5 100.5t88 62.5 t107 21.5t104.5 -15.5t81 -50t53 -90t19.5 -133.5zM1821 291q0 102 -35 155.5t-119 53.5q-74 0 -115 -57.5t-41 -153.5q0 -104 35 -157.5t117 -53.5q76 0 117 57.5t41 155.5z" />
<glyph unicode="&#x2039;" horiz-adv-x="643" d="M377 256l-248 346l250 350l92 -59l-209 -289l209 -285z" />
<glyph unicode="&#x203a;" horiz-adv-x="643" d="M260 256l-90 61l211 289l-207 285l92 61l248 -344z" />
<glyph unicode="&#x2044;" horiz-adv-x="434" d="M-356 -274l-93 61l1293 1851l90 -61z" />
<glyph unicode="&#x20ac;" horiz-adv-x="1212" d="M1153 98q-92 -57 -183 -85.5t-222 -28.5q-225 0 -358.5 128t-164.5 373h-196v95h190q-2 35 -2 82q0 35 1 59t3 65h-192v95h200q20 139 72.5 237.5t127.5 160.5t168 91t196 29q96 0 189 -24.5t153 -61.5l-48 -101q-53 35 -138 59.5t-177 24.5q-72 0 -138.5 -23.5 t-120.5 -71.5t-92 -129t-54 -191h497v-95h-504q-2 -27 -3 -50t-1 -52q0 -80 2 -104h506v-95h-497q25 -190 128 -291.5t283 -101.5q90 0 175 27.5t157 75.5l43 -97v0z" />
<glyph unicode="&#x2122;" horiz-adv-x="1443" d="M381 1300v-493h-109v493h-159v82h428v-82h-160zM1210 807l-51 340l-14 119l-29 -101l-110 -358h-119l-109 362l-24 97l-6 -76l-58 -383h-98l86 575h145l107 -360l24 -102l19 92l117 370h141l86 -575h-107z" />
<glyph unicode="&#x2202;" horiz-adv-x="1308" d="M940 487q0 123 -78 206t-225 83q-74 0 -135.5 -27.5t-105.5 -76.5t-68.5 -114.5t-24.5 -141.5q0 -164 81 -243t208 -79q76 0 139.5 31t109.5 84t72.5 124.5t26.5 153.5zM1143 850q0 -84 -9.5 -173t-30 -176t-53 -167t-81.5 -148q-63 -88 -163.5 -145t-227.5 -57 q-201 0 -303.5 112.5t-102.5 306.5q0 102 35 190.5t98.5 153t151.5 101.5t194 37q137 0 228.5 -65.5t128.5 -170.5q2 55 3 101.5t1 93.5q-2 143 -39 247.5t-101.5 174t-151.5 102.5t-188 31l11 104q137 -2 247.5 -47t189.5 -128t121 -203.5t42 -274.5z" />
<glyph unicode="&#x220f;" horiz-adv-x="1605" d="M1278 1382v-1896h-127v1896h-694v-1896h-129v1896h-230v113h1409v-113h-229z" />
<glyph unicode="&#x2211;" horiz-adv-x="1249" d="M74 -514v98l659 924l-618 889v98h981v-113h-817l608 -870l-656 -907h893v-119h-1050z" />
<glyph unicode="&#x2212;" d="M90 555v109h946v-109h-946z" />
<glyph unicode="&#x221a;" horiz-adv-x="1232" d="M666 0h-146l-325 918h-195v100h160h137l215 -637q23 -63 43 -128t39 -128h4q16 61 31.5 119.5t32.5 117.5l350 1190h137z" />
<glyph unicode="&#x221e;" horiz-adv-x="1982" d="M889 608q-55 41 -107.5 79t-103.5 66.5t-101.5 46t-97.5 17.5q-100 0 -154.5 -60.5t-54.5 -142.5q0 -92 55.5 -150t163.5 -58q90 0 190.5 60t209.5 142zM1712 608q0 92 -55 150.5t-162 58.5q-90 0 -190.5 -60.5t-208.5 -142.5q55 -41 107 -78.5t103.5 -66.5t100.5 -46 t98 -17q100 0 153.5 60t53.5 142zM1847 618q0 -66 -23.5 -125t-68.5 -103t-110.5 -70.5t-147.5 -26.5q-66 0 -129 19.5t-126.5 53t-127 76.5t-127.5 93q-61 -45 -123.5 -89.5t-127 -78t-129 -54t-130.5 -20.5q-86 0 -150.5 24.5t-106.5 67.5t-62.5 99.5t-20.5 119.5 q0 66 23.5 125t68.5 103.5t109.5 71t144.5 26.5q66 0 131.5 -19.5t130 -53.5t128 -78t124.5 -91q61 45 124 89t127.5 78t128 54.5t128.5 20.5q86 0 150.5 -24.5t106.5 -67.5t63.5 -100t21.5 -120z" />
<glyph unicode="&#x222b;" horiz-adv-x="686" d="M649 1880q-23 6 -51.5 11t-56.5 5q-43 0 -75 -14t-52.5 -56t-29.5 -117t-9 -198q0 -82 2 -203.5t4 -267t5 -305.5t5 -316.5t4 -300t2 -255.5q0 -145 -18.5 -243.5t-55 -160t-92 -88t-131.5 -26.5q-51 0 -102 10v117q20 -6 50 -10.5t56 -4.5q45 0 76 13.5t51.5 53.5 t29.5 112.5t9 189.5q0 76 -1 196.5t-4 267t-5 309.5t-5 321.5t-4 305t-1 259.5q0 145 18.5 245.5t55 162t93 88t130.5 26.5q25 0 52.5 -3t49.5 -9v-115v0z" />
<glyph unicode="&#x2248;" d="M1020 426q-41 -35 -103.5 -65.5t-144.5 -30.5q-78 0 -129 19.5t-95 42t-90 42t-112 19.5t-117 -31t-79 -55l-44 94q41 37 102.5 70.5t143.5 33.5q72 0 124 -19.5t99.5 -44t94.5 -44t110 -19.5q55 0 101.5 21.5t95.5 60.5l43 -94v0zM1020 760q-41 -41 -102.5 -74 t-145.5 -33q-78 0 -128 19.5t-94 42t-90 42t-114 19.5q-66 0 -117 -30.5t-79 -55.5l-44 94q41 39 103.5 72t144.5 33q72 0 125 -19.5t99.5 -44t93.5 -44t108 -19.5q55 0 101.5 24.5t95.5 67.5l43 -94v0z" />
<glyph unicode="&#x2260;" horiz-adv-x="1130" d="M532 393l-124 -309h-113l125 309h-303v111h346l84 211h-430v108h473l129 320h115l-129 -320h307v-108h-350l-87 -211h437v-111h-480z" />
<glyph unicode="&#x2264;" d="M135 0v109h856v-109h-856zM901 233l-780 494l778 498l68 -92l-650 -404l650 -395z" />
<glyph unicode="&#x2265;" d="M135 0v109h856v-109h-856zM227 233l-67 93l649 403l-649 395l65 101l781 -494z" />
<glyph unicode="&#x25ca;" horiz-adv-x="1257" d="M618 1257l-391 -552l414 -576l391 545zM678 -16h-82l-510 716l498 699h75l512 -715z" />
<glyph unicode="&#x25fc;" horiz-adv-x="1013" d="M0 1014h1014v-1014h-1014v1014z" />
<glyph unicode="&#xf6c9;" horiz-adv-x="788" d="M231 1499l-30 78l334 152l47 -111z" />
<glyph unicode="&#xf6ca;" horiz-adv-x="897" d="M444 1495l-317 164l47 86l277 -133l264 133l41 -80z" />
<glyph unicode="&#xf6cb;" horiz-adv-x="1118" d="M410 1591q0 -35 -25 -60.5t-61 -25.5q-35 0 -60.5 25.5t-25.5 60.5q0 37 25.5 61.5t60.5 24.5q37 0 61.5 -24.5t24.5 -61.5zM846 1591q0 -35 -25.5 -60.5t-60.5 -25.5q-37 0 -61.5 25.5t-24.5 60.5q0 37 24.5 61.5t61.5 24.5q35 0 60.5 -24.5t25.5 -61.5z" />
<glyph unicode="&#xf6ce;" horiz-adv-x="749" d="M512 1499l-352 119l47 111l336 -152z" />
<glyph unicode="&#xf6cf;" horiz-adv-x="993" d="M252 1497l-55 68l260 202l73 -88zM612 1497l-51 70l289 190l68 -94z" />
<glyph unicode="&#xf6d0;" horiz-adv-x="1206" d="M172 1542v98h541v-98h-541z" />
<glyph unicode="&#xf730;" horiz-adv-x="1263" d="M1145 551q0 -129 -43 -234.5t-116 -179.5t-170 -113.5t-208 -39.5q-109 0 -199 34.5t-154.5 102t-100 169t-35.5 236.5q0 127 43 229.5t115.5 175.5t168 111.5t201.5 38.5q119 0 212 -37.5t156.5 -107.5t96.5 -168t33 -217zM1012 535q0 92 -22.5 171.5t-70 139t-118 94.5 t-164.5 35q-80 0 -150.5 -31t-123 -88t-83 -137t-30.5 -178q0 -92 21.5 -174t67.5 -143.5t116.5 -97.5t169.5 -36q78 0 147.5 33t122.5 91t85 140.5t32 180.5z" />
<glyph unicode="&#xf731;" horiz-adv-x="686" d="M338 0v944l-248 -106l-27 116l299 115h109v-1069h-133z" />
<glyph unicode="&#xf732;" horiz-adv-x="989" d="M123 0v102l317 277q115 94 179.5 177t64.5 185q0 100 -62.5 167t-183.5 67q-78 0 -149.5 -26.5t-118.5 -55.5l-18 115q66 35 141.5 54t167.5 19q88 0 156.5 -23.5t113.5 -66.5t68.5 -101.5t23.5 -127.5q0 -113 -62.5 -211t-201.5 -213l-266 -223v-4q33 2 94.5 4t139 3 t167.5 1h180v-119h-751z" />
<glyph unicode="&#xf733;" horiz-adv-x="948" d="M821 59q0 -102 -38 -186t-108.5 -145.5t-171 -95t-229.5 -33.5q-102 0 -180 18l15 121q35 -10 86 -17.5t100 -7.5q96 0 169 24.5t122 68.5t73.5 102.5t24.5 126.5q0 90 -38 151.5t-102.5 96t-157.5 47t-206 2.5v104q104 0 190.5 18.5t149 55.5t96 93t33.5 138 q0 111 -68.5 172.5t-185.5 61.5q-63 0 -128.5 -17.5t-119.5 -46.5l-12 113q70 29 136.5 43t144.5 14q98 0 167.5 -25.5t114.5 -70.5t66.5 -102.5t21.5 -122.5q0 -123 -73.5 -216t-190.5 -136v-2q70 -10 123 -40t92 -73t61.5 -104.5t22.5 -129.5z" />
<glyph unicode="&#xf734;" horiz-adv-x="1099" d="M676 936h-2l-516 -821q63 2 142 3t138 1h238v817zM803 0v-393h-127v393h-623l-22 109l600 956h172v-946h268v-119h-268z" />
<glyph unicode="&#xf735;" horiz-adv-x="962" d="M848 88q0 -102 -43 -191.5t-120 -156t-183.5 -104t-231.5 -37.5q-35 0 -76.5 4t-76.5 8l20 125q29 -8 73 -14.5t79 -6.5q104 0 183 28t132 76t80 111.5t27 135.5q0 164 -112 250.5t-329 86.5h-90v662h621v-127h-496v-418q133 0 234.5 -31.5t170 -89t103.5 -137.5t35 -174 z" />
<glyph unicode="&#xf736;" horiz-adv-x="1193" d="M938 442q0 156 -83 248t-224 92q-82 0 -142.5 -27.5t-100.5 -72.5t-60.5 -103.5t-20.5 -117.5q0 -70 18.5 -137.5t57.5 -119.5t100.5 -83t139.5 -31q72 0 130 26.5t99 75t63.5 112.5t22.5 138zM1079 467q0 -104 -34.5 -193.5t-97 -153t-150.5 -100t-197 -36.5 q-106 0 -189 41t-139.5 116.5t-86 185t-29.5 244.5q0 221 54 388t150.5 275.5t226.5 161t279 52.5q14 0 38 -1t40 -3v-115q-23 4 -47.5 6t-48.5 2q-123 0 -216 -40t-157.5 -110.5t-108.5 -174t-63 -221.5q-4 -25 -7 -41.5t-9 -51.5h2q49 92 143 145.5t225 53.5 q98 0 176 -30.5t132.5 -87t84 -136.5t29.5 -176z" />
<glyph unicode="&#xf737;" horiz-adv-x="940" d="M874 954q-135 -299 -250.5 -635.5t-205.5 -711.5h-150q102 393 221 725t244 610q-61 -2 -159.5 -3t-155.5 -1h-363v127h819v-111v0z" />
<glyph unicode="&#xf738;" horiz-adv-x="1120" d="M846 328q0 59 -21.5 106t-61.5 88t-95.5 78t-124.5 74h-2q-119 -70 -194 -151t-75 -181q0 -113 77 -182.5t212 -69.5q59 0 110.5 16.5t90.5 46t61.5 74t22.5 101.5zM819 1116q0 96 -68.5 164t-191.5 68q-63 0 -113.5 -18.5t-84 -50.5t-51 -74t-17.5 -91 q0 -96 70.5 -166.5t197.5 -140.5h2q70 43 118 80t79 73.5t45 74.5t14 81zM983 352q0 -88 -36 -157.5t-96 -115.5t-140 -70.5t-170 -24.5q-102 0 -178 26.5t-127.5 72.5t-76 108.5t-24.5 134.5q0 74 26.5 132t69.5 107t97.5 89t111.5 77h-2q-135 78 -208.5 165t-73.5 208 q0 76 29.5 139.5t84 110.5t131 72.5t170.5 25.5q90 0 161 -23.5t120 -66.5t75.5 -102.5t26.5 -129.5q0 -111 -68.5 -198.5t-219.5 -181.5q59 -33 115.5 -71t100.5 -85t72.5 -106.5t28.5 -135.5z" />
<glyph unicode="&#xf739;" horiz-adv-x="1193" d="M887 582q0 84 -20.5 157.5t-61.5 126t-100.5 81t-137.5 28.5q-70 0 -128 -26.5t-99 -75t-63.5 -113t-22.5 -135.5q0 -162 81 -252t228 -90q74 0 133.5 24.5t101.5 66.5t65.5 95.5t23.5 112.5zM1038 489q0 -223 -54 -393t-150.5 -279.5t-229.5 -163.5t-291 -54 q-23 0 -54.5 2t-59.5 6v123q29 -8 63.5 -12.5t61.5 -4.5q242 2 372.5 131t182.5 381q4 23 9 54.5t9 66.5h-2q-53 -84 -149.5 -132t-208.5 -48q-195 0 -308.5 114.5t-113.5 317.5q0 102 33.5 191.5t95 154t148.5 101t194 36.5q98 0 181 -33.5t143.5 -106.5t94 -184.5 t33.5 -267.5z" />
<glyph unicode="&#xf8ff;" horiz-adv-x="2129" d="M283 729v-65l-228 -11v86zM1087 727q4 0 5 10q0 10 -5 11q6 -11 0 -21zM1081 731q10 0 5 4t-1 4v2q-10 0 -4 -4t0 -4v-2v0zM1075 735q-4 -4 -4 -2q0 4 4 2zM1075 731h2v6q0 10 -8 2q4 0 6 -2q-4 0 -6 -4t6 0v-2zM1069 727q-6 10 0 21q-4 0 -4 -11q0 -10 4 -10zM1061 733 q-4 -2 -4 2q0 6 4 4v2q-4 2 -5 -5t5 -5v2zM1051 741v-6q0 -4 -1 -3t-1 3v6h-2v-6q0 -4 2 -4q4 0 4 4v6h-2zM1044 733h-4v12h-2v-14h6v2zM1300 10l-505 -129l55 -135h432l33 76l-17 33l-157 -41l-23 55l219 55zM1298 178l-503 -131l36 -92l506 127zM803 330v-123l35 -84 l489 123v84h-524zM1161 694q-29 6 -51.5 7t-44.5 1q-20 0 -45 -1t-53 -7l30 -303h136l28 303v0zM942 391l-35 295q-25 -6 -41 -13t-30 -11q-12 -4 -19.5 5t-9.5 22t1 26.5t11 15.5q57 16 119.5 27.5t126.5 11.5q66 0 128 -11t122 -28q6 -2 9 -14t1 -25.5t-9 -24t-20 -5.5 q-14 8 -33.5 13t-43.5 11l-31 -295h135q53 47 96 126t43 177q0 82 -31.5 156t-85 127t-126 85t-154.5 32t-154.5 -32t-126 -85t-85 -127t-31.5 -156q0 -86 34.5 -164.5t106.5 -138.5h133zM1538 694q0 -106 -40 -194t-99 -142v-153l-33 -10l64 -152l-62 -14l62 -144l-62 -16 l23 -51l-58 -131h-98q-4 -37 -53 -61.5t-117 -24.5q-70 0 -118 24.5t-52 61.5h-96l-97 233l62 17l-62 149l68 18l-39 95v159q-59 57 -100 145.5t-41 190.5q0 98 37 185.5t101.5 152t151.5 101t185 36.5t184 -36.5t150.5 -101t101.5 -152t37 -185.5zM2073 739q2 -23 2 -43 v-43l-228 11v65l226 10v0zM1735 1425q33 -31 59 -59l-166 -152q-10 12 -21.5 23.5t-23.5 24.5zM1098 1440q-16 2 -32.5 1t-33.5 -1l-8 225h84l-10 -225v0zM336 1368q14 16 28.5 30.5t30.5 28.5l152 -167q-12 -10 -23.5 -21.5t-23.5 -21.5l-164 151v0z" />
<glyph unicode="&#xfb00;" horiz-adv-x="1329" />
<glyph unicode="&#xfb01;" horiz-adv-x="1200" d="M877 0v915h-502v-915h-129v915h-234v103h234v51q0 209 110.5 322.5t343.5 113.5q70 0 138.5 -11t126.5 -28l-27 -108q-57 18 -125 29.5t-121 11.5q-168 0 -242.5 -81t-74.5 -226v-74h629v-1018h-127z" />
<glyph unicode="&#xfb02;" horiz-adv-x="1200" d="M877 0v1384q-53 8 -102.5 12.5t-98.5 4.5q-156 0 -228.5 -63.5t-72.5 -209.5v-110h311v-103h-311v-915h-129v915h-234v103h234v131q0 168 108.5 262t335.5 94q78 0 159 -8t155 -18v-1479h-127z" />
<glyph unicode="&#xfb03;" horiz-adv-x="1820" />
<glyph unicode="&#xfb04;" horiz-adv-x="1820" />
<glyph horiz-adv-x="1966" d="M604 86q0 -16 -9 -26.5t-20 -20.5q-8 -2 -16 -8t-18 0q-14 4 -10 15t6 22q0 12 18 20q12 0 20 8q6 -2 15.5 -1t13.5 -9zM881 158q14 -29 8 -59.5t-27 -53.5q-4 -8 -11 -9t-13 -5q-27 4 -30 26.5t-7 40.5q4 16 5 34t11 32q14 8 20.5 22.5t22.5 14.5l6 -6q-4 -14 4.5 -20.5 t10.5 -16.5zM508 371q-25 4 -52.5 3t-54.5 -3q-16 -2 -30.5 -5.5t-24.5 -11.5q-2 -33 -6 -66.5t-8 -66.5q4 -53 2 -111.5t2 -113.5q8 0 15 3t14 -1q12 4 23 -1t24 1q2 33 2 63q0 33 2 66q4 10 13 15t20 10q8 4 16 -0.5t14 6.5l-2 57q-8 10 -19.5 9t-23.5 -1q-8 -8 -14 -8 q-16 4 -15 19.5t-4 25.5q-4 8 9 21q20 6 39.5 9t39.5 7l13 8q-4 18 1 34t5 32zM682 70q-6 23 -6 45q0 23 1 45t-1 43.5t-14 40.5q-23 14 -48 24l-16 11q-16 -4 -33.5 -1t-34.5 -10q-14 -8 -14 -22t-2 -31q10 -4 23.5 -3t25.5 2t23.5 -2t19.5 -15q-2 -8 3 -12.5t-1 -12.5 q-6 -10 2 -16q4 -4 2 -10.5t-8 -8.5q-14 -4 -27.5 -3t-29.5 -3q-23 -10 -35 -31.5t-16 -44.5q-6 -10 -1 -21t-3 -22q0 -14 10 -22t20 -13q10 10 17 5q16 -4 29.5 9t29.5 23q10 2 12 -2t2 -12q0 -6 -1 -14.5t5 -12.5q10 -4 16.5 0t16.5 4q8 4 16.5 5.5t14.5 7.5l2 80v0z M938 61q18 35 13 72t-13 78q2 6 -5 12t-16.5 10.5t-17.5 9.5t-12 7q-4 4 -10 4q-4 0 -7 -6q-23 2 -39 -8q-10 -6 -15 -16.5t-13 -14.5q-10 -6 -19 6q8 37 4 75t-10 77l-4 14h-16q-18 -6 -16.5 -22.5t-2.5 -28.5q-6 -35 -4 -70t-4 -70q4 -35 0 -67.5t0 -63.5q0 -18 -3 -35.5 t-1 -37.5q14 -8 31.5 -2t32.5 12q10 4 16 2t11 -8t10.5 -12.5t11.5 -10.5q16 0 26 2q23 12 48.5 39.5t23.5 52.5zM1147 252q-16 -2 -33.5 -5t-28.5 -22q-8 -8 -10 -23.5t-20 -11.5q-4 16 -4 29v31q-8 4 -15.5 0t-15.5 0q-14 -8 -23 -27q0 -59 1 -113.5t8 -113.5l6 -8 q10 -8 23.5 -3t23.5 1q-6 23 -1 42t-3 42q4 23 10 46t22 44q12 10 26.5 13t27.5 13q2 16 6 33t0 33zM1249 31q0 41 -2 80t-2 75q0 14 2 27.5t-2 26.5q-14 10 -27.5 4t-29.5 -4q-14 -23 -10 -49.5t0 -53.5q-4 -10 -4 -24t-3 -29q4 -20 1 -45t12 -45q31 0 61 10q4 6 4 12v15z M1245 367q-4 10 -9 18t-15 12q-4 4 -10.5 5t-10.5 -5q-10 -12 -14 -30.5t6 -30.5q4 -10 16.5 -11t22.5 3q18 12 14 39zM1513 -20q-8 16 -16 33.5t-20 31.5q-12 23 -26.5 42t-18.5 46q-4 10 -10.5 17.5t-2.5 17.5q14 16 34 26.5t34 26.5l-19 35q-18 -2 -32.5 -9t-30.5 -11 q-8 -4 -18.5 -12.5t-20.5 1.5q2 41 3 81t-1 79l-4 6q-16 0 -28.5 5t-26.5 10q-4 -23 -7.5 -48.5t1.5 -50.5q-6 -16 -1 -39.5t-4 -40.5q2 -31 1 -56.5t-3 -50t-2 -48.5q0 -25 2 -56l-2 -14h49q6 2 13.5 -2t11.5 2v27q0 14 -2 30q2 16 -4 34t14 24q10 -4 11.5 -13.5t7.5 -17.5 q-2 -14 7 -24.5t13 -22.5q20 -12 30.5 -32.5t29.5 -35.5q6 2 11 -3t15 -1q12 1 12 13zM870 1104q-4 23 -15 44t-38 26q-4 -10 -13 -7.5t-16 0.5q-14 6 -28.5 2t-24.5 -14q-23 -31 -7.5 -59.5t32.5 -55.5q4 -8 10 -6t14 0q14 -4 26.5 3t25.5 12q12 12 27 22t7 33zM1571 -127 q-45 4 -100.5 -5t-98.5 -3q-115 4 -223.5 -8.5t-220.5 0.5q-51 -8 -99.5 -3t-97.5 9q-59 4 -121.5 3t-126.5 -1q-43 0 -102 -3t-102 -14q-8 -2 -19 -2q-8 0 -12 11q0 33 -2 66.5t8 66.5q4 41 2 82t4 82q-8 47 -1 91t-1 91q0 66 5 132.5t9 135.5q4 74 1 146.5t1 146.5 q8 16 23.5 13t30.5 1q16 -10 37.5 -5t37.5 3q6 6 15.5 11.5t11.5 -9.5q4 -4 1 -12t5 -12q-4 -29 -3 -78t4 -106.5t7.5 -118t6.5 -109.5q66 20 120 56t117 59q10 4 19.5 12t23.5 12q4 2 8 6.5t13 0.5q10 -4 8 -14.5t-2 -20.5q-20 -59 -10 -125q4 -10 13 -6t15 4 q16 14 34.5 23.5t35.5 21.5q20 12 40.5 23.5t43.5 19.5q25 16 48 32.5t50 26.5l41 33q2 8 12 14q6 0 11.5 -4t11.5 -8q0 -29 6 -58.5t6 -58.5q2 -6 6 -5t6 -3q8 -10 4 -20.5t-8 -20.5l4 -4q35 8 65 26.5t59.5 39t59 39t64.5 26.5q10 10 22.5 13t22.5 14q10 2 18.5 9t17.5 13 t19.5 9.5t22.5 -7.5q4 0 8 -2t6 -6q-2 -8 1.5 -13t7.5 -11q-4 -16 0 -29.5t-4 -26.5q2 -27 0 -51.5t10 -46.5q-4 -14 5 -25.5t-1 -21.5q2 -16 0 -29.5t8 -25.5q2 -10 3 -19.5t-5 -17.5q4 -23 5 -47.5t9 -47.5q-4 -8 -2 -16t2 -16q0 -78 11.5 -151t13.5 -150q0 -4 3 -9.5 t-1 -9.5zM926 1360q-25 -27 -60 -17q-10 12 -18 23.5t-10 26.5q-27 41 -72 51t-88 22l-64 4q-4 -4 -12 -2t-14 -2q-68 -20 -113 -43q-12 -16 -31.5 -27.5t-23.5 -33.5q-12 -31 -16.5 -70t-6.5 -73q10 -8 22.5 -5t22.5 0q43 4 86 5h90q8 -4 3 -15q-16 -12 -32 -1t-32 5 q-20 2 -41.5 -1t-42.5 -1q-18 -4 -39 -4q-18 0 -35 -10l-6 -8q-4 -39 -3 -63.5t5 -65.5q4 -14 1 -28.5t7 -29.5q27 -2 42.5 -1t28.5 2t28.5 3.5t42.5 2.5q6 4 13 2t13 -5q2 -2 1 -4t1 -4l-8 -4q-25 4 -43 3t-36.5 -3t-41 -4t-53.5 0q-23 -2 -47.5 -4t-46.5 0q-33 -2 -68 -2 t-63 8l-4 6q6 6 18 11q16 -8 37 -9.5t43 -5.5q14 2 28.5 1t24.5 7q-2 53 8.5 94.5t14.5 96.5q-2 4 -6 8q-31 2 -58.5 0t-56.5 10q-4 10 6 11q29 -8 58 -9q29 0 57 2l4 7q4 35 11 70.5t20 64.5v6q47 53 107.5 86t135.5 41q37 4 74 -4t70 -23q10 -4 20 -4t21 -4 q35 -8 69.5 -24.5t57.5 -47.5q4 -4 0 -18zM915 1145q6 -39 -14 -64q-23 -14 -41 -31.5t-45 -21.5q-12 4 -14 -7t-12.5 -3t-24.5 4t-27 -2q-12 0 -22 1t-21 5q-16 14 -31.5 31.5t-5.5 42.5q6 18 17.5 34.5t32.5 26.5q23 10 45 21.5t51 5.5q33 -2 64.5 -8t47.5 -35zM1327 1028 q-25 0 -52.5 -1t-51.5 -9q-8 4 -15.5 5t-11.5 11q4 29 7 57.5t-5 57.5q-4 6 -13 1t-16 -9q-29 -16 -54 -40t-30 -59q-8 -8 -18 -11t-20 1q-10 14 -6.5 30.5t-0.5 33.5l-2 63q-6 6 -16 3t-21 1q-4 4 -13 2t-9 9q27 -2 52.5 2t53.5 0q6 -6 7 -15v-16t2 -14.5t10 -10.5 q29 12 53.5 29.5t52.5 28.5q12 -8 28.5 -3t21.5 -16q4 -23 3 -44t1 -44q4 -6 3 -13t5 -11q18 -4 26 0q8 0 16.5 -2.5t18.5 -2.5q6 -4 0 -10zM1802 1169q0 -8 -4 -8q-23 4 -43 1t-43 -5q-70 -4 -109.5 -6t-74.5 -8q-16 -14 -14 -32.5t-7 -35.5q0 -10 3 -16t6 -15 q8 -10 28 -14q14 2 27.5 8t19.5 19q0 14 -14 24q-10 8 -21.5 6t-19.5 9q6 10 19.5 8t25.5 -2q20 -6 31 -33q-2 -31 -37 -55q-10 -4 -21.5 -5t-21.5 -5q-25 6 -50.5 16t-41.5 33q-8 25 -2 46t8 44q-4 10 -12.5 8t-18.5 0l-67 -2q0 4 -2 4t-3 4q6 4 15 4q8 0 14 2q18 -4 39 -2 t39 2q8 6 9 15.5t1 19.5q6 14 7 32.5t12 29.5q10 6 16 -2.5t12 -12.5q10 -16 6 -35.5t5 -38.5q8 -12 21 -8t24 0q47 4 100 3t131 10q6 -5 8 -7z" />
<glyph horiz-adv-x="2695" d="M1696 1219q-10 8 -14.5 -1.5t-10.5 -5.5q-47 -23 -62.5 -69.5t-13.5 -93.5q14 -4 24.5 8t25.5 8q6 14 17 29.5t20.5 31t12.5 33t-12 33.5q12 0 13 10v17zM944 512q-14 4 -26.5 -6t-20.5 -23q-23 -29 -40 -61.5t-3 -67.5q10 -4 14 2t9 13q23 23 40 47t31 55zM1227 467 q4 10 8 27.5t-12 21.5l-11 -59q10 2 11 4q0 2 4 6zM762 29q-6 23 -30.5 26.5t-43.5 -4.5q-23 -18 -44 -38.5t-38 -43.5q-10 -31 -24.5 -61.5t-26.5 -61t-19.5 -62.5t-3.5 -67q6 -2 7.5 1t5.5 8q29 37 59.5 71.5t61 71.5t56.5 76t40 84zM1171 -147q-4 -23 -7 -47.5t5 -47.5 q6 -6 16.5 -5t19.5 7.5t13.5 17.5t-1.5 27q2 8 5 22.5t2 28t-6.5 23.5t-17.5 12zM1446 -274q12 27 4 57.5t-25 52.5q-10 -12 -12 -26.5t-4 -28.5q4 -16 9 -33.5t28 -21.5zM707 942q-4 -2 -8.5 -6t-20.5 -9t-49 -10.5t-94 -9.5q-70 -6 -132.5 -17t-128.5 -34 q-10 -23 -27.5 -16.5t-29.5 12.5q-2 10 3 15t11.5 10.5t11.5 10.5t7 13q12 25 21.5 49.5t17.5 48.5q-4 12 4 26.5t14 27.5q45 104 86 209.5t66 216.5q-8 29 6 43q12 4 16 -4.5t11 -14.5q-14 -80 -41 -153.5t-58 -146.5t-60.5 -146.5t-49.5 -151.5l4 -4q78 12 149.5 26.5 t153.5 16.5q25 -4 55 -4q31 0 55 10l7 -8v0zM1026 1004q-10 -25 -18.5 -50.5t-26.5 -48.5q-14 -6 -25.5 1t-17.5 20q-33 76 -20 153q-2 2 -1 17.5t2 34t1 34.5q0 18 -7 27q-12 -31 -13 -63.5t-2 -64.5t-8 -61.5t-32 -56.5q-2 -2 -13 -6t-25.5 2t-27 24.5t-18.5 57.5 q6 39 8 75t9 72q4 14 -4.5 30t8.5 28q14 8 26 -8q2 -31 -2 -65t-6 -65.5t-1 -59t13 -48.5q14 -10 21.5 -4t10.5 18.5t5 25.5t6 17q8 41 6 86t11 86q6 6 10 15.5t8 16.5t11.5 10t19.5 -5q14 -39 15 -77.5t-1 -77.5t-1 -77t14 -79q2 -6 9 -8t13 6l4 11t9 23.5t13.5 23 t16.5 10.5zM1341 1061q-14 -35 -44.5 -60.5t-71.5 -25.5t-77 15.5t-54 49.5q-16 23 -15.5 48.5t4.5 54.5q4 18 15.5 30.5t13.5 30.5q59 49 131 25q8 -6 16.5 -9t6.5 -16q-6 -8 -14.5 0t-18.5 8q-55 14 -103 -32q-16 -25 -24 -54.5t4 -58.5q45 -61 111 -70q18 8 39 9 q23 0 38 20q6 4 10.5 11t9.5 14.5t10 10.5t13 -1zM1716 1425q-6 -10 -19.5 -20t-29.5 -8q-4 6 -9 14t-16 -2q-59 -47 -113 -99.5t-77 -121.5q-6 -41 -10 -86t2 -88t23.5 -80t52.5 -66q20 -16 44.5 -13t49.5 1q12 8 21.5 17.5t21.5 17.5q4 -18 -13.5 -26.5t-29.5 -20.5 q-31 -12 -67 -5t-60 29q-47 43 -55 95q-10 4 -11 10q0 6 2 12t3 12.5t-7 10.5q4 6 2 13t-5 15t-4 16.5t5 16.5q-2 61 17.5 113.5t52.5 98.5t76 86t88 75q8 0 18 3t21 3q10 0 17 -4.5t9 -18.5zM1995 1024q-6 -16 -18.5 -31.5t-30.5 -19.5q-16 4 -23.5 13t-17.5 22l4 28 q10 -4 9 -16t13 -16q10 -4 19.5 6t13.5 16q8 47 1 92t-32 86l-12 -6q-25 -23 -46.5 -42t-35.5 -50l-16 -8q-29 -29 -49.5 -60.5t-44.5 -54.5q-25 -2 -26 17.5t-9 33.5q8 20 -6 35q-12 2 -13.5 -7t-7.5 -13q-16 -16 -29.5 -23.5t-35.5 -9.5q-23 6 -29 18.5t-3 27.5t8 33.5 t5 34.5q8 31 26.5 54.5t41.5 48.5q20 4 44.5 12t41.5 -16l8 -12q-12 -35 -15.5 -73t-7.5 -75q2 -6 5.5 -13t11.5 -7q23 0 28 18t19 31q45 39 84 79t76 80q12 -4 17 -15t6 -23.5t2 -25.5t7 -22q10 -4 7 -16q16 -31 15 -63.5t-5 -67.5zM2179 1231q-4 59 -32.5 118.5 t-90.5 88.5q12 18 25.5 16t26 -12t22.5 -24.5t18 -24.5q33 -39 47.5 -85t15.5 -95.5t-10.5 -98.5t-29.5 -94q-29 -70 -84 -130.5t-129 -90.5q29 20 54.5 43.5t43.5 54.5q33 33 61.5 72t36.5 92q25 41 27 84t-2 86zM1497 469q-37 -6 -71.5 -16.5t-69.5 -20.5t-70 -16t-72 -4 q-6 -6 -10 -22.5t-1 -33t11.5 -27t26.5 -3.5q6 8 9 23.5t16 19.5q10 -18 3 -36t-20 -32q-6 -4 -22 -4q-14 0 -28.5 9t-24 30.5t-3.5 64.5q-4 6 -9 12.5t-1 16.5q23 16 25 42t6 52q-4 2 -4 4t-4 4q-18 -12 -30.5 -27.5t-23 -31.5t-20.5 -33.5t-25 -31.5q0 -14 -8 -25.5 t-17 -23t-15.5 -23.5t-4.5 -29q-6 -6 -7 -16t-2 -19.5t-5 -16.5t-18 -9q-18 4 -24.5 15t-6.5 24q0 14 2 28.5t0 26.5q-6 39 2 71.5t2 67.5q-18 -10 -23.5 -28.5t-19.5 -34.5q-10 -12 -19.5 -28.5t-19.5 -30t-24.5 -21.5t-36.5 -4q-23 35 -8.5 73.5t34.5 73.5 q10 10 19.5 23.5t21 24t25.5 15.5t31 -1q10 -4 20 0q18 43 27.5 90t13.5 94l20 16q12 -4 14.5 -10t-0.5 -14t-6 -16.5t-1 -16.5q-8 -57 -19.5 -113.5t-15.5 -111.5q-2 -31 -8.5 -59.5t4.5 -59.5q33 43 61.5 94t73.5 94q12 16 28.5 33t36.5 29q16 -12 30.5 -29.5t31.5 -28.5 q0 -18 -2 -40.5t2 -40.5q55 12 105.5 20t103.5 25q16 -11 14 -27zM836 23q-2 -78 4 -156t1 -152.5t-27.5 -142.5t-82.5 -125q-66 -41 -144.5 -50t-152.5 11q-8 4 -16 11.5t-8 17.5q4 20 12 40.5t33 28.5q-6 -16 -13.5 -32.5t-11.5 -34.5q27 -16 59.5 -22.5t68.5 -4.5 t70 12.5t60 24.5q29 10 46.5 28.5t27.5 41t18 46t19 46.5q12 72 14 154.5t-2 144.5q8 23 2 49.5t-2 48.5q-4 10 -12 7t-13 -5q-16 -16 -22 -35.5t-23 -31.5q2 -16 -4 -24.5t-15 -15.5t-17.5 -15.5t-8.5 -22.5q-41 -47 -76.5 -95.5t-70.5 -97.5q-8 -12 -14.5 -24.5 t-22.5 -9.5q-10 14 -11 29.5t0 30.5t4 31.5t-1 32.5q10 35 18 72t35 72q18 49 52 97t83 79q29 8 50.5 -5.5t43.5 -27.5q16 20 25 49q25 -8 25 -41q-10 -10 -3 -17t3 -17zM1108 -70q-8 -6 -16.5 -3t-16.5 7.5t-16 7.5t-19 -3q-14 -10 -20 -22.5t-9 -26t-6.5 -27t-13.5 -23.5 q-4 -29 -10 -54.5t-6 -51.5q-6 -4 -12.5 -8.5t-16.5 0.5q-12 16 -6 36.5t4 36.5q8 8 10 20.5t2 24.5v25q0 10 7 20q-6 10 -5.5 25.5t-3.5 26.5q-10 4 -15 -4.5t-15 2.5q4 20 28 36q16 0 24.5 -12t14.5 -24q8 2 15.5 11t14.5 16t16.5 9t19.5 -8l51 -37v0zM1939 -29 q-8 -12 -22 -16t-28.5 -6l-29 -4t-24.5 -11q-35 -4 -65.5 -13t-45.5 -44q-8 -20 -19 -39.5t-21.5 -40t-16.5 -42t0 -46.5q4 -18 22.5 -17t30.5 5q8 0 13.5 9t15.5 3t2 -12t-12 -14q-16 -10 -37 -15.5t-41 4.5q-16 16 -24.5 34t-2.5 40q4 16 17.5 49t54.5 103q-16 8 -32.5 6 t-32 -5t-32 -5.5t-32.5 4.5q10 12 25.5 18t29.5 10q27 6 56.5 4t46.5 25q14 23 10 46.5t0 47.5q-10 4 -10 12v13q-12 23 -29.5 35t-39 17t-45.5 6t-44 1q-47 -4 -87 -34.5t-56 -71.5q-14 -33 -11.5 -66t17.5 -67q-4 -25 5 -47.5t20.5 -44t16.5 -46t-7 -51.5 q-10 -10 -25.5 -8t-28.5 6q-29 14 -32 45t-13 57q16 12 14.5 34t10.5 38q4 10 2 26.5t-17 22.5q-35 -4 -77 -4q-41 0 -70 -24q2 -23 5 -45.5t2 -45t-9 -43t-29 -34.5q-23 -6 -49 8q-23 18 -19.5 43.5t3.5 50.5q16 31 31.5 64.5t50.5 46.5q16 -10 33.5 -6t33.5 8l101 2 q10 10 9 25.5t3 27.5q18 59 64.5 105.5t111.5 50.5q35 4 67.5 2t63.5 -19q2 -10 8 -16t14.5 -10t15.5 -10.5t9 -16.5q18 -29 13 -67.5t-11 -71.5q47 0 92 8t86 16z" />
<glyph horiz-adv-x="897" d="M713 1495l-275 131l-264 -131l-41 80l311 170l318 -164z" />
<glyph horiz-adv-x="1056" d="M895 1653q-39 -66 -92 -101.5t-119 -35.5q-51 0 -88 17t-65.5 38.5t-59.5 40t-65 18.5q-35 0 -71 -24.5t-63 -71.5l-71 53q82 137 211 137q51 0 88 -17t66.5 -38.5t58 -39t63.5 -17.5q78 0 135 94l72 -53v0z" />
<glyph horiz-adv-x="860" d="M678 1735q0 -100 -67.5 -165t-184.5 -65q-61 0 -106.5 18.5t-76 49.5t-46 73t-15.5 89h92q0 -55 43 -93t111 -38q72 0 114 37.5t42 93.5h94v0z" />
<glyph horiz-adv-x="575" d="M485 1593q0 -37 -26.5 -63.5t-65.5 -26.5q-37 0 -63.5 25.5t-26.5 64.5q0 37 26.5 63.5t63.5 26.5q39 0 65.5 -25.5t26.5 -64.5z" />
<glyph horiz-adv-x="808" d="M512 1556q0 45 -30.5 78t-75.5 33q-47 0 -78 -32.5t-31 -78.5q0 -47 30.5 -78.5t78.5 -31.5q45 0 75.5 31.5t30.5 78.5zM608 1561q0 -39 -16.5 -76t-45 -64.5t-65.5 -44t-78 -16.5q-86 0 -143 53t-57 139q0 41 16.5 78t45 63.5t65.5 42t78 15.5q86 0 143 -54t57 -136z " />
<glyph horiz-adv-x="706" d="M272 1268l-75 55l213 283l100 -68z" />
<glyph horiz-adv-x="1118" d="M827 1591q0 -37 -25.5 -61.5t-62.5 -24.5t-62.5 24.5t-25.5 61.5t25.5 62.5t62.5 25.5t62.5 -25.5t25.5 -62.5zM432 1591q0 -37 -25.5 -61.5t-62.5 -24.5t-62.5 24.5t-25.5 61.5t25.5 62.5t62.5 25.5t62.5 -25.5t25.5 -62.5z" />
<glyph horiz-adv-x="542" d="M188 1348q0 -37 -25.5 -62.5t-62.5 -25.5t-62.5 25.5t-25.5 62.5q0 39 25.5 63.5t62.5 24.5t62.5 -24.5t25.5 -63.5zM530 1348q0 -37 -25.5 -62.5t-62.5 -25.5t-62.5 25.5t-25.5 62.5q0 39 26 63.5t62 24.5q37 0 62.5 -24.5t25.5 -63.5z" />
<glyph horiz-adv-x="749" d="M432 1171l-235 273l92 74l215 -285z" />
<glyph horiz-adv-x="788" d="M315 1171l-69 62l213 285l92 -74z" />
<glyph horiz-adv-x="897" d="M618 1184l-178 178l-174 -178l-63 61l241 262l238 -258z" />
<glyph horiz-adv-x="1038" d="M799 1380q-63 -133 -178 -133q-35 0 -65 15.5t-56.5 34t-49 34t-42.5 15.5q-33 0 -57.5 -26t-41.5 -60l-69 49q25 53 70.5 95t111.5 42q35 0 64.5 -15.5t55 -34t49 -33.5t44.5 -15q31 0 55.5 24.5t40.5 61.5z" />
<glyph horiz-adv-x="808" d="M176 1288v98h457v-98h-457z" />
<glyph horiz-adv-x="860" d="M651 1466q0 -121 -59.5 -184t-165.5 -63t-162.5 64.5t-56.5 182.5h94q0 -59 32 -103t95 -44q59 0 94 40t35 107h94z" />
<glyph horiz-adv-x="1822" d="M1587 543q0 182 -62.5 284.5t-197.5 102.5q-82 0 -143.5 -43t-101.5 -107.5t-59 -142.5t-19 -145v-371q49 -16 101 -23.5t114 -7.5q168 0 268 106.5t100 346.5zM1724 555q0 -137 -36.5 -243.5t-105.5 -178.5t-164 -108.5t-212 -36.5q-104 0 -178 9t-151 28v1359 q-53 10 -102.5 13.5t-98.5 3.5q-156 0 -228.5 -63.5t-72.5 -209.5v-110h311v-103h-311v-915h-129v915h-234v103h234v131q0 168 108.5 262t335.5 94q78 0 159 -8t155 -18v-518q0 -41 -4.5 -93.5t-12.5 -91.5l4 -2q43 123 138.5 191.5t218.5 68.5q180 0 278 -119.5t98 -359.5z " />
<glyph horiz-adv-x="1863" d="M1540 0v662q0 63 -10 113t-33.5 85t-63.5 53.5t-100 18.5q-74 0 -134 -34t-103 -93.5t-67.5 -140t-24.5 -177.5v-487h-127v1384q-53 10 -102.5 13.5t-98.5 3.5q-156 0 -228.5 -63.5t-72.5 -209.5v-110h311v-103h-311v-915h-129v915h-234v103h234v131q0 168 108.5 262 t335.5 94q78 0 159 -8t155 -18v-496q0 -53 -3.5 -108.5t-13.5 -94.5l4 -2q45 119 140.5 188.5t230.5 69.5q88 0 146.5 -25.5t94 -69.5t50 -104.5t14.5 -127.5v-709h-127z" />
<glyph horiz-adv-x="1200" d="M1004 -139q0 -102 -15.5 -175t-52.5 -121t-98.5 -70.5t-153.5 -22.5q-33 0 -71 4t-66 14l14 117q29 -10 63.5 -17.5t71.5 -7.5q53 0 88 12.5t55.5 43t29 83t8.5 132.5v1062h-502v-915h-129v915h-234v103h234v51q0 209 110.5 322.5t343.5 113.5q70 0 138.5 -10t126.5 -27 l-27 -110q-57 18 -125 29.5t-121 11.5q-168 0 -242.5 -81t-74.5 -226v-74h629v-1157v0z" />
<glyph horiz-adv-x="1646" d="M877 1384q-53 10 -102.5 13.5t-98.5 3.5q-156 0 -228.5 -63.5t-72.5 -209.5v-110h311v-103h-311v-915h-129v915h-234v103h234v131q0 168 108.5 262t335.5 94q78 0 159 -8t155 -18v-924l403 463h156l-416 -463l448 -555h-170l-421 541v-541h-127v1384v0z" />
<glyph horiz-adv-x="358" d="M358 2007v-2662h-358v2662h358z" />
<glyph horiz-adv-x="1443" d="M1206 682q0 291 -127 448.5t-356 157.5q-96 0 -184 -39t-155 -113.5t-105.5 -183t-38.5 -247.5q0 -135 29.5 -247t89 -192t150.5 -125t212 -45q96 0 184 39t154.5 113t106.5 183.5t40 250.5zM1442 -354q-127 -16 -222.5 -2t-181.5 35.5t-170 38t-186 1.5v121 q117 14 207 -1t175 -35.5t174 -36t204 -0.5v-121v0zM1348 705q0 -174 -51.5 -308.5t-138.5 -226.5t-204.5 -139t-248.5 -47q-154 0 -267.5 50t-189.5 141t-113 219t-37 284q0 174 51.5 308t138.5 226.5t203.5 139.5t247.5 47q141 0 255 -46t192 -135.5t120 -218t42 -294.5z " />
</font>
</defs>
</svg>
