<?xml version="1.0" standalone="no"?>
<!DOCTYPE svg PUBLIC "-//W3C//DTD SVG 1.1//EN" "http://www.w3.org/Graphics/SVG/1.1/DTD/svg11.dtd" >
<svg xmlns="http://www.w3.org/2000/svg">
<metadata>
Copyright   : Copyright 2014 Luc(as) de Groot. All rights reserved. Published by LucasFonts.com
Designer    : Luc(as) de Groot
Foundry     : LucasFonts
Foundry URL : http://lucasfonts.com
</metadata>
<defs>
<font id="TheSerifB_400i" horiz-adv-x="1126" >
<font-face units-per-em="2048" ascent="1516" descent="-532" />
<missing-glyph horiz-adv-x="446" />
<glyph unicode=" "  horiz-adv-x="446" />
<glyph unicode="&#x09;" horiz-adv-x="446" />
<glyph unicode="&#xa0;" horiz-adv-x="446" />
<glyph unicode="!" horiz-adv-x="641" d="M367 328h-124l183 1108h178zM368 94q0 -23 -8.5 -43.5t-23.5 -35t-35 -23.5t-43 -9q-22 0 -41.5 8.5t-33.5 23t-22 33.5t-8 40q0 24 8.5 44t23.5 35t35 23.5t43 8.5t42.5 -8.5t33.5 -23t21.5 -33.5t7.5 -40z" />
<glyph unicode="&#x22;" horiz-adv-x="702" d="M561 979h-110l59 450h163zM242 979h-108l57 450h164z" />
<glyph unicode="#" d="M1122 859h-198l-109 -372h186l-20 -105h-197l-115 -382h-120l115 382h-316l-115 -382h-119l115 382h-190l20 105h201l109 372h-189l21 104h200l107 368h120l-107 -368h316l107 368h119l-107 -368h185zM489 859l-110 -372h316l110 372h-316z" />
<glyph unicode="$" d="M949 995h-95q0 47 1.5 90t7.5 80q-33 5 -67 8t-65 3q-73 0 -129 -16.5t-94 -45t-57 -67.5t-19 -82q0 -45 20.5 -79.5t54 -61t76.5 -49t87.5 -46t87.5 -50.5t76.5 -62t53.5 -82t20 -109q0 -66 -28 -130t-81.5 -116.5t-129.5 -90t-172 -50.5l-41 -213h-118l41 208 q-65 0 -129 9t-120 25l56 295h99q0 -47 -2 -93t-6 -86q33 -9 74 -14.5t85 -5.5q71 0 128.5 20t97.5 52t61 72.5t21 82.5q0 51 -20 88t-53 65.5t-75 51.5t-86 46.5t-86.5 49.5t-75 60t-53 79t-20.5 107q0 67 28 128t79.5 109.5t124 80.5t161.5 41l37 198h119l-36 -192 q31 -1 60.5 -3t56.5 -5t52 -8t46 -9z" />
<glyph unicode="%" horiz-adv-x="1490" d="M778 1133q0 -99 -31.5 -176.5t-82 -131.5t-115 -82.5t-130.5 -28.5q-120 0 -177.5 58.5t-57.5 160.5q0 98 31 175.5t82 131t115.5 82t130.5 28.5q58 0 102.5 -14.5t74 -42.5t44 -68.5t14.5 -91.5zM196 -41l-85 76l1249 1333l87 -76zM1381 400q0 -99 -31.5 -176.5 t-82 -131t-115 -82t-130.5 -28.5q-120 0 -177.5 59t-57.5 160q0 98 31 175.5t82 131t115.5 81.5t130.5 28q58 0 102.5 -14.5t74 -42.5t44 -68.5t14.5 -91.5zM648 1115q0 63 -27.5 95.5t-91.5 32.5q-43 0 -81.5 -22t-68 -60t-47 -92t-17.5 -119q0 -32 7 -56t21 -40t36 -24.5 t54 -8.5q43 0 82 21.5t68.5 60t47 92.5t17.5 120zM1250 383q0 63 -27 95t-91 32q-43 0 -82 -21.5t-68 -60t-46.5 -92t-17.5 -118.5q0 -32 7 -56t21 -40t36 -24.5t54 -8.5q43 0 82 21.5t68 60t46.5 92.5t17.5 120z" />
<glyph unicode="&#x26;" horiz-adv-x="1641" d="M1611 920q-38 -10 -81 -16.5t-84 -9.5q-18 -96 -46 -183.5t-65.5 -164.5t-83 -142.5t-95.5 -117.5q50 -47 97 -90t89 -79q22 -2 43 -5t41 -7t39 -8t36 -9l-19 -88h-241q-51 46 -98.5 91t-99.5 94q-130 -104 -276 -153.5t-300 -49.5q-98 0 -170 26.5t-118.5 70.5t-69 102 t-22.5 122q0 94 32 170.5t85 141t121 119.5t139 104q-57 93 -91 171.5t-34 150.5q0 69 27.5 132t78 110t121.5 75.5t157 28.5q73 0 126 -18.5t87.5 -50t51 -74.5t16.5 -92q0 -68 -24.5 -125t-69.5 -110t-108 -104t-141 -106q40 -56 86.5 -114t98 -116.5t106.5 -116 t111 -111.5q41 44 78.5 101t67 124t51 142.5t30.5 158.5q-41 3 -80.5 9.5t-72.5 16.5l16 89h477zM849 1251q0 60 -34.5 97t-107.5 37q-50 0 -89.5 -16t-67.5 -44t-42.5 -66.5t-14.5 -82.5q0 -53 27.5 -114.5t72.5 -137.5q63 43 111 82t80.5 77.5t48.5 79.5t16 88zM948 271 q-51 51 -105 108.5t-107.5 117t-104 121t-92.5 120.5q-58 -40 -110 -83t-92.5 -90.5t-64 -102t-23.5 -118.5q0 -44 14 -86t44.5 -74.5t78.5 -51.5t116 -19q108 0 222.5 36t223.5 122z" />
<glyph unicode="'" horiz-adv-x="385" d="M244 979h-108l57 450h164z" />
<glyph unicode="(" horiz-adv-x="606" d="M756 1538q-64 -79 -123.5 -172t-112.5 -196t-96.5 -213t-75 -223.5t-48.5 -228.5t-17 -227q0 -89 6 -174t19.5 -165t34.5 -156.5t52 -149.5l-120 -56q-37 87 -63.5 171.5t-43.5 169.5t-24.5 171t-7.5 176q0 173 36 348t103 344.5t163.5 331t216.5 308.5l101 -59v0z" />
<glyph unicode=")" horiz-adv-x="606" d="M516 909q0 -173 -36 -348t-103.5 -344.5t-163.5 -331t-217 -308.5l-100 58q63 79 123 172.5t112.5 196t96 213t75 224t48.5 228.5t17 228q0 89 -6 173.5t-19 165t-34.5 156t-52.5 148.5l120 57q38 -87 64 -171.5t43 -169t25 -171t8 -176.5z" />
<glyph unicode="*" horiz-adv-x="742" d="M572 1194l188 -106l-72 -98l-167 140l-28 -238l-117 18l63 218l-196 -126l-47 107l225 90l-188 107l71 95l165 -138l29 238l117 -17l-65 -220l202 127l47 -106z" />
<glyph unicode="+" d="M1045 545h-403l-80 -423h-146l80 423h-400l26 129h400l81 421h145l-81 -421h404z" />
<glyph unicode="," horiz-adv-x="435" d="M137 204q34 0 60.5 -19t37.5 -53.5t4.5 -82t-37 -103t-87 -118t-146.5 -127.5l-57 68q57 49 91.5 90.5t49.5 77t14 65.5t-15 54q-13 24 -12.5 50t12.5 47.5t33.5 36t51.5 14.5z" />
<glyph unicode="-" horiz-adv-x="658" d="M565 532h-464l25 127h465z" />
<glyph unicode="&#xad;" horiz-adv-x="658" d="M565 532h-464l25 127h465z" />
<glyph unicode="." horiz-adv-x="437" d="M249 99q0 -24 -8.5 -45.5t-24 -37t-36 -24.5t-43.5 -9t-42 9t-33.5 23.5t-23 34t-8.5 40.5q0 25 9 46.5t24.5 36.5t36 24t43.5 9t42.5 -9t34 -23.5t22 -33.5t7.5 -41z" />
<glyph unicode="/" horiz-adv-x="857" d="M3 -330h-149l1063 1880h148z" />
<glyph unicode="0" d="M1076 960q0 -66 -8 -143.5t-25 -158.5t-43 -163t-63 -157t-85 -140t-107.5 -113t-132 -75.5t-158.5 -27.5q-91 0 -157 26t-109 76.5t-63.5 123t-20.5 164.5q0 88 14 195t45 215.5t79.5 211t118 181.5t160 127t205.5 48q91 0 157 -27t109 -77t63.5 -123t20.5 -163z M913 944q0 66 -11.5 117.5t-36 87t-64.5 54t-98 18.5q-60 0 -111 -26t-93 -70.5t-75.5 -103.5t-59.5 -125.5t-44.5 -137.5t-30.5 -138t-17.5 -127t-5.5 -105q0 -66 11 -117.5t36.5 -86t66 -53t100.5 -18.5q79 0 142 44.5t111 117t82 163t55.5 183t32 178t10.5 145.5z" />
<glyph unicode="1" d="M907 0h-324h-158h-366l26 138h366l198 1039l-363 -134l-4 145l427 143h129l-228 -1193h323z" />
<glyph unicode="2" d="M1026 1038q0 -45 -6.5 -88.5t-24 -88.5t-47.5 -94t-77.5 -103t-114 -116t-155.5 -134l-338 -271v-3q31 1 75.5 2t101 1.5t122.5 1t140 0.5h212l-28 -145h-860l23 124l416 343q115 96 191 169.5t121 136.5t63.5 120t18.5 120q0 44 -14 81t-41 65t-68.5 43t-96.5 15 q-60 0 -117 -12.5t-108 -34.5q-11 -43 -27.5 -89.5t-33.5 -92.5h-98l54 286q36 17 76 31t84 23.5t92 15.5t99 6q93 0 161.5 -24.5t114 -67.5t68 -99.5t22.5 -120.5z" />
<glyph unicode="3" d="M1032 1086q0 -67 -23 -125.5t-66 -105.5t-103 -82.5t-132 -56.5l-2 -2q58 -8 102 -30t74 -56.5t45.5 -79t15.5 -96.5q0 -50 -15 -104.5t-47 -107t-82 -99t-119 -82.5t-158.5 -56.5t-201.5 -20.5q-70 0 -133 9t-111 23l34 141q48 -18 108.5 -29.5t127.5 -11.5 q113 0 194 29t133 74.5t76 102t24 111.5q0 47 -19 84t-56.5 63.5t-93 40.5t-129.5 14q-57 0 -105 -1.5t-101 -7.5l24 127h41q103 0 182 13t138.5 35.5t99.5 53t65 64.5t35.5 71t10.5 72q0 78 -57 120.5t-159 42.5q-53 0 -102 -7t-96 -22q-12 -43 -26.5 -88t-31.5 -90h-94 l55 280q34 13 72.5 23t79 17t82 10.5t85.5 3.5q90 0 157.5 -19.5t112 -55t67 -83.5t22.5 -106z" />
<glyph unicode="4" d="M1045 330h-237l-40 -217q41 -3 81 -10.5t74 -18.5l-15 -84h-222h-29h-232l16 84q40 11 84 18.5t92 10.5l40 217h-631l12 119l749 882h63h151l-165 -864h237zM820 1177l-612 -716q33 1 76 2t126 2t275 2l137 710h-2z" />
<glyph unicode="5" d="M1040 1184h-559l-74 -383q30 2 64.5 3.5t59.5 1.5q108 0 187 -23.5t131 -65.5t77 -99t25 -123q0 -70 -19.5 -134.5t-57.5 -122t-92.5 -104t-124.5 -80.5t-153 -53t-177 -19q-37 0 -69.5 1.5t-62 4.5t-57 8t-55.5 12l28 145q53 -19 114 -29t123 -10q101 0 181.5 27 t136.5 74.5t86.5 112.5t30.5 142q0 53 -21 92.5t-62 65.5t-100.5 39t-136.5 13q-31 0 -63 -1.5t-61.5 -4t-55 -5.5t-44.5 -6l128 668h144h558z" />
<glyph unicode="6" d="M1031 1207q-27 4 -55.5 6.5t-66.5 2.5q-108 0 -196.5 -31t-159.5 -90t-125.5 -145t-94.5 -195q-8 -18 -18.5 -48t-21.5 -64h2q31 46 72.5 81.5t90.5 59.5t102 36.5t107 12.5q88 0 154 -23.5t110.5 -65t66.5 -99t22 -125.5q0 -112 -42 -210t-115.5 -171.5t-173 -115 t-216.5 -41.5q-89 0 -157.5 26t-114.5 76.5t-69.5 124t-23.5 168.5q0 47 8 113.5t26.5 143.5t49.5 160t77 162.5t109 150.5t146 125t187.5 85.5t233.5 31.5q33 0 64 -2t47 -5zM859 491q0 49 -14.5 88t-44 67.5t-73.5 43.5t-104 15q-82 0 -147.5 -31t-111.5 -81t-71 -112.5 t-25 -125.5q0 -56 15 -101.5t45 -78t75.5 -50t106.5 -17.5q72 0 135.5 28.5t111 79.5t75 121.5t27.5 153.5z" />
<glyph unicode="7" d="M1134 1195q-108 -148 -214.5 -303t-205 -309t-186.5 -301.5t-160 -281.5h-186q82 143 173.5 293.5t190 303t202.5 303t211 295.5h-583q-11 -42 -26.5 -91t-37.5 -105h-105l63 332h715h176z" />
<glyph unicode="8" d="M1071 1087q0 -69 -22 -124t-64.5 -101.5t-106 -88t-147.5 -83.5q47 -25 90 -54.5t76 -65t53 -80.5t20 -102q0 -62 -19 -116.5t-54 -100t-82.5 -80.5t-104 -59.5t-120 -37t-128.5 -12.5q-91 0 -162.5 18.5t-120.5 54t-75.5 86.5t-26.5 116q0 68 25 126.5t73 109.5 t117.5 96.5t158.5 88.5q-41 24 -78.5 50t-66 59t-45.5 74t-17 92q0 77 35.5 149.5t99 127t150.5 87.5t191 33q86 0 151.5 -18.5t110 -53t67 -83.5t22.5 -108zM909 1063q0 39 -15 69t-42.5 50.5t-66.5 31t-87 10.5q-70 0 -124 -21t-91 -56t-57 -79.5t-20 -91.5q0 -38 16 -69 t44 -57t64.5 -49t77.5 -45q84 41 141.5 77t93 72.5t51 74.5t15.5 83zM807 369q0 46 -19 82t-51 64.5t-73.5 52.5t-85.5 47q-106 -50 -171.5 -95t-102.5 -87t-50 -81t-13 -75q0 -37 15.5 -68t46.5 -53t77 -35t106 -13t117 16t102.5 48.5t73.5 81t28 115.5z" />
<glyph unicode="9" d="M1070 969q0 -43 -6.5 -107.5t-23 -142t-46 -162t-74 -166.5t-107 -155.5t-146.5 -130t-191 -89.5t-240 -33q-51 0 -90 3t-76 10l26 141q18 -4 38.5 -7.5t42 -6.5t43.5 -4.5t43 -1.5q106 0 193 28.5t157 84t123 136.5t92 186q11 31 18.5 53t17.5 40h-2q-32 -35 -71 -63 t-84 -48.5t-95 -31.5t-104 -11q-82 0 -145.5 22t-107.5 63.5t-66.5 100.5t-22.5 134q0 100 37 197t106 173t168 122.5t222 46.5q84 0 152 -22.5t117 -69t75.5 -118.5t26.5 -171zM909 978q0 53 -14.5 97.5t-44.5 77.5t-74 51.5t-103 18.5q-78 0 -142 -33t-109.5 -86.5 t-70.5 -122t-25 -139.5q0 -105 56.5 -161.5t166.5 -56.5q74 0 139.5 27.5t114.5 75.5t77.5 112.5t28.5 138.5z" />
<glyph unicode=":" horiz-adv-x="570" d="M461 703q0 -23 -9 -43.5t-24 -36t-35.5 -24.5t-42.5 -9q-23 0 -43 9t-35 24t-23 34.5t-8 41.5q0 24 8.5 44.5t23.5 36t35.5 24.5t43.5 9t43 -9t34.5 -24t23 -35t8.5 -42zM344 97q0 -24 -8.5 -44.5t-23.5 -36t-35.5 -24.5t-43.5 -9t-43 9t-34.5 24t-23 35t-8.5 42 q0 23 9 43.5t24 36t35.5 24.5t43.5 9q22 0 42 -9t34.5 -24t23 -34.5t8.5 -41.5z" />
<glyph unicode=";" horiz-adv-x="570" d="M461 703q0 -23 -9 -43.5t-24 -36t-35.5 -24.5t-42.5 -9q-23 0 -43 9t-35 24t-23 34.5t-8 41.5q0 24 8.5 44.5t23.5 36t35.5 24.5t43.5 9t43 -9t34.5 -24t23 -35t8.5 -42zM236 204q36 0 62 -19t37 -53.5t4.5 -82t-37 -103t-87.5 -118t-146 -127.5l-58 68q57 49 91.5 90.5 t50.5 77t14.5 65.5t-15.5 54q-13 24 -13 50t12 47.5t34 36t51 14.5z" />
<glyph unicode="&#x3c;" d="M374 621l463 -473l-110 -98l-551 583l740 560l88 -105z" />
<glyph unicode="=" d="M1051 711h-894l23 129h894zM987 378h-894l25 129h894z" />
<glyph unicode="&#x3e;" d="M256 50l-89 105l631 466l-463 473l110 99l550 -583z" />
<glyph unicode="?" horiz-adv-x="888" d="M865 1082q0 -63 -21 -113.5t-55.5 -91.5t-77.5 -77t-87 -72t-85 -75t-70 -86t-43 -105.5t-4 -133.5h-150q-11 82 1.5 146.5t40 117t67 94t82 78t84.5 70.5t75.5 69t54 74.5t20.5 87.5q0 47 -28 87.5t-77.5 72t-115.5 52.5t-142 30l46 141q113 -11 203 -44.5t152.5 -83 t96 -110.5t33.5 -128zM411 94q0 -23 -8.5 -43.5t-23.5 -35t-35 -23.5t-43 -9q-22 0 -41.5 8.5t-33.5 23t-22 33.5t-8 40q0 24 8.5 44t23.5 35t35 23.5t43 8.5t42.5 -8.5t33.5 -23t21.5 -33.5t7.5 -40z" />
<glyph unicode="@" horiz-adv-x="1969" d="M1830 899q0 -91 -17.5 -174t-48.5 -153t-75.5 -127t-100 -97.5t-120 -62t-135.5 -21.5q-68 0 -111.5 20.5t-67 53.5t-27.5 74.5t8 84.5h-6q-15 -31 -47.5 -71t-76.5 -76.5t-96.5 -61t-106.5 -24.5q-45 0 -78 14t-55 41t-32.5 67t-10.5 91q0 61 12 129.5t37.5 135.5 t65 129t95.5 109t128.5 75.5t164.5 28.5q36 0 71 -2t67 -5.5t61 -8.5t52 -10l-126 -448q-15 -55 -15.5 -95.5t12.5 -68t40.5 -40.5t67.5 -13q72 0 133 37t105 103.5t69 157.5t25 200q0 92 -29 179.5t-93.5 155.5t-167.5 109.5t-249 41.5q-113 0 -217.5 -32.5t-195 -91 t-164.5 -139.5t-127 -180t-82 -211.5t-29 -231.5q0 -123 37 -223t109.5 -171t180 -109t248.5 -38q46 0 89.5 3t85.5 9.5t84 16t85 22.5l8 -128q-45 -14 -94 -24t-98 -17t-96.5 -10t-89.5 -3q-166 0 -295 45.5t-217.5 131t-134.5 207t-46 274.5q0 140 35 270.5t99.5 244 t154.5 206.5t198 160t231.5 104t257.5 37q114 0 207 -22t166.5 -61.5t127.5 -94.5t89.5 -122t53 -142.5t17.5 -157.5zM1221 959q-26 7 -57 10t-62 3q-43 0 -85 -16.5t-79.5 -47.5t-69 -73t-55 -93.5t-36.5 -110t-13 -120.5q0 -56 19.5 -85.5t59.5 -29.5q41 0 88 27t94 83 t89.5 140t74.5 198z" />
<glyph unicode="A" horiz-adv-x="1382" d="M1273 0h-457l16 87q39 10 83 17t88 10l-39 249h-600l-136 -249q39 -3 80.5 -10t76.5 -17l-17 -87h-453l16 88q28 7 64 14.5t65 10.5l708 1269h179l219 -1268q14 -1 31 -4t33.5 -6.5t32 -8t28.5 -7.5zM853 1029q-8 50 -14.5 100.5t-11.5 97.5h-2q-21 -46 -45.5 -94.5 t-50.5 -98.5l-301 -546h517z" />
<glyph unicode="B" horiz-adv-x="1186" d="M1133 1126q0 -80 -23.5 -145t-63.5 -114.5t-93 -84t-110 -53.5v-2q51 -10 92.5 -34.5t70 -58.5t44 -76t15.5 -88q0 -97 -39 -182.5t-115 -151t-188 -104t-259 -38.5q-31 0 -70 1t-81.5 2t-88 2t-87.5 1h-174l16 87q41 11 87.5 18t92.5 10l218 1152q-45 3 -88 10t-80 18 l17 87h171q35 0 74 0.5t83 2t95 2t110 0.5q100 0 170.5 -18.5t116 -53.5t66.5 -83t21 -106zM970 1094q0 37 -10.5 67.5t-39 53t-78.5 35t-126 12.5q-53 0 -97.5 -1t-88.5 -3l-94 -481q32 -2 61 -2h67q91 0 165.5 21t128 61.5t83 99.5t29.5 137zM900 454q0 99 -78.5 150.5 t-246.5 51.5h-43.5h-44.5t-41 -0.5t-32 -1.5l-98 -522q13 -1 31 -3.5t40.5 -3.5t50 -2t59.5 -1q98 0 173.5 26.5t126.5 72t77 105.5t26 128z" />
<glyph unicode="C" horiz-adv-x="1165" d="M1148 1043h-103q0 49 1.5 96.5t9.5 95.5q-52 15 -100.5 20.5t-98.5 5.5q-99 0 -180.5 -31.5t-145.5 -87t-110.5 -130t-77 -161t-45.5 -181t-15 -188.5q0 -79 17.5 -145t59 -113.5t110.5 -73.5t172 -26q36 0 81 6t91.5 16t90.5 24.5t79 30.5l11 -139q-89 -36 -190.5 -56.5 t-199.5 -20.5q-96 0 -170 17.5t-129 49.5t-91.5 75.5t-59.5 96t-33 111.5t-10 122q0 123 23 240t67 221.5t110 192t153.5 151t195.5 99t236 35.5q91 0 167.5 -10.5t146.5 -29.5z" />
<glyph unicode="D" horiz-adv-x="1422" d="M1379 887q0 -113 -24 -223.5t-72.5 -210t-122.5 -183.5t-174.5 -145.5t-227.5 -96.5t-283 -35q-55 0 -101.5 1t-87 2.5t-77 2.5t-71.5 1h-175l18 87q40 11 86.5 18t93.5 10l217 1152q-45 3 -88.5 10t-80.5 18l17 87h174q39 0 86 1t97 2.5t100.5 2.5t99.5 1 q165 0 278.5 -37.5t184 -105t102 -159.5t31.5 -200zM1216 868q0 85 -22 156.5t-74 124.5t-140 82.5t-220 29.5q-31 0 -62.5 -0.5t-62 -1.5t-57.5 -2t-48 -2l-213 -1118q21 -3 45.5 -5.5t49 -4t47 -2.5t39.5 -1q129 0 232 30.5t182.5 83.5t137 124.5t94.5 154.5t54.5 173 t17.5 178z" />
<glyph unicode="E" horiz-adv-x="1060" d="M1023 1076h-103q0 50 1 98t5 84h-398l-92 -486h317q13 40 27 78t34 72h87l-79 -419h-90q-5 34 -5.5 72t2.5 79h-315l-100 -528h398q14 41 31.5 90.5t35.5 98.5h103l-59 -315h-862l18 87q41 11 87.5 18t92.5 10l218 1152q-45 3 -89 10t-81 18l18 87h857z" />
<glyph unicode="F" horiz-adv-x="999" d="M1026 1075h-104q2 50 2.5 95t3.5 87h-398l-96 -497h324q13 40 28 77.5t33 71.5h89l-80 -421h-92q-2 34 -3 71.5t2 77.5h-324l-100 -522q45 -3 89 -10t81 -18l-16 -87h-504l16 87q42 11 89 18t92 10l219 1152q-45 3 -88 10t-80 18l16 87h860z" />
<glyph unicode="G" horiz-adv-x="1401" d="M1272 1045h-104q0 53 2.5 99.5t7.5 89.5q-58 16 -116 25t-111 9q-97 0 -185.5 -26.5t-163.5 -75t-136 -116t-104 -150t-66 -178t-23 -197.5q0 -75 22 -148t72 -130.5t130.5 -93t196.5 -35.5q84 0 154 12t137 32l79 418q-45 3 -88 10.5t-81 18.5l18 87h464l-16 -88 q-34 -10 -70 -16t-74 -11l-100 -524q-54 -19 -112 -33t-116 -23.5t-114.5 -14t-106.5 -4.5q-142 0 -247.5 39.5t-174.5 110t-103.5 167.5t-34.5 211q0 131 30.5 248t86.5 216t135 177.5t175 134t207 85t230 29.5q101 0 189.5 -13t172.5 -36z" />
<glyph unicode="H" horiz-adv-x="1513" d="M1601 1295q-42 -11 -88 -18t-92 -10l-219 -1152q45 -3 88.5 -10t81.5 -18l-18 -87h-494l16 88q40 10 84.5 17t87.5 10l103 537h-738l-103 -537q43 -3 85 -10t78 -17l-17 -88h-495l16 87q42 11 88.5 18t91.5 10l219 1152q-45 3 -88 10t-80 18l16 87h494l-16 -88 q-40 -10 -84 -17t-88 -10l-91 -484h737l91 484q-42 3 -83 10t-77 17l17 88h492z" />
<glyph unicode="I" horiz-adv-x="622" d="M710 1295q-41 -11 -87 -18t-92 -10l-220 -1152q45 -3 89 -10t81 -18l-16 -87h-504l16 87q42 11 89 18t92 10l219 1152q-45 3 -88 10t-80 18l16 87h502z" />
<glyph unicode="J" horiz-adv-x="683" d="M772 1294q-34 -9 -72.5 -16t-76.5 -11l-175 -922q-16 -86 -46 -152.5t-77 -112.5t-114 -70t-155 -24q-22 0 -42 1.5t-38.5 3.5t-35 5t-30.5 6l27 141q27 -10 62 -17.5t70 -7.5q42 0 78.5 11.5t65 38t50 71.5t33.5 113l173 915q-45 3 -87.5 10t-80.5 18l17 87h472z" />
<glyph unicode="K" horiz-adv-x="1313" d="M1384 1294q-70 -16 -144 -26l-637 -565l431 -589q19 -1 39 -3.5t39.5 -6t38.5 -8t34 -8.5l-17 -88h-486l16 88q34 9 71 15.5t72 9.5l-418 589l-112 -587q33 -3 75 -10t77 -17l-17 -88h-485l16 87q42 11 89 18t92 10l219 1152q-45 3 -88 10t-80 18l16 87h484l-17 -88 q-39 -10 -82.5 -17t-78.5 -10l-106 -551l615 552q-37 4 -75.5 10t-69.5 16l17 88h490z" />
<glyph unicode="L" horiz-adv-x="934" d="M810 0h-849l16 87q42 11 89 18t92 10l219 1152q-45 3 -88 10t-80 18l16 87h502l-17 -87q-41 -11 -87 -18t-92 -10l-217 -1139h386q6 20 14.5 45t18 51t19.5 53t20 52h102z" />
<glyph unicode="M" horiz-adv-x="1866" d="M1292 0l17 87q19 6 39.5 10t42 7.5t43 5.5t43.5 4l41 766q3 55 6 103t5 90t5.5 80t6.5 76h-2q-18 -45 -44.5 -103t-61.5 -124l-538 -1002h-140l-146 949q-5 36 -9.5 73.5t-8 73.5t-5.5 69.5t-3 63.5h-2q-10 -39 -21.5 -80.5t-24 -86.5t-27 -93.5t-30.5 -98.5l-233 -756 q42 -3 81.5 -10t73.5 -17l-17 -87h-449l16 88q14 3 31 7t35 7.5t35.5 6t32.5 4.5l380 1154q-45 3 -88 10t-80 18l19 87h385l136 -899q11 -75 16.5 -144t8.5 -127h3q24 57 55 123t66 134l489 913h408l-17 -87q-42 -11 -87 -18t-91 -10l-54 -1154q28 -3 63.5 -10.5t62.5 -14.5 l-17 -88h-450z" />
<glyph unicode="N" horiz-adv-x="1491" d="M1577 1294q-34 -9 -72 -16t-77 -11l-241 -1267h-191l-387 920q-30 75 -58 151t-48 147q-9 -65 -20 -137t-24 -146.5t-26 -148.5t-26 -142l-95 -529q42 -3 83 -10t76 -17l-16 -88h-492l16 87q42 11 88.5 18t91.5 10l218 1152q-45 3 -88 10t-81 18l17 87h368l384 -918 q29 -70 56.5 -144t51.5 -148q9 58 20.5 125t23.5 137t24.5 140.5t24.5 136.5l99 556q-42 3 -81.5 10t-75.5 17l17 88h456z" />
<glyph unicode="O" horiz-adv-x="1415" d="M1381 900q0 -131 -28 -250t-79 -221.5t-123 -185t-160 -140.5t-188.5 -89.5t-209.5 -31.5q-123 0 -215 34t-152.5 98t-90.5 157t-30 212q0 125 27 242t77 219t120.5 186.5t158 144.5t189 93t213.5 33q119 0 210.5 -33.5t153.5 -97.5t94.5 -157.5t32.5 -212.5zM1213 883 q0 88 -21.5 159t-64.5 120.5t-108.5 76.5t-154.5 27q-86 0 -163 -28t-143 -77.5t-119 -120t-90 -155t-57 -181t-20 -199.5q0 -89 22 -160.5t65 -121.5t106.5 -77t146.5 -27q82 0 159 27t143 75.5t121.5 117.5t94.5 154t61 183.5t22 206.5z" />
<glyph unicode="P" horiz-adv-x="1134" d="M1173 1037q0 -120 -46.5 -221t-130 -174.5t-198.5 -114.5t-251 -41q-59 0 -97 3t-66 6l-73 -380q45 -3 89.5 -10t81.5 -18l-16 -87h-503l16 87q41 11 87 18t91 10l221 1152q-45 3 -89 10t-81 18l18 87h174q56 0 139 4t190 4q100 0 182 -23.5t140.5 -68.5t90 -110.5 t31.5 -150.5zM1010 1023q0 55 -20 99t-59 75.5t-96 47.5t-132 16q-55 0 -98 -0.5t-76 -2.5l-121 -632q13 -3 31.5 -5t39.5 -3.5t43.5 -2.5t43.5 -1q83 0 148 17t114 47t84 70t56.5 85.5t31.5 94t10 95.5z" />
<glyph unicode="Q" horiz-adv-x="1416" d="M1213 883q0 88 -21.5 159t-64 120.5t-108.5 76.5t-155 27q-86 0 -163 -28t-143 -77.5t-119 -120t-90 -155t-57 -181t-20 -199.5q0 -89 22 -160.5t65 -121.5t106.5 -77t147.5 -27q82 0 158.5 27t143.5 75.5t121.5 117.5t94 154t61 183.5t21.5 206.5zM895 71 q49 -2 93.5 -16t93 -28.5t106 -23.5t134.5 -1l-28 -138q-77 -10 -134.5 -5.5t-105.5 17.5t-91.5 31.5t-91 35t-104.5 28t-134 11.5h-40q-123 0 -215 34t-152.5 98t-90.5 157t-30 212q0 125 26.5 242t76.5 219t120.5 186.5t157.5 144.5t189 93t214 33q119 0 210.5 -33.5 t154.5 -97.5t95 -157.5t32 -212.5q0 -152 -37 -286t-102.5 -241.5t-155 -185t-191.5 -116.5z" />
<glyph unicode="R" horiz-adv-x="1163" d="M1108 1090q0 -100 -41 -179.5t-110 -136.5t-160 -89.5t-191 -36.5q18 -32 34 -64t33 -65l206 -404q40 -3 84 -10.5t77 -16.5l-18 -88h-273l-303 639h-36l-99 -524q40 -3 81 -10t76 -17l-17 -88h-488l16 87q42 11 88 18t91 10l219 1152q-45 3 -88 10t-80 18l16 87h155 q34 0 70.5 1t77.5 3t86 3t95 1q104 0 179 -20.5t124 -59t72.5 -94t23.5 -126.5zM946 1073q0 97 -60.5 144.5t-199.5 47.5q-50 0 -87.5 -1.5t-68.5 -3.5l-96 -500q9 -1 19 -1.5t23 -1t31.5 -1t45.5 -0.5q82 0 153.5 20.5t125 60t84 99t30.5 137.5z" />
<glyph unicode="S" horiz-adv-x="943" d="M867 1073h-101q-1 50 1.5 101.5t7.5 91.5q-18 4 -47.5 6.5t-52.5 2.5q-78 0 -136 -22t-96.5 -57.5t-57.5 -80.5t-19 -90q0 -50 19 -88.5t50 -71.5t71 -60.5t81.5 -56.5t81.5 -59.5t71 -69t50 -85.5t19 -108q0 -95 -39.5 -176t-111 -140.5t-170.5 -93.5t-216 -34 q-28 0 -58.5 1.5t-61.5 5t-61 9t-55 13.5l59 317h105q-2 -54 -4 -105.5t-5 -92.5q23 -7 51.5 -10.5t52.5 -3.5q83 0 148.5 21.5t110.5 59.5t68.5 89.5t23.5 112.5q0 48 -19 85.5t-49.5 68.5t-70 58t-80.5 55t-80.5 59t-70.5 69.5t-50 87t-19 111.5q0 82 33 156t97 130 t156.5 89t212.5 33q25 0 52 -1t55 -3.5t56.5 -6.5t55.5 -10z" />
<glyph unicode="T" horiz-adv-x="1105" d="M1171 1056h-101q2 64 2.5 112t4.5 88h-306l-216 -1141q45 -3 88.5 -10t81.5 -18l-18 -87h-502l16 87q42 11 88 18t92 10l219 1141h-307q-11 -40 -28 -88t-40 -112h-103l63 326h1028z" />
<glyph unicode="U" horiz-adv-x="1440" d="M1528 1294q-70 -17 -148 -27l-143 -761q-27 -134 -78.5 -233t-130 -163.5t-182.5 -96t-232 -31.5q-124 0 -207 26t-133.5 72.5t-71.5 111t-21 140.5q0 33 4.5 68t10.5 71l150 796q-36 4 -71.5 11t-66.5 16l17 88h463l-19 -88q-38 -10 -82.5 -17t-86.5 -10l-149 -779 q-7 -37 -11 -70.5t-4 -64.5q0 -61 16.5 -106.5t52.5 -76.5t92.5 -46.5t137.5 -15.5q93 0 167.5 21t130.5 70.5t94.5 128.5t60.5 197l141 742q-41 3 -83 10t-78 17l17 88h460z" />
<glyph unicode="V" horiz-adv-x="1357" d="M1494 1294q-15 -4 -31.5 -7.5t-34 -7t-35 -6l-31.5 -4.5l-700 -1269h-171l-206 1269q-14 2 -31 4.5t-33.5 6t-32 7t-27.5 7.5l16 88h457l-16 -87q-40 -10 -83.5 -17t-85.5 -10l119 -806q4 -31 9 -65.5t10.5 -72t10 -77t8.5 -78.5h2q33 75 73 152.5t82 152.5l432 794 q-42 3 -84 10t-77 17l17 87h459z" />
<glyph unicode="W" horiz-adv-x="1970" d="M2107 1294q-15 -4 -31.5 -7.5t-34 -7t-35.5 -6t-32 -4.5l-553 -1269h-196l-113 953q-6 58 -9 115t-2 114h-2q-20 -56 -42 -111.5t-49 -112.5l-456 -958h-195l-72 1269q-28 4 -63 10.5t-59 14.5l16 88h451l-16 -87q-40 -10 -85 -17t-92 -10l51 -860q4 -70 4.5 -132.5 t-1.5 -125.5h2q25 64 51.5 127.5t55.5 124.5l467 980h147l116 -988q8 -57 12.5 -120.5t4.5 -123.5h2q18 56 36.5 105.5t41.5 107.5l388 905q-39 3 -78 10t-74 17l16 87h444z" />
<glyph unicode="X" horiz-adv-x="1325" d="M1425 1294q-37 -8 -76.5 -15t-78.5 -11l-479 -560l295 -595q38 -3 73 -9.5t65 -15.5l-16 -88h-485l17 88q38 10 79 16.5t81 9.5l-219 487l-400 -487q37 -3 74.5 -9.5t71.5 -16.5l-17 -88h-484l16 88q38 9 76.5 15.5t77.5 9.5l516 608l-274 548q-37 4 -72.5 10.5 t-66.5 14.5l16 88h486l-18 -88q-36 -10 -79 -16t-84 -10l201 -442l366 442q-41 4 -77 10t-68 16l16 88h484z" />
<glyph unicode="Y" horiz-adv-x="1179" d="M1316 1294q-29 -8 -65 -14.5t-65 -10.5l-525 -773l-72 -381q45 -3 88.5 -10t80.5 -18l-16 -87h-503l16 87q41 11 87.5 18t92.5 10l72 381l-222 773q-29 4 -64 10.5t-62 14.5l17 88h453l-17 -88q-35 -10 -77.5 -16.5t-88.5 -9.5l103 -397q8 -30 15.5 -60t15.5 -60t15 -60 t14 -59h2q20 32 39.5 63.5t41 66t45.5 72t52 80.5l224 354q-35 3 -74.5 9.5t-71.5 16.5l18 88h448z" />
<glyph unicode="Z" horiz-adv-x="1065" d="M1115 1266l-803 -1001q-28 -35 -55.5 -67.5t-57.5 -66.5q17 2 49 3t75.5 1.5t97.5 0.5h115h239q13 42 30.5 89.5t38.5 102.5h101l-63 -328h-888l21 114l761 957q40 50 78.5 93.5t79.5 88.5q-54 -2 -124 -3t-169 -1h-258q-11 -38 -27.5 -85t-36.5 -101h-102l60 319h860z " />
<glyph unicode="[" horiz-adv-x="642" d="M742 1458h-237l-332 -1741h238l-22 -119h-379l377 1978h379z" />
<glyph unicode="\" horiz-adv-x="857" d="M575 -330l-349 1880h133l353 -1880h-137z" />
<glyph unicode="]" horiz-adv-x="642" d="M282 -402h-378l23 119h237l332 1741h-238l23 118h379z" />
<glyph unicode="^" d="M866 708l-193 556l-393 -556l-100 57l452 617h125l229 -615z" />
<glyph unicode="_" d="M927 -513h-1104l23 121h1104z" />
<glyph unicode="`" horiz-adv-x="736" d="M566 1177l-251 244l103 94l230 -262z" />
<glyph unicode="a" horiz-adv-x="1121" d="M986 14q-35 -4 -75.5 -7.5t-83 -5.5t-85 -2.5t-81.5 1.5q13 70 44 180t81 270l-4 1q-17 -39 -42 -89.5t-58 -102.5t-73.5 -102.5t-90 -89.5t-106.5 -63t-123 -24q-108 0 -165.5 73.5t-57.5 233.5q0 92 16 183.5t49 174t85 153.5t122 123t160.5 81.5t201.5 29.5 q85 0 160.5 -8t142.5 -22l-169 -880q35 -6 79.5 -11.5t87.5 -8.5zM832 891q-34 8 -72 14t-86 6q-83 0 -148 -25.5t-115.5 -69.5t-86.5 -103t-58.5 -125t-33.5 -136.5t-11 -137.5q0 -55 8.5 -93.5t23 -62.5t35.5 -35t47 -11q53 0 105.5 33t102 88.5t93.5 127.5t79.5 149 t61.5 153t39 140z" />
<glyph unicode="b" horiz-adv-x="1096" d="M1026 731q0 -92 -16 -183.5t-49.5 -174.5t-84.5 -153.5t-122 -122.5t-161.5 -81.5t-201.5 -29.5q-87 0 -161.5 8.5t-140.5 22.5l259 1356q-36 6 -81 11.5t-88 8.5l16 88q34 4 75 7.5t84.5 5.5t86 2.5t81.5 -1.5l-100 -519q-6 -35 -15 -70t-22.5 -80.5t-32 -106 t-44.5 -145.5l4 -2q39 97 90 181.5t113 147.5t134 99.5t154 36.5q107 0 165 -73t58 -233zM870 704q0 54 -8 93t-23 63t-36.5 35t-46.5 11q-53 0 -105.5 -33t-101.5 -88.5t-93 -127t-79 -148t-61 -151.5t-38 -138l-19 -93q36 -10 73.5 -15t84.5 -5q83 0 148.5 25.5 t115.5 69.5t86 103t58.5 125t33.5 136.5t11 137.5z" />
<glyph unicode="c" horiz-adv-x="860" d="M824 710l-90 2q-1 22 -1 45.5t1 47t2.5 46.5t5.5 45q-26 7 -54 10t-59 3q-65 0 -120 -23.5t-98.5 -64t-77 -94.5t-56 -116t-34 -129t-11.5 -130q0 -44 8 -86t33 -74.5t69.5 -52.5t117.5 -20q62 0 126.5 14.5t120.5 38.5l14 -127q-60 -24 -138 -41t-160 -17 q-101 0 -168.5 25t-108.5 69.5t-58.5 104.5t-17.5 131q0 147 40.5 277.5t115.5 227.5t181.5 153.5t238.5 56.5q63 0 122 -9.5t110 -26.5z" />
<glyph unicode="d" horiz-adv-x="1120" d="M834 122q35 -6 79.5 -11.5t87.5 -8.5l-16 -88q-35 -4 -75 -7.5t-82 -5.5t-84.5 -2.5t-80.5 1.5q11 69 42 180t81 270l-4 1q-17 -39 -42 -89.5t-58 -102.5t-73.5 -102.5t-90 -89.5t-106.5 -63t-123 -24q-108 0 -165.5 73.5t-57.5 233.5q0 92 16 183.5t49 174t85 153.5 t122 123t160.5 81.5t201.5 29.5q42 0 79.5 -3.5t76.5 -8.5l66 353q-34 6 -79.5 11.5t-90.5 8.5l17 88q34 4 75 7.5t84.5 5.5t86.5 2.5t82 -1.5zM832 891q-34 8 -72 14t-86 6q-83 0 -148 -25.5t-115.5 -69.5t-86.5 -103t-58.5 -125t-33.5 -136.5t-11 -137.5q0 -55 8.5 -93.5 t23 -62.5t35.5 -35t47 -11q53 0 105.5 33t102 88.5t93.5 127.5t79.5 149t61.5 153t39 140z" />
<glyph unicode="e" horiz-adv-x="961" d="M910 810q0 -78 -41 -139.5t-124.5 -106t-209.5 -71t-295 -33.5q-2 -12 -4 -28.5t-4 -34.5t-3 -36t-1 -34q0 -65 12 -107.5t40 -66.5t72.5 -34t108.5 -10q73 0 145.5 16t136.5 42l8 -122q-74 -30 -159.5 -46.5t-185.5 -16.5q-84 0 -147.5 18t-105 57t-62.5 100.5 t-21 148.5q0 96 17 187.5t49.5 172.5t80 149t109 117t136 76t161.5 27q76 0 130 -18t89 -48.5t51.5 -71.5t16.5 -87zM752 792q0 30 -10.5 53.5t-30.5 40t-47 24.5t-61 8q-64 0 -118.5 -26.5t-97.5 -72t-74.5 -107t-50.5 -131.5q130 6 223 21.5t152 42.5t87 63.5t28 83.5z " />
<glyph unicode="f" horiz-adv-x="692" d="M914 1360q-37 11 -75 16t-73 5q-59 0 -105 -16.5t-81 -52.5t-58.5 -91.5t-36.5 -132.5l-12 -70h293l-22 -120h-294l-183 -955q-24 -127 -65 -215.5t-98.5 -145t-132 -82t-166.5 -25.5q-45 0 -89 4.5t-86 13.5l38 133q39 -13 79.5 -17.5t74.5 -4.5q58 0 104.5 16.5 t82 55.5t61.5 103t45 158l185 961h-211l23 120h211l13 70q18 106 55 184.5t93 130t131.5 77.5t170.5 26q45 0 83 -4.5t82 -13.5z" />
<glyph unicode="g" horiz-adv-x="1095" d="M791 -106q-17 -86 -54.5 -162.5t-105.5 -134t-169.5 -90.5t-245.5 -33q-85 0 -149 10t-118 26l34 154q28 -13 61 -23t67.5 -17t70 -10.5t71.5 -3.5q82 0 147.5 17t115 56t83.5 102.5t52 156.5q12 65 23.5 117t26 106.5t34 119t48.5 154.5l-4 2q-17 -36 -41.5 -85 t-57 -100.5t-72.5 -100.5t-89.5 -88t-106.5 -63t-123 -24q-108 0 -165.5 73.5t-57.5 233.5q0 92 16 183.5t49.5 174t85 153.5t122 123t160.5 81.5t201 29.5q85 0 160.5 -8t142.5 -22zM832 891q-34 8 -72 14t-86 6q-83 0 -148 -25.5t-115.5 -69.5t-86.5 -103t-58.5 -125 t-33.5 -136.5t-11 -137.5q0 -55 8.5 -93.5t23 -62.5t35.5 -35t47 -11q53 0 105.5 33t102 88.5t93.5 127.5t79.5 149t61.5 153t39 140z" />
<glyph unicode="h" horiz-adv-x="1184" d="M1052 14q-35 -5 -75 -8t-82.5 -5t-85 -2.5t-80.5 1.5l126 657q25 130 0 189.5t-101 59.5q-53 0 -105 -33t-101 -88t-93 -126.5t-79.5 -148.5t-61 -153t-37.5 -140l-40 -217h-151l262 1373q-35 6 -80.5 11.5t-88.5 8.5l16 88q34 4 75 7.5t84.5 5.5t86 2.5t81.5 -1.5 l-95 -496q-6 -29 -14 -63.5t-20.5 -82t-32.5 -113t-50 -156.5l4 -2q37 86 86.5 168t111 146t133.5 102.5t155 38.5q70 0 117.5 -23.5t73 -68.5t30.5 -110t-10 -146l-109 -567q35 -6 79 -11.5t87 -8.5z" />
<glyph unicode="i" horiz-adv-x="574" d="M550 1351q0 -23 -9 -43.5t-23.5 -35.5t-34.5 -23t-41 -8q-22 0 -40 7.5t-31.5 21t-21 31t-7.5 37.5q0 24 9 44.5t24.5 35.5t35 23.5t41.5 8.5t40 -8t31 -21.5t20 -31.5t7 -38zM440 14q-35 -4 -76 -7.5t-84 -5.5t-86 -2.5t-80 1.5l174 898q-35 6 -79 10.5t-87 7.5l16 88 q35 4 76 7.5t83.5 5.5t84.5 2.5t79 -1.5l-173 -896q18 -3 38.5 -6t42.5 -5.5t44.5 -5t42.5 -3.5z" />
<glyph unicode="j" horiz-adv-x="551" d="M549 1351q0 -23 -9 -43.5t-23.5 -35.5t-34.5 -23t-41 -8q-22 0 -40 7.5t-31.5 21t-21 31t-7.5 37.5q0 24 9 44.5t24.5 35.5t35 23.5t41.5 8.5t40 -8t31 -21.5t20 -31.5t7 -38zM241 -144q-19 -96 -48.5 -167.5t-77 -119t-114 -71t-157.5 -23.5q-37 0 -71 4t-60 11l31 136 q28 -11 60 -16.5t58 -5.5q55 0 92.5 15t64 49t44.5 90.5t34 139.5l191 998q-34 6 -79 11.5t-89 8.5l16 87q34 5 74.5 8.5t83.5 5.5t85.5 2.5t81.5 -1.5z" />
<glyph unicode="k" horiz-adv-x="1045" d="M979 828q0 -65 -24.5 -121t-78 -102t-139.5 -82t-208 -61l198 -345q44 -4 85.5 -11t79.5 -16l-17 -90h-270l-273 502l-95 -502h-151l261 1373q-34 6 -80 11.5t-88 8.5l16 88q34 4 75 7.5t84.5 5.5t86 2.5t81.5 -1.5l-58 -300q-10 -53 -22 -105t-26 -105t-31.5 -109.5 t-38.5 -118.5l4 -1q28 62 66.5 113.5t85.5 88.5t105 57t128 20q60 0 105.5 -15.5t76.5 -43t46.5 -65.5t15.5 -83zM818 795q0 23 -7.5 44t-23 37t-38.5 25.5t-54 9.5q-45 0 -85 -18.5t-75 -48t-64 -68t-52.5 -80t-40.5 -81.5t-26 -74q128 20 217 44.5t144.5 54.5t80 68.5 t24.5 86.5z" />
<glyph unicode="l" horiz-adv-x="545" d="M259 122q35 -6 78.5 -11.5t87.5 -8.5l-17 -88q-35 -4 -75 -7.5t-82 -5.5t-84.5 -2.5t-80.5 1.5l262 1373q-35 6 -80.5 11.5t-88.5 8.5l16 88q34 4 75 7.5t83.5 5.5t85.5 2.5t81 -1.5z" />
<glyph unicode="m" horiz-adv-x="1827" d="M1693 14q-33 -5 -73.5 -8t-82.5 -5t-84.5 -2.5t-80.5 1.5l125 657q25 131 1.5 191t-95.5 60q-45 0 -92.5 -28t-94.5 -77.5t-91.5 -116t-82 -143t-66 -160.5t-43.5 -166l-40 -217h-150l126 657q25 131 2 191t-96 60q-45 0 -93 -28t-95 -77.5t-91 -116t-81.5 -143 t-66 -160.5t-43.5 -166l-40 -217h-150l171 896q-17 3 -37.5 6t-42.5 5.5t-44 4.5t-40 4l16 88q29 5 69 8t83.5 5t87.5 2.5t82 -1.5q-22 -110 -54 -218t-67 -216l4 -2q34 85 83 167t109.5 146t132.5 103t153 39q50 0 88 -13.5t63.5 -39t38 -62.5t12.5 -83q0 -27 -3 -54 t-10 -57.5t-17.5 -66.5t-25.5 -79l4 -3q35 87 84 169.5t110 146.5t132.5 103t153.5 39q66 0 112 -24t71.5 -69t30 -109.5t-11.5 -145.5l-108 -567q35 -6 78.5 -11.5t86.5 -8.5z" />
<glyph unicode="n" horiz-adv-x="1213" d="M1080 14q-34 -5 -74 -8t-82.5 -5t-85 -2.5t-80.5 1.5l126 657q25 130 0.5 189.5t-101.5 59.5q-51 0 -103.5 -33t-101 -87.5t-92.5 -125.5t-79.5 -146.5t-61 -149.5t-36.5 -136l-44 -228h-150l171 896q-34 6 -77 11.5t-87 8.5l16 88q34 5 74.5 8t83 5t84.5 2.5t80 -1.5 q-5 -26 -13.5 -63.5t-22.5 -90t-34.5 -121.5t-49.5 -159l4 -2q37 86 86 168t111 146t134.5 102.5t154.5 38.5q69 0 117 -23.5t74 -68.5t30.5 -110t-10.5 -146l-110 -567q35 -6 79 -11.5t86 -8.5z" />
<glyph unicode="o" horiz-adv-x="1091" d="M1019 671q0 -158 -48.5 -285.5t-130 -217t-187 -138t-218.5 -48.5q-91 0 -159.5 23.5t-113.5 69t-68 113t-23 155.5q0 100 19.5 190t56 166.5t88.5 139t116 106t139 67t160 23.5q97 0 166.5 -26.5t114.5 -74.5t66.5 -115t21.5 -148zM860 656q0 122 -56.5 187t-176.5 65 q-90 0 -163.5 -45t-125.5 -120t-80.5 -171.5t-28.5 -200.5q0 -63 13 -111t41.5 -81t73 -50t106.5 -17q78 0 149.5 39.5t126.5 111t88 171.5t33 222z" />
<glyph unicode="p" horiz-adv-x="1125" d="M1056 731q0 -92 -16 -183.5t-49.5 -174t-85 -153t-122 -122t-161 -81t-201.5 -29.5q-44 0 -81 3.5t-75 9.5l-75 -395q22 -2 44.5 -4.5t45 -6t43 -7.5t37.5 -10l-16 -87h-482l17 87q35 10 76.5 17.5t85.5 10.5l245 1290q-17 3 -37.5 6t-42.5 5.5t-43.5 4.5t-40.5 4l16 87 q30 5 70.5 8.5t83.5 5.5t86.5 2.5t81.5 -1.5q-7 -35 -16 -74t-23 -90t-34.5 -119.5t-47.5 -159.5l4 -2q39 97 89.5 181t112 147t134 99.5t153.5 36.5q108 0 166 -73t58 -233zM900 704q0 54 -8 93t-23.5 63t-36 35t-46.5 11q-53 0 -105.5 -33t-101.5 -88.5t-93 -127 t-79.5 -148t-61 -151.5t-37.5 -138l-17 -84q17 -6 38 -11t42 -8.5t41 -5.5t37 -2q81 0 146 25.5t115.5 69t86 102t59 125t34 136.5t10.5 137z" />
<glyph unicode="q" horiz-adv-x="1096" d="M737 -394q44 -3 86.5 -10.5t78.5 -17.5l-16 -87h-495l16 87q42 10 88 17.5t92 10.5l71 372q9 49 19.5 95t25 99.5t34.5 120.5t49 157l-4 1q-17 -39 -42 -89.5t-58 -102.5t-73.5 -102.5t-90 -89.5t-106.5 -63t-123 -24q-108 0 -165.5 73.5t-57.5 233.5q0 92 16 183.5 t49 174t85 153.5t122 123t160.5 81.5t201.5 29.5q85 0 160.5 -8t142.5 -22zM832 891q-34 8 -72 14t-86 6q-83 0 -148 -25.5t-115.5 -69.5t-86.5 -103t-58.5 -125t-33.5 -136.5t-11 -137.5q0 -55 8.5 -93.5t23 -62.5t36.5 -35t48 -11q53 0 105 33t101.5 88.5t93 127.5t79 149 t61.5 153t39 140z" />
<glyph unicode="r" horiz-adv-x="754" d="M784 884q-45 12 -88 -0.5t-82.5 -43.5t-75 -76.5t-67 -99t-58.5 -112t-48 -116t-35.5 -109.5t-22.5 -93l-42 -234h-150l173 896q-33 6 -77.5 11.5t-88.5 8.5l16 88q34 5 74.5 8t83 5t84.5 2.5t79 -1.5q-7 -35 -16 -74.5t-23 -88t-32.5 -108t-42.5 -132.5l4 -2 q44 98 91 181t102 141t121.5 85.5t150.5 12.5z" />
<glyph unicode="s" horiz-adv-x="808" d="M689 735h-89q0 46 2.5 91t6.5 88q-19 2 -41 4t-44 2q-53 0 -94 -12.5t-69 -35t-42 -52.5t-14 -66q0 -44 26 -78t65.5 -62.5t85.5 -56.5t85.5 -62.5t66 -78.5t26.5 -104q0 -66 -30 -125t-86.5 -105t-138 -73t-183.5 -27q-27 0 -53 1t-51 3.5t-48.5 5.5t-44.5 6l55 294h90 q0 -43 -2 -90.5t-6 -87.5q8 -2 20 -3t24.5 -2.5t25 -2t24.5 -0.5q54 0 99.5 11t79 33.5t52 56t18.5 78.5q0 43 -26.5 75t-66 60.5t-85 56.5t-85 63t-65.5 81t-26 109q0 64 25.5 119.5t75.5 96.5t123.5 65t170.5 24q28 0 54.5 -1t51 -3.5t47.5 -6t45 -8.5z" />
<glyph unicode="t" horiz-adv-x="743" d="M737 898h-290l-107 -562q-12 -64 -13.5 -106t10 -67t36.5 -35t66 -10q34 0 74.5 4.5t70.5 12.5l-7 -131q-43 -9 -91 -14.5t-92 -5.5q-76 0 -124.5 18.5t-73 58.5t-27 101t13.5 146l112 590h-219l25 120h218l64 338l159 37l-72 -375h292z" />
<glyph unicode="u" horiz-adv-x="1213" d="M1080 14q-34 -4 -74.5 -7.5t-83 -5.5t-85.5 -2.5t-82 1.5q5 26 13.5 63.5t22.5 90t35 121.5t50 159l-4 2q-37 -86 -86 -168t-110.5 -146t-134.5 -103t-155 -39q-70 0 -117 24t-73.5 69t-31 109.5t10.5 146.5l108 565q-34 6 -77 12.5t-86 9.5l17 87q33 5 74 8.5t83 5.5 t84 2.5t80 -1.5l-126 -657q-25 -130 -0.5 -189.5t101.5 -59.5q52 0 104 33t100.5 88t92.5 126.5t80 148.5t61.5 153t37.5 141l17 94q-33 6 -77 11.5t-86 8.5l17 88q34 5 74 8t82 5t84 2t80 -1l-172 -896q34 -6 80.5 -11.5t87.5 -8.5z" />
<glyph unicode="v" horiz-adv-x="1032" d="M534 0h-172l-127 896q-34 6 -70.5 11.5t-78.5 8.5l17 88q65 9 135.5 13t142.5 1l87 -680q2 -20 4 -43.5t3.5 -47.5t2.5 -48t2 -46h3l464 907l147 -52z" />
<glyph unicode="w" horiz-adv-x="1497" d="M1038 0h-184l-64 577l-294 -577h-174l-101 896q-34 6 -78 11.5t-85 8.5l17 88q32 4 68.5 7.5t74 5.5t76 2t75.5 -1l75 -861h2l319 622l-12 117q-36 6 -81 11.5t-86 8.5l17 88q28 4 64 7.5t74.5 5.5t78.5 2t77 -1l78 -863h2l428 904l145 -49z" />
<glyph unicode="x" horiz-adv-x="1102" d="M636 506l172 -389q18 -2 42 -5t48 -7t46.5 -8t39.5 -9l-18 -88h-286l-160 395l-411 -453l-115 87l463 491l-158 383q-18 1 -40.5 4t-45.5 7t-44.5 7.5t-38.5 8.5l17 88h279l148 -388l404 443l112 -82z" />
<glyph unicode="y" horiz-adv-x="1056" d="M1094 1015q-64 -153 -129.5 -295t-131 -271.5t-130.5 -245t-130.5 -215.5t-131 -184t-130.5 -148q-44 -43 -89 -76.5t-90 -57t-90 -35t-88 -11.5q-19 0 -38 1t-36.5 2.5t-34 4.5t-31.5 7l27 141q29 -11 62 -15.5t67 -4.5q56 0 119 34t119 95q33 36 56 73t38 79t22.5 91 t7.5 107q0 87 -7.5 183.5t-20.5 199t-32.5 209t-42.5 213.5q-36 6 -79.5 11.5t-86.5 8.5l17 88q33 4 69 7.5t74 5.5t75.5 2.5t74.5 -1.5q23 -101 43 -208t34.5 -208.5t22 -193t7.5 -163.5q0 -47 -5.5 -98.5t-14.5 -97.5h2q66 111 125.5 224.5t118.5 237t118 258.5t124 291 l146 -45v0z" />
<glyph unicode="z" horiz-adv-x="881" d="M846 909l-648 -781q23 1 54.5 1.5t67 0.5t72.5 0.5t70 0.5h129q11 38 26 80.5t33 85.5h90l-57 -297h-688l21 110l650 787q-24 -1 -53.5 -1.5t-62.5 -1t-69 -1t-75 -0.5h-113q-13 -41 -26 -79.5t-31 -80.5h-90l55 285h667z" />
<glyph unicode="{" horiz-adv-x="669" d="M786 1458q-54 0 -93 -12.5t-66.5 -42t-46 -77.5t-32.5 -120l-50 -263q-13 -69 -35 -121.5t-53 -88t-70 -57t-87 -26.5v-4q44 -7 74.5 -29.5t47 -58.5t19.5 -86.5t-9 -114.5l-75 -388q-14 -72 -14 -120t16 -77t49 -42t86 -13l-22 -119h-34q-82 0 -133 26.5t-76 75.5 t-27 118.5t15 156.5l77 391q12 59 8.5 100.5t-24.5 67.5t-60 38.5t-98 16.5l25 124q63 4 107 16t74 37.5t48.5 66t29.5 102.5l51 265q14 78 41 146.5t70 119.5t104.5 80.5t145.5 29.5h38z" />
<glyph unicode="|" horiz-adv-x="569" d="M149 -509h-119l389 2048h120z" />
<glyph unicode="}" horiz-adv-x="670" d="M636 589q-63 -4 -107.5 -16t-74.5 -38t-48 -67t-30 -102l-73 -389q-18 -96 -47 -167t-72.5 -117.5t-103 -69.5t-139.5 -23h-38l23 119q54 0 93 12.5t66 42t45.5 77.5t31.5 119l73 387q13 69 35 122t52.5 89t70 57t87.5 27v5q-43 7 -73.5 28.5t-47.5 57.5t-20 86.5 t10 113.5l52 265q14 71 14 119t-16 77.5t-49 42.5t-87 13l23 117h29q83 0 134.5 -28.5t77.5 -79t27.5 -119t-14.5 -149.5l-53 -266q-13 -61 -9 -101.5t25 -66t60 -38t97 -16.5z" />
<glyph unicode="~" d="M1126 1168q-3 -69 -25 -125t-58.5 -95.5t-86.5 -61t-110 -21.5q-55 0 -94 17t-67.5 43t-50.5 55.5t-44.5 55t-50 42.5t-65.5 17q-34 0 -60.5 -15t-45.5 -40t-30.5 -59.5t-14.5 -73.5h-115q3 69 25 125t58.5 95.5t86.5 61t109 21.5q56 0 95 -17t67 -42.5t50.5 -55.5 t45 -56t49.5 -43t66 -17q35 0 61.5 15t45 40.5t30 60t14.5 73.5h115v0z" />
<glyph unicode="&#xa1;" horiz-adv-x="641" d="M485 930q0 -24 -8.5 -44t-23 -35t-35 -23.5t-43.5 -8.5q-22 0 -41.5 8.5t-33.5 23t-22 33.5t-8 40q0 23 8.5 43.5t23.5 35t35.5 23.5t42.5 9q23 0 42.5 -8.5t33.5 -23t21.5 -33.5t7.5 -40zM212 -418h-178l238 1108h124z" />
<glyph unicode="&#xa2;" d="M992 829h-90q0 48 1.5 90t5.5 83q-38 12 -73.5 17t-74.5 5q-91 0 -166.5 -33.5t-130.5 -93.5t-85 -144t-30 -184q0 -52 14.5 -93.5t47 -71t84 -45t125.5 -15.5q70 0 142.5 17t140.5 49l18 -126q-33 -14 -67.5 -26.5t-69.5 -21.5t-69.5 -15t-69.5 -8l-40 -213h-122l39 215 q-79 7 -140.5 30t-104.5 63t-66 99.5t-23 138.5q0 136 41 241.5t111 180.5t163 119t197 57l36 187h123l-36 -181q52 -2 107 -13t115 -35z" />
<glyph unicode="&#xa3;" d="M1018 1041h-91q-2 45 -1 86t5 83q-32 7 -64.5 12t-62.5 5q-65 0 -112 -21t-79 -58t-51 -86.5t-29.5 -106t-13.5 -117t-4 -120.5h337l-24 -120h-316q-1 -84 -13.5 -149.5t-41 -120.5t-74 -102.5t-110.5 -95.5q32 2 71.5 2.5t85.5 0.5h351q6 19 12 40t13.5 43.5t15.5 45 t17 44.5h101l-61 -306h-823l20 108q61 45 105.5 84.5t76 75.5t50.5 71.5t30.5 75t15.5 84t5 99.5h-227l23 120h207q1 83 8.5 162t27 149t52.5 129t84.5 101.5t123.5 66.5t169 24q28 0 59.5 -2.5t63.5 -7t63 -11t57 -14.5z" />
<glyph unicode="&#xa4;" d="M933 925q16 -24 24.5 -59t8.5 -82q0 -44 -7.5 -90t-24 -91t-43.5 -88.5t-66 -82.5l136 -218l-122 -82l-126 226q-48 -27 -98.5 -41t-97.5 -14q-50 0 -86 8t-61 22l-186 -200l-102 87l190 188q-22 28 -33.5 69.5t-11.5 95.5q0 47 9 96t27.5 96t47.5 90.5t71 80.5l-125 201 l123 79l114 -210q45 21 90.5 31t90.5 10t89.5 -8.5t79.5 -31.5l198 210l93 -88zM825 759q0 37 -10 68t-31 54t-54.5 36t-81.5 13q-68 0 -120 -29.5t-86.5 -77t-53 -107.5t-18.5 -120q0 -38 9.5 -70t30.5 -55.5t54 -37t81 -13.5q62 0 114 30t89 79t57 109.5t20 120.5z" />
<glyph unicode="&#xa5;" d="M1265 1251q-14 -3 -31 -7t-35 -7.5t-36 -6t-33 -3.5l-434 -634h306l-20 -102h-348l-28 -152h347l-20 -103h-347l-24 -125q45 -3 89.5 -10.5t82.5 -18.5l-16 -82h-509l16 82q42 11 89 18.5t94 10.5l23 125h-347l20 103h348l28 152h-347l20 102h304l-186 634 q-14 1 -30.5 3.5t-33 6t-32.5 7.5l-28 7l16 89h455l-17 -89q-39 -10 -82.5 -16.5t-84.5 -9.5l89 -336q17 -60 32.5 -119t28.5 -121h3q39 65 83 132t86 130l203 314q-42 3 -82.5 9.5t-74.5 16.5l17 89h463z" />
<glyph unicode="&#xa6;" horiz-adv-x="569" d="M394 785h-119l143 754h119zM148 -509h-119l145 774h119z" />
<glyph unicode="&#xa7;" horiz-adv-x="1035" d="M872 1358q-37 12 -67.5 16.5t-60.5 4.5q-67 0 -110.5 -22t-69 -54.5t-35 -69.5t-9.5 -66q0 -45 24 -90.5t60 -92.5t78 -97.5t78.5 -106.5t60.5 -119t24 -136q0 -48 -13 -94.5t-40.5 -90t-68 -84t-94.5 -76.5q19 -34 30.5 -72.5t11.5 -82.5q0 -69 -27.5 -134t-79 -115 t-125 -80.5t-165.5 -30.5q-42 0 -84.5 5t-79.5 17l30 132q41 -14 75 -20.5t71 -6.5q62 0 105.5 21.5t70.5 53.5t38.5 69.5t11.5 69.5q0 48 -24 94.5t-60 94.5t-77.5 98.5t-77.5 106t-60 117t-24 131.5q0 48 13 94.5t39 90t67 85t98 80.5q-24 45 -35 83t-11 78q0 32 8.5 69.5 t27.5 76.5t50 74.5t74.5 64t101 45.5t130.5 17q38 0 77.5 -4.5t71.5 -13.5zM699 502q0 50 -20.5 98.5t-52.5 97t-72 99t-79 105.5q-76 -48 -108 -107.5t-32 -123.5q0 -50 20 -98t52 -96.5t72 -98t79 -102.5q38 23 64.5 50.5t43.5 57t25 59.5t8 59z" />
<glyph unicode="&#xa8;" horiz-adv-x="1096" d="M980 1349q0 -21 -8 -40t-21.5 -33t-32 -21.5t-39.5 -7.5q-20 0 -37.5 7.5t-30 20.5t-19.5 30.5t-7 35.5q0 22 8 40.5t21.5 32.5t32 21.5t39.5 7.5t38 -7.5t29.5 -20.5t19.5 -30t7 -36zM596 1349q0 -21 -8 -40t-22 -33t-32 -21.5t-39 -7.5q-20 0 -37.5 7.5t-30 20.5 t-20 30t-7.5 36q0 22 8 40.5t21.5 32.5t32 21.5t39.5 7.5t38 -7.5t29.5 -20.5t20 -30t7.5 -36z" />
<glyph unicode="&#xa9;" horiz-adv-x="1512" d="M1456 712q-1 -99 -26.5 -191t-71.5 -170t-110 -141.5t-141 -109t-165 -69.5t-182 -24q-95 0 -180.5 23t-157 65.5t-129 102t-97 132.5t-60.5 157t-20 176q0 99 26 190.5t71.5 169.5t109.5 141.5t141.5 108.5t165.5 69.5t183 24.5q94 0 177.5 -23t155.5 -65.5t129.5 -102 t98 -132.5t62 -157t20.5 -175zM1331 711q1 109 -38.5 207t-109.5 171t-166.5 115.5t-208.5 42.5q-116 0 -219 -44t-179.5 -121.5t-122 -184t-46.5 -230.5q0 -112 39 -210.5t109 -172.5t166.5 -117t210.5 -43q77 0 148.5 20t134 57t114.5 90t89.5 118t58 141t20.5 161z M999 792h-77q0 36 1.5 73t3.5 74q-17 2 -34.5 3.5t-34.5 1.5q-48 0 -86 -15.5t-66.5 -41.5t-48.5 -60.5t-32.5 -72.5t-18.5 -77t-7 -74q-1 -41 7.5 -73.5t28.5 -53.5t51 -32t75 -11q42 0 87 7t90 21l-5 -108q-25 -8 -51 -13t-52 -8.5t-50.5 -5.5t-45.5 -2q-78 0 -130.5 18.5 t-84.5 52.5t-44.5 81t-10.5 105q3 98 32.5 183t83 148t131 100t173.5 37q42 0 86 -5.5t75 -12.5z" />
<glyph unicode="&#xaa;" horiz-adv-x="811" d="M811 730q-28 -4 -60 -7t-64.5 -5t-64 -2t-59.5 2q8 35 24 90t39 124h-2q-51 -107 -124.5 -166.5t-164.5 -59.5q-87 0 -128 51.5t-41 151.5q0 94 27.5 181.5t81.5 154.5t134 107t186 40q55 0 109 -3.5t111 -13.5q-12 -64 -26.5 -137.5l-29 -147t-27 -141.5t-21.5 -121 q14 -2 29 -4.5t30 -4.5t29.5 -3.5t26.5 -2.5zM702 462h-578l24 121h577zM671 1276q-29 7 -55 9.5t-48 2.5q-65 0 -115 -30.5t-84.5 -80.5t-52 -112.5t-17.5 -126.5q0 -66 19 -92.5t55 -26.5q48 0 93.5 34t84 89.5t67 127.5t42.5 148z" />
<glyph unicode="&#xab;" horiz-adv-x="990" d="M667 603l170 -290l-123 -65l-202 361l313 350l104 -69zM295 603l152 -293l-123 -64l-184 363l296 353l106 -69z" />
<glyph unicode="&#xac;" d="M928 218h-134l62 327h-760l26 129h892z" />
<glyph unicode="&#xae;" horiz-adv-x="1132" d="M1104 1104q0 -99 -38.5 -183t-102 -145.5t-145.5 -97t-169 -35.5q-89 0 -164.5 31.5t-130.5 87t-86.5 130.5t-31.5 162q0 101 38 186.5t101.5 147t146 96.5t171.5 35q87 0 162.5 -31t130.5 -86.5t86.5 -132t31.5 -165.5zM995 1099q0 64 -23.5 122.5t-64.5 102.5t-97.5 70 t-121.5 26q-67 0 -128.5 -27t-109 -74t-75.5 -111.5t-28 -139.5q0 -66 23.5 -125t64.5 -103.5t97 -71t122 -26.5q67 0 128.5 27.5t109 75t75.5 112.5t28 142zM869 1216q0 -32 -11.5 -58t-30 -45t-42.5 -31.5t-49 -17.5q6 -8 13.5 -25.5t14.5 -34.5l31 -85q13 -3 26 -7.5 t25 -11.5l-9 -49h-113l-70 201h-27l-24 -133q14 -4 25 -8t22 -11l-8 -49h-187l9 49q13 8 25.5 12t28.5 7l62 333q-15 2 -27.5 7t-21.5 11l10 50h51q35 1 69 1h66q37 0 64.5 -7t45 -20.5t25.5 -32.5t7 -45zM779 1205q1 23 -13.5 34t-46.5 11h-27.5h-26.5l-25 -135h16.5h16.5 q25 0 45 7t33.5 19.5t20.5 29t7 34.5z" />
<glyph unicode="&#xaf;" horiz-adv-x="793" d="M788 1276h-491l22 117h492z" />
<glyph unicode="&#xb0;" horiz-adv-x="745" d="M770 1273q0 -66 -24.5 -116.5t-63 -85t-88 -51.5t-101.5 -17q-58 0 -103.5 17.5t-76.5 48t-47 72.5t-16 93q0 66 24.5 116.5t63.5 84.5t88 51.5t100 17.5q62 0 107.5 -18t76 -49t45.5 -73t15 -91zM645 1263q0 21 -6 45t-20.5 44.5t-39 34.5t-62.5 14q-29 0 -54.5 -11 t-45 -31t-31 -48.5t-11.5 -65.5q0 -63 34.5 -100.5t96.5 -37.5q29 0 54.5 10.5t44 31t29.5 49.5t11 65z" />
<glyph unicode="&#xb1;" d="M1072 679h-402l-79 -412h-145l79 412h-402l23 128h402l79 410h145l-79 -410h402zM940 0h-945l25 129h945z" />
<glyph unicode="&#xb2;" horiz-adv-x="639" d="M634 1191q0 -33 -9 -64.5t-28.5 -62t-50.5 -61t-76 -62.5l-133 -99q62 1 125.5 1h133.5l-22 -111h-438l17 90l193 150q44 33 74 59t47.5 50t25 45.5t7.5 45.5q0 30 -20.5 51t-64.5 21q-19 0 -36 -3t-26 -6q-3 -12 -8.5 -28t-12.5 -33.5t-14.5 -35l-13.5 -31.5h-76l38 207 q40 16 85.5 25t88.5 9q50 0 86.5 -12t60.5 -33t35.5 -50t11.5 -62z" />
<glyph unicode="&#xb3;" horiz-adv-x="619" d="M610 1211q0 -59 -30.5 -102t-88.5 -69q23 -4 39.5 -13.5t27 -23t15.5 -31t5 -37.5q0 -50 -23 -91t-63.5 -69t-97.5 -43.5t-124 -15.5q-37 0 -70.5 4t-57.5 10l30 101q26 -6 55 -11t54 -5q84 0 123.5 29t39.5 79q0 16 -6 27.5t-20 18.5t-36.5 11t-56.5 4q-18 0 -42 -1.5 t-48 -4.5l15 91h45q53 0 89 10t58 26.5t31 38t9 44.5q0 11 -4.5 22.5t-14 21t-25 15t-37.5 5.5q-17 0 -29 -1.5t-25 -4.5q-6 -19 -15 -41.5t-19 -41.5h-73l30 164q39 11 78 16t79 5q49 0 84 -11.5t57 -30.5t32 -44t10 -51z" />
<glyph unicode="&#xb4;" horiz-adv-x="776" d="M407 1177l-63 84l293 254l81 -106z" />
<glyph unicode="&#xb6;" horiz-adv-x="1138" d="M1157 1265h-147l-279 -1462h-141h-148l21 118h151l278 1461h143h142zM577 521q-93 -1 -161.5 24t-113 70.5t-66 107t-21.5 134.5q0 62 15.5 125t45.5 121.5t75 109.5t103.5 88.5t130 59t156.5 21.5z" />
<glyph unicode="&#xb7;" horiz-adv-x="449" d="M358 613q0 -26 -10 -47.5t-26.5 -38t-38.5 -26t-46 -9.5q-23 0 -43.5 9t-36 24.5t-24 36t-8.5 42.5q0 26 10 47.5t26.5 38t38.5 26t46 9.5q23 0 43.5 -9t36 -24t24 -35.5t8.5 -43.5z" />
<glyph unicode="&#xb8;" horiz-adv-x="803" d="M407 -83q29 -50 36.5 -99.5t-6 -98.5t-45.5 -99t-80 -102h-138q48 52 79 96t43.5 84.5t5.5 80.5t-35 84l140 54v0z" />
<glyph unicode="&#xb9;" horiz-adv-x="612" d="M582 732h-432l12 70q32 10 73.5 16t91.5 8l74 387l-157 -69l-10 103l206 84h114l-97 -505q33 -2 69.5 -8t70.5 -16z" />
<glyph unicode="&#xba;" horiz-adv-x="842" d="M845 1159q0 -114 -35 -199t-93 -141.5t-129.5 -84.5t-146.5 -28q-61 0 -108 14t-79 42.5t-48 73t-16 105.5q0 90 27.5 172.5t78 146t122.5 101.5t162 38q70 0 120.5 -17t82.5 -48t47 -75.5t15 -99.5zM683 462h-551l25 121h551zM699 1139q0 28 -6.5 54t-22 46t-40.5 31.5 t-64 11.5q-64 0 -107.5 -32t-70.5 -79t-39.5 -102.5t-12.5 -101.5q0 -67 30 -104.5t95 -37.5q53 0 97 24.5t75 67.5t48.5 100t17.5 122z" />
<glyph unicode="&#xbb;" horiz-adv-x="990" d="M623 247l-106 70l246 290l-152 293l124 64l184 -364zM234 250l-105 70l262 287l-168 289l122 65l201 -360z" />
<glyph unicode="&#xbc;" horiz-adv-x="1404" d="M441 732h-131l91 482l-158 -70l-11 104l204 83h117zM104 -41l-86 76l1250 1333l86 -76zM1208 119h-107l-23 -119h-121l23 119h-293l10 92l308 388h188l-74 -379h108zM826 219h172l55 287z" />
<glyph unicode="&#xbd;" horiz-adv-x="1415" d="M441 732h-131l91 482l-158 -70l-11 104l204 83h117zM1240 462q0 -36 -9 -68t-29 -62.5t-51.5 -61.5t-75.5 -64l-126 -95h253l-22 -111h-431l17 91l189 148q42 33 70.5 58.5t44.5 48.5t23 44.5t7 44.5q0 30 -21 51t-65 21q-27 0 -61.5 -10.5t-61.5 -29.5l-32 99 q43 22 92 35.5t98 13.5q48 0 84.5 -11.5t60 -32.5t35 -49t11.5 -60zM104 -41l-86 76l1250 1333l86 -76z" />
<glyph unicode="&#xbe;" horiz-adv-x="1405" d="M102 -41l-86 76l1249 1333l88 -76zM603 1216q0 -29 -7 -54.5t-22.5 -46.5t-38 -38.5t-52.5 -30.5q45 -8 67.5 -37t22.5 -73q0 -47 -21 -87.5t-59.5 -69.5t-95.5 -46t-129 -17q-17 0 -34 1t-33.5 3.5t-31 5t-25.5 5.5l29 100q22 -6 49.5 -11t51.5 -5q81 0 120 30t39 84 q0 20 -10.5 34t-33.5 22t-60 9.5t-91 -4.5l15 89h43q48 0 81 9t53.5 24.5t30 36.5t9.5 44t-19 41t-64 18q-31 0 -60 -7.5t-52 -17.5l-21 88q18 7 38.5 13.5t42 10.5t44 6.5t44.5 2.5q47 0 81.5 -10.5t56.5 -28.5t32 -42t10 -51zM1209 119h-106l-23 -119h-122l24 119h-294 l11 92l308 388h188l-74 -379h108zM828 219h172l55 287z" />
<glyph unicode="&#xbf;" horiz-adv-x="890" d="M691 930q0 -24 -9 -44t-23.5 -35t-35 -23.5t-42.5 -8.5q-24 0 -43 8.5t-33 23t-21.5 33.5t-7.5 40q0 23 8.5 43.5t23 35t34.5 23.5t44 9q22 0 41.5 -8.5t33.5 -23t22 -33.5t8 -40zM615 690q11 -82 -1.5 -146.5t-40.5 -117t-67 -94t-81.5 -78t-84.5 -70.5t-75.5 -69 t-54 -74.5t-20.5 -87.5q0 -47 28 -87.5t77 -72t115 -53t142 -30.5l-46 -140q-113 11 -203 44.5t-152.5 83t-95.5 110.5t-33 128q0 63 21 113.5t55.5 91.5t77.5 77t87 72t84.5 75t70 86t43 105t2.5 134h152z" />
<glyph unicode="&#xc0;" horiz-adv-x="1381" d="M1273 0h-457l16 87q39 10 83 17t88 10l-39 249h-600l-136 -249q39 -3 80.5 -10t76.5 -17l-17 -87h-453l16 88q28 7 64 14.5t65 10.5l708 1269h179l219 -1268q14 -1 31 -4t33.5 -6.5t32 -8t28.5 -7.5zM853 1029q-8 50 -14.5 100.5t-11.5 97.5h-2q-21 -46 -45.5 -94.5 t-50.5 -98.5l-301 -546h517zM949 1492l-374 118l59 124l353 -150z" />
<glyph unicode="&#xc1;" horiz-adv-x="1381" d="M1273 0h-457l16 87q39 10 83 17t88 10l-39 249h-600l-136 -249q39 -3 80.5 -10t76.5 -17l-17 -87h-453l16 88q28 7 64 14.5t65 10.5l708 1269h179l219 -1268q14 -1 31 -4t33.5 -6.5t32 -8t28.5 -7.5zM853 1029q-8 50 -14.5 100.5t-11.5 97.5h-2q-21 -46 -45.5 -94.5 t-50.5 -98.5l-301 -546h517zM771 1492l-28 92l371 150l36 -124z" />
<glyph unicode="&#xc2;" horiz-adv-x="1381" d="M1273 0h-457l16 87q39 10 83 17t88 10l-39 249h-600l-136 -249q39 -3 80.5 -10t76.5 -17l-17 -87h-453l16 88q28 7 64 14.5t65 10.5l708 1269h179l219 -1268q14 -1 31 -4t33.5 -6.5t32 -8t28.5 -7.5zM853 1029q-8 50 -14.5 100.5t-11.5 97.5h-2q-21 -46 -45.5 -94.5 t-50.5 -98.5l-301 -546h517zM1147 1489l-246 131l-286 -131l-40 88l339 172l287 -165z" />
<glyph unicode="&#xc3;" horiz-adv-x="1381" d="M1273 0h-457l16 87q39 10 83 17t88 10l-39 249h-600l-136 -249q39 -3 80.5 -10t76.5 -17l-17 -87h-453l16 88q28 7 64 14.5t65 10.5l708 1269h179l219 -1268q14 -1 31 -4t33.5 -6.5t32 -8t28.5 -7.5zM853 1029q-8 50 -14.5 100.5t-11.5 97.5h-2q-21 -46 -45.5 -94.5 t-50.5 -98.5l-301 -546h517zM1242 1655q-41 -69 -98 -106.5t-124 -37.5q-50 0 -85 17.5t-63.5 38t-55 37.5t-60.5 17q-18 0 -35.5 -5.5t-34.5 -17.5t-33 -29.5t-32 -40.5l-76 59q40 69 96 106.5t124 37.5q51 0 86 -17t63.5 -38t54.5 -38t60 -17q35 0 68.5 23t66.5 70l78 -59 v0z" />
<glyph unicode="&#xc4;" horiz-adv-x="1381" d="M1273 0h-457l16 87q39 10 83 17t88 10l-39 249h-600l-136 -249q39 -3 80.5 -10t76.5 -17l-17 -87h-453l16 88q28 7 64 14.5t65 10.5l708 1269h179l219 -1268q14 -1 31 -4t33.5 -6.5t32 -8t28.5 -7.5zM853 1029q-8 50 -14.5 100.5t-11.5 97.5h-2q-21 -46 -45.5 -94.5 t-50.5 -98.5l-301 -546h517zM1199 1597q0 -21 -8 -39t-21.5 -31.5t-31.5 -21t-38 -7.5t-37 7.5t-29 20t-19.5 29t-7.5 36.5q0 21 8 39t21.5 31.5t31 21t38.5 7.5q20 0 36.5 -7t29 -20t20 -29.5t7.5 -36.5zM773 1597q0 -21 -8 -39t-21.5 -31.5t-31.5 -21t-38 -7.5t-36.5 7.5 t-29 20t-20 29t-7.5 36.5q0 21 8 39t21.5 31.5t31.5 21t38 7.5t37 -7t29.5 -20t19.5 -29.5t7 -36.5z" />
<glyph unicode="&#xc5;" horiz-adv-x="1381" d="M1273 0h-457l16 87q39 10 83 17t88 10l-39 249h-600l-136 -249q39 -3 80.5 -10t76.5 -17l-17 -87h-453l16 88q28 7 64 14.5t65 10.5l708 1269h179l219 -1268q14 -1 31 -4t33.5 -6.5t32 -8t28.5 -7.5zM853 1029q-8 50 -14.5 100.5t-11.5 97.5h-2q-21 -46 -45.5 -94.5 t-50.5 -98.5l-301 -546h517zM1111 1672q0 -45 -18.5 -84.5t-48.5 -68.5t-69 -45.5t-81 -16.5q-41 0 -76 14t-61 39t-41 59.5t-15 75.5q0 47 18.5 87t49 68.5t70 44.5t80.5 16t76.5 -14.5t61 -40t40 -60t14.5 -74.5zM1014 1666q0 21 -7 40.5t-20.5 34t-32.5 23t-41 8.5 q-23 0 -43.5 -9t-37 -26t-26 -38.5t-9.5 -47.5q0 -21 7.5 -40.5t21 -33.5t33 -23t41.5 -9t43 9t36.5 26t25 39t9.5 47z" />
<glyph unicode="&#xc6;" horiz-adv-x="1668" d="M1615 1076h-101q-1 50 -0.5 98t4.5 84h-391l-93 -486h316q13 40 28.5 78t32.5 72h88l-80 -419h-90q-4 34 -4 73.5t3 77.5h-317l-100 -528h409q13 41 30 90t37 99h102l-59 -315h-859l17 88q40 10 83 17t84 10l48 244h-467l-178 -245q40 -2 78.5 -9.5t72.5 -17.5l-16 -87 h-452l18 88q27 7 62.5 14.5t65.5 10.5l845 1154q-45 3 -88 10t-80 18l17 87h994zM968 1253q-16 -27 -35 -55t-41.5 -61.5t-50.5 -73t-63 -88.5l-358 -491h406l147 769h-5z" />
<glyph unicode="&#xc7;" horiz-adv-x="1165" d="M1148 1043h-103q0 49 1.5 96.5t9.5 95.5q-52 15 -100.5 20.5t-98.5 5.5q-99 0 -180.5 -31.5t-145.5 -87t-110.5 -130t-77 -161t-45.5 -181t-15 -188.5q0 -79 17.5 -145t59 -113.5t110.5 -73.5t172 -26q36 0 81 6t91.5 16t90.5 24.5t79 30.5l11 -139q-89 -36 -190.5 -56.5 t-199.5 -20.5q-96 0 -170 17.5t-129 49.5t-91.5 75.5t-59.5 96t-33 111.5t-10 122q0 123 23 240t67 221.5t110 192t153.5 151t195.5 99t236 35.5q91 0 167.5 -10.5t146.5 -29.5zM574 -83q29 -50 36.5 -99.5t-6 -98.5t-45.5 -99t-80 -102h-138q48 52 79 96t43.5 84.5 t5.5 80.5t-35 84l140 54v0z" />
<glyph unicode="&#xc8;" horiz-adv-x="1060" d="M1023 1076h-103q0 50 1 98t5 84h-398l-92 -486h317q13 40 27 78t34 72h87l-79 -419h-90q-5 34 -5.5 72t2.5 79h-315l-100 -528h398q14 41 31.5 90.5t35.5 98.5h103l-59 -315h-862l18 87q41 11 87.5 18t92.5 10l218 1152q-45 3 -89 10t-81 18l18 87h857zM806 1492 l-374 118l59 124l353 -150z" />
<glyph unicode="&#xc9;" horiz-adv-x="1060" d="M1023 1076h-103q0 50 1 98t5 84h-398l-92 -486h317q13 40 27 78t34 72h87l-79 -419h-90q-5 34 -5.5 72t2.5 79h-315l-100 -528h398q14 41 31.5 90.5t35.5 98.5h103l-59 -315h-862l18 87q41 11 87.5 18t92.5 10l218 1152q-45 3 -89 10t-81 18l18 87h857zM625 1492l-28 92 l371 150l36 -124z" />
<glyph unicode="&#xca;" horiz-adv-x="1060" d="M1023 1076h-103q0 50 1 98t5 84h-398l-92 -486h317q13 40 27 78t34 72h87l-79 -419h-90q-5 34 -5.5 72t2.5 79h-315l-100 -528h398q14 41 31.5 90.5t35.5 98.5h103l-59 -315h-862l18 87q41 11 87.5 18t92.5 10l218 1152q-45 3 -89 10t-81 18l18 87h857zM993 1489 l-246 131l-286 -131l-40 88l339 172l287 -165z" />
<glyph unicode="&#xcb;" horiz-adv-x="1060" d="M1023 1076h-103q0 50 1 98t5 84h-398l-92 -486h317q13 40 27 78t34 72h87l-79 -419h-90q-5 34 -5.5 72t2.5 79h-315l-100 -528h398q14 41 31.5 90.5t35.5 98.5h103l-59 -315h-862l18 87q41 11 87.5 18t92.5 10l218 1152q-45 3 -89 10t-81 18l18 87h857zM1032 1597 q0 -21 -8 -39t-21.5 -31.5t-31.5 -21t-38 -7.5t-37 7.5t-29 20t-19.5 29t-7.5 36.5q0 21 8 39t21.5 31.5t31 21t38.5 7.5q20 0 36.5 -7t29 -20t20 -29.5t7.5 -36.5zM606 1597q0 -21 -8 -39t-21.5 -31.5t-31.5 -21t-38 -7.5t-36.5 7.5t-29 20t-20 29t-7.5 36.5q0 21 8 39 t21.5 31.5t31.5 21t38 7.5t37 -7t29.5 -20t19.5 -29.5t7 -36.5z" />
<glyph unicode="&#xcc;" horiz-adv-x="622" d="M710 1295q-41 -11 -87 -18t-92 -10l-220 -1152q45 -3 89 -10t81 -18l-16 -87h-504l16 87q42 11 89 18t92 10l219 1152q-45 3 -88 10t-80 18l16 87h502zM593 1492l-374 118l59 124l353 -150z" />
<glyph unicode="&#xcd;" horiz-adv-x="622" d="M710 1295q-41 -11 -87 -18t-92 -10l-220 -1152q45 -3 89 -10t81 -18l-16 -87h-504l16 87q42 11 89 18t92 10l219 1152q-45 3 -88 10t-80 18l16 87h502zM408 1492l-28 92l371 150l36 -124z" />
<glyph unicode="&#xce;" horiz-adv-x="622" d="M710 1295q-41 -11 -87 -18t-92 -10l-220 -1152q45 -3 89 -10t81 -18l-16 -87h-504l16 87q42 11 89 18t92 10l219 1152q-45 3 -88 10t-80 18l16 87h502zM778 1489l-246 131l-286 -131l-40 88l339 172l287 -165z" />
<glyph unicode="&#xcf;" horiz-adv-x="622" d="M710 1295q-41 -11 -87 -18t-92 -10l-220 -1152q45 -3 89 -10t81 -18l-16 -87h-504l16 87q42 11 89 18t92 10l219 1152q-45 3 -88 10t-80 18l16 87h502zM824 1597q0 -21 -8 -39t-21.5 -31.5t-31.5 -21t-38 -7.5t-37 7.5t-29 20t-19.5 29t-7.5 36.5q0 21 8 39t21.5 31.5 t31 21t38.5 7.5q20 0 36.5 -7t29 -20t20 -29.5t7.5 -36.5zM398 1597q0 -21 -8 -39t-21.5 -31.5t-31.5 -21t-38 -7.5t-36.5 7.5t-29 20t-20 29t-7.5 36.5q0 21 8 39t21.5 31.5t31.5 21t38 7.5t37 -7t29.5 -20t19.5 -29.5t7 -36.5z" />
<glyph unicode="&#xd0;" horiz-adv-x="1444" d="M1399 887q0 -113 -23.5 -223.5t-72 -210t-122.5 -183.5t-174.5 -145.5t-228 -96.5t-283.5 -35q-55 0 -101.5 1t-87 2.5t-77.5 2.5t-72 1h-172l16 87q42 11 87 18t91 10l103 538h-193l22 120h194l94 494q-45 3 -88 10t-80 18l16 87h171q33 0 79.5 1t98.5 2.5t105.5 2.5 t101.5 1q164 0 278 -37.5t184.5 -105t102 -159.5t31.5 -200zM1236 868q0 85 -21.5 156.5t-74.5 124.5t-140.5 82.5t-219.5 29.5q-31 0 -63 -0.5t-62 -1.5t-57 -2t-48 -2l-92 -482h309l-25 -120h-307l-97 -516q21 -3 45 -5.5t48.5 -4t47 -2.5t39.5 -1q129 0 232.5 30.5 t183 83.5t137 124.5t94 154.5t54 173t17.5 178z" />
<glyph unicode="&#xd1;" horiz-adv-x="1488" d="M1577 1294q-34 -9 -72 -16t-77 -11l-241 -1267h-191l-387 920q-30 75 -58 151t-48 147q-9 -65 -20 -137t-24 -146.5t-26 -148.5t-26 -142l-95 -529q42 -3 83 -10t76 -17l-16 -88h-492l16 87q42 11 88.5 18t91.5 10l218 1152q-45 3 -88 10t-81 18l17 87h368l384 -918 q29 -70 56.5 -144t51.5 -148q9 58 20.5 125t23.5 137t24.5 140.5t24.5 136.5l99 556q-42 3 -81.5 10t-75.5 17l17 88h456zM1316 1655q-41 -69 -98 -106.5t-124 -37.5q-50 0 -85 17.5t-63.5 38t-55 37.5t-60.5 17q-18 0 -35.5 -5.5t-34.5 -17.5t-33 -29.5t-32 -40.5l-76 59 q40 69 96 106.5t124 37.5q51 0 86 -17t63.5 -38t54.5 -38t60 -17q35 0 68.5 23t66.5 70l78 -59v0z" />
<glyph unicode="&#xd2;" horiz-adv-x="1415" d="M1381 900q0 -131 -28 -250t-79 -221.5t-123 -185t-160 -140.5t-188.5 -89.5t-209.5 -31.5q-123 0 -215 34t-152.5 98t-90.5 157t-30 212q0 125 27 242t77 219t120.5 186.5t158 144.5t189 93t213.5 33q119 0 210.5 -33.5t153.5 -97.5t94.5 -157.5t32.5 -212.5zM1213 883 q0 88 -21.5 159t-64.5 120.5t-108.5 76.5t-154.5 27q-86 0 -163 -28t-143 -77.5t-119 -120t-90 -155t-57 -181t-20 -199.5q0 -89 22 -160.5t65 -121.5t106.5 -77t146.5 -27q82 0 159 27t143 75.5t121.5 117.5t94.5 154t61 183.5t22 206.5zM989 1492l-374 118l59 124 l353 -150z" />
<glyph unicode="&#xd3;" horiz-adv-x="1415" d="M1381 900q0 -131 -28 -250t-79 -221.5t-123 -185t-160 -140.5t-188.5 -89.5t-209.5 -31.5q-123 0 -215 34t-152.5 98t-90.5 157t-30 212q0 125 27 242t77 219t120.5 186.5t158 144.5t189 93t213.5 33q119 0 210.5 -33.5t153.5 -97.5t94.5 -157.5t32.5 -212.5zM1213 883 q0 88 -21.5 159t-64.5 120.5t-108.5 76.5t-154.5 27q-86 0 -163 -28t-143 -77.5t-119 -120t-90 -155t-57 -181t-20 -199.5q0 -89 22 -160.5t65 -121.5t106.5 -77t146.5 -27q82 0 159 27t143 75.5t121.5 117.5t94.5 154t61 183.5t22 206.5zM850 1492l-28 92l371 150l36 -124z " />
<glyph unicode="&#xd4;" horiz-adv-x="1415" d="M1381 900q0 -131 -28 -250t-79 -221.5t-123 -185t-160 -140.5t-188.5 -89.5t-209.5 -31.5q-123 0 -215 34t-152.5 98t-90.5 157t-30 212q0 125 27 242t77 219t120.5 186.5t158 144.5t189 93t213.5 33q119 0 210.5 -33.5t153.5 -97.5t94.5 -157.5t32.5 -212.5zM1213 883 q0 88 -21.5 159t-64.5 120.5t-108.5 76.5t-154.5 27q-86 0 -163 -28t-143 -77.5t-119 -120t-90 -155t-57 -181t-20 -199.5q0 -89 22 -160.5t65 -121.5t106.5 -77t146.5 -27q82 0 159 27t143 75.5t121.5 117.5t94.5 154t61 183.5t22 206.5zM1187 1489l-246 131l-286 -131 l-40 88l339 172l287 -165z" />
<glyph unicode="&#xd5;" horiz-adv-x="1415" d="M1381 900q0 -131 -28 -250t-79 -221.5t-123 -185t-160 -140.5t-188.5 -89.5t-209.5 -31.5q-123 0 -215 34t-152.5 98t-90.5 157t-30 212q0 125 27 242t77 219t120.5 186.5t158 144.5t189 93t213.5 33q119 0 210.5 -33.5t153.5 -97.5t94.5 -157.5t32.5 -212.5zM1213 883 q0 88 -21.5 159t-64.5 120.5t-108.5 76.5t-154.5 27q-86 0 -163 -28t-143 -77.5t-119 -120t-90 -155t-57 -181t-20 -199.5q0 -89 22 -160.5t65 -121.5t106.5 -77t146.5 -27q82 0 159 27t143 75.5t121.5 117.5t94.5 154t61 183.5t22 206.5zM1290 1655q-41 -69 -98 -106.5 t-124 -37.5q-50 0 -85 17.5t-63.5 38t-55 37.5t-60.5 17q-18 0 -35.5 -5.5t-34.5 -17.5t-33 -29.5t-32 -40.5l-76 59q40 69 96 106.5t124 37.5q51 0 86 -17t63.5 -38t54.5 -38t60 -17q35 0 68.5 23t66.5 70l78 -59v0z" />
<glyph unicode="&#xd6;" horiz-adv-x="1415" d="M1381 900q0 -131 -28 -250t-79 -221.5t-123 -185t-160 -140.5t-188.5 -89.5t-209.5 -31.5q-123 0 -215 34t-152.5 98t-90.5 157t-30 212q0 125 27 242t77 219t120.5 186.5t158 144.5t189 93t213.5 33q119 0 210.5 -33.5t153.5 -97.5t94.5 -157.5t32.5 -212.5zM1213 883 q0 88 -21.5 159t-64.5 120.5t-108.5 76.5t-154.5 27q-86 0 -163 -28t-143 -77.5t-119 -120t-90 -155t-57 -181t-20 -199.5q0 -89 22 -160.5t65 -121.5t106.5 -77t146.5 -27q82 0 159 27t143 75.5t121.5 117.5t94.5 154t61 183.5t22 206.5zM1217 1597q0 -21 -8 -39 t-21.5 -31.5t-31.5 -21t-38 -7.5t-37 7.5t-29 20t-19.5 29t-7.5 36.5q0 21 8 39t21.5 31.5t31 21t38.5 7.5q20 0 36.5 -7t29 -20t20 -29.5t7.5 -36.5zM791 1597q0 -21 -8 -39t-21.5 -31.5t-31.5 -21t-38 -7.5t-36.5 7.5t-29 20t-20 29t-7.5 36.5q0 21 8 39t21.5 31.5 t31.5 21t38 7.5t37 -7t29.5 -20t19.5 -29.5t7 -36.5z" />
<glyph unicode="&#xd7;" d="M673 604l287 -356l-103 -84l-286 356l-421 -356l-79 94l425 355l-289 356l103 83l287 -353l420 353l78 -93z" />
<glyph unicode="&#xd8;" horiz-adv-x="1415" d="M1382 900q0 -131 -28 -250t-79.5 -221.5t-123 -185t-159.5 -140.5t-189 -89.5t-210 -31.5q-48 0 -91.5 6t-81.5 16l-112 -207l-112 50l110 202q-102 60 -151.5 169t-49.5 265q0 125 26.5 242t76.5 219t120.5 186.5t157.5 144.5t189 93t214 33q43 0 81.5 -5t74.5 -14 l106 193l111 -50l-103 -186q110 -56 166.5 -167t56.5 -272zM1218 884q0 108 -33 188.5t-101 127.5l-590 -1064q62 -19 140 -15q79 3 153 31.5t139 78t118.5 118t92 152t60 180.5t21.5 203zM974 1252q-29 7 -60.5 10.5t-68.5 2.5q-83 -3 -157.5 -32t-139 -79.5t-116 -120.5 t-87.5 -153.5t-55.5 -178.5t-19.5 -197q0 -103 28 -180.5t91 -126.5z" />
<glyph unicode="&#xd9;" horiz-adv-x="1440" d="M1528 1294q-70 -17 -148 -27l-143 -761q-27 -134 -78.5 -233t-130 -163.5t-182.5 -96t-232 -31.5q-124 0 -207 26t-133.5 72.5t-71.5 111t-21 140.5q0 33 4.5 68t10.5 71l150 796q-36 4 -71.5 11t-66.5 16l17 88h463l-19 -88q-38 -10 -82.5 -17t-86.5 -10l-149 -779 q-7 -37 -11 -70.5t-4 -64.5q0 -61 16.5 -106.5t52.5 -76.5t92.5 -46.5t137.5 -15.5q93 0 167.5 21t130.5 70.5t94.5 128.5t60.5 197l141 742q-41 3 -83 10t-78 17l17 88h460zM933 1492l-374 118l59 124l353 -150z" />
<glyph unicode="&#xda;" horiz-adv-x="1440" d="M1528 1294q-70 -17 -148 -27l-143 -761q-27 -134 -78.5 -233t-130 -163.5t-182.5 -96t-232 -31.5q-124 0 -207 26t-133.5 72.5t-71.5 111t-21 140.5q0 33 4.5 68t10.5 71l150 796q-36 4 -71.5 11t-66.5 16l17 88h463l-19 -88q-38 -10 -82.5 -17t-86.5 -10l-149 -779 q-7 -37 -11 -70.5t-4 -64.5q0 -61 16.5 -106.5t52.5 -76.5t92.5 -46.5t137.5 -15.5q93 0 167.5 21t130.5 70.5t94.5 128.5t60.5 197l141 742q-41 3 -83 10t-78 17l17 88h460zM842 1492l-28 92l371 150l36 -124z" />
<glyph unicode="&#xdb;" horiz-adv-x="1440" d="M1528 1294q-70 -17 -148 -27l-143 -761q-27 -134 -78.5 -233t-130 -163.5t-182.5 -96t-232 -31.5q-124 0 -207 26t-133.5 72.5t-71.5 111t-21 140.5q0 33 4.5 68t10.5 71l150 796q-36 4 -71.5 11t-66.5 16l17 88h463l-19 -88q-38 -10 -82.5 -17t-86.5 -10l-149 -779 q-7 -37 -11 -70.5t-4 -64.5q0 -61 16.5 -106.5t52.5 -76.5t92.5 -46.5t137.5 -15.5q93 0 167.5 21t130.5 70.5t94.5 128.5t60.5 197l141 742q-41 3 -83 10t-78 17l17 88h460zM1179 1489l-246 131l-286 -131l-40 88l339 172l287 -165z" />
<glyph unicode="&#xdc;" horiz-adv-x="1440" d="M1528 1294q-70 -17 -148 -27l-143 -761q-27 -134 -78.5 -233t-130 -163.5t-182.5 -96t-232 -31.5q-124 0 -207 26t-133.5 72.5t-71.5 111t-21 140.5q0 33 4.5 68t10.5 71l150 796q-36 4 -71.5 11t-66.5 16l17 88h463l-19 -88q-38 -10 -82.5 -17t-86.5 -10l-149 -779 q-7 -37 -11 -70.5t-4 -64.5q0 -61 16.5 -106.5t52.5 -76.5t92.5 -46.5t137.5 -15.5q93 0 167.5 21t130.5 70.5t94.5 128.5t60.5 197l141 742q-41 3 -83 10t-78 17l17 88h460zM1234 1597q0 -21 -8 -39t-21.5 -31.5t-31.5 -21t-38 -7.5t-37 7.5t-29 20t-19.5 29t-7.5 36.5 q0 21 8 39t21.5 31.5t31 21t38.5 7.5q20 0 36.5 -7t29 -20t20 -29.5t7.5 -36.5zM808 1597q0 -21 -8 -39t-21.5 -31.5t-31.5 -21t-38 -7.5t-36.5 7.5t-29 20t-20 29t-7.5 36.5q0 21 8 39t21.5 31.5t31.5 21t38 7.5t37 -7t29.5 -20t19.5 -29.5t7 -36.5z" />
<glyph unicode="&#xdd;" horiz-adv-x="1179" d="M1316 1294q-29 -8 -65 -14.5t-65 -10.5l-525 -773l-72 -381q45 -3 88.5 -10t80.5 -18l-16 -87h-503l16 87q41 11 87.5 18t92.5 10l72 381l-222 773q-29 4 -64 10.5t-62 14.5l17 88h453l-17 -88q-35 -10 -77.5 -16.5t-88.5 -9.5l103 -397q8 -30 15.5 -60t15.5 -60t15 -60 t14 -59h2q20 32 39.5 63.5t41 66t45.5 72t52 80.5l224 354q-35 3 -74.5 9.5t-71.5 16.5l18 88h448zM749 1492l-28 92l371 150l36 -124z" />
<glyph unicode="&#xde;" horiz-adv-x="1109" d="M1125 819q0 -99 -41.5 -192.5t-121 -165.5t-196 -115.5t-266.5 -43.5q-46 0 -81.5 3t-67.5 8l-39 -198q45 -3 88 -10t80 -18l-16 -87h-502l17 87q41 11 87 18t93 10l219 1152q-45 3 -89 10t-81 18l16 87h504l-16 -87q-42 -11 -88 -18t-92 -10l-24 -131q47 3 98 4.5 t109 1.5q111 0 189 -24.5t127 -68t71.5 -102.5t22.5 -128zM959 799q0 51 -16.5 91.5t-51 69.5t-88.5 44t-129 15q-23 0 -48 -1t-50 -2.5t-49 -3.5t-44 -6l-108 -567q32 -5 67 -8.5t70 -3.5q110 0 193.5 31.5t140 83.5t85 119t28.5 138z" />
<glyph unicode="&#xdf;" horiz-adv-x="1176" d="M1065 313q0 -68 -31 -128.5t-86.5 -105t-133.5 -71t-171 -26.5q-29 0 -52.5 1t-45.5 2.5t-42.5 4t-42.5 6.5l56 289h89q0 -48 -1.5 -89.5t-6.5 -80.5q17 -3 38 -5.5t35 -2.5q114 0 176 48.5t62 132.5q0 45 -22 81t-55.5 68t-72.5 63t-72.5 67t-55.5 81t-22 104 q0 55 15 96.5t39.5 73.5t56.5 57t64.5 47.5t64.5 44.5t56.5 48t39.5 58.5t15 75.5q0 56 -41 93t-123 37q-62 0 -114.5 -19t-94.5 -60.5t-72.5 -107t-47.5 -158.5l-214 -1101q-25 -133 -65 -221.5t-95.5 -142.5t-128.5 -76.5t-164 -22.5q-33 0 -72.5 4.5t-72.5 11.5l35 133 q33 -11 66 -15t71 -4q58 0 101 14.5t75 52t56.5 102t43.5 164.5l186 959q-17 3 -37.5 6t-42.5 5.5t-44 4.5t-42 4l16 88q36 5 81 8.5t93 5.5q22 126 65.5 218t107 151.5t146.5 88.5t186 29q72 0 127.5 -17.5t94 -48t58 -73t19.5 -92.5q0 -77 -26 -128.5t-65 -88t-85 -64.5 t-85 -56.5t-65 -65.5t-26 -92q0 -45 22.5 -81t55.5 -68t72.5 -63.5t72.5 -68t55.5 -81.5t22.5 -104z" />
<glyph unicode="&#xe0;" horiz-adv-x="1121" d="M986 14q-35 -4 -75.5 -7.5t-83 -5.5t-85 -2.5t-81.5 1.5q13 70 44 180t81 270l-4 1q-17 -39 -42 -89.5t-58 -102.5t-73.5 -102.5t-90 -89.5t-106.5 -63t-123 -24q-108 0 -165.5 73.5t-57.5 233.5q0 92 16 183.5t49 174t85 153.5t122 123t160.5 81.5t201.5 29.5 q85 0 160.5 -8t142.5 -22l-169 -880q35 -6 79.5 -11.5t87.5 -8.5zM832 891q-34 8 -72 14t-86 6q-83 0 -148 -25.5t-115.5 -69.5t-86.5 -103t-58.5 -125t-33.5 -136.5t-11 -137.5q0 -55 8.5 -93.5t23 -62.5t35.5 -35t47 -11q53 0 105.5 33t102 88.5t93.5 127.5t79.5 149 t61.5 153t39 140zM712 1177l-251 244l103 94l230 -262z" />
<glyph unicode="&#xe1;" horiz-adv-x="1121" d="M986 14q-35 -4 -75.5 -7.5t-83 -5.5t-85 -2.5t-81.5 1.5q13 70 44 180t81 270l-4 1q-17 -39 -42 -89.5t-58 -102.5t-73.5 -102.5t-90 -89.5t-106.5 -63t-123 -24q-108 0 -165.5 73.5t-57.5 233.5q0 92 16 183.5t49 174t85 153.5t122 123t160.5 81.5t201.5 29.5 q85 0 160.5 -8t142.5 -22l-169 -880q35 -6 79.5 -11.5t87.5 -8.5zM832 891q-34 8 -72 14t-86 6q-83 0 -148 -25.5t-115.5 -69.5t-86.5 -103t-58.5 -125t-33.5 -136.5t-11 -137.5q0 -55 8.5 -93.5t23 -62.5t35.5 -35t47 -11q53 0 105.5 33t102 88.5t93.5 127.5t79.5 149 t61.5 153t39 140zM670 1177l-63 84l293 254l81 -106z" />
<glyph unicode="&#xe2;" horiz-adv-x="1121" d="M986 14q-35 -4 -75.5 -7.5t-83 -5.5t-85 -2.5t-81.5 1.5q13 70 44 180t81 270l-4 1q-17 -39 -42 -89.5t-58 -102.5t-73.5 -102.5t-90 -89.5t-106.5 -63t-123 -24q-108 0 -165.5 73.5t-57.5 233.5q0 92 16 183.5t49 174t85 153.5t122 123t160.5 81.5t201.5 29.5 q85 0 160.5 -8t142.5 -22l-169 -880q35 -6 79.5 -11.5t87.5 -8.5zM832 891q-34 8 -72 14t-86 6q-83 0 -148 -25.5t-115.5 -69.5t-86.5 -103t-58.5 -125t-33.5 -136.5t-11 -137.5q0 -55 8.5 -93.5t23 -62.5t35.5 -35t47 -11q53 0 105.5 33t102 88.5t93.5 127.5t79.5 149 t61.5 153t39 140zM875 1177l-168 176l-226 -176l-64 73l312 265l224 -262z" />
<glyph unicode="&#xe3;" horiz-adv-x="1121" d="M986 14q-35 -4 -75.5 -7.5t-83 -5.5t-85 -2.5t-81.5 1.5q13 70 44 180t81 270l-4 1q-17 -39 -42 -89.5t-58 -102.5t-73.5 -102.5t-90 -89.5t-106.5 -63t-123 -24q-108 0 -165.5 73.5t-57.5 233.5q0 92 16 183.5t49 174t85 153.5t122 123t160.5 81.5t201.5 29.5 q85 0 160.5 -8t142.5 -22l-169 -880q35 -6 79.5 -11.5t87.5 -8.5zM832 891q-34 8 -72 14t-86 6q-83 0 -148 -25.5t-115.5 -69.5t-86.5 -103t-58.5 -125t-33.5 -136.5t-11 -137.5q0 -55 8.5 -93.5t23 -62.5t35.5 -35t47 -11q53 0 105.5 33t102 88.5t93.5 127.5t79.5 149 t61.5 153t39 140zM1017 1378q-40 -72 -96.5 -110.5t-121.5 -38.5q-48 0 -81.5 18t-60.5 39.5t-51.5 39.5t-56.5 18q-34 0 -66.5 -24t-64.5 -72l-77 62q39 72 94 110.5t121 38.5q48 0 82 -17.5t62 -39.5t53.5 -39.5t57.5 -17.5q34 0 66 24t61 73l79 -64v0z" />
<glyph unicode="&#xe4;" horiz-adv-x="1121" d="M986 14q-35 -4 -75.5 -7.5t-83 -5.5t-85 -2.5t-81.5 1.5q13 70 44 180t81 270l-4 1q-17 -39 -42 -89.5t-58 -102.5t-73.5 -102.5t-90 -89.5t-106.5 -63t-123 -24q-108 0 -165.5 73.5t-57.5 233.5q0 92 16 183.5t49 174t85 153.5t122 123t160.5 81.5t201.5 29.5 q85 0 160.5 -8t142.5 -22l-169 -880q35 -6 79.5 -11.5t87.5 -8.5zM832 891q-34 8 -72 14t-86 6q-83 0 -148 -25.5t-115.5 -69.5t-86.5 -103t-58.5 -125t-33.5 -136.5t-11 -137.5q0 -55 8.5 -93.5t23 -62.5t35.5 -35t47 -11q53 0 105.5 33t102 88.5t93.5 127.5t79.5 149 t61.5 153t39 140zM973 1349q0 -21 -8 -40t-21.5 -33t-32 -21.5t-39.5 -7.5q-20 0 -37.5 7.5t-30 20.5t-19.5 30.5t-7 35.5q0 22 8 40.5t21.5 32.5t32 21.5t39.5 7.5t38 -7.5t29.5 -20.5t19.5 -30t7 -36zM589 1349q0 -21 -8 -40t-22 -33t-32 -21.5t-39 -7.5q-20 0 -37.5 7.5 t-30 20.5t-20 30t-7.5 36q0 22 8 40.5t21.5 32.5t32 21.5t39.5 7.5t38 -7.5t29.5 -20.5t20 -30t7.5 -36z" />
<glyph unicode="&#xe5;" horiz-adv-x="1121" d="M986 14q-35 -4 -75.5 -7.5t-83 -5.5t-85 -2.5t-81.5 1.5q13 70 44 180t81 270l-4 1q-17 -39 -42 -89.5t-58 -102.5t-73.5 -102.5t-90 -89.5t-106.5 -63t-123 -24q-108 0 -165.5 73.5t-57.5 233.5q0 92 16 183.5t49 174t85 153.5t122 123t160.5 81.5t201.5 29.5 q85 0 160.5 -8t142.5 -22l-169 -880q35 -6 79.5 -11.5t87.5 -8.5zM832 891q-34 8 -72 14t-86 6q-83 0 -148 -25.5t-115.5 -69.5t-86.5 -103t-58.5 -125t-33.5 -136.5t-11 -137.5q0 -55 8.5 -93.5t23 -62.5t35.5 -35t47 -11q53 0 105.5 33t102 88.5t93.5 127.5t79.5 149 t61.5 153t39 140zM897 1367q0 -49 -19.5 -91t-52 -72.5t-74.5 -47.5t-87 -17q-44 0 -81.5 14.5t-65.5 41t-43.5 63.5t-15.5 81q0 51 19.5 93.5t52.5 72.5t74.5 46.5t86.5 16.5q44 0 82 -15t65.5 -42t43 -64t15.5 -80zM793 1361q0 23 -8 43.5t-22 36t-34 24.5t-44 9 t-46.5 -10t-39.5 -27.5t-27 -41t-10 -49.5q0 -24 8 -44t22 -35.5t34 -24.5t44 -9t46 10t39.5 27t27.5 40t10 51z" />
<glyph unicode="&#xe6;" horiz-adv-x="1566" d="M1515 810q0 -46 -12.5 -87.5t-42.5 -77.5t-80 -66t-124.5 -53t-176 -39t-235.5 -24q-1 -12 -3.5 -29t-3.5 -35t-2 -37t-1 -35q0 -65 12.5 -107.5t40 -66.5t72 -34t109.5 -10q72 0 144 16t135 42l10 -122q-75 -30 -160 -46.5t-184 -16.5q-82 0 -138.5 18.5t-93 50.5 t-56.5 75.5t-29 95.5q-25 -44 -65.5 -87.5t-93.5 -77.5t-116.5 -54.5t-132.5 -20.5q-63 0 -110 15t-77 42t-45.5 64.5t-15.5 83.5q0 72 24.5 128t68.5 97t105.5 70t136.5 48.5t160.5 30t178.5 16.5l16 74q14 66 12.5 115t-21.5 82t-59.5 49t-102.5 16q-49 0 -103 -6.5 t-104 -20.5q-12 -42 -27.5 -87t-32.5 -91h-91l52 273q75 26 160.5 41t175.5 15q73 0 122 -14t81 -37.5t49 -54.5t27 -65q26 32 63.5 62.5t83.5 54.5t99.5 38t113.5 14q75 0 129.5 -18t89.5 -48.5t51.5 -71.5t16.5 -87zM1360 792q0 30 -11 53.5t-31 40t-47.5 24.5t-60.5 8 q-65 0 -119 -26t-96.5 -71.5t-74 -106t-50.5 -130.5q109 7 199.5 19.5t155 35t100 59.5t35.5 94zM692 460q-108 -6 -198 -19t-156.5 -39t-103 -68.5t-36.5 -108.5q0 -27 9.5 -48.5t26.5 -37.5t41 -24.5t52 -8.5q68 0 128.5 29t108.5 78t81 113t47 134z" />
<glyph unicode="&#xe7;" horiz-adv-x="860" d="M824 710l-90 2q-1 22 -1 45.5t1 47t2.5 46.5t5.5 45q-26 7 -54 10t-59 3q-65 0 -120 -23.5t-98.5 -64t-77 -94.5t-56 -116t-34 -129t-11.5 -130q0 -44 8 -86t33 -74.5t69.5 -52.5t117.5 -20q62 0 126.5 14.5t120.5 38.5l14 -127q-60 -24 -138 -41t-160 -17 q-101 0 -168.5 25t-108.5 69.5t-58.5 104.5t-17.5 131q0 147 40.5 277.5t115.5 227.5t181.5 153.5t238.5 56.5q63 0 122 -9.5t110 -26.5zM410 -83q29 -50 36.5 -99.5t-6 -98.5t-45.5 -99t-80 -102h-138q48 52 79 96t43.5 84.5t5.5 80.5t-35 84l140 54v0z" />
<glyph unicode="&#xe8;" horiz-adv-x="961" d="M910 810q0 -78 -41 -139.5t-124.5 -106t-209.5 -71t-295 -33.5q-2 -12 -4 -28.5t-4 -34.5t-3 -36t-1 -34q0 -65 12 -107.5t40 -66.5t72.5 -34t108.5 -10q73 0 145.5 16t136.5 42l8 -122q-74 -30 -159.5 -46.5t-185.5 -16.5q-84 0 -147.5 18t-105 57t-62.5 100.5 t-21 148.5q0 96 17 187.5t49.5 172.5t80 149t109 117t136 76t161.5 27q76 0 130 -18t89 -48.5t51.5 -71.5t16.5 -87zM752 792q0 30 -10.5 53.5t-30.5 40t-47 24.5t-61 8q-64 0 -118.5 -26.5t-97.5 -72t-74.5 -107t-50.5 -131.5q130 6 223 21.5t152 42.5t87 63.5t28 83.5z M644 1177l-251 244l103 94l230 -262z" />
<glyph unicode="&#xe9;" horiz-adv-x="961" d="M910 810q0 -78 -41 -139.5t-124.5 -106t-209.5 -71t-295 -33.5q-2 -12 -4 -28.5t-4 -34.5t-3 -36t-1 -34q0 -65 12 -107.5t40 -66.5t72.5 -34t108.5 -10q73 0 145.5 16t136.5 42l8 -122q-74 -30 -159.5 -46.5t-185.5 -16.5q-84 0 -147.5 18t-105 57t-62.5 100.5 t-21 148.5q0 96 17 187.5t49.5 172.5t80 149t109 117t136 76t161.5 27q76 0 130 -18t89 -48.5t51.5 -71.5t16.5 -87zM752 792q0 30 -10.5 53.5t-30.5 40t-47 24.5t-61 8q-64 0 -118.5 -26.5t-97.5 -72t-74.5 -107t-50.5 -131.5q130 6 223 21.5t152 42.5t87 63.5t28 83.5z M588 1177l-63 84l293 254l81 -106z" />
<glyph unicode="&#xea;" horiz-adv-x="961" d="M910 810q0 -78 -41 -139.5t-124.5 -106t-209.5 -71t-295 -33.5q-2 -12 -4 -28.5t-4 -34.5t-3 -36t-1 -34q0 -65 12 -107.5t40 -66.5t72.5 -34t108.5 -10q73 0 145.5 16t136.5 42l8 -122q-74 -30 -159.5 -46.5t-185.5 -16.5q-84 0 -147.5 18t-105 57t-62.5 100.5 t-21 148.5q0 96 17 187.5t49.5 172.5t80 149t109 117t136 76t161.5 27q76 0 130 -18t89 -48.5t51.5 -71.5t16.5 -87zM752 792q0 30 -10.5 53.5t-30.5 40t-47 24.5t-61 8q-64 0 -118.5 -26.5t-97.5 -72t-74.5 -107t-50.5 -131.5q130 6 223 21.5t152 42.5t87 63.5t28 83.5z M829 1177l-168 176l-226 -176l-64 73l312 265l224 -262z" />
<glyph unicode="&#xeb;" horiz-adv-x="961" d="M910 810q0 -78 -41 -139.5t-124.5 -106t-209.5 -71t-295 -33.5q-2 -12 -4 -28.5t-4 -34.5t-3 -36t-1 -34q0 -65 12 -107.5t40 -66.5t72.5 -34t108.5 -10q73 0 145.5 16t136.5 42l8 -122q-74 -30 -159.5 -46.5t-185.5 -16.5q-84 0 -147.5 18t-105 57t-62.5 100.5 t-21 148.5q0 96 17 187.5t49.5 172.5t80 149t109 117t136 76t161.5 27q76 0 130 -18t89 -48.5t51.5 -71.5t16.5 -87zM752 792q0 30 -10.5 53.5t-30.5 40t-47 24.5t-61 8q-64 0 -118.5 -26.5t-97.5 -72t-74.5 -107t-50.5 -131.5q130 6 223 21.5t152 42.5t87 63.5t28 83.5z M960 1349q0 -21 -8 -40t-21.5 -33t-32 -21.5t-39.5 -7.5q-20 0 -37.5 7.5t-30 20.5t-19.5 30.5t-7 35.5q0 22 8 40.5t21.5 32.5t32 21.5t39.5 7.5t38 -7.5t29.5 -20.5t19.5 -30t7 -36zM576 1349q0 -21 -8 -40t-22 -33t-32 -21.5t-39 -7.5q-20 0 -37.5 7.5t-30 20.5t-20 30 t-7.5 36q0 22 8 40.5t21.5 32.5t32 21.5t39.5 7.5t38 -7.5t29.5 -20.5t20 -30t7.5 -36z" />
<glyph unicode="&#xec;" horiz-adv-x="574" d="M440 14q-35 -4 -76 -7.5t-84 -5.5t-86 -2.5t-80 1.5l174 898q-35 6 -79 10.5t-87 7.5l16 88q35 4 76 7.5t83.5 5.5t84.5 2.5t79 -1.5l-173 -896q18 -3 38.5 -6t42.5 -5.5t44.5 -5t42.5 -3.5zM454 1177l-251 244l103 94l230 -262z" />
<glyph unicode="&#xed;" horiz-adv-x="574" d="M440 14q-35 -4 -76 -7.5t-84 -5.5t-86 -2.5t-80 1.5l174 898q-35 6 -79 10.5t-87 7.5l16 88q35 4 76 7.5t83.5 5.5t84.5 2.5t79 -1.5l-173 -896q18 -3 38.5 -6t42.5 -5.5t44.5 -5t42.5 -3.5zM340 1177l-63 84l293 254l81 -106z" />
<glyph unicode="&#xee;" horiz-adv-x="574" d="M440 14q-35 -4 -76 -7.5t-84 -5.5t-86 -2.5t-80 1.5l174 898q-35 6 -79 10.5t-87 7.5l16 88q35 4 76 7.5t83.5 5.5t84.5 2.5t79 -1.5l-173 -896q18 -3 38.5 -6t42.5 -5.5t44.5 -5t42.5 -3.5zM613 1177l-168 176l-226 -176l-64 73l312 265l224 -262z" />
<glyph unicode="&#xef;" horiz-adv-x="574" d="M440 14q-35 -4 -76 -7.5t-84 -5.5t-86 -2.5t-80 1.5l174 898q-35 6 -79 10.5t-87 7.5l16 88q35 4 76 7.5t83.5 5.5t84.5 2.5t79 -1.5l-173 -896q18 -3 38.5 -6t42.5 -5.5t44.5 -5t42.5 -3.5zM722 1349q0 -21 -8 -40t-21.5 -33t-32 -21.5t-39.5 -7.5q-20 0 -37.5 7.5 t-30 20.5t-19.5 30.5t-7 35.5q0 22 8 40.5t21.5 32.5t32 21.5t39.5 7.5t38 -7.5t29.5 -20.5t19.5 -30t7 -36zM338 1349q0 -21 -8 -40t-22 -33t-32 -21.5t-39 -7.5q-20 0 -37.5 7.5t-30 20.5t-20 30t-7.5 36q0 22 8 40.5t21.5 32.5t32 21.5t39.5 7.5t38 -7.5t29.5 -20.5 t20 -30t7.5 -36z" />
<glyph unicode="&#xf0;" horiz-adv-x="1089" d="M867 1289q37 -60 67 -124.5t50 -132.5t30.5 -140t10.5 -147q0 -102 -17.5 -198t-52.5 -181t-85 -155t-114.5 -121t-142.5 -79.5t-169 -28.5q-90 0 -160 23t-117 69t-72 114.5t-25 159.5q0 89 18.5 174.5t53 161.5t84 140.5t113.5 111t140 72.5t164 26q37 0 72.5 -6 t65 -18.5t52 -32.5t34.5 -48q-10 37 -22.5 67t-19.5 47q-23 55 -47.5 100.5t-53.5 86.5l-237 -97l-48 91l218 91q-29 33 -62 66t-71 69l150 68q35 -33 68.5 -68.5t62.5 -72.5l232 95l48 -91zM861 664q0 54 -14 98.5t-42.5 77t-72.5 50.5t-103 18q-64 0 -118.5 -21.5 t-99 -59.5t-79 -89t-57.5 -108.5t-35 -121t-12 -124.5q0 -64 16 -114t45.5 -85.5t74 -54t102.5 -18.5q75 0 133 28.5t102 75t74.5 105.5t49.5 120.5t27.5 119.5t8.5 103z" />
<glyph unicode="&#xf1;" horiz-adv-x="1213" d="M1080 14q-34 -5 -74 -8t-82.5 -5t-85 -2.5t-80.5 1.5l126 657q25 130 0.5 189.5t-101.5 59.5q-51 0 -103.5 -33t-101 -87.5t-92.5 -125.5t-79.5 -146.5t-61 -149.5t-36.5 -136l-44 -228h-150l171 896q-34 6 -77 11.5t-87 8.5l16 88q34 5 74.5 8t83 5t84.5 2.5t80 -1.5 q-5 -26 -13.5 -63.5t-22.5 -90t-34.5 -121.5t-49.5 -159l4 -2q37 86 86 168t111 146t134.5 102.5t154.5 38.5q69 0 117 -23.5t74 -68.5t30.5 -110t-10.5 -146l-110 -567q35 -6 79 -11.5t86 -8.5zM1094 1378q-40 -72 -96.5 -110.5t-121.5 -38.5q-48 0 -81.5 18t-60.5 39.5 t-51.5 39.5t-56.5 18q-34 0 -66.5 -24t-64.5 -72l-77 62q39 72 94 110.5t121 38.5q48 0 82 -17.5t62 -39.5t53.5 -39.5t57.5 -17.5q34 0 66 24t61 73l79 -64v0z" />
<glyph unicode="&#xf2;" horiz-adv-x="1091" d="M1020 671q0 -158 -48.5 -285.5t-130 -217t-187 -138t-218.5 -48.5q-91 0 -159.5 23.5t-113.5 69t-68 113t-23 155.5q0 100 19.5 190t56 166.5t88.5 139t116 106t139 67t160 23.5q97 0 166.5 -26.5t114.5 -74.5t66.5 -115t21.5 -148zM861 656q0 122 -56.5 187t-176.5 65 q-90 0 -163.5 -45t-125.5 -120t-80.5 -171.5t-28.5 -200.5q0 -63 13 -111t41.5 -81t73 -50t106.5 -17q78 0 149.5 39.5t126.5 111t88 171.5t33 222zM694 1177l-251 244l103 94l230 -262z" />
<glyph unicode="&#xf3;" horiz-adv-x="1091" d="M1019 671q0 -158 -48.5 -285.5t-130 -217t-187 -138t-218.5 -48.5q-91 0 -159.5 23.5t-113.5 69t-68 113t-23 155.5q0 100 19.5 190t56 166.5t88.5 139t116 106t139 67t160 23.5q97 0 166.5 -26.5t114.5 -74.5t66.5 -115t21.5 -148zM860 656q0 122 -56.5 187t-176.5 65 q-90 0 -163.5 -45t-125.5 -120t-80.5 -171.5t-28.5 -200.5q0 -63 13 -111t41.5 -81t73 -50t106.5 -17q78 0 149.5 39.5t126.5 111t88 171.5t33 222zM607 1177l-63 84l293 254l81 -106z" />
<glyph unicode="&#xf4;" horiz-adv-x="1091" d="M1019 671q0 -158 -48.5 -285.5t-130 -217t-187 -138t-218.5 -48.5q-91 0 -159.5 23.5t-113.5 69t-68 113t-23 155.5q0 100 19.5 190t56 166.5t88.5 139t116 106t139 67t160 23.5q97 0 166.5 -26.5t114.5 -74.5t66.5 -115t21.5 -148zM860 656q0 122 -56.5 187t-176.5 65 q-90 0 -163.5 -45t-125.5 -120t-80.5 -171.5t-28.5 -200.5q0 -63 13 -111t41.5 -81t73 -50t106.5 -17q78 0 149.5 39.5t126.5 111t88 171.5t33 222zM893 1177l-168 176l-226 -176l-64 73l312 265l224 -262z" />
<glyph unicode="&#xf5;" horiz-adv-x="1091" d="M1019 671q0 -158 -48.5 -285.5t-130 -217t-187 -138t-218.5 -48.5q-91 0 -159.5 23.5t-113.5 69t-68 113t-23 155.5q0 100 19.5 190t56 166.5t88.5 139t116 106t139 67t160 23.5q97 0 166.5 -26.5t114.5 -74.5t66.5 -115t21.5 -148zM860 656q0 122 -56.5 187t-176.5 65 q-90 0 -163.5 -45t-125.5 -120t-80.5 -171.5t-28.5 -200.5q0 -63 13 -111t41.5 -81t73 -50t106.5 -17q78 0 149.5 39.5t126.5 111t88 171.5t33 222zM1061 1378q-40 -72 -96.5 -110.5t-121.5 -38.5q-48 0 -81.5 18t-60.5 39.5t-51.5 39.5t-56.5 18q-34 0 -66.5 -24t-64.5 -72 l-77 62q39 72 94 110.5t121 38.5q48 0 82 -17.5t62 -39.5t53.5 -39.5t57.5 -17.5q34 0 66 24t61 73l79 -64v0z" />
<glyph unicode="&#xf6;" horiz-adv-x="1091" d="M1019 671q0 -158 -48.5 -285.5t-130 -217t-187 -138t-218.5 -48.5q-91 0 -159.5 23.5t-113.5 69t-68 113t-23 155.5q0 100 19.5 190t56 166.5t88.5 139t116 106t139 67t160 23.5q97 0 166.5 -26.5t114.5 -74.5t66.5 -115t21.5 -148zM860 656q0 122 -56.5 187t-176.5 65 q-90 0 -163.5 -45t-125.5 -120t-80.5 -171.5t-28.5 -200.5q0 -63 13 -111t41.5 -81t73 -50t106.5 -17q78 0 149.5 39.5t126.5 111t88 171.5t33 222zM1021 1349q0 -21 -8 -40t-21.5 -33t-32 -21.5t-39.5 -7.5q-20 0 -37.5 7.5t-30 20.5t-19.5 30.5t-7 35.5q0 22 8 40.5 t21.5 32.5t32 21.5t39.5 7.5t38 -7.5t29.5 -20.5t19.5 -30t7 -36zM637 1349q0 -21 -8 -40t-22 -33t-32 -21.5t-39 -7.5q-20 0 -37.5 7.5t-30 20.5t-20 30t-7.5 36q0 22 8 40.5t21.5 32.5t32 21.5t39.5 7.5t38 -7.5t29.5 -20.5t20 -30t7.5 -36z" />
<glyph unicode="&#xf7;" d="M766 1023q0 -23 -8.5 -43t-23 -35t-34.5 -23.5t-43 -8.5q-22 0 -41.5 8.5t-34 23t-22.5 34t-8 41.5q0 23 8.5 43t23 35t35 24t42.5 9q23 0 42.5 -8.5t33.5 -23.5t22 -34.5t8 -41.5zM1045 545h-949l26 129h949zM606 198q0 -24 -8.5 -44t-23 -35.5t-35 -24t-42.5 -8.5 q-23 0 -42.5 8.5t-33.5 23.5t-22 34.5t-8 41.5q0 23 8.5 43.5t23 35.5t34.5 23.5t43 8.5q22 0 41.5 -8.5t34 -23.5t22.5 -34.5t8 -40.5z" />
<glyph unicode="&#xf8;" horiz-adv-x="1093" d="M1021 671q0 -158 -49 -285.5t-130.5 -217t-187 -138t-219.5 -48.5q-37 0 -69.5 4t-61.5 14l-119 -208l-98 50l115 202q-65 43 -98 119t-33 180q0 146 42 273t118.5 220t183.5 146t236 53q27 0 53.5 -2.5t50.5 -7.5l113 203l97 -50l-106 -189q83 -44 122.5 -127t39.5 -191 zM867 655q0 72 -20.5 123.5t-63.5 81.5l-412 -737q43 -15 103 -14q52 2 101.5 21t93 53.5t80 82.5t63 108t41 131t14.5 150zM686 905q-16 4 -33 5t-36 1q-87 -2 -159 -46.5t-124.5 -118t-81.5 -170t-29 -201.5q0 -64 14 -112.5t43 -81.5z" />
<glyph unicode="&#xf9;" horiz-adv-x="1213" d="M1080 14q-34 -4 -74.5 -7.5t-83 -5.5t-85.5 -2.5t-82 1.5q5 26 13.5 63.5t22.5 90t35 121.5t50 159l-4 2q-37 -86 -86 -168t-110.5 -146t-134.5 -103t-155 -39q-70 0 -117 24t-73.5 69t-31 109.5t10.5 146.5l108 565q-34 6 -77 12.5t-86 9.5l17 87q33 5 74 8.5t83 5.5 t84 2.5t80 -1.5l-126 -657q-25 -130 -0.5 -189.5t101.5 -59.5q52 0 104 33t100.5 88t92.5 126.5t80 148.5t61.5 153t37.5 141l17 94q-33 6 -77 11.5t-86 8.5l17 88q34 5 74 8t82 5t84 2t80 -1l-172 -896q34 -6 80.5 -11.5t87.5 -8.5zM736 1177l-251 244l103 94l230 -262z " />
<glyph unicode="&#xfa;" horiz-adv-x="1213" d="M1080 14q-34 -4 -74.5 -7.5t-83 -5.5t-85.5 -2.5t-82 1.5q5 26 13.5 63.5t22.5 90t35 121.5t50 159l-4 2q-37 -86 -86 -168t-110.5 -146t-134.5 -103t-155 -39q-70 0 -117 24t-73.5 69t-31 109.5t10.5 146.5l108 565q-34 6 -77 12.5t-86 9.5l17 87q33 5 74 8.5t83 5.5 t84 2.5t80 -1.5l-126 -657q-25 -130 -0.5 -189.5t101.5 -59.5q52 0 104 33t100.5 88t92.5 126.5t80 148.5t61.5 153t37.5 141l17 94q-33 6 -77 11.5t-86 8.5l17 88q34 5 74 8t82 5t84 2t80 -1l-172 -896q34 -6 80.5 -11.5t87.5 -8.5zM711 1177l-63 84l293 254l81 -106z" />
<glyph unicode="&#xfb;" horiz-adv-x="1213" d="M1080 14q-34 -4 -74.5 -7.5t-83 -5.5t-85.5 -2.5t-82 1.5q5 26 13.5 63.5t22.5 90t35 121.5t50 159l-4 2q-37 -86 -86 -168t-110.5 -146t-134.5 -103t-155 -39q-70 0 -117 24t-73.5 69t-31 109.5t10.5 146.5l108 565q-34 6 -77 12.5t-86 9.5l17 87q33 5 74 8.5t83 5.5 t84 2.5t80 -1.5l-126 -657q-25 -130 -0.5 -189.5t101.5 -59.5q52 0 104 33t100.5 88t92.5 126.5t80 148.5t61.5 153t37.5 141l17 94q-33 6 -77 11.5t-86 8.5l17 88q34 5 74 8t82 5t84 2t80 -1l-172 -896q34 -6 80.5 -11.5t87.5 -8.5zM913 1177l-168 176l-226 -176l-64 73 l312 265l224 -262z" />
<glyph unicode="&#xfc;" horiz-adv-x="1213" d="M1080 14q-34 -4 -74.5 -7.5t-83 -5.5t-85.5 -2.5t-82 1.5q5 26 13.5 63.5t22.5 90t35 121.5t50 159l-4 2q-37 -86 -86 -168t-110.5 -146t-134.5 -103t-155 -39q-70 0 -117 24t-73.5 69t-31 109.5t10.5 146.5l108 565q-34 6 -77 12.5t-86 9.5l17 87q33 5 74 8.5t83 5.5 t84 2.5t80 -1.5l-126 -657q-25 -130 -0.5 -189.5t101.5 -59.5q52 0 104 33t100.5 88t92.5 126.5t80 148.5t61.5 153t37.5 141l17 94q-33 6 -77 11.5t-86 8.5l17 88q34 5 74 8t82 5t84 2t80 -1l-172 -896q34 -6 80.5 -11.5t87.5 -8.5zM1028 1349q0 -21 -8 -40t-21.5 -33 t-32 -21.5t-39.5 -7.5q-20 0 -37.5 7.5t-30 20.5t-19.5 30.5t-7 35.5q0 22 8 40.5t21.5 32.5t32 21.5t39.5 7.5t38 -7.5t29.5 -20.5t19.5 -30t7 -36zM644 1349q0 -21 -8 -40t-22 -33t-32 -21.5t-39 -7.5q-20 0 -37.5 7.5t-30 20.5t-20 30t-7.5 36q0 22 8 40.5t21.5 32.5 t32 21.5t39.5 7.5t38 -7.5t29.5 -20.5t20 -30t7.5 -36z" />
<glyph unicode="&#xfd;" horiz-adv-x="1056" d="M1094 1015q-64 -153 -129.5 -295t-131 -271.5t-130.5 -245t-130.5 -215.5t-131 -184t-130.5 -148q-44 -43 -89 -76.5t-90 -57t-90 -35t-88 -11.5q-19 0 -38 1t-36.5 2.5t-34 4.5t-31.5 7l27 141q29 -11 62 -15.5t67 -4.5q56 0 119 34t119 95q33 36 56 73t38 79t22.5 91 t7.5 107q0 87 -7.5 183.5t-20.5 199t-32.5 209t-42.5 213.5q-36 6 -79.5 11.5t-86.5 8.5l17 88q33 4 69 7.5t74 5.5t75.5 2.5t74.5 -1.5q23 -101 43 -208t34.5 -208.5t22 -193t7.5 -163.5q0 -47 -5.5 -98.5t-14.5 -97.5h2q66 111 125.5 224.5t118.5 237t118 258.5t124 291 l146 -45v0zM676 1177l-63 84l293 254l81 -106z" />
<glyph unicode="&#xfe;" horiz-adv-x="1096" d="M1026 731q0 -92 -16 -183.5t-49.5 -174.5t-84.5 -153.5t-122 -122t-161.5 -81t-201.5 -29.5q-44 0 -81.5 3.5t-74.5 9.5l-74 -394q45 -3 89 -10.5t81 -17.5l-17 -87h-498l16 87q41 10 87 17.5t91 10.5l337 1761l2 6q-34 6 -80.5 11.5t-89.5 8.5l16 88q34 4 75 7.5 t84.5 5.5t86 2.5t81.5 -1.5l-84 -436q-9 -43 -18.5 -87.5t-24 -100.5t-35.5 -127.5t-51 -166.5l5 -1q39 95 90 179t112.5 147t133.5 99t154 36q107 0 164.5 -73t57.5 -233zM870 704q0 54 -8 93t-23 63t-36.5 35t-46.5 11q-53 0 -105.5 -33t-101.5 -88.5t-93 -127t-79 -148 t-61 -151.5t-38 -138l-17 -85q17 -6 38 -11t42 -8.5t41 -5.5t37 -2q82 0 147 26t115 69.5t85.5 102t58.5 125t34 136.5t11 137z" />
<glyph unicode="&#xff;" horiz-adv-x="1056" d="M1094 1015q-64 -153 -129.5 -295t-131 -271.5t-130.5 -245t-130.5 -215.5t-131 -184t-130.5 -148q-44 -43 -89 -76.5t-90 -57t-90 -35t-88 -11.5q-19 0 -38 1t-36.5 2.5t-34 4.5t-31.5 7l27 141q29 -11 62 -15.5t67 -4.5q56 0 119 34t119 95q33 36 56 73t38 79t22.5 91 t7.5 107q0 87 -7.5 183.5t-20.5 199t-32.5 209t-42.5 213.5q-36 6 -79.5 11.5t-86.5 8.5l17 88q33 4 69 7.5t74 5.5t75.5 2.5t74.5 -1.5q23 -101 43 -208t34.5 -208.5t22 -193t7.5 -163.5q0 -47 -5.5 -98.5t-14.5 -97.5h2q66 111 125.5 224.5t118.5 237t118 258.5t124 291 l146 -45v0zM1009 1349q0 -21 -8 -40t-21.5 -33t-32 -21.5t-39.5 -7.5q-20 0 -37.5 7.5t-30 20.5t-19.5 30.5t-7 35.5q0 22 8 40.5t21.5 32.5t32 21.5t39.5 7.5t38 -7.5t29.5 -20.5t19.5 -30t7 -36zM625 1349q0 -21 -8 -40t-22 -33t-32 -21.5t-39 -7.5q-20 0 -37.5 7.5 t-30 20.5t-20 30t-7.5 36q0 22 8 40.5t21.5 32.5t32 21.5t39.5 7.5t38 -7.5t29.5 -20.5t20 -30t7.5 -36z" />
<glyph unicode="&#x100;" horiz-adv-x="1381" d="M1273 0h-457l16 87q39 10 83 17t88 10l-39 249h-600l-136 -249q39 -3 80.5 -10t76.5 -17l-17 -87h-453l16 88q28 7 64 14.5t65 10.5l708 1269h179l219 -1268q14 -1 31 -4t33.5 -6.5t32 -8t28.5 -7.5zM853 1029q-8 50 -14.5 100.5t-11.5 97.5h-2q-21 -46 -45.5 -94.5 t-50.5 -98.5l-301 -546h517zM1153 1538h-541l23 111h540z" />
<glyph unicode="&#x101;" horiz-adv-x="1121" d="M986 14q-35 -4 -75.5 -7.5t-83 -5.5t-85 -2.5t-81.5 1.5q13 70 44 180t81 270l-4 1q-17 -39 -42 -89.5t-58 -102.5t-73.5 -102.5t-90 -89.5t-106.5 -63t-123 -24q-108 0 -165.5 73.5t-57.5 233.5q0 92 16 183.5t49 174t85 153.5t122 123t160.5 81.5t201.5 29.5 q85 0 160.5 -8t142.5 -22l-169 -880q35 -6 79.5 -11.5t87.5 -8.5zM832 891q-34 8 -72 14t-86 6q-83 0 -148 -25.5t-115.5 -69.5t-86.5 -103t-58.5 -125t-33.5 -136.5t-11 -137.5q0 -55 8.5 -93.5t23 -62.5t35.5 -35t47 -11q53 0 105.5 33t102 88.5t93.5 127.5t79.5 149 t61.5 153t39 140zM935 1276h-491l22 117h492z" />
<glyph unicode="&#x102;" horiz-adv-x="1381" d="M1273 0h-457l16 87q39 10 83 17t88 10l-39 249h-600l-136 -249q39 -3 80.5 -10t76.5 -17l-17 -87h-453l16 88q28 7 64 14.5t65 10.5l708 1269h179l219 -1268q14 -1 31 -4t33.5 -6.5t32 -8t28.5 -7.5zM853 1029q-8 50 -14.5 100.5t-11.5 97.5h-2q-21 -46 -45.5 -94.5 t-50.5 -98.5l-301 -546h517zM1174 1739q-10 -47 -33 -90t-61 -76.5t-90 -53t-118 -19.5q-65 0 -107.5 20t-66.5 53.5t-30 76.5t4 89h98q-6 -26 -1 -49.5t20 -41t40.5 -28t61.5 -10.5q34 0 63 8.5t51 25.5t37 41t21 54h111v0z" />
<glyph unicode="&#x103;" horiz-adv-x="1121" d="M986 14q-35 -4 -75.5 -7.5t-83 -5.5t-85 -2.5t-81.5 1.5q13 70 44 180t81 270l-4 1q-17 -39 -42 -89.5t-58 -102.5t-73.5 -102.5t-90 -89.5t-106.5 -63t-123 -24q-108 0 -165.5 73.5t-57.5 233.5q0 92 16 183.5t49 174t85 153.5t122 123t160.5 81.5t201.5 29.5 q85 0 160.5 -8t142.5 -22l-169 -880q35 -6 79.5 -11.5t87.5 -8.5zM832 891q-34 8 -72 14t-86 6q-83 0 -148 -25.5t-115.5 -69.5t-86.5 -103t-58.5 -125t-33.5 -136.5t-11 -137.5q0 -55 8.5 -93.5t23 -62.5t35.5 -35t47 -11q53 0 105.5 33t102 88.5t93.5 127.5t79.5 149 t61.5 153t39 140zM967 1469q-9 -51 -31 -98t-58.5 -83t-86.5 -57t-114 -21t-106 21.5t-64.5 57.5t-27.5 83t4 97h103q-5 -28 -1 -53.5t17.5 -44.5t36.5 -30.5t56 -11.5q63 0 105 37t55 103h112v0z" />
<glyph unicode="&#x104;" horiz-adv-x="1381" d="M1151 0q-56 -32 -95.5 -65t-64 -65.5t-36 -61.5t-11.5 -52q0 -22 13 -37t44 -15q25 0 53 14t53 45l68 -67q-44 -59 -103.5 -89.5t-127.5 -30.5q-40 0 -70 10t-49.5 28.5t-29.5 44.5t-10 56q0 37 15.5 76.5t42.5 77.5t63.5 71.5t78.5 59.5h-169l16 87q39 10 83 17t88 10 l-39 249h-600l-136 -249q39 -3 80.5 -10t76.5 -17l-17 -87h-453l16 88q28 7 64 14.5t65 10.5l708 1269h179l219 -1269q14 -2 31 -4.5t33.5 -6t32 -7.5t28.5 -7l-18 -88h-122zM853 1029q-8 50 -14.5 100.5t-11.5 97.5h-2q-21 -46 -45.5 -94.5t-50.5 -98.5l-301 -546h517z" />
<glyph unicode="&#x105;" horiz-adv-x="1121" d="M986 14q-21 -2 -45.5 -4.5t-48.5 -5.5q-64 -8 -115.5 -35.5t-88 -64t-57 -76.5t-20.5 -72q0 -22 13.5 -37t44.5 -15q25 0 53 14t53 45l68 -67q-44 -59 -103.5 -89.5t-127.5 -30.5q-40 0 -70 10t-49.5 28.5t-29.5 44.5t-10 56q0 33 13 69.5t38.5 74.5t65 75.5t92.5 72.5 q14 69 45 178.5t79 264.5l-4 1q-17 -39 -42 -89.5t-58 -102.5t-73.5 -102.5t-90 -89.5t-106.5 -63t-123 -24q-108 0 -165.5 73.5t-57.5 233.5q0 92 16 183.5t49 174t85 153.5t122 123t160.5 81.5t201.5 29.5q85 0 160.5 -8t142.5 -22q-24 -128 -44 -230t-36 -184t-28 -148 t-23 -121t-20 -103t-18 -94q34 -6 79 -11.5t88 -8.5zM335 112q53 0 105.5 33t102 88.5t93.5 127.5t79.5 149t61.5 153t39 140l16 88q-34 8 -72 14t-86 6q-83 0 -148 -25.5t-115.5 -69.5t-86.5 -103t-58.5 -125t-33.5 -136.5t-11 -137.5q0 -55 8.5 -93.5t23 -62.5t35.5 -35 t47 -11z" />
<glyph unicode="&#x106;" horiz-adv-x="1165" d="M1148 1043h-103q0 49 1.5 96.5t9.5 95.5q-52 15 -100.5 20.5t-98.5 5.5q-99 0 -180.5 -31.5t-145.5 -87t-110.5 -130t-77 -161t-45.5 -181t-15 -188.5q0 -79 17.5 -145t59 -113.5t110.5 -73.5t172 -26q36 0 81 6t91.5 16t90.5 24.5t79 30.5l11 -139q-89 -36 -190.5 -56.5 t-199.5 -20.5q-96 0 -170 17.5t-129 49.5t-91.5 75.5t-59.5 96t-33 111.5t-10 122q0 123 23 240t67 221.5t110 192t153.5 151t195.5 99t236 35.5q91 0 167.5 -10.5t146.5 -29.5zM836 1492l-28 92l371 150l36 -124z" />
<glyph unicode="&#x107;" horiz-adv-x="860" d="M824 710l-90 2q-1 22 -1 45.5t1 47t2.5 46.5t5.5 45q-26 7 -54 10t-59 3q-65 0 -120 -23.5t-98.5 -64t-77 -94.5t-56 -116t-34 -129t-11.5 -130q0 -44 8 -86t33 -74.5t69.5 -52.5t117.5 -20q62 0 126.5 14.5t120.5 38.5l14 -127q-60 -24 -138 -41t-160 -17 q-101 0 -168.5 25t-108.5 69.5t-58.5 104.5t-17.5 131q0 147 40.5 277.5t115.5 227.5t181.5 153.5t238.5 56.5q63 0 122 -9.5t110 -26.5zM628 1177l-63 84l293 254l81 -106z" />
<glyph unicode="&#x10c;" horiz-adv-x="1165" d="M1148 1043h-103q0 49 1.5 96.5t9.5 95.5q-52 15 -100.5 20.5t-98.5 5.5q-99 0 -180.5 -31.5t-145.5 -87t-110.5 -130t-77 -161t-45.5 -181t-15 -188.5q0 -79 17.5 -145t59 -113.5t110.5 -73.5t172 -26q36 0 81 6t91.5 16t90.5 24.5t79 30.5l11 -139q-89 -36 -190.5 -56.5 t-199.5 -20.5q-96 0 -170 17.5t-129 49.5t-91.5 75.5t-59.5 96t-33 111.5t-10 122q0 123 23 240t67 221.5t110 192t153.5 151t195.5 99t236 35.5q91 0 167.5 -10.5t146.5 -29.5zM891 1489l-288 167l54 94l246 -132l286 132l41 -89z" />
<glyph unicode="&#x10d;" horiz-adv-x="860" d="M824 710l-90 2q-1 22 -1 45.5t1 47t2.5 46.5t5.5 45q-26 7 -54 10t-59 3q-65 0 -120 -23.5t-98.5 -64t-77 -94.5t-56 -116t-34 -129t-11.5 -130q0 -44 8 -86t33 -74.5t69.5 -52.5t117.5 -20q62 0 126.5 14.5t120.5 38.5l14 -127q-60 -24 -138 -41t-160 -17 q-101 0 -168.5 25t-108.5 69.5t-58.5 104.5t-17.5 131q0 147 40.5 277.5t115.5 227.5t181.5 153.5t238.5 56.5q63 0 122 -9.5t110 -26.5zM639 1177l-224 262l79 76l168 -176l226 176l62 -73z" />
<glyph unicode="&#x10e;" horiz-adv-x="1422" d="M1379 887q0 -113 -24 -223.5t-72.5 -210t-122.5 -183.5t-174.5 -145.5t-227.5 -96.5t-283 -35q-55 0 -101.5 1t-87 2.5t-77 2.5t-71.5 1h-175l18 87q40 11 86.5 18t93.5 10l217 1152q-45 3 -88.5 10t-80.5 18l17 87h174q39 0 86 1t97 2.5t100.5 2.5t99.5 1 q165 0 278.5 -37.5t184 -105t102 -159.5t31.5 -200zM1216 868q0 85 -22 156.5t-74 124.5t-140 82.5t-220 29.5q-31 0 -62.5 -0.5t-62 -1.5t-57.5 -2t-48 -2l-213 -1118q21 -3 45.5 -5.5t49 -4t47 -2.5t39.5 -1q129 0 232 30.5t182.5 83.5t137 124.5t94.5 154.5t54.5 173 t17.5 178zM834 1489l-288 167l54 94l246 -132l286 132l41 -89z" />
<glyph unicode="&#x10f;" horiz-adv-x="1291" d="M834 122q35 -6 79.5 -11.5t87.5 -8.5l-16 -88q-35 -4 -75 -7.5t-82 -5.5t-84.5 -2.5t-80.5 1.5q11 69 42 180t81 270l-4 1q-17 -39 -42 -89.5t-58 -102.5t-73.5 -102.5t-90 -89.5t-106.5 -63t-123 -24q-108 0 -165.5 73.5t-57.5 233.5q0 92 16 183.5t49 174t85 153.5 t122 123t160.5 81.5t201.5 29.5q42 0 79.5 -3.5t76.5 -8.5l66 353q-34 6 -79.5 11.5t-90.5 8.5l17 88q34 4 75 7.5t84.5 5.5t86.5 2.5t82 -1.5zM832 891q-34 8 -72 14t-86 6q-83 0 -148 -25.5t-115.5 -69.5t-86.5 -103t-58.5 -125t-33.5 -136.5t-11 -137.5q0 -55 8.5 -93.5 t23 -62.5t35.5 -35t47 -11q53 0 105.5 33t102 88.5t93.5 127.5t79.5 149t61.5 153t39 140zM1411 1509l-160 -344l-102 33l135 350z" />
<glyph unicode="&#x110;" horiz-adv-x="1444" d="M1399 887q0 -113 -23.5 -223.5t-72 -210t-122.5 -183.5t-174.5 -145.5t-228 -96.5t-283.5 -35q-55 0 -101.5 1t-87 2.5t-77.5 2.5t-72 1h-172l16 87q42 11 87 18t91 10l103 538h-193l22 120h194l94 494q-45 3 -88 10t-80 18l16 87h171q33 0 79.5 1t98.5 2.5t105.5 2.5 t101.5 1q164 0 278 -37.5t184.5 -105t102 -159.5t31.5 -200zM1236 868q0 85 -21.5 156.5t-74.5 124.5t-140.5 82.5t-219.5 29.5q-31 0 -63 -0.5t-62 -1.5t-57 -2t-48 -2l-92 -482h309l-25 -120h-307l-97 -516q21 -3 45 -5.5t48.5 -4t47 -2.5t39.5 -1q129 0 232.5 30.5 t183 83.5t137 124.5t94 154.5t54 173t17.5 178z" />
<glyph unicode="&#x111;" horiz-adv-x="1120" d="M1037 1180l-201 -1058q34 -6 79.5 -11.5t89.5 -8.5l-16 -88q-35 -4 -75.5 -7.5t-84 -5.5t-86 -2.5t-81.5 1.5q11 70 42.5 180.5t81.5 269.5l-4 1q-17 -39 -42 -89.5t-58 -102.5t-73.5 -102.5t-90 -89.5t-106.5 -63t-123 -24q-108 0 -165.5 73.5t-57.5 233.5 q0 92 16 183.5t49 174t85 153.5t122 123t160.5 81.5t201.5 29.5q42 0 78.5 -3.5t76.5 -8.5l32 160h-283l19 104h282l19 99q-34 6 -80.5 11.5t-89.5 8.5l14 78q34 4 75.5 7.5t85 5.5t86.5 2.5t82 -1.5l-42 -211h174l-20 -104h-172zM832 891q-34 8 -72 14t-86 6 q-83 0 -148 -25.5t-115.5 -69.5t-86.5 -103t-58.5 -125t-33.5 -136.5t-11 -137.5q0 -55 8.5 -93.5t23 -62.5t35.5 -35t47 -11q53 0 105.5 33t102 88.5t93.5 127.5t79.5 149t61.5 153t39 140z" />
<glyph unicode="&#x112;" horiz-adv-x="1060" d="M1023 1076h-103q0 50 1 98t5 84h-398l-92 -486h317q13 40 27 78t34 72h87l-79 -419h-90q-5 34 -5.5 72t2.5 79h-315l-100 -528h398q14 41 31.5 90.5t35.5 98.5h103l-59 -315h-862l18 87q41 11 87.5 18t92.5 10l218 1152q-45 3 -89 10t-81 18l18 87h857zM981 1538h-541 l23 111h540z" />
<glyph unicode="&#x113;" horiz-adv-x="961" d="M910 810q0 -78 -41 -139.5t-124.5 -106t-209.5 -71t-295 -33.5q-2 -12 -4 -28.5t-4 -34.5t-3 -36t-1 -34q0 -65 12 -107.5t40 -66.5t72.5 -34t108.5 -10q73 0 145.5 16t136.5 42l8 -122q-74 -30 -159.5 -46.5t-185.5 -16.5q-84 0 -147.5 18t-105 57t-62.5 100.5 t-21 148.5q0 96 17 187.5t49.5 172.5t80 149t109 117t136 76t161.5 27q76 0 130 -18t89 -48.5t51.5 -71.5t16.5 -87zM752 792q0 30 -10.5 53.5t-30.5 40t-47 24.5t-61 8q-64 0 -118.5 -26.5t-97.5 -72t-74.5 -107t-50.5 -131.5q130 6 223 21.5t152 42.5t87 63.5t28 83.5z M887 1276h-491l22 117h492z" />
<glyph unicode="&#x116;" horiz-adv-x="1060" d="M1023 1076h-103q0 50 1 98t5 84h-398l-92 -486h317q13 40 27 78t34 72h87l-79 -419h-90q-5 34 -5.5 72t2.5 79h-315l-100 -528h398q14 41 31.5 90.5t35.5 98.5h103l-59 -315h-862l18 87q41 11 87.5 18t92.5 10l218 1152q-45 3 -89 10t-81 18l18 87h857zM835 1602 q0 -22 -8.5 -41.5t-22.5 -33.5t-32.5 -22t-39.5 -8t-38 7.5t-29.5 20.5t-20 30t-7.5 36q0 22 8.5 41.5t22.5 33.5t32.5 21.5t39.5 7.5t38 -7t29.5 -20t20 -30t7.5 -36z" />
<glyph unicode="&#x117;" horiz-adv-x="961" d="M910 810q0 -78 -41 -139.5t-124.5 -106t-209.5 -71t-295 -33.5q-2 -12 -4 -28.5t-4 -34.5t-3 -36t-1 -34q0 -65 12 -107.5t40 -66.5t72.5 -34t108.5 -10q73 0 145.5 16t136.5 42l8 -122q-74 -30 -159.5 -46.5t-185.5 -16.5q-84 0 -147.5 18t-105 57t-62.5 100.5 t-21 148.5q0 96 17 187.5t49.5 172.5t80 149t109 117t136 76t161.5 27q76 0 130 -18t89 -48.5t51.5 -71.5t16.5 -87zM752 792q0 30 -10.5 53.5t-30.5 40t-47 24.5t-61 8q-64 0 -118.5 -26.5t-97.5 -72t-74.5 -107t-50.5 -131.5q130 6 223 21.5t152 42.5t87 63.5t28 83.5z M759 1351q0 -23 -9 -43.5t-23.5 -35.5t-34 -23t-41.5 -8t-40.5 7.5t-31.5 21t-20.5 31.5t-7.5 38q0 24 8.5 44.5t23.5 35t34.5 23t41.5 8.5t40 -8t31.5 -21.5t21 -31.5t7.5 -38z" />
<glyph unicode="&#x118;" horiz-adv-x="1060" d="M823 3q-56 -33 -95.5 -67t-65 -66.5t-37 -61.5t-11.5 -52q0 -22 13 -37t44 -15q26 0 54 14t54 45l66 -67q-43 -59 -102.5 -89.5t-127.5 -30.5q-40 0 -70 10t-49.5 28.5t-29.5 44.5t-10 56q0 34 14 72.5t39.5 76t63 73t85.5 63.5h-697l18 87q41 11 87.5 18t92.5 10 l218 1152q-45 3 -89 10t-81 18l18 87h857l-59 -306h-103q0 50 1 98t5 84h-398l-92 -486h317q13 40 27 78t34 72h87l-79 -419h-90q-5 34 -5.5 72t2.5 79h-315l-100 -528h398q14 41 31.5 90.5t35.5 98.5h103l-59 -312v0z" />
<glyph unicode="&#x119;" horiz-adv-x="961" d="M752 792q0 30 -10.5 53.5t-30.5 40t-47 24.5t-61 8q-64 0 -118.5 -26.5t-97.5 -72t-74.5 -107t-50.5 -131.5q130 6 223 21.5t152 42.5t87 63.5t28 83.5zM751 45q-78 -27 -134.5 -66t-93 -79.5t-54.5 -79t-18 -64.5q0 -22 13 -37t44 -15q26 0 54 14t53 45l67 -67 q-44 -58 -102.5 -89t-128.5 -31q-77 0 -117.5 38t-40.5 101q0 30 11 65t33 70t55 69.5t78 64.5q-17 -1 -32.5 -1h-34.5q-81 0 -143.5 17t-104 55.5t-63.5 100t-22 150.5q0 96 17 187.5t49.5 172.5t80 149t109 117t136 76t161.5 27q76 0 130 -18t89 -48.5t51.5 -71.5 t16.5 -87q0 -78 -41 -139.5t-124.5 -106t-209.5 -71t-295 -33.5q-2 -12 -4 -28.5t-4 -34.5t-3 -36t-1 -34q0 -65 12 -107.5t40 -66.5t72.5 -34t108.5 -10q73 0 145.5 16t136.5 42z" />
<glyph unicode="&#x11a;" horiz-adv-x="1060" d="M1023 1076h-103q0 50 1 98t5 84h-398l-92 -486h317q13 40 27 78t34 72h87l-79 -419h-90q-5 34 -5.5 72t2.5 79h-315l-100 -528h398q14 41 31.5 90.5t35.5 98.5h103l-59 -315h-862l18 87q41 11 87.5 18t92.5 10l218 1152q-45 3 -89 10t-81 18l18 87h857zM715 1489 l-288 167l54 94l246 -132l286 132l41 -89z" />
<glyph unicode="&#x11b;" horiz-adv-x="961" d="M910 810q0 -78 -41 -139.5t-124.5 -106t-209.5 -71t-295 -33.5q-2 -12 -4 -28.5t-4 -34.5t-3 -36t-1 -34q0 -65 12 -107.5t40 -66.5t72.5 -34t108.5 -10q73 0 145.5 16t136.5 42l8 -122q-74 -30 -159.5 -46.5t-185.5 -16.5q-84 0 -147.5 18t-105 57t-62.5 100.5 t-21 148.5q0 96 17 187.5t49.5 172.5t80 149t109 117t136 76t161.5 27q76 0 130 -18t89 -48.5t51.5 -71.5t16.5 -87zM752 792q0 30 -10.5 53.5t-30.5 40t-47 24.5t-61 8q-64 0 -118.5 -26.5t-97.5 -72t-74.5 -107t-50.5 -131.5q130 6 223 21.5t152 42.5t87 63.5t28 83.5z M619 1177l-224 262l79 76l168 -176l226 176l62 -73z" />
<glyph unicode="&#x11e;" horiz-adv-x="1401" d="M1272 1045h-104q0 53 2.5 99.5t7.5 89.5q-58 16 -116 25t-111 9q-97 0 -185.5 -26.5t-163.5 -75t-136 -116t-104 -150t-66 -178t-23 -197.5q0 -75 22 -148t72 -130.5t130.5 -93t196.5 -35.5q84 0 154 12t137 32l79 418q-45 3 -88 10.5t-81 18.5l18 87h464l-16 -88 q-34 -10 -70 -16t-74 -11l-100 -524q-54 -19 -112 -33t-116 -23.5t-114.5 -14t-106.5 -4.5q-142 0 -247.5 39.5t-174.5 110t-103.5 167.5t-34.5 211q0 131 30.5 248t86.5 216t135 177.5t175 134t207 85t230 29.5q101 0 189.5 -13t172.5 -36zM1256 1739q-10 -47 -33 -90 t-61 -76.5t-90 -53t-118 -19.5q-65 0 -107.5 20t-66.5 53.5t-30 76.5t4 89h98q-6 -26 -1 -49.5t20 -41t40.5 -28t61.5 -10.5q34 0 63 8.5t51 25.5t37 41t21 54h111v0z" />
<glyph unicode="&#x11f;" horiz-adv-x="1095" d="M791 -106q-17 -86 -54.5 -162.5t-105.5 -134t-169.5 -90.5t-245.5 -33q-85 0 -149 10t-118 26l34 154q28 -13 61 -23t67.5 -17t70 -10.5t71.5 -3.5q82 0 147.5 17t115 56t83.5 102.5t52 156.5q12 65 23.5 117t26 106.5t34 119t48.5 154.5l-4 2q-17 -36 -41.5 -85 t-57 -100.5t-72.5 -100.5t-89.5 -88t-106.5 -63t-123 -24q-108 0 -165.5 73.5t-57.5 233.5q0 92 16 183.5t49.5 174t85 153.5t122 123t160.5 81.5t201 29.5q85 0 160.5 -8t142.5 -22zM832 891q-34 8 -72 14t-86 6q-83 0 -148 -25.5t-115.5 -69.5t-86.5 -103t-58.5 -125 t-33.5 -136.5t-11 -137.5q0 -55 8.5 -93.5t23 -62.5t35.5 -35t47 -11q53 0 105.5 33t102 88.5t93.5 127.5t79.5 149t61.5 153t39 140zM946 1469q-9 -51 -31 -98t-58.5 -83t-86.5 -57t-114 -21t-106 21.5t-64.5 57.5t-27.5 83t4 97h103q-5 -28 -1 -53.5t17.5 -44.5 t36.5 -30.5t56 -11.5q63 0 105 37t55 103h112v0z" />
<glyph unicode="&#x122;" horiz-adv-x="1401" d="M1272 1045h-104q0 53 2.5 99.5t7.5 89.5q-58 16 -116 25t-111 9q-97 0 -185.5 -26.5t-163.5 -75t-136 -116t-104 -150t-66 -178t-23 -197.5q0 -75 22 -148t72 -130.5t130.5 -93t196.5 -35.5q84 0 154 12t137 32l79 418q-45 3 -88 10.5t-81 18.5l18 87h464l-16 -88 q-34 -10 -70 -16t-74 -11l-100 -524q-54 -19 -112 -33t-116 -23.5t-114.5 -14t-106.5 -4.5q-142 0 -247.5 39.5t-174.5 110t-103.5 167.5t-34.5 211q0 131 30.5 248t86.5 216t135 177.5t175 134t207 85t230 29.5q101 0 189.5 -13t172.5 -36zM608 -102q28 0 50.5 -16.5 t32.5 -45t5 -66.5t-31.5 -81t-77.5 -89t-132 -89l-41 63q83 59 107.5 111t4.5 92q-9 22 -7 43.5t13 39t30.5 28t45.5 10.5z" />
<glyph unicode="&#x123;" horiz-adv-x="1095" d="M791 -106q-17 -86 -54.5 -162.5t-105.5 -134t-169.5 -90.5t-245.5 -33q-85 0 -149 10t-118 26l34 154q28 -13 61 -23t67.5 -17t70 -10.5t71.5 -3.5q82 0 147.5 17t115 56t83.5 102.5t52 156.5q12 65 23.5 117t26 106.5t34 119t48.5 154.5l-4 2q-17 -36 -41.5 -85 t-57 -100.5t-72.5 -100.5t-89.5 -88t-106.5 -63t-123 -24q-108 0 -165.5 73.5t-57.5 233.5q0 92 16 183.5t49.5 174t85 153.5t122 123t160.5 81.5t201 29.5q85 0 160.5 -8t142.5 -22zM832 891q-34 8 -72 14t-86 6q-83 0 -148 -25.5t-115.5 -69.5t-86.5 -103t-58.5 -125 t-33.5 -136.5t-11 -137.5q0 -55 8.5 -93.5t23 -62.5t35.5 -35t47 -11q53 0 105.5 33t102 88.5t93.5 127.5t79.5 149t61.5 153t39 140zM873 1485q-85 -57 -110 -109t-5 -92q9 -22 7.5 -44t-12.5 -39.5t-30 -28.5t-44 -11q-28 0 -50.5 16.5t-32.5 45t-5 66.5t31 81t76.5 88.5 t131.5 89.5l43 -63v0z" />
<glyph unicode="&#x12a;" horiz-adv-x="622" d="M710 1295q-41 -11 -87 -18t-92 -10l-220 -1152q45 -3 89 -10t81 -18l-16 -87h-504l16 87q42 11 89 18t92 10l219 1152q-45 3 -88 10t-80 18l16 87h502zM772 1538h-541l23 111h540z" />
<glyph unicode="&#x12b;" horiz-adv-x="574" d="M440 14q-35 -4 -76 -7.5t-84 -5.5t-86 -2.5t-80 1.5l174 898q-35 6 -79 10.5t-87 7.5l16 88q35 4 76 7.5t83.5 5.5t84.5 2.5t79 -1.5l-173 -896q18 -3 38.5 -6t42.5 -5.5t44.5 -5t42.5 -3.5zM676 1276h-491l22 117h492z" />
<glyph unicode="&#x12e;" horiz-adv-x="622" d="M283 0q-55 -32 -93 -65t-63 -65.5t-36.5 -61.5t-11.5 -52q0 -22 13 -37t44 -15q26 0 54 14t53 45l67 -67q-43 -59 -103 -89.5t-127 -30.5q-40 0 -70 10t-49.5 28.5t-29.5 44.5t-10 56q0 44 19 87t48.5 80.5t64.5 68t68 49.5h-160l16 87q42 11 89 18t92 10l219 1152 q-45 3 -88 10t-80 18l16 87h502l-17 -87q-41 -11 -87 -18t-92 -10l-220 -1152q45 -3 89 -10t81 -18l-16 -87h-182z" />
<glyph unicode="&#x12f;" horiz-adv-x="574" d="M550 1351q0 -23 -9 -43.5t-23.5 -35.5t-34.5 -23t-41 -8q-22 0 -40 7.5t-31.5 21t-21 31t-7.5 37.5q0 24 9 44.5t24.5 35.5t35 23.5t41.5 8.5t40 -8t31 -21.5t20 -31.5t7 -38zM440 14q-18 -2 -39 -4t-44 -3.5l-46 -3t-44 -3.5q-56 -32 -95 -66t-62.5 -66t-34 -60.5 t-10.5 -51.5q0 -22 13 -37t44 -15q24 0 53.5 13.5t54.5 43.5l64 -64q-45 -58 -104 -89.5t-125 -31.5q-39 0 -69.5 9.5t-50 28t-29.5 44.5t-10 57q0 34 13.5 72.5t40 77t65.5 75t91 67.5l172 891q-35 6 -79 10.5t-87 7.5l16 88q35 4 76 7.5t83.5 5.5t84.5 2.5t79 -1.5 l-173 -896q35 -6 79.5 -11.5t88.5 -8.5z" />
<glyph unicode="&#x130;" horiz-adv-x="622" d="M710 1295q-41 -11 -87 -18t-92 -10l-220 -1152q45 -3 89 -10t81 -18l-16 -87h-504l16 87q42 11 89 18t92 10l219 1152q-45 3 -88 10t-80 18l16 87h502zM616 1602q0 -22 -8.5 -41.5t-22.5 -33.5t-32.5 -22t-39.5 -8t-38 7.5t-29.5 20.5t-20 30t-7.5 36q0 22 8.5 41.5 t22.5 33.5t32.5 21.5t39.5 7.5t38 -7t29.5 -20t20 -30t7.5 -36z" />
<glyph unicode="&#x131;" horiz-adv-x="574" d="M440 14q-35 -4 -76 -7.5t-84 -5.5t-86 -2.5t-80 1.5l174 898q-35 6 -79 10.5t-87 7.5l16 88q35 4 76 7.5t83.5 5.5t84.5 2.5t79 -1.5l-173 -896q18 -3 38.5 -6t42.5 -5.5t44.5 -5t42.5 -3.5z" />
<glyph unicode="&#x136;" horiz-adv-x="1313" d="M507 -102q21 0 39.5 -9.5t30.5 -26.5t17.5 -40.5t1 -51.5t-20 -59.5t-44.5 -65t-72.5 -67.5t-104.5 -67l-41 64q42 29 68.5 56.5t40 53t14 49t-8.5 43.5q-10 22 -8 43.5t13 39t30.5 28t44.5 10.5zM1384 1294q-70 -16 -144 -26l-637 -565l431 -589q19 -1 39 -3.5t39.5 -6 t38.5 -8t34 -8.5l-17 -88h-486l16 88q34 9 71 15.5t72 9.5l-418 589l-112 -587q33 -3 75 -10t77 -17l-17 -88h-485l16 87q42 11 89 18t92 10l219 1152q-45 3 -88 10t-80 18l16 87h484l-17 -88q-39 -10 -82.5 -17t-78.5 -10l-106 -551l615 552q-37 4 -75.5 10t-69.5 16l17 88 h490z" />
<glyph unicode="&#x137;" horiz-adv-x="1045" d="M392 -102q21 0 39.5 -9.5t30.5 -26.5t17.5 -40.5t1 -51.5t-20 -59.5t-44.5 -65t-72.5 -67.5t-104.5 -67l-41 64q42 29 68.5 56.5t40 53t14 49t-8.5 43.5q-10 22 -8 43.5t13 39t30.5 28t44.5 10.5zM979 828q0 -65 -24.5 -121t-78 -102t-139.5 -82t-208 -61l198 -345 q44 -4 85.5 -11t79.5 -16l-17 -90h-270l-273 502l-95 -502h-151l261 1373q-34 6 -80 11.5t-88 8.5l16 88q34 4 75 7.5t84.5 5.5t86 2.5t81.5 -1.5l-58 -300q-10 -53 -22 -105t-26 -105t-31.5 -109.5t-38.5 -118.5l4 -1q28 62 66.5 113.5t85.5 88.5t105 57t128 20 q60 0 105.5 -15.5t76.5 -43t46.5 -65.5t15.5 -83zM818 795q0 23 -7.5 44t-23 37t-38.5 25.5t-54 9.5q-45 0 -85 -18.5t-75 -48t-64 -68t-52.5 -80t-40.5 -81.5t-26 -74q128 20 217 44.5t144.5 54.5t80 68.5t24.5 86.5z" />
<glyph unicode="&#x139;" horiz-adv-x="933" d="M810 0h-849l16 87q42 11 89 18t92 10l219 1152q-45 3 -88 10t-80 18l16 87h502l-17 -87q-41 -11 -87 -18t-92 -10l-217 -1139h386q6 20 14.5 45t18 51t19.5 53t20 52h102zM545 1492l-28 92l371 150l36 -124z" />
<glyph unicode="&#x13a;" horiz-adv-x="545" d="M259 122q35 -6 78.5 -11.5t87.5 -8.5l-17 -88q-35 -4 -75 -7.5t-82 -5.5t-84.5 -2.5t-80.5 1.5l262 1373q-35 6 -80.5 11.5t-88.5 8.5l16 88q34 4 75 7.5t83.5 5.5t85.5 2.5t81 -1.5zM397 1571l-28 92l371 150l36 -124z" />
<glyph unicode="&#x13b;" horiz-adv-x="933" d="M810 0h-849l16 87q42 11 89 18t92 10l219 1152q-45 3 -88 10t-80 18l16 87h502l-17 -87q-41 -11 -87 -18t-92 -10l-217 -1139h386q6 20 14.5 45t18 51t19.5 53t20 52h102zM372 -102q28 0 50.5 -16.5t32.5 -45t5 -66.5t-31.5 -81t-77.5 -89t-132 -89l-41 63 q83 59 107.5 111t4.5 92q-9 22 -7 43.5t13 39t30.5 28t45.5 10.5z" />
<glyph unicode="&#x13c;" horiz-adv-x="545" d="M259 122q35 -6 78.5 -11.5t87.5 -8.5l-17 -88q-35 -4 -75 -7.5t-82 -5.5t-84.5 -2.5t-80.5 1.5l262 1373q-35 6 -80.5 11.5t-88.5 8.5l16 88q34 4 75 7.5t83.5 5.5t85.5 2.5t81 -1.5zM143 -102q28 0 50.5 -16.5t32.5 -45t5 -66.5t-31.5 -81t-77.5 -89t-132 -89l-41 63 q83 59 107.5 111t4.5 92q-9 22 -7 43.5t13 39t30.5 28t45.5 10.5z" />
<glyph unicode="&#x13d;" horiz-adv-x="955" d="M810 0h-849l16 87q42 11 89 18t92 10l219 1152q-45 3 -88 10t-80 18l16 87h502l-17 -87q-41 -11 -87 -18t-92 -10l-217 -1139h386q6 20 14.5 45t18 51t19.5 53t20 52h102zM1151 1542l-250 -285l-84 59l226 299z" />
<glyph unicode="&#x13e;" horiz-adv-x="716" d="M259 122q35 -6 78.5 -11.5t87.5 -8.5l-17 -88q-35 -4 -75 -7.5t-82 -5.5t-84.5 -2.5t-80.5 1.5l262 1373q-35 6 -80.5 11.5t-88.5 8.5l16 88q34 4 75 7.5t83.5 5.5t85.5 2.5t81 -1.5zM835 1509l-160 -344l-102 33l135 350z" />
<glyph unicode="&#x141;" horiz-adv-x="964" d="M840 0h-842l18 87q41 11 87 18t93 10l105 546l-200 -70l-22 114l247 88l89 474q-45 3 -87.5 10t-80.5 18l16 87h503l-17 -87q-40 -11 -86.5 -18t-92.5 -10l-80 -422l235 82l22 -117l-283 -97l-111 -585h379q13 41 31 92t37 102h102z" />
<glyph unicode="&#x142;" horiz-adv-x="586" d="M650 928l-231 -79l-137 -727q34 -6 79 -11.5t89 -8.5l-16 -88q-35 -4 -75.5 -7.5t-83.5 -5.5t-86.5 -2.5t-81.5 1.5l152 799l-199 -71l-24 113l248 87l85 445q-34 6 -80.5 11.5t-89.5 8.5l16 88q34 4 75.5 7.5t84.5 5.5t85.5 2.5t81.5 -1.5l-98 -516l182 65z" />
<glyph unicode="&#x143;" horiz-adv-x="1488" d="M1577 1294q-34 -9 -72 -16t-77 -11l-241 -1267h-191l-387 920q-30 75 -58 151t-48 147q-9 -65 -20 -137t-24 -146.5t-26 -148.5t-26 -142l-95 -529q42 -3 83 -10t76 -17l-16 -88h-492l16 87q42 11 88.5 18t91.5 10l218 1152q-45 3 -88 10t-81 18l17 87h368l384 -918 q29 -70 56.5 -144t51.5 -148q9 58 20.5 125t23.5 137t24.5 140.5t24.5 136.5l99 556q-42 3 -81.5 10t-75.5 17l17 88h456zM856 1492l-28 92l371 150l36 -124z" />
<glyph unicode="&#x144;" horiz-adv-x="1213" d="M1080 14q-34 -5 -74 -8t-82.5 -5t-85 -2.5t-80.5 1.5l126 657q25 130 0.5 189.5t-101.5 59.5q-51 0 -103.5 -33t-101 -87.5t-92.5 -125.5t-79.5 -146.5t-61 -149.5t-36.5 -136l-44 -228h-150l171 896q-34 6 -77 11.5t-87 8.5l16 88q34 5 74.5 8t83 5t84.5 2.5t80 -1.5 q-5 -26 -13.5 -63.5t-22.5 -90t-34.5 -121.5t-49.5 -159l4 -2q37 86 86 168t111 146t134.5 102.5t154.5 38.5q69 0 117 -23.5t74 -68.5t30.5 -110t-10.5 -146l-110 -567q35 -6 79 -11.5t86 -8.5zM708 1177l-63 84l293 254l81 -106z" />
<glyph unicode="&#x145;" horiz-adv-x="1488" d="M1577 1294q-34 -9 -72 -16t-77 -11l-241 -1267h-191l-387 920q-30 75 -58 151t-48 147q-9 -65 -20 -137t-24 -146.5t-26 -148.5t-26 -142l-95 -529q42 -3 83 -10t76 -17l-16 -88h-492l16 87q42 11 88.5 18t91.5 10l218 1152q-45 3 -88 10t-81 18l17 87h368l384 -918 q29 -70 56.5 -144t51.5 -148q9 58 20.5 125t23.5 137t24.5 140.5t24.5 136.5l99 556q-42 3 -81.5 10t-75.5 17l17 88h456zM612 -102q28 0 50.5 -16.5t32.5 -45t5 -66.5t-31.5 -81t-77.5 -89t-132 -89l-41 63q83 59 107.5 111t4.5 92q-9 22 -7 43.5t13 39t30.5 28t45.5 10.5z " />
<glyph unicode="&#x146;" horiz-adv-x="1213" d="M1080 14q-34 -5 -74 -8t-82.5 -5t-85 -2.5t-80.5 1.5l126 657q25 130 0.5 189.5t-101.5 59.5q-51 0 -103.5 -33t-101 -87.5t-92.5 -125.5t-79.5 -146.5t-61 -149.5t-36.5 -136l-44 -228h-150l171 896q-34 6 -77 11.5t-87 8.5l16 88q34 5 74.5 8t83 5t84.5 2.5t80 -1.5 q-5 -26 -13.5 -63.5t-22.5 -90t-34.5 -121.5t-49.5 -159l4 -2q37 86 86 168t111 146t134.5 102.5t154.5 38.5q69 0 117 -23.5t74 -68.5t30.5 -110t-10.5 -146l-110 -567q35 -6 79 -11.5t86 -8.5zM502 -102q28 0 50.5 -16.5t32.5 -45t5 -66.5t-31.5 -81t-77.5 -89t-132 -89 l-41 63q83 59 107.5 111t4.5 92q-9 22 -7 43.5t13 39t30.5 28t45.5 10.5z" />
<glyph unicode="&#x147;" horiz-adv-x="1488" d="M1577 1294q-34 -9 -72 -16t-77 -11l-241 -1267h-191l-387 920q-30 75 -58 151t-48 147q-9 -65 -20 -137t-24 -146.5t-26 -148.5t-26 -142l-95 -529q42 -3 83 -10t76 -17l-16 -88h-492l16 87q42 11 88.5 18t91.5 10l218 1152q-45 3 -88 10t-81 18l17 87h368l384 -918 q29 -70 56.5 -144t51.5 -148q9 58 20.5 125t23.5 137t24.5 140.5t24.5 136.5l99 556q-42 3 -81.5 10t-75.5 17l17 88h456zM944 1489l-288 167l54 94l246 -132l286 132l41 -89z" />
<glyph unicode="&#x148;" horiz-adv-x="1213" d="M1080 14q-34 -5 -74 -8t-82.5 -5t-85 -2.5t-80.5 1.5l126 657q25 130 0.5 189.5t-101.5 59.5q-51 0 -103.5 -33t-101 -87.5t-92.5 -125.5t-79.5 -146.5t-61 -149.5t-36.5 -136l-44 -228h-150l171 896q-34 6 -77 11.5t-87 8.5l16 88q34 5 74.5 8t83 5t84.5 2.5t80 -1.5 q-5 -26 -13.5 -63.5t-22.5 -90t-34.5 -121.5t-49.5 -159l4 -2q37 86 86 168t111 146t134.5 102.5t154.5 38.5q69 0 117 -23.5t74 -68.5t30.5 -110t-10.5 -146l-110 -567q35 -6 79 -11.5t86 -8.5zM737 1177l-224 262l79 76l168 -176l226 176l62 -73z" />
<glyph unicode="&#x14c;" horiz-adv-x="1415" d="M1381 900q0 -131 -28 -250t-79 -221.5t-123 -185t-160 -140.5t-188.5 -89.5t-209.5 -31.5q-123 0 -215 34t-152.5 98t-90.5 157t-30 212q0 125 27 242t77 219t120.5 186.5t158 144.5t189 93t213.5 33q119 0 210.5 -33.5t153.5 -97.5t94.5 -157.5t32.5 -212.5zM1213 883 q0 88 -21.5 159t-64.5 120.5t-108.5 76.5t-154.5 27q-86 0 -163 -28t-143 -77.5t-119 -120t-90 -155t-57 -181t-20 -199.5q0 -89 22 -160.5t65 -121.5t106.5 -77t146.5 -27q82 0 159 27t143 75.5t121.5 117.5t94.5 154t61 183.5t22 206.5zM1168 1538h-541l23 111h540z" />
<glyph unicode="&#x14d;" horiz-adv-x="1091" d="M1019 671q0 -158 -48.5 -285.5t-130 -217t-187 -138t-218.5 -48.5q-91 0 -159.5 23.5t-113.5 69t-68 113t-23 155.5q0 100 19.5 190t56 166.5t88.5 139t116 106t139 67t160 23.5q97 0 166.5 -26.5t114.5 -74.5t66.5 -115t21.5 -148zM860 656q0 122 -56.5 187t-176.5 65 q-90 0 -163.5 -45t-125.5 -120t-80.5 -171.5t-28.5 -200.5q0 -63 13 -111t41.5 -81t73 -50t106.5 -17q78 0 149.5 39.5t126.5 111t88 171.5t33 222zM966 1276h-491l22 117h492z" />
<glyph unicode="&#x150;" horiz-adv-x="1415" d="M1381 900q0 -131 -28 -250t-79 -221.5t-123 -185t-160 -140.5t-188.5 -89.5t-209.5 -31.5q-123 0 -215 34t-152.5 98t-90.5 157t-30 212q0 125 27 242t77 219t120.5 186.5t158 144.5t189 93t213.5 33q119 0 210.5 -33.5t153.5 -97.5t94.5 -157.5t32.5 -212.5zM1213 883 q0 88 -21.5 159t-64.5 120.5t-108.5 76.5t-154.5 27q-86 0 -163 -28t-143 -77.5t-119 -120t-90 -155t-57 -181t-20 -199.5q0 -89 22 -160.5t65 -121.5t106.5 -77t146.5 -27q82 0 159 27t143 75.5t121.5 117.5t94.5 154t61 183.5t22 206.5zM1094 1491l-43 84l310 182l55 -106 zM722 1493l-50 82l300 203l64 -104z" />
<glyph unicode="&#x151;" horiz-adv-x="1091" d="M1019 671q0 -158 -48.5 -285.5t-130 -217t-187 -138t-218.5 -48.5q-91 0 -159.5 23.5t-113.5 69t-68 113t-23 155.5q0 100 19.5 190t56 166.5t88.5 139t116 106t139 67t160 23.5q97 0 166.5 -26.5t114.5 -74.5t66.5 -115t21.5 -148zM860 656q0 122 -56.5 187t-176.5 65 q-90 0 -163.5 -45t-125.5 -120t-80.5 -171.5t-28.5 -200.5q0 -63 13 -111t41.5 -81t73 -50t106.5 -17q78 0 149.5 39.5t126.5 111t88 171.5t33 222zM839 1177l-73 70l288 264l85 -92zM503 1177l-74 70l270 275l91 -87z" />
<glyph unicode="&#x152;" horiz-adv-x="1733" d="M1692 1076h-103q0 50 0.5 98t5.5 84h-396l-93 -486h318q13 40 27.5 78t34.5 72h87l-80 -419h-89q-5 34 -5.5 72t2.5 79h-316l-101 -528h404q13 41 31.5 90.5t37.5 98.5h102l-61 -315h-683q-58 -9 -113 -13.5t-111 -4.5q-123 0 -214.5 34t-152 98t-91 157t-30.5 212 q0 125 27 242t77 219t121 186.5t158 144.5t188.5 93t213.5 33q57 0 106.5 -5t93.5 -14h663zM1042 1237q-44 14 -87 21.5t-93 7.5q-86 0 -162.5 -28t-142.5 -77.5t-119 -120t-90.5 -155t-57.5 -181t-20 -199.5q0 -88 22 -160t65 -122t106.5 -77t147.5 -27q62 0 117.5 7 t106.5 20z" />
<glyph unicode="&#x153;" horiz-adv-x="1714" d="M1664 810q0 -78 -41 -139.5t-124 -106t-209 -71t-294 -33.5q-2 -12 -4 -28.5t-4 -34.5t-3 -36t-1 -34q0 -65 12 -107.5t39.5 -66.5t72 -34t108.5 -10q73 0 145.5 16t134.5 42l9 -122q-74 -30 -159 -46.5t-184 -16.5q-67 0 -120 12t-92 37t-65 65t-36 97 q-38 -49 -85 -88.5t-100 -66.5t-111.5 -41.5t-117.5 -14.5q-91 0 -159.5 23.5t-113.5 69t-68 113t-23 155.5q0 100 19.5 190t56.5 166.5t89.5 139t116.5 106t140 67t160 23.5q67 0 121.5 -14.5t96.5 -42t71 -66t45 -86.5q34 47 75 85.5t90 66t105 42.5t121 15 q75 0 129.5 -18t89 -48.5t51 -71.5t16.5 -87zM1508 792q0 30 -11 53.5t-30.5 40t-47 24.5t-60.5 8q-65 0 -119 -26.5t-97 -72t-74.5 -107t-50.5 -131.5q129 6 222 21.5t152.5 42t87.5 63t28 84.5zM863 656q0 122 -56.5 187t-176.5 65q-90 0 -163.5 -45t-126.5 -120 t-82 -171.5t-29 -200.5q0 -63 13 -111t41.5 -81t73 -50t106.5 -17q78 0 150.5 39.5t128 111t88.5 171.5t33 222z" />
<glyph unicode="&#x154;" horiz-adv-x="1163" d="M1108 1090q0 -100 -41 -179.5t-110 -136.5t-160 -89.5t-191 -36.5q18 -32 34 -64t33 -65l206 -404q40 -3 84 -10.5t77 -16.5l-18 -88h-273l-303 639h-36l-99 -524q40 -3 81 -10t76 -17l-17 -88h-488l16 87q42 11 88 18t91 10l219 1152q-45 3 -88 10t-80 18l16 87h155 q34 0 70.5 1t77.5 3t86 3t95 1q104 0 179 -20.5t124 -59t72.5 -94t23.5 -126.5zM946 1073q0 97 -60.5 144.5t-199.5 47.5q-50 0 -87.5 -1.5t-68.5 -3.5l-96 -500q9 -1 19 -1.5t23 -1t31.5 -1t45.5 -0.5q82 0 153.5 20.5t125 60t84 99t30.5 137.5zM650 1492l-28 92l371 150 l36 -124z" />
<glyph unicode="&#x155;" horiz-adv-x="754" d="M787 884q-45 12 -88 -0.5t-82.5 -43.5t-75 -76.5t-67 -99t-58.5 -112t-48 -116t-35.5 -109.5t-22.5 -93l-42 -234h-150l173 896q-33 6 -77.5 11.5t-88.5 8.5l16 88q34 5 74.5 8t83 5t84.5 2.5t79 -1.5q-7 -35 -16 -74.5t-23 -88t-32.5 -108t-42.5 -132.5l4 -2 q44 98 91 181t102 141t121.5 85.5t150.5 12.5zM552 1177l-63 84l293 254l81 -106z" />
<glyph unicode="&#x156;" horiz-adv-x="1163" d="M1108 1090q0 -100 -41 -179.5t-110 -136.5t-160 -89.5t-191 -36.5q18 -32 34 -64t33 -65l206 -404q40 -3 84 -10.5t77 -16.5l-18 -88h-273l-303 639h-36l-99 -524q40 -3 81 -10t76 -17l-17 -88h-488l16 87q42 11 88 18t91 10l219 1152q-45 3 -88 10t-80 18l16 87h155 q34 0 70.5 1t77.5 3t86 3t95 1q104 0 179 -20.5t124 -59t72.5 -94t23.5 -126.5zM946 1073q0 97 -60.5 144.5t-199.5 47.5q-50 0 -87.5 -1.5t-68.5 -3.5l-96 -500q9 -1 19 -1.5t23 -1t31.5 -1t45.5 -0.5q82 0 153.5 20.5t125 60t84 99t30.5 137.5zM450 -102q28 0 50.5 -16.5 t32.5 -45t5 -66.5t-31.5 -81t-77.5 -89t-132 -89l-41 63q83 59 107.5 111t4.5 92q-9 22 -7 43.5t13 39t30.5 28t45.5 10.5z" />
<glyph unicode="&#x157;" horiz-adv-x="754" d="M787 884q-45 12 -88 -0.5t-82.5 -43.5t-75 -76.5t-67 -99t-58.5 -112t-48 -116t-35.5 -109.5t-22.5 -93l-42 -234h-150l173 896q-33 6 -77.5 11.5t-88.5 8.5l16 88q34 5 74.5 8t83 5t84.5 2.5t79 -1.5q-7 -35 -16 -74.5t-23 -88t-32.5 -108t-42.5 -132.5l4 -2 q44 98 91 181t102 141t121.5 85.5t150.5 12.5zM178 -102q28 0 50.5 -16.5t32.5 -45t5 -66.5t-31.5 -81t-77.5 -89t-132 -89l-41 63q83 59 107.5 111t4.5 92q-9 22 -7 43.5t13 39t30.5 28t45.5 10.5z" />
<glyph unicode="&#x158;" horiz-adv-x="1163" d="M1108 1090q0 -100 -41 -179.5t-110 -136.5t-160 -89.5t-191 -36.5q18 -32 34 -64t33 -65l206 -404q40 -3 84 -10.5t77 -16.5l-18 -88h-273l-303 639h-36l-99 -524q40 -3 81 -10t76 -17l-17 -88h-488l16 87q42 11 88 18t91 10l219 1152q-45 3 -88 10t-80 18l16 87h155 q34 0 70.5 1t77.5 3t86 3t95 1q104 0 179 -20.5t124 -59t72.5 -94t23.5 -126.5zM946 1073q0 97 -60.5 144.5t-199.5 47.5q-50 0 -87.5 -1.5t-68.5 -3.5l-96 -500q9 -1 19 -1.5t23 -1t31.5 -1t45.5 -0.5q82 0 153.5 20.5t125 60t84 99t30.5 137.5zM735 1489l-288 167l54 94 l246 -132l286 132l41 -89z" />
<glyph unicode="&#x159;" horiz-adv-x="754" d="M787 884q-45 12 -88 -0.5t-82.5 -43.5t-75 -76.5t-67 -99t-58.5 -112t-48 -116t-35.5 -109.5t-22.5 -93l-42 -234h-150l173 896q-33 6 -77.5 11.5t-88.5 8.5l16 88q34 5 74.5 8t83 5t84.5 2.5t79 -1.5q-7 -35 -16 -74.5t-23 -88t-32.5 -108t-42.5 -132.5l4 -2 q44 98 91 181t102 141t121.5 85.5t150.5 12.5zM530 1177l-224 262l79 76l168 -176l226 176l62 -73z" />
<glyph unicode="&#x15a;" horiz-adv-x="938" d="M867 1073h-101q-1 50 1.5 101.5t7.5 91.5q-18 4 -47.5 6.5t-52.5 2.5q-78 0 -136 -22t-96.5 -57.5t-57.5 -80.5t-19 -90q0 -50 19 -88.5t50 -71.5t71 -60.5t81.5 -56.5t81.5 -59.5t71 -69t50 -85.5t19 -108q0 -95 -39.5 -176t-111 -140.5t-170.5 -93.5t-216 -34 q-28 0 -58.5 1.5t-61.5 5t-61 9t-55 13.5l59 317h105q-2 -54 -4 -105.5t-5 -92.5q23 -7 51.5 -10.5t52.5 -3.5q83 0 148.5 21.5t110.5 59.5t68.5 89.5t23.5 112.5q0 48 -19 85.5t-49.5 68.5t-70 58t-80.5 55t-80.5 59t-70.5 69.5t-50 87t-19 111.5q0 82 33 156t97 130 t156.5 89t212.5 33q25 0 52 -1t55 -3.5t56.5 -6.5t55.5 -10zM601 1492l-28 92l371 150l36 -124z" />
<glyph unicode="&#x15b;" horiz-adv-x="808" d="M689 735h-89q0 46 2.5 91t6.5 88q-19 2 -41 4t-44 2q-53 0 -94 -12.5t-69 -35t-42 -52.5t-14 -66q0 -44 26 -78t65.5 -62.5t85.5 -56.5t85.5 -62.5t66 -78.5t26.5 -104q0 -66 -30 -125t-86.5 -105t-138 -73t-183.5 -27q-27 0 -53 1t-51 3.5t-48.5 5.5t-44.5 6l55 294h90 q0 -43 -2 -90.5t-6 -87.5q8 -2 20 -3t24.5 -2.5t25 -2t24.5 -0.5q54 0 99.5 11t79 33.5t52 56t18.5 78.5q0 43 -26.5 75t-66 60.5t-85 56.5t-85 63t-65.5 81t-26 109q0 64 25.5 119.5t75.5 96.5t123.5 65t170.5 24q28 0 54.5 -1t51 -3.5t47.5 -6t45 -8.5zM510 1177l-63 84 l293 254l81 -106z" />
<glyph unicode="&#x15e;" horiz-adv-x="938" d="M867 1073h-101q-1 50 1.5 101.5t7.5 91.5q-18 4 -47.5 6.5t-52.5 2.5q-78 0 -136 -22t-96.5 -57.5t-57.5 -80.5t-19 -90q0 -50 19 -88.5t50 -71.5t71 -60.5t81.5 -56.5t81.5 -59.5t71 -69t50 -85.5t19 -108q0 -95 -39.5 -176t-111 -140.5t-170.5 -93.5t-216 -34 q-28 0 -58.5 1.5t-61.5 5t-61 9t-55 13.5l59 317h105q-2 -54 -4 -105.5t-5 -92.5q23 -7 51.5 -10.5t52.5 -3.5q83 0 148.5 21.5t110.5 59.5t68.5 89.5t23.5 112.5q0 48 -19 85.5t-49.5 68.5t-70 58t-80.5 55t-80.5 59t-70.5 69.5t-50 87t-19 111.5q0 82 33 156t97 130 t156.5 89t212.5 33q25 0 52 -1t55 -3.5t56.5 -6.5t55.5 -10zM367 -83q29 -50 36.5 -99.5t-6 -98.5t-45.5 -99t-80 -102h-138q48 52 79 96t43.5 84.5t5.5 80.5t-35 84l140 54v0z" />
<glyph unicode="&#x15f;" horiz-adv-x="808" d="M689 735h-89q0 46 2.5 91t6.5 88q-19 2 -41 4t-44 2q-53 0 -94 -12.5t-69 -35t-42 -52.5t-14 -66q0 -44 26 -78t65.5 -62.5t85.5 -56.5t85.5 -62.5t66 -78.5t26.5 -104q0 -66 -30 -125t-86.5 -105t-138 -73t-183.5 -27q-27 0 -53 1t-51 3.5t-48.5 5.5t-44.5 6l55 294h90 q0 -43 -2 -90.5t-6 -87.5q8 -2 20 -3t24.5 -2.5t25 -2t24.5 -0.5q54 0 99.5 11t79 33.5t52 56t18.5 78.5q0 43 -26.5 75t-66 60.5t-85 56.5t-85 63t-65.5 81t-26 109q0 64 25.5 119.5t75.5 96.5t123.5 65t170.5 24q28 0 54.5 -1t51 -3.5t47.5 -6t45 -8.5zM313 -83 q29 -50 36.5 -99.5t-6 -98.5t-45.5 -99t-80 -102h-138q48 52 79 96t43.5 84.5t5.5 80.5t-35 84l140 54v0z" />
<glyph unicode="&#x160;" horiz-adv-x="938" d="M867 1073h-101q-1 50 1.5 101.5t7.5 91.5q-18 4 -47.5 6.5t-52.5 2.5q-78 0 -136 -22t-96.5 -57.5t-57.5 -80.5t-19 -90q0 -50 19 -88.5t50 -71.5t71 -60.5t81.5 -56.5t81.5 -59.5t71 -69t50 -85.5t19 -108q0 -95 -39.5 -176t-111 -140.5t-170.5 -93.5t-216 -34 q-28 0 -58.5 1.5t-61.5 5t-61 9t-55 13.5l59 317h105q-2 -54 -4 -105.5t-5 -92.5q23 -7 51.5 -10.5t52.5 -3.5q83 0 148.5 21.5t110.5 59.5t68.5 89.5t23.5 112.5q0 48 -19 85.5t-49.5 68.5t-70 58t-80.5 55t-80.5 59t-70.5 69.5t-50 87t-19 111.5q0 82 33 156t97 130 t156.5 89t212.5 33q25 0 52 -1t55 -3.5t56.5 -6.5t55.5 -10zM665 1489l-288 167l54 94l246 -132l286 132l41 -89z" />
<glyph unicode="&#x161;" horiz-adv-x="808" d="M689 735h-89q0 46 2.5 91t6.5 88q-19 2 -41 4t-44 2q-53 0 -94 -12.5t-69 -35t-42 -52.5t-14 -66q0 -44 26 -78t65.5 -62.5t85.5 -56.5t85.5 -62.5t66 -78.5t26.5 -104q0 -66 -30 -125t-86.5 -105t-138 -73t-183.5 -27q-27 0 -53 1t-51 3.5t-48.5 5.5t-44.5 6l55 294h90 q0 -43 -2 -90.5t-6 -87.5q8 -2 20 -3t24.5 -2.5t25 -2t24.5 -0.5q54 0 99.5 11t79 33.5t52 56t18.5 78.5q0 43 -26.5 75t-66 60.5t-85 56.5t-85 63t-65.5 81t-26 109q0 64 25.5 119.5t75.5 96.5t123.5 65t170.5 24q28 0 54.5 -1t51 -3.5t47.5 -6t45 -8.5zM523 1177l-224 262 l79 76l168 -176l226 176l62 -73z" />
<glyph unicode="&#x162;" horiz-adv-x="1105" d="M1171 1056h-101q2 64 2.5 112t4.5 88h-306l-216 -1141q45 -3 88.5 -10t81.5 -18l-18 -87h-502l16 87q42 11 88 18t92 10l219 1141h-307q-11 -40 -28 -88t-40 -112h-103l63 326h1028zM493 -83q29 -50 36.5 -99.5t-6 -98.5t-45.5 -99t-80 -102h-138q48 52 79 96t43.5 84.5 t5.5 80.5t-35 84l140 54v0z" />
<glyph unicode="&#x163;" horiz-adv-x="743" d="M737 898h-290l-107 -562q-12 -64 -13.5 -106t10 -67t36.5 -35t66 -10q34 0 74.5 4.5t70.5 12.5l-7 -131q-43 -9 -91 -14.5t-92 -5.5q-76 0 -124.5 18.5t-73 58.5t-27 101t13.5 146l112 590h-219l25 120h218l64 338l159 37l-72 -375h292zM332 -83q29 -50 36.5 -99.5 t-6 -98.5t-45.5 -99t-80 -102h-138q48 52 79 96t43.5 84.5t5.5 80.5t-35 84l140 54v0z" />
<glyph unicode="&#x164;" horiz-adv-x="1105" d="M1171 1056h-101q2 64 2.5 112t4.5 88h-306l-216 -1141q45 -3 88.5 -10t81.5 -18l-18 -87h-502l16 87q42 11 88 18t92 10l219 1141h-307q-11 -40 -28 -88t-40 -112h-103l63 326h1028zM736 1489l-288 167l54 94l246 -132l286 132l41 -89z" />
<glyph unicode="&#x165;" horiz-adv-x="876" d="M737 898h-290l-107 -562q-12 -64 -13.5 -106t10 -67t36.5 -35t66 -10q34 0 74.5 4.5t70.5 12.5l-7 -131q-43 -9 -91 -14.5t-92 -5.5q-76 0 -124.5 18.5t-73 58.5t-27 101t13.5 146l112 590h-219l25 120h218l64 338l159 37l-72 -375h292zM979 1509l-160 -344l-102 33 l135 350z" />
<glyph unicode="&#x16a;" horiz-adv-x="1440" d="M1528 1294q-70 -17 -148 -27l-143 -761q-27 -134 -78.5 -233t-130 -163.5t-182.5 -96t-232 -31.5q-124 0 -207 26t-133.5 72.5t-71.5 111t-21 140.5q0 33 4.5 68t10.5 71l150 796q-36 4 -71.5 11t-66.5 16l17 88h463l-19 -88q-38 -10 -82.5 -17t-86.5 -10l-149 -779 q-7 -37 -11 -70.5t-4 -64.5q0 -61 16.5 -106.5t52.5 -76.5t92.5 -46.5t137.5 -15.5q93 0 167.5 21t130.5 70.5t94.5 128.5t60.5 197l141 742q-41 3 -83 10t-78 17l17 88h460zM1186 1538h-541l23 111h540z" />
<glyph unicode="&#x16b;" horiz-adv-x="1213" d="M1080 14q-34 -4 -74.5 -7.5t-83 -5.5t-85.5 -2.5t-82 1.5q5 26 13.5 63.5t22.5 90t35 121.5t50 159l-4 2q-37 -86 -86 -168t-110.5 -146t-134.5 -103t-155 -39q-70 0 -117 24t-73.5 69t-31 109.5t10.5 146.5l108 565q-34 6 -77 12.5t-86 9.5l17 87q33 5 74 8.5t83 5.5 t84 2.5t80 -1.5l-126 -657q-25 -130 -0.5 -189.5t101.5 -59.5q52 0 104 33t100.5 88t92.5 126.5t80 148.5t61.5 153t37.5 141l17 94q-33 6 -77 11.5t-86 8.5l17 88q34 5 74 8t82 5t84 2t80 -1l-172 -896q34 -6 80.5 -11.5t87.5 -8.5zM987 1276h-491l22 117h492z" />
<glyph unicode="&#x16e;" horiz-adv-x="1440" d="M1528 1294q-70 -17 -148 -27l-143 -761q-27 -134 -78.5 -233t-130 -163.5t-182.5 -96t-232 -31.5q-124 0 -207 26t-133.5 72.5t-71.5 111t-21 140.5q0 33 4.5 68t10.5 71l150 796q-36 4 -71.5 11t-66.5 16l17 88h463l-19 -88q-38 -10 -82.5 -17t-86.5 -10l-149 -779 q-7 -37 -11 -70.5t-4 -64.5q0 -61 16.5 -106.5t52.5 -76.5t92.5 -46.5t137.5 -15.5q93 0 167.5 21t130.5 70.5t94.5 128.5t60.5 197l141 742q-41 3 -83 10t-78 17l17 88h460zM1122 1639q0 -45 -18.5 -84.5t-48.5 -68.5t-69 -45.5t-81 -16.5q-41 0 -76 14t-61 39t-41 59.5 t-15 75.5q0 47 18.5 87t49 68.5t70 44.5t80.5 16t76.5 -14.5t61 -40t40 -60t14.5 -74.5zM1025 1633q0 21 -7 40.5t-20.5 34t-32.5 23t-41 8.5q-23 0 -43.5 -9t-37 -26t-26 -38.5t-9.5 -47.5q0 -21 7.5 -40.5t21 -33.5t33 -23t41.5 -9t43 9t36.5 26t25 39t9.5 47z" />
<glyph unicode="&#x16f;" horiz-adv-x="1213" d="M1080 14q-34 -4 -74.5 -7.5t-83 -5.5t-85.5 -2.5t-82 1.5q5 26 13.5 63.5t22.5 90t35 121.5t50 159l-4 2q-37 -86 -86 -168t-110.5 -146t-134.5 -103t-155 -39q-70 0 -117 24t-73.5 69t-31 109.5t10.5 146.5l108 565q-34 6 -77 12.5t-86 9.5l17 87q33 5 74 8.5t83 5.5 t84 2.5t80 -1.5l-126 -657q-25 -130 -0.5 -189.5t101.5 -59.5q52 0 104 33t100.5 88t92.5 126.5t80 148.5t61.5 153t37.5 141l17 94q-33 6 -77 11.5t-86 8.5l17 88q34 5 74 8t82 5t84 2t80 -1l-172 -896q34 -6 80.5 -11.5t87.5 -8.5zM957 1365q0 -49 -19.5 -91t-52 -72.5 t-74.5 -47.5t-87 -17q-44 0 -81.5 14.5t-65.5 41t-43.5 63.5t-15.5 81q0 51 19.5 93.5t52.5 72.5t74.5 46.5t86.5 16.5q44 0 82 -15t65.5 -42t43 -64t15.5 -80zM853 1359q0 23 -8 43.5t-22 36t-34 24.5t-44 9t-46.5 -10t-39.5 -27.5t-27 -41t-10 -49.5q0 -24 8 -44t22 -35.5 t34 -24.5t44 -9t46 10t39.5 27t27.5 40t10 51z" />
<glyph unicode="&#x170;" horiz-adv-x="1440" d="M1528 1294q-70 -17 -148 -27l-143 -761q-27 -134 -78.5 -233t-130 -163.5t-182.5 -96t-232 -31.5q-124 0 -207 26t-133.5 72.5t-71.5 111t-21 140.5q0 33 4.5 68t10.5 71l150 796q-36 4 -71.5 11t-66.5 16l17 88h463l-19 -88q-38 -10 -82.5 -17t-86.5 -10l-149 -779 q-7 -37 -11 -70.5t-4 -64.5q0 -61 16.5 -106.5t52.5 -76.5t92.5 -46.5t137.5 -15.5q93 0 167.5 21t130.5 70.5t94.5 128.5t60.5 197l141 742q-41 3 -83 10t-78 17l17 88h460zM1065 1491l-43 84l310 182l55 -106zM693 1493l-50 82l300 203l64 -104z" />
<glyph unicode="&#x171;" horiz-adv-x="1213" d="M1080 14q-34 -4 -74.5 -7.5t-83 -5.5t-85.5 -2.5t-82 1.5q5 26 13.5 63.5t22.5 90t35 121.5t50 159l-4 2q-37 -86 -86 -168t-110.5 -146t-134.5 -103t-155 -39q-70 0 -117 24t-73.5 69t-31 109.5t10.5 146.5l108 565q-34 6 -77 12.5t-86 9.5l17 87q33 5 74 8.5t83 5.5 t84 2.5t80 -1.5l-126 -657q-25 -130 -0.5 -189.5t101.5 -59.5q52 0 104 33t100.5 88t92.5 126.5t80 148.5t61.5 153t37.5 141l17 94q-33 6 -77 11.5t-86 8.5l17 88q34 5 74 8t82 5t84 2t80 -1l-172 -896q34 -6 80.5 -11.5t87.5 -8.5zM903 1177l-73 70l288 264l85 -92z M567 1177l-74 70l270 275l91 -87z" />
<glyph unicode="&#x172;" horiz-adv-x="1440" d="M836 -304q-43 -59 -102.5 -89.5t-127.5 -30.5q-40 0 -70 10t-49.5 28.5t-29.5 44.5t-10 56q0 32 11.5 67.5t34 71t55.5 69t75 61.5h-29q-144 2 -231.5 40.5t-130.5 104t-49 154t13 188.5l150 796q-36 4 -71.5 11t-66.5 16l16 88h464l-19 -88q-38 -10 -82.5 -17t-86.5 -10 l-153 -797q-17 -88 -11.5 -155.5t39 -112.5t97 -68t163.5 -23q93 0 167.5 21t130.5 70t94.5 128t60.5 195l141 742q-42 3 -83.5 10t-77.5 17l17 88h459l-16 -88q-71 -17 -148 -27l-144 -761q-37 -201 -133.5 -321.5t-250.5 -167.5q-28 -10 -58 -25.5t-59 -38.5 q-27 -20 -50.5 -44.5t-41 -50.5t-28 -52.5t-10.5 -49.5q0 -22 13 -37t44 -15q26 0 54 14t53 45l67 -67v0z" />
<glyph unicode="&#x173;" horiz-adv-x="1213" d="M1078 14q-20 -2 -44 -4.5t-48 -5.5q-64 -8 -116 -35.5t-88.5 -64t-57 -76.5t-20.5 -72q0 -22 13 -37t44 -15q26 0 54 14t54 45l67 -67q-44 -59 -103.5 -89.5t-127.5 -30.5q-40 0 -70 10t-49.5 28.5t-29.5 44.5t-10 56q0 33 13 69.5t39 74.5t65 75.5t92 72.5q7 28 15.5 65 t22 87.5t34 118t49.5 156.5l-4 2q-37 -86 -86 -168t-110.5 -146t-134.5 -103t-155 -39q-70 0 -117 24t-73.5 69t-31 109.5t10.5 146.5l108 565q-34 6 -77 12.5t-86 9.5l17 87q33 5 74 8.5t83 5.5t84 2.5t80 -1.5l-126 -657q-25 -130 -0.5 -189.5t101.5 -59.5q52 0 104 33 t100.5 88t92.5 126.5t80 148.5t61.5 153t37.5 141l17 94q-33 6 -77 11.5t-86 8.5l17 88q34 5 74 8t82 5t84 2t80 -1l-172 -896q34 -6 80.5 -11.5t87.5 -8.5l-18 -88v0z" />
<glyph unicode="&#x178;" horiz-adv-x="1179" d="M1316 1294q-29 -8 -65 -14.5t-65 -10.5l-525 -773l-72 -381q45 -3 88.5 -10t80.5 -18l-16 -87h-503l16 87q41 11 87.5 18t92.5 10l72 381l-222 773q-29 4 -64 10.5t-62 14.5l17 88h453l-17 -88q-35 -10 -77.5 -16.5t-88.5 -9.5l103 -397q8 -30 15.5 -60t15.5 -60t15 -60 t14 -59h2q20 32 39.5 63.5t41 66t45.5 72t52 80.5l224 354q-35 3 -74.5 9.5t-71.5 16.5l18 88h448zM1097 1597q0 -21 -8 -39t-21.5 -31.5t-31.5 -21t-38 -7.5t-37 7.5t-29 20t-19.5 29t-7.5 36.5q0 21 8 39t21.5 31.5t31 21t38.5 7.5q20 0 36.5 -7t29 -20t20 -29.5 t7.5 -36.5zM671 1597q0 -21 -8 -39t-21.5 -31.5t-31.5 -21t-38 -7.5t-36.5 7.5t-29 20t-20 29t-7.5 36.5q0 21 8 39t21.5 31.5t31.5 21t38 7.5t37 -7t29.5 -20t19.5 -29.5t7 -36.5z" />
<glyph unicode="&#x179;" horiz-adv-x="1061" d="M1115 1266l-803 -1001q-28 -35 -55.5 -67.5t-57.5 -66.5q17 2 49 3t75.5 1.5t97.5 0.5h115h239q13 42 30.5 89.5t38.5 102.5h101l-63 -328h-888l21 114l761 957q40 50 78.5 93.5t79.5 88.5q-54 -2 -124 -3t-169 -1h-258q-11 -38 -27.5 -85t-36.5 -101h-102l60 319h860z M686 1492l-28 92l371 150l36 -124z" />
<glyph unicode="&#x17a;" horiz-adv-x="881" d="M846 909l-648 -781q23 1 54.5 1.5t67 0.5t72.5 0.5t70 0.5h129q11 38 26 80.5t33 85.5h90l-57 -297h-688l21 110l650 787q-24 -1 -53.5 -1.5t-62.5 -1t-69 -1t-75 -0.5h-113q-13 -41 -26 -79.5t-31 -80.5h-90l55 285h667zM555 1177l-63 84l293 254l81 -106z" />
<glyph unicode="&#x17b;" horiz-adv-x="1061" d="M1115 1266l-803 -1001q-28 -35 -55.5 -67.5t-57.5 -66.5q17 2 49 3t75.5 1.5t97.5 0.5h115h239q13 42 30.5 89.5t38.5 102.5h101l-63 -328h-888l21 114l761 957q40 50 78.5 93.5t79.5 88.5q-54 -2 -124 -3t-169 -1h-258q-11 -38 -27.5 -85t-36.5 -101h-102l60 319h860z M839 1602q0 -22 -8.5 -41.5t-22.5 -33.5t-32.5 -22t-39.5 -8t-38 7.5t-29.5 20.5t-20 30t-7.5 36q0 22 8.5 41.5t22.5 33.5t32.5 21.5t39.5 7.5t38 -7t29.5 -20t20 -30t7.5 -36z" />
<glyph unicode="&#x17c;" horiz-adv-x="881" d="M846 909l-648 -781q23 1 54.5 1.5t67 0.5t72.5 0.5t70 0.5h129q11 38 26 80.5t33 85.5h90l-57 -297h-688l21 110l650 787q-24 -1 -53.5 -1.5t-62.5 -1t-69 -1t-75 -0.5h-113q-13 -41 -26 -79.5t-31 -80.5h-90l55 285h667zM695 1351q0 -23 -9 -43.5t-23.5 -35.5t-34 -23 t-41.5 -8t-40.5 7.5t-31.5 21t-20.5 31.5t-7.5 38q0 24 8.5 44.5t23.5 35t34.5 23t41.5 8.5t40 -8t31.5 -21.5t21 -31.5t7.5 -38z" />
<glyph unicode="&#x17d;" horiz-adv-x="1061" d="M1115 1266l-803 -1001q-28 -35 -55.5 -67.5t-57.5 -66.5q17 2 49 3t75.5 1.5t97.5 0.5h115h239q13 42 30.5 89.5t38.5 102.5h101l-63 -328h-888l21 114l761 957q40 50 78.5 93.5t79.5 88.5q-54 -2 -124 -3t-169 -1h-258q-11 -38 -27.5 -85t-36.5 -101h-102l60 319h860z M738 1489l-288 167l54 94l246 -132l286 132l41 -89z" />
<glyph unicode="&#x17e;" horiz-adv-x="881" d="M846 909l-648 -781q23 1 54.5 1.5t67 0.5t72.5 0.5t70 0.5h129q11 38 26 80.5t33 85.5h90l-57 -297h-688l21 110l650 787q-24 -1 -53.5 -1.5t-62.5 -1t-69 -1t-75 -0.5h-113q-13 -41 -26 -79.5t-31 -80.5h-90l55 285h667zM558 1177l-224 262l79 76l168 -176l226 176 l62 -73z" />
<glyph unicode="&#x192;" d="M1184 1278q-44 15 -90.5 24t-87.5 9q-51 0 -93.5 -15.5t-77 -47.5t-61.5 -82.5t-46 -121.5l-94 -326h313l-22 -120h-323l-152 -541q-27 -100 -69.5 -172.5t-100 -119.5t-130.5 -69.5t-162 -22.5q-21 0 -43.5 2t-46 5t-47 8.5t-44.5 11.5l32 130q22 -8 45 -13.5t46 -9.5 t45.5 -6.5t43.5 -2.5q51 0 93 14.5t76.5 46.5t61 81.5t45.5 118.5l153 539h-237l21 120h248l95 333q28 100 70.5 172.5t99.5 119.5t129.5 70t161.5 23q44 0 90.5 -7.5t91.5 -20.5z" />
<glyph unicode="&#x218;" horiz-adv-x="938" d="M867 1073h-101q-1 50 1.5 101.5t7.5 91.5q-18 4 -47.5 6.5t-52.5 2.5q-78 0 -136 -22t-96.5 -57.5t-57.5 -80.5t-19 -90q0 -50 19 -88.5t50 -71.5t71 -60.5t81.5 -56.5t81.5 -59.5t71 -69t50 -85.5t19 -108q0 -95 -39.5 -176t-111 -140.5t-170.5 -93.5t-216 -34 q-28 0 -58.5 1.5t-61.5 5t-61 9t-55 13.5l59 317h105q-2 -54 -4 -105.5t-5 -92.5q23 -7 51.5 -10.5t52.5 -3.5q83 0 148.5 21.5t110.5 59.5t68.5 89.5t23.5 112.5q0 48 -19 85.5t-49.5 68.5t-70 58t-80.5 55t-80.5 59t-70.5 69.5t-50 87t-19 111.5q0 82 33 156t97 130 t156.5 89t212.5 33q25 0 52 -1t55 -3.5t56.5 -6.5t55.5 -10zM328 -102q28 0 50.5 -16.5t32.5 -45t5 -66.5t-31.5 -81t-77.5 -89t-132 -89l-41 63q83 59 107.5 111t4.5 92q-9 22 -7 43.5t13 39t30.5 28t45.5 10.5z" />
<glyph unicode="&#x219;" horiz-adv-x="808" d="M689 735h-89q0 46 2.5 91t6.5 88q-19 2 -41 4t-44 2q-53 0 -94 -12.5t-69 -35t-42 -52.5t-14 -66q0 -44 26 -78t65.5 -62.5t85.5 -56.5t85.5 -62.5t66 -78.5t26.5 -104q0 -66 -30 -125t-86.5 -105t-138 -73t-183.5 -27q-27 0 -53 1t-51 3.5t-48.5 5.5t-44.5 6l55 294h90 q0 -43 -2 -90.5t-6 -87.5q8 -2 20 -3t24.5 -2.5t25 -2t24.5 -0.5q54 0 99.5 11t79 33.5t52 56t18.5 78.5q0 43 -26.5 75t-66 60.5t-85 56.5t-85 63t-65.5 81t-26 109q0 64 25.5 119.5t75.5 96.5t123.5 65t170.5 24q28 0 54.5 -1t51 -3.5t47.5 -6t45 -8.5zM277 -102 q28 0 50.5 -16.5t32.5 -45t5 -66.5t-31.5 -81t-77.5 -89t-132 -89l-41 63q83 59 107.5 111t4.5 92q-9 22 -7 43.5t13 39t30.5 28t45.5 10.5z" />
<glyph unicode="&#x21a;" horiz-adv-x="1105" d="M1171 1056h-101q2 64 2.5 112t4.5 88h-306l-216 -1141q45 -3 88.5 -10t81.5 -18l-18 -87h-502l16 87q42 11 88 18t92 10l219 1141h-307q-11 -40 -28 -88t-40 -112h-103l63 326h1028zM419 -102q28 0 50.5 -16.5t32.5 -45t5 -66.5t-31.5 -81t-77.5 -89t-132 -89l-41 63 q83 59 107.5 111t4.5 92q-9 22 -7 43.5t13 39t30.5 28t45.5 10.5z" />
<glyph unicode="&#x21b;" horiz-adv-x="743" d="M737 898h-290l-107 -562q-12 -64 -13.5 -106t10 -67t36.5 -35t66 -10q34 0 74.5 4.5t70.5 12.5l-7 -131q-43 -9 -91 -14.5t-92 -5.5q-76 0 -124.5 18.5t-73 58.5t-27 101t13.5 146l112 590h-219l25 120h218l64 338l159 37l-72 -375h292zM295 -102q28 0 50.5 -16.5 t32.5 -45t5 -66.5t-31.5 -81t-77.5 -89t-132 -89l-41 63q83 59 107.5 111t4.5 92q-9 22 -7 43.5t13 39t30.5 28t45.5 10.5z" />
<glyph unicode="&#x2c6;" horiz-adv-x="875" d="M762 1177l-168 176l-226 -176l-64 73l312 265l224 -262z" />
<glyph unicode="&#x2c7;" horiz-adv-x="875" d="M558 1177l-224 262l79 76l168 -176l226 176l62 -73z" />
<glyph unicode="&#x2d8;" horiz-adv-x="824" d="M836 1469q-9 -51 -31 -98t-58.5 -83t-86.5 -57t-114 -21t-106 21.5t-64.5 57.5t-27.5 83t4 97h103q-5 -28 -1 -53.5t17.5 -44.5t36.5 -30.5t56 -11.5q63 0 105 37t55 103h112v0z" />
<glyph unicode="&#x2d9;" horiz-adv-x="565" d="M542 1351q0 -23 -9 -43.5t-23.5 -35.5t-34 -23t-41.5 -8t-40.5 7.5t-31.5 21t-20.5 31.5t-7.5 38q0 24 8.5 44.5t23.5 35t34.5 23t41.5 8.5t40 -8t31.5 -21.5t21 -31.5t7.5 -38z" />
<glyph unicode="&#x2da;" horiz-adv-x="783" d="M770 1365q0 -49 -19.5 -91t-52 -72.5t-74.5 -47.5t-87 -17q-44 0 -81.5 14.5t-65.5 41t-43.5 63.5t-15.5 81q0 51 19.5 93.5t52.5 72.5t74.5 46.5t86.5 16.5q44 0 82 -15t65.5 -42t43 -64t15.5 -80zM666 1359q0 23 -8 43.5t-22 36t-34 24.5t-44 9t-46.5 -10t-39.5 -27.5 t-27 -41t-10 -49.5q0 -24 8 -44t22 -35.5t34 -24.5t44 -9t46 10t39.5 27t27.5 40t10 51z" />
<glyph unicode="&#x2db;" horiz-adv-x="560" d="M311 -303q-44 -58 -103.5 -89.5t-125.5 -31.5q-40 0 -70 9.5t-49.5 28t-29.5 44.5t-10 57q0 34 14 72.5t39.5 76t63 73t85.5 63.5h175q-65 -38 -107 -73t-66 -66.5t-34 -58t-10 -46.5q0 -22 12.5 -37t43.5 -15q23 0 50.5 16t52.5 45l69 -68v0z" />
<glyph unicode="&#x2dc;" horiz-adv-x="1019" d="M997 1378q-40 -72 -96.5 -110.5t-121.5 -38.5q-48 0 -81.5 18t-60.5 39.5t-51.5 39.5t-56.5 18q-34 0 -66.5 -24t-64.5 -72l-77 62q39 72 94 110.5t121 38.5q48 0 82 -17.5t62 -39.5t53.5 -39.5t57.5 -17.5q34 0 66 24t61 73l79 -64v0z" />
<glyph unicode="&#x2dd;" horiz-adv-x="980" d="M715 1177l-73 70l288 264l85 -92zM379 1177l-74 70l270 275l91 -87z" />
<glyph unicode="&#x312;" horiz-adv-x="528" d="M858 1485q-85 -57 -110 -109t-5 -92q9 -22 7.5 -44t-12.5 -39.5t-30 -28.5t-44 -11q-28 0 -50.5 16.5t-32.5 45t-5 66.5t31 81t76.5 88.5t131.5 89.5l43 -63v0z" />
<glyph unicode="&#x315;" horiz-adv-x="710" d="M637 1509l-160 -344l-102 33l135 350z" />
<glyph unicode="&#x326;" horiz-adv-x="403" d="M92 -102q28 0 50.5 -16.5t32.5 -45t5 -66.5t-31.5 -81t-77.5 -89t-132 -89l-41 63q83 59 107.5 111t4.5 92q-9 22 -7 43.5t13 39t30.5 28t45.5 10.5z" />
<glyph unicode="&#x394;" horiz-adv-x="1214" d="M-40 0l22 113l698 1269h183l215 -1269l-20 -113h-1098zM754 1111q-4 27 -7 59t-5 61h-2q-12 -29 -26 -59t-33 -65l-523 -969h754z" />
<glyph unicode="&#x3a9;" horiz-adv-x="1393" d="M48 309h93q0 -19 0.5 -42.5t0.5 -49t-1.5 -50.5t-2.5 -46h251l24 126q-41 19 -90 49.5t-91.5 80t-71.5 121t-29 171.5q0 97 24.5 189t70 173t111.5 149.5t149.5 117t182.5 76t211 27.5q62 0 122.5 -11t116 -34.5t103 -60t83 -88t55.5 -118t20 -150.5q0 -88 -21 -168 t-58 -150.5t-86 -130.5t-104 -107.5t-113 -82t-113 -53.5l-25 -126h250q14 47 33 97.5t35 90.5h92l-58 -309h-493l54 302q84 26 163.5 82.5t141 136t99 176.5t37.5 204q0 103 -31 173.5t-82.5 114.5t-118.5 63.5t-138 19.5q-83 0 -156.5 -22t-135 -61.5t-110 -95 t-82.5 -121.5t-51.5 -141t-17.5 -153q0 -75 19 -132.5t52.5 -102.5t79.5 -79.5t100 -61.5l-56 -302h-494z" />
<glyph unicode="&#x3bc;" horiz-adv-x="1257" d="M1143 136q-42 -73 -97.5 -113.5t-126.5 -40.5q-73 0 -106.5 36t-33.5 105q0 18 1.5 36.5t6 39.5t11 45.5t16.5 55.5l-4 2q-13 -33 -37 -69t-56 -71t-70.5 -67.5t-80.5 -57t-86.5 -39t-88.5 -14.5q-20 0 -40.5 4t-41 12t-39 20.5t-33.5 30.5l-84 -560h-160l291 1527h150 l-125 -657q-13 -64 -9.5 -111t19.5 -77.5t41.5 -45.5t58.5 -15q56 0 124.5 41.5t132.5 118.5t116 187.5t78 246.5l58 312h150l-140 -733q-10 -51 -11.5 -84t3.5 -52t16.5 -26.5t28.5 -7.5q30 0 55.5 21.5t45.5 56.5l67 -57v0z" />
<glyph unicode="&#x3c0;" horiz-adv-x="1352" d="M1301 895h-229l-95 -492q-19 -98 -26 -157.5t-0.5 -91t29 -41.5t62.5 -10q27 0 56.5 4t52.5 11l-4 -116q-37 -9 -85.5 -14t-96.5 -5q-65 0 -102 17.5t-54 53t-16 90t15 127.5l118 624h-399l-169 -895h-146l170 895h-228l25 123h1147z" />
<glyph unicode="&#x2013;" d="M1134 543h-1127l27 132h1126z" />
<glyph unicode="&#x2014;" horiz-adv-x="2048" d="M1808 543h-1553l26 132h1553z" />
<glyph unicode="&#x2018;" horiz-adv-x="471" d="M570 1463q-58 -48 -92 -90t-49.5 -77.5t-14 -65.5t14.5 -55q14 -24 13.5 -50t-12.5 -47.5t-34 -35.5t-51 -14q-36 0 -62 19t-37 53.5t-4.5 81.5t37 103.5t87.5 118.5t146 127l58 -68v0z" />
<glyph unicode="&#x2019;" horiz-adv-x="471" d="M418 1518q34 0 60 -19t37.5 -53.5t4.5 -81.5t-37 -103t-86.5 -118.5t-146.5 -126.5l-58 67q57 49 91 90.5t49.5 77t14.5 65.5t-15 55q-13 24 -12 50t12.5 47.5t33.5 35.5t52 14z" />
<glyph unicode="&#x201a;" horiz-adv-x="471" d="M167 204q35 0 61 -19t37.5 -53.5t4.5 -82t-37 -103t-86.5 -118t-146.5 -127.5l-58 68q57 49 91.5 90.5t50 77t14.5 65.5t-16 54q-13 24 -12.5 50t12 47.5t33.5 36t52 14.5z" />
<glyph unicode="&#x201c;" horiz-adv-x="828" d="M933 1463q-58 -49 -92 -90.5t-49.5 -77t-14.5 -65.5t16 -55q13 -24 12 -50t-13 -47.5t-33.5 -36t-51.5 -14.5q-26 0 -47.5 11t-35.5 31.5t-19.5 49t0 63.5t23 75.5t50.5 85t81 92t116 96.5zM570 1463q-58 -49 -92 -90.5t-49.5 -77t-14 -65.5t14.5 -55q13 -24 12.5 -50 t-12.5 -47.5t-33.5 -36t-50.5 -14.5q-36 0 -62 19.5t-37 54t-4.5 81.5t37 103t87.5 118.5t146 127.5z" />
<glyph unicode="&#x201d;" horiz-adv-x="828" d="M778 1518q36 0 62 -19t37 -53.5t4.5 -81.5t-37 -103t-87.5 -118.5t-146 -126.5l-58 67q57 49 91.5 90.5t50 77t14 65.5t-14.5 55q-13 24 -13 50t12 47.5t34 35.5t51 14zM418 1518q34 0 60 -19t37.5 -53.5t4.5 -81.5t-37 -103t-86.5 -118.5t-146.5 -126.5l-58 67 q57 49 91.5 90.5t50 77t14.5 65.5t-16 55q-13 24 -12 50t12.5 47.5t33.5 35.5t52 14z" />
<glyph unicode="&#x201e;" horiz-adv-x="828" d="M530 204q35 0 61.5 -19t37.5 -53.5t4 -82t-37 -103t-87 -118t-146 -127.5l-58 68q57 49 91.5 90.5t50 77t14 65.5t-14.5 54t-13 50t12 47.5t34 36t51 14.5zM167 204q35 0 61 -19t37.5 -53.5t4.5 -82t-37 -103t-86.5 -118t-146.5 -127.5l-58 68q57 49 91.5 90.5t50 77 t14.5 65.5t-16 54q-13 24 -12.5 50t12 47.5t33.5 36t52 14.5z" />
<glyph unicode="&#x2020;" horiz-adv-x="893" d="M913 1160h-285l-10 -208l-131 -510h-110l64 510l69 208h-284l21 120h287l22 281h178l-82 -281h284z" />
<glyph unicode="&#x2021;" horiz-adv-x="893" d="M915 1169h-284l-14 -219l-70 -218h283l-23 -119h-283l-23 -274h-177l81 274h-284l22 119h284l13 218l71 219h-283l21 120h286l21 272h178l-80 -272h283z" />
<glyph unicode="&#x2022;" horiz-adv-x="859" d="M670 617q0 -50 -18.5 -92.5t-50 -74t-73.5 -49.5t-88 -18q-47 0 -87 17.5t-69.5 47t-46 68.5t-16.5 83q0 50 18.5 92.5t50 74t73 49.5t88.5 18q46 0 86.5 -17t70 -46.5t46 -69t16.5 -83.5z" />
<glyph unicode="&#x2026;" horiz-adv-x="1289" d="M1077 99q0 -26 -9.5 -46.5t-24.5 -36t-36 -24.5t-43 -9t-41 9t-32.5 23t-20.5 32.5t-7 39.5q0 25 9 46t24.5 36t36 24t42.5 9q23 0 41.5 -8.5t32 -22.5t21 -33t7.5 -39zM660 99q0 -26 -9 -46.5t-24.5 -36t-36 -24.5t-42.5 -9q-23 0 -41.5 9t-32 23t-21 32.5t-7.5 39.5 q0 25 9.5 46t24.5 36t36 24t43 9t41 -8.5t32.5 -22.5t20.5 -33t7 -39zM244 99q0 -26 -9.5 -46.5t-24.5 -36t-36 -24.5t-43 -9q-23 0 -41.5 9t-31.5 23t-20.5 32.5t-7.5 39.5q0 25 9 46t24.5 36t36 24t42.5 9q23 0 41.5 -8.5t32 -22.5t21 -33t7.5 -39z" />
<glyph unicode="&#x2030;" horiz-adv-x="2041" d="M1893 390q0 -79 -24 -152.5t-68 -130.5t-107 -91t-142 -34q-48 0 -88 11.5t-68 37t-43.5 65t-15.5 95.5q0 49 10 99t30 95t49.5 84t67.5 68t83 45.5t99 16.5q48 0 88 -11.5t68.5 -36.5t44.5 -64.5t16 -96.5zM751 1141q0 -79 -23.5 -153t-67.5 -131t-107 -91t-142 -34 q-49 0 -89 11.5t-68 37t-43.5 65.5t-15.5 96q0 49 10 98.5t30 95t49.5 84.5t67.5 68t83.5 45.5t98.5 16.5q49 0 88.5 -11.5t68 -37t44.5 -65t16 -95.5zM106 -31l-77 80l1317 1312l77 -81zM1260 390q0 -79 -24 -152.5t-68 -130.5t-107 -91t-142 -34q-48 0 -88.5 11.5 t-68.5 37t-43.5 65t-15.5 95.5q0 49 10.5 99t31 95t49.5 84t66.5 68t83.5 45.5t99 16.5q48 0 88 -11.5t68.5 -36.5t44.5 -64.5t16 -96.5zM1767 378q0 56 -25 84.5t-82 28.5q-53 0 -91 -29t-61.5 -72.5t-34.5 -94t-11 -92.5q0 -28 6.5 -49.5t19.5 -35.5t33 -21.5t49 -7.5 q54 0 91.5 29t61 72.5t34 94t10.5 93.5zM625 1129q0 55 -25 84.5t-82 29.5q-53 0 -91 -29.5t-61.5 -73t-34.5 -94t-11 -93.5q0 -28 6.5 -49.5t19.5 -35.5t33 -21t49 -7q54 0 91.5 29t61 72t34 94t10.5 94zM1133 378q0 56 -24.5 84.5t-82.5 28.5q-35 0 -63.5 -13t-50.5 -36 t-38 -52.5t-26 -61.5t-14.5 -64.5t-4.5 -60.5t6 -49.5t19 -35.5t33.5 -21.5t48.5 -7.5q54 0 91.5 29t61 72.5t34 94t10.5 93.5z" />
<glyph unicode="&#x2039;" horiz-adv-x="630" d="M291 603l156 -288l-120 -68l-189 365l304 349l105 -73z" />
<glyph unicode="&#x203a;" horiz-adv-x="630" d="M230 247l-106 73l256 285l-155 288l120 68l189 -365z" />
<glyph unicode="&#x2044;" horiz-adv-x="827" d="M-26 -50l-99 82l1117 1395l100 -81z" />
<glyph unicode="&#x20ac;" d="M1111 1031h-90q0 18 0.5 38.5t1.5 41.5t3 42.5t5 41.5q-37 12 -79 19.5t-82 7.5q-85 0 -153 -29t-120.5 -78.5t-91.5 -115t-67 -139.5h419l-21 -101h-428q-14 -50 -22.5 -98.5t-13.5 -97.5h427l-19 -101h-416q-1 -18 -1 -33.5v-30.5q2 -78 22 -132.5t57.5 -87.5t92.5 -48 t126 -15q36 0 73.5 5t73.5 13t69.5 18.5t63.5 22.5l13 -125q-41 -17 -84.5 -29.5t-86.5 -21t-84.5 -12.5t-77.5 -4q-103 0 -181.5 24t-132 74t-81.5 127t-29 183v35.5t1 36.5h-182l19 101h171q6 47 15 96.5t24 99.5h-173l20 101h184q34 96 87 185t129.5 156.5t177 108 t230.5 40.5q36 0 72.5 -4t70 -11t64.5 -17t57 -21z" />
<glyph unicode="&#x2122;" horiz-adv-x="1652" d="M1646 1313q-21 -6 -46.5 -10.5t-50.5 -7.5l-10 -414q23 -4 43.5 -8t40.5 -9l-15 -71h-289l13 70q19 5 41.5 9.5t45.5 7.5l9 254l5 110l-42 -93l-176 -358h-126l-37 362l-6 89l-20 -72l-101 -292q22 -3 42.5 -7.5t39.5 -9.5l-14 -70h-286l15 70q20 6 44 10t47 7l146 415 q-26 3 -48.5 7.5t-42.5 10.5l13 69h262l34 -345l3 -100l35 89l176 356h270zM748 1155h-73q-2 14 -1.5 32t1.5 36.5t2 36t2 31.5h-110l-78 -407q29 -2 59 -8t53 -13l-13 -70h-348l12 70q26 7 57 13t61 8l77 407h-109q-3 -15 -8.5 -32.5t-11.5 -36t-12.5 -36t-12.5 -31.5h-76 l44 227h528z" />
<glyph unicode="&#x2202;" horiz-adv-x="1281" d="M1180 966q0 -108 -18 -223.5t-55 -224.5t-92.5 -206t-130.5 -170t-169.5 -115.5t-207.5 -42.5q-98 0 -167.5 28t-114 76t-65 111.5t-20.5 136.5q0 120 41 222t114 176t171 115.5t213 41.5q57 0 109.5 -14t95 -41.5t73 -67.5t44.5 -92q0 25 4.5 56.5l9.5 66.5t8.5 73 t2.5 76q-2 100 -30.5 180t-81 135.5t-129 85t-174.5 29.5l43 127q130 -4 228.5 -46t165 -113.5t99.5 -168t33 -211.5zM913 524q0 46 -15 89t-47 76t-81.5 53t-118.5 20q-75 0 -140 -30t-112.5 -83.5t-75 -126.5t-27.5 -159q0 -57 15.5 -102.5t46 -78t75 -49.5t103.5 -17 q73 0 141 30.5t120.5 85.5t84 129.5t31.5 162.5z" />
<glyph unicode="&#x220f;" horiz-adv-x="1573" d="M1643 1362h-219l-362 -1871h-146l362 1871h-655l-362 -1871h-147l363 1871h-220l26 133h1386z" />
<glyph unicode="&#x2211;" horiz-adv-x="1224" d="M1242 1362h-790l437 -866l-783 -868h835l-28 -137h-1033l22 117l807 902l-431 867l23 118h964z" />
<glyph unicode="&#x2212;" d="M1045 543h-949l26 132h949z" />
<glyph unicode="&#x221a;" horiz-adv-x="1213" d="M575 0h-173l-140 900h-187l24 118h305l84 -617q8 -61 15 -123t12 -124h4q26 60 50.5 114t52.5 116l553 1168h165z" />
<glyph unicode="&#x221e;" horiz-adv-x="1950" d="M1852 683q0 -70 -27 -141.5t-79.5 -129t-130 -94t-177.5 -36.5q-64 0 -124 19.5t-116.5 53t-110.5 76t-106 89.5q-69 -46 -139.5 -88.5t-139.5 -76t-135.5 -53.5t-126.5 -20q-80 0 -137.5 19t-94 54t-54 82t-17.5 103q0 57 15.5 109t42.5 96.5t65 80.5t83.5 61.5t97 40 t106.5 14.5q63 0 124 -20.5t118.5 -54t112 -76.5t106.5 -89q71 46 142 89t139.5 76.5t134 54t125.5 20.5q80 0 137.5 -20.5t94 -55.5t54 -82t17.5 -101zM1697 662q0 31 -10 57t-30.5 45.5t-51 30.5t-71.5 11t-89.5 -16t-101.5 -43t-110.5 -63t-117.5 -75q42 -38 84 -73 t83.5 -61.5t83 -42.5t83.5 -16q54 0 99.5 19.5t79 53t51.5 78t18 95.5zM873 614q-43 39 -85 73.5t-84 61t-83.5 42t-84.5 15.5q-53 0 -98 -19t-78 -52t-51 -77.5t-18 -93.5q0 -32 10 -58.5t30 -46.5t50 -31.5t70 -11.5q42 0 90.5 16.5t102 43.5t111.5 63t118 75z" />
<glyph unicode="&#x222b;" horiz-adv-x="675" d="M804 1358q-20 7 -46.5 12t-53.5 5q-40 0 -71.5 -16t-58.5 -56t-50 -110.5t-43 -180.5q-16 -79 -28.5 -154t-25 -151t-24.5 -154.5t-26 -165t-30.5 -182.5t-38.5 -206q-28 -151 -64 -251.5t-84.5 -162t-110 -87t-139.5 -25.5q-26 0 -52 3t-49 10l27 137q20 -8 46 -12.5 t52 -4.5q40 0 72.5 15.5t58.5 55t48 108t43 173.5q21 114 39.5 225.5t37 232.5t41.5 258.5t55 304.5q29 151 65.5 252t85 162t110 87t142.5 26q24 0 49.5 -3.5t47.5 -9.5z" />
<glyph unicode="&#x2248;" d="M1077 761q-23 -21 -52.5 -41.5t-63 -36t-71 -24.5t-78.5 -9q-49 0 -85 9t-65.5 22.5t-55 29.5t-53 29.5t-59.5 23t-75 9.5q-31 0 -61.5 -8.5t-57.5 -21.5t-50.5 -28t-40.5 -28l-54 109q26 20 56 40t64.5 35.5t72.5 25t78 9.5q47 0 83 -9.5t66.5 -23.5t57.5 -30.5 t55 -30.5t58.5 -23.5t70.5 -9.5q53 0 103 24.5t105 66.5zM1011 421q-24 -22 -54 -41.5t-64 -34.5t-71 -24t-76 -9q-50 0 -87 9t-67 22.5t-55.5 29.5t-52.5 29.5t-58.5 23t-72.5 9.5q-32 0 -62 -8.5t-57 -21.5t-50 -28t-41 -29l-55 110q25 19 55 38.5t64 35t71 25.5t78 10 q47 0 83.5 -9.5t66.5 -23.5t56.5 -30.5t55 -30.5t60.5 -23.5t74 -9.5q53 0 103 23.5t105 66.5z" />
<glyph unicode="&#x2260;" d="M1056 711h-345l-122 -204h427l-25 -129h-477l-178 -298h-136l178 298h-290l25 129h339l121 204h-420l22 129h471l183 306h138l-183 -306h294z" />
<glyph unicode="&#x2264;" d="M388 746l555 -392l-99 -110l-678 511l841 493l73 -112zM894 0h-853l25 129h853z" />
<glyph unicode="&#x2265;" d="M210 244l-74 111l692 392l-557 393l99 108l682 -510zM894 0h-853l25 129h853z" />
<glyph unicode="&#x25ca;" horiz-adv-x="1237" d="M571 -17h-95l-363 715l623 702h92l365 -715zM749 1230l-472 -534l279 -541l474 525z" />
<glyph unicode="&#x25fc;" horiz-adv-x="1075" d="M0 1075h1075v-1075h-1075v1075z" />
<glyph unicode="&#xe080;" horiz-adv-x="1755" d="M1685 731q0 -92 -16 -183.5t-49.5 -174.5t-85 -153.5t-122 -122.5t-161 -81.5t-201.5 -29.5q-87 0 -162 8.5t-140 22.5l257 1349q-48 9 -92 13t-86 4q-145 0 -225.5 -61.5t-106.5 -195.5l-21 -108h290l-26 -120h-288l-183 -955q-24 -127 -64.5 -215.5t-98 -145t-132 -82 t-165.5 -25.5q-45 0 -90 4.5t-87 13.5l38 133q39 -13 80 -17.5t75 -4.5q59 0 105 16.5t81.5 55.5t61.5 103t44 158l185 961h-212l25 120h210l22 114q18 91 57 161t101 117.5t146 71.5t191 24q93 0 177.5 -7t158.5 -20l-96 -503q-4 -25 -11.5 -56t-20.5 -76.5t-32.5 -110.5 t-48.5 -159l4 -2q39 97 90 181.5t112.5 147.5t133.5 99.5t154 36.5q108 0 166 -73t58 -233zM1528 704q0 54 -8 93t-23 63t-36 35t-46 11q-53 0 -105.5 -33t-101.5 -88.5t-93 -127t-79.5 -148t-61 -151.5t-37.5 -138l-19 -93q36 -10 73.5 -15t85.5 -5q81 0 146.5 25.5 t116 69.5t86 103t58.5 125t33.5 136.5t10.5 137.5z" />
<glyph unicode="&#xe081;" horiz-adv-x="1842" d="M1560 122q17 -3 37 -6t41 -6t42.5 -5t44.5 -3l-16 -88q-35 -5 -75 -8t-82 -5t-84.5 -2.5t-80.5 1.5l126 657q25 130 0 189.5t-101 59.5q-52 0 -104 -33t-101 -88t-93 -126.5t-80 -148.5t-61.5 -153t-36.5 -140l-41 -217h-150l260 1366q-48 9 -92 13t-86 4 q-145 0 -225.5 -61.5t-106.5 -195.5l-21 -108h290l-26 -120h-288l-183 -955q-24 -127 -64.5 -215.5t-98 -145t-132 -82t-165.5 -25.5q-45 0 -90 4.5t-87 13.5l38 133q39 -13 80 -17.5t75 -4.5q59 0 105 16.5t81 55.5t61 103t45 158l185 961h-212l25 120h210l22 114 q18 91 57 161t101 117.5t146 71.5t191 24q93 0 177.5 -7t158.5 -20l-91 -480q-6 -29 -13 -63.5t-20 -82t-33.5 -113t-49.5 -156.5l4 -2q36 86 85.5 168t110.5 146t134 102.5t156 38.5q69 0 116.5 -23.5t73.5 -68.5t31 -110t-10 -146l-110 -567v0z" />
<glyph unicode="&#xe082;" horiz-adv-x="1186" d="M1077 1342q-26 9 -55.5 16.5t-59.5 12.5t-59.5 7.5t-54.5 2.5q-81 0 -142.5 -19.5t-105.5 -57t-72 -92.5t-41 -125l-13 -69h624l-223 -1162q-18 -96 -48.5 -167.5t-77 -119t-113 -71t-158.5 -23.5q-37 0 -71 4t-59 11l30 136q28 -11 60.5 -16.5t59.5 -5.5q54 0 91.5 14.5 t64 48.5t44 91t34.5 140l192 1000h-474l-183 -955q-24 -127 -64.5 -215.5t-98 -145t-132 -82t-165.5 -25.5q-45 0 -90 4.5t-87 13.5l38 133q39 -13 80 -17.5t75 -4.5q59 0 105 16.5t81.5 55.5t61.5 103t44 158l185 961h-210l23 120h212l7 48q34 219 165 329.5t363 110.5 q39 0 75.5 -3t70.5 -8t66 -11.5t61 -14.5z" />
<glyph unicode="&#xe083;" horiz-adv-x="1707" d="M1641 819q0 -62 -26.5 -116t-82 -99.5t-141 -81.5t-203.5 -60l198 -345q43 -4 85 -11t79 -16l-16 -90h-271l-272 502l-96 -502h-150l258 1366q-46 9 -90 13t-86 4q-145 0 -225.5 -61.5t-106.5 -195.5l-21 -108h290l-26 -120h-288l-183 -955q-24 -127 -64.5 -215.5 t-98 -145t-132 -82t-165.5 -25.5q-45 0 -90 4.5t-87 13.5l38 133q39 -13 80 -17.5t75 -4.5q59 0 105 16.5t81.5 55.5t61.5 103t44 158l185 961h-212l25 120h210l22 114q18 91 57 161t101 117.5t146 71.5t191 24q93 0 177.5 -7t158.5 -20l-53 -284q-9 -53 -21 -105t-27 -105 t-32 -109.5t-38 -118.5l4 -1q29 62 66 113.5t83.5 88.5t102.5 57t122 20q59 0 106.5 -16t81 -44.5t52 -68.5t18.5 -87zM1481 789q0 25 -9 47t-26 39t-41 26.5t-55 9.5q-44 0 -83 -18.5t-73.5 -48t-64 -68t-52.5 -80t-40 -81.5t-26 -74q124 19 213.5 43.5t146 54.5t83.5 67 t27 83z" />
<glyph unicode="&#xe084;" horiz-adv-x="1306" d="M1530 1359q-39 11 -73.5 16.5t-74.5 5.5q-58 0 -104 -16.5t-81 -52.5t-58.5 -91.5t-37.5 -132.5l-11 -70h293l-24 -120h-293l-183 -968q-24 -127 -70 -213.5t-111.5 -139t-148.5 -75.5t-180 -23q-80 0 -159.5 16t-157.5 49q-27 -18 -55 -31.5t-59 -21.5t-64.5 -12 t-70.5 -4q-45 0 -90 4.5t-87 13.5l38 133q39 -13 80 -17.5t75 -4.5q59 0 105 16.5t81 55.5t61 103t45 158l184 961h-210l23 120h211l11 60q37 206 162.5 315t341.5 109q81 0 156.5 -15.5t154.5 -49.5q50 34 115 51.5t138 17.5q45 0 83.5 -4.5t81.5 -13.5zM1049 1330 q-57 27 -114 37.5t-111 10.5q-147 0 -231.5 -75t-107.5 -216l-12 -69h466l13 70q13 75 37.5 135.5t59.5 106.5zM450 898l-183 -955q-18 -94 -44.5 -164t-63.5 -122q52 -26 113.5 -38t119.5 -12q71 0 126.5 17.5t97 55t69.5 97t45 144.5l186 977h-466z" />
<glyph unicode="&#xe085;" horiz-adv-x="1205" d="M112 1018h211l9 51q38 218 167.5 327.5t361.5 109.5q40 0 76.5 -3t70 -8t65.5 -11.5t61 -14.5l-52 -129q-26 9 -56 17t-60.5 13t-61 8t-55.5 3q-80 0 -142 -19.5t-106.5 -57t-72.5 -92.5t-41 -125l-14 -69h618l-170 -896q35 -6 79 -11.5t87 -8.5l-17 -88 q-33 -4 -73.5 -7.5t-83.5 -5.5t-86 -2.5t-81 1.5l171 898h-467l-183 -955q-24 -127 -64.5 -215.5t-98 -145t-132 -82t-165.5 -25.5q-45 0 -90 4.5t-87 13.5l38 133q39 -13 80 -17.5t75 -4.5q59 0 105 16.5t81.5 55.5t61.5 103t44 158l185 961h-210z" />
<glyph unicode="&#xe086;" horiz-adv-x="1207" d="M923 122q34 -6 79 -11.5t88 -8.5l-17 -88q-33 -4 -73.5 -7.5t-83.5 -5.5t-86 -2.5t-82 1.5l260 1366q-48 9 -92.5 13t-86.5 4q-146 0 -227.5 -61.5t-107.5 -195.5l-21 -108h290l-25 -120h-288l-183 -955q-24 -127 -64.5 -215.5t-98 -145t-132 -82t-165.5 -25.5 q-45 0 -90 4.5t-87 13.5l38 133q39 -13 80 -17.5t75 -4.5q59 0 105 16.5t81.5 55.5t61.5 103t44 158l185 961h-210l22 120h211l21 114q19 91 58.5 161t101.5 117.5t146.5 71.5t191.5 24q93 0 177.5 -7t159.5 -20z" />
<glyph unicode="&#xe087;" horiz-adv-x="1819" d="M1686 14q-35 -4 -75.5 -7.5t-83.5 -5.5t-86 -2.5t-81 1.5l171 898h-465l-183 -968q-24 -127 -70 -213.5t-111.5 -139t-148.5 -75.5t-180 -23q-80 0 -159.5 16t-157.5 49q-27 -18 -55 -31.5t-59 -21.5t-64.5 -12t-70.5 -4q-45 0 -90 4.5t-87 13.5l38 133q39 -13 80 -17.5 t75 -4.5q59 0 105 16.5t81 55.5t61 103t45 158l184 961h-211l24 120h211l11 60q37 206 162.5 315t341.5 109q83 0 167.5 -17.5t162.5 -52.5q60 38 139.5 56t167.5 18q40 0 76.5 -3t70.5 -8t65.5 -11.5t60.5 -14.5l-56 -127q-25 9 -54.5 16.5t-59.5 12.5t-59.5 7.5t-55.5 2.5 q-152 0 -243 -73t-119 -230l-11 -60h615l-170 -896q17 -3 37.5 -6t42 -5.5t44 -5t43.5 -3.5zM1058 1325q-61 30 -120.5 41.5t-113.5 11.5q-147 0 -231.5 -75t-107.5 -216l-12 -69h466l9 54q13 75 41.5 140t68.5 113zM450 898l-183 -955q-18 -94 -44.5 -164t-63.5 -122 q52 -26 113.5 -38t119.5 -12q71 0 126.5 17.5t97 55t69.5 97t45 144.5l186 977h-466z" />
<glyph unicode="&#xe088;" horiz-adv-x="1820" d="M1536 122q17 -3 37 -6t42 -5.5t44.5 -5t42.5 -3.5l-16 -88q-34 -4 -74.5 -7.5t-83.5 -5.5t-86 -2.5t-81 1.5l260 1366q-47 9 -91.5 13t-86.5 4q-145 0 -226 -61.5t-107 -195.5l-20 -108h294l-25 -120h-292l-184 -968q-24 -127 -70 -213.5t-111.5 -139t-148.5 -75.5 t-180 -23q-80 0 -159.5 16t-157.5 49q-27 -18 -55 -31.5t-59 -21.5t-64.5 -12t-70.5 -4q-45 0 -90 4.5t-87 13.5l38 133q39 -13 80 -17.5t75 -4.5q59 0 105 16.5t81 55.5t61 103t45 158l185 961h-210l22 120h211l11 60q37 206 162.5 315t341.5 109q40 0 81 -4t82 -12 t80 -20.5t76 -27.5q59 33 133 50.5t167 17.5q92 0 176.5 -7t158.5 -20zM1047 1330q-59 28 -115 38t-108 10q-146 0 -230.5 -75t-108.5 -216l-11 -69h465l22 114q13 60 34 109t52 89zM450 898l-183 -955q-18 -94 -44.5 -164t-63.5 -122q52 -26 113.5 -38t119.5 -12 q71 0 126.5 17.5t97 55t69.5 97t45 144.5l186 977h-466z" />
<glyph unicode="&#xe0a0;" horiz-adv-x="875" d="M895 1489l-246 131l-286 -131l-40 88l339 172l287 -165z" />
<glyph unicode="&#xe0a1;" horiz-adv-x="799" d="M794 1577q0 -45 -18.5 -84.5t-48.5 -68.5t-69 -45.5t-81 -16.5q-41 0 -76 14t-61 39t-41 59.5t-15 75.5q0 47 18.5 87t49 68.5t70 44.5t80.5 16t76.5 -14.5t61 -40t40 -60t14.5 -74.5zM697 1571q0 21 -7 40.5t-20.5 34t-32.5 23t-41 8.5q-23 0 -43.5 -9t-37 -26 t-26 -38.5t-9.5 -47.5q0 -21 7.5 -40.5t21 -33.5t33 -23t41.5 -9t43 9t36.5 26t25 39t9.5 47z" />
<glyph unicode="&#xe0a2;" horiz-adv-x="1019" d="M1087 1655q-41 -69 -98 -106.5t-124 -37.5q-50 0 -85 17.5t-63.5 38t-55 37.5t-60.5 17q-18 0 -35.5 -5.5t-34.5 -17.5t-33 -29.5t-32 -40.5l-76 59q40 69 96 106.5t124 37.5q51 0 86 -17t63.5 -38t54.5 -38t60 -17q35 0 68.5 23t66.5 70l78 -59v0z" />
<glyph unicode="&#xe0a3;" horiz-adv-x="833" d="M901 1739q-10 -47 -33 -90t-61 -76.5t-90 -53t-118 -19.5q-65 0 -107.5 20t-66.5 53.5t-30 76.5t4 89h98q-6 -26 -1 -49.5t20 -41t40.5 -28t61.5 -10.5q34 0 63 8.5t51 25.5t37 41t21 54h111v0z" />
<glyph unicode="&#xe0a4;" horiz-adv-x="580" d="M679 1602q0 -22 -8.5 -41.5t-22.5 -33.5t-32.5 -22t-39.5 -8t-38 7.5t-29.5 20.5t-20 30t-7.5 36q0 22 8.5 41.5t22.5 33.5t32.5 21.5t39.5 7.5t38 -7t29.5 -20t20 -30t7.5 -36z" />
<glyph unicode="&#xe0a5;" horiz-adv-x="572" d="M710 1349q0 -21 -8 -40t-21.5 -33t-32 -21.5t-39.5 -7.5q-20 0 -37.5 7.5t-30 20.5t-19.5 30.5t-7 35.5q0 22 8 40.5t22 32.5t32 21.5t39 7.5t38 -7.5t29.5 -20.5t19.5 -30t7 -36zM361 1349q0 -21 -8 -40t-22 -33t-32 -21.5t-39 -7.5t-38 7.5t-30 20.5t-20 30t-7 36 q0 22 8 40.5t21.5 32.5t32 21.5t39.5 7.5q20 0 37.5 -7.5t30 -20.5t20 -30t7.5 -36z" />
<glyph unicode="&#xe0ae;" horiz-adv-x="858" d="M995 1542l-250 -285l-84 59l226 299z" />
<glyph unicode="&#xea43;" horiz-adv-x="2368" d="M1918 -70q-9 -12 -22.5 -16.5t-28.5 -6t-29 -4t-25 -9.5q-17 -2 -34 -4.5t-32 -8.5t-27 -16.5t-19 -28.5q-9 -21 -21.5 -40.5t-23.5 -39.5t-17 -41.5t-2 -46.5q2 -9 8.5 -12.5t14.5 -4t16.5 1t14.5 3.5q4 0 6.5 3t5.5 6t7 4.5t9 -1.5t4.5 -6t-3.5 -6t-7 -6.5t-5 -7.5 q-17 -11 -37.5 -15.5t-40.5 4.5q-14 16 -22.5 34t-1.5 40q2 8 6.5 19.5t13 29.5t22.5 43t35 60q-16 7 -32 6t-32.5 -4.5t-32.5 -5.5t-32 4q9 12 25.5 17.5t30.5 10.5q13 3 28 3t29 1.5t26 6.5t20 18q7 11 9 22.5t2.5 23t0 24t1.5 24.5q-10 3 -9.5 11.5t0.5 13.5 q-11 23 -28.5 34.5t-39.5 17t-44.5 6t-43.5 1.5q-23 -2 -45 -11t-41.5 -23.5t-35 -33t-24.5 -38.5q-15 -32 -13 -65.5t15 -67.5q-5 -25 4 -47t19 -44.5t14 -46t-9 -51.5q-11 -9 -26 -8t-27 6q-13 7 -19.5 19t-10 26.5t-5.5 29t-7 27.5q9 6 12 15.5t4 19.5t3 19.5t8 17.5 q4 11 3 27t-15 22q-18 -2 -37.5 -2.5t-39.5 -2t-38 -6.5t-34 -17q2 -22 4 -45.5t0 -46t-10.5 -42t-28.5 -34.5q-13 -3 -25 -0.5t-25 8.5q-10 9 -13.5 20t-3.5 23.5t2 25.5t2 25q9 15 16.5 32t17 32.5t22 28t30.5 18.5q14 -10 33 -6.5t35 8.5l100 2q4 4 6 11t3 14t1.5 14.5 t2.5 13.5q10 29 28 56.5t41 48.5t51.5 35t60.5 16q34 3 67 1t63 -18q1 -11 8 -16.5t14.5 -10t14.5 -10t9 -16.5q8 -15 10.5 -32.5t1 -35.5t-6 -36.5t-7.5 -34.5q46 0 91 8t87 16zM1087 -111q-9 -6 -17 -3t-16 7.5t-16.5 7.5t-17.5 -3q-14 -9 -20.5 -22t-10.5 -26.5 t-8.5 -26.5t-13.5 -24q-4 -28 -11.5 -54t-8.5 -52q-6 -3 -12.5 -7t-16.5 -1q-6 7 -6.5 17t1 19.5t4 19t1.5 17.5q9 9 11.5 21t2.5 24t1 23.5t7 21.5q-2 6 -3 13t-1 14t-0.5 13.5t-1.5 11.5q-5 1 -8.5 -0.5t-7 -3.5t-7.5 -2.5t-8 4.5q4 12 11.5 20t18.5 16q17 0 24 -12 t13 -24q8 3 15.5 12t15.5 16t16.5 9t19.5 -9zM818 -18q-3 -51 -2 -103t0.5 -103.5t-4.5 -101.5t-17 -97t-36.5 -90t-64.5 -81q-66 -40 -144.5 -49.5t-152.5 10.5q-8 5 -16 12.5t-7 16.5q5 20 13.5 40.5t33.5 28.5q-7 -17 -15.5 -33t-11.5 -34q25 -17 58.5 -23t68.5 -3.5 t69 12t61 24.5q30 10 47.5 28.5t29 41t20 47t19.5 45.5q8 36 12 75.5t7 79t3.5 76.5t0.5 68q4 11 4 23.5t-1.5 25.5t-2 25.5t2.5 23.5q-3 11 -12 7.5t-12 -5.5q-9 -8 -14 -17l-10 -18t-10.5 -17.5t-13.5 -14.5q2 -15 -5 -24t-16 -16.5t-17.5 -15.5t-8.5 -22q-43 -47 -81 -95 t-73 -98q-8 -12 -15 -24t-23 -10q-10 13 -10.5 28.5t1.5 31t4.5 32t0.5 32.5q6 17 10.5 35.5t10.5 37t14.5 36.5t22.5 35q20 49 55 97t85 79q14 4 26.5 2t24 -7.5t22 -13t21.5 -14.5q9 11 15.5 24t9.5 25q25 -9 24 -41q-6 -5 -6 -8.5t1.5 -7.5t3 -8.5t0.5 -9.5zM1492 428 q-36 -5 -71 -16t-70 -21t-70 -16.5t-72 -3.5q-7 -6 -11 -23t-2.5 -33.5t10 -26.5t26.5 -3q4 4 6.5 10t4.5 13t6 12.5t10 7.5q8 -19 1 -36.5t-19 -31.5q-7 -4 -22 -4.5t-29 8.5t-23 31.5t-1 64.5q-5 7 -10 13.5t0 15.5q12 9 18 20t8.5 23t3.5 25t4 26q-3 2 -4 4.5t-4 4.5 q-18 -12 -30.5 -27.5t-23.5 -32t-22.5 -33.5t-25.5 -32q0 -15 -9 -26.5t-18.5 -22.5t-16.5 -23.5t-4 -28.5q-6 -6 -7.5 -15.5t-2.5 -19.5t-6 -17.5t-19 -8.5q-18 4 -23.5 15t-5.5 24.5t2.5 28t0.5 26.5q-2 19 0 36.5t4.5 34.5t4.5 33.5t0 34.5q-9 -5 -14.5 -13t-9.5 -16.5 t-9 -17.5t-12 -16q-11 -12 -20 -28.5t-20.5 -30.5t-26.5 -22t-36 -3q-11 17 -11.5 35.5t5.5 38t16.5 38t21.5 35.5q9 10 19.5 23.5t22.5 24t25.5 15.5t30.5 -1q10 -5 20 0q20 43 31 90.5t16 93.5l21 16q13 -4 15 -10.5t-1.5 -14t-7 -16t-2.5 -16.5q-9 -57 -22 -113t-20 -112 q-1 -15 -4 -30t-5.5 -29.5t-3 -29.5t4.5 -30q17 21 32.5 45t32 49t35 49t41.5 45q14 17 31 33t37 29q15 -13 29.5 -29.5t29.5 -27.5q-1 -19 -4 -41.5t1 -40.5q57 12 107 20.5t103 24.5q8 -5 12 -10.5t1 -16.5zM2198 1190q-1 29 -8 60t-21 59t-35 51t-51 37q12 18 25.5 16.5 t25 -12t22 -25.5t18.5 -24q31 -39 43.5 -85.5t11.5 -95.5t-13.5 -98t-32.5 -94q-16 -35 -38 -68t-50 -62t-61 -52.5t-70 -38.5q28 20 54.5 43.5t46.5 54.5q16 16 32.5 34t31 38t25 43t15.5 49q26 40 29.5 83.5t-0.5 86.5zM2008 983q-6 -15 -19 -30.5t-32 -20.5 q-15 5 -23 13.5t-17 21.5l5 28q6 -2 7 -6t2.5 -9t4 -10t8.5 -7q11 -4 19.5 6t13.5 16q10 47 4.5 92.5t-28.5 85.5l-13 -6q-26 -23 -48 -42t-37 -50l-16 -8q-29 -28 -50.5 -60t-47.5 -55q-12 -2 -17.5 3.5t-8 13.5t-3 17.5t-4.5 16.5q3 8 2 18.5t-7 16.5q-6 1 -9 -1.5 t-4.5 -6t-3.5 -7.5t-5 -5q-15 -16 -29.5 -23.5t-36.5 -9.5q-22 6 -27.5 18t-2.5 28t9.5 34t5.5 35q9 30 28.5 53.5t42.5 48.5q10 2 22 6.5t23.5 6t21.5 -1.5t19 -15l8 -12q-13 -35 -17 -73t-10 -75q1 -6 4 -13t11 -7q12 0 18 5.5t11 13t9 16t11 14.5q46 38 86 78.5t79 81.5 q12 -5 16.5 -16t5.5 -24t1.5 -25.5t6.5 -21.5q10 -5 5 -16q14 -31 13 -64t-7 -67zM1743 1384q-7 -11 -20.5 -20.5t-29.5 -7.5q-3 6 -8 13.5t-16 -1.5q-30 -23 -60 -47.5t-56.5 -51.5t-47.5 -57.5t-34 -64.5q-8 -42 -13 -86.5t-0.5 -87.5t21 -80.5t50.5 -65.5q9 -8 20 -10.5 t23 -2.5t25 1t25 0q12 8 22 17.5t22 17.5q1 -9 -3.5 -15.5t-11.5 -11.5t-15 -9.5t-14 -10.5q-32 -13 -67 -5t-59 29q-22 20 -35 43.5t-17 51.5q-10 4 -10 9.5t2.5 12t3 12.5t-6.5 11q5 7 3 14t-4.5 14.5t-3.5 15.5t5 17q0 61 21 114t55.5 98.5t78.5 85.5t90 75q7 1 18 3.5 t21 2.5t17 -4.5t9 -18.5zM1357 1020q-7 -17 -19.5 -32.5t-28 -27.5t-33.5 -19t-38 -7q-40 0 -76 15.5t-53 49.5q-15 23 -14 49t7 54q2 9 6.5 16.5t9.5 14t9 14t5 16.5q29 23 63 30t69 -5q8 -6 15.5 -9t6.5 -16q-3 -4 -6.5 -3t-7.5 3.5t-9 5t-10 2.5q-27 8 -54 -1.5 t-48 -30.5q-17 -25 -26.5 -54.5t1.5 -58.5q42 -60 108 -70q10 4 20.5 5.5l21 3t20 6t17.5 14.5q6 4 10.5 11.5t9 14t10 10t14.5 -0.5zM1040 963q-12 -25 -20.5 -50.5t-27.5 -48.5q-14 -6 -25.5 1t-17.5 20q-13 35 -17.5 75t3.5 78q-3 2 -1.5 17t3.5 33.5t2.5 36t-5.5 26.5 q-14 -31 -16 -63.5t-4 -64t-10 -62t-33 -56.5q-4 -3 -15 -6t-24.5 2.5t-25.5 23.5t-17 58q8 38 11.5 74t10.5 73q1 7 -1 14.5t-3 15t0 15t10 13.5q6 3 13.5 0.5t11.5 -8.5q1 -32 -3.5 -65.5t-8 -65t-3 -59.5t11.5 -48q14 -10 21.5 -4t11 18t5.5 25t7 18q5 21 6.5 43 t2.5 43.5t3.5 43t9.5 42.5q5 6 9.5 15.5t9.5 17t12.5 10t18.5 -5.5q13 -40 12.5 -78.5t-3 -76.5t-3.5 -77t11 -79q2 -6 9 -8t13 6q1 1 4.5 11.5t9.5 23t14 23t17 10.5zM719 901q-4 -3 -8 -7t-20 -8.5t-49.5 -9.5t-94.5 -10q-70 -6 -133 -17.5t-129 -33.5q-6 -11 -13 -14 t-15 -2t-16 5l-14 7q-1 9 3.5 15t11 11t12.5 10t8 13q13 25 23 49.5t19 48.5q-3 13 5 27t15 27q48 103 92.5 208.5t72.5 217.5q-2 12 -1 23.5t9 19.5q6 2 10 0.5t6.5 -5t4.5 -7.5t5 -7q-16 -79 -45.5 -153.5t-62.5 -147t-65.5 -146t-54.5 -151.5l4 -4q77 13 150 27t154 16 q24 -5 55 -4t56 10zM1417 -315q7 13 8 27.5t-2 29t-9 28t-13 25.5q-10 -12 -13.5 -26.5t-5.5 -28.5q1 -9 2.5 -18t5.5 -16.5t10 -13.5t17 -7zM1148 -188q-6 -23 -9.5 -48t3.5 -47q6 -6 17 -5.5t20 7t14 18t-2 27.5q3 9 6 23t2.5 27t-5 23.5t-17.5 12.5zM744 -12 q-2 11 -10.5 17.5t-19 8.5t-22.5 1t-21 -5q-21 -18 -44 -38.5t-40 -43.5q-11 -32 -26 -62t-28.5 -60.5t-21.5 -62.5t-5 -67q5 -2 7 2t5 7q29 37 61.5 72t63.5 71.5t58 75.5t43 84zM1223 426q2 5 5.5 13t4 15.5t-1.5 13t-11 7.5l-11 -59q11 2 11 4.5t3 5.5zM942 471 q-14 3 -27 -6.5t-21 -22.5q-11 -14 -22 -29.5t-18.5 -32t-10 -33.5t3.5 -34q11 -5 15.5 1.5t7.5 13.5q22 23 41 47t34 55zM1716 1178q-5 4 -8 2.5t-5.5 -4t-5.5 -5t-6 -0.5q-24 -11 -39.5 -29.5t-24.5 -40.5t-13 -46t-4 -47q7 -2 13 1t12 7t12 6.5t13 1.5q5 14 17.5 29 t22.5 31.5t13 33t-10 33.5q6 0 8.5 3t3.5 7.5t1 9v7.5z" />
<glyph unicode="&#xeeee;" horiz-adv-x="358" d="M358 2007v-2662h-358v2662h358z" />
<glyph unicode="&#xf000;" horiz-adv-x="1966" d="M1802 1169q0 -8 -4 -8q-22 3 -43 0.5t-43 -4.5q-35 -2 -61 -3t-47.5 -2.5t-39.5 -3.5t-36 -5q-8 -7 -10.5 -15.5t-3.5 -17t-2 -17.5t-5 -18q0 -9 3.5 -16t5.5 -15q5 -6 12.5 -9t15.5 -5q14 2 27.5 8t19.5 19q0 8 -4 13.5t-10 10.5q-5 4 -10.5 5t-11 1t-10.5 1.5t-9 7.5 q6 10 19.5 8t25.5 -2q11 -3 18.5 -12t12.5 -21q-2 -17 -12 -30.5t-25 -24.5q-11 -3 -21.5 -5t-21.5 -5q-25 6 -51 16t-41 33q-4 12 -3.5 23t2 22t4 22t3.5 23q-5 9 -13.5 7.5t-17.5 0.5l-67 -2q0 3 -2.5 4t-2.5 4q7 5 15 4.5t14 1.5q19 -3 39 -1.5t39 1.5q8 6 9 16t1 19 q6 14 7 32.5t12 29.5q5 3 9 2t7 -4t6 -7t6 -6q6 -8 6.5 -16.5t0.5 -18.5v-20t4 -19q4 -6 9.5 -7.5t11.5 -1l12 1t12 -0.5q24 1 48 1.5t52 1.5t60 3t71 7q3 -2 4.5 -2.5t3.5 -4.5zM1327 1028q-25 0 -52.5 -1t-51.5 -9q-8 3 -15 5t-12 11q5 28 7.5 57.5t-5.5 57.5 q-5 6 -13.5 0.5t-15.5 -8.5q-14 -9 -28 -19t-26 -22t-20 -26.5t-10 -31.5q-8 -8 -18.5 -11.5t-19.5 1.5q-6 7 -6.5 15t0 16t1.5 16.5t-2 16.5l-2 63q-6 6 -16 3.5t-21 0.5q-2 1 -6 1.5t-7.5 1t-6 2t-2.5 6.5q26 -2 52.5 2.5t53.5 -0.5q6 -6 6.5 -14t0 -16.5t1.5 -15.5 t11 -10q28 13 53.5 30t52.5 28q6 -4 14 -4h15t12.5 -2.5t8.5 -12.5q5 -22 3.5 -43.5t0.5 -44.5q3 -6 2.5 -12.5t5.5 -11.5q8 -2 14 -3t12 3q8 0 16 -2.5t19 -2.5q2 -2 2.5 -4.5t-2.5 -5.5zM915 1145q8 -38 -14 -64q-11 -7 -21 -15.5t-20 -16.5t-21 -14t-24 -7q-6 2 -9 -0.5 t-5 -6t-4.5 -5.5t-8.5 2q-11 8 -24.5 4t-26.5 -2q-12 0 -22 0.5t-21 5.5q-8 7 -16 14.5t-14.5 16.5t-9 20t2.5 23q7 18 18.5 34t31.5 27q21 11 44.5 22t51.5 5q16 -1 33 -2.5t32 -6t27 -12.5t20 -22zM926 1360q-11 -13 -27.5 -17.5t-32.5 0.5q-9 13 -17.5 24.5t-10.5 25.5 q-13 21 -31.5 32.5t-40 18.5t-44.5 11.5t-44 10.5l-64 4q-5 -5 -12.5 -3t-13.5 -1q-35 -11 -61.5 -20.5t-51.5 -22.5q-6 -8 -15 -14t-17 -12.5t-15 -14.5t-8 -20q-13 -31 -17 -69.5t-6 -73.5q10 -8 22 -5.5t23 0.5q44 5 87 5h89q4 -2 4.5 -7t-1.5 -8q-9 -6 -16.5 -5t-15.5 4 t-15.5 5.5t-16.5 -0.5q-20 2 -42 -1t-42 -1q-18 -3 -38 -4t-36 -10l-6 -8q-2 -19 -2 -34v-29.5t1 -30t3 -35.5q1 -7 0.5 -14.5t-0.5 -14.5t1.5 -14.5t6.5 -14.5q26 -2 41.5 -1.5t29 2t29.5 3.5t42 3q6 5 13 2t13 -5q2 -2 1 -4t1 -4l-8 -4q-24 4 -42.5 3.5t-37.5 -3t-41 -4.5 t-53 0q-22 -2 -46.5 -4t-47.5 0q-32 -2 -67 -2t-64 8l-4 6q3 3 8 6t10 5q16 -8 37 -10t43 -5q14 2 28 1t25 7q-1 26 2 49t6.5 45t8 45.5t6.5 51.5q-2 4 -6 8q-31 1 -59 -0.5t-56 10.5q-2 5 0.5 8t5.5 3q28 -8 57.5 -8.5t57.5 1.5l4 7q5 34 11.5 70.5t19.5 64.5v6 q46 54 107 86.5t136 40.5q38 5 75 -4t69 -23q9 -3 20 -3t21 -5q35 -8 69.5 -24.5t57.5 -47.5q3 -3 2.5 -8t-2.5 -10zM1571 -127q-23 1 -48.5 -1t-52 -4.5t-51.5 -4t-47 1.5q-57 2 -112.5 -1t-110.5 -7t-110 -5t-111 5q-51 -8 -99 -3.5t-98 9.5q-60 5 -122.5 3.5t-125.5 -1.5 q-21 0 -47.5 -0.5t-54.5 -2.5t-54.5 -5t-47.5 -9q-8 -2 -17 -1.5t-14 10.5q0 32 -2.5 66.5t8.5 66.5q3 40 1.5 81.5t4.5 82.5q-4 23 -3.5 45.5t2 45t2.5 45.5t-3 46q0 66 5.5 132.5t8.5 135.5q5 74 2 146.5t0 146.5q4 9 10.5 11t13.5 2t15 -0.5t15 1.5q8 -5 18 -5.5 t19.5 0.5t19.5 2.5t18 0.5q7 7 16 11.5t11 -9.5q3 -5 0.5 -12t5.5 -12q-4 -29 -3 -78.5t4 -107t7 -117t7 -109.5q32 10 61.5 25t58 31.5t57 32t60.5 26.5q11 5 20 12t23 12q3 2 8 7t13 0q10 -5 8 -15.5t-2 -19.5q-10 -28 -12.5 -61t2.5 -64q5 -9 13.5 -5.5t14.5 3.5 q17 14 35 23t35 22q20 12 41 23.5t43 19.5q25 17 48.5 33.5t49.5 25.5l41 33q3 8 12 14q7 0 12 -3.5t11 -8.5q0 -29 6 -58.5t6 -58.5q2 -6 6 -4.5t6 -3.5q8 -11 3.5 -21.5t-7.5 -19.5l4 -4q35 8 65 26.5t59.5 39t59 39t64.5 26.5q10 9 22 12.5t23 14.5q10 1 19 8.5t18 14 t19 8.5t22 -7q3 0 7.5 -1.5t6.5 -6.5q-2 -8 2 -13t7 -11q-2 -8 -1.5 -15.5t1 -14t0.5 -13.5t-4 -13q1 -13 0 -26t-1 -25.5t2.5 -24t8.5 -22.5q-2 -7 0.5 -13t4.5 -12t2.5 -11.5t-3.5 -10.5q2 -16 0.5 -29.5t7.5 -25.5q2 -10 3 -19.5t-5 -17.5q5 -23 5.5 -47.5t8.5 -47.5 q-5 -8 -2.5 -16t2.5 -16q0 -39 3.5 -76t8 -74t8.5 -74.5t5 -76.5q0 -3 2.5 -8.5t-0.5 -10.5zM870 1104q-5 22 -16 43.5t-37 26.5q-3 -11 -12.5 -8.5t-16.5 1.5q-14 7 -28.5 3t-24.5 -15q-11 -15 -11.5 -30t5 -29.5t14 -28.5t17.5 -27q3 -8 9.5 -6t14.5 0q14 -5 26.5 2.5 t25.5 12.5q6 6 13.5 11.5t13.5 11.5t8.5 13.5t-1.5 18.5zM1513 -20l-16 34t-20 31q-13 22 -27.5 42t-17.5 46q-5 9 -10.5 17.5t-2.5 17.5q14 17 34 27.5t34 25.5l-19 35q-18 -2 -33 -8.5t-30 -11.5q-4 -3 -8.5 -7t-9.5 -6.5t-10.5 -2.5t-10.5 5q2 41 3 81.5t-1 78.5l-4 6 q-16 0 -28.5 5t-26.5 10q-3 -23 -6.5 -48.5t0.5 -50.5q-3 -8 -3 -18.5t1 -21t1 -21t-4 -19.5q2 -32 0.5 -57t-3 -49t-2 -49t2.5 -56l-2 -14h49q7 2 13.5 -2t11.5 2v28t-2 29q1 8 -1.5 17t-3.5 17t1.5 14.5t13.5 9.5q11 -5 11.5 -14t7.5 -17q-1 -7 1.5 -13t6 -11.5l7 -11 t5.5 -11.5q10 -6 17 -14.5t13.5 -18t13.5 -19t16 -16.5q6 2 11.5 -2.5t14.5 -1.5q5 0 8.5 4t3.5 9zM1245 367q-3 9 -8 17t-16 13q-5 5 -11.5 6t-9.5 -6q-9 -12 -13 -30.5t5 -30.5q3 -11 15.5 -12t23.5 4q9 6 12.5 17t1.5 22zM1249 31q0 40 -2 79t-2 76q0 14 1.5 27.5 t-1.5 26.5q-7 5 -14 5.5t-14 -1t-14.5 -3.5t-14.5 -1q-7 -12 -9 -24.5t-1.5 -25.5t1 -26.5t-0.5 -26.5q-5 -11 -5 -25t-2 -28q3 -10 2.5 -21.5t-0.5 -23.5t2 -23.5t9 -21.5q15 0 31 2.5t30 7.5q3 6 3.5 13.5t0.5 13.5zM1147 252q-16 -2 -33.5 -5t-28.5 -22q-4 -4 -5.5 -10.5 t-4 -13t-7 -10t-13.5 -1.5q-5 16 -4.5 29.5t0.5 30.5q-4 2 -8 1.5t-8 -1.5t-7.5 -1.5t-7.5 1.5q-9 -5 -14.5 -12t-8.5 -15q0 -60 1 -114t8 -113l6 -8q5 -4 11.5 -4t13 1t12 2t10.5 -1q-3 11 -2.5 21.5t1.5 21t1 20.5t-4 21q5 23 11 46.5t21 43.5q13 9 27 12t27 14 q2 17 6.5 33t-0.5 33zM938 61q9 18 12 36t1.5 37t-5.5 38t-8 39q1 6 -5.5 11.5t-15.5 11t-18 9.5t-12 7t-9 3.5t-8 -5.5q-22 3 -39 -8q-11 -7 -15.5 -16.5t-12.5 -14.5q-5 -3 -10.5 -1t-8.5 7q8 37 4 75t-10 77l-4 14h-16q-9 -3 -12.5 -9t-4 -13.5t-0.5 -15t-2 -13.5 q-6 -34 -4 -69.5t-4 -70.5q3 -34 0 -67t0 -64q0 -18 -3 -35.5t-1 -37.5q14 -8 32 -2t32 12q10 4 16.5 1.5t11.5 -8t10 -12t11 -10.5h13t13 2q11 6 24 17t24 23.5t18 26t6 25.5zM682 70q-7 22 -6.5 45t1 45t-1.5 43.5t-13 40.5q-26 15 -48 24l-16 11q-9 -2 -17.5 -1.5 t-17 0.5t-17 -2t-16.5 -8q-14 -8 -14 -22.5t-2 -30.5q11 -5 24 -3.5t25.5 2.5t23.5 -1.5t19 -15.5q-1 -4 0.5 -7l3 -6t1.5 -5.5t-3 -6.5q-2 -3 -2.5 -8t4.5 -8q3 -5 1.5 -11t-7.5 -8q-14 -5 -28 -4t-29 -2q-23 -9 -34.5 -31.5t-16.5 -44.5q-3 -5 -3 -10.5t1 -11t1.5 -11 t-3.5 -10.5q0 -14 9.5 -22t20.5 -13q3 4 7.5 7t9.5 -2q8 -3 15.5 0t14.5 8.5t14 12t15 11.5q11 2 13 -2t1.5 -11t-1 -15t4.5 -13q10 -5 17 -0.5t16 4.5q8 4 16.5 5.5t14.5 7.5zM508 371q-25 5 -53 3.5t-54 -3.5q-15 -2 -29.5 -5.5t-25.5 -11.5q-2 -32 -6.5 -66.5t-7.5 -66.5 q5 -54 3 -111.5t1 -113.5q8 0 15 2.5t14 -0.5q12 3 23 -1.5t24 1.5q2 32 2 64.5t2 64.5q5 11 14 15.5l19 9.5q4 2 8 1.5l8 -1t7.5 0t6.5 5.5l-2 57q-8 9 -19 8.5t-24 -0.5q-3 -3 -6 -5.5t-8 -2.5q-8 1 -11 6.5t-4 12t-1 14t-3 12.5q-3 6 0.5 11t8.5 10q20 6 39.5 9.5 t39.5 6.5l13 8q-3 19 1.5 34t4.5 32zM881 158q14 -29 7.5 -60t-26.5 -53q-5 -8 -11.5 -9.5t-12.5 -4.5q-13 1 -19.5 8.5t-9.5 17.5t-4.5 21t-3.5 20q5 16 6 34t10 32q7 4 11.5 10l9 12t9.5 10.5t13 4.5l6 -6q-2 -7 -0.5 -12t5 -8.5t6.5 -7.5t4 -9zM604 86q0 -15 -9 -26.5 t-20 -20.5q-8 -2 -15.5 -8t-18.5 0q-7 1 -9 5.5t-1 9.5t3 11t3 11q0 6 5 11.5t13 8.5q12 0 20 8q7 -2 15.5 -1.5t13.5 -8.5z" />
<glyph unicode="&#xf6c9;" horiz-adv-x="776" d="M416 1492l-28 92l371 150l36 -124z" />
<glyph unicode="&#xf6ca;" horiz-adv-x="875" d="M629 1489l-288 167l54 94l246 -132l286 132l41 -89z" />
<glyph unicode="&#xf6cb;" horiz-adv-x="1063" d="M1045 1597q0 -21 -8 -39t-21.5 -31.5t-31.5 -21t-38 -7.5t-37 7.5t-29 20t-19.5 29t-7.5 36.5q0 21 8 39t21.5 31.5t31 21t38.5 7.5q20 0 36.5 -7t29 -20t20 -29.5t7.5 -36.5zM619 1597q0 -21 -8 -39t-21.5 -31.5t-31.5 -21t-38 -7.5t-36.5 7.5t-29 20t-20 29t-7.5 36.5 q0 21 8 39t21.5 31.5t31.5 21t38 7.5t37 -7t29.5 -20t19.5 -29.5t7 -36.5z" />
<glyph unicode="&#xf6ce;" horiz-adv-x="738" d="M725 1492l-374 118l59 124l353 -150z" />
<glyph unicode="&#xf6cf;" horiz-adv-x="1008" d="M806 1491l-43 84l310 182l55 -106zM434 1493l-50 82l300 203l64 -104z" />
<glyph unicode="&#xf6d0;" horiz-adv-x="863" d="M895 1538h-541l23 111h540z" />
<glyph unicode="&#xf8ff;" horiz-adv-x="2131" d="M1628 1249q-7 7 -13 14t-12.5 14t-13.5 13.5t-14 12.5l159 176q20 -16 38 -34t33 -38zM1839 702q1 18 1 38t-1 37l240 14q2 -26 2 -51.5t-2 -51.5zM1105 1478q-20 2 -39.5 1.5t-37.5 -1.5l-13 238q27 1 52.5 1t49.5 -1zM557 1301l-14 -12t-14 -12.5t-13.5 -13.5 t-12.5 -13l-178 160q17 19 34.5 37t37.5 34zM1549 738q0 -53 -10.5 -102t-30 -92.5t-44.5 -79.5t-54 -64v-157l-33 -10l63 -152l-60 -14l60 -145l-61 -16l22 -52l-59 -134h-101q-2 -19 -17 -34.5t-38.5 -27.5t-54 -19t-65.5 -7q-36 0 -67 7t-54.5 19t-37.5 27.5t-16 34.5 h-101l-98 240l61 17l-62 151l68 18l-38 94v159q-30 30 -55 67.5t-44 81t-29.5 91.5t-10.5 99q0 101 38 189t103.5 154t153.5 104t189 38q100 0 187.5 -38t153.5 -104t104 -154t38 -189zM51 688q-1 26 -1 52t1 51l242 -14q-1 -18 -1 -37.5t1 -37.5zM1090 793q3 -12 -7 -21 q3 0 5 3.5t3.5 7t1 7t-2.5 3.5zM1085 786q-4 0 -4 -1.5t0.5 -3t0.5 -2.5t-3 -1v-2q5 0 5.5 1t-0.5 2.5t-1.5 3t2.5 1.5v2zM1077 786q-4 1 -6 -2t-2.5 -5.5t1 -3t5.5 4.5l-2 -4h2zM1071 793q-2 0 -4 -3.5t-3.5 -7t-1 -7t2.5 -3.5q-3 10 6 21zM1460 738q0 82 -31 154.5 t-84.5 126t-125 85t-153.5 31.5t-154 -31.5t-125.5 -85t-84.5 -126t-31 -154.5q0 -86 35 -165t104 -136h128l-31 287q-22 -5 -41.5 -10.5t-36.5 -10.5q-8 -3 -14 1.5t-9.5 12.5t-5.5 18t-1 19.5t3.5 16t8.5 9.5q60 19 125 31t130 12q67 0 131.5 -12t124.5 -31q5 -3 8 -9.5 t4 -15.5t-1 -19.5t-6 -18.5t-10 -12t-14 -2q-16 5 -36 10.5t-43 10.5l-29 -287h128q27 24 51.5 56t44 70t30.5 82t11 93zM1061 786q-2 1 -4 -1t-3 -4t0 -4t5 -1v2q-5 -2 -3 3t5 3v2zM1051 786l-2 -6q-2 -4 -2 0l2 6h-2l-3 -6q-2 -5 1.5 -4t5.5 4l2 6h-2zM1042 778h-4l4 13 h-2l-4 -13q0 -2 2 -2h4v2zM1159 736q-19 4 -42.5 6t-50.5 2q-26 0 -50 -2t-42 -6l28 -299h129zM1326 365h-520v-118l33 -81l487 124v75zM1297 213l-499 -129l35 -86l501 125zM1298 45l-500 -127l54 -132h430l30 72l-15 31l-156 -40l-23 61l216 54z" />
<glyph unicode="&#xfb00;" horiz-adv-x="1306" d="M1530 1359q-39 11 -73.5 16.5t-74.5 5.5q-58 0 -104 -16.5t-81 -52.5t-58.5 -91.5t-37.5 -132.5l-11 -70h293l-24 -120h-293l-183 -968q-24 -127 -70 -213.5t-111.5 -139t-148.5 -75.5t-180 -23q-80 0 -159.5 16t-157.5 49q-27 -18 -55 -31.5t-59 -21.5t-64.5 -12 t-70.5 -4q-45 0 -90 4.5t-87 13.5l38 133q39 -13 80 -17.5t75 -4.5q59 0 105 16.5t81 55.5t61 103t45 158l184 961h-210l23 120h211l11 60q37 206 162.5 315t341.5 109q81 0 156.5 -15.5t154.5 -49.5q50 34 115 51.5t138 17.5q45 0 83.5 -4.5t81.5 -13.5zM1049 1330 q-57 27 -114 37.5t-111 10.5q-147 0 -231.5 -75t-107.5 -216l-12 -69h466l13 70q13 75 37.5 135.5t59.5 106.5zM450 898l-183 -955q-18 -94 -44.5 -164t-63.5 -122q52 -26 113.5 -38t119.5 -12q71 0 126.5 17.5t97 55t69.5 97t45 144.5l186 977h-466z" />
<glyph unicode="&#xfb01;" horiz-adv-x="1205" d="M112 1018h211l9 51q38 218 167.5 327.5t361.5 109.5q40 0 76.5 -3t70 -8t65.5 -11.5t61 -14.5l-52 -129q-26 9 -56 17t-60.5 13t-61 8t-55.5 3q-80 0 -142 -19.5t-106.5 -57t-72.5 -92.5t-41 -125l-14 -69h618l-170 -896q35 -6 79 -11.5t87 -8.5l-17 -88 q-33 -4 -73.5 -7.5t-83.5 -5.5t-86 -2.5t-81 1.5l171 898h-467l-183 -955q-24 -127 -64.5 -215.5t-98 -145t-132 -82t-165.5 -25.5q-45 0 -90 4.5t-87 13.5l38 133q39 -13 80 -17.5t75 -4.5q59 0 105 16.5t81.5 55.5t61.5 103t44 158l185 961h-210z" />
<glyph unicode="&#xfb02;" horiz-adv-x="1209" d="M923 122q34 -6 79 -11.5t88 -8.5l-17 -88q-33 -4 -73.5 -7.5t-83.5 -5.5t-86 -2.5t-82 1.5l260 1366q-48 9 -92.5 13t-86.5 4q-146 0 -227.5 -61.5t-107.5 -195.5l-21 -108h290l-25 -120h-288l-183 -955q-24 -127 -64.5 -215.5t-98 -145t-132 -82t-165.5 -25.5 q-45 0 -90 4.5t-87 13.5l38 133q39 -13 80 -17.5t75 -4.5q59 0 105 16.5t81.5 55.5t61.5 103t44 158l185 961h-210l22 120h211l21 114q19 91 58.5 161t101.5 117.5t146.5 71.5t191.5 24q93 0 177.5 -7t159.5 -20z" />
<glyph unicode="&#xfb03;" horiz-adv-x="1819" d="M1686 14q-35 -4 -75.5 -7.5t-83.5 -5.5t-86 -2.5t-81 1.5l171 898h-465l-183 -968q-24 -127 -70 -213.5t-111.5 -139t-148.5 -75.5t-180 -23q-80 0 -159.5 16t-157.5 49q-27 -18 -55 -31.5t-59 -21.5t-64.5 -12t-70.5 -4q-45 0 -90 4.5t-87 13.5l38 133q39 -13 80 -17.5 t75 -4.5q59 0 105 16.5t81 55.5t61 103t45 158l184 961h-211l24 120h211l11 60q37 206 162.5 315t341.5 109q83 0 167.5 -17.5t162.5 -52.5q60 38 139.5 56t167.5 18q40 0 76.5 -3t70.5 -8t65.5 -11.5t60.5 -14.5l-56 -127q-25 9 -54.5 16.5t-59.5 12.5t-59.5 7.5t-55.5 2.5 q-152 0 -243 -73t-119 -230l-11 -60h615l-170 -896q17 -3 37.5 -6t42 -5.5t44 -5t43.5 -3.5zM1058 1325q-61 30 -120.5 41.5t-113.5 11.5q-147 0 -231.5 -75t-107.5 -216l-12 -69h466l9 54q13 75 41.5 140t68.5 113zM450 898l-183 -955q-18 -94 -44.5 -164t-63.5 -122 q52 -26 113.5 -38t119.5 -12q71 0 126.5 17.5t97 55t69.5 97t45 144.5l186 977h-466z" />
<glyph unicode="&#xfb04;" horiz-adv-x="1820" d="M1536 122q17 -3 37 -6t42 -5.5t44.5 -5t42.5 -3.5l-16 -88q-34 -4 -74.5 -7.5t-83.5 -5.5t-86 -2.5t-81 1.5l260 1366q-47 9 -91.5 13t-86.5 4q-145 0 -226 -61.5t-107 -195.5l-20 -108h294l-25 -120h-292l-184 -968q-24 -127 -70 -213.5t-111.5 -139t-148.5 -75.5 t-180 -23q-80 0 -159.5 16t-157.5 49q-27 -18 -55 -31.5t-59 -21.5t-64.5 -12t-70.5 -4q-45 0 -90 4.5t-87 13.5l38 133q39 -13 80 -17.5t75 -4.5q59 0 105 16.5t81 55.5t61 103t45 158l185 961h-210l22 120h211l11 60q37 206 162.5 315t341.5 109q40 0 81 -4t82 -12 t80 -20.5t76 -27.5q59 33 133 50.5t167 17.5q92 0 176.5 -7t158.5 -20zM1047 1330q-59 28 -115 38t-108 10q-146 0 -230.5 -75t-108.5 -216l-11 -69h465l22 114q13 60 34 109t52 89zM450 898l-183 -955q-18 -94 -44.5 -164t-63.5 -122q52 -26 113.5 -38t119.5 -12 q71 0 126.5 17.5t97 55t69.5 97t45 144.5l186 977h-466z" />
<glyph horiz-adv-x="1414" d="M1381 900q0 -131 -28 -250t-79 -221.5t-123 -185t-160 -140.5t-188.5 -89.5t-209.5 -31.5q-123 0 -215 34t-152.5 98t-90.5 157t-30 212q0 125 26.5 242t76.5 219t120.5 186.5t157.5 144.5t189 93t214 33q119 0 210.5 -33.5t154 -97.5t95 -157.5t32.5 -212.5zM1248 -359 q-86 -12 -155 -8.5t-128 14.5t-111.5 26t-106 26.5t-112 16.5t-128.5 -5l24 134q81 11 145.5 6.5t120.5 -15.5t108.5 -25.5t108 -26t119 -15t141.5 6.5zM1213 883q0 88 -21.5 159t-64.5 120.5t-108.5 76.5t-154.5 27q-86 0 -163 -28t-143 -77.5t-119 -120t-90 -155t-57 -181 t-20 -199.5q0 -89 22 -160.5t65 -121.5t106.5 -77t147.5 -27q82 0 158.5 27t143 75.5t121.5 117.5t94.5 154t61 183.5t21.5 206.5z" />
</font>
</defs>
</svg>
