<?xml version="1.0" standalone="no"?>
<!DOCTYPE svg PUBLIC "-//W3C//DTD SVG 1.1//EN" "http://www.w3.org/Graphics/SVG/1.1/DTD/svg11.dtd" >
<svg xmlns="http://www.w3.org/2000/svg">
<metadata>
Copyright   : Copyright 2014 Luc(as) de Groot. All rights reserved. Published by LucasFonts.com
Designer    : Luc(as) de Groot
Foundry     : LucasFonts
Foundry URL : http://lucasfonts.com
</metadata>
<defs>
<font id="TheSerifB_300_" horiz-adv-x="1126" >
<font-face units-per-em="2048" ascent="1516" descent="-532" />
<missing-glyph horiz-adv-x="446" />
<glyph unicode=" "  horiz-adv-x="446" />
<glyph unicode="&#x09;" horiz-adv-x="446" />
<glyph unicode="&#xa0;" horiz-adv-x="446" />
<glyph unicode="!" horiz-adv-x="651" d="M399 315h-104l-27 1117h156zM444 82q0 -20 -7.5 -38t-21 -31.5t-31.5 -21t-38 -7.5t-38 7.5t-31.5 21t-21 31.5t-7.5 38t7.5 37.5t21 30.5t31.5 20.5t38 7.5t38 -7.5t31.5 -20.5t21 -30.5t7.5 -37.5z" />
<glyph unicode="&#x22;" horiz-adv-x="692" d="M549 991h-94l-25 436h143zM238 991h-95l-24 436h145z" />
<glyph unicode="#" d="M853 870l-39 -393h193v-88h-203l-42 -389h-104l43 389h-329l-42 -389h-105l42 389h-196v88h206l40 393h-197v87h206l41 374h103l-40 -374h329l40 374h104l-40 -374h193v-87h-203zM421 870l-40 -393h329l39 393h-328z" />
<glyph unicode="$" d="M217 363h80q5 -20 10 -47q5 -23 10 -58t9 -81q46 -10 96 -16.5t91 -6.5q63 0 119 13t96.5 41t64.5 72.5t24 105.5q0 56 -27.5 95t-72 68t-101.5 51t-117 45.5t-117 50t-101.5 64.5t-71.5 89.5t-27 124.5q0 65 26 119.5t72.5 96.5t111.5 69t144 36v236h101v-231 q69 -2 126.5 -8.5t105.5 -16.5v-281h-78q-4 20 -9 46q-5 23 -10 57.5t-10 81.5q-33 7 -72.5 10.5t-77.5 3.5q-84 0 -141.5 -17.5t-92.5 -45t-50 -63.5t-15 -73q0 -56 27 -95t71.5 -67.5t101.5 -51.5t117 -45.5t117 -49.5t101.5 -64.5t72 -89.5t27.5 -126q0 -68 -23.5 -128 t-69 -106.5t-112.5 -77.5t-154 -44v-270h-101v265q-72 0 -141 9t-130 26v284z" />
<glyph unicode="%" horiz-adv-x="1522" d="M1422 310q0 -71 -20 -131t-58 -103.5t-93 -68t-126 -24.5q-74 0 -126 20.5t-85.5 60.5t-49 97.5t-15.5 130.5q0 68 19.5 127t58 102.5t93.5 68t126 24.5q72 0 124.5 -20t86 -59t49.5 -95.5t16 -129.5zM297 -40l-89 60l1013 1347l87 -60zM673 1044q0 -71 -20.5 -131 t-58 -103.5t-93 -68t-125.5 -24.5q-74 0 -126.5 20.5t-86 60.5t-49 97t-15.5 130q0 68 20 127.5t58 103t93 68.5t125 25q74 0 126.5 -20.5t86 -59.5t49.5 -96t16 -129zM1305 296q0 55 -9.5 97t-30.5 70t-54 42t-79 14q-37 0 -67.5 -15.5t-52.5 -44t-34 -67.5t-12 -87 q0 -55 9.5 -98t31 -71.5t54.5 -43t80 -14.5q36 0 66.5 16t52 45t33.5 69t12 88zM555 1030q0 55 -9.5 97t-30.5 70.5t-53.5 42.5t-79.5 14q-37 0 -67.5 -15.5t-52 -44.5t-33.5 -68.5t-12 -86.5q0 -56 9.5 -98.5t30.5 -71t54 -43t80 -14.5q37 0 67 16t51.5 44.5t33.5 68.5 t12 89z" />
<glyph unicode="&#x26;" horiz-adv-x="1665" d="M1362 0q-70 50 -135 100t-115 93q-53 -48 -113 -86.5t-128.5 -65.5t-146 -42t-161.5 -15q-102 0 -183.5 28.5t-137.5 81t-85.5 125t-29.5 158.5q0 71 21.5 132.5t61 115.5t93 104t127.5 107q-59 68 -97.5 120.5t-61 95.5t-32.5 81.5t-10 80.5q0 59 22 111.5t64.5 93 t105 63.5t140.5 23q72 0 128.5 -19.5t95 -55t58 -83.5t19.5 -104q0 -52 -14 -100.5t-45 -97.5t-81 -100t-122 -107q50 -54 111 -115.5t128 -125.5t136.5 -125.5t134.5 -113.5v-2q32 42 58 91.5t46 106t31 121t12 134.5q-43 3 -86.5 10t-83.5 17v71h476v-71 q-37 -11 -81.5 -17.5t-92.5 -9.5q-8 -153 -56.5 -286t-132.5 -238q68 -54 132 -101.5t120 -87.5q40 -5 75.5 -11.5t67.5 -14.5v-70h-233zM733 1227q0 37 -11 69t-33.5 56t-58 37.5t-83.5 13.5q-42 0 -77 -13t-60.5 -37.5t-39.5 -58t-14 -73.5q0 -29 9 -59.5t29 -67 t53.5 -81.5t82.5 -100q52 42 89.5 79.5t63 75t38 77t12.5 82.5zM1026 262q-69 58 -142 123.5t-142.5 131.5t-131 129t-108.5 116q-66 -51 -112 -97t-75 -90t-43 -88.5t-14 -91.5q0 -62 23.5 -117t67 -97t105.5 -65.5t136 -23.5q69 0 132.5 13.5t118 37t100.5 53.5t85 66z " />
<glyph unicode="'" horiz-adv-x="383" d="M238 991h-95l-24 436h145z" />
<glyph unicode="(" horiz-adv-x="616" d="M467 -420q-91 144 -150 279.5t-91 258t-44 234t-12 228.5q0 113 14 230t48 244.5t92.5 263.5t144.5 273l88 -47q-129 -218 -195.5 -461t-66.5 -491q0 -133 16 -258t49 -244.5t83 -234t118 -224.5z" />
<glyph unicode=")" horiz-adv-x="616" d="M461 594q0 -113 -14 -230.5t-48 -246t-92.5 -264.5t-144.5 -273l-88 49q129 218 195.5 461t66.5 492q0 265 -65 502.5t-199 457.5l92 49q91 -143 150 -278t91 -257.5t44 -234t12 -227.5z" />
<glyph unicode="*" horiz-adv-x="750" d="M594 1012l-193 131l17 -234h-103l17 234l-195 -131l-49 88l213 102l-213 101l51 90l195 -131l-17 233h103l-17 -233l193 131l49 -88l-211 -101l211 -102z" />
<glyph unicode="+" d="M624 554v-432h-122v432h-412v110h412v431h122v-431h412v-110h-412z" />
<glyph unicode="," horiz-adv-x="426" d="M207 180q30 0 53.5 -16.5t35 -48t9 -74.5t-24 -95.5t-64 -112.5t-107.5 -122l-60 51q45 49 71.5 92.5t35 79.5t4 63t-18.5 46q-11 14 -15.5 30t-2.5 31.5t9 29t18 24t25.5 16.5t31.5 6z" />
<glyph unicode="-" horiz-adv-x="670" d="M100 549v106h469v-106h-469z" />
<glyph unicode="&#xad;" horiz-adv-x="670" d="M100 549v106h469v-106h-469z" />
<glyph unicode="." horiz-adv-x="426" d="M311 84q0 -20 -7.5 -38.5t-21 -32.5t-31.5 -21.5t-38 -7.5t-38 7.5t-31.5 21.5t-21 32.5t-7.5 38.5t7.5 37.5t21 31.5t31.5 21.5t38 7.5t38 -7.5t31.5 -21.5t21 -31.5t7.5 -37.5z" />
<glyph unicode="/" horiz-adv-x="860" d="M145 -330h-120l716 1880h121z" />
<glyph unicode="0" d="M1011 681q0 -195 -41 -329t-106 -216t-147.5 -117.5t-167.5 -35.5q-72 0 -132 16.5t-108.5 52t-85 90t-60.5 131t-36.5 176t-12.5 225.5q0 175 35 302.5t96.5 210t145.5 122.5t184 40q59 0 115 -13t104.5 -43.5t88 -80.5t68 -124t44.5 -175t16 -232zM871 668 q0 154 -19 263t-57.5 177.5t-96.5 100t-137 31.5q-65 0 -120.5 -30t-97.5 -96t-65.5 -171t-23.5 -256q0 -96 6.5 -177t21.5 -147t39 -116.5t58 -84.5t79 -51.5t103 -17.5q72 0 129.5 38t97.5 110.5t61.5 180t21.5 246.5z" />
<glyph unicode="1" d="M165 0v117h373v1087l-348 -138l-26 121l398 144h111v-1214h329v-117h-837z" />
<glyph unicode="2" d="M129 0v103l359 353q64 63 111.5 113.5t81.5 93t55.5 79t34 71t17.5 69t5 72.5q0 59 -19.5 111t-58 90.5t-95 60.5t-130.5 22q-55 0 -112.5 -14.5t-107.5 -38.5q-5 -46 -11 -92.5t-16 -94.5h-79v275q39 18 79.5 32t83 24t87.5 15t92 5q103 0 182 -29t132.5 -79.5 t81 -120.5t27.5 -153q0 -65 -13.5 -124.5t-49.5 -123.5t-99.5 -138t-162.5 -168l-309 -293v-2q31 1 76 1.5t101.5 1t125 1t148.5 0.5h234v-122h-851z" />
<glyph unicode="3" d="M954 393q0 -91 -37.5 -166t-107.5 -129t-168.5 -83.5t-219.5 -29.5q-66 0 -130.5 8.5t-116.5 23.5l18 119q52 -19 115.5 -29.5t130.5 -10.5q89 0 159 19.5t118 56t73.5 87.5t25.5 113q0 63 -24.5 113.5t-71 86.5t-114 55t-152.5 19q-55 0 -98.5 -1.5t-95.5 -6.5v109h37 q117 0 208.5 16.5t154 51t95 86.5t32.5 123q0 52 -20 92t-55.5 68t-85.5 42.5t-110 14.5q-58 0 -109 -7t-90 -21q-5 -45 -11.5 -91t-15.5 -92h-78v263q31 12 67 22.5t75.5 18t83.5 11.5t92 4q97 0 170.5 -23.5t123 -65t74.5 -99t25 -123.5q0 -119 -70 -200.5t-198 -120.5h-2 q64 -6 119.5 -33.5t96 -71.5t64 -100.5t23.5 -118.5z" />
<glyph unicode="4" d="M835 330v-236q45 -2 89.5 -9t84.5 -18v-67h-481v67q40 11 85.5 18t92.5 9v236h-643l-9 97l605 904h176v-884h246v-117h-246zM707 1207h-2l-516 -766q36 2 82 3t95.5 1.5t100.5 1t96 0.5h82.5h61.5v760z" />
<glyph unicode="5" d="M953 430q0 -101 -38 -183t-107.5 -141t-167.5 -91t-219 -32q-64 0 -121 6t-116 20v125q28 -9 57.5 -16.5t61.5 -12.5t65 -7.5t68 -2.5q93 0 163.5 22.5t119 64t73.5 100t25 129.5q0 70 -27.5 122.5t-76.5 88t-119 53.5t-155 18q-32 0 -63.5 -1.5t-60 -4t-53.5 -5.5 t-43 -6v655h688v-125h-569v-410q32 2 70 3.5t65 1.5q119 0 209 -29.5t150.5 -79.5t90.5 -118t30 -144z" />
<glyph unicode="6" d="M1018 444q0 -103 -31.5 -187.5t-90 -145t-140.5 -94.5t-183 -34q-106 0 -189 38.5t-140.5 110t-87.5 172t-30 225.5q0 222 50.5 378.5t139.5 254t211 142t266 44.5q26 0 53.5 -1.5t43.5 -3.5v-116q-25 4 -52 5.5t-63 1.5q-114 0 -200.5 -33t-148.5 -96.5t-102 -155.5 t-59 -210q-3 -17 -7.5 -47t-9.5 -67h3q26 49 63 87.5t83 64.5t99.5 39.5t112.5 13.5q98 0 174.5 -30t128.5 -82.5t79 -122.5t27 -151zM886 418q0 66 -19.5 121.5t-56.5 96t-93 63t-131 22.5q-73 0 -131 -27t-98 -69.5t-61 -93t-21 -97.5q0 -70 20.5 -132.5t60.5 -109.5 t98 -74.5t135 -27.5q71 0 126 24t93 67t58 103.5t20 133.5z" />
<glyph unicode="7" d="M1009 1223q-84 -151 -162.5 -310t-149.5 -316t-132 -308.5t-111 -288.5h-151q56 142 119.5 292t133.5 304.5t147.5 310.5t161.5 308h-628q-3 -38 -11 -86.5t-21 -112.5h-84v315h888v-108v0z" />
<glyph unicode="8" d="M995 324q0 -76 -33 -138.5t-92 -108t-140.5 -70t-176.5 -24.5t-172.5 23t-133.5 65t-86.5 100.5t-30.5 131.5q0 67 26 121t69.5 99.5t100.5 82.5t118 70q-66 32 -118 66.5t-88 75.5t-55 89.5t-19 108.5q0 69 29 130t82 106t128.5 71t168.5 26q92 0 164 -23.5t121.5 -65 t76 -100t26.5 -128.5q0 -59 -23 -107.5t-61.5 -89t-89.5 -75.5t-106 -66q59 -30 116 -63.5t101 -77t71 -100t27 -129.5zM824 1021q0 54 -20 95t-55 69t-84 42t-106 14q-60 0 -107.5 -17t-81 -46t-51.5 -68t-18 -84q0 -48 15.5 -84.5t49 -68.5t84 -62.5t120.5 -64.5 q51 28 97.5 57t81 62t55 71.5t20.5 84.5zM856 310q0 63 -24.5 109.5t-67 83.5t-97.5 66t-114 56q-56 -30 -107 -62t-91 -69.5t-63.5 -81.5t-23.5 -98q0 -49 20 -90t58 -70.5t94 -46t129 -16.5q59 0 111.5 14.5t91.5 42.5t61.5 68.5t22.5 93.5z" />
<glyph unicode="9" d="M991 802q0 -153 -23.5 -273t-67 -211t-104.5 -155t-135.5 -104t-160.5 -58t-181 -18q-36 0 -73.5 3t-73.5 10v121q38 -9 82.5 -14t89.5 -5q218 0 339 116t154 346q5 33 8.5 57.5t9.5 52.5h-2q-51 -82 -139.5 -129t-203.5 -47q-97 0 -171.5 30t-125.5 83.5t-77.5 127.5 t-26.5 161q0 102 32.5 185t91 142.5t139.5 92.5t178 33q99 0 180 -31t139 -97.5t90 -170t32 -248.5zM843 899q0 74 -20.5 136.5t-59.5 108.5t-96 71.5t-130 25.5q-70 0 -124.5 -25t-93 -69t-58.5 -102.5t-20 -124.5q0 -70 19.5 -127.5t57 -98.5t92 -63.5t122.5 -22.5 q74 0 132 23.5t98 63.5t60.5 92.5t20.5 111.5z" />
<glyph unicode=":" horiz-adv-x="569" d="M418 696q0 -20 -7.5 -38t-21 -31.5t-31.5 -21t-39 -7.5q-20 0 -38 7.5t-31.5 21t-21 31.5t-7.5 38q0 21 7.5 39t21 31.5t31.5 21t38 7.5q21 0 39 -7.5t31.5 -21t21 -31.5t7.5 -39zM418 84q0 -20 -7.5 -38.5t-21 -32.5t-31.5 -21.5t-39 -7.5q-20 0 -38 7.5t-31.5 21.5 t-21 32.5t-7.5 38.5t7.5 37.5t21 31.5t31.5 21.5t38 7.5q21 0 39 -7.5t31.5 -21.5t21 -31.5t7.5 -37.5z" />
<glyph unicode=";" horiz-adv-x="569" d="M418 696q0 -20 -7.5 -38t-21 -31.5t-31.5 -21t-39 -7.5q-20 0 -38 7.5t-31.5 21t-21 31.5t-7.5 38q0 21 7.5 39t21 31.5t31.5 21t38 7.5q21 0 39 -7.5t31.5 -21t21 -31.5t7.5 -39zM317 180q30 0 53 -16.5t35 -48t9 -74.5t-24 -95.5t-63.5 -112.5t-107.5 -122l-59 51 q45 49 71 92.5t34.5 79.5t4.5 63t-18 46q-11 14 -15.5 30t-3 31.5t8 29t18 24t26 16.5t31.5 6z" />
<glyph unicode="&#x3c;" d="M804 59l-645 563l644 565l82 -82l-560 -481l560 -476z" />
<glyph unicode="=" d="M118 714v110h891v-110h-891zM118 394v110h891v-110h-891z" />
<glyph unicode="&#x3e;" d="M323 59l-82 81l560 482l-560 475l81 90l646 -563z" />
<glyph unicode="?" horiz-adv-x="903" d="M762 1063q0 -60 -17 -108.5t-44.5 -87t-67 -78l-76 -76t-64 -73.5t-44.5 -84t-17.5 -107t21.5 -134h-127q-23 75 -24.5 137.5t14.5 112.5t42.5 90.5t48.5 64.5t73.5 77t78 87.5t43 75.5t16.5 89q0 53 -30 101.5t-86 86t-134 61t-171 27.5l16 119q122 -5 223.5 -37 t174.5 -84.5t112 -119t39 -140.5zM487 82q0 -20 -7.5 -38t-21 -31.5t-31.5 -21t-38 -7.5t-37.5 7.5t-30.5 21t-20.5 31.5t-7.5 38t7.5 37.5t20.5 30.5t30.5 20.5t37.5 7.5t38 -7.5t31.5 -20.5t21 -30.5t7.5 -37.5z" />
<glyph unicode="@" horiz-adv-x="2015" d="M1812 821q0 -129 -33.5 -233.5t-93.5 -176.5t-139.5 -109.5t-169.5 -37.5q-65 0 -111.5 19.5t-73.5 54t-37 77.5t-5 91h-4q-16 -45 -43.5 -88t-65.5 -78t-87 -55.5t-105 -20.5q-51 0 -92 18t-70 53t-44 85.5t-15 114.5q0 111 29 209.5t87 174t144.5 118t197.5 42.5 q47 0 93 -3t82 -7t56.5 -7.5t28.5 -4.5l-84 -434q-12 -66 -8 -114.5t22 -79.5t49.5 -45.5t76.5 -14.5q63 0 117.5 30t94.5 87.5t62.5 141t22.5 187.5q0 112 -35.5 215t-111.5 185.5t-196.5 131t-283.5 48.5q-105 0 -203 -27.5t-183.5 -79t-155 -124t-119.5 -162.5 t-76.5 -195t-26.5 -219q0 -151 44.5 -275t131 -212.5t211.5 -135.5t283 -47q84 0 169.5 12t170.5 35l16 -98q-43 -12 -90.5 -21.5t-95.5 -16t-95 -10t-90 -3.5q-178 0 -322 53t-245 153t-154 239.5t-53 309.5q0 133 32 254.5t91.5 225.5t142 186.5t182.5 140.5t213 88.5 t232 30.5q122 0 225.5 -25.5t185.5 -71.5t143 -109t101 -138.5t60 -159.5t20 -172zM1198 963q-15 4 -52 9t-87 5q-53 0 -97.5 -18t-79 -49.5t-59.5 -73t-41 -88.5t-24 -95t-8 -94q0 -93 29.5 -140.5t92.5 -47.5q44 0 88 30.5t84.5 91t73.5 150t56 203.5z" />
<glyph unicode="A" horiz-adv-x="1407" d="M938 0v70q38 10 83 17.5t89 10.5l-96 264h-633l-96 -264q45 -3 90.5 -10.5t83.5 -17.5v-70h-449v70q29 8 68 15.5t67 10.5l486 1286h147l482 -1286q29 -3 67 -10.5t68 -15.5v-70h-457zM762 1057q-22 62 -36.5 103.5t-27.5 84.5h-2q-12 -39 -25.5 -80t-35.5 -106 l-217 -590h559z" />
<glyph unicode="B" horiz-adv-x="1198" d="M65 70q40 10 85.5 17.5t92.5 10.5v1186q-47 4 -92.5 11t-85.5 17v70h177q33 0 69.5 0.5t79 1.5t93 2t112.5 1q111 0 191.5 -23t133 -66t77.5 -102.5t25 -132.5q0 -58 -15.5 -110t-46.5 -95t-77 -75.5t-107 -52.5v-2q81 -11 138 -42t94 -75t54 -97.5t17 -109.5 q0 -35 -8 -79t-29 -89.5t-57.5 -89t-94.5 -77.5t-139.5 -54.5t-191.5 -20.5q-30 0 -68.5 1t-79.5 2t-84.5 2t-84.5 1h-178v70zM374 769q34 -2 65.5 -2h73.5q97 0 167.5 18t116.5 53.5t68.5 86.5t22.5 117q0 52 -14 95.5t-50 75.5t-97 50.5t-155 18.5q-27 0 -52.5 -0.5 t-49.5 -1l-48 -1t-48 -1.5v-509zM374 113q30 -5 79 -8.5t120 -3.5q98 0 168 23t114.5 62.5t65.5 94t21 117.5q0 79 -33.5 130.5t-91.5 82t-136 43t-168 12.5h-28h-38t-39.5 -0.5t-33.5 -1.5v-551z" />
<glyph unicode="C" horiz-adv-x="1225" d="M1128 70q-42 -18 -88.5 -33.5t-98 -27.5t-106 -18.5t-108.5 -6.5q-152 0 -269 46.5t-197 135t-120.5 216t-40.5 288.5q0 155 40.5 287t122.5 231.5t208 155t291 55.5q85 0 168.5 -12t169.5 -33v-293h-84q-5 25 -14.5 80t-14.5 114q-27 8 -93.5 20.5t-154.5 12.5 q-127 0 -222.5 -46.5t-156.5 -129t-90.5 -190.5t-29.5 -232q0 -138 32.5 -248t97 -187t161 -118t223.5 -41q44 0 90 6t90 17t85 25t81 30z" />
<glyph unicode="D" horiz-adv-x="1452" d="M1346 702q0 -178 -57.5 -311t-161 -221.5t-246.5 -132t-314 -43.5q-51 0 -96 1t-85 2t-75.5 2t-66.5 1h-178v70q40 11 85.5 18.5t92.5 10.5v1184q-47 4 -92.5 11t-85.5 18v70h177q40 0 86.5 1t97 2.5t102.5 2.5t103 1q171 0 303.5 -41.5t224 -126.5t139 -214.5 t47.5 -304.5zM1209 694q0 147 -38.5 257.5t-113 183.5t-185.5 110t-257 37q-31 0 -63.5 -0.5t-64.5 -1.5t-61 -2t-51 -2v-1160q24 -3 51.5 -5.5t55.5 -4.5t55 -2.5t50 -0.5q139 0 253.5 34.5t196.5 107.5t127 184.5t45 264.5z" />
<glyph unicode="E" horiz-adv-x="1079" d="M66 0v70q40 11 86 18t92 10v1186q-47 3 -93 10.5t-85 18.5v69h858v-295h-84q-5 24 -15 78t-16 113h-434v-514h344q6 54 16.5 98t16.5 62h73v-420h-73q-6 18 -16.5 61t-16.5 97h-344v-556h436q6 59 16.5 114.5t16.5 80.5h84v-301h-862z" />
<glyph unicode="F" horiz-adv-x="1014" d="M844 1085q-11 53 -18.5 101t-12.5 92h-438v-524h354q4 39 13 78.5t20 78.5h74v-419h-74q-12 40 -20.5 78.5t-12.5 78.5h-354v-551q46 -3 92 -10.5t86 -17.5v-70h-487v70q40 11 86 18t92 10v1186q-47 3 -93 10.5t-85 18.5v69h862v-297h-84z" />
<glyph unicode="G" horiz-adv-x="1436" d="M1370 618q-32 -8 -68.5 -14.5t-78.5 -11.5v-533q-51 -19 -107.5 -33t-114 -23.5t-114.5 -14t-111 -4.5q-151 0 -276 45.5t-215 133.5t-138.5 215.5t-48.5 287.5q0 157 47 291t139.5 233.5t227 154t305.5 54.5q94 0 185.5 -12.5t187.5 -36.5v-291h-84q-10 51 -17 99 t-12 95q-69 18 -140 27.5t-136 9.5q-117 0 -219.5 -37t-180 -112t-121.5 -189.5t-44 -263.5q0 -141 40.5 -252.5t115.5 -187.5t178.5 -115t228.5 -39q79 0 150 11.5t143 33.5v453q-45 3 -90.5 10t-88.5 16v72h457v-72z" />
<glyph unicode="H" horiz-adv-x="1538" d="M989 0v70q40 11 85 18t89 10v566h-788v-566q44 -3 89 -10t85 -18v-70h-483v70q40 11 86 18t92 10v1186q-47 3 -93 10.5t-85 18.5v69h483v-69q-39 -11 -84 -18.5t-90 -10.5v-512h788v512q-45 3 -90 10.5t-84 18.5v69h486v-69q-40 -11 -86 -18.5t-93 -10.5v-1186 q46 -3 92 -10t87 -18v-70h-486z" />
<glyph unicode="I" horiz-adv-x="616" d="M66 0v70q40 11 86 18t92 10v1186q-47 3 -93 10.5t-85 18.5v69h487v-69q-39 -11 -85 -18.5t-93 -10.5v-1186q46 -3 92 -10.5t86 -17.5v-70h-487z" />
<glyph unicode="J" horiz-adv-x="688" d="M623 1313q-66 -19 -150 -29v-942q0 -58 -8 -107t-25 -88.5t-43.5 -69.5t-63 -50t-83.5 -30.5t-105 -10.5q-17 0 -35.5 1.5t-36.5 3.5t-35 5l-34 6v121q34 -11 75 -18t77 -7q47 0 81 11.5t57.5 39.5t35.5 78t12 127v930q-47 3 -93 10.5t-85 18.5v69h459v-69z" />
<glyph unicode="K" horiz-adv-x="1321" d="M788 0v70q37 10 74.5 16.5t73.5 9.5l-561 606v-604q37 -3 82 -10.5t84 -17.5v-70h-475v70q40 11 86 18t92 10v1186q-47 3 -93 10.5t-85 18.5v69h475v-69q-38 -11 -83 -18.5t-83 -10.5v-573l551 573q-43 3 -86.5 10.5t-77.5 18.5v69h479v-69q-35 -10 -74.5 -17t-79.5 -12 l-561 -569l590 -617q37 -3 76 -10.5t80 -17.5v-70h-484z" />
<glyph unicode="L" horiz-adv-x="936" d="M66 0v70q40 11 86 18t92 10v1186q-47 3 -93 10.5t-85 18.5v69h487v-69q-39 -11 -85 -18.5t-93 -10.5v-1178h418q4 40 13 91t21 114h84v-311h-845z" />
<glyph unicode="M" horiz-adv-x="1894" d="M1423 0v70q39 10 84 17.5t90 10.5l-114 809q-21 136 -32 218.5t-15 134.5h-4q-15 -59 -28.5 -107.5t-35.5 -108.5l-373 -1044h-118l-355 983q-24 68 -47.5 150t-36.5 127h-2q-2 -38 -5.5 -79.5t-8.5 -85t-9.5 -85t-13.5 -113.5l-94 -799q45 -3 89.5 -10t84.5 -18v-70 h-448v70q13 4 30.5 8t37 7.5t38 6.5t33.5 4l166 1188q-47 3 -93 10.5t-85 18.5v69h362l340 -946q10 -29 21.5 -63t22.5 -70t20 -69.5t16 -61.5h2q19 72 36.5 130t39.5 118l342 962h375v-69q-40 -11 -85.5 -18.5t-90.5 -10.5l172 -1188q29 -3 68 -10.5t69 -15.5v-70h-445z " />
<glyph unicode="N" horiz-adv-x="1530" d="M1137 0l-492 782q-36 57 -75 119.5t-77 125t-73 121t-62 106.5q4 -96 7.5 -222t5 -274.5t2 -314.5t0.5 -343q45 -3 89.5 -11t85.5 -19v-70h-483v70q40 10 85.5 18.5t92.5 11.5v1184q-47 4 -92.5 11t-85.5 17v70h359l489 -775q36 -57 75 -120t77 -125t72.5 -121t61.5 -108 q-5 95 -7.5 220t-4 273t-2 313.5t-0.5 342.5q-46 3 -90 11t-83 19v70h453v-70q-34 -9 -72.5 -17t-77.5 -13v-1282h-178z" />
<glyph unicode="O" horiz-adv-x="1446" d="M1348 707q0 -171 -49.5 -306.5t-138 -228.5t-205.5 -140.5t-250 -47.5q-147 0 -261 49t-191 140.5t-116 219t-39 283.5q0 171 49.5 306.5t138 228.5t205 140.5t248.5 47.5q148 0 262 -49t191.5 -141t116.5 -219t39 -283zM1210 680q0 135 -31 246.5t-92 192.5t-153 125 t-211 44q-102 0 -190.5 -38t-155.5 -113t-104 -184.5t-37 -247.5q0 -136 30.5 -248t91.5 -193.5t153 -125.5t212 -44q101 0 189.5 38.5t155.5 113.5t104.5 185t37.5 249z" />
<glyph unicode="P" horiz-adv-x="1147" d="M1090 967q0 -103 -39.5 -190.5t-112.5 -150.5t-173 -97.5t-218 -34.5q-47 0 -88 3t-84 7v-406q46 -3 92 -10.5t86 -17.5v-70h-487v70q40 11 86 18t92 10v1186q-47 3 -93 10.5t-85 18.5v69h178q20 0 44.5 0.5t91.5 2.5t112 3t83 1q135 0 234.5 -34.5t161 -93.5 t90.5 -134.5t29 -159.5zM952 946q0 67 -20 126.5t-66 107t-123.5 75t-187.5 27.5q-66 0 -107.5 -0.5t-72.5 -3.5v-662q40 -6 87 -10t99 -4q98 0 172.5 27t123 74.5t72 109.5t23.5 133z" />
<glyph unicode="Q" horiz-adv-x="1444" d="M1446 -137q-80 -9 -143.5 -5t-111.5 17t-116 39t-102 37.5t-91 22t-128 10.5h-49q-147 0 -261 49t-191 140.5t-116 219t-39 283.5q0 171 49.5 306.5t138 228.5t205 140.5t248.5 47.5q148 0 262 -49t191.5 -141t116.5 -219t39 -283q0 -114 -24.5 -217.5t-72.5 -189.5 t-119.5 -150.5t-162.5 -100.5q31 1 62.5 -4.5t66.5 -16t76 -22.5t81 -19.5t88 -10t103 3.5v-117zM1210 680q0 135 -31 246.5t-92 192.5t-153 125t-211 44q-102 0 -190.5 -38t-155.5 -113t-104 -184.5t-37 -247.5q0 -136 30.5 -248t91.5 -193.5t153 -125.5t212 -44 q101 0 189.5 38.5t155.5 113.5t104.5 185t37.5 249z" />
<glyph unicode="R" horiz-adv-x="1210" d="M895 0l-406 647h-114v-549q43 -3 87.5 -10.5t82.5 -17.5v-70h-479v70q40 11 86 18t92 10v1186q-47 3 -93 10.5t-85 18.5v69h157q13 0 32.5 0.5t63 1.5t62 2t51 1.5t67.5 1t68 0.5q107 0 192.5 -18t148 -59t96.5 -108.5t34 -163.5q0 -87 -31 -155.5t-87.5 -117 t-131.5 -76.5t-163 -36q25 -31 52.5 -69.5t51.5 -75.5l262 -408q39 -5 83.5 -12.5t92.5 -17.5v-72h-272zM901 1020q0 74 -23 125t-69.5 81.5t-115 44t-163.5 13.5q-17 0 -37.5 -0.5t-41.5 -1t-40.5 -2t-35.5 -2.5v-528h178q85 0 150.5 18.5t109.5 54t66 85t22 112.5z" />
<glyph unicode="S" horiz-adv-x="1040" d="M918 365q0 -86 -31.5 -156.5t-91 -120.5t-145 -77t-191.5 -27q-112 0 -200 13t-124 21v301h84q5 -24 15 -79.5t16 -116.5q26 -8 87 -19.5t138 -11.5q72 0 129 17t96.5 50t60.5 82t21 113q0 63 -26.5 110t-71 81.5t-88.5 56t-130.5 60.5t-140.5 69.5t-99.5 73.5t-72 103 t-26.5 139q0 80 30.5 145t89.5 111.5t143 71t190 24.5q84 0 158 -10t106 -17v-291h-84q-5 24 -14.5 79t-14.5 116q-20 4 -67 10t-101 6q-71 0 -127 -15t-95.5 -44.5t-60 -74t-20.5 -101.5q0 -61 26.5 -107t71.5 -79.5t86 -53t131 -60t144 -71.5t99.5 -75t72.5 -105t27 -141z " />
<glyph unicode="T" horiz-adv-x="1112" d="M989 1071q-3 21 -16.5 98t-16.5 107h-335v-1178q46 -3 91.5 -10t86.5 -18v-70h-488v70q41 11 86.5 18t91.5 10v1178h-333q-3 -33 -8.5 -67.5t-24.5 -137.5h-82v311h1030v-311h-82z" />
<glyph unicode="U" horiz-adv-x="1473" d="M1407 1313q-67 -19 -150 -29v-762q0 -131 -34 -231t-101 -168.5t-168 -103.5t-235 -35q-103 0 -182.5 18.5t-135.5 51.5t-92 77.5t-56.5 96.5t-29 108.5t-8.5 118.5v829q-82 10 -149 29v69h454v-69q-38 -11 -83 -18.5t-91 -10.5v-815q0 -83 17 -150t59.5 -119t118.5 -81 t190 -29q101 0 175 22.5t123.5 72t74 130t24.5 195.5v774q-45 3 -90.5 10.5t-83.5 18.5v69h453v-69z" />
<glyph unicode="V" horiz-adv-x="1384" d="M1374 1313q-31 -8 -69.5 -16t-65.5 -11l-483 -1286h-144l-467 1286q-27 3 -65.5 11t-69.5 16v69h461v-69q-39 -11 -84 -18.5t-90 -10.5l293 -848q15 -42 46.5 -136.5t51.5 -162.5h2q10 36 21.5 74t24.5 75.5t27.5 78t29.5 84.5l307 835q-46 3 -91 10.5t-83 18.5v69h448 v-69z" />
<glyph unicode="W" horiz-adv-x="2005" d="M1993 1313q-32 -9 -69.5 -16.5t-65.5 -10.5l-330 -1286h-168l-307 1010q-17 54 -30.5 106t-23.5 101h-2q-9 -52 -21 -104.5t-28 -106.5l-297 -1006h-170l-334 1286q-27 3 -66 11t-69 16v69h449v-69q-38 -11 -83 -18.5t-91 -10.5l231 -905q9 -37 16.5 -69.5t14.5 -64 t13.5 -63t12.5 -63.5h3q7 36 13 67t13 62t15 61.5t16 57.5l307 1015h125l324 -1032q16 -58 30.5 -117.5t24.5 -113.5h2q8 48 19 97t24 103l238 965q-45 3 -90 10.5t-85 18.5v69h439v-69z" />
<glyph unicode="X" horiz-adv-x="1337" d="M834 0v70q39 11 81.5 18t85.5 10l-339 523l-332 -523q42 -3 88.5 -10.5t83.5 -17.5v-70h-479v70q37 9 77 16t80 10l414 611l-391 579q-38 3 -76.5 10t-75.5 17v69h484v-69q-39 -11 -83.5 -18.5t-91.5 -10.5l314 -475l307 475q-45 3 -89.5 10.5t-82.5 18.5v69h479v-69 q-37 -10 -77.5 -17.5t-82.5 -11.5l-385 -565l424 -623q38 -3 76.5 -10t73.5 -16v-70h-483z" />
<glyph unicode="Y" horiz-adv-x="1192" d="M1182 1313q-32 -9 -69.5 -16.5t-65.5 -10.5l-390 -784v-404q46 -3 92 -10t87 -18v-70h-488v70q40 10 86 17.5t92 10.5v404l-381 784q-27 3 -65.5 11t-69.5 16v69h455v-69q-37 -11 -81.5 -18.5t-88.5 -10.5l192 -424q14 -29 28 -60t28 -61.5t26.5 -59.5t28.5 -65h2 q12 30 26 63t29 66t30 64t34 72l190 405q-45 3 -89.5 10.5t-82.5 18.5v69h445v-69z" />
<glyph unicode="Z" horiz-adv-x="1108" d="M94 0v92l643 987q33 51 63.5 96.5t67.5 96.5q-71 -2 -153.5 -3t-179.5 -1h-306q-3 -39 -10 -85.5t-18 -105.5h-84v305h895v-94l-678 -1036q-23 -37 -46 -70.5t-48 -68.5q18 1 51.5 2t80 1.5t98 0.5h138.5h297q4 40 11.5 86.5t19.5 109.5h82v-313h-924z" />
<glyph unicode="[" horiz-adv-x="651" d="M197 -399v1970h372v-96h-252v-1774h252v-100h-372z" />
<glyph unicode="\" horiz-adv-x="850" d="M748 -330l-717 1880h119l716 -1880h-118z" />
<glyph unicode="]" horiz-adv-x="651" d="M80 -399v100h254v1774h-254v96h373v-1970h-373z" />
<glyph unicode="^" d="M852 711l-315 569l-299 -569l-93 51l340 620h111l356 -618z" />
<glyph unicode="_" d="M0 -514v101h1126v-101h-1126z" />
<glyph unicode="`" horiz-adv-x="717" d="M451 1180l-256 262l90 80l237 -279z" />
<glyph unicode="a" horiz-adv-x="1081" d="M1038 14q-10 -1 -35.5 -4t-68.5 -6t-95 -4.5t-102 0.5q-1 89 3.5 146t7.5 77l-5 2q-19 -50 -52.5 -94t-79.5 -77t-103 -51.5t-121 -18.5q-63 0 -114.5 18t-89 52.5t-57.5 84t-20 111.5q0 82 44 144.5t126.5 105t198 64t258.5 22.5v86q0 64 -12 112.5t-39.5 81.5 t-73.5 50.5t-112 17.5q-76 0 -135.5 -13t-84.5 -22q-5 -52 -14 -106t-14 -80h-76v264q37 14 128 35.5t212 21.5q99 0 167 -24t108 -69t57.5 -106.5t17.5 -140.5v-590q22 -3 71.5 -9.5t104.5 -10.5v-70zM733 485q-123 0 -215.5 -13t-154.5 -39.5t-93.5 -68t-31.5 -98.5 q0 -38 12 -70t35 -56t57 -37t78 -13q68 0 125.5 31.5t100 86t65 123t22.5 138.5v16z" />
<glyph unicode="b" horiz-adv-x="1143" d="M1044 555q0 -136 -36.5 -242.5t-104.5 -178.5t-163.5 -109t-213.5 -37q-50 0 -93.5 2.5t-82.5 7t-76.5 11t-76.5 16.5v1366q-39 6 -86.5 11.5t-90.5 8.5v70q31 4 69.5 7t80 5t82 2.5t74.5 -0.5v-534q0 -21 -1.5 -45.5t-4 -49.5t-6 -48t-7.5 -42l4 -2q22 61 58 109.5 t82.5 82t101.5 51t115 17.5q90 0 160 -30.5t118 -90.5t73 -150t25 -208zM909 543q0 91 -16 162.5t-48 122t-81.5 76.5t-116.5 26q-53 0 -98 -19t-81 -53t-62.5 -77.5t-44.5 -92.5t-26.5 -99.5t-8.5 -96.5v-371q46 -17 97.5 -24t115.5 -7q86 0 154 26t116.5 81.5t74 141.5 t25.5 204z" />
<glyph unicode="c" horiz-adv-x="913" d="M854 47q-28 -11 -62.5 -21.5t-75.5 -19t-86 -13.5t-91 -5q-59 0 -113 9t-103.5 30.5t-91 58t-72.5 91t-48 130t-17 172.5q0 125 31 226.5t92.5 174t153 111.5t209.5 39q66 0 132 -9.5t122 -25.5v-276h-78q-6 24 -16 77.5t-15 110.5q-19 5 -64.5 13t-101.5 8 q-80 0 -142 -31t-104 -87.5t-63 -134t-21 -169.5t15.5 -165.5t53 -128.5t102.5 -85.5t161 -30.5q64 0 136.5 16t129.5 40z" />
<glyph unicode="d" horiz-adv-x="1165" d="M1120 14q-31 -4 -69.5 -7t-80 -5t-83 -2.5t-76.5 0.5q0 25 1 56t3.5 63t6 61.5t7.5 52.5l-4 3q-20 -57 -55 -104t-81 -80t-101.5 -50.5t-116.5 -17.5q-94 0 -165 32.5t-118 95t-70.5 151t-23.5 200.5q0 136 36.5 242t105 178.5t164 109.5t212.5 37q47 0 96 -3t105 -9v373 q-37 6 -85.5 11.5t-92.5 8.5v70q32 4 71 7t80 5t81.5 2.5t74.5 -0.5v-1391q37 -6 85.5 -11.5t92.5 -8.5v-70zM813 901q-54 14 -107 20.5t-106 6.5q-85 0 -153 -26.5t-116 -81.5t-74 -141t-26 -204q0 -92 16 -163.5t48 -121.5t81.5 -76t115.5 -26q53 0 98 19t81 53t62.5 77.5 t44.5 92.5t26.5 99.5t8.5 96.5v375z" />
<glyph unicode="e" horiz-adv-x="1030" d="M926 625q0 -19 -0.5 -36.5t-1.5 -31t-1.5 -21t-0.5 -10.5h-693q-2 -112 19 -194t64.5 -135.5t109 -79t153.5 -25.5q73 0 147 14t150 41l21 -102q-83 -29 -166.5 -45t-169.5 -16q-114 0 -200 31.5t-144.5 95.5t-88.5 162.5t-30 232.5q0 113 30 210t87.5 168.5t139.5 110.5 t184 39q101 0 176 -32t122.5 -88.5t70 -130t22.5 -158.5zM788 623q2 73 -15 130.5t-51.5 97.5t-84 60.5t-111.5 20.5q-57 0 -106 -20t-87 -59t-63 -97.5t-34 -132.5h552z" />
<glyph unicode="f" horiz-adv-x="715" d="M786 1376q-38 12 -80 17.5t-85 5.5q-125 0 -182.5 -75t-57.5 -232v-74h313v-103h-313v-817q46 -3 92 -10.5t86 -17.5v-70h-485v70q40 11 86 18t92 10v817h-238v103h238v69q0 106 25.5 185t75 130.5t119.5 77t159 25.5q44 0 85 -4.5t85 -13.5z" />
<glyph unicode="g" horiz-adv-x="1085" d="M1022 -162q0 -81 -36 -149t-103.5 -117t-162.5 -75.5t-210 -26.5q-98 0 -176.5 20t-134 59t-84.5 95.5t-29 128.5q0 45 14 87.5t39 79.5t57.5 67.5t69.5 55.5q-44 23 -67 59.5t-23 84.5q0 23 7 45.5t20.5 43.5t33.5 40.5t46 36.5q-75 47 -112.5 122.5t-37.5 163.5 q0 78 26.5 146.5t78 120t127 80t170.5 28.5q33 0 66 -4t65 -12h342v-103h-181q42 -45 63 -103.5t21 -123.5q0 -79 -26 -147.5t-77 -119.5t-126.5 -79.5t-171.5 -28.5q-35 0 -66 4.5t-61 12.5q-37 -23 -56.5 -49.5t-19.5 -51.5q0 -20 9 -35.5t29 -26.5t52.5 -18t77.5 -8 l176 -6q94 -3 164.5 -25t116.5 -60.5t68 -92t22 -119.5zM782 674q0 114 -70 187t-190 73q-60 0 -108.5 -19.5t-82.5 -54.5t-51.5 -82.5t-17.5 -103.5q0 -115 69.5 -187.5t190.5 -72.5q60 0 108.5 19t82.5 54t51.5 83t17.5 104zM889 -178q0 45 -15 80t-47.5 60t-85 39.5 t-125.5 16.5l-178 7q-15 0 -28.5 1t-30.5 3q-78 -47 -118 -108t-40 -128q0 -53 22 -94t62.5 -69t97.5 -42t127 -14q87 0 155 18t113 51.5t68 79t23 99.5z" />
<glyph unicode="h" horiz-adv-x="1233" d="M885 0v660q0 64 -10 114t-34 84.5t-63.5 53t-99.5 18.5q-73 0 -133 -33.5t-103 -93t-67.5 -140.5t-24.5 -177v-388q45 -3 90 -10.5t84 -17.5v-70h-479v70q40 11 85.5 18t90.5 10v1292q-37 6 -84 11.5t-92 8.5v71q31 4 69 7t79 5t81.5 2.5t75.5 -0.5v-514q0 -26 -1 -53.5 t-3 -54t-5 -51t-8 -43.5l5 -2q22 59 57 107t82 81t105 51t125 18q87 0 146.5 -25t95 -69.5t50.5 -104t15 -127.5v-609q45 -3 89.5 -10.5t84.5 -18.5v-70h-303z" />
<glyph unicode="i" horiz-adv-x="592" d="M399 1348q0 -18 -7 -35t-20 -30t-29.5 -20.5t-35.5 -7.5t-35.5 7t-29.5 20t-20 30t-7 36t7 35.5t20 29.5t29.5 20t35.5 7t35.5 -7t29.5 -19.5t20 -29.5t7 -36zM66 0v70q20 6 68.5 15t107.5 13v815q-36 7 -83.5 12.5t-92.5 8.5v70q32 4 70.5 7t79.5 5t81 2.5t74 -0.5v-920 q45 -3 90.5 -10t85.5 -18v-70h-481z" />
<glyph unicode="j" horiz-adv-x="549" d="M381 1348q0 -18 -7 -35t-20 -30t-29.5 -20.5t-35.5 -7.5t-36 7t-30 20t-20.5 30t-7.5 36t7.5 35.5t20.5 29.5t30 20t36 7t35.5 -7t29.5 -19.5t20 -29.5t7 -36zM352 -139q0 -104 -16.5 -177t-53.5 -120t-98.5 -69.5t-152.5 -22.5q-32 0 -71 4t-66 10l14 117 q29 -10 65.5 -15.5t67.5 -5.5q56 0 90.5 13t54.5 43t28.5 81t8.5 134v1060q-36 7 -84 12.5t-92 8.5v70q31 4 69.5 7t79.5 5t81 2.5t75 -0.5v-1157z" />
<glyph unicode="k" horiz-adv-x="1067" d="M759 0l-409 543v-444q45 -3 89 -10.5t83 -17.5v-71h-477v70q40 11 85.5 18.5t90.5 10.5v1291q-37 6 -84.5 11.5t-92.5 8.5v71q31 4 69.5 7t79.5 5t81.5 2.5t75.5 -0.5v-945l340 370q-42 5 -78 11t-61 16v71h443v-71q-33 -9 -72 -16t-81 -12l-343 -365l354 -452 q40 -4 85.5 -12t92.5 -18v-72h-271z" />
<glyph unicode="l" horiz-adv-x="571" d="M45 0v70q40 11 85.5 18.5t90.5 10.5v1291q-37 6 -84.5 11.5t-92.5 8.5v71q31 4 70 7t79.5 5t81 2.5t75.5 -0.5v-1396q46 -3 91.5 -10.5t85.5 -18.5v-70h-482z" />
<glyph unicode="m" horiz-adv-x="1884" d="M1538 0v659q0 65 -9 114t-31 84t-60.5 54t-96.5 19q-62 0 -120 -31t-103.5 -89.5t-71.5 -142.5t-26 -186v-383q59 -4 106 -13t66 -15v-70h-301v662q0 60 -8 107t-29.5 83.5t-61 57t-100.5 20.5q-66 0 -124.5 -32.5t-103 -93t-69 -143.5t-24.5 -180v-383q60 -4 107.5 -13 t66.5 -15v-70h-479v70q20 6 67.5 15t108.5 13v815q-36 7 -83.5 12.5t-92.5 8.5v70q32 4 70.5 7t79.5 5t81.5 2.5t75.5 -0.5q0 -27 -1 -58t-3.5 -63.5t-6 -62.5t-8.5 -54l4 -2q22 58 57.5 105.5t83 81t104.5 51.5t120 18q58 0 103 -13t76.5 -34.5t52 -48.5t32.5 -55.5 t16.5 -54t4.5 -46.5q15 41 43.5 84t73 81.5t106 62.5t137.5 24q72 0 127.5 -19.5t94 -60t58 -102t19.5 -145.5v-609q61 -4 108 -13t66 -15v-70h-303z" />
<glyph unicode="n" horiz-adv-x="1251" d="M905 0v659q0 67 -10 116.5t-33.5 84t-63.5 52.5t-100 18q-71 0 -131 -33t-104 -93t-68 -141.5t-24 -177.5v-387q60 -4 107.5 -13t66.5 -15v-70h-479v70q20 6 67.5 15t108.5 13v815q-36 7 -83.5 12.5t-92.5 8.5v70q32 4 70.5 7t79.5 5t81.5 2.5t75.5 -0.5q0 -27 -1 -58 t-3.5 -63.5t-6 -62.5t-8.5 -54l4 -2q22 59 57 106t82 80.5t105 51.5t125 18q86 0 145.5 -24.5t95 -69t51 -103t15.5 -130.5v-609q60 -4 107.5 -13t66.5 -15v-70h-303z" />
<glyph unicode="o" horiz-adv-x="1110" d="M1016 518q0 -112 -31 -209.5t-91.5 -170.5t-150.5 -113.5t-204 -40.5q-102 0 -184 31.5t-140.5 96t-89.5 162t-31 226.5q0 112 31 209.5t91.5 170.5t150.5 113.5t204 40.5q102 0 184 -31.5t140.5 -96t89.5 -162t31 -226.5zM881 510q0 99 -22 177t-64.5 132.5t-102.5 82.5 t-135 28t-136 -27t-104.5 -80.5t-66.5 -132.5t-23 -182q0 -99 22 -177t64.5 -131.5t103 -81.5t136.5 -28q71 0 130.5 25t104 76.5t69 131.5t24.5 187z" />
<glyph unicode="p" horiz-adv-x="1171" d="M1073 555q0 -136 -36.5 -242t-104.5 -178t-163.5 -108.5t-213.5 -36.5q-30 0 -54 0.5t-48 2t-48 3.5t-51 6v-418q45 -3 90.5 -10t87.5 -16v-72h-483v72q42 9 87 16t89 10v1329q-36 7 -84 12.5t-92 8.5v70q31 4 70 7t81 5t82.5 2.5t73.5 -0.5q0 -25 -1 -56t-3.5 -63.5 t-6 -62.5t-7.5 -52l4 -2q21 57 56 104t81 80t101 50.5t116 17.5q89 0 159 -30.5t119 -90.5t74 -150t25 -208zM936 543q0 91 -15.5 162.5t-48 122t-81.5 76.5t-115 26q-53 0 -98.5 -19t-81 -53t-62.5 -77.5t-44.5 -92.5t-26.5 -99.5t-9 -96.5v-371q46 -17 97.5 -24t115.5 -7 q86 0 153.5 26.5t116 81.5t74 141t25.5 204z" />
<glyph unicode="q" horiz-adv-x="1143" d="M639 -514v72q41 9 87.5 16t90.5 10v479q0 17 0.5 37t2 42.5t4.5 46t7 44.5l-4 3q-20 -57 -55 -104t-81 -80t-101 -50.5t-115 -17.5q-89 0 -159 30t-118.5 90t-74 150t-25.5 209q0 136 36.5 242.5t105.5 178.5t166 109t217 37q39 0 80 -2t82.5 -5t81.5 -8t79 -11v-1420 q45 -3 90.5 -10t85.5 -16v-72h-483zM817 903q-53 14 -106 20.5t-107 6.5q-85 0 -152.5 -26.5t-116 -82t-74 -142t-25.5 -204.5q0 -92 15.5 -163.5t47.5 -121.5t81.5 -76t115.5 -26q52 0 97 19t81 53t63 77.5t44.5 92.5t26.5 99.5t9 96.5v377z" />
<glyph unicode="r" horiz-adv-x="776" d="M737 906q-95 15 -164.5 -11.5t-113.5 -91t-66 -165t-22 -233.5v-307q47 -3 91.5 -10.5t84.5 -18.5v-69h-481v69q40 11 84.5 18.5t91.5 10.5v815q-37 6 -84 11.5t-92 8.5v71q31 4 68 7t78.5 5t82.5 2.5t77 -0.5q0 -54 -5.5 -126t-19.5 -142l4 -2q15 57 43 113t74.5 98.5 t114 62.5t159.5 11z" />
<glyph unicode="s" horiz-adv-x="893" d="M776 268q0 -64 -25.5 -116.5t-75.5 -90t-121 -57.5t-161 -20q-51 0 -99.5 3.5t-84.5 8.5t-56.5 8.5t-27.5 5.5v277h74q5 -20 14.5 -68.5t15.5 -107.5q20 -5 68.5 -13t110.5 -8q55 0 99 10.5t75 32t47 53.5t16 74q0 45 -21.5 78t-57 56.5t-62 35t-104.5 43t-121.5 54.5 t-80 56.5t-58 80.5t-21.5 110q0 59 25.5 107t74 82.5t119 52.5t158.5 18q73 0 135.5 -7.5t89.5 -12.5v-275h-74q-4 21 -13 71t-16 112q-16 3 -54 7.5t-83 4.5q-111 0 -171 -39t-60 -115q0 -45 21.5 -77.5t57 -55.5t93 -47t104 -42.5t90.5 -42t80.5 -56.5t58 -80.5 t21.5 -110.5z" />
<glyph unicode="t" horiz-adv-x="756" d="M684 6q-42 -9 -94.5 -14.5t-100.5 -5.5q-74 0 -123 17t-77.5 53t-40.5 90.5t-12 134.5v634h-234v103h234v344l126 35v-379h314v-103h-314v-571q0 -75 7.5 -121.5t25.5 -73.5t49 -38t80 -11q40 0 76.5 4.5t65.5 12.5z" />
<glyph unicode="u" horiz-adv-x="1235" d="M1190 14q-31 -4 -69.5 -7t-80 -5t-82 -2.5t-75.5 0.5q0 27 1 58t3.5 63.5t6 62.5t7.5 54l-4 2q-21 -59 -56 -106t-82.5 -80.5t-105.5 -51.5t-125 -18q-85 0 -145 24.5t-95.5 68.5t-51 102.5t-15.5 129.5v604q-36 7 -83.5 12.5t-92.5 8.5v70q31 4 69.5 7t79.5 5t81 2.5 t75 -0.5v-660q0 -66 10 -115.5t34 -84t64 -52.5t99 -18q71 0 131.5 32.5t104.5 92.5t68 141.5t24 177.5v381q-36 7 -83.5 12.5t-90.5 8.5v70q32 4 69.5 7t78 5t80.5 2.5t75 -0.5v-914q38 -6 85 -11.5t91 -8.5v-70z" />
<glyph unicode="v" horiz-adv-x="1139" d="M1128 948q-32 -9 -70 -16t-75 -12l-342 -920h-147l-338 920q-37 4 -74.5 11.5t-71.5 16.5v70h459v-70q-38 -10 -83 -17.5t-89 -10.5l188 -529q22 -62 45.5 -133.5t42.5 -134.5h2q24 77 44.5 140t42.5 128l182 529q-44 3 -88 10.5t-82 17.5v70h454v-70z" />
<glyph unicode="w" horiz-adv-x="1769" d="M1757 948q-32 -9 -69 -16.5t-74 -11.5l-295 -920h-154l-241 705q-14 40 -26 80t-32 106h-2q-13 -55 -36 -133t-37 -123l-201 -635h-158l-276 920q-37 4 -74.5 11.5t-71.5 16.5v70h457v-70q-38 -10 -81.5 -17.5t-86.5 -10.5l154 -570q9 -32 33 -113.5t32 -113.5h2 q14 55 31.5 115t36.5 118l213 662h153l215 -662q16 -48 27.5 -83t19.5 -61t14.5 -47t12.5 -44h2q7 25 14.5 50t15 51.5t17 57t21.5 68.5l164 572q-43 3 -86 10t-82 18v70h448v-70z" />
<glyph unicode="x" horiz-adv-x="1116" d="M809 0l-258 414l-258 -414h-275v72q65 14 106 21.5t81 10.5l278 404l-262 405q-41 3 -81.5 11t-104.5 22v72h282l244 -404l252 404h268v-72q-62 -14 -104.5 -22t-81.5 -11l-262 -395l278 -414q40 -3 78.5 -10t106.5 -22v-72h-287z" />
<glyph unicode="y" horiz-adv-x="1141" d="M1130 948q-33 -9 -70 -16.5t-75 -11.5l-385 -1033q-45 -121 -86 -199t-88 -126t-107.5 -70t-144.5 -22q-13 0 -29 1t-33 2.5t-33.5 3.5t-31.5 5l14 121q30 -11 61 -16t64 -5q50 0 87.5 14t69 46.5t61.5 88t65 142.5l49 127h-26l-336 920q-37 4 -74.5 11.5t-71.5 16.5v70 h449v-70q-33 -11 -72.5 -18t-83.5 -10l193 -547q32 -97 47 -144t30 -98h2q6 21 16.5 52.5l22.5 67.5t33 96t31 89l170 484q-44 3 -83.5 10t-72.5 18v70h438v-70z" />
<glyph unicode="z" horiz-adv-x="913" d="M98 0v92l556 819q-27 -1 -61 -1.5t-73.5 -1t-81.5 -1t-85 -0.5h-138q-5 -42 -11.5 -82t-16.5 -84h-74v277h684v-90l-553 -817q24 1 60.5 1.5t77.5 1t84.5 1t80.5 0.5h156q5 40 12 84t18 90h74v-289h-709z" />
<glyph unicode="{" horiz-adv-x="668" d="M569 -399q-77 0 -131.5 23.5t-87.5 69t-48 112t-15 155.5v416q0 59 -11 99t-36.5 66t-69 40t-109.5 18v107q69 4 112.5 16.5t68.5 37.5t35 65t10 102v284q0 76 13.5 140t46 113.5t87.5 77.5t135 28h33v-96q-56 0 -93 -13.5t-60 -43t-33 -77.5t-10 -120v-283 q0 -59 -11.5 -106.5t-35 -83.5t-59.5 -59.5t-85 -33.5v-2q48 -7 84 -30.5t59.5 -60.5t35.5 -85.5t12 -107.5v-416q0 -72 10 -120t32.5 -77t60 -42t93.5 -13v-100h-33z" />
<glyph unicode="|" horiz-adv-x="580" d="M238 -514v2048h102v-2048h-102z" />
<glyph unicode="}" horiz-adv-x="659" d="M621 600q-65 -4 -108 -18t-68.5 -40t-36.5 -66t-11 -99v-416q0 -89 -15 -155.5t-48 -112t-87.5 -69t-131.5 -23.5h-33v100q56 0 93.5 13t60 42t33 77t10.5 120v416q0 59 11.5 107.5t35.5 85.5t59.5 60.5t83.5 30.5v2q-49 7 -85 29.5t-59.5 58.5t-34.5 82.5t-11 102.5v293 q0 72 -10.5 120t-33 77.5t-60 43t-93.5 13.5v96h33q80 0 135 -28t87.5 -77.5t46 -113.5t13.5 -140v-274q0 -66 10 -108t35 -67.5t67.5 -38.5t111.5 -17v-107z" />
<glyph unicode="~" d="M1001 1153q0 -61 -17 -112.5t-50 -89.5t-78.5 -58.5t-101.5 -20.5q-52 0 -91.5 16t-67 40.5t-62 66t-52.5 61t-46.5 35t-65.5 15.5q-36 0 -63 -14.5t-45 -40.5t-26.5 -61t-9.5 -77h-96v9q0 61 17.5 112.5t50 89t78.5 58t102 20.5q52 0 91.5 -16t67 -40t61.5 -65.5t52 -61 t46.5 -35t66.5 -15.5q36 0 63 14.5t44.5 40.5t26 61.5t9.5 77.5h96v-10z" />
<glyph unicode="&#xa1;" horiz-adv-x="651" d="M403 936q0 -20 -7.5 -37.5t-20.5 -30.5t-30.5 -20.5t-37.5 -7.5t-38 7.5t-31.5 20.5t-21 30.5t-7.5 37.5t7.5 38t21 31.5t31.5 21t38 7.5t37.5 -7.5t30.5 -21t20.5 -31.5t7.5 -38zM229 -414l25 1116h104l25 -1116h-154z" />
<glyph unicode="&#xa2;" d="M956 289q-63 -30 -128.5 -48.5t-136.5 -24.5v-216h-107v217q-97 4 -174 34.5t-130 88t-81 141.5t-28 195q0 99 28.5 179t82 139.5t130.5 97t172 50.5v189h107v-184q62 -2 121.5 -14t115.5 -31v-268h-75q-10 50 -17 93.5t-12 88.5q-29 10 -70 17.5t-95 7.5 q-82 0 -147 -22.5t-111 -67.5t-70.5 -112t-24.5 -157q0 -76 17.5 -141t58.5 -112t108 -74.5t165 -27.5q37 0 73.5 5t70.5 13.5t65.5 21t59.5 28.5l32 -106v0z" />
<glyph unicode="&#xa3;" d="M136 0v91q68 48 112 93t69.5 91.5t35 98.5t9.5 116q0 38 -1.5 71t-5.5 64h-243v96h227q-4 33 -8.5 69.5t-9 74.5t-6.5 74t-2 67q0 92 25.5 157t74 106t118 60t156.5 19q20 0 42.5 -1.5t45.5 -4t45.5 -5.5t43.5 -8v-267h-74q-11 46 -19 87.5t-13 83.5q-21 4 -43.5 6.5 t-43.5 2.5q-68 0 -113 -16.5t-71.5 -46.5t-37 -71t-10.5 -90q0 -26 3 -59.5t8 -72t9.5 -81t9.5 -84.5h341v-96h-331q3 -24 5.5 -58.5t2.5 -65.5q0 -67 -9.5 -121.5t-31.5 -101t-58.5 -88.5t-92.5 -85q34 3 81.5 6.5t99.5 3.5h361q2 21 5 44t7 45.5t9 45.5t11 46h77v-296 h-810z" />
<glyph unicode="&#xa4;" d="M918 140l-170 229q-44 -30 -94.5 -44.5t-105.5 -14.5q-47 0 -86.5 8t-71.5 24l-151 -202l-91 70l155 190q-42 46 -65.5 114.5t-23.5 162.5q0 80 25.5 146t74.5 114l-165 203l88 68l156 -212q40 23 86 33.5t95 10.5q45 0 93.5 -9t92.5 -35l162 213l85 -69l-169 -209 q33 -39 53.5 -100t20.5 -146q0 -77 -22.5 -140.5t-63.5 -110.5l181 -222zM791 684q0 53 -12.5 99.5t-40 81.5t-73 55t-109.5 20q-47 0 -87 -18.5t-70 -52t-46.5 -82t-16.5 -107.5q0 -56 12 -104.5t39 -86t71.5 -58.5t109.5 -21q45 0 85.5 19.5t71 55t48.5 86t18 113.5z" />
<glyph unicode="&#xa5;" d="M1107 1261q-25 -7 -60.5 -14.5t-63.5 -10.5l-327 -680h294v-90h-328v-152h328v-92h-328v-126q44 -3 86.5 -10.5t79.5 -18.5v-67h-461v67q35 11 78.5 18.5t87.5 10.5v126h-328v92h328v152h-328v90h292l-319 680q-28 3 -63.5 10.5t-60.5 14.5v70h426v-70q-36 -10 -77 -17 t-80 -10l175 -400q15 -35 29 -65.5t26 -59t23.5 -55.5t23.5 -56h2q24 61 53.5 123t60.5 133l171 380q-41 3 -81.5 10t-75.5 17v70h417v-70v0z" />
<glyph unicode="&#xa6;" horiz-adv-x="580" d="M238 780v754h102v-754h-102zM238 -514v774h102v-774h-102z" />
<glyph unicode="&#xa7;" horiz-adv-x="1051" d="M852 463q0 -41 -10 -79t-30 -73.5t-50.5 -68.5t-71.5 -64q39 -52 59.5 -104t20.5 -109q0 -60 -21.5 -114t-64.5 -96t-105.5 -65.5t-142.5 -23.5q-17 0 -35.5 1.5t-38.5 4t-40.5 7t-40.5 10.5l12 110q25 -7 44.5 -12t37 -8t35 -4.5t36.5 -1.5q45 0 80.5 13t60 37.5 t37.5 57.5t13 72q0 42 -19 84.5t-51 84t-57 68t-93 95.5t-107 114t-71.5 95t-51.5 105.5t-19 113.5q0 41 10 78.5t30 73.5t50.5 69t71.5 65q-39 54 -59.5 106t-20.5 107q0 62 20 115t61 93t102 62.5t140 22.5q34 0 73.5 -4.5t70.5 -13.5l-12 -111q-40 13 -71.5 18t-68.5 5 q-89 0 -135.5 -46t-46.5 -126q0 -42 19 -85t51 -84.5t58 -69t93 -96.5t106 -114.5t71.5 -95.5t51.5 -105.5t19 -113.5zM725 446q0 61 -28.5 120t-73 112.5t-121 132.5t-103.5 109q-53 -37 -78.5 -87t-25.5 -102q0 -60 28.5 -118.5t73 -112t123 -134.5t103.5 -108 q52 36 77 86t25 102z" />
<glyph unicode="&#xa8;" horiz-adv-x="944" d="M750 1348q0 -18 -6.5 -34.5t-19 -28.5t-28.5 -18.5t-34 -6.5t-34.5 6.5t-28.5 18.5t-19 28.5t-7 34.5q0 19 7 35t19 28t28 18.5t35 6.5q18 0 34 -6.5t28.5 -18.5t19 -28t6.5 -35zM371 1348q0 -19 -6.5 -35t-18.5 -28t-28 -18.5t-35 -6.5q-18 0 -34.5 6.5t-28.5 18.5 t-18.5 28.5t-6.5 34.5q0 19 6.5 35t18.5 28t28 18.5t35 6.5t35 -6.5t28 -18.5t18.5 -28t6.5 -35z" />
<glyph unicode="&#xa9;" horiz-adv-x="1540" d="M1448 690q0 -93 -23.5 -180.5t-67.5 -163.5t-105.5 -137.5t-137 -105.5t-163 -67.5t-181.5 -23.5t-181.5 23.5t-163.5 67t-137.5 105t-105 137t-67 162t-23.5 179.5t23.5 180.5t67.5 163.5t105.5 137.5t137 105.5t163 67.5t181.5 23.5t181.5 -23.5t163.5 -67t137.5 -105 t105 -137t67 -162t23.5 -179.5zM1341 686q0 79 -19.5 153t-56.5 139t-89 118t-115.5 91t-137.5 58.5t-153 20.5q-118 0 -222.5 -44.5t-183 -124.5t-122 -185t-43.5 -222q0 -118 43.5 -223.5t122 -185.5t183 -125t222.5 -45q79 0 153 20.5t137.5 58.5t115.5 90.5t89 117 t56.5 137.5t19.5 151zM971 356q-43 -16 -96 -24t-103 -8q-89 0 -152 26.5t-101 74t-55.5 111t-17.5 140.5q0 76 20 143.5t63 121t112.5 84t165.5 30.5q51 0 94.5 -5.5t61.5 -9.5v-239h-68q-4 17 -12.5 58.5t-14.5 96.5q-9 2 -30.5 4.5t-46.5 2.5q-61 0 -104.5 -21t-69.5 -59 t-38 -87.5t-12 -109.5q0 -64 13 -113t40 -82.5t69 -51t99 -17.5q45 0 89 7.5t86 21.5z" />
<glyph unicode="&#xaa;" horiz-adv-x="799" d="M752 741q-23 -4 -52.5 -6.5t-62.5 -4t-66.5 -2t-64.5 0.5q0 26 3 57.5t9 59.5l-6 2q-7 -24 -27 -47.5t-48.5 -42.5t-62.5 -30t-69 -11q-49 0 -85.5 11.5t-60.5 32.5t-36 50.5t-12 65.5q0 52 25.5 95.5t76 76t125.5 50t172 17.5v43q0 27 -5 51t-20 45.5t-44 34.5t-74 13 q-34 0 -64.5 -5.5t-62.5 -15.5q-3 -33 -8 -64.5t-11 -58.5h-69v195q15 6 38 13.5t54 14t66.5 11t72.5 4.5q67 0 114 -18t75 -49t40.5 -70.5t12.5 -85.5v-351q14 -2 30.5 -4.5t33 -4.5t32.5 -3.5t31 -3.5v-66zM129 485v103h561v-103h-561zM510 1034q-75 0 -128.5 -9.5 t-87.5 -27.5t-49.5 -43t-15.5 -57q0 -39 25.5 -61.5t71.5 -22.5q47 0 82.5 21.5t57.5 54.5t33 67.5t11 59.5v18z" />
<glyph unicode="&#xab;" horiz-adv-x="1008" d="M743 258l-258 344l260 350l93 -57l-217 -291l217 -289zM369 256l-240 346l242 352l94 -57l-201 -293l201 -289z" />
<glyph unicode="&#xac;" d="M866 223v331h-776v110h887v-441h-111z" />
<glyph unicode="&#xae;" horiz-adv-x="1149" d="M1005 1080q0 -88 -32 -167t-91 -138t-140 -92.5t-168 -33.5q-92 0 -171 33.5t-137 91.5t-90.5 137t-32.5 169t34 168t92.5 136.5t137 92.5t167.5 34q91 0 171 -32t138 -90t90 -138t32 -171zM907 1076q0 70 -25.5 132.5t-71 109t-106.5 74t-130 27.5q-70 0 -130.5 -26 t-106 -72t-71 -107t-25.5 -130q0 -70 25.5 -132t71 -109t106 -74.5t130.5 -27.5q69 0 130 26t106.5 72t71 107t25.5 130zM653 846l-93 202h-31v-137q12 -3 27.5 -8t26.5 -13v-44h-194v44q13 8 28.5 13t31.5 8v345q-16 3 -31.5 8t-28.5 11v45h51q23 0 44.5 0.5t39 1t33.5 1 t29 0.5q43 0 73 -9t49.5 -25t28.5 -38.5t9 -50.5q0 -55 -28.5 -89.5t-80.5 -45.5q11 -18 22 -35.5t16 -30.5l42 -88q19 -3 33.5 -9t26.5 -12v-44h-124zM663 1190q0 33 -18.5 49t-62.5 16h-26.5h-26.5v-145h17h17q28 0 47 7t31 18.5t17 25.5t5 29z" />
<glyph unicode="&#xaf;" horiz-adv-x="881" d="M195 1288v98h491v-98h-491z" />
<glyph unicode="&#xb0;" horiz-adv-x="752" d="M624 1261q0 -56 -22 -101t-58 -76.5t-82.5 -49t-94.5 -17.5q-56 0 -101 17t-76 48.5t-48 75.5t-17 99q0 57 21.5 103t56.5 77.5t81 48t94 16.5q62 0 108 -19.5t76.5 -52.5t46 -76.5t15.5 -92.5zM514 1259q0 25 -6.5 52.5t-23 50t-44 37t-68.5 14.5q-28 0 -53.5 -11.5 t-44 -31t-29.5 -48t-11 -62.5q0 -72 38.5 -112.5t99.5 -40.5q30 0 56 11.5t45.5 31.5t30 47.5t10.5 61.5z" />
<glyph unicode="&#xb1;" d="M624 672v-421h-122v421h-412v109h412v419h122v-419h412v-109h-412zM91 0v109h944v-109h-944z" />
<glyph unicode="&#xb2;" horiz-adv-x="700" d="M74 754v94l237 221q44 41 74.5 77.5t48.5 69.5t25.5 63.5t7.5 61.5q0 37 -10 67.5t-30.5 52t-51 33t-70.5 11.5q-29 0 -56.5 -4.5t-51.5 -13.5q-3 -37 -9.5 -77t-15.5 -83h-78v240q47 17 109 28t123 11q65 0 116 -18t85 -51t51.5 -77.5t17.5 -97.5q0 -87 -42.5 -166.5 t-135.5 -165.5l-180 -166q66 3 152.5 3.5t242.5 0.5v-114h-559z" />
<glyph unicode="&#xb3;" horiz-adv-x="686" d="M616 995q0 -60 -27 -108t-74.5 -81t-109.5 -50t-131 -17q-44 0 -96 6t-98 15l18 106q21 -5 44 -10t47 -8.5t49 -5.5t49 -2q41 0 76.5 9t63 26.5t43 45.5t15.5 64q0 39 -19 69t-59.5 49.5t-104.5 26t-150 -3.5v97q75 0 130.5 8.5t93.5 27t57.5 48.5t19.5 73q0 29 -10 52.5 t-29.5 40.5t-49 26.5t-67.5 9.5q-20 0 -43 -3t-49 -7q-6 -45 -11 -75t-14 -58h-78v217q23 5 50 9.5t54.5 7.5t54 4.5t48.5 1.5q65 0 115 -14.5t84.5 -41.5t52 -66t17.5 -87q0 -78 -39 -130t-113 -75q44 -7 79.5 -24.5t60 -44t37.5 -59.5t13 -69z" />
<glyph unicode="&#xb4;" horiz-adv-x="717" d="M266 1180l-71 63l237 279l90 -80z" />
<glyph unicode="&#xb6;" horiz-adv-x="1151" d="M862 1286v-1483h-280v97h155v1482h277v-96h-152zM586 532q-107 -1 -189 32t-136.5 92.5t-81.5 138t-27 168.5q0 88 31 164.5t88.5 133.5t138 89t176.5 32v-850z" />
<glyph unicode="&#xb7;" horiz-adv-x="428" d="M319 608q0 -22 -8 -41t-22.5 -33t-33.5 -22t-40 -8q-22 0 -41 8t-33 22t-22 33t-8 41t8 41.5t22 33.5t33 22t41 8q21 0 40 -8t33.5 -22t22.5 -33.5t8 -41.5z" />
<glyph unicode="&#xb8;" horiz-adv-x="614" d="M356 -84q38 -48 52.5 -96.5t7 -97.5t-33.5 -99.5t-71 -105.5h-116q45 57 69.5 100.5t31 83t-6.5 78.5t-49 82z" />
<glyph unicode="&#xb9;" horiz-adv-x="600" d="M393 852q40 -3 85 -10.5t85 -18.5v-69h-485v69q34 11 81.5 18.5t106.5 10.5v627l-190 -74l-25 100l240 86h102v-739z" />
<glyph unicode="&#xba;" horiz-adv-x="854" d="M735 1075q0 -80 -23 -145.5t-66 -113t-103 -72.5t-131 -25q-69 0 -123.5 19t-92.5 58.5t-58.5 103t-20.5 151.5q0 75 23 139t65.5 111t101 72.5t127.5 25.5q55 0 107 -14.5t96 -51t71 -100.5t27 -158zM145 485v103h564v-103h-564zM612 1061q0 46 -9.5 88t-31 76t-57 53.5 t-84.5 19.5q-36 0 -69.5 -14t-60 -42.5t-42.5 -73t-16 -103.5q0 -46 8.5 -89t29 -78.5t56 -57t86.5 -21.5q42 0 76.5 15.5t60 46t39.5 76t14 104.5z" />
<glyph unicode="&#xbb;" horiz-adv-x="1008" d="M635 256l-92 57l200 293l-198 289l94 59l240 -346zM260 258l-92 55l217 293l-215 287l94 59l256 -344z" />
<glyph unicode="&#xbc;" horiz-adv-x="1690" d="M393 852q40 -3 85 -10.5t85 -18.5v-69h-485v69q34 11 81.5 18.5t106.5 10.5v627l-190 -74l-25 100l240 86h102v-739zM274 -274l-93 61l1293 1851l90 -61zM1496 -8v-114q37 -3 71.5 -9.5t74.5 -17.5v-59h-424v59q38 10 79 17t81 10v114h-396l-8 84l356 553h166v-534h146 v-103h-146zM1378 531l-283 -442q27 1 65 2t78 1.5t72.5 0.5h67.5v438z" />
<glyph unicode="&#xbd;" horiz-adv-x="1755" d="M393 852q40 -3 85 -10.5t85 -18.5v-69h-485v69q34 11 81.5 18.5t106.5 10.5v627l-190 -74l-25 100l240 86h102v-739zM274 -274l-93 61l1293 1851l90 -61zM1128 -208v94l237 221q44 41 74.5 77.5t48.5 69.5t25.5 63.5t7.5 61.5q0 37 -10 67.5t-30.5 52t-51 33t-70.5 11.5 q-29 0 -56.5 -4.5t-51.5 -13.5q-3 -37 -9.5 -77t-15.5 -83h-78v240q47 17 109 28t123 11q65 0 116 -18t85 -51t51.5 -77.5t17.5 -97.5q0 -87 -42.5 -166.5t-135.5 -165.5l-180 -166q66 3 152.5 3.5t242.5 0.5v-114h-559z" />
<glyph unicode="&#xbe;" horiz-adv-x="1679" d="M616 995q0 -60 -27 -108t-74.5 -81t-109.5 -50t-131 -17q-44 0 -96 6t-98 15l18 106q21 -5 44 -10t47 -8.5t49 -5.5t49 -2q41 0 76.5 9t63 26.5t43 45.5t15.5 64q0 39 -19 69t-59.5 49.5t-104.5 26t-150 -3.5v97q75 0 130.5 8.5t93.5 27t57.5 48.5t19.5 73q0 29 -10 52.5 t-29.5 40.5t-49 26.5t-67.5 9.5q-20 0 -43 -3t-49 -7q-6 -45 -11 -75t-14 -58h-78v217q23 5 50 9.5t54.5 7.5t54 4.5t48.5 1.5q65 0 115 -14.5t84.5 -41.5t52 -66t17.5 -87q0 -78 -39 -130t-113 -75q44 -7 79.5 -24.5t60 -44t37.5 -59.5t13 -69zM263 -274l-93 61l1293 1851 l90 -61zM1483 -8v-114q37 -3 71.5 -9.5t74.5 -17.5v-59h-424v59q38 10 79 17t81 10v114h-396l-8 84l356 553h166v-534h146v-103h-146zM1365 531l-283 -442q27 1 65 2t78 1.5t72.5 0.5h67.5v438z" />
<glyph unicode="&#xbf;" horiz-adv-x="903" d="M612 936q0 -20 -7.5 -37.5t-21 -30.5t-31.5 -20.5t-38 -7.5t-38 7.5t-31.5 20.5t-21 30.5t-7.5 37.5t7.5 38t21 31.5t31.5 21t38 7.5t38 -7.5t31.5 -21t21 -31.5t7.5 -38zM692 -426q-122 5 -223.5 37t-174.5 84.5t-112 119t-39 140.5q0 60 17 108.5t44.5 87t67 78 t75.5 76t63.5 73.5t45 83.5t17.5 106.5t-22 134h127q23 -75 24.5 -137.5t-14.5 -112.5t-43 -90t-49 -64t-73.5 -77t-78 -87.5t-43 -75.5t-16.5 -89q0 -53 30 -101.5t86.5 -86t135 -61t172.5 -27.5z" />
<glyph unicode="&#xc0;" horiz-adv-x="1407" d="M938 0v70q38 10 83 17.5t89 10.5l-96 264h-633l-96 -264q45 -3 90.5 -10.5t83.5 -17.5v-70h-449v70q29 8 68 15.5t67 10.5l486 1286h147l482 -1286q29 -3 67 -10.5t68 -15.5v-70h-457zM762 1057q-22 62 -36.5 103.5t-27.5 84.5h-2q-12 -39 -25.5 -80t-35.5 -106 l-217 -590h559zM778 1499l-352 119l47 111l336 -152z" />
<glyph unicode="&#xc1;" horiz-adv-x="1407" d="M938 0v70q38 10 83 17.5t89 10.5l-96 264h-633l-96 -264q45 -3 90.5 -10.5t83.5 -17.5v-70h-449v70q29 8 68 15.5t67 10.5l486 1286h147l482 -1286q29 -3 67 -10.5t68 -15.5v-70h-457zM762 1057q-22 62 -36.5 103.5t-27.5 84.5h-2q-12 -39 -25.5 -80t-35.5 -106 l-217 -590h559zM606 1499l-30 78l335 152l48 -111z" />
<glyph unicode="&#xc2;" horiz-adv-x="1407" d="M938 0v70q38 10 83 17.5t89 10.5l-96 264h-633l-96 -264q45 -3 90.5 -10.5t83.5 -17.5v-70h-449v70q29 8 68 15.5t67 10.5l486 1286h147l482 -1286q29 -3 67 -10.5t68 -15.5v-70h-457zM762 1057q-22 62 -36.5 103.5t-27.5 84.5h-2q-12 -39 -25.5 -80t-35.5 -106 l-217 -590h559zM981 1495l-272 129l-272 -129l-43 82l317 168l313 -166z" />
<glyph unicode="&#xc3;" horiz-adv-x="1407" d="M938 0v70q38 10 83 17.5t89 10.5l-96 264h-633l-96 -264q45 -3 90.5 -10.5t83.5 -17.5v-70h-449v70q29 8 68 15.5t67 10.5l486 1286h147l482 -1286q29 -3 67 -10.5t68 -15.5v-70h-457zM762 1057q-22 62 -36.5 103.5t-27.5 84.5h-2q-12 -39 -25.5 -80t-35.5 -106 l-217 -590h559zM1053 1653q-39 -66 -92.5 -101.5t-118.5 -35.5q-46 0 -81 15t-76.5 44.5t-65 42t-54.5 12.5q-36 0 -72 -25t-63 -71l-71 53q37 66 91 101.5t120 35.5q46 0 81.5 -14.5t77 -43.5t65 -41.5t54.5 -12.5q36 0 70 23.5t63 70.5z" />
<glyph unicode="&#xc4;" horiz-adv-x="1407" d="M938 0v70q38 10 83 17.5t89 10.5l-96 264h-633l-96 -264q45 -3 90.5 -10.5t83.5 -17.5v-70h-449v70q29 8 68 15.5t67 10.5l486 1286h147l482 -1286q29 -3 67 -10.5t68 -15.5v-70h-457zM762 1057q-22 62 -36.5 103.5t-27.5 84.5h-2q-12 -39 -25.5 -80t-35.5 -106 l-217 -590h559zM1003 1593q0 -19 -6.5 -35t-19 -28t-28.5 -18.5t-34 -6.5t-34 6.5t-28.5 18.5t-19 28t-6.5 35q0 18 6.5 34t19 28.5t28.5 19t34 6.5t34 -6.5t28.5 -19t19 -28.5t6.5 -34zM567 1593q0 -19 -6.5 -35t-18.5 -28t-28 -18.5t-35 -6.5t-35 6.5t-28 18.5t-18.5 28 t-6.5 35q0 18 6.5 34t18.5 28.5t28.5 19t34.5 6.5q19 0 35 -6.5t28 -19t18.5 -28.5t6.5 -34z" />
<glyph unicode="&#xc5;" horiz-adv-x="1407" d="M938 0v70q38 10 83 17.5t89 10.5l-96 264h-633l-96 -264q45 -3 90.5 -10.5t83.5 -17.5v-70h-449v70q29 8 68 15.5t67 10.5l486 1286h147l482 -1286q29 -3 67 -10.5t68 -15.5v-70h-457zM762 1057q-22 62 -36.5 103.5t-27.5 84.5h-2q-12 -39 -25.5 -80t-35.5 -106 l-217 -590h559zM920 1671q0 -44 -15.5 -82.5t-44.5 -67.5t-71 -45t-93 -16q-48 0 -86.5 13t-65.5 38t-41.5 63t-14.5 87q0 44 15.5 82.5t44.5 67.5t71 45t94 16q48 0 86 -13t65 -38t41.5 -63t14.5 -87zM813 1665q0 29 -7.5 52t-21.5 39t-34 24t-45 8q-22 0 -41.5 -7.5 t-34.5 -22t-24 -38t-9 -53.5q0 -29 7 -51.5t21 -38t34.5 -23.5t46.5 -8q21 0 40.5 7t34.5 22t24 37.5t9 52.5z" />
<glyph unicode="&#xc6;" horiz-adv-x="1700" d="M682 0v70q38 10 83.5 17.5t90.5 10.5v262h-502l-143 -262q21 -1 43 -4t44 -6.5t43 -8t40 -9.5v-70h-447v70q29 8 68.5 15.5t67.5 10.5l667 1188q-47 3 -93 10.5t-85 18.5v69h969v-295h-82q-2 4 -14 68t-19 123h-426v-514h344q6 54 16.5 98t16.5 62h74v-420h-74 q-6 18 -16.5 61t-16.5 97h-344v-556h447q5 59 15.5 114.5t16.5 80.5h84v-301h-868zM856 1272h-6q-12 -25 -26 -51.5t-30.5 -58.5t-37.5 -72t-49 -93l-295 -530h444v805z" />
<glyph unicode="&#xc7;" horiz-adv-x="1225" d="M1128 70q-42 -18 -88.5 -33.5t-98 -27.5t-106 -18.5t-108.5 -6.5q-152 0 -269 46.5t-197 135t-120.5 216t-40.5 288.5q0 155 40.5 287t122.5 231.5t208 155t291 55.5q85 0 168.5 -12t169.5 -33v-293h-84q-5 25 -14.5 80t-14.5 114q-27 8 -93.5 20.5t-154.5 12.5 q-127 0 -222.5 -46.5t-156.5 -129t-90.5 -190.5t-29.5 -232q0 -138 32.5 -248t97 -187t161 -118t223.5 -41q44 0 90 6t90 17t85 25t81 30zM706 -84q38 -48 52.5 -96.5t7 -97.5t-33.5 -99.5t-71 -105.5h-116q45 57 69.5 100.5t31 83t-6.5 78.5t-49 82z" />
<glyph unicode="&#xc8;" horiz-adv-x="1079" d="M66 0v70q40 11 86 18t92 10v1186q-47 3 -93 10.5t-85 18.5v69h858v-295h-84q-5 24 -15 78t-16 113h-434v-514h344q6 54 16.5 98t16.5 62h73v-420h-73q-6 18 -16.5 61t-16.5 97h-344v-556h436q6 59 16.5 114.5t16.5 80.5h84v-301h-862zM598 1499l-352 119l47 111l336 -152 z" />
<glyph unicode="&#xc9;" horiz-adv-x="1079" d="M66 0v70q40 11 86 18t92 10v1186q-47 3 -93 10.5t-85 18.5v69h858v-295h-84q-5 24 -15 78t-16 113h-434v-514h344q6 54 16.5 98t16.5 62h73v-420h-73q-6 18 -16.5 61t-16.5 97h-344v-556h436q6 59 16.5 114.5t16.5 80.5h84v-301h-862zM452 1499l-30 78l335 152l48 -111z " />
<glyph unicode="&#xca;" horiz-adv-x="1079" d="M66 0v70q40 11 86 18t92 10v1186q-47 3 -93 10.5t-85 18.5v69h858v-295h-84q-5 24 -15 78t-16 113h-434v-514h344q6 54 16.5 98t16.5 62h73v-420h-73q-6 18 -16.5 61t-16.5 97h-344v-556h436q6 59 16.5 114.5t16.5 80.5h84v-301h-862zM819 1495l-272 129l-272 -129 l-43 82l317 168l313 -166z" />
<glyph unicode="&#xcb;" horiz-adv-x="1079" d="M66 0v70q40 11 86 18t92 10v1186q-47 3 -93 10.5t-85 18.5v69h858v-295h-84q-5 24 -15 78t-16 113h-434v-514h344q6 54 16.5 98t16.5 62h73v-420h-73q-6 18 -16.5 61t-16.5 97h-344v-556h436q6 59 16.5 114.5t16.5 80.5h84v-301h-862zM831 1593q0 -19 -6.5 -35t-19 -28 t-28.5 -18.5t-34 -6.5t-34 6.5t-28.5 18.5t-19 28t-6.5 35q0 18 6.5 34t19 28.5t28.5 19t34 6.5t34 -6.5t28.5 -19t19 -28.5t6.5 -34zM395 1593q0 -19 -6.5 -35t-18.5 -28t-28 -18.5t-35 -6.5t-35 6.5t-28 18.5t-18.5 28t-6.5 35q0 18 6.5 34t18.5 28.5t28.5 19t34.5 6.5 q19 0 35 -6.5t28 -19t18.5 -28.5t6.5 -34z" />
<glyph unicode="&#xcc;" horiz-adv-x="616" d="M66 0v70q40 11 86 18t92 10v1186q-47 3 -93 10.5t-85 18.5v69h487v-69q-39 -11 -85 -18.5t-93 -10.5v-1186q46 -3 92 -10.5t86 -17.5v-70h-487zM391 1499l-352 119l47 111l336 -152z" />
<glyph unicode="&#xcd;" horiz-adv-x="616" d="M66 0v70q40 11 86 18t92 10v1186q-47 3 -93 10.5t-85 18.5v69h487v-69q-39 -11 -85 -18.5t-93 -10.5v-1186q46 -3 92 -10.5t86 -17.5v-70h-487zM216 1499l-30 78l335 152l48 -111z" />
<glyph unicode="&#xce;" horiz-adv-x="616" d="M66 0v70q40 11 86 18t92 10v1186q-47 3 -93 10.5t-85 18.5v69h487v-69q-39 -11 -85 -18.5t-93 -10.5v-1186q46 -3 92 -10.5t86 -17.5v-70h-487zM585 1495l-272 129l-272 -129l-43 82l317 168l313 -166z" />
<glyph unicode="&#xcf;" horiz-adv-x="616" d="M66 0v70q40 11 86 18t92 10v1186q-47 3 -93 10.5t-85 18.5v69h487v-69q-39 -11 -85 -18.5t-93 -10.5v-1186q46 -3 92 -10.5t86 -17.5v-70h-487zM615 1593q0 -19 -6.5 -35t-19 -28t-28.5 -18.5t-34 -6.5t-34 6.5t-28.5 18.5t-19 28t-6.5 35q0 18 6.5 34t19 28.5t28.5 19 t34 6.5t34 -6.5t28.5 -19t19 -28.5t6.5 -34zM179 1593q0 -19 -6.5 -35t-18.5 -28t-28 -18.5t-35 -6.5t-35 6.5t-28 18.5t-18.5 28t-6.5 35q0 18 6.5 34t18.5 28.5t28.5 19t34.5 6.5q19 0 35 -6.5t28 -19t18.5 -28.5t6.5 -34z" />
<glyph unicode="&#xd0;" horiz-adv-x="1475" d="M1368 702q0 -174 -57 -308t-161 -222.5t-247 -133t-315 -44.5q-73 0 -178 3t-144 3h-178v70q40 10 86 17.5t92 10.5v566h-209v102h209v518q-47 3 -93 10.5t-85 18.5v69h176q36 0 75 1t106 2.5t114.5 2.5t93.5 1q114 0 211 -18.5t176.5 -56t140.5 -94t103 -133t63 -173 t21 -212.5zM1231 694q0 147 -38 257.5t-113.5 184t-186.5 110t-256 36.5q-29 0 -61 -0.5t-62.5 -1.5t-57.5 -2t-59 -2v-510h326v-102h-326v-547q23 -3 50.5 -5.5t56 -5t55.5 -3.5t49 -1q142 0 256.5 35.5t196.5 108.5t126 185t44 263z" />
<glyph unicode="&#xd1;" horiz-adv-x="1530" d="M1137 0l-492 782q-36 57 -75 119.5t-77 125t-73 121t-62 106.5q4 -96 7.5 -222t5 -274.5t2 -314.5t0.5 -343q45 -3 89.5 -11t85.5 -19v-70h-483v70q40 10 85.5 18.5t92.5 11.5v1184q-47 4 -92.5 11t-85.5 17v70h359l489 -775q36 -57 75 -120t77 -125t72.5 -121t61.5 -108 q-5 95 -7.5 220t-4 273t-2 313.5t-0.5 342.5q-46 3 -90 11t-83 19v70h453v-70q-34 -9 -72.5 -17t-77.5 -13v-1282h-178zM1113 1653q-39 -66 -92.5 -101.5t-118.5 -35.5q-46 0 -81 15t-76.5 44.5t-65 42t-54.5 12.5q-36 0 -72 -25t-63 -71l-71 53q37 66 91 101.5t120 35.5 q46 0 81.5 -14.5t77 -43.5t65 -41.5t54.5 -12.5q36 0 70 23.5t63 70.5z" />
<glyph unicode="&#xd2;" horiz-adv-x="1446" d="M1348 707q0 -171 -49.5 -306.5t-138 -228.5t-205.5 -140.5t-250 -47.5q-147 0 -261 49t-191 140.5t-116 219t-39 283.5q0 171 49.5 306.5t138 228.5t205 140.5t248.5 47.5q148 0 262 -49t191.5 -141t116.5 -219t39 -283zM1210 680q0 135 -31 246.5t-92 192.5t-153 125 t-211 44q-102 0 -190.5 -38t-155.5 -113t-104 -184.5t-37 -247.5q0 -136 30.5 -248t91.5 -193.5t153 -125.5t212 -44q101 0 189.5 38.5t155.5 113.5t104.5 185t37.5 249zM802 1499l-352 119l47 111l336 -152z" />
<glyph unicode="&#xd3;" horiz-adv-x="1446" d="M1348 707q0 -171 -49.5 -306.5t-138 -228.5t-205.5 -140.5t-250 -47.5q-147 0 -261 49t-191 140.5t-116 219t-39 283.5q0 171 49.5 306.5t138 228.5t205 140.5t248.5 47.5q148 0 262 -49t191.5 -141t116.5 -219t39 -283zM1210 680q0 135 -31 246.5t-92 192.5t-153 125 t-211 44q-102 0 -190.5 -38t-155.5 -113t-104 -184.5t-37 -247.5q0 -136 30.5 -248t91.5 -193.5t153 -125.5t212 -44q101 0 189.5 38.5t155.5 113.5t104.5 185t37.5 249zM670 1499l-30 78l335 152l48 -111z" />
<glyph unicode="&#xd4;" horiz-adv-x="1446" d="M1348 707q0 -171 -49.5 -306.5t-138 -228.5t-205.5 -140.5t-250 -47.5q-147 0 -261 49t-191 140.5t-116 219t-39 283.5q0 171 49.5 306.5t138 228.5t205 140.5t248.5 47.5q148 0 262 -49t191.5 -141t116.5 -219t39 -283zM1210 680q0 135 -31 246.5t-92 192.5t-153 125 t-211 44q-102 0 -190.5 -38t-155.5 -113t-104 -184.5t-37 -247.5q0 -136 30.5 -248t91.5 -193.5t153 -125.5t212 -44q101 0 189.5 38.5t155.5 113.5t104.5 185t37.5 249zM1011 1495l-272 129l-272 -129l-43 82l317 168l313 -166z" />
<glyph unicode="&#xd5;" horiz-adv-x="1446" d="M1348 707q0 -171 -49.5 -306.5t-138 -228.5t-205.5 -140.5t-250 -47.5q-147 0 -261 49t-191 140.5t-116 219t-39 283.5q0 171 49.5 306.5t138 228.5t205 140.5t248.5 47.5q148 0 262 -49t191.5 -141t116.5 -219t39 -283zM1210 680q0 135 -31 246.5t-92 192.5t-153 125 t-211 44q-102 0 -190.5 -38t-155.5 -113t-104 -184.5t-37 -247.5q0 -136 30.5 -248t91.5 -193.5t153 -125.5t212 -44q101 0 189.5 38.5t155.5 113.5t104.5 185t37.5 249zM1086 1653q-39 -66 -92.5 -101.5t-118.5 -35.5q-46 0 -81 15t-76.5 44.5t-65 42t-54.5 12.5 q-36 0 -72 -25t-63 -71l-71 53q37 66 91 101.5t120 35.5q46 0 81.5 -14.5t77 -43.5t65 -41.5t54.5 -12.5q36 0 70 23.5t63 70.5z" />
<glyph unicode="&#xd6;" horiz-adv-x="1446" d="M1348 707q0 -171 -49.5 -306.5t-138 -228.5t-205.5 -140.5t-250 -47.5q-147 0 -261 49t-191 140.5t-116 219t-39 283.5q0 171 49.5 306.5t138 228.5t205 140.5t248.5 47.5q148 0 262 -49t191.5 -141t116.5 -219t39 -283zM1210 680q0 135 -31 246.5t-92 192.5t-153 125 t-211 44q-102 0 -190.5 -38t-155.5 -113t-104 -184.5t-37 -247.5q0 -136 30.5 -248t91.5 -193.5t153 -125.5t212 -44q101 0 189.5 38.5t155.5 113.5t104.5 185t37.5 249zM1030 1593q0 -19 -6.5 -35t-19 -28t-28.5 -18.5t-34 -6.5t-34 6.5t-28.5 18.5t-19 28t-6.5 35 q0 18 6.5 34t19 28.5t28.5 19t34 6.5t34 -6.5t28.5 -19t19 -28.5t6.5 -34zM594 1593q0 -19 -6.5 -35t-18.5 -28t-28 -18.5t-35 -6.5t-35 6.5t-28 18.5t-18.5 28t-6.5 35q0 18 6.5 34t18.5 28.5t28.5 19t34.5 6.5q19 0 35 -6.5t28 -19t18.5 -28.5t6.5 -34z" />
<glyph unicode="&#xd7;" d="M924 169l-364 364l-363 -364l-73 74l364 362l-364 364l79 78l363 -363l363 363l73 -73l-363 -363l363 -363z" />
<glyph unicode="&#xd8;" horiz-adv-x="1446" d="M1348 705q0 -170 -49.5 -305t-138 -228t-205.5 -140.5t-250 -47.5q-60 0 -108.5 5t-90.5 17l-82 -215l-102 39l84 215q-80 42 -138.5 105t-96 144.5t-55.5 178t-18 205.5q0 114 22.5 213t65 179.5t101 141.5t130 103t153 63t169.5 21q48 0 96 -5t89 -14l77 203l103 -39 l-78 -201q78 -37 138.5 -96.5t101 -140.5t61.5 -181.5t21 -219.5zM1212 682q0 94 -13.5 176t-42 152t-73.5 125t-106 92l-426 -1108q36 -14 78 -19.5t92 -5.5q102 0 191 38t156.5 112.5t105.5 185.5t38 252zM881 1270q-27 9 -69.5 13.5t-88.5 4.5q-101 0 -190 -38 t-156.5 -112.5t-105.5 -184t-38 -248.5q0 -97 14 -180.5t41.5 -151.5t69.5 -120t97 -87z" />
<glyph unicode="&#xd9;" horiz-adv-x="1473" d="M1407 1313q-67 -19 -150 -29v-762q0 -131 -34 -231t-101 -168.5t-168 -103.5t-235 -35q-103 0 -182.5 18.5t-135.5 51.5t-92 77.5t-56.5 96.5t-29 108.5t-8.5 118.5v829q-82 10 -149 29v69h454v-69q-38 -11 -83 -18.5t-91 -10.5v-815q0 -83 17 -150t59.5 -119t118.5 -81 t190 -29q101 0 175 22.5t123.5 72t74 130t24.5 195.5v774q-45 3 -90.5 10.5t-83.5 18.5v69h453v-69zM766 1499l-352 119l47 111l336 -152z" />
<glyph unicode="&#xda;" horiz-adv-x="1473" d="M1407 1313q-67 -19 -150 -29v-762q0 -131 -34 -231t-101 -168.5t-168 -103.5t-235 -35q-103 0 -182.5 18.5t-135.5 51.5t-92 77.5t-56.5 96.5t-29 108.5t-8.5 118.5v829q-82 10 -149 29v69h454v-69q-38 -11 -83 -18.5t-91 -10.5v-815q0 -83 17 -150t59.5 -119t118.5 -81 t190 -29q101 0 175 22.5t123.5 72t74 130t24.5 195.5v774q-45 3 -90.5 10.5t-83.5 18.5v69h453v-69zM672 1499l-30 78l335 152l48 -111z" />
<glyph unicode="&#xdb;" horiz-adv-x="1473" d="M1407 1313q-67 -19 -150 -29v-762q0 -131 -34 -231t-101 -168.5t-168 -103.5t-235 -35q-103 0 -182.5 18.5t-135.5 51.5t-92 77.5t-56.5 96.5t-29 108.5t-8.5 118.5v829q-82 10 -149 29v69h454v-69q-38 -11 -83 -18.5t-91 -10.5v-815q0 -83 17 -150t59.5 -119t118.5 -81 t190 -29q101 0 175 22.5t123.5 72t74 130t24.5 195.5v774q-45 3 -90.5 10.5t-83.5 18.5v69h453v-69zM1008 1495l-272 129l-272 -129l-43 82l317 168l313 -166z" />
<glyph unicode="&#xdc;" horiz-adv-x="1473" d="M1407 1313q-67 -19 -150 -29v-762q0 -131 -34 -231t-101 -168.5t-168 -103.5t-235 -35q-103 0 -182.5 18.5t-135.5 51.5t-92 77.5t-56.5 96.5t-29 108.5t-8.5 118.5v829q-82 10 -149 29v69h454v-69q-38 -11 -83 -18.5t-91 -10.5v-815q0 -83 17 -150t59.5 -119t118.5 -81 t190 -29q101 0 175 22.5t123.5 72t74 130t24.5 195.5v774q-45 3 -90.5 10.5t-83.5 18.5v69h453v-69zM1048 1593q0 -19 -6.5 -35t-19 -28t-28.5 -18.5t-34 -6.5t-34 6.5t-28.5 18.5t-19 28t-6.5 35q0 18 6.5 34t19 28.5t28.5 19t34 6.5t34 -6.5t28.5 -19t19 -28.5t6.5 -34z M612 1593q0 -19 -6.5 -35t-18.5 -28t-28 -18.5t-35 -6.5t-35 6.5t-28 18.5t-18.5 28t-6.5 35q0 18 6.5 34t18.5 28.5t28.5 19t34.5 6.5q19 0 35 -6.5t28 -19t18.5 -28.5t6.5 -34z" />
<glyph unicode="&#xdd;" horiz-adv-x="1192" d="M1182 1313q-32 -9 -69.5 -16.5t-65.5 -10.5l-390 -784v-404q46 -3 92 -10t87 -18v-70h-488v70q40 10 86 17.5t92 10.5v404l-381 784q-27 3 -65.5 11t-69.5 16v69h455v-69q-37 -11 -81.5 -18.5t-88.5 -10.5l192 -424q14 -29 28 -60t28 -61.5t26.5 -59.5t28.5 -65h2 q12 30 26 63t29 66t30 64t34 72l190 405q-45 3 -89.5 10.5t-82.5 18.5v69h445v-69zM558 1499l-30 78l335 152l48 -111z" />
<glyph unicode="&#xde;" horiz-adv-x="1153" d="M1094 737q0 -102 -39.5 -188t-112 -148t-171.5 -95.5t-214 -33.5q-49 0 -88.5 3t-93.5 8v-187q46 -3 92 -10.5t86 -17.5v-68h-487v70q40 11 86 18t92 10v1186q-47 3 -93 10.5t-85 18.5v69h487v-67q-39 -11 -85 -18.5t-93 -10.5v-139q14 1 37 1.5t51.5 1t60.5 1t62 0.5 q134 0 231.5 -33.5t158.5 -92t89.5 -132t28.5 -156.5zM954 717q0 66 -20 123.5t-65.5 103.5t-122 73t-185.5 27q-69 0 -111 -0.5t-75 -1.5v-649q39 -6 87.5 -10t102.5 -4q98 0 172.5 26.5t122.5 73.5t71 108t23 130z" />
<glyph unicode="&#xdf;" horiz-adv-x="1278" d="M1202 305q0 -66 -24 -124t-71.5 -102.5t-119 -69.5t-164.5 -25q-44 0 -93 5t-93 13v274h76q9 -44 16 -89t12 -85q17 -5 43 -7.5t52 -2.5q64 0 109.5 15.5t73 42.5t40 61.5t12.5 73.5q0 44 -18 77.5t-49 58t-58 38.5t-89 45t-99.5 54.5t-68.5 56t-49.5 77t-18.5 103.5 q0 57 20.5 99t51.5 71t82 64t78.5 58t48 58t20.5 82q0 42 -18 74.5t-50.5 54t-76 32.5t-93.5 11q-76 0 -133.5 -21.5t-97 -68t-60 -120.5t-20.5 -179v-912q42 -3 83 -10.5t68 -17.5v-70h-458v70q40 11 86 18t92 10v815q-35 6 -86 12t-99 9v70q44 5 91.5 9t93.5 5 q0 112 27 201.5t83 153t141.5 97t200.5 33.5q85 0 152 -20t112.5 -55.5t69 -83t23.5 -101.5q0 -66 -20.5 -112.5t-52 -76t-86 -64.5t-78.5 -53t-44 -50t-20 -78q0 -55 30.5 -93.5t68.5 -61t117 -62t126 -74t77.5 -87t30.5 -126.5z" />
<glyph unicode="&#xe0;" horiz-adv-x="1081" d="M1038 14q-10 -1 -35.5 -4t-68.5 -6t-95 -4.5t-102 0.5q-1 89 3.5 146t7.5 77l-5 2q-19 -50 -52.5 -94t-79.5 -77t-103 -51.5t-121 -18.5q-63 0 -114.5 18t-89 52.5t-57.5 84t-20 111.5q0 82 44 144.5t126.5 105t198 64t258.5 22.5v86q0 64 -12 112.5t-39.5 81.5 t-73.5 50.5t-112 17.5q-76 0 -135.5 -13t-84.5 -22q-5 -52 -14 -106t-14 -80h-76v264q37 14 128 35.5t212 21.5q99 0 167 -24t108 -69t57.5 -106.5t17.5 -140.5v-590q22 -3 71.5 -9.5t104.5 -10.5v-70zM733 485q-123 0 -215.5 -13t-154.5 -39.5t-93.5 -68t-31.5 -98.5 q0 -38 12 -70t35 -56t57 -37t78 -13q68 0 125.5 31.5t100 86t65 123t22.5 138.5v16zM530 1180l-256 262l90 80l237 -279z" />
<glyph unicode="&#xe1;" horiz-adv-x="1081" d="M1038 14q-10 -1 -35.5 -4t-68.5 -6t-95 -4.5t-102 0.5q-1 89 3.5 146t7.5 77l-5 2q-19 -50 -52.5 -94t-79.5 -77t-103 -51.5t-121 -18.5q-63 0 -114.5 18t-89 52.5t-57.5 84t-20 111.5q0 82 44 144.5t126.5 105t198 64t258.5 22.5v86q0 64 -12 112.5t-39.5 81.5 t-73.5 50.5t-112 17.5q-76 0 -135.5 -13t-84.5 -22q-5 -52 -14 -106t-14 -80h-76v264q37 14 128 35.5t212 21.5q99 0 167 -24t108 -69t57.5 -106.5t17.5 -140.5v-590q22 -3 71.5 -9.5t104.5 -10.5v-70zM733 485q-123 0 -215.5 -13t-154.5 -39.5t-93.5 -68t-31.5 -98.5 q0 -38 12 -70t35 -56t57 -37t78 -13q68 0 125.5 31.5t100 86t65 123t22.5 138.5v16zM510 1180l-71 63l237 279l90 -80z" />
<glyph unicode="&#xe2;" horiz-adv-x="1081" d="M1038 14q-10 -1 -35.5 -4t-68.5 -6t-95 -4.5t-102 0.5q-1 89 3.5 146t7.5 77l-5 2q-19 -50 -52.5 -94t-79.5 -77t-103 -51.5t-121 -18.5q-63 0 -114.5 18t-89 52.5t-57.5 84t-20 111.5q0 82 44 144.5t126.5 105t198 64t258.5 22.5v86q0 64 -12 112.5t-39.5 81.5 t-73.5 50.5t-112 17.5q-76 0 -135.5 -13t-84.5 -22q-5 -52 -14 -106t-14 -80h-76v264q37 14 128 35.5t212 21.5q99 0 167 -24t108 -69t57.5 -106.5t17.5 -140.5v-590q22 -3 71.5 -9.5t104.5 -10.5v-70zM733 485q-123 0 -215.5 -13t-154.5 -39.5t-93.5 -68t-31.5 -98.5 q0 -38 12 -70t35 -56t57 -37t78 -13q68 0 125.5 31.5t100 86t65 123t22.5 138.5v16zM717 1184l-200 178l-203 -178l-61 63l266 262l262 -260z" />
<glyph unicode="&#xe3;" horiz-adv-x="1081" d="M1038 14q-10 -1 -35.5 -4t-68.5 -6t-95 -4.5t-102 0.5q-1 89 3.5 146t7.5 77l-5 2q-19 -50 -52.5 -94t-79.5 -77t-103 -51.5t-121 -18.5q-63 0 -114.5 18t-89 52.5t-57.5 84t-20 111.5q0 82 44 144.5t126.5 105t198 64t258.5 22.5v86q0 64 -12 112.5t-39.5 81.5 t-73.5 50.5t-112 17.5q-76 0 -135.5 -13t-84.5 -22q-5 -52 -14 -106t-14 -80h-76v264q37 14 128 35.5t212 21.5q99 0 167 -24t108 -69t57.5 -106.5t17.5 -140.5v-590q22 -3 71.5 -9.5t104.5 -10.5v-70zM733 485q-123 0 -215.5 -13t-154.5 -39.5t-93.5 -68t-31.5 -98.5 q0 -38 12 -70t35 -56t57 -37t78 -13q68 0 125.5 31.5t100 86t65 123t22.5 138.5v16zM845 1380q-37 -68 -90 -104.5t-117 -36.5q-44 0 -77.5 15.5t-74 45.5t-63.5 43t-53 13q-34 0 -67 -25t-60 -74l-69 56q37 68 89.5 104.5t116.5 36.5q44 0 78 -15.5t74 -45.5t62.5 -43 t52.5 -13q36 0 69 25t60 74z" />
<glyph unicode="&#xe4;" horiz-adv-x="1081" d="M1038 14q-10 -1 -35.5 -4t-68.5 -6t-95 -4.5t-102 0.5q-1 89 3.5 146t7.5 77l-5 2q-19 -50 -52.5 -94t-79.5 -77t-103 -51.5t-121 -18.5q-63 0 -114.5 18t-89 52.5t-57.5 84t-20 111.5q0 82 44 144.5t126.5 105t198 64t258.5 22.5v86q0 64 -12 112.5t-39.5 81.5 t-73.5 50.5t-112 17.5q-76 0 -135.5 -13t-84.5 -22q-5 -52 -14 -106t-14 -80h-76v264q37 14 128 35.5t212 21.5q99 0 167 -24t108 -69t57.5 -106.5t17.5 -140.5v-590q22 -3 71.5 -9.5t104.5 -10.5v-70zM733 485q-123 0 -215.5 -13t-154.5 -39.5t-93.5 -68t-31.5 -98.5 q0 -38 12 -70t35 -56t57 -37t78 -13q68 0 125.5 31.5t100 86t65 123t22.5 138.5v16zM790 1348q0 -18 -6.5 -34.5t-19 -28.5t-28.5 -18.5t-34 -6.5t-34.5 6.5t-28.5 18.5t-19 28.5t-7 34.5q0 19 7 35t19 28t28 18.5t35 6.5q18 0 34 -6.5t28.5 -18.5t19 -28t6.5 -35zM411 1348 q0 -19 -6.5 -35t-18.5 -28t-28 -18.5t-35 -6.5q-18 0 -34.5 6.5t-28.5 18.5t-18.5 28.5t-6.5 34.5q0 19 6.5 35t18.5 28t28 18.5t35 6.5t35 -6.5t28 -18.5t18.5 -28t6.5 -35z" />
<glyph unicode="&#xe5;" horiz-adv-x="1081" d="M1038 14q-10 -1 -35.5 -4t-68.5 -6t-95 -4.5t-102 0.5q-1 89 3.5 146t7.5 77l-5 2q-19 -50 -52.5 -94t-79.5 -77t-103 -51.5t-121 -18.5q-63 0 -114.5 18t-89 52.5t-57.5 84t-20 111.5q0 82 44 144.5t126.5 105t198 64t258.5 22.5v86q0 64 -12 112.5t-39.5 81.5 t-73.5 50.5t-112 17.5q-76 0 -135.5 -13t-84.5 -22q-5 -52 -14 -106t-14 -80h-76v264q37 14 128 35.5t212 21.5q99 0 167 -24t108 -69t57.5 -106.5t17.5 -140.5v-590q22 -3 71.5 -9.5t104.5 -10.5v-70zM733 485q-123 0 -215.5 -13t-154.5 -39.5t-93.5 -68t-31.5 -98.5 q0 -38 12 -70t35 -56t57 -37t78 -13q68 0 125.5 31.5t100 86t65 123t22.5 138.5v16zM739 1364q0 -44 -15 -82.5t-44 -68t-71 -46t-94 -16.5q-48 0 -86 12.5t-65 38t-41 63.5t-14 88q0 43 15.5 81.5t44.5 67.5t71 45.5t94 16.5q47 0 85 -12.5t65 -38t41 -63t14 -86.5z M632 1357q0 29 -7 51.5t-21 38t-34 23.5t-46 8q-22 0 -41.5 -7.5t-34.5 -22t-24 -38t-9 -53.5q0 -29 7.5 -51t21.5 -37.5t34.5 -23.5t45.5 -8q21 0 40.5 7t34.5 22t24 38t9 53z" />
<glyph unicode="&#xe6;" horiz-adv-x="1661" d="M1556 627q0 -20 -1.5 -42t-3.5 -40.5t-3 -29.5t-2 -15h-684q-1 -102 20 -178.5t63.5 -127.5t107.5 -76.5t153 -25.5q73 0 147 14t150 41l21 -102q-83 -29 -166.5 -45t-169.5 -16q-87 0 -155.5 18t-118.5 51t-83 78t-51 102h-2q-22 -48 -59 -92.5t-87.5 -80t-112.5 -56 t-132 -20.5q-63 0 -114.5 18t-89 52.5t-57.5 84t-20 111.5q0 75 40.5 139t120.5 111.5t198 73.5t268 26v72q0 64 -12 112.5t-39.5 81.5t-73.5 50.5t-112 17.5q-76 0 -135.5 -13t-84.5 -22q-5 -52 -14 -106t-14 -80h-76v264q37 14 128 35.5t212 21.5q60 0 110 -10t90 -30.5 t70 -54t49 -79.5h3q22 37 54.5 68.5t74.5 55t93.5 37t108.5 13.5q101 0 176 -32t122.5 -88.5t70 -129.5t22.5 -157zM1417 598q6 73 -7.5 134.5t-46 106.5t-84.5 70t-122 25q-68 0 -121.5 -27t-90.5 -74t-57.5 -107.5t-23.5 -127.5h553zM733 500q-137 0 -233.5 -19t-154 -52 t-82.5 -74.5t-25 -88.5q0 -38 12 -70t35 -56t57 -37t78 -13q68 0 125.5 31.5t100 86t65 123t22.5 138.5v31z" />
<glyph unicode="&#xe7;" horiz-adv-x="913" d="M854 47q-28 -11 -62.5 -21.5t-75.5 -19t-86 -13.5t-91 -5q-59 0 -113 9t-103.5 30.5t-91 58t-72.5 91t-48 130t-17 172.5q0 125 31 226.5t92.5 174t153 111.5t209.5 39q66 0 132 -9.5t122 -25.5v-276h-78q-6 24 -16 77.5t-15 110.5q-19 5 -64.5 13t-101.5 8 q-80 0 -142 -31t-104 -87.5t-63 -134t-21 -169.5t15.5 -165.5t53 -128.5t102.5 -85.5t161 -30.5q64 0 136.5 16t129.5 40zM559 -84q38 -48 52.5 -96.5t7 -97.5t-33.5 -99.5t-71 -105.5h-116q45 57 69.5 100.5t31 83t-6.5 78.5t-49 82z" />
<glyph unicode="&#xe8;" horiz-adv-x="1030" d="M926 625q0 -19 -0.5 -36.5t-1.5 -31t-1.5 -21t-0.5 -10.5h-693q-2 -112 19 -194t64.5 -135.5t109 -79t153.5 -25.5q73 0 147 14t150 41l21 -102q-83 -29 -166.5 -45t-169.5 -16q-114 0 -200 31.5t-144.5 95.5t-88.5 162.5t-30 232.5q0 113 30 210t87.5 168.5t139.5 110.5 t184 39q101 0 176 -32t122.5 -88.5t70 -130t22.5 -158.5zM788 623q2 73 -15 130.5t-51.5 97.5t-84 60.5t-111.5 20.5q-57 0 -106 -20t-87 -59t-63 -97.5t-34 -132.5h552zM535 1180l-256 262l90 80l237 -279z" />
<glyph unicode="&#xe9;" horiz-adv-x="1030" d="M926 625q0 -19 -0.5 -36.5t-1.5 -31t-1.5 -21t-0.5 -10.5h-693q-2 -112 19 -194t64.5 -135.5t109 -79t153.5 -25.5q73 0 147 14t150 41l21 -102q-83 -29 -166.5 -45t-169.5 -16q-114 0 -200 31.5t-144.5 95.5t-88.5 162.5t-30 232.5q0 113 30 210t87.5 168.5t139.5 110.5 t184 39q101 0 176 -32t122.5 -88.5t70 -130t22.5 -158.5zM788 623q2 73 -15 130.5t-51.5 97.5t-84 60.5t-111.5 20.5q-57 0 -106 -20t-87 -59t-63 -97.5t-34 -132.5h552zM521 1180l-71 63l237 279l90 -80z" />
<glyph unicode="&#xea;" horiz-adv-x="1030" d="M926 625q0 -19 -0.5 -36.5t-1.5 -31t-1.5 -21t-0.5 -10.5h-693q-2 -112 19 -194t64.5 -135.5t109 -79t153.5 -25.5q73 0 147 14t150 41l21 -102q-83 -29 -166.5 -45t-169.5 -16q-114 0 -200 31.5t-144.5 95.5t-88.5 162.5t-30 232.5q0 113 30 210t87.5 168.5t139.5 110.5 t184 39q101 0 176 -32t122.5 -88.5t70 -130t22.5 -158.5zM788 623q2 73 -15 130.5t-51.5 97.5t-84 60.5t-111.5 20.5q-57 0 -106 -20t-87 -59t-63 -97.5t-34 -132.5h552zM731 1184l-200 178l-203 -178l-61 63l266 262l262 -260z" />
<glyph unicode="&#xeb;" horiz-adv-x="1030" d="M926 625q0 -19 -0.5 -36.5t-1.5 -31t-1.5 -21t-0.5 -10.5h-693q-2 -112 19 -194t64.5 -135.5t109 -79t153.5 -25.5q73 0 147 14t150 41l21 -102q-83 -29 -166.5 -45t-169.5 -16q-114 0 -200 31.5t-144.5 95.5t-88.5 162.5t-30 232.5q0 113 30 210t87.5 168.5t139.5 110.5 t184 39q101 0 176 -32t122.5 -88.5t70 -130t22.5 -158.5zM788 623q2 73 -15 130.5t-51.5 97.5t-84 60.5t-111.5 20.5q-57 0 -106 -20t-87 -59t-63 -97.5t-34 -132.5h552zM808 1348q0 -18 -6.5 -34.5t-19 -28.5t-28.5 -18.5t-34 -6.5t-34.5 6.5t-28.5 18.5t-19 28.5t-7 34.5 q0 19 7 35t19 28t28 18.5t35 6.5q18 0 34 -6.5t28.5 -18.5t19 -28t6.5 -35zM429 1348q0 -19 -6.5 -35t-18.5 -28t-28 -18.5t-35 -6.5q-18 0 -34.5 6.5t-28.5 18.5t-18.5 28.5t-6.5 34.5q0 19 6.5 35t18.5 28t28 18.5t35 6.5t35 -6.5t28 -18.5t18.5 -28t6.5 -35z" />
<glyph unicode="&#xec;" horiz-adv-x="592" d="M66 0v70q20 6 68.5 15t107.5 13v815q-36 7 -83.5 12.5t-92.5 8.5v70q32 4 70.5 7t79.5 5t81 2.5t74 -0.5v-920q45 -3 90.5 -10t85.5 -18v-70h-481zM315 1180l-256 262l90 80l237 -279z" />
<glyph unicode="&#xed;" horiz-adv-x="592" d="M66 0v70q20 6 68.5 15t107.5 13v815q-36 7 -83.5 12.5t-92.5 8.5v70q32 4 70.5 7t79.5 5t81 2.5t74 -0.5v-920q45 -3 90.5 -10t85.5 -18v-70h-481zM274 1180l-71 63l237 279l90 -80z" />
<glyph unicode="&#xee;" horiz-adv-x="592" d="M66 0v70q20 6 68.5 15t107.5 13v815q-36 7 -83.5 12.5t-92.5 8.5v70q32 4 70.5 7t79.5 5t81 2.5t74 -0.5v-920q45 -3 90.5 -10t85.5 -18v-70h-481zM502 1184l-200 178l-203 -178l-61 63l266 262l262 -260z" />
<glyph unicode="&#xef;" horiz-adv-x="592" d="M66 0v70q20 6 68.5 15t107.5 13v815q-36 7 -83.5 12.5t-92.5 8.5v70q32 4 70.5 7t79.5 5t81 2.5t74 -0.5v-920q45 -3 90.5 -10t85.5 -18v-70h-481zM548 1348q0 -18 -6.5 -34.5t-18.5 -28.5t-28.5 -18.5t-34.5 -6.5t-34 6.5t-28.5 18.5t-19 28.5t-6.5 34.5q0 19 6.5 35 t19 28t28.5 18.5t34 6.5q19 0 35.5 -6.5t28 -18.5t18 -28t6.5 -35zM206 1348q0 -18 -6.5 -34.5t-18.5 -28.5t-28.5 -18.5t-34.5 -6.5q-19 0 -35 6.5t-28 18.5t-18.5 28t-6.5 35t6.5 35t18.5 28t28 18.5t35 6.5t35 -6.5t28 -18.5t18.5 -28t6.5 -35z" />
<glyph unicode="&#xf0;" horiz-adv-x="1106" d="M1010 551q0 -141 -35.5 -249t-99 -178.5t-149.5 -105t-187 -34.5q-102 0 -184.5 32t-142 97t-91 164t-31.5 229q0 108 32 204t93 169t150 114t200 41q39 0 76.5 -6.5t71 -20.5t60.5 -36t44 -51q-15 30 -41 73.5t-28 46.5q-28 51 -63 99t-85 102l-221 -100l-60 76l209 94 q-34 32 -77 68.5t-97 78.5l133 58q47 -38 87.5 -75t76.5 -75l221 96l60 -76l-213 -94q68 -82 122 -169.5t91.5 -181.5t57.5 -192t20 -198zM874 535q0 90 -20.5 163t-61 125t-100.5 79.5t-139 27.5q-65 0 -123.5 -25t-105 -76.5t-73 -130.5t-26.5 -182q0 -100 23 -179.5 t66.5 -134.5t106 -83.5t140.5 -28.5q66 0 122.5 25.5t99.5 79t67 139t24 201.5z" />
<glyph unicode="&#xf1;" horiz-adv-x="1251" d="M905 0v659q0 67 -10 116.5t-33.5 84t-63.5 52.5t-100 18q-71 0 -131 -33t-104 -93t-68 -141.5t-24 -177.5v-387q60 -4 107.5 -13t66.5 -15v-70h-479v70q20 6 67.5 15t108.5 13v815q-36 7 -83.5 12.5t-92.5 8.5v70q32 4 70.5 7t79.5 5t81.5 2.5t75.5 -0.5q0 -27 -1 -58 t-3.5 -63.5t-6 -62.5t-8.5 -54l4 -2q22 59 57 106t82 80.5t105 51.5t125 18q86 0 145.5 -24.5t95 -69t51 -103t15.5 -130.5v-609q60 -4 107.5 -13t66.5 -15v-70h-303zM964 1380q-37 -68 -90 -104.5t-117 -36.5q-44 0 -77.5 15.5t-74 45.5t-63.5 43t-53 13q-34 0 -67 -25 t-60 -74l-69 56q37 68 89.5 104.5t116.5 36.5q44 0 78 -15.5t74 -45.5t62.5 -43t52.5 -13q36 0 69 25t60 74z" />
<glyph unicode="&#xf2;" horiz-adv-x="1110" d="M1016 518q0 -112 -31 -209.5t-91.5 -170.5t-150.5 -113.5t-204 -40.5q-102 0 -184 31.5t-140.5 96t-89.5 162t-31 226.5q0 112 31 209.5t91.5 170.5t150.5 113.5t204 40.5q102 0 184 -31.5t140.5 -96t89.5 -162t31 -226.5zM881 510q0 99 -22 177t-64.5 132.5t-102.5 82.5 t-135 28t-136 -27t-104.5 -80.5t-66.5 -132.5t-23 -182q0 -99 22 -177t64.5 -131.5t103 -81.5t136.5 -28q71 0 130.5 25t104 76.5t69 131.5t24.5 187zM575 1180l-256 262l90 80l237 -279z" />
<glyph unicode="&#xf3;" horiz-adv-x="1110" d="M1016 518q0 -112 -31 -209.5t-91.5 -170.5t-150.5 -113.5t-204 -40.5q-102 0 -184 31.5t-140.5 96t-89.5 162t-31 226.5q0 112 31 209.5t91.5 170.5t150.5 113.5t204 40.5q102 0 184 -31.5t140.5 -96t89.5 -162t31 -226.5zM881 510q0 99 -22 177t-64.5 132.5t-102.5 82.5 t-135 28t-136 -27t-104.5 -80.5t-66.5 -132.5t-23 -182q0 -99 22 -177t64.5 -131.5t103 -81.5t136.5 -28q71 0 130.5 25t104 76.5t69 131.5t24.5 187zM553 1180l-71 63l237 279l90 -80z" />
<glyph unicode="&#xf4;" horiz-adv-x="1110" d="M1016 518q0 -112 -31 -209.5t-91.5 -170.5t-150.5 -113.5t-204 -40.5q-102 0 -184 31.5t-140.5 96t-89.5 162t-31 226.5q0 112 31 209.5t91.5 170.5t150.5 113.5t204 40.5q102 0 184 -31.5t140.5 -96t89.5 -162t31 -226.5zM881 510q0 99 -22 177t-64.5 132.5t-102.5 82.5 t-135 28t-136 -27t-104.5 -80.5t-66.5 -132.5t-23 -182q0 -99 22 -177t64.5 -131.5t103 -81.5t136.5 -28q71 0 130.5 25t104 76.5t69 131.5t24.5 187zM753 1184l-200 178l-203 -178l-61 63l266 262l262 -260z" />
<glyph unicode="&#xf5;" horiz-adv-x="1110" d="M1016 518q0 -112 -31 -209.5t-91.5 -170.5t-150.5 -113.5t-204 -40.5q-102 0 -184 31.5t-140.5 96t-89.5 162t-31 226.5q0 112 31 209.5t91.5 170.5t150.5 113.5t204 40.5q102 0 184 -31.5t140.5 -96t89.5 -162t31 -226.5zM881 510q0 99 -22 177t-64.5 132.5t-102.5 82.5 t-135 28t-136 -27t-104.5 -80.5t-66.5 -132.5t-23 -182q0 -99 22 -177t64.5 -131.5t103 -81.5t136.5 -28q71 0 130.5 25t104 76.5t69 131.5t24.5 187zM897 1380q-37 -68 -90 -104.5t-117 -36.5q-44 0 -77.5 15.5t-74 45.5t-63.5 43t-53 13q-34 0 -67 -25t-60 -74l-69 56 q37 68 89.5 104.5t116.5 36.5q44 0 78 -15.5t74 -45.5t62.5 -43t52.5 -13q36 0 69 25t60 74z" />
<glyph unicode="&#xf6;" horiz-adv-x="1110" d="M1016 518q0 -112 -31 -209.5t-91.5 -170.5t-150.5 -113.5t-204 -40.5q-102 0 -184 31.5t-140.5 96t-89.5 162t-31 226.5q0 112 31 209.5t91.5 170.5t150.5 113.5t204 40.5q102 0 184 -31.5t140.5 -96t89.5 -162t31 -226.5zM881 510q0 99 -22 177t-64.5 132.5t-102.5 82.5 t-135 28t-136 -27t-104.5 -80.5t-66.5 -132.5t-23 -182q0 -99 22 -177t64.5 -131.5t103 -81.5t136.5 -28q71 0 130.5 25t104 76.5t69 131.5t24.5 187zM834 1348q0 -18 -6.5 -34.5t-19 -28.5t-28.5 -18.5t-34 -6.5t-34.5 6.5t-28.5 18.5t-19 28.5t-7 34.5q0 19 7 35t19 28 t28 18.5t35 6.5q18 0 34 -6.5t28.5 -18.5t19 -28t6.5 -35zM455 1348q0 -19 -6.5 -35t-18.5 -28t-28 -18.5t-35 -6.5q-18 0 -34.5 6.5t-28.5 18.5t-18.5 28.5t-6.5 34.5q0 19 6.5 35t18.5 28t28 18.5t35 6.5t35 -6.5t28 -18.5t18.5 -28t6.5 -35z" />
<glyph unicode="&#xf7;" d="M657 1020q0 -20 -7.5 -38t-21 -31t-31.5 -21t-38 -8t-37.5 8t-31 21t-21.5 31t-8 38t8 38t21.5 31t31 21t37.5 8t38 -8t31.5 -21t21 -31t7.5 -38zM90 554v110h946v-110h-946zM657 195q0 -21 -7.5 -38.5t-21 -31t-31.5 -21t-38 -7.5t-37.5 7.5t-31 21t-21.5 31t-8 38.5 q0 20 8 38t21.5 31.5t31 21t37.5 7.5t38 -7.5t31.5 -21t21 -31.5t7.5 -38z" />
<glyph unicode="&#xf8;" horiz-adv-x="1110" d="M1016 518q0 -112 -31 -209.5t-91.5 -170.5t-150.5 -113.5t-204 -40.5q-53 0 -101.5 9t-85.5 25l-100 -192l-92 43l102 197q-38 30 -69 71.5t-53 95.5t-34 121t-12 146q0 112 31 209.5t91.5 170.5t150.5 113.5t204 40.5q53 0 102 -9t85 -26l100 193l92 -43l-104 -197 q39 -31 70 -72.5t53.5 -95t34.5 -120.5t12 -146zM887 510q0 110 -28 194t-73 134l-380 -719q31 -15 70.5 -24t76.5 -9q76 0 137.5 27t105.5 81t67.5 133.5t23.5 182.5zM702 899q-29 15 -68.5 24t-76.5 9q-76 0 -137.5 -27t-105.5 -81t-67.5 -133.5t-23.5 -182.5 q0 -56 7.5 -106t21.5 -91.5t32 -74t40 -56.5z" />
<glyph unicode="&#xf9;" horiz-adv-x="1235" d="M1190 14q-31 -4 -69.5 -7t-80 -5t-82 -2.5t-75.5 0.5q0 27 1 58t3.5 63.5t6 62.5t7.5 54l-4 2q-21 -59 -56 -106t-82.5 -80.5t-105.5 -51.5t-125 -18q-85 0 -145 24.5t-95.5 68.5t-51 102.5t-15.5 129.5v604q-36 7 -83.5 12.5t-92.5 8.5v70q31 4 69.5 7t79.5 5t81 2.5 t75 -0.5v-660q0 -66 10 -115.5t34 -84t64 -52.5t99 -18q71 0 131.5 32.5t104.5 92.5t68 141.5t24 177.5v381q-36 7 -83.5 12.5t-90.5 8.5v70q32 4 69.5 7t78 5t80.5 2.5t75 -0.5v-914q38 -6 85 -11.5t91 -8.5v-70zM616 1180l-256 262l90 80l237 -279z" />
<glyph unicode="&#xfa;" horiz-adv-x="1235" d="M1190 14q-31 -4 -69.5 -7t-80 -5t-82 -2.5t-75.5 0.5q0 27 1 58t3.5 63.5t6 62.5t7.5 54l-4 2q-21 -59 -56 -106t-82.5 -80.5t-105.5 -51.5t-125 -18q-85 0 -145 24.5t-95.5 68.5t-51 102.5t-15.5 129.5v604q-36 7 -83.5 12.5t-92.5 8.5v70q31 4 69.5 7t79.5 5t81 2.5 t75 -0.5v-660q0 -66 10 -115.5t34 -84t64 -52.5t99 -18q71 0 131.5 32.5t104.5 92.5t68 141.5t24 177.5v381q-36 7 -83.5 12.5t-90.5 8.5v70q32 4 69.5 7t78 5t80.5 2.5t75 -0.5v-914q38 -6 85 -11.5t91 -8.5v-70zM611 1180l-71 63l237 279l90 -80z" />
<glyph unicode="&#xfb;" horiz-adv-x="1235" d="M1190 14q-31 -4 -69.5 -7t-80 -5t-82 -2.5t-75.5 0.5q0 27 1 58t3.5 63.5t6 62.5t7.5 54l-4 2q-21 -59 -56 -106t-82.5 -80.5t-105.5 -51.5t-125 -18q-85 0 -145 24.5t-95.5 68.5t-51 102.5t-15.5 129.5v604q-36 7 -83.5 12.5t-92.5 8.5v70q31 4 69.5 7t79.5 5t81 2.5 t75 -0.5v-660q0 -66 10 -115.5t34 -84t64 -52.5t99 -18q71 0 131.5 32.5t104.5 92.5t68 141.5t24 177.5v381q-36 7 -83.5 12.5t-90.5 8.5v70q32 4 69.5 7t78 5t80.5 2.5t75 -0.5v-914q38 -6 85 -11.5t91 -8.5v-70zM811 1184l-200 178l-203 -178l-61 63l266 262l262 -260z " />
<glyph unicode="&#xfc;" horiz-adv-x="1235" d="M1190 14q-31 -4 -69.5 -7t-80 -5t-82 -2.5t-75.5 0.5q0 27 1 58t3.5 63.5t6 62.5t7.5 54l-4 2q-21 -59 -56 -106t-82.5 -80.5t-105.5 -51.5t-125 -18q-85 0 -145 24.5t-95.5 68.5t-51 102.5t-15.5 129.5v604q-36 7 -83.5 12.5t-92.5 8.5v70q31 4 69.5 7t79.5 5t81 2.5 t75 -0.5v-660q0 -66 10 -115.5t34 -84t64 -52.5t99 -18q71 0 131.5 32.5t104.5 92.5t68 141.5t24 177.5v381q-36 7 -83.5 12.5t-90.5 8.5v70q32 4 69.5 7t78 5t80.5 2.5t75 -0.5v-914q38 -6 85 -11.5t91 -8.5v-70zM888 1348q0 -18 -6.5 -34.5t-19 -28.5t-28.5 -18.5 t-34 -6.5t-34.5 6.5t-28.5 18.5t-19 28.5t-7 34.5q0 19 7 35t19 28t28 18.5t35 6.5q18 0 34 -6.5t28.5 -18.5t19 -28t6.5 -35zM509 1348q0 -19 -6.5 -35t-18.5 -28t-28 -18.5t-35 -6.5q-18 0 -34.5 6.5t-28.5 18.5t-18.5 28.5t-6.5 34.5q0 19 6.5 35t18.5 28t28 18.5t35 6.5 t35 -6.5t28 -18.5t18.5 -28t6.5 -35z" />
<glyph unicode="&#xfd;" horiz-adv-x="1141" d="M1130 948q-33 -9 -70 -16.5t-75 -11.5l-385 -1033q-45 -121 -86 -199t-88 -126t-107.5 -70t-144.5 -22q-13 0 -29 1t-33 2.5t-33.5 3.5t-31.5 5l14 121q30 -11 61 -16t64 -5q50 0 87.5 14t69 46.5t61.5 88t65 142.5l49 127h-26l-336 920q-37 4 -74.5 11.5t-71.5 16.5v70 h449v-70q-33 -11 -72.5 -18t-83.5 -10l193 -547q32 -97 47 -144t30 -98h2q6 21 16.5 52.5l22.5 67.5t33 96t31 89l170 484q-44 3 -83.5 10t-72.5 18v70h438v-70zM555 1180l-71 63l237 279l90 -80z" />
<glyph unicode="&#xfe;" horiz-adv-x="1143" d="M1044 555q0 -136 -36.5 -242.5t-104.5 -178.5t-163.5 -109t-213.5 -37q-30 0 -54 0.5t-47 2t-47.5 4.5t-51.5 7v-418q44 -3 90.5 -10t87.5 -16v-72h-486v72q43 9 88.5 16t90.5 10v1807q-39 6 -86.5 11.5t-90.5 8.5v70q31 4 69.5 7t80 5t82 2.5t74.5 -0.5v-469 q0 -35 -0.5 -66.5t-2.5 -63.5t-6 -63t-10 -57l4 -2q22 61 58 109.5t82.5 82t102 51t116.5 17.5q89 0 158.5 -30.5t117.5 -90.5t73 -150t25 -208zM909 543q0 91 -16 162.5t-48 122t-81.5 76.5t-116.5 26q-53 0 -98 -19t-81 -53t-62.5 -77.5t-44.5 -92.5t-26.5 -99.5 t-8.5 -96.5v-371q46 -17 97.5 -24t115.5 -7q86 0 154 26t116.5 81.5t74 141.5t25.5 204z" />
<glyph unicode="&#xff;" horiz-adv-x="1141" d="M1130 948q-33 -9 -70 -16.5t-75 -11.5l-385 -1033q-45 -121 -86 -199t-88 -126t-107.5 -70t-144.5 -22q-13 0 -29 1t-33 2.5t-33.5 3.5t-31.5 5l14 121q30 -11 61 -16t64 -5q50 0 87.5 14t69 46.5t61.5 88t65 142.5l49 127h-26l-336 920q-37 4 -74.5 11.5t-71.5 16.5v70 h449v-70q-33 -11 -72.5 -18t-83.5 -10l193 -547q32 -97 47 -144t30 -98h2q6 21 16.5 52.5l22.5 67.5t33 96t31 89l170 484q-44 3 -83.5 10t-72.5 18v70h438v-70zM842 1348q0 -18 -6.5 -34.5t-19 -28.5t-28.5 -18.5t-34 -6.5t-34.5 6.5t-28.5 18.5t-19 28.5t-7 34.5 q0 19 7 35t19 28t28 18.5t35 6.5q18 0 34 -6.5t28.5 -18.5t19 -28t6.5 -35zM463 1348q0 -19 -6.5 -35t-18.5 -28t-28 -18.5t-35 -6.5q-18 0 -34.5 6.5t-28.5 18.5t-18.5 28.5t-6.5 34.5q0 19 6.5 35t18.5 28t28 18.5t35 6.5t35 -6.5t28 -18.5t18.5 -28t6.5 -35z" />
<glyph unicode="&#x100;" horiz-adv-x="1407" d="M938 0v70q38 10 83 17.5t89 10.5l-96 264h-633l-96 -264q45 -3 90.5 -10.5t83.5 -17.5v-70h-449v70q29 8 68 15.5t67 10.5l486 1286h147l482 -1286q29 -3 67 -10.5t68 -15.5v-70h-457zM762 1057q-22 62 -36.5 103.5t-27.5 84.5h-2q-12 -39 -25.5 -80t-35.5 -106 l-217 -590h559zM432 1542v98h540v-98h-540z" />
<glyph unicode="&#x101;" horiz-adv-x="1081" d="M1038 14q-10 -1 -35.5 -4t-68.5 -6t-95 -4.5t-102 0.5q-1 89 3.5 146t7.5 77l-5 2q-19 -50 -52.5 -94t-79.5 -77t-103 -51.5t-121 -18.5q-63 0 -114.5 18t-89 52.5t-57.5 84t-20 111.5q0 82 44 144.5t126.5 105t198 64t258.5 22.5v86q0 64 -12 112.5t-39.5 81.5 t-73.5 50.5t-112 17.5q-76 0 -135.5 -13t-84.5 -22q-5 -52 -14 -106t-14 -80h-76v264q37 14 128 35.5t212 21.5q99 0 167 -24t108 -69t57.5 -106.5t17.5 -140.5v-590q22 -3 71.5 -9.5t104.5 -10.5v-70zM733 485q-123 0 -215.5 -13t-154.5 -39.5t-93.5 -68t-31.5 -98.5 q0 -38 12 -70t35 -56t57 -37t78 -13q68 0 125.5 31.5t100 86t65 123t22.5 138.5v16zM272 1288v98h491v-98h-491z" />
<glyph unicode="&#x102;" horiz-adv-x="1407" d="M938 0v70q38 10 83 17.5t89 10.5l-96 264h-633l-96 -264q45 -3 90.5 -10.5t83.5 -17.5v-70h-449v70q29 8 68 15.5t67 10.5l486 1286h147l482 -1286q29 -3 67 -10.5t68 -15.5v-70h-457zM762 1057q-22 62 -36.5 103.5t-27.5 84.5h-2q-12 -39 -25.5 -80t-35.5 -106 l-217 -590h559zM950 1735q0 -50 -17.5 -92t-50 -73t-79 -48t-103.5 -17q-59 0 -105 17.5t-77 49t-47 73.5t-16 90h92q0 -27 11.5 -51t32.5 -42t49.5 -28t61.5 -10q35 0 63.5 10t49 27.5t31 41.5t10.5 52h94z" />
<glyph unicode="&#x103;" horiz-adv-x="1081" d="M1038 14q-10 -1 -35.5 -4t-68.5 -6t-95 -4.5t-102 0.5q-1 89 3.5 146t7.5 77l-5 2q-19 -50 -52.5 -94t-79.5 -77t-103 -51.5t-121 -18.5q-63 0 -114.5 18t-89 52.5t-57.5 84t-20 111.5q0 82 44 144.5t126.5 105t198 64t258.5 22.5v86q0 64 -12 112.5t-39.5 81.5 t-73.5 50.5t-112 17.5q-76 0 -135.5 -13t-84.5 -22q-5 -52 -14 -106t-14 -80h-76v264q37 14 128 35.5t212 21.5q99 0 167 -24t108 -69t57.5 -106.5t17.5 -140.5v-590q22 -3 71.5 -9.5t104.5 -10.5v-70zM733 485q-123 0 -215.5 -13t-154.5 -39.5t-93.5 -68t-31.5 -98.5 q0 -38 12 -70t35 -56t57 -37t78 -13q68 0 125.5 31.5t100 86t65 123t22.5 138.5v16zM763 1466q0 -50 -15 -94.5t-45 -79t-76.5 -54t-107.5 -19.5q-60 0 -105 19.5t-73.5 54t-42.5 79t-14 94.5h94q0 -29 9 -55.5t27.5 -47t45.5 -32.5t61 -12q68 0 107 39t39 108h96z" />
<glyph unicode="&#x104;" horiz-adv-x="1407" d="M1352 0q-39 0 -84.5 -24.5t-85.5 -66.5t-65 -92.5t-25 -99.5q0 -43 22 -65.5t64 -22.5q63 0 137 56l47 -78q-43 -40 -95.5 -61t-109.5 -21q-47 0 -83.5 12t-61 34.5t-37 54t-12.5 69.5q0 42 13 84t38 82t59.5 75.5t77.5 63.5h-213v70q38 10 83 17.5t89 10.5l-96 264h-633 l-96 -264q45 -3 90.5 -10.5t83.5 -17.5v-70h-449v70q29 8 68 15.5t67 10.5l486 1286h147l482 -1286q29 -3 67 -10.5t68 -15.5v-70h-43zM762 1057q-22 62 -36.5 103.5t-27.5 84.5h-2q-12 -39 -25.5 -80t-35.5 -106l-217 -590h559z" />
<glyph unicode="&#x105;" horiz-adv-x="1081" d="M1038 14q-75 -5 -134.5 -29.5t-115.5 -78.5q-21 -22 -37.5 -46t-28 -48t-17 -48t-5.5 -47q0 -42 23 -65t65 -23q17 0 34 3.5t34 10.5t34 17.5t36 24.5l47 -78q-23 -20 -47 -35.5t-49.5 -25.5t-53 -15.5t-55.5 -5.5q-47 0 -83.5 12t-61.5 34.5t-37.5 54t-12.5 69.5 q0 39 11.5 78.5t35 80t60 80.5t86.5 78q-8 56 -12.5 110.5t-1.5 96.5l-4 2q-21 -49 -56 -92t-81.5 -75.5t-103.5 -51t-120 -18.5t-114.5 18t-89 52.5t-57.5 84t-20 111.5q0 82 44 144.5t126.5 105t198 64t258.5 22.5v86q0 64 -12 112.5t-39.5 81.5t-73.5 50.5t-112 17.5 q-76 0 -135.5 -13t-84.5 -22q-5 -52 -14 -106t-14 -80h-76v264q37 14 128 35.5t212 21.5q99 0 167 -24t108 -69t57.5 -106.5t17.5 -140.5v-309q0 -34 1.5 -71t4 -74.5t6 -73t7.5 -66.5q5 -1 18.5 -2.5t36 -4.5t50 -5.5t52.5 -3.5v-70zM733 485q-123 0 -215.5 -13 t-154.5 -39.5t-93.5 -68t-31.5 -98.5q0 -38 12 -70t35 -56t57 -37t78 -13q68 0 125.5 31.5t100 86t65 123t22.5 138.5v16z" />
<glyph unicode="&#x106;" horiz-adv-x="1225" d="M1128 70q-42 -18 -88.5 -33.5t-98 -27.5t-106 -18.5t-108.5 -6.5q-152 0 -269 46.5t-197 135t-120.5 216t-40.5 288.5q0 155 40.5 287t122.5 231.5t208 155t291 55.5q85 0 168.5 -12t169.5 -33v-293h-84q-5 25 -14.5 80t-14.5 114q-27 8 -93.5 20.5t-154.5 12.5 q-127 0 -222.5 -46.5t-156.5 -129t-90.5 -190.5t-29.5 -232q0 -138 32.5 -248t97 -187t161 -118t223.5 -41q44 0 90 6t90 17t85 25t81 30zM670 1499l-30 78l335 152l48 -111z" />
<glyph unicode="&#x107;" horiz-adv-x="913" d="M854 47q-28 -11 -62.5 -21.5t-75.5 -19t-86 -13.5t-91 -5q-59 0 -113 9t-103.5 30.5t-91 58t-72.5 91t-48 130t-17 172.5q0 125 31 226.5t92.5 174t153 111.5t209.5 39q66 0 132 -9.5t122 -25.5v-276h-78q-6 24 -16 77.5t-15 110.5q-19 5 -64.5 13t-101.5 8 q-80 0 -142 -31t-104 -87.5t-63 -134t-21 -169.5t15.5 -165.5t53 -128.5t102.5 -85.5t161 -30.5q64 0 136.5 16t129.5 40zM522 1180l-71 63l237 279l90 -80z" />
<glyph unicode="&#x10c;" horiz-adv-x="1225" d="M1128 70q-42 -18 -88.5 -33.5t-98 -27.5t-106 -18.5t-108.5 -6.5q-152 0 -269 46.5t-197 135t-120.5 216t-40.5 288.5q0 155 40.5 287t122.5 231.5t208 155t291 55.5q85 0 168.5 -12t169.5 -33v-293h-84q-5 25 -14.5 80t-14.5 114q-27 8 -93.5 20.5t-154.5 12.5 q-127 0 -222.5 -46.5t-156.5 -129t-90.5 -190.5t-29.5 -232q0 -138 32.5 -248t97 -187t161 -118t223.5 -41q44 0 90 6t90 17t85 25t81 30zM715 1495l-313 166l45 84l270 -131l274 131l41 -82z" />
<glyph unicode="&#x10d;" horiz-adv-x="913" d="M854 47q-28 -11 -62.5 -21.5t-75.5 -19t-86 -13.5t-91 -5q-59 0 -113 9t-103.5 30.5t-91 58t-72.5 91t-48 130t-17 172.5q0 125 31 226.5t92.5 174t153 111.5t209.5 39q66 0 132 -9.5t122 -25.5v-276h-78q-6 24 -16 77.5t-15 110.5q-19 5 -64.5 13t-101.5 8 q-80 0 -142 -31t-104 -87.5t-63 -134t-21 -169.5t15.5 -165.5t53 -128.5t102.5 -85.5t161 -30.5q64 0 136.5 16t129.5 40zM542 1184l-262 258l63 67l201 -180l203 180l61 -65z" />
<glyph unicode="&#x10e;" horiz-adv-x="1452" d="M1346 702q0 -178 -57.5 -311t-161 -221.5t-246.5 -132t-314 -43.5q-51 0 -96 1t-85 2t-75.5 2t-66.5 1h-178v70q40 11 85.5 18.5t92.5 10.5v1184q-47 4 -92.5 11t-85.5 18v70h177q40 0 86.5 1t97 2.5t102.5 2.5t103 1q171 0 303.5 -41.5t224 -126.5t139 -214.5 t47.5 -304.5zM1209 694q0 147 -38.5 257.5t-113 183.5t-185.5 110t-257 37q-31 0 -63.5 -0.5t-64.5 -1.5t-61 -2t-51 -2v-1160q24 -3 51.5 -5.5t55.5 -4.5t55 -2.5t50 -0.5q139 0 253.5 34.5t196.5 107.5t127 184.5t45 264.5zM644 1495l-313 166l45 84l270 -131l274 131 l41 -82z" />
<glyph unicode="&#x10f;" horiz-adv-x="1321" d="M1120 14q-31 -4 -69.5 -7t-80 -5t-83 -2.5t-76.5 0.5q0 25 1 56t3.5 63t6 61.5t7.5 52.5l-4 3q-20 -57 -55 -104t-81 -80t-101.5 -50.5t-116.5 -17.5q-94 0 -165 32.5t-118 95t-70.5 151t-23.5 200.5q0 136 36.5 242t105 178.5t164 109.5t212.5 37q47 0 96 -3t105 -9v373 q-37 6 -85.5 11.5t-92.5 8.5v70q32 4 71 7t80 5t81.5 2.5t74.5 -0.5v-1391q37 -6 85.5 -11.5t92.5 -8.5v-70zM813 901q-54 14 -107 20.5t-106 6.5q-85 0 -153 -26.5t-116 -81.5t-74 -141t-26 -204q0 -92 16 -163.5t48 -121.5t81.5 -76t115.5 -26q53 0 98 19t81 53t62.5 77.5 t44.5 92.5t26.5 99.5t8.5 96.5v375zM1153 1174l-90 30l119 336l114 -39z" />
<glyph unicode="&#x110;" horiz-adv-x="1475" d="M1368 702q0 -174 -57 -308t-161 -222.5t-247 -133t-315 -44.5q-73 0 -178 3t-144 3h-178v70q40 10 86 17.5t92 10.5v566h-209v102h209v518q-47 3 -93 10.5t-85 18.5v69h176q36 0 75 1t106 2.5t114.5 2.5t93.5 1q114 0 211 -18.5t176.5 -56t140.5 -94t103 -133t63 -173 t21 -212.5zM1231 694q0 147 -38 257.5t-113.5 184t-186.5 110t-256 36.5q-29 0 -61 -0.5t-62.5 -1.5t-57.5 -2t-59 -2v-510h326v-102h-326v-547q23 -3 50.5 -5.5t56 -5t55.5 -3.5t49 -1q142 0 256.5 35.5t196.5 108.5t126 185t44 263z" />
<glyph unicode="&#x111;" horiz-adv-x="1165" d="M942 1192v-1088q37 -6 85.5 -11.5t92.5 -8.5v-70q-31 -4 -69.5 -7t-80 -5t-83 -2.5t-76.5 0.5q0 25 1 56t3.5 63t6 61.5t7.5 52.5l-4 3q-20 -57 -55 -104t-81 -80t-101.5 -50.5t-116.5 -17.5q-94 0 -165 32.5t-118 95t-70.5 151t-23.5 200.5q0 136 36.5 242t105 178 t164 108.5t212.5 36.5q47 0 96 -3t105 -9v176h-289v94h289v111q-37 6 -85.5 11.5t-92.5 8.5v66q32 4 71 7t80 5t81.5 2.5t74.5 -0.5v-211h178v-94h-178zM813 901q-53 13 -105.5 19t-107.5 6q-85 0 -153 -26t-116 -80.5t-74 -140.5t-26 -204q0 -92 16 -163.5t48 -121.5 t81.5 -76t115.5 -26q53 0 98 19t81 53t62.5 77.5t44.5 92.5t26.5 99.5t8.5 96.5v375z" />
<glyph unicode="&#x112;" horiz-adv-x="1079" d="M66 0v70q40 11 86 18t92 10v1186q-47 3 -93 10.5t-85 18.5v69h858v-295h-84q-5 24 -15 78t-16 113h-434v-514h344q6 54 16.5 98t16.5 62h73v-420h-73q-6 18 -16.5 61t-16.5 97h-344v-556h436q6 59 16.5 114.5t16.5 80.5h84v-301h-862zM252 1542v98h540v-98h-540z" />
<glyph unicode="&#x113;" horiz-adv-x="1030" d="M926 625q0 -19 -0.5 -36.5t-1.5 -31t-1.5 -21t-0.5 -10.5h-693q-2 -112 19 -194t64.5 -135.5t109 -79t153.5 -25.5q73 0 147 14t150 41l21 -102q-83 -29 -166.5 -45t-169.5 -16q-114 0 -200 31.5t-144.5 95.5t-88.5 162.5t-30 232.5q0 113 30 210t87.5 168.5t139.5 110.5 t184 39q101 0 176 -32t122.5 -88.5t70 -130t22.5 -158.5zM788 623q2 73 -15 130.5t-51.5 97.5t-84 60.5t-111.5 20.5q-57 0 -106 -20t-87 -59t-63 -97.5t-34 -132.5h552zM275 1288v98h491v-98h-491z" />
<glyph unicode="&#x116;" horiz-adv-x="1079" d="M66 0v70q40 11 86 18t92 10v1186q-47 3 -93 10.5t-85 18.5v69h858v-295h-84q-5 24 -15 78t-16 113h-434v-514h344q6 54 16.5 98t16.5 62h73v-420h-73q-6 18 -16.5 61t-16.5 97h-344v-556h436q6 59 16.5 114.5t16.5 80.5h84v-301h-862zM632 1595q0 -18 -7 -35t-20 -29.5 t-29.5 -20t-35.5 -7.5q-18 0 -35 7t-29.5 20t-20 29.5t-7.5 35.5t7.5 36t20 30t29.5 20t35 7q19 0 36 -7t29.5 -19.5t19.5 -29.5t7 -37z" />
<glyph unicode="&#x117;" horiz-adv-x="1030" d="M926 625q0 -19 -0.5 -36.5t-1.5 -31t-1.5 -21t-0.5 -10.5h-693q-2 -112 19 -194t64.5 -135.5t109 -79t153.5 -25.5q73 0 147 14t150 41l21 -102q-83 -29 -166.5 -45t-169.5 -16q-114 0 -200 31.5t-144.5 95.5t-88.5 162.5t-30 232.5q0 113 30 210t87.5 168.5t139.5 110.5 t184 39q101 0 176 -32t122.5 -88.5t70 -130t22.5 -158.5zM788 623q2 73 -15 130.5t-51.5 97.5t-84 60.5t-111.5 20.5q-57 0 -106 -20t-87 -59t-63 -97.5t-34 -132.5h552zM621 1350q0 -18 -7 -35t-20 -30t-29.5 -20.5t-35.5 -7.5q-18 0 -35 7t-29.5 20t-20 30t-7.5 36 t7.5 35.5t20 29.5t29.5 20t35 7q19 0 35.5 -7t29.5 -19.5t20 -29.5t7 -36z" />
<glyph unicode="&#x118;" horiz-adv-x="1079" d="M928 8q-60 -44 -100.5 -84t-63.5 -76t-33 -68t-10 -63q0 -42 23 -65t65 -23q63 0 137 56l47 -78q-43 -40 -95.5 -61t-109.5 -21q-46 0 -82.5 12t-61.5 34.5t-37.5 54t-12.5 69.5t11 77t33 78t56.5 77t79.5 73h-708v70q40 11 86 18t92 10v1186q-47 3 -93 10.5t-85 18.5v69 h858v-295h-84q-5 24 -15 78t-16 113h-434v-514h344q6 54 16.5 98t16.5 62h73v-420h-73q-6 18 -16.5 61t-16.5 97h-344v-556h436q6 59 16.5 114.5t16.5 80.5h84v-293z" />
<glyph unicode="&#x119;" horiz-adv-x="1030" d="M893 47q-52 -16 -105 -50t-98 -80t-71.5 -98t-26.5 -102q0 -42 23 -65t65 -23q33 0 66 14t71 42l47 -78q-45 -40 -96.5 -61t-108.5 -21q-47 0 -83.5 12t-61 34.5t-37 54t-12.5 69.5q0 37 11 75.5t32.5 76.5t53 74t71.5 67q-18 -2 -42.5 -3t-39.5 -1q-73 0 -135 13.5 t-112.5 41.5t-89.5 70.5t-66 100.5t-40.5 132t-13.5 164q0 113 30 210t87.5 168.5t139.5 110.5t184 39q101 0 176 -32t122.5 -88.5t70 -130t22.5 -158.5q0 -15 -0.5 -32.5t-1.5 -31.5t-1.5 -23t-0.5 -12h-693q-2 -112 19 -194t64.5 -135.5t109 -79t153.5 -25.5q73 0 147 14 t150 41zM788 623q2 73 -15 130.5t-51.5 97.5t-84 60.5t-111.5 20.5q-57 0 -106 -20t-87 -59t-63 -97.5t-34 -132.5h552z" />
<glyph unicode="&#x11a;" horiz-adv-x="1079" d="M66 0v70q40 11 86 18t92 10v1186q-47 3 -93 10.5t-85 18.5v69h858v-295h-84q-5 24 -15 78t-16 113h-434v-514h344q6 54 16.5 98t16.5 62h73v-420h-73q-6 18 -16.5 61t-16.5 97h-344v-556h436q6 59 16.5 114.5t16.5 80.5h84v-301h-862zM520 1495l-313 166l45 84l270 -131 l274 131l41 -82z" />
<glyph unicode="&#x11b;" horiz-adv-x="1030" d="M926 625q0 -19 -0.5 -36.5t-1.5 -31t-1.5 -21t-0.5 -10.5h-693q-2 -112 19 -194t64.5 -135.5t109 -79t153.5 -25.5q73 0 147 14t150 41l21 -102q-83 -29 -166.5 -45t-169.5 -16q-114 0 -200 31.5t-144.5 95.5t-88.5 162.5t-30 232.5q0 113 30 210t87.5 168.5t139.5 110.5 t184 39q101 0 176 -32t122.5 -88.5t70 -130t22.5 -158.5zM788 623q2 73 -15 130.5t-51.5 97.5t-84 60.5t-111.5 20.5q-57 0 -106 -20t-87 -59t-63 -97.5t-34 -132.5h552zM524 1184l-262 258l63 67l201 -180l203 180l61 -65z" />
<glyph unicode="&#x11e;" horiz-adv-x="1436" d="M1370 618q-32 -8 -68.5 -14.5t-78.5 -11.5v-533q-51 -19 -107.5 -33t-114 -23.5t-114.5 -14t-111 -4.5q-151 0 -276 45.5t-215 133.5t-138.5 215.5t-48.5 287.5q0 157 47 291t139.5 233.5t227 154t305.5 54.5q94 0 185.5 -12.5t187.5 -36.5v-291h-84q-10 51 -17 99 t-12 95q-69 18 -140 27.5t-136 9.5q-117 0 -219.5 -37t-180 -112t-121.5 -189.5t-44 -263.5q0 -141 40.5 -252.5t115.5 -187.5t178.5 -115t228.5 -39q79 0 150 11.5t143 33.5v453q-45 3 -90.5 10t-88.5 16v72h457v-72zM1031 1735q0 -50 -17.5 -92t-50 -73t-79 -48 t-103.5 -17q-59 0 -105 17.5t-77 49t-47 73.5t-16 90h92q0 -27 11.5 -51t32.5 -42t49.5 -28t61.5 -10q35 0 63.5 10t49 27.5t31 41.5t10.5 52h94z" />
<glyph unicode="&#x11f;" horiz-adv-x="1085" d="M1022 -162q0 -81 -36 -149t-103.5 -117t-162.5 -75.5t-210 -26.5q-98 0 -176.5 20t-134 59t-84.5 95.5t-29 128.5q0 45 14 87.5t39 79.5t57.5 67.5t69.5 55.5q-44 23 -67 59.5t-23 84.5q0 23 7 45.5t20.5 43.5t33.5 40.5t46 36.5q-75 47 -112.5 122.5t-37.5 163.5 q0 78 26.5 146.5t78 120t127 80t170.5 28.5q33 0 66 -4t65 -12h342v-103h-181q42 -45 63 -103.5t21 -123.5q0 -79 -26 -147.5t-77 -119.5t-126.5 -79.5t-171.5 -28.5q-35 0 -66 4.5t-61 12.5q-37 -23 -56.5 -49.5t-19.5 -51.5q0 -20 9 -35.5t29 -26.5t52.5 -18t77.5 -8 l176 -6q94 -3 164.5 -25t116.5 -60.5t68 -92t22 -119.5zM782 674q0 114 -70 187t-190 73q-60 0 -108.5 -19.5t-82.5 -54.5t-51.5 -82.5t-17.5 -103.5q0 -115 69.5 -187.5t190.5 -72.5q60 0 108.5 19t82.5 54t51.5 83t17.5 104zM889 -178q0 45 -15 80t-47.5 60t-85 39.5 t-125.5 16.5l-178 7q-15 0 -28.5 1t-30.5 3q-78 -47 -118 -108t-40 -128q0 -53 22 -94t62.5 -69t97.5 -42t127 -14q87 0 155 18t113 51.5t68 79t23 99.5zM779 1466q0 -50 -15 -94.5t-45 -79t-76.5 -54t-107.5 -19.5q-60 0 -105 19.5t-73.5 54t-42.5 79t-14 94.5h94 q0 -29 9 -55.5t27.5 -47t45.5 -32.5t61 -12q68 0 107 39t39 108h96z" />
<glyph unicode="&#x122;" horiz-adv-x="1436" d="M1370 618q-32 -8 -68.5 -14.5t-78.5 -11.5v-533q-51 -19 -107.5 -33t-114 -23.5t-114.5 -14t-111 -4.5q-151 0 -276 45.5t-215 133.5t-138.5 215.5t-48.5 287.5q0 157 47 291t139.5 233.5t227 154t305.5 54.5q94 0 185.5 -12.5t187.5 -36.5v-291h-84q-10 51 -17 99 t-12 95q-69 18 -140 27.5t-136 9.5q-117 0 -219.5 -37t-180 -112t-121.5 -189.5t-44 -263.5q0 -141 40.5 -252.5t115.5 -187.5t178.5 -115t228.5 -39q79 0 150 11.5t143 33.5v453q-45 3 -90.5 10t-88.5 16v72h457v-72zM607 -438q51 48 69.5 88t18.5 67q0 19 -5 31t-10.5 22 t-10.5 20t-5 26q0 15 5.5 30t16 26.5t26 18.5t34.5 7q41 0 65.5 -31t24.5 -76q0 -26 -8.5 -56.5t-29.5 -65.5t-55.5 -74.5t-86.5 -83.5z" />
<glyph unicode="&#x123;" horiz-adv-x="1085" d="M1022 -162q0 -81 -36 -149t-103.5 -117t-162.5 -75.5t-210 -26.5q-98 0 -176.5 20t-134 59t-84.5 95.5t-29 128.5q0 45 14 87.5t39 79.5t57.5 67.5t69.5 55.5q-44 23 -67 59.5t-23 84.5q0 23 7 45.5t20.5 43.5t33.5 40.5t46 36.5q-75 47 -112.5 122.5t-37.5 163.5 q0 78 26.5 146.5t78 120t127 80t170.5 28.5q33 0 66 -4t65 -12h342v-103h-181q42 -45 63 -103.5t21 -123.5q0 -79 -26 -147.5t-77 -119.5t-126.5 -79.5t-171.5 -28.5q-35 0 -66 4.5t-61 12.5q-37 -23 -56.5 -49.5t-19.5 -51.5q0 -20 9 -35.5t29 -26.5t52.5 -18t77.5 -8 l176 -6q94 -3 164.5 -25t116.5 -60.5t68 -92t22 -119.5zM782 674q0 114 -70 187t-190 73q-60 0 -108.5 -19.5t-82.5 -54.5t-51.5 -82.5t-17.5 -103.5q0 -115 69.5 -187.5t190.5 -72.5q60 0 108.5 19t82.5 54t51.5 83t17.5 104zM889 -178q0 45 -15 80t-47.5 60t-85 39.5 t-125.5 16.5l-178 7q-15 0 -28.5 1t-30.5 3q-78 -47 -118 -108t-40 -128q0 -53 22 -94t62.5 -69t97.5 -42t127 -14q87 0 155 18t113 51.5t68 79t23 99.5zM668 1501q-51 -48 -70.5 -87.5t-19.5 -70.5q0 -18 5 -29.5t10.5 -21.5t10.5 -20.5t5 -28.5q0 -32 -23 -55t-57 -23 q-18 0 -34 7t-28.5 21t-20 33.5t-7.5 45.5t9 57t30 66t55.5 74t85.5 81z" />
<glyph unicode="&#x12a;" horiz-adv-x="616" d="M66 0v70q40 11 86 18t92 10v1186q-47 3 -93 10.5t-85 18.5v69h487v-69q-39 -11 -85 -18.5t-93 -10.5v-1186q46 -3 92 -10.5t86 -17.5v-70h-487zM40 1542v98h540v-98h-540z" />
<glyph unicode="&#x12b;" horiz-adv-x="594" d="M66 0v70q20 6 68.5 15t107.5 13v815q-36 7 -83.5 12.5t-92.5 8.5v70q32 4 70.5 7t79.5 5t81 2.5t74 -0.5v-920q45 -3 90.5 -10t85.5 -18v-70h-481zM33 1288v98h491v-98h-491z" />
<glyph unicode="&#x12e;" horiz-adv-x="616" d="M482 0q-39 0 -84.5 -25t-85 -65.5t-65.5 -91t-26 -100.5q0 -44 23 -66.5t65 -22.5q34 0 67 13.5t70 41.5l46 -77q-44 -39 -95.5 -60.5t-107.5 -21.5q-48 0 -84.5 12.5t-61.5 34.5t-37.5 53.5t-12.5 69.5q0 43 13.5 85t38 81.5t59.5 74.5t79 64h-218v70q40 10 85.5 17.5 t92.5 10.5v1186q-47 4 -92.5 11t-85.5 17v70h488v-70q-41 -10 -86.5 -17t-92.5 -11v-1186q47 -3 92.5 -10.5t86.5 -17.5v-70h-71z" />
<glyph unicode="&#x12f;" horiz-adv-x="594" d="M401 1348q0 -18 -7 -35t-20 -30t-29.5 -20.5t-35.5 -7.5t-35.5 7t-29.5 20t-20 30t-7 36t7 35.5t20 29.5t29.5 20t35.5 7t35.5 -7t29.5 -19.5t20 -29.5t7 -36zM510 0q-51 0 -103.5 -24.5t-95 -66t-67.5 -92t-25 -100.5q0 -43 22.5 -65.5t65.5 -22.5q33 0 66 14t69 42 l47 -78q-43 -40 -95 -61t-107 -21q-47 0 -84 12t-62 35t-38 54t-13 69q0 42 14 85t39.5 83.5t61 75.5t78.5 61h-217v70q40 11 86 18t92 10v815q-36 7 -84.5 12.5t-93.5 8.5v70q32 4 71 7t80 5t81.5 2.5t74.5 -0.5v-920q45 -3 90.5 -10t85.5 -18v-70h-39z" />
<glyph unicode="&#x130;" horiz-adv-x="616" d="M66 0v70q40 11 86 18t92 10v1186q-47 3 -93 10.5t-85 18.5v69h487v-69q-39 -11 -85 -18.5t-93 -10.5v-1186q46 -3 92 -10.5t86 -17.5v-70h-487zM400 1595q0 -18 -7 -35t-20 -29.5t-29.5 -20t-35.5 -7.5q-18 0 -35 7t-29.5 20t-20 29.5t-7.5 35.5t7.5 36t20 30t29.5 20 t35 7q19 0 36 -7t29.5 -19.5t19.5 -29.5t7 -37z" />
<glyph unicode="&#x131;" horiz-adv-x="592" d="M66 0v70q20 6 68.5 15t107.5 13v815q-36 7 -83.5 12.5t-92.5 8.5v70q32 4 70.5 7t79.5 5t81 2.5t74 -0.5v-920q45 -3 90.5 -10t85.5 -18v-70h-481z" />
<glyph unicode="&#x136;" horiz-adv-x="1321" d="M788 0v70q37 10 74.5 16.5t73.5 9.5l-561 606v-604q37 -3 82 -10.5t84 -17.5v-70h-475v70q40 11 86 18t92 10v1186q-47 3 -93 10.5t-85 18.5v69h475v-69q-38 -11 -83 -18.5t-83 -10.5v-573l551 573q-43 3 -86.5 10.5t-77.5 18.5v69h479v-69q-35 -10 -74.5 -17t-79.5 -12 l-561 -569l590 -617q37 -3 76 -10.5t80 -17.5v-70h-484zM503 -438q51 48 69.5 88t18.5 67q0 19 -5 31t-10.5 22t-10.5 20t-5 26q0 15 5.5 30t16 26.5t26 18.5t34.5 7q41 0 65.5 -31t24.5 -76q0 -26 -8.5 -56.5t-29.5 -65.5t-55.5 -74.5t-86.5 -83.5z" />
<glyph unicode="&#x137;" horiz-adv-x="1067" d="M759 0l-409 543v-444q45 -3 89 -10.5t83 -17.5v-71h-477v70q40 11 85.5 18.5t90.5 10.5v1291q-37 6 -84.5 11.5t-92.5 8.5v71q31 4 69.5 7t79.5 5t81.5 2.5t75.5 -0.5v-945l340 370q-42 5 -78 11t-61 16v71h443v-71q-33 -9 -72 -16t-81 -12l-343 -365l354 -452 q40 -4 85.5 -12t92.5 -18v-72h-271zM400 -438q51 48 69.5 88t18.5 67q0 19 -5 31t-10.5 22t-10.5 20t-5 26q0 15 5.5 30t16 26.5t26 18.5t34.5 7q41 0 65.5 -31t24.5 -76q0 -26 -8.5 -56.5t-29.5 -65.5t-55.5 -74.5t-86.5 -83.5z" />
<glyph unicode="&#x139;" horiz-adv-x="936" d="M66 0v70q40 11 86 18t92 10v1186q-47 3 -93 10.5t-85 18.5v69h487v-69q-39 -11 -85 -18.5t-93 -10.5v-1178h418q4 40 13 91t21 114h84v-311h-845zM360 1499l-30 78l335 152l48 -111z" />
<glyph unicode="&#x13a;" horiz-adv-x="571" d="M45 0v70q40 11 85.5 18.5t90.5 10.5v1291q-37 6 -84.5 11.5t-92.5 8.5v71q31 4 70 7t79.5 5t81 2.5t75.5 -0.5v-1396q46 -3 91.5 -10.5t85.5 -18.5v-70h-482zM216 1622l-30 78l335 152l48 -111z" />
<glyph unicode="&#x13b;" horiz-adv-x="936" d="M66 0v70q40 11 86 18t92 10v1186q-47 3 -93 10.5t-85 18.5v69h487v-69q-39 -11 -85 -18.5t-93 -10.5v-1178h418q4 40 13 91t21 114h84v-311h-845zM380 -438q51 48 69.5 88t18.5 67q0 19 -5 31t-10.5 22t-10.5 20t-5 26q0 15 5.5 30t16 26.5t26 18.5t34.5 7q41 0 65.5 -31 t24.5 -76q0 -26 -8.5 -56.5t-29.5 -65.5t-55.5 -74.5t-86.5 -83.5z" />
<glyph unicode="&#x13c;" horiz-adv-x="571" d="M45 0v70q40 11 85.5 18.5t90.5 10.5v1291q-37 6 -84.5 11.5t-92.5 8.5v71q31 4 70 7t79.5 5t81 2.5t75.5 -0.5v-1396q46 -3 91.5 -10.5t85.5 -18.5v-70h-482zM150 -438q51 48 69.5 88t18.5 67q0 19 -5 31t-10.5 22t-10.5 20t-5 26q0 15 5.5 30t16 26.5t26 18.5t34.5 7 q41 0 65.5 -31t24.5 -76q0 -26 -8.5 -56.5t-29.5 -65.5t-55.5 -74.5t-86.5 -83.5z" />
<glyph unicode="&#x13d;" horiz-adv-x="956" d="M66 0v70q40 11 86 18t92 10v1186q-47 3 -93 10.5t-85 18.5v69h487v-69q-39 -11 -85 -18.5t-93 -10.5v-1178h418q4 40 13 91t21 114h84v-311h-845zM764 1174l-90 30l119 336l114 -39z" />
<glyph unicode="&#x13e;" horiz-adv-x="729" d="M45 0v70q40 11 85.5 18.5t90.5 10.5v1291q-37 6 -84.5 11.5t-92.5 8.5v71q31 4 70 7t79.5 5t81 2.5t75.5 -0.5v-1396q46 -3 91.5 -10.5t85.5 -18.5v-70h-482zM561 1174l-90 30l119 336l114 -39z" />
<glyph unicode="&#x141;" horiz-adv-x="954" d="M84 0v70q40 10 86 17.5t92 10.5v584l-215 -78l-31 96l246 88v496q-47 3 -93 10.5t-85 18.5v69h487v-69q-39 -11 -85 -18.5t-93 -10.5v-450l262 94l29 -99l-291 -104v-619h420q5 46 14 100t21 105h82v-311h-846z" />
<glyph unicode="&#x142;" horiz-adv-x="612" d="M66 0v70q38 10 83.5 17.5t92.5 10.5v666l-166 -86l-33 94l199 102v517q-37 6 -86 11.5t-93 8.5v70q32 4 71 7t80.5 5t82 2.5t74.5 -0.5v-553l164 84l34 -92l-198 -103v-733q45 -3 90.5 -10t85.5 -18v-70h-481z" />
<glyph unicode="&#x143;" horiz-adv-x="1530" d="M1137 0l-492 782q-36 57 -75 119.5t-77 125t-73 121t-62 106.5q4 -96 7.5 -222t5 -274.5t2 -314.5t0.5 -343q45 -3 89.5 -11t85.5 -19v-70h-483v70q40 10 85.5 18.5t92.5 11.5v1184q-47 4 -92.5 11t-85.5 17v70h359l489 -775q36 -57 75 -120t77 -125t72.5 -121t61.5 -108 q-5 95 -7.5 220t-4 273t-2 313.5t-0.5 342.5q-46 3 -90 11t-83 19v70h453v-70q-34 -9 -72.5 -17t-77.5 -13v-1282h-178zM684 1499l-30 78l335 152l48 -111z" />
<glyph unicode="&#x144;" horiz-adv-x="1253" d="M905 0v659q0 67 -10 116.5t-33.5 84t-63.5 52.5t-100 18q-71 0 -131 -33t-104 -93t-68 -141.5t-24 -177.5v-387q60 -4 107.5 -13t66.5 -15v-70h-479v70q20 6 67.5 15t108.5 13v815q-36 7 -83.5 12.5t-92.5 8.5v70q32 4 70.5 7t79.5 5t81.5 2.5t75.5 -0.5q0 -27 -1 -58 t-3.5 -63.5t-6 -62.5t-8.5 -54l4 -2q22 59 57 106t82 80.5t105 51.5t125 18q86 0 145.5 -24.5t95 -69t51 -103t15.5 -130.5v-609q60 -4 107.5 -13t66.5 -15v-70h-303zM656 1180l-71 63l237 279l90 -80z" />
<glyph unicode="&#x145;" horiz-adv-x="1530" d="M1137 0l-492 782q-36 57 -75 119.5t-77 125t-73 121t-62 106.5q4 -96 7.5 -222t5 -274.5t2 -314.5t0.5 -343q45 -3 89.5 -11t85.5 -19v-70h-483v70q40 10 85.5 18.5t92.5 11.5v1184q-47 4 -92.5 11t-85.5 17v70h359l489 -775q36 -57 75 -120t77 -125t72.5 -121t61.5 -108 q-5 95 -7.5 220t-4 273t-2 313.5t-0.5 342.5q-46 3 -90 11t-83 19v70h453v-70q-34 -9 -72.5 -17t-77.5 -13v-1282h-178zM627 -438q51 48 69.5 88t18.5 67q0 19 -5 31t-10.5 22t-10.5 20t-5 26q0 15 5.5 30t16 26.5t26 18.5t34.5 7q41 0 65.5 -31t24.5 -76q0 -26 -8.5 -56.5 t-29.5 -65.5t-55.5 -74.5t-86.5 -83.5z" />
<glyph unicode="&#x146;" horiz-adv-x="1253" d="M905 0v659q0 67 -10 116.5t-33.5 84t-63.5 52.5t-100 18q-71 0 -131 -33t-104 -93t-68 -141.5t-24 -177.5v-387q60 -4 107.5 -13t66.5 -15v-70h-479v70q20 6 67.5 15t108.5 13v815q-36 7 -83.5 12.5t-92.5 8.5v70q32 4 70.5 7t79.5 5t81.5 2.5t75.5 -0.5q0 -27 -1 -58 t-3.5 -63.5t-6 -62.5t-8.5 -54l4 -2q22 59 57 106t82 80.5t105 51.5t125 18q86 0 145.5 -24.5t95 -69t51 -103t15.5 -130.5v-609q60 -4 107.5 -13t66.5 -15v-70h-303zM527 -438q51 48 69.5 88t18.5 67q0 19 -5 31t-10.5 22t-10.5 20t-5 26q0 15 5.5 30t16 26.5t26 18.5 t34.5 7q41 0 65.5 -31t24.5 -76q0 -26 -8.5 -56.5t-29.5 -65.5t-55.5 -74.5t-86.5 -83.5z" />
<glyph unicode="&#x147;" horiz-adv-x="1530" d="M1137 0l-492 782q-36 57 -75 119.5t-77 125t-73 121t-62 106.5q4 -96 7.5 -222t5 -274.5t2 -314.5t0.5 -343q45 -3 89.5 -11t85.5 -19v-70h-483v70q40 10 85.5 18.5t92.5 11.5v1184q-47 4 -92.5 11t-85.5 17v70h359l489 -775q36 -57 75 -120t77 -125t72.5 -121t61.5 -108 q-5 95 -7.5 220t-4 273t-2 313.5t-0.5 342.5q-46 3 -90 11t-83 19v70h453v-70q-34 -9 -72.5 -17t-77.5 -13v-1282h-178zM762 1495l-313 166l45 84l270 -131l274 131l41 -82z" />
<glyph unicode="&#x148;" horiz-adv-x="1253" d="M905 0v659q0 67 -10 116.5t-33.5 84t-63.5 52.5t-100 18q-71 0 -131 -33t-104 -93t-68 -141.5t-24 -177.5v-387q60 -4 107.5 -13t66.5 -15v-70h-479v70q20 6 67.5 15t108.5 13v815q-36 7 -83.5 12.5t-92.5 8.5v70q32 4 70.5 7t79.5 5t81.5 2.5t75.5 -0.5q0 -27 -1 -58 t-3.5 -63.5t-6 -62.5t-8.5 -54l4 -2q22 59 57 106t82 80.5t105 51.5t125 18q86 0 145.5 -24.5t95 -69t51 -103t15.5 -130.5v-609q60 -4 107.5 -13t66.5 -15v-70h-303zM637 1184l-262 258l63 67l201 -180l203 180l61 -65z" />
<glyph unicode="&#x14c;" horiz-adv-x="1446" d="M1348 707q0 -171 -49.5 -306.5t-138 -228.5t-205.5 -140.5t-250 -47.5q-147 0 -261 49t-191 140.5t-116 219t-39 283.5q0 171 49.5 306.5t138 228.5t205 140.5t248.5 47.5q148 0 262 -49t191.5 -141t116.5 -219t39 -283zM1210 680q0 135 -31 246.5t-92 192.5t-153 125 t-211 44q-102 0 -190.5 -38t-155.5 -113t-104 -184.5t-37 -247.5q0 -136 30.5 -248t91.5 -193.5t153 -125.5t212 -44q101 0 189.5 38.5t155.5 113.5t104.5 185t37.5 249zM451 1542v98h540v-98h-540z" />
<glyph unicode="&#x14d;" horiz-adv-x="1110" d="M1016 518q0 -112 -31 -209.5t-91.5 -170.5t-150.5 -113.5t-204 -40.5q-102 0 -184 31.5t-140.5 96t-89.5 162t-31 226.5q0 112 31 209.5t91.5 170.5t150.5 113.5t204 40.5q102 0 184 -31.5t140.5 -96t89.5 -162t31 -226.5zM881 510q0 99 -22 177t-64.5 132.5t-102.5 82.5 t-135 28t-136 -27t-104.5 -80.5t-66.5 -132.5t-23 -182q0 -99 22 -177t64.5 -131.5t103 -81.5t136.5 -28q71 0 130.5 25t104 76.5t69 131.5t24.5 187zM312 1288v98h491v-98h-491z" />
<glyph unicode="&#x150;" horiz-adv-x="1446" d="M1348 707q0 -171 -49.5 -306.5t-138 -228.5t-205.5 -140.5t-250 -47.5q-147 0 -261 49t-191 140.5t-116 219t-39 283.5q0 171 49.5 306.5t138 228.5t205 140.5t248.5 47.5q148 0 262 -49t191.5 -141t116.5 -219t39 -283zM1210 680q0 135 -31 246.5t-92 192.5t-153 125 t-211 44q-102 0 -190.5 -38t-155.5 -113t-104 -184.5t-37 -247.5q0 -136 30.5 -248t91.5 -193.5t153 -125.5t212 -44q101 0 189.5 38.5t155.5 113.5t104.5 185t37.5 249zM906 1497l-68 66l248 235l86 -84zM568 1497l-67 66l215 237l86 -82z" />
<glyph unicode="&#x151;" horiz-adv-x="1110" d="M1016 518q0 -112 -31 -209.5t-91.5 -170.5t-150.5 -113.5t-204 -40.5q-102 0 -184 31.5t-140.5 96t-89.5 162t-31 226.5q0 112 31 209.5t91.5 170.5t150.5 113.5t204 40.5q102 0 184 -31.5t140.5 -96t89.5 -162t31 -226.5zM881 510q0 99 -22 177t-64.5 132.5t-102.5 82.5 t-135 28t-136 -27t-104.5 -80.5t-66.5 -132.5t-23 -182q0 -99 22 -177t64.5 -131.5t103 -81.5t136.5 -28q71 0 130.5 25t104 76.5t69 131.5t24.5 187zM747 1184l-70 61l242 258l88 -80zM415 1184l-69 61l225 266l90 -75z" />
<glyph unicode="&#x152;" horiz-adv-x="1769" d="M932 0q-60 -8 -115.5 -12t-111.5 -4q-147 0 -261 49t-191 140.5t-116 219t-39 283.5q0 171 49.5 306.5t138 228.5t205 140.5t248.5 47.5q104 0 201 -17h668v-295h-84q-5 24 -15 78t-16 113h-432v-514h344q5 54 16 98t17 62h73v-420h-73q-6 18 -17 61t-16 97h-344v-556 h442q5 59 16 114.5t17 80.5h84v-301h-688zM930 1260q-54 14 -102 21t-105 7q-102 0 -190.5 -38t-155.5 -113t-104 -184.5t-37 -247.5q0 -136 30.5 -248t91.5 -193.5t153 -125.5t212 -44q47 0 102.5 7t104.5 20v1139z" />
<glyph unicode="&#x153;" horiz-adv-x="1808" d="M1704 627q0 -15 -0.5 -31t-0.5 -28.5t-0.5 -20t-0.5 -10.5h-690q-5 -116 15 -200.5t64 -138.5t110 -80t155 -26q73 0 146.5 14t150.5 41l20 -102q-84 -29 -167.5 -45t-168.5 -16q-83 0 -148.5 16t-114 46.5t-82.5 72.5t-56 96q-27 -50 -63.5 -92t-85 -73t-111 -48.5 t-137.5 -17.5q-102 0 -184 31.5t-140.5 96t-89.5 162t-31 226.5q0 112 31 209.5t91.5 170.5t150.5 113.5t204 40.5q65 0 122.5 -13.5t106 -41t87 -69.5t65.5 -99q25 51 60.5 92t81.5 70.5t102 45t119 15.5q100 0 174.5 -32t122 -88.5t70 -129.5t22.5 -157zM1567 635 q1 68 -15.5 123.5t-50.5 94t-83 59t-111 20.5q-57 0 -106 -19.5t-87 -58t-63 -94t-35 -125.5h551zM881 510q0 99 -22 177t-64.5 132.5t-102.5 82.5t-135 28t-136 -27t-104.5 -80.5t-66.5 -132.5t-23 -182q0 -99 22 -177t64.5 -131.5t103 -81.5t136.5 -28q71 0 130.5 25 t104 76.5t69 131.5t24.5 187z" />
<glyph unicode="&#x154;" horiz-adv-x="1210" d="M895 0l-406 647h-114v-549q43 -3 87.5 -10.5t82.5 -17.5v-70h-479v70q40 11 86 18t92 10v1186q-47 3 -93 10.5t-85 18.5v69h157q13 0 32.5 0.5t63 1.5t62 2t51 1.5t67.5 1t68 0.5q107 0 192.5 -18t148 -59t96.5 -108.5t34 -163.5q0 -87 -31 -155.5t-87.5 -117 t-131.5 -76.5t-163 -36q25 -31 52.5 -69.5t51.5 -75.5l262 -408q39 -5 83.5 -12.5t92.5 -17.5v-72h-272zM901 1020q0 74 -23 125t-69.5 81.5t-115 44t-163.5 13.5q-17 0 -37.5 -0.5t-41.5 -1t-40.5 -2t-35.5 -2.5v-528h178q85 0 150.5 18.5t109.5 54t66 85t22 112.5z M460 1499l-30 78l335 152l48 -111z" />
<glyph unicode="&#x155;" horiz-adv-x="776" d="M737 906q-95 15 -164.5 -11.5t-113.5 -91t-66 -165t-22 -233.5v-307q47 -3 91.5 -10.5t84.5 -18.5v-69h-481v69q40 11 84.5 18.5t91.5 10.5v815q-37 6 -84 11.5t-92 8.5v71q31 4 68 7t78.5 5t82.5 2.5t77 -0.5q0 -54 -5.5 -126t-19.5 -142l4 -2q15 57 43 113t74.5 98.5 t114 62.5t159.5 11zM466 1180l-71 63l237 279l90 -80z" />
<glyph unicode="&#x156;" horiz-adv-x="1210" d="M895 0l-406 647h-114v-549q43 -3 87.5 -10.5t82.5 -17.5v-70h-479v70q40 11 86 18t92 10v1186q-47 3 -93 10.5t-85 18.5v69h157q13 0 32.5 0.5t63 1.5t62 2t51 1.5t67.5 1t68 0.5q107 0 192.5 -18t148 -59t96.5 -108.5t34 -163.5q0 -87 -31 -155.5t-87.5 -117 t-131.5 -76.5t-163 -36q25 -31 52.5 -69.5t51.5 -75.5l262 -408q39 -5 83.5 -12.5t92.5 -17.5v-72h-272zM901 1020q0 74 -23 125t-69.5 81.5t-115 44t-163.5 13.5q-17 0 -37.5 -0.5t-41.5 -1t-40.5 -2t-35.5 -2.5v-528h178q85 0 150.5 18.5t109.5 54t66 85t22 112.5z M448 -438q51 48 69.5 88t18.5 67q0 19 -5 31t-10.5 22t-10.5 20t-5 26q0 15 5.5 30t16 26.5t26 18.5t34.5 7q41 0 65.5 -31t24.5 -76q0 -26 -8.5 -56.5t-29.5 -65.5t-55.5 -74.5t-86.5 -83.5z" />
<glyph unicode="&#x157;" horiz-adv-x="776" d="M737 906q-95 15 -164.5 -11.5t-113.5 -91t-66 -165t-22 -233.5v-307q47 -3 91.5 -10.5t84.5 -18.5v-69h-481v69q40 11 84.5 18.5t91.5 10.5v815q-37 6 -84 11.5t-92 8.5v71q31 4 68 7t78.5 5t82.5 2.5t77 -0.5q0 -54 -5.5 -126t-19.5 -142l4 -2q15 57 43 113t74.5 98.5 t114 62.5t159.5 11zM179 -438q51 48 69.5 88t18.5 67q0 19 -5 31t-10.5 22t-10.5 20t-5 26q0 15 5.5 30t16 26.5t26 18.5t34.5 7q41 0 65.5 -31t24.5 -76q0 -26 -8.5 -56.5t-29.5 -65.5t-55.5 -74.5t-86.5 -83.5z" />
<glyph unicode="&#x158;" horiz-adv-x="1210" d="M895 0l-406 647h-114v-549q43 -3 87.5 -10.5t82.5 -17.5v-70h-479v70q40 11 86 18t92 10v1186q-47 3 -93 10.5t-85 18.5v69h157q13 0 32.5 0.5t63 1.5t62 2t51 1.5t67.5 1t68 0.5q107 0 192.5 -18t148 -59t96.5 -108.5t34 -163.5q0 -87 -31 -155.5t-87.5 -117 t-131.5 -76.5t-163 -36q25 -31 52.5 -69.5t51.5 -75.5l262 -408q39 -5 83.5 -12.5t92.5 -17.5v-72h-272zM901 1020q0 74 -23 125t-69.5 81.5t-115 44t-163.5 13.5q-17 0 -37.5 -0.5t-41.5 -1t-40.5 -2t-35.5 -2.5v-528h178q85 0 150.5 18.5t109.5 54t66 85t22 112.5z M548 1495l-313 166l45 84l270 -131l274 131l41 -82z" />
<glyph unicode="&#x159;" horiz-adv-x="776" d="M737 906q-95 15 -164.5 -11.5t-113.5 -91t-66 -165t-22 -233.5v-307q47 -3 91.5 -10.5t84.5 -18.5v-69h-481v69q40 11 84.5 18.5t91.5 10.5v815q-37 6 -84 11.5t-92 8.5v71q31 4 68 7t78.5 5t82.5 2.5t77 -0.5q0 -54 -5.5 -126t-19.5 -142l4 -2q15 57 43 113t74.5 98.5 t114 62.5t159.5 11zM474 1184l-262 258l63 67l201 -180l203 180l61 -65z" />
<glyph unicode="&#x15a;" horiz-adv-x="1040" d="M918 365q0 -86 -31.5 -156.5t-91 -120.5t-145 -77t-191.5 -27q-112 0 -200 13t-124 21v301h84q5 -24 15 -79.5t16 -116.5q26 -8 87 -19.5t138 -11.5q72 0 129 17t96.5 50t60.5 82t21 113q0 63 -26.5 110t-71 81.5t-88.5 56t-130.5 60.5t-140.5 69.5t-99.5 73.5t-72 103 t-26.5 139q0 80 30.5 145t89.5 111.5t143 71t190 24.5q84 0 158 -10t106 -17v-291h-84q-5 24 -14.5 79t-14.5 116q-20 4 -67 10t-101 6q-71 0 -127 -15t-95.5 -44.5t-60 -74t-20.5 -101.5q0 -61 26.5 -107t71.5 -79.5t86 -53t131 -60t144 -71.5t99.5 -75t72.5 -105t27 -141z M473 1499l-30 78l335 152l48 -111z" />
<glyph unicode="&#x15b;" horiz-adv-x="893" d="M776 268q0 -64 -25.5 -116.5t-75.5 -90t-121 -57.5t-161 -20q-51 0 -99.5 3.5t-84.5 8.5t-56.5 8.5t-27.5 5.5v277h74q5 -20 14.5 -68.5t15.5 -107.5q20 -5 68.5 -13t110.5 -8q55 0 99 10.5t75 32t47 53.5t16 74q0 45 -21.5 78t-57 56.5t-62 35t-104.5 43t-121.5 54.5 t-80 56.5t-58 80.5t-21.5 110q0 59 25.5 107t74 82.5t119 52.5t158.5 18q73 0 135.5 -7.5t89.5 -12.5v-275h-74q-4 21 -13 71t-16 112q-16 3 -54 7.5t-83 4.5q-111 0 -171 -39t-60 -115q0 -45 21.5 -77.5t57 -55.5t93 -47t104 -42.5t90.5 -42t80.5 -56.5t58 -80.5 t21.5 -110.5zM428 1180l-71 63l237 279l90 -80z" />
<glyph unicode="&#x15e;" horiz-adv-x="1040" d="M918 365q0 -86 -31.5 -156.5t-91 -120.5t-145 -77t-191.5 -27q-112 0 -200 13t-124 21v301h84q5 -24 15 -79.5t16 -116.5q26 -8 87 -19.5t138 -11.5q72 0 129 17t96.5 50t60.5 82t21 113q0 63 -26.5 110t-71 81.5t-88.5 56t-130.5 60.5t-140.5 69.5t-99.5 73.5t-72 103 t-26.5 139q0 80 30.5 145t89.5 111.5t143 71t190 24.5q84 0 158 -10t106 -17v-291h-84q-5 24 -14.5 79t-14.5 116q-20 4 -67 10t-101 6q-71 0 -127 -15t-95.5 -44.5t-60 -74t-20.5 -101.5q0 -61 26.5 -107t71.5 -79.5t86 -53t131 -60t144 -71.5t99.5 -75t72.5 -105t27 -141z M536 -84q38 -48 52.5 -96.5t7 -97.5t-33.5 -99.5t-71 -105.5h-116q45 57 69.5 100.5t31 83t-6.5 78.5t-49 82z" />
<glyph unicode="&#x15f;" horiz-adv-x="893" d="M776 268q0 -64 -25.5 -116.5t-75.5 -90t-121 -57.5t-161 -20q-51 0 -99.5 3.5t-84.5 8.5t-56.5 8.5t-27.5 5.5v277h74q5 -20 14.5 -68.5t15.5 -107.5q20 -5 68.5 -13t110.5 -8q55 0 99 10.5t75 32t47 53.5t16 74q0 45 -21.5 78t-57 56.5t-62 35t-104.5 43t-121.5 54.5 t-80 56.5t-58 80.5t-21.5 110q0 59 25.5 107t74 82.5t119 52.5t158.5 18q73 0 135.5 -7.5t89.5 -12.5v-275h-74q-4 21 -13 71t-16 112q-16 3 -54 7.5t-83 4.5q-111 0 -171 -39t-60 -115q0 -45 21.5 -77.5t57 -55.5t93 -47t104 -42.5t90.5 -42t80.5 -56.5t58 -80.5 t21.5 -110.5zM464 -84q38 -48 52.5 -96.5t7 -97.5t-33.5 -99.5t-71 -105.5h-116q45 57 69.5 100.5t31 83t-6.5 78.5t-49 82z" />
<glyph unicode="&#x160;" horiz-adv-x="1040" d="M918 365q0 -86 -31.5 -156.5t-91 -120.5t-145 -77t-191.5 -27q-112 0 -200 13t-124 21v301h84q5 -24 15 -79.5t16 -116.5q26 -8 87 -19.5t138 -11.5q72 0 129 17t96.5 50t60.5 82t21 113q0 63 -26.5 110t-71 81.5t-88.5 56t-130.5 60.5t-140.5 69.5t-99.5 73.5t-72 103 t-26.5 139q0 80 30.5 145t89.5 111.5t143 71t190 24.5q84 0 158 -10t106 -17v-291h-84q-5 24 -14.5 79t-14.5 116q-20 4 -67 10t-101 6q-71 0 -127 -15t-95.5 -44.5t-60 -74t-20.5 -101.5q0 -61 26.5 -107t71.5 -79.5t86 -53t131 -60t144 -71.5t99.5 -75t72.5 -105t27 -141z M524 1495l-313 166l45 84l270 -131l274 131l41 -82z" />
<glyph unicode="&#x161;" horiz-adv-x="893" d="M776 268q0 -64 -25.5 -116.5t-75.5 -90t-121 -57.5t-161 -20q-51 0 -99.5 3.5t-84.5 8.5t-56.5 8.5t-27.5 5.5v277h74q5 -20 14.5 -68.5t15.5 -107.5q20 -5 68.5 -13t110.5 -8q55 0 99 10.5t75 32t47 53.5t16 74q0 45 -21.5 78t-57 56.5t-62 35t-104.5 43t-121.5 54.5 t-80 56.5t-58 80.5t-21.5 110q0 59 25.5 107t74 82.5t119 52.5t158.5 18q73 0 135.5 -7.5t89.5 -12.5v-275h-74q-4 21 -13 71t-16 112q-16 3 -54 7.5t-83 4.5q-111 0 -171 -39t-60 -115q0 -45 21.5 -77.5t57 -55.5t93 -47t104 -42.5t90.5 -42t80.5 -56.5t58 -80.5 t21.5 -110.5zM445 1184l-262 258l63 67l201 -180l203 180l61 -65z" />
<glyph unicode="&#x162;" horiz-adv-x="1112" d="M989 1071q-3 21 -16.5 98t-16.5 107h-335v-1178q46 -3 91.5 -10t86.5 -18v-70h-488v70q41 11 86.5 18t91.5 10v1178h-333q-3 -33 -8.5 -67.5t-24.5 -137.5h-82v311h1030v-311h-82zM591 -84q38 -48 52.5 -96.5t7 -97.5t-33.5 -99.5t-71 -105.5h-116q45 57 69.5 100.5 t31 83t-6.5 78.5t-49 82z" />
<glyph unicode="&#x163;" horiz-adv-x="756" d="M684 6q-42 -9 -94.5 -14.5t-100.5 -5.5q-74 0 -123 17t-77.5 53t-40.5 90.5t-12 134.5v634h-234v103h234v344l126 35v-379h314v-103h-314v-571q0 -75 7.5 -121.5t25.5 -73.5t49 -38t80 -11q40 0 76.5 4.5t65.5 12.5zM487 -84q38 -48 52.5 -96.5t7 -97.5t-33.5 -99.5 t-71 -105.5h-116q45 57 69.5 100.5t31 83t-6.5 78.5t-49 82z" />
<glyph unicode="&#x164;" horiz-adv-x="1112" d="M989 1071q-3 21 -16.5 98t-16.5 107h-335v-1178q46 -3 91.5 -10t86.5 -18v-70h-488v70q41 11 86.5 18t91.5 10v1178h-333q-3 -33 -8.5 -67.5t-24.5 -137.5h-82v311h1030v-311h-82zM554 1495l-313 166l45 84l270 -131l274 131l41 -82z" />
<glyph unicode="&#x165;" horiz-adv-x="768" d="M684 6q-42 -9 -94.5 -14.5t-100.5 -5.5q-74 0 -123 17t-77.5 53t-40.5 90.5t-12 134.5v634h-234v103h234v344l126 35v-379h314v-103h-314v-571q0 -75 7.5 -121.5t25.5 -73.5t49 -38t80 -11q40 0 76.5 4.5t65.5 12.5zM602 1174l-90 30l119 336l114 -39z" />
<glyph unicode="&#x16a;" horiz-adv-x="1473" d="M1407 1313q-67 -19 -150 -29v-762q0 -131 -34 -231t-101 -168.5t-168 -103.5t-235 -35q-103 0 -182.5 18.5t-135.5 51.5t-92 77.5t-56.5 96.5t-29 108.5t-8.5 118.5v829q-82 10 -149 29v69h454v-69q-38 -11 -83 -18.5t-91 -10.5v-815q0 -83 17 -150t59.5 -119t118.5 -81 t190 -29q101 0 175 22.5t123.5 72t74 130t24.5 195.5v774q-45 3 -90.5 10.5t-83.5 18.5v69h453v-69zM465 1542v98h540v-98h-540z" />
<glyph unicode="&#x16b;" horiz-adv-x="1235" d="M1190 14q-31 -4 -69.5 -7t-80 -5t-82 -2.5t-75.5 0.5q0 27 1 58t3.5 63.5t6 62.5t7.5 54l-4 2q-21 -59 -56 -106t-82.5 -80.5t-105.5 -51.5t-125 -18q-85 0 -145 24.5t-95.5 68.5t-51 102.5t-15.5 129.5v604q-36 7 -83.5 12.5t-92.5 8.5v70q31 4 69.5 7t79.5 5t81 2.5 t75 -0.5v-660q0 -66 10 -115.5t34 -84t64 -52.5t99 -18q71 0 131.5 32.5t104.5 92.5t68 141.5t24 177.5v381q-36 7 -83.5 12.5t-90.5 8.5v70q32 4 69.5 7t78 5t80.5 2.5t75 -0.5v-914q38 -6 85 -11.5t91 -8.5v-70zM367 1288v98h491v-98h-491z" />
<glyph unicode="&#x16e;" horiz-adv-x="1473" d="M1407 1313q-67 -19 -150 -29v-762q0 -131 -34 -231t-101 -168.5t-168 -103.5t-235 -35q-103 0 -182.5 18.5t-135.5 51.5t-92 77.5t-56.5 96.5t-29 108.5t-8.5 118.5v829q-82 10 -149 29v69h454v-69q-38 -11 -83 -18.5t-91 -10.5v-815q0 -83 17 -150t59.5 -119t118.5 -81 t190 -29q101 0 175 22.5t123.5 72t74 130t24.5 195.5v774q-45 3 -90.5 10.5t-83.5 18.5v69h453v-69zM955 1671q0 -44 -15.5 -82.5t-44.5 -67.5t-71 -45t-93 -16q-48 0 -86.5 13t-65.5 38t-41.5 63t-14.5 87q0 44 15.5 82.5t44.5 67.5t71 45t94 16q48 0 86 -13t65 -38 t41.5 -63t14.5 -87zM848 1665q0 29 -7.5 52t-21.5 39t-34 24t-45 8q-22 0 -41.5 -7.5t-34.5 -22t-24 -38t-9 -53.5q0 -29 7 -51.5t21 -38t34.5 -23.5t46.5 -8q21 0 40.5 7t34.5 22t24 37.5t9 52.5z" />
<glyph unicode="&#x16f;" horiz-adv-x="1235" d="M1190 14q-31 -4 -69.5 -7t-80 -5t-82 -2.5t-75.5 0.5q0 27 1 58t3.5 63.5t6 62.5t7.5 54l-4 2q-21 -59 -56 -106t-82.5 -80.5t-105.5 -51.5t-125 -18q-85 0 -145 24.5t-95.5 68.5t-51 102.5t-15.5 129.5v604q-36 7 -83.5 12.5t-92.5 8.5v70q31 4 69.5 7t79.5 5t81 2.5 t75 -0.5v-660q0 -66 10 -115.5t34 -84t64 -52.5t99 -18q71 0 131.5 32.5t104.5 92.5t68 141.5t24 177.5v381q-36 7 -83.5 12.5t-90.5 8.5v70q32 4 69.5 7t78 5t80.5 2.5t75 -0.5v-914q38 -6 85 -11.5t91 -8.5v-70zM818 1348q0 -44 -15 -82.5t-44 -68t-71 -46t-94 -16.5 q-48 0 -86 12.5t-65 38t-41 63.5t-14 88q0 43 15.5 81.5t44.5 67.5t71 45.5t94 16.5q47 0 85 -12.5t65 -38t41 -63t14 -86.5zM711 1341q0 29 -7 51.5t-21 38t-34 23.5t-46 8q-22 0 -41.5 -7.5t-34.5 -22t-24 -38t-9 -53.5q0 -29 7.5 -51t21.5 -37.5t34.5 -23.5t45.5 -8 q21 0 40.5 7t34.5 22t24 38t9 53z" />
<glyph unicode="&#x170;" horiz-adv-x="1473" d="M1407 1313q-67 -19 -150 -29v-762q0 -131 -34 -231t-101 -168.5t-168 -103.5t-235 -35q-103 0 -182.5 18.5t-135.5 51.5t-92 77.5t-56.5 96.5t-29 108.5t-8.5 118.5v829q-82 10 -149 29v69h454v-69q-38 -11 -83 -18.5t-91 -10.5v-815q0 -83 17 -150t59.5 -119t118.5 -81 t190 -29q101 0 175 22.5t123.5 72t74 130t24.5 195.5v774q-45 3 -90.5 10.5t-83.5 18.5v69h453v-69zM888 1497l-68 66l248 235l86 -84zM550 1497l-67 66l215 237l86 -82z" />
<glyph unicode="&#x171;" horiz-adv-x="1235" d="M1190 14q-31 -4 -69.5 -7t-80 -5t-82 -2.5t-75.5 0.5q0 27 1 58t3.5 63.5t6 62.5t7.5 54l-4 2q-21 -59 -56 -106t-82.5 -80.5t-105.5 -51.5t-125 -18q-85 0 -145 24.5t-95.5 68.5t-51 102.5t-15.5 129.5v604q-36 7 -83.5 12.5t-92.5 8.5v70q31 4 69.5 7t79.5 5t81 2.5 t75 -0.5v-660q0 -66 10 -115.5t34 -84t64 -52.5t99 -18q71 0 131.5 32.5t104.5 92.5t68 141.5t24 177.5v381q-36 7 -83.5 12.5t-90.5 8.5v70q32 4 69.5 7t78 5t80.5 2.5t75 -0.5v-914q38 -6 85 -11.5t91 -8.5v-70zM774 1184l-70 61l242 258l88 -80zM442 1184l-69 61l225 266 l90 -75z" />
<glyph unicode="&#x172;" horiz-adv-x="1473" d="M1257 522q0 -134 -34 -234t-102 -169q-25 -26 -57 -47t-66.5 -43.5t-71.5 -48t-70 -59.5q-51 -51 -77 -101t-26 -102q0 -44 23 -66.5t65 -22.5q34 0 67 13.5t70 41.5l47 -77q-44 -39 -96 -60.5t-109 -21.5q-47 0 -84 12.5t-61 34.5t-37 53.5t-13 69.5q0 75 42.5 151.5 t126.5 140.5q-16 -2 -38.5 -3t-38.5 -1q-107 0 -184.5 19t-134 52t-92 78.5t-56 97.5t-28 109t-7.5 116v829q-80 10 -150 28v70h456v-70q-40 -11 -85 -17.5t-89 -10.5v-815q0 -76 15.5 -145.5t58 -121.5t117 -82.5t193.5 -30.5q99 0 173.5 22.5t124.5 72t74.5 130 t24.5 196.5v774q-45 4 -89.5 10.5t-84.5 17.5v70h453v-70q-70 -18 -150 -28v-762z" />
<glyph unicode="&#x173;" horiz-adv-x="1235" d="M1190 14q-76 -5 -135 -29t-115 -79q-22 -22 -38.5 -45.5t-27.5 -48t-16.5 -48.5t-5.5 -47q0 -43 22.5 -65.5t65.5 -22.5q16 0 32 3.5t33 10.5t34 17.5t36 24.5l47 -78q-21 -20 -45 -35t-50 -25.5t-53.5 -16t-55.5 -5.5q-47 0 -83.5 12t-61.5 34.5t-37.5 54t-12.5 69.5 q0 39 11.5 78.5t35 80t60.5 80.5t88 78q-4 25 -7.5 53t-6 57t-3.5 56t0 49h-2q-24 -55 -59.5 -99.5t-82.5 -77t-104.5 -49.5t-124.5 -17q-85 0 -145 24.5t-95.5 68.5t-51 102.5t-15.5 129.5v604q-36 7 -84 12.5t-92 8.5v70q31 4 69 7t79 5t81.5 2.5t75.5 -0.5v-660 q0 -67 10 -116t33.5 -83.5t63.5 -52.5t100 -18q71 0 131.5 32.5t104.5 92.5t68 141.5t24 177.5v381q-36 7 -83.5 12.5t-90.5 8.5v70q32 4 69.5 7t78 5t80.5 2.5t75 -0.5v-633q0 -74 4.5 -149.5t13.5 -135.5q23 -3 42.5 -5.5t37.5 -4t37 -3t41 -3.5v-70z" />
<glyph unicode="&#x178;" horiz-adv-x="1192" d="M1182 1313q-32 -9 -69.5 -16.5t-65.5 -10.5l-390 -784v-404q46 -3 92 -10t87 -18v-70h-488v70q40 10 86 17.5t92 10.5v404l-381 784q-27 3 -65.5 11t-69.5 16v69h455v-69q-37 -11 -81.5 -18.5t-88.5 -10.5l192 -424q14 -29 28 -60t28 -61.5t26.5 -59.5t28.5 -65h2 q12 30 26 63t29 66t30 64t34 72l190 405q-45 3 -89.5 10.5t-82.5 18.5v69h445v-69zM899 1593q0 -19 -6.5 -35t-19 -28t-28.5 -18.5t-34 -6.5t-34 6.5t-28.5 18.5t-19 28t-6.5 35q0 18 6.5 34t19 28.5t28.5 19t34 6.5t34 -6.5t28.5 -19t19 -28.5t6.5 -34zM463 1593 q0 -19 -6.5 -35t-18.5 -28t-28 -18.5t-35 -6.5t-35 6.5t-28 18.5t-18.5 28t-6.5 35q0 18 6.5 34t18.5 28.5t28.5 19t34.5 6.5q19 0 35 -6.5t28 -19t18.5 -28.5t6.5 -34z" />
<glyph unicode="&#x179;" horiz-adv-x="1108" d="M94 0v92l643 987q33 51 63.5 96.5t67.5 96.5q-71 -2 -153.5 -3t-179.5 -1h-306q-3 -39 -10 -85.5t-18 -105.5h-84v305h895v-94l-678 -1036q-23 -37 -46 -70.5t-48 -68.5q18 1 51.5 2t80 1.5t98 0.5h138.5h297q4 40 11.5 86.5t19.5 109.5h82v-313h-924zM492 1499l-30 78 l335 152l48 -111z" />
<glyph unicode="&#x17a;" horiz-adv-x="913" d="M98 0v92l556 819q-27 -1 -61 -1.5t-73.5 -1t-81.5 -1t-85 -0.5h-138q-5 -42 -11.5 -82t-16.5 -84h-74v277h684v-90l-553 -817q24 1 60.5 1.5t77.5 1t84.5 1t80.5 0.5h156q5 40 12 84t18 90h74v-289h-709zM461 1180l-71 63l237 279l90 -80z" />
<glyph unicode="&#x17b;" horiz-adv-x="1108" d="M94 0v92l643 987q33 51 63.5 96.5t67.5 96.5q-71 -2 -153.5 -3t-179.5 -1h-306q-3 -39 -10 -85.5t-18 -105.5h-84v305h895v-94l-678 -1036q-23 -37 -46 -70.5t-48 -68.5q18 1 51.5 2t80 1.5t98 0.5h138.5h297q4 40 11.5 86.5t19.5 109.5h82v-313h-924zM648 1595 q0 -18 -7 -35t-20 -29.5t-29.5 -20t-35.5 -7.5q-18 0 -35 7t-29.5 20t-20 29.5t-7.5 35.5t7.5 36t20 30t29.5 20t35 7q19 0 36 -7t29.5 -19.5t19.5 -29.5t7 -37z" />
<glyph unicode="&#x17c;" horiz-adv-x="913" d="M98 0v92l556 819q-27 -1 -61 -1.5t-73.5 -1t-81.5 -1t-85 -0.5h-138q-5 -42 -11.5 -82t-16.5 -84h-74v277h684v-90l-553 -817q24 1 60.5 1.5t77.5 1t84.5 1t80.5 0.5h156q5 40 12 84t18 90h74v-289h-709zM548 1348q0 -18 -7 -35t-20 -30t-29.5 -20.5t-35.5 -7.5 q-18 0 -35 7t-29.5 20t-20 30t-7.5 36t7.5 35.5t20 29.5t29.5 20t35 7q19 0 35.5 -7t29.5 -19.5t20 -29.5t7 -36z" />
<glyph unicode="&#x17d;" horiz-adv-x="1108" d="M94 0v92l643 987q33 51 63.5 96.5t67.5 96.5q-71 -2 -153.5 -3t-179.5 -1h-306q-3 -39 -10 -85.5t-18 -105.5h-84v305h895v-94l-678 -1036q-23 -37 -46 -70.5t-48 -68.5q18 1 51.5 2t80 1.5t98 0.5h138.5h297q4 40 11.5 86.5t19.5 109.5h82v-313h-924zM567 1495l-313 166 l45 84l270 -131l274 131l41 -82z" />
<glyph unicode="&#x17e;" horiz-adv-x="913" d="M98 0v92l556 819q-27 -1 -61 -1.5t-73.5 -1t-81.5 -1t-85 -0.5h-138q-5 -42 -11.5 -82t-16.5 -84h-74v277h684v-90l-553 -817q24 1 60.5 1.5t77.5 1t84.5 1t80.5 0.5h156q5 40 12 84t18 90h74v-289h-709zM451 1184l-262 258l63 67l201 -180l203 180l61 -65z" />
<glyph unicode="&#x192;" d="M1032 1297q-48 15 -96.5 23.5t-89.5 8.5q-54 0 -93.5 -15t-67 -47.5t-44.5 -82t-24 -118.5l-35 -357h317v-102h-327l-51 -547q-9 -102 -39 -175.5t-79 -120t-116.5 -68.5t-152.5 -22q-21 0 -44 1.5t-47 5t-47.5 9t-46.5 12.5l23 109q24 -7 48 -13t48.5 -10t47.5 -6.5 t44 -2.5q52 0 91.5 15.5t68 47.5t45 81.5t22.5 116.5l55 567h-238v102h247l35 339q10 102 39.5 175t77.5 120.5t115.5 69.5t152.5 22q44 0 91 -7.5t94 -20.5z" />
<glyph unicode="&#x218;" horiz-adv-x="1040" d="M918 365q0 -86 -31.5 -156.5t-91 -120.5t-145 -77t-191.5 -27q-112 0 -200 13t-124 21v301h84q5 -24 15 -79.5t16 -116.5q26 -8 87 -19.5t138 -11.5q72 0 129 17t96.5 50t60.5 82t21 113q0 63 -26.5 110t-71 81.5t-88.5 56t-130.5 60.5t-140.5 69.5t-99.5 73.5t-72 103 t-26.5 139q0 80 30.5 145t89.5 111.5t143 71t190 24.5q84 0 158 -10t106 -17v-291h-84q-5 24 -14.5 79t-14.5 116q-20 4 -67 10t-101 6q-71 0 -127 -15t-95.5 -44.5t-60 -74t-20.5 -101.5q0 -61 26.5 -107t71.5 -79.5t86 -53t131 -60t144 -71.5t99.5 -75t72.5 -105t27 -141z M359 -438q51 48 69.5 88t18.5 67q0 19 -5 31t-10.5 22t-10.5 20t-5 26q0 15 5.5 30t16 26.5t26 18.5t34.5 7q41 0 65.5 -31t24.5 -76q0 -26 -8.5 -56.5t-29.5 -65.5t-55.5 -74.5t-86.5 -83.5z" />
<glyph unicode="&#x219;" horiz-adv-x="893" d="M776 268q0 -64 -25.5 -116.5t-75.5 -90t-121 -57.5t-161 -20q-51 0 -99.5 3.5t-84.5 8.5t-56.5 8.5t-27.5 5.5v277h74q5 -20 14.5 -68.5t15.5 -107.5q20 -5 68.5 -13t110.5 -8q55 0 99 10.5t75 32t47 53.5t16 74q0 45 -21.5 78t-57 56.5t-62 35t-104.5 43t-121.5 54.5 t-80 56.5t-58 80.5t-21.5 110q0 59 25.5 107t74 82.5t119 52.5t158.5 18q73 0 135.5 -7.5t89.5 -12.5v-275h-74q-4 21 -13 71t-16 112q-16 3 -54 7.5t-83 4.5q-111 0 -171 -39t-60 -115q0 -45 21.5 -77.5t57 -55.5t93 -47t104 -42.5t90.5 -42t80.5 -56.5t58 -80.5 t21.5 -110.5zM296 -438q51 48 69.5 88t18.5 67q0 19 -5 31t-10.5 22t-10.5 20t-5 26q0 15 5.5 30t16 26.5t26 18.5t34.5 7q41 0 65.5 -31t24.5 -76q0 -26 -8.5 -56.5t-29.5 -65.5t-55.5 -74.5t-86.5 -83.5z" />
<glyph unicode="&#x21a;" horiz-adv-x="1112" d="M989 1071q-3 21 -16.5 98t-16.5 107h-335v-1178q46 -3 91.5 -10t86.5 -18v-70h-488v70q41 11 86.5 18t91.5 10v1178h-333q-3 -33 -8.5 -67.5t-24.5 -137.5h-82v311h1030v-311h-82zM410 -438q51 48 69.5 88t18.5 67q0 19 -5 31t-10.5 22t-10.5 20t-5 26q0 15 5.5 30 t16 26.5t26 18.5t34.5 7q41 0 65.5 -31t24.5 -76q0 -26 -8.5 -56.5t-29.5 -65.5t-55.5 -74.5t-86.5 -83.5z" />
<glyph unicode="&#x21b;" horiz-adv-x="756" d="M684 6q-42 -9 -94.5 -14.5t-100.5 -5.5q-74 0 -123 17t-77.5 53t-40.5 90.5t-12 134.5v634h-234v103h234v344l126 35v-379h314v-103h-314v-571q0 -75 7.5 -121.5t25.5 -73.5t49 -38t80 -11q40 0 76.5 4.5t65.5 12.5zM295 -438q51 48 69.5 88t18.5 67q0 19 -5 31t-10.5 22 t-10.5 20t-5 26q0 15 5.5 30t16 26.5t26 18.5t34.5 7q41 0 65.5 -31t24.5 -76q0 -26 -8.5 -56.5t-29.5 -65.5t-55.5 -74.5t-86.5 -83.5z" />
<glyph unicode="&#x2c6;" horiz-adv-x="918" d="M659 1184l-200 178l-203 -178l-61 63l266 262l262 -260z" />
<glyph unicode="&#x2c7;" horiz-adv-x="918" d="M457 1184l-262 258l63 67l201 -180l203 180l61 -65z" />
<glyph unicode="&#x2d8;" horiz-adv-x="868" d="M674 1466q0 -50 -15 -94.5t-45 -79t-76.5 -54t-107.5 -19.5q-60 0 -105 19.5t-73.5 54t-42.5 79t-14 94.5h94q0 -29 9 -55.5t27.5 -47t45.5 -32.5t61 -12q68 0 107 39t39 108h96z" />
<glyph unicode="&#x2d9;" horiz-adv-x="573" d="M379 1348q0 -18 -7 -35t-20 -30t-29.5 -20.5t-35.5 -7.5q-18 0 -35 7t-29.5 20t-20 30t-7.5 36t7.5 35.5t20 29.5t29.5 20t35 7q19 0 35.5 -7t29.5 -19.5t20 -29.5t7 -36z" />
<glyph unicode="&#x2da;" horiz-adv-x="821" d="M625 1348q0 -44 -15 -82.5t-44 -68t-71 -46t-94 -16.5q-48 0 -86 12.5t-65 38t-41 63.5t-14 88q0 43 15.5 81.5t44.5 67.5t71 45.5t94 16.5q47 0 85 -12.5t65 -38t41 -63t14 -86.5zM518 1341q0 29 -7 51.5t-21 38t-34 23.5t-46 8q-22 0 -41.5 -7.5t-34.5 -22t-24 -38 t-9 -53.5q0 -29 7.5 -51t21.5 -37.5t34.5 -23.5t45.5 -8q21 0 40.5 7t34.5 22t24 38t9 53z" />
<glyph unicode="&#x2db;" horiz-adv-x="791" d="M596 -393q-22 -20 -46 -35t-50 -25.5t-53.5 -16t-55.5 -5.5q-47 0 -83.5 12t-61.5 34.5t-38 54t-13 69.5q0 39 11.5 78.5t35.5 80t60.5 80.5t86.5 78l131 -12q-55 -41 -93 -79.5t-60.5 -73.5t-32.5 -67t-10 -63q0 -43 23 -65.5t65 -22.5q33 0 66 14t71 42z" />
<glyph unicode="&#x2dc;" horiz-adv-x="1061" d="M866 1380q-37 -68 -90 -104.5t-117 -36.5q-44 0 -77.5 15.5t-74 45.5t-63.5 43t-53 13q-34 0 -67 -25t-60 -74l-69 56q37 68 89.5 104.5t116.5 36.5q44 0 78 -15.5t74 -45.5t62.5 -43t52.5 -13q36 0 69 25t60 74z" />
<glyph unicode="&#x2dd;" horiz-adv-x="1051" d="M596 1184l-70 61l242 258l88 -80zM264 1184l-69 61l225 266l90 -75z" />
<glyph unicode="&#x312;" horiz-adv-x="0" d="M-453 1501q-51 -48 -70.5 -87.5t-19.5 -70.5q0 -18 5 -29.5t10.5 -21.5t10.5 -20.5t5 -28.5q0 -32 -23 -55t-57 -23q-18 0 -34 7t-28.5 21t-20 33.5t-7.5 45.5t9 57t30 66t55.5 74t85.5 81z" />
<glyph unicode="&#x315;" horiz-adv-x="27" d="M-6 1174l-90 30l119 336l114 -39z" />
<glyph unicode="&#x326;" horiz-adv-x="0" d="M-725 -438q51 48 69.5 88t18.5 67q0 19 -5 31t-10.5 22t-10.5 20t-5 26q0 15 5.5 30t16 26.5t26 18.5t34.5 7q41 0 65.5 -31t24.5 -76q0 -26 -8.5 -56.5t-29.5 -65.5t-55.5 -74.5t-86.5 -83.5z" />
<glyph unicode="&#x394;" horiz-adv-x="1235" d="M61 0v92l478 1290h157l478 -1290v-92h-1113zM645 1155q-12 34 -19 62t-14 53h-2q-12 -51 -35 -121l-370 -1034h811z" />
<glyph unicode="&#x3a9;" horiz-adv-x="1417" d="M96 301h78q11 -49 19.5 -100.5t13.5 -96.5h274v127q-62 25 -129.5 68t-124.5 110t-94 160t-37 217q0 125 39 236.5t117.5 195t196 132.5t274.5 49q136 0 247 -44.5t190 -124t122 -188.5t43 -239q0 -82 -18.5 -152t-49 -129t-70.5 -106.5t-83 -84t-85.5 -61.5t-78.5 -39 v-127h272q5 41 14.5 92t20.5 105h78v-301h-489v274q60 23 122.5 66t114 106t84.5 147t33 189q0 118 -34 213t-96.5 162t-151 103t-197.5 36q-122 0 -212.5 -41.5t-150 -111t-88.5 -160.5t-29 -190q0 -76 14.5 -138.5t39.5 -114t59 -92.5t73.5 -73.5t82.5 -57t86 -43.5v-274 h-490v301z" />
<glyph unicode="&#x3bc;" horiz-adv-x="1219" d="M221 913q-36 7 -84 12.5t-92 8.5v70q31 4 69.5 7t79.5 5t81 2.5t75 -0.5v-680q0 -127 50 -188.5t157 -61.5q72 0 132.5 32.5t104.5 92.5t67.5 141.5t23.5 177.5v381q-34 7 -82 12.5t-92 8.5v70q31 4 69.5 7t79 5t80.5 2.5t74 -0.5v-676q0 -71 4.5 -118t14.5 -75t27 -40.5 t42 -12.5q8 0 18.5 1.5t18.5 4.5l14 -104q-16 -6 -39.5 -8t-50.5 -2q-89 0 -130 66t-30 184h-2q-22 -58 -57 -105t-81 -80t-103 -51t-123 -18q-68 0 -120 21.5t-79 64.5l16 -584h-133v1427z" />
<glyph unicode="&#x3c0;" horiz-adv-x="1296" d="M967 911q-2 -88 -1.5 -163t3.5 -140q2 -56 5 -101.5t7 -83.5t9 -70t11 -60q11 -54 23 -91.5t26.5 -61t32.5 -34t41 -10.5q25 0 52.5 4t50.5 11l18 -107q-25 -8 -61.5 -12t-71.5 -4q-50 0 -88 14.5t-66.5 48t-49.5 87.5t-36 132q-12 65 -20.5 147.5t-13.5 184.5 q-3 68 -2.5 145.5t2.5 163.5h-404q3 -77 3.5 -154t-7.5 -155q-14 -153 -44 -303t-81 -303l-147 8q107 302 141 598q9 78 11 155t-3 154h-266v107h1196v-107h-270z" />
<glyph unicode="&#x2013;" d="M0 554v110h1126v-110h-1126z" />
<glyph unicode="&#x2014;" horiz-adv-x="2048" d="M252 554v110h1544v-110h-1544z" />
<glyph unicode="&#x2018;" horiz-adv-x="465" d="M375 1475q-45 -49 -70.5 -92.5t-34 -78.5t-4 -62t18.5 -46q16 -22 17.5 -46.5t-9 -45.5t-30 -34t-44.5 -13q-30 0 -53.5 17t-35.5 48t-9 74.5t24 96t64 113t108 122.5z" />
<glyph unicode="&#x2019;" horiz-adv-x="465" d="M244 1516q30 0 52.5 -17t34.5 -48t9 -74.5t-24 -96t-63.5 -112t-107.5 -121.5l-59 51q45 48 71 92t34.5 79.5t4 62.5t-19.5 46q-10 15 -14.5 31t-2.5 31.5t9 29t18 24t26 16.5t32 6z" />
<glyph unicode="&#x201a;" horiz-adv-x="465" d="M243 180q30 0 53.5 -16.5t35 -48t9 -74.5t-24 -95.5t-64 -112.5t-107.5 -122l-60 51q45 49 71.5 92.5t35 79.5t4 63t-18.5 46q-11 14 -15.5 30t-2.5 31.5t9 29t18 24t25.5 16.5t31.5 6z" />
<glyph unicode="&#x201c;" horiz-adv-x="813" d="M723 1475q-45 -49 -71 -92.5t-34.5 -78.5t-4.5 -62t18 -46q11 -15 15.5 -31t3 -32t-8.5 -29.5t-18 -24t-26 -16.5t-32 -6q-30 0 -53 17t-35 48t-9 74.5t24 96t64 113t108 122.5zM375 1475q-45 -49 -70.5 -92.5t-34 -78.5t-4 -62t18.5 -46q16 -22 17.5 -46.5t-9 -45.5 t-30 -34t-44.5 -13q-30 0 -53.5 17t-35.5 48t-9 74.5t24 96t64 113t108 122.5z" />
<glyph unicode="&#x201d;" horiz-adv-x="813" d="M590 1516q30 0 53.5 -17t35.5 -48t9 -74t-24 -96t-64 -112.5t-108 -121.5l-58 51q45 48 70.5 91.5t34 79.5t4 63t-18.5 46q-10 15 -14.5 31t-2.5 31.5t8.5 29t17.5 24t25.5 16.5t31.5 6zM244 1516q30 0 52.5 -17t34.5 -48t9 -74.5t-24 -96t-63.5 -112t-107.5 -121.5 l-59 51q45 48 71 92t34.5 79.5t4 62.5t-19.5 46q-10 15 -14.5 31t-2.5 31.5t9 29t18 24t26 16.5t32 6z" />
<glyph unicode="&#x201e;" horiz-adv-x="813" d="M590 180q30 0 53.5 -16.5t35.5 -48t9 -74.5t-24 -95.5t-64 -112.5t-108 -122l-58 51q45 49 70.5 92.5t34 79.5t4 63t-18.5 46q-10 14 -14.5 30t-2.5 31.5t8.5 29t17.5 24t25.5 16.5t31.5 6zM244 180q30 0 52.5 -16.5t34.5 -48t9 -74.5t-24 -95.5t-63.5 -112.5 t-107.5 -122l-59 51q45 49 71 92.5t34.5 79.5t4 63t-19.5 46q-10 14 -14.5 30t-2.5 31.5t9 29t18 24t26 16.5t32 6z" />
<glyph unicode="&#x2020;" horiz-adv-x="905" d="M502 1176l28 -215l-32 -508h-90l-31 508l26 215h-294v100h294l-26 283h153l-28 -283h295v-100h-295z" />
<glyph unicode="&#x2021;" horiz-adv-x="905" d="M504 618l26 -278h-155l28 278h-294v101h294l-26 229l26 232h-294v100h294l-26 279h153l-26 -279h293v-100h-293l26 -232l-26 -229h293v-101h-293z" />
<glyph unicode="&#x2022;" horiz-adv-x="858" d="M637 608q0 -42 -16 -80t-45 -66.5t-67.5 -44.5t-80.5 -16t-80 16t-66.5 44.5t-44.5 66.5t-16 80t16 80t44.5 66.5t66.5 44.5t80 16t80.5 -16t67.5 -44.5t45 -66.5t16 -80z" />
<glyph unicode="&#x2026;" horiz-adv-x="1276" d="M1137 82q0 -20 -7.5 -37.5t-21 -31.5t-31.5 -21.5t-39 -7.5q-19 0 -37 7.5t-32 21.5t-21.5 32t-7.5 37q0 20 7.5 38t21.5 31.5t31.5 21t37.5 7.5q21 0 39 -7.5t31.5 -21t21 -31.5t7.5 -38zM723 82q0 -20 -7.5 -37.5t-21 -31.5t-31.5 -21.5t-38 -7.5t-37.5 7.5t-31 21.5 t-21 31.5t-7.5 37.5t7.5 38t21 31.5t31 21t37.5 7.5t38 -7.5t31.5 -21t21 -31.5t7.5 -38zM309 82q0 -20 -7.5 -37.5t-21 -31.5t-31.5 -21.5t-38 -7.5q-19 0 -37 7.5t-31 21.5t-20.5 31.5t-7.5 37.5t7.5 38t20.5 31.5t30.5 21t37.5 7.5t38 -7.5t31.5 -21t21 -31.5t7.5 -38z " />
<glyph unicode="&#x2030;" horiz-adv-x="2063" d="M1935 305q0 -78 -22 -138t-60.5 -100.5t-89 -62t-108.5 -21.5q-57 0 -104.5 16t-82 51t-53 90.5t-18.5 133.5q0 76 22.5 136t60.5 101t88.5 62t107.5 21q56 0 103.5 -15.5t82.5 -50t54 -90t19 -133.5zM1295 305q0 -78 -22 -138t-60.5 -100.5t-88.5 -62t-108 -21.5 q-57 0 -105 16t-82 51t-52.5 90.5t-18.5 133.5q0 76 22 136t60.5 101t88.5 62t107 21t104.5 -15.5t82 -50t53.5 -90t19 -133.5zM195 -29l-82 65l1090 1324l85 -67zM644 1059q0 -77 -22 -137t-60 -101.5t-88.5 -62.5t-107.5 -21q-58 0 -105.5 16t-81.5 51t-53 90.5t-19 134.5 q0 76 22.5 136t60.5 100.5t88 62t107 21.5t104.5 -16t82 -50t53.5 -89.5t19 -134.5zM1820 291q0 50 -8.5 89t-26.5 65.5t-47 40t-70 13.5q-37 0 -66 -15t-49 -42.5t-30.5 -66.5t-10.5 -86q0 -52 8.5 -91.5t26.5 -66.5t47 -40t70 -13q37 0 66 15.5t48.5 43t30.5 66.5t11 88z M1181 291q0 50 -8.5 89t-26.5 65.5t-47 40t-71 13.5q-37 0 -66 -15t-49 -42.5t-30.5 -66.5t-10.5 -86q0 -52 8.5 -91.5t26.5 -66.5t47 -40t70 -13q37 0 66 15.5t49 43t31 66.5t11 88zM530 1045q0 51 -8.5 90t-26.5 65.5t-47 40t-70 13.5q-37 0 -66 -15.5t-49.5 -42.5 t-31 -66.5t-10.5 -87.5q0 -51 8.5 -90.5t26.5 -66t47 -40t71 -13.5q36 0 65 15t49.5 43t31 67.5t10.5 87.5z" />
<glyph unicode="&#x2039;" horiz-adv-x="643" d="M379 256l-250 346l252 350l92 -59l-211 -289l211 -285z" />
<glyph unicode="&#x203a;" horiz-adv-x="643" d="M260 256l-90 61l211 289l-209 285l92 61l250 -344z" />
<glyph unicode="&#x2044;" horiz-adv-x="434" d="M-356 -274l-93 61l1293 1851l90 -61z" />
<glyph unicode="&#x2070;" horiz-adv-x="901" d="M803 1184q0 -104 -25.5 -187t-73.5 -140.5t-116 -87.5t-152 -30q-78 0 -140.5 26t-106.5 79t-67.5 132.5t-23.5 184.5q0 104 25.5 187t73.5 140.5t116 87.5t152 30q78 0 140.5 -26t106.5 -78.5t67.5 -132t23.5 -185.5zM676 1171q0 83 -16 146t-45.5 105.5t-70.5 63.5 t-91 21q-52 0 -94 -21.5t-72 -63.5t-46 -103.5t-16 -138.5q0 -85 16 -149.5t45.5 -107t70.5 -64t92 -21.5t93 22t72 64.5t46 105t16 141.5z" />
<glyph unicode="&#x2074;" horiz-adv-x="762" d="M567 954v-114q37 -3 71.5 -9.5t74.5 -17.5v-59h-424v59q38 10 79 17t81 10v114h-396l-8 84l356 553h166v-534h146v-103h-146zM449 1493l-283 -442q27 1 65 2t78 1.5t72.5 0.5h67.5v438z" />
<glyph unicode="&#x20ac;" d="M35 467v92h177q-1 15 -1.5 30.5t-0.5 32.5q0 34 1.5 67.5t3.5 66.5h-180v90h192q17 109 57.5 201t106 159.5t157 105t213.5 38.5h16q18 0 54.5 -3.5t74 -9.5t75 -15t73.5 -21v-258h-79q-9 40 -13.5 80.5t-6.5 81.5q-50 21 -102.5 30.5t-116.5 9.5q-85 0 -152 -29 t-112.5 -84.5t-72 -126t-37.5 -159.5h400v-90h-410q-3 -29 -3.5 -58t-0.5 -59v-33.5t2 -46.5h412v-92h-400q14 -85 46 -155t81 -119t117.5 -75.5t154.5 -26.5q77 0 154 19t142 56l30 -93q-37 -22 -78 -39t-85.5 -28t-91.5 -17t-97 -6q-108 0 -196 31.5t-153 93t-107.5 152 t-58.5 207.5h-185z" />
<glyph unicode="&#x2122;" horiz-adv-x="1657" d="M1266 801v59q16 5 38 10t50 9l-41 270l-17 117l-26 -99l-115 -366h-119l-110 370l-27 95l-6 -76l-49 -311q27 -4 50 -8.5t42 -10.5v-59h-285v59q20 6 43.5 10.5t50.5 8.5l68 426q-27 3 -51 7.5t-45 10.5v59h254l106 -362l25 -98l20 86l117 374h248v-59q-19 -6 -43 -10.5 t-49 -7.5l65 -426q27 -4 50.5 -8.5t43.5 -10.5v-59h-288zM563 1163q-6 39 -11.5 76.5t-8.5 63.5h-121v-420q30 -3 62 -9t57 -14v-59h-344v59q26 8 57 14t59 9v420h-118q-4 -32 -10 -69t-13 -71h-66v219h525v-219h-68z" />
<glyph unicode="&#x2202;" horiz-adv-x="1309" d="M1143 850q0 -88 -9.5 -177t-30 -176t-54 -166.5t-80.5 -144.5q-32 -44 -73.5 -81t-91.5 -64t-107.5 -42t-118.5 -15q-99 0 -175 29t-127.5 83.5t-77.5 132t-26 174.5q0 101 34.5 189.5t98.5 154t152.5 102t193.5 36.5q67 0 124.5 -17t103 -49t78 -75t51.5 -95 q3 100 3.5 127.5t0.5 67.5q-1 140 -37.5 245.5t-101 175t-151.5 103t-190 31.5l11 104q137 -2 248 -46.5t189.5 -128.5t120.5 -204.5t42 -273.5zM940 487q0 62 -19.5 114.5t-58.5 92t-96 61t-129 21.5t-134 -27.5t-106.5 -77t-69 -115.5t-24.5 -140q0 -80 21 -140.5t60 -101 t91.5 -60.5t116.5 -20q74 0 138 30t111 84t73 126t26 153z" />
<glyph unicode="&#x220f;" horiz-adv-x="1606" d="M1279 1382v-1895h-129v1895h-694v-1895h-129v1895h-229v113h1409v-113h-228z" />
<glyph unicode="&#x2211;" horiz-adv-x="1249" d="M74 -513v99l659 922l-619 888v99h982v-113h-818l609 -869l-654 -908h892v-118h-1051z" />
<glyph unicode="&#x2212;" d="M90 554v110h946v-110h-946z" />
<glyph unicode="&#x221a;" horiz-adv-x="1233" d="M667 0h-148l-324 917h-194v101h296l215 -636q22 -64 42.5 -129t39.5 -129h4q16 62 31 121.5t33 116.5l349 1190h138z" />
<glyph unicode="&#x221e;" horiz-adv-x="1982" d="M1847 618q0 -65 -24 -124t-69.5 -104.5t-111 -71t-145.5 -25.5q-62 0 -125.5 19t-126.5 51.5t-124.5 74.5t-133.5 97q-74 -55 -133 -95.5t-122.5 -74t-128 -53t-126.5 -19.5q-84 0 -148.5 24t-107 67t-63.5 99.5t-21 120.5q0 66 24 125t69 104.5t109.5 71t143.5 25.5 q63 0 128 -19t128.5 -52t125 -74.5t132.5 -96.5q74 55 133.5 95.5t122.5 74t126.5 53t125.5 19.5q84 0 148.5 -24.5t107.5 -67.5t64.5 -99.5t21.5 -120.5zM1712 608q0 46 -14 84.5t-42 66.5t-68.5 43t-92.5 15q-43 0 -90.5 -15.5t-97 -43t-99.5 -62.5t-112 -82 q67 -51 115.5 -85t98.5 -62.5t99.5 -44.5t95.5 -16q48 0 87 16t66 44t40.5 64.5t13.5 77.5zM889 608q-66 50 -116 85t-100 63.5t-99 44.5t-95 16q-49 0 -88 -16t-66 -44t-41 -65t-14 -78q0 -45 14 -83t42 -66t69 -43.5t94 -15.5q43 0 90.5 15.5t97 43t99.5 62t113 81.5z" />
<glyph unicode="&#x222b;" horiz-adv-x="686" d="M653 1376q-22 8 -52.5 13.5t-55.5 5.5q-47 0 -78 -15.5t-50.5 -56.5t-28.5 -116.5t-9 -196.5q0 -76 1.5 -150t3 -129.5t5 -168t5.5 -193.5t3.5 -177t1.5 -202q0 -144 -18 -243.5t-54.5 -160.5t-91.5 -88.5t-131 -27.5q-25 0 -52.5 2.5t-49.5 7.5v119q22 -7 51.5 -12 t55.5 -5q46 0 76.5 15t50 54.5t29 112.5t9.5 189q0 99 -2.5 186.5t-8 256.5t-8.5 301.5t-3 285.5q0 144 18.5 244t55.5 161t92 89t131 28q25 0 51.5 -4t52.5 -10v-115z" />
<glyph unicode="&#x2248;" d="M1020 760q-22 -22 -48 -41t-57 -34t-67 -23.5t-76 -8.5q-48 0 -87 8.5t-69 21t-69.5 33t-65 32t-60 20t-75.5 8.5q-31 0 -60.5 -8t-54 -21t-44 -27.5t-37.5 -29.5l-44 94q23 21 49 39.5t57 33.5t67 23.5t75 8.5q45 0 84 -8.5t70 -21.5t73 -34.5t68 -33.5t59.5 -20.5 t71.5 -8.5q52 0 97.5 22.5t99.5 69.5zM1020 426q-23 -19 -49 -35.5t-57 -30.5t-67 -22t-75 -8q-48 0 -87 8.5t-69 21t-70 33t-65.5 32t-59.5 20t-75 8.5q-31 0 -60 -8.5t-54 -21.5t-44.5 -26.5t-37.5 -29.5l-44 94q24 21 49.5 39t56 32.5t66 23.5t74.5 9q45 0 83.5 -8.5 t69.5 -21.5t72.5 -34.5t68 -33.5t61 -20.5t73.5 -8.5q52 0 97.5 20t99.5 62z" />
<glyph unicode="&#x2260;" d="M530 393l-124 -309h-113l125 309h-303v111h346l84 211h-430v108h473l129 320h114l-129 -320h310v-108h-353l-86 -211h439v-111h-482z" />
<glyph unicode="&#x2264;" d="M901 233l-780 494l778 498l68 -92l-650 -404l650 -395zM135 0v109h856v-109h-856z" />
<glyph unicode="&#x2265;" d="M227 233l-67 93l649 403l-649 395l65 101l781 -494zM135 0v109h856v-109h-856z" />
<glyph unicode="&#x25ca;" horiz-adv-x="1257" d="M678 -16h-82l-510 716l498 699h75l512 -715zM618 1257l-391 -552l414 -576l391 545z" />
<glyph unicode="&#x25fc;" horiz-adv-x="1020" d="M0 1020h1020v-1020h-1020v1020z" />
<glyph unicode="&#xf6c9;" horiz-adv-x="772" d="M225 1499l-30 78l335 152l48 -111z" />
<glyph unicode="&#xf6ca;" horiz-adv-x="1020" d="M508 1495l-313 166l45 84l270 -131l274 131l41 -82z" />
<glyph unicode="&#xf6cb;" horiz-adv-x="1001" d="M807 1593q0 -19 -6.5 -35t-19 -28t-28.5 -18.5t-34 -6.5t-34 6.5t-28.5 18.5t-19 28t-6.5 35q0 18 6.5 34t19 28.5t28.5 19t34 6.5t34 -6.5t28.5 -19t19 -28.5t6.5 -34zM371 1593q0 -19 -6.5 -35t-18.5 -28t-28 -18.5t-35 -6.5t-35 6.5t-28 18.5t-18.5 28t-6.5 35 q0 18 6.5 34t18.5 28.5t28.5 19t34.5 6.5q19 0 35 -6.5t28 -19t18.5 -28.5t6.5 -34z" />
<glyph unicode="&#xf6ce;" horiz-adv-x="772" d="M547 1499l-352 119l47 111l336 -152z" />
<glyph unicode="&#xf6cf;" horiz-adv-x="1061" d="M600 1497l-68 66l248 235l86 -84zM262 1497l-67 66l215 237l86 -82z" />
<glyph unicode="&#xf6d0;" horiz-adv-x="930" d="M195 1542v98h540v-98h-540z" />
<glyph unicode="&#xf8ff;" horiz-adv-x="2129" d="M1628 1259q-6 6 -11.5 12t-10.5 12t-11 11.5t-13 11.5l153 164q16 -14 31 -28.5t28 -31.5zM1846 709q1 16 1 33t-1 31l227 11q1 -22 1 -43t-1 -43zM1099 1485q-18 1 -34.5 1t-32.5 -1l-9 225h44h41zM548 1304q-7 -5 -13 -10.5l-12 -11t-11.5 -11t-11.5 -10.5l-165 152 q15 16 29 30.5t31 28.5zM1539 740q0 -54 -11 -103t-30 -92t-44.5 -78.5t-54.5 -62.5v-155l-33 -10l63 -151l-60 -14l60 -144l-60 -15l22 -53l-58 -131h-97q-2 -19 -16.5 -34.5t-37.5 -27t-52.5 -18t-63.5 -6.5q-35 0 -65.5 6.5t-53.5 18.5t-36.5 27t-15.5 34h-97l-96 234 l61 17l-61 150l67 17l-39 95v159q-29 29 -54 65.5t-44.5 80t-30 92t-10.5 99.5q0 98 37 184.5t101 151.5t150.5 102t186.5 37q97 0 183 -37t151 -102t102 -151.5t37 -184.5zM55 698v43.5v42.5l228 -11v-32v-32zM1087 772q5 0 5 10.5t-5 10.5q8 -11 0 -21zM1085 786 q-5 0 -4.5 -1.5t1.5 -3t1.5 -2.5t-2.5 -1v-2q5 0 5.5 1t-0.5 2.5l-2 3t1 1.5v2zM1077 782q0 3 -2.5 4t-5.5 -2q2 0 3 0.5t3 -2.5q-2 0 -4 -1.5t-2 -3t1 -1.5t5 2v-2h2v6zM1069 772q-6 10 0 21q-5 0 -5 -10.5t5 -10.5zM1461 740q0 82 -31 155t-84.5 126.5t-126 85 t-153.5 31.5q-83 0 -155 -31.5t-126 -85t-85.5 -126.5t-31.5 -155q0 -86 35 -165.5t105 -138.5h134l-31 293q-21 -5 -40.5 -10.5t-36.5 -10.5q-8 -2 -13.5 1.5t-9 10.5t-5.5 16t-1.5 17t3 13.5t7.5 8.5q60 19 123 31t128 12q64 0 127.5 -12t122.5 -31q5 -3 7.5 -8.5t3 -13.5 t-1.5 -17t-5.5 -16t-9 -10.5t-13.5 -1.5q-17 5 -36.5 10.5t-41.5 10.5l-30 -293h134q27 24 52 56t44 70.5t30.5 83t11.5 94.5zM1061 778q-3 -2 -3 3t3 3v2q-5 2 -5.5 -5t5.5 -5v2zM1053 786h-2v-6q0 -3 -1 -2.5t-1 2.5v6h-2v-6q0 -5 3 -4t3 4v6zM1044 778h-4v13h-2v-15h6v2z M1161 740q-18 4 -42.5 6t-52.5 2t-53 -2t-43 -6l28 -304h135zM1328 374h-525v-123l35 -84l490 124v83zM1297 222l-503 -130l37 -92l505 126zM1299 55l-505 -128l56 -136h433l32 75l-16 33l-159 -40l-22 55l219 55z" />
<glyph unicode="&#xfb00;" horiz-adv-x="1341" />
<glyph unicode="&#xfb01;" horiz-adv-x="1245" />
<glyph unicode="&#xfb02;" horiz-adv-x="1243" />
<glyph unicode="&#xfb03;" horiz-adv-x="1868" />
<glyph unicode="&#xfb04;" horiz-adv-x="1868" />
<glyph horiz-adv-x="1966" d="M1802 1169q0 -8 -4 -8q-22 3 -43 0.5t-43 -4.5q-35 -2 -61 -3t-47.5 -2.5t-39.5 -3.5t-36 -5q-8 -7 -10.5 -15.5t-3.5 -17t-2 -17.5t-5 -18q0 -9 3.5 -16t5.5 -15q5 -6 12.5 -9t15.5 -5q14 2 27.5 8t19.5 19q0 8 -4 13.5t-10 10.5q-5 4 -10.5 5t-11 1t-10.5 1.5t-9 7.5 q6 10 19.5 8t25.5 -2q11 -3 18.5 -12t12.5 -21q-2 -17 -12 -30.5t-25 -24.5q-11 -3 -21.5 -5t-21.5 -5q-25 6 -51 16t-41 33q-4 12 -3.5 23t2 22t4 22t3.5 23q-5 9 -13.5 7.5t-17.5 0.5l-67 -2q0 3 -2.5 4t-2.5 4q7 5 15 4.5t14 1.5q19 -3 39 -1.5t39 1.5q8 6 9 16t1 19 q6 14 7 32.5t12 29.5q5 3 9 2t7 -4t6 -7t6 -6q6 -8 6.5 -16.5t0.5 -18.5v-20t4 -19q4 -6 9.5 -7.5t11.5 -1l12 1t12 -0.5q24 1 48 1.5t52 1.5t60 3t71 7q3 -2 4.5 -2.5t3.5 -4.5zM1327 1028q-25 0 -52.5 -1t-51.5 -9q-8 3 -15 5t-12 11q5 28 7.5 57.5t-5.5 57.5 q-5 6 -13.5 0.5t-15.5 -8.5q-14 -9 -28 -19t-26 -22t-20 -26.5t-10 -31.5q-8 -8 -18.5 -11.5t-19.5 1.5q-6 7 -6.5 15t0 16t1.5 16.5t-2 16.5l-2 63q-6 6 -16 3.5t-21 0.5q-2 1 -6 1.5t-7.5 1t-6 2t-2.5 6.5q26 -2 52.5 2.5t53.5 -0.5q6 -6 6.5 -14t0 -16.5t1.5 -15.5 t11 -10q28 13 53.5 30t52.5 28q6 -4 14 -4h15t12.5 -2.5t8.5 -12.5q5 -22 3.5 -43.5t0.5 -44.5q3 -6 2.5 -12.5t5.5 -11.5q8 -2 14 -3t12 3q8 0 16 -2.5t19 -2.5q2 -2 2.5 -4.5t-2.5 -5.5zM915 1145q8 -38 -14 -64q-11 -7 -21 -15.5t-20 -16.5t-21 -14t-24 -7q-6 2 -9 -0.5 t-5 -6t-4.5 -5.5t-8.5 2q-11 8 -24.5 4t-26.5 -2q-12 0 -22 0.5t-21 5.5q-8 7 -16 14.5t-14.5 16.5t-9 20t2.5 23q7 18 18.5 34t31.5 27q21 11 44.5 22t51.5 5q16 -1 33 -2.5t32 -6t27 -12.5t20 -22zM926 1360q-11 -13 -27.5 -17.5t-32.5 0.5q-9 13 -17.5 24.5t-10.5 25.5 q-13 21 -31.5 32.5t-40 18.5t-44.5 11.5t-44 10.5l-64 4q-5 -5 -12.5 -3t-13.5 -1q-35 -11 -61.5 -20.5t-51.5 -22.5q-6 -8 -15 -14t-17 -12.5t-15 -14.5t-8 -20q-13 -31 -17 -69.5t-6 -73.5q10 -8 22 -5.5t23 0.5q44 5 87 5h89q4 -2 4.5 -7t-1.5 -8q-9 -6 -16.5 -5t-15.5 4 t-15.5 5.5t-16.5 -0.5q-20 2 -42 -1t-42 -1q-18 -3 -38 -4t-36 -10l-6 -8q-2 -19 -2 -34v-29.5t1 -30t3 -35.5q1 -7 0.5 -14.5t-0.5 -14.5t1.5 -14.5t6.5 -14.5q26 -2 41.5 -1.5t29 2t29.5 3.5t42 3q6 5 13 2t13 -5q2 -2 1 -4t1 -4l-8 -4q-24 4 -42.5 3.5t-37.5 -3t-41 -4.5 t-53 0q-22 -2 -46.5 -4t-47.5 0q-32 -2 -67 -2t-64 8l-4 6q3 3 8 6t10 5q16 -8 37 -10t43 -5q14 2 28 1t25 7q-1 26 2 49t6.5 45t8 45.5t6.5 51.5q-2 4 -6 8q-31 1 -59 -0.5t-56 10.5q-2 5 0.5 8t5.5 3q28 -8 57.5 -8.5t57.5 1.5l4 7q5 34 11.5 70.5t19.5 64.5v6 q46 54 107 86.5t136 40.5q38 5 75 -4t69 -23q9 -3 20 -3t21 -5q35 -8 69.5 -24.5t57.5 -47.5q3 -3 2.5 -8t-2.5 -10zM1571 -127q-23 1 -48.5 -1t-52 -4.5t-51.5 -4t-47 1.5q-57 2 -112.5 -1t-110.5 -7t-110 -5t-111 5q-51 -8 -99 -3.5t-98 9.5q-60 5 -122.5 3.5t-125.5 -1.5 q-21 0 -47.5 -0.5t-54.5 -2.5t-54.5 -5t-47.5 -9q-8 -2 -17 -1.5t-14 10.5q0 32 -2.5 66.5t8.5 66.5q3 40 1.5 81.5t4.5 82.5q-4 23 -3.5 45.5t2 45t2.5 45.5t-3 46q0 66 5.5 132.5t8.5 135.5q5 74 2 146.5t0 146.5q4 9 10.5 11t13.5 2t15 -0.5t15 1.5q8 -5 18 -5.5 t19.5 0.5t19.5 2.5t18 0.5q7 7 16 11.5t11 -9.5q3 -5 0.5 -12t5.5 -12q-4 -29 -3 -78.5t4 -107t7 -117t7 -109.5q32 10 61.5 25t58 31.5t57 32t60.5 26.5q11 5 20 12t23 12q3 2 8 7t13 0q10 -5 8 -15.5t-2 -19.5q-10 -28 -12.5 -61t2.5 -64q5 -9 13.5 -5.5t14.5 3.5 q17 14 35 23t35 22q20 12 41 23.5t43 19.5q25 17 48.5 33.5t49.5 25.5l41 33q3 8 12 14q7 0 12 -3.5t11 -8.5q0 -29 6 -58.5t6 -58.5q2 -6 6 -4.5t6 -3.5q8 -11 3.5 -21.5t-7.5 -19.5l4 -4q35 8 65 26.5t59.5 39t59 39t64.5 26.5q10 9 22 12.5t23 14.5q10 1 19 8.5t18 14 t19 8.5t22 -7q3 0 7.5 -1.5t6.5 -6.5q-2 -8 2 -13t7 -11q-2 -8 -1.5 -15.5t1 -14t0.5 -13.5t-4 -13q1 -13 0 -26t-1 -25.5t2.5 -24t8.5 -22.5q-2 -7 0.5 -13t4.5 -12t2.5 -11.5t-3.5 -10.5q2 -16 0.5 -29.5t7.5 -25.5q2 -10 3 -19.5t-5 -17.5q5 -23 5.5 -47.5t8.5 -47.5 q-5 -8 -2.5 -16t2.5 -16q0 -39 3.5 -76t8 -74t8.5 -74.5t5 -76.5q0 -3 2.5 -8.5t-0.5 -10.5zM870 1104q-5 22 -16 43.5t-37 26.5q-3 -11 -12.5 -8.5t-16.5 1.5q-14 7 -28.5 3t-24.5 -15q-11 -15 -11.5 -30t5 -29.5t14 -28.5t17.5 -27q3 -8 9.5 -6t14.5 0q14 -5 26.5 2.5 t25.5 12.5q6 6 13.5 11.5t13.5 11.5t8.5 13.5t-1.5 18.5zM1513 -20l-16 34t-20 31q-13 22 -27.5 42t-17.5 46q-5 9 -10.5 17.5t-2.5 17.5q14 17 34 27.5t34 25.5l-19 35q-18 -2 -33 -8.5t-30 -11.5q-4 -3 -8.5 -7t-9.5 -6.5t-10.5 -2.5t-10.5 5q2 41 3 81.5t-1 78.5l-4 6 q-16 0 -28.5 5t-26.5 10q-3 -23 -6.5 -48.5t0.5 -50.5q-3 -8 -3 -18.5t1 -21t1 -21t-4 -19.5q2 -32 0.5 -57t-3 -49t-2 -49t2.5 -56l-2 -14h49q7 2 13.5 -2t11.5 2v28t-2 29q1 8 -1.5 17t-3.5 17t1.5 14.5t13.5 9.5q11 -5 11.5 -14t7.5 -17q-1 -7 1.5 -13t6 -11.5l7 -11 t5.5 -11.5q10 -6 17 -14.5t13.5 -18t13.5 -19t16 -16.5q6 2 11.5 -2.5t14.5 -1.5q5 0 8.5 4t3.5 9zM1245 367q-3 9 -8 17t-16 13q-5 5 -11.5 6t-9.5 -6q-9 -12 -13 -30.5t5 -30.5q3 -11 15.5 -12t23.5 4q9 6 12.5 17t1.5 22zM1249 31q0 40 -2 79t-2 76q0 14 1.5 27.5 t-1.5 26.5q-7 5 -14 5.5t-14 -1t-14.5 -3.5t-14.5 -1q-7 -12 -9 -24.5t-1.5 -25.5t1 -26.5t-0.5 -26.5q-5 -11 -5 -25t-2 -28q3 -10 2.5 -21.5t-0.5 -23.5t2 -23.5t9 -21.5q15 0 31 2.5t30 7.5q3 6 3.5 13.5t0.5 13.5zM1147 252q-16 -2 -33.5 -5t-28.5 -22q-4 -4 -5.5 -10.5 t-4 -13t-7 -10t-13.5 -1.5q-5 16 -4.5 29.5t0.5 30.5q-4 2 -8 1.5t-8 -1.5t-7.5 -1.5t-7.5 1.5q-9 -5 -14.5 -12t-8.5 -15q0 -60 1 -114t8 -113l6 -8q5 -4 11.5 -4t13 1t12 2t10.5 -1q-3 11 -2.5 21.5t1.5 21t1 20.5t-4 21q5 23 11 46.5t21 43.5q13 9 27 12t27 14 q2 17 6.5 33t-0.5 33zM938 61q9 18 12 36t1.5 37t-5.5 38t-8 39q1 6 -5.5 11.5t-15.5 11t-18 9.5t-12 7t-9 3.5t-8 -5.5q-22 3 -39 -8q-11 -7 -15.5 -16.5t-12.5 -14.5q-5 -3 -10.5 -1t-8.5 7q8 37 4 75t-10 77l-4 14h-16q-9 -3 -12.5 -9t-4 -13.5t-0.5 -15t-2 -13.5 q-6 -34 -4 -69.5t-4 -70.5q3 -34 0 -67t0 -64q0 -18 -3 -35.5t-1 -37.5q14 -8 32 -2t32 12q10 4 16.5 1.5t11.5 -8t10 -12t11 -10.5h13t13 2q11 6 24 17t24 23.5t18 26t6 25.5zM682 70q-7 22 -6.5 45t1 45t-1.5 43.5t-13 40.5q-26 15 -48 24l-16 11q-9 -2 -17.5 -1.5 t-17 0.5t-17 -2t-16.5 -8q-14 -8 -14 -22.5t-2 -30.5q11 -5 24 -3.5t25.5 2.5t23.5 -1.5t19 -15.5q-1 -4 0.5 -7l3 -6t1.5 -5.5t-3 -6.5q-2 -3 -2.5 -8t4.5 -8q3 -5 1.5 -11t-7.5 -8q-14 -5 -28 -4t-29 -2q-23 -9 -34.5 -31.5t-16.5 -44.5q-3 -5 -3 -10.5t1 -11t1.5 -11 t-3.5 -10.5q0 -14 9.5 -22t20.5 -13q3 4 7.5 7t9.5 -2q8 -3 15.5 0t14.5 8.5t14 12t15 11.5q11 2 13 -2t1.5 -11t-1 -15t4.5 -13q10 -5 17 -0.5t16 4.5q8 4 16.5 5.5t14.5 7.5zM508 371q-25 5 -53 3.5t-54 -3.5q-15 -2 -29.5 -5.5t-25.5 -11.5q-2 -32 -6.5 -66.5t-7.5 -66.5 q5 -54 3 -111.5t1 -113.5q8 0 15 2.5t14 -0.5q12 3 23 -1.5t24 1.5q2 32 2 64.5t2 64.5q5 11 14 15.5l19 9.5q4 2 8 1.5l8 -1t7.5 0t6.5 5.5l-2 57q-8 9 -19 8.5t-24 -0.5q-3 -3 -6 -5.5t-8 -2.5q-8 1 -11 6.5t-4 12t-1 14t-3 12.5q-3 6 0.5 11t8.5 10q20 6 39.5 9.5 t39.5 6.5l13 8q-3 19 1.5 34t4.5 32zM881 158q14 -29 7.5 -60t-26.5 -53q-5 -8 -11.5 -9.5t-12.5 -4.5q-13 1 -19.5 8.5t-9.5 17.5t-4.5 21t-3.5 20q5 16 6 34t10 32q7 4 11.5 10l9 12t9.5 10.5t13 4.5l6 -6q-2 -7 -0.5 -12t5 -8.5t6.5 -7.5t4 -9zM604 86q0 -15 -9 -26.5 t-20 -20.5q-8 -2 -15.5 -8t-18.5 0q-7 1 -9 5.5t-1 9.5t3 11t3 11q0 6 5 11.5t13 8.5q12 0 20 8q7 -2 15.5 -1.5t13.5 -8.5z" />
<glyph horiz-adv-x="2345" d="M1897 -70q-9 -12 -22.5 -16.5t-28 -6t-28.5 -4t-25 -9.5q-17 -2 -33.5 -4.5t-31.5 -8.5t-27 -16.5t-19 -28.5q-8 -21 -19.5 -40.5t-21.5 -39.5t-15.5 -41.5t-0.5 -46.5q2 -9 8.5 -12.5t14.5 -4t16 1t14 3.5q4 0 7 3l6 6t7 4.5t9 -1.5q9 -6 1 -12.5t-11 -13.5 q-17 -11 -37.5 -15.5t-40.5 4.5q-16 16 -24.5 34t-2.5 40q1 8 5 19.5t12.5 29.5t21.5 43t33 60q-16 7 -32 6t-32.5 -4.5t-32.5 -5.5t-32 4q9 12 25 17.5t30 10.5q13 3 28 3t29 1.5t26 6.5t20 18q7 11 8.5 22.5t1.5 23t-1 24t1 24.5q-11 3 -10.5 11.5t0.5 13.5 q-12 23 -30 34.5t-40 17t-44.5 6t-43.5 1.5q-23 -2 -45 -11t-41 -23.5t-34 -33t-23 -38.5q-14 -32 -11 -65.5t17 -67.5q-4 -25 5.5 -47t20 -44.5t16 -46t-6.5 -51.5q-11 -9 -26 -8t-28 6q-14 7 -21 19t-10.5 26.5t-6 29t-7.5 27.5q9 6 11.5 15.5t3.5 19.5t2.5 19.5t7.5 17.5 q3 11 1.5 27t-15.5 22q-18 -2 -38 -2.5t-39.5 -2t-37.5 -6.5t-33 -17q2 -22 5 -45.5t2 -46t-9.5 -42t-28.5 -34.5q-12 -3 -24 -0.5t-25 8.5q-11 9 -14.5 20t-4 23.5t1 25.5t1.5 25q7 15 14.5 32t16.5 32.5t21 28t30 18.5q15 -10 33.5 -6.5t33.5 8.5l101 2q4 4 6 11t2.5 14 t1 14.5t2.5 13.5q9 29 26 56.5t39.5 48.5t50.5 35t60 16q34 3 67 1t64 -18q1 -11 8 -16.5t15 -10t15 -10t9 -16.5q9 -15 12 -32.5t2 -35.5t-5 -36.5t-7 -34.5q47 0 91.5 8t86.5 16zM1066 -111q-9 -6 -17 -3t-16.5 7.5t-17 7.5t-17.5 -3q-14 -9 -19.5 -22t-9 -26.5 t-7.5 -26.5t-13 -24q-3 -28 -9.5 -54t-6.5 -52q-6 -3 -12.5 -7t-16.5 -1q-6 7 -7 17t0.5 19.5t3.5 19t1 17.5q8 9 10 21t2 24t0.5 23.5t6.5 21.5q-7 11 -6 26.5t-3 25.5q-5 1 -8.5 -0.5t-6.5 -3.5t-7 -2.5t-8 4.5q3 12 10 20t18 16q17 0 25 -12t14 -24q8 3 15 12t15 16 t16.5 9t19.5 -9zM794 -18q-1 -51 1.5 -103t4 -103.5t-1 -101.5t-14 -97t-34 -90t-61.5 -81q-65 -40 -143.5 -49.5t-153.5 10.5q-8 5 -16 12.5t-8 16.5q5 20 12.5 40.5t32.5 28.5q-6 -17 -14 -33t-11 -34q26 -17 59.5 -23t68.5 -3.5t69 12t61 24.5q29 10 46 28.5t28 41 t18.5 47t18.5 45.5q6 36 9 75.5t4.5 79t0.5 76.5t-2 68q4 11 3.5 23.5t-2 25.5t-2.5 25.5t1 23.5q-3 11 -12 7.5t-13 -5.5q-8 -8 -13 -17t-9.5 -18t-9.5 -17.5t-13 -14.5q3 -15 -4 -24t-16 -16.5t-17 -15.5t-8 -22q-42 -47 -77.5 -95t-69.5 -98q-8 -12 -14.5 -24t-22.5 -10 q-10 13 -11.5 28.5t0.5 31t4 32t-1 32.5q10 34 18.5 72t34.5 72q19 49 52.5 97t82.5 79q14 4 26.5 2t24 -7.5t22 -13t21.5 -14.5q10 11 16 24t9 25q25 -9 25 -41q-6 -5 -6 -8.5t2 -7.5t3.5 -8.5t0.5 -9.5zM1455 428q-36 -5 -71 -16t-69.5 -21t-69.5 -16.5t-72 -3.5 q-7 -6 -10.5 -23t-1.5 -33.5t11 -26.5t27 -3q6 8 9 23t16 20q9 -19 2.5 -36.5t-19.5 -31.5q-6 -4 -21 -4.5t-29.5 8.5t-23.5 31.5t-4 64.5q-5 7 -10 13.5t0 15.5q12 9 17.5 20t7.5 23t3 25t3 26q-3 2 -4 4.5t-4 4.5q-18 -12 -30.5 -27.5t-23 -32t-21 -33.5t-24.5 -32 q0 -15 -8 -26.5t-17.5 -22.5t-16 -23.5t-3.5 -28.5q-6 -6 -6.5 -15.5t-1.5 -19.5t-5.5 -17.5t-18.5 -8.5q-18 4 -24 15t-6.5 24.5t1.5 28t0 26.5q-3 19 -1.5 36.5t3.5 34.5t3.5 33.5t-1.5 34.5q-9 -5 -14 -13t-9 -16.5t-8.5 -17.5t-11.5 -16q-10 -12 -19 -28.5t-20 -30.5 t-25.5 -22t-35.5 -3q-12 17 -13 35.5t4.5 38t15 38t19.5 35.5q9 10 19 23.5t22 24t25.5 15.5t30.5 -1q10 -5 20 0q19 43 28.5 90.5t12.5 93.5l21 16q13 -4 14.5 -10.5t-1 -14t-6 -16t-1.5 -16.5q-8 -57 -19 -113t-16 -112q-1 -15 -3.5 -30t-4 -29.5t-1.5 -29.5t5 -30 q16 21 31 45t30.5 49t33.5 49t40 45q25 36 65 62q16 -13 31 -29.5t31 -27.5q0 -19 -2.5 -41.5t2.5 -40.5q56 12 106 20.5t103 24.5q8 -5 12 -10.5t2 -16.5zM2137 1190q-2 29 -10 60t-23 59t-37 51t-53 37q12 18 25.5 16.5t25.5 -12t22.5 -25.5t18.5 -24q32 -39 46.5 -85.5 t15.5 -95.5t-10 -98t-29 -94q-15 -35 -36 -68t-48 -62t-59.5 -52.5t-69.5 -38.5q28 20 54 43.5t44 54.5q16 16 32 34t29.5 38t23.5 43t14 49q24 40 26.5 83.5t-2.5 86.5zM1953 983q-6 -15 -18.5 -30.5t-30.5 -20.5q-16 5 -24 13.5t-17 21.5l4 28q5 -2 6.5 -6t3 -9t3.5 -10 t9 -7q11 -4 19.5 6t13.5 16q8 47 1 92.5t-32 85.5l-12 -6q-25 -23 -46.5 -42t-35.5 -50l-16 -8q-28 -28 -49 -60t-45 -55q-12 -2 -18 3.5t-8.5 13.5t-3.5 17.5t-5 16.5q3 8 1.5 18.5t-7.5 16.5q-6 1 -9 -1.5t-4.5 -6t-3 -7.5t-4.5 -5q-15 -16 -29.5 -23.5t-35.5 -9.5 q-23 6 -28.5 18t-3.5 28t8 34t5 35q8 30 26.5 53.5t41.5 48.5q10 2 21.5 6.5t23 6t22 -1.5t19.5 -15l8 -12q-12 -35 -15 -73t-8 -75q2 -6 5.5 -13t11.5 -7q12 0 18 5.5t10 13t8 16t11 14.5q45 38 83.5 78.5t76.5 81.5q13 -5 17 -16t5.5 -24t2.5 -25.5t7 -21.5q11 -5 7 -16 q15 -31 15 -64t-5 -67zM1674 1384q-6 -11 -19.5 -20.5t-29.5 -7.5q-3 6 -8 13.5t-16 -1.5q-29 -23 -58.5 -47.5t-55 -51.5t-45.5 -57.5t-32 -64.5q-7 -42 -10.5 -86.5t2 -87.5t23 -80.5t53.5 -65.5q10 -8 21 -10.5t23 -2.5t25 1t25 0q12 8 21 17.5t22 17.5q1 -9 -3 -15.5 t-11 -11.5t-15 -9.5t-14 -10.5q-31 -13 -66.5 -5t-60.5 29q-22 20 -36 43.5t-19 51.5q-10 4 -10.5 9.5t1.5 12t3 12.5t-7 11q4 7 2.5 14t-4.5 14.5t-4 15.5t4 17q-2 61 17.5 114t52.5 98.5t76 85.5t88 75q7 1 18 3.5t20.5 2.5t17 -4.5t9.5 -18.5zM1299 1020q-14 -34 -45 -60 t-71 -26q-41 0 -77 15.5t-54 49.5q-16 23 -16 49t5 54q2 9 6.5 16.5t9 14t8.5 14t5 16.5q28 23 62 30t69 -5q7 -6 15.5 -9t7.5 -16q-3 -4 -6.5 -3t-7.5 3.5t-9 5t-10 2.5q-28 8 -54.5 -1.5t-47.5 -30.5q-16 -25 -24.5 -54.5t3.5 -58.5q44 -60 111 -70q9 4 19.5 5.5t20.5 3 t19.5 6t17.5 14.5q6 4 10.5 11.5t9 14t10 10t13.5 -0.5zM984 963q-11 -25 -18.5 -50.5t-26.5 -48.5q-14 -6 -25.5 1t-17.5 20q-15 35 -21 75t1 78q-3 2 -2 17t2.5 33.5t1 36t-6.5 26.5q-13 -31 -14 -63.5t-1.5 -64t-7.5 -62t-32 -56.5q-3 -3 -14 -6t-24.5 2.5t-26.5 23.5 t-19 58q6 38 8 74t9 73q1 7 -1 14.5t-3.5 15t-0.5 15t9 13.5q6 3 13.5 0.5t12.5 -8.5q1 -32 -2 -65.5t-5.5 -65t-1 -59.5t12.5 -48q15 -10 21.5 -4t10 18t5 25t6.5 18q4 21 5 43t1.5 43.5t2.5 43t8 42.5q5 6 9 15.5t9 17t12 10t19 -5.5q14 -40 15 -78.5t-0.5 -76.5t-1 -77 t13.5 -79q2 -6 9 -8t13 6q1 1 4.5 11.5t9 23t13 23t16.5 10.5zM665 901q-4 -3 -8.5 -7t-20.5 -8.5t-49 -9.5t-94 -10q-70 -6 -133 -17.5t-128 -33.5q-5 -11 -12.5 -14t-15 -2t-15.5 5l-14 7q-2 9 2.5 15t11 11t12 10t7.5 13q12 25 21.5 49.5t17.5 48.5q-3 13 4.5 27t13.5 27 q45 103 86 208.5t66 217.5q-3 12 -2.5 23.5t8.5 19.5q12 4 16 -4.5t11 -14.5q-14 -79 -41 -153.5t-57.5 -147t-60.5 -146t-50 -151.5l4 -4q76 13 148.5 27t154.5 16q25 -5 55.5 -4t54.5 10zM1404 -315q12 26 3.5 56.5t-24.5 53.5q-9 -12 -11.5 -26.5t-4.5 -28.5 q3 -17 9 -34.5t28 -20.5zM1129 -188q-5 -23 -7.5 -48t5.5 -47q6 -6 17 -5.5t20 7t13.5 18t-2.5 27.5q2 9 4.5 23t2 27t-5.5 23.5t-18 12.5zM720 -12q-3 11 -11.5 17.5t-19 8.5t-22.5 1t-21 -5q-22 -18 -43.5 -38.5t-38.5 -43.5q-10 -32 -24 -62t-26.5 -60.5t-19.5 -62.5 t-3 -67q6 -2 7.5 2t4.5 7q28 37 59.5 72t61.5 71.5t55.5 75.5t40.5 84zM1185 426q2 5 5 13t3.5 15.5t-2 13t-10.5 7.5l-11 -59q11 2 11.5 4.5t3.5 5.5zM902 471q-14 3 -26.5 -6.5t-20.5 -22.5q-11 -14 -21.5 -29.5t-17.5 -32t-9 -33.5t5 -34q11 -5 15 1.5t8 13.5 q21 23 39 47t32 55zM1654 1178q-5 4 -8.5 2.5t-6 -4l-5 -5t-5.5 -0.5q-23 -11 -38 -29.5t-23.5 -40.5t-12 -46t-2.5 -47q7 -2 13 1t12 7t12 6.5t13 1.5q5 14 17 29t21 31.5t11.5 33t-11.5 33.5q6 0 9 3t4 7.5t0.5 9t-0.5 7.5z" />
<glyph horiz-adv-x="1020" d="M782 1495l-272 129l-272 -129l-43 82l317 168l313 -166z" />
<glyph horiz-adv-x="1083" d="M889 1653q-39 -66 -92.5 -101.5t-118.5 -35.5q-46 0 -81 15t-76.5 44.5t-65 42t-54.5 12.5q-36 0 -72 -25t-63 -71l-71 53q37 66 91 101.5t120 35.5q46 0 81.5 -14.5t77 -43.5t65 -41.5t54.5 -12.5q36 0 70 23.5t63 70.5z" />
<glyph horiz-adv-x="885" d="M690 1735q0 -50 -17.5 -92t-50 -73t-79 -48t-103.5 -17q-59 0 -105 17.5t-77 49t-47 73.5t-16 90h92q0 -27 11.5 -51t32.5 -42t49.5 -28t61.5 -10q35 0 63.5 10t49 27.5t31 41.5t10.5 52h94z" />
<glyph horiz-adv-x="573" d="M379 1595q0 -18 -7 -35t-20 -29.5t-29.5 -20t-35.5 -7.5q-18 0 -35 7t-29.5 20t-20 29.5t-7.5 35.5t7.5 36t20 30t29.5 20t35 7q19 0 36 -7t29.5 -19.5t19.5 -29.5t7 -37z" />
<glyph horiz-adv-x="821" d="M627 1671q0 -44 -15.5 -82.5t-44.5 -67.5t-71 -45t-93 -16q-48 0 -86.5 13t-65.5 38t-41.5 63t-14.5 87q0 44 15.5 82.5t44.5 67.5t71 45t94 16q48 0 86 -13t65 -38t41.5 -63t14.5 -87zM520 1665q0 29 -7.5 52t-21.5 39t-34 24t-45 8q-22 0 -41.5 -7.5t-34.5 -22t-24 -38 t-9 -53.5q0 -29 7 -51.5t21 -38t34.5 -23.5t46.5 -8q21 0 40.5 7t34.5 22t24 37.5t9 52.5z" />
<glyph horiz-adv-x="702" d="M270 1268l-74 55l212 282l100 -67z" />
<glyph horiz-adv-x="543" d="M530 1348q0 -18 -6.5 -34.5t-18.5 -28.5t-28.5 -18.5t-34.5 -6.5t-34 6.5t-28.5 18.5t-19 28.5t-6.5 34.5q0 19 6.5 35t19 28t28.5 18.5t34 6.5q19 0 35.5 -6.5t28 -18.5t18 -28t6.5 -35zM188 1348q0 -18 -6.5 -34.5t-18.5 -28.5t-28.5 -18.5t-34.5 -6.5q-19 0 -35 6.5 t-28 18.5t-18.5 28t-6.5 35t6.5 35t18.5 28t28 18.5t35 6.5t35 -6.5t28 -18.5t18.5 -28t6.5 -35z" />
<glyph horiz-adv-x="1835" d="M381 98q45 -3 91 -10.5t85 -17.5v-70h-483v70q40 11 86 18t92 10v817h-238v103h238v127q0 87 27.5 154t83.5 113t141 69.5t198 23.5q73 0 153 -7t163 -19v-518q0 -22 -1 -46t-3.5 -49t-6 -48.5t-8.5 -41.5l5 -2q21 61 56.5 109.5t82 82t102 51t115.5 17.5q89 0 159 -30.5 t118.5 -90.5t74 -150t25.5 -208q0 -136 -36.5 -242.5t-105 -178.5t-164 -109t-212.5 -37q-51 0 -95 2.5t-83 7t-75.5 11t-76.5 16.5v1359q-26 5 -51.5 8t-51.5 5t-51 3t-51 1q-159 0 -231 -64.5t-72 -210.5v-108h311v-103h-311v-817zM1599 543q0 91 -15.5 162.5t-47.5 122 t-81.5 76.5t-115.5 26q-53 0 -98 -19t-81 -53t-62.5 -77.5t-44.5 -92.5t-26.5 -99.5t-8.5 -96.5v-371q46 -17 97.5 -24t115.5 -7q85 0 152.5 26.5t116 81.5t74 141t25.5 204z" />
<glyph horiz-adv-x="1903" d="M1556 0v662q0 66 -10 115.5t-34 84t-63.5 52.5t-98.5 18q-72 0 -132.5 -33t-104.5 -93.5t-67.5 -142t-23.5 -176.5v-389q44 -3 89 -10t85 -18v-70h-477v70q39 11 83.5 18t90.5 10v1286q-51 9 -101.5 13t-103.5 4q-81 0 -138.5 -16t-95 -49t-55.5 -85t-18 -125v-108h313 v-103h-313v-817q44 -3 89 -10t85 -18v-70h-481v70q40 11 86 18t92 10v817h-238v103h238v127q0 87 27.5 154t84 113t141.5 69.5t200 23.5q72 0 152 -7t165 -19v-496q0 -28 -1 -55.5t-3 -54.5t-5.5 -51t-8.5 -42l4 -2q22 59 57.5 107t82.5 81.5t105 51.5t125 18 q85 0 145 -24.5t95.5 -69t51.5 -103t16 -130.5v-611q44 -3 90 -10.5t86 -17.5v-70h-306z" />
<glyph horiz-adv-x="1214" d="M1018 -139q0 -104 -16.5 -177t-53.5 -120t-98.5 -69.5t-153.5 -22.5q-32 0 -70.5 4t-66.5 10l14 117q29 -10 66 -15.5t68 -5.5q56 0 90.5 13t54.5 43t28.5 81t8.5 134v1062h-508v-817q45 -3 91 -10.5t85 -17.5v-70h-483v70q40 11 86 18t92 10v817h-238v103h238v51 q0 106 29 187t86.5 136.5t143.5 84t200 28.5q67 0 137 -10.5t131 -28.5l-27 -108q-29 9 -61.5 16.5t-66 13t-65.5 8.5t-59 3q-84 0 -145 -20.5t-99.5 -60.5t-56.5 -97t-18 -131v-72h637v-1157z" />
<glyph horiz-adv-x="1737" d="M1430 0l-408 543v-445q44 -3 88 -10t82 -18v-70h-473v70q39 11 83.5 18t90.5 10v1286q-51 9 -101.5 13t-103.5 4q-81 0 -138.5 -16t-95 -49t-55.5 -85t-18 -125v-108h313v-103h-313v-817q44 -3 89 -10t85 -18v-70h-481v70q40 11 86 18t92 10v817h-238v103h238v127 q0 87 27.5 154t84 113t141.5 69.5t200 23.5q72 0 152 -7t165 -19v-928l340 369q-47 5 -82 11.5t-57 16.5v70h442v-70q-35 -9 -74 -16.5t-80 -11.5l-342 -365l355 -453q34 -4 75 -11t101 -19v-72h-270z" />
<glyph horiz-adv-x="358" d="M358 2007v-2662h-358v2662h358z" />
<glyph horiz-adv-x="1443" d="M1443 -350q-85 -12 -155 -8t-132 15.5t-118.5 26.5t-112.5 27t-115.5 17t-127.5 -5v116q78 10 143 6t124 -15.5t114.5 -26t114.5 -26.5t123.5 -16t141.5 5v-116zM1347 706q0 -175 -51 -309.5t-138 -226.5t-204 -139.5t-248 -47.5q-150 0 -264 50t-190.5 141t-115.5 219 t-39 284q0 174 51 309t138.5 227t204 139.5t248.5 47.5q150 0 263.5 -50.5t190.5 -141.5t115.5 -218.5t38.5 -283.5zM1210 680q0 134 -31 245.5t-91.5 192t-152 125.5t-212.5 45q-102 0 -190.5 -38t-154.5 -112t-104.5 -182.5t-38.5 -250.5q0 -135 31 -247t91.5 -192.5 t152 -125.5t212.5 -45q101 0 189.5 38t155 112t105 183.5t38.5 251.5z" />
</font>
</defs>
</svg>
