<?xml version="1.0" standalone="no"?>
<!DOCTYPE svg PUBLIC "-//W3C//DTD SVG 1.1//EN" "http://www.w3.org/Graphics/SVG/1.1/DTD/svg11.dtd" >
<svg xmlns="http://www.w3.org/2000/svg">
<metadata>
Copyright   : Copyright 2014 Luc(as) de Groot. All rights reserved. Published by LucasFonts.com
Designer    : Luc(as) de Groot
Foundry     : LucasFonts
Foundry URL : http://lucasfonts.com
</metadata>
<defs>
<font id="TheSerifB_700_" horiz-adv-x="1126" >
<font-face units-per-em="2048" ascent="1516" descent="-532" />
<missing-glyph horiz-adv-x="446" />
<glyph unicode=" "  horiz-adv-x="446" />
<glyph unicode="&#x09;" horiz-adv-x="446" />
<glyph unicode="&#xa0;" horiz-adv-x="446" />
<glyph unicode="!" horiz-adv-x="657" d="M461 384h-226l-42 1066h307zM505 133q0 -33 -12.5 -61t-34 -49t-51 -33.5t-62.5 -12.5q-34 0 -63 12.5t-50.5 33.5t-34 49t-12.5 61q0 32 12.5 60.5t34 49.5t50.5 33t63 12q33 0 62.5 -12t51 -33t34 -49.5t12.5 -60.5z" />
<glyph unicode="&#x22;" horiz-adv-x="829" d="M705 917h-195l-34 521h263zM318 917h-195l-33 521h263z" />
<glyph unicode="#" d="M898 810l-28 -280h155v-180h-174l-37 -350h-190l37 350h-259l-37 -350h-191l37 350h-156v180h175l28 280h-156v180h175l36 341h191l-36 -341h258l36 341h191l-36 -341h154v-180h-173zM449 810l-28 -280h258l29 280h-259z" />
<glyph unicode="$" d="M997 434q0 -70 -25 -132t-72 -112.5t-114 -86t-151 -52.5v-244h-189v232q-68 0 -134.5 7.5t-135.5 23.5v329h176q3 -12 10 -46.5t13 -88.5q30 -6 63 -10t66 -4q50 0 91 10t70 29.5t44.5 49t15.5 67.5t-24 66t-63.5 48t-89.5 37.5t-118.5 43t-119.5 52.5t-92.5 66.5 t-66 95t-24.5 129.5q0 66 25.5 124.5t72.5 105.5t111.5 79.5t140.5 46.5v207h187v-192q61 -3 120.5 -10.5t130.5 -20.5v-319h-174q-12 43 -22 131q-18 4 -47.5 7t-61.5 3q-107 0 -158 -38t-51 -97q0 -38 24 -66t63.5 -48t89.5 -37.5t118 -42.5t118.5 -52t92 -66.5t66 -95 t24.5 -129.5z" />
<glyph unicode="%" horiz-adv-x="1557" d="M1478 317q0 -77 -24.5 -139.5t-68 -107.5t-102 -69.5t-126.5 -24.5q-75 0 -131.5 22.5t-95 64t-57.5 101t-19 133.5q0 73 24 134.5t67 105.5t101.5 68.5t127.5 24.5t126 -19.5t96.5 -58.5t60.5 -98t21 -137zM344 -46l-164 119l1026 1300l164 -119zM703 1041 q0 -77 -24.5 -139.5t-68 -107t-102 -69t-126.5 -24.5q-75 0 -131.5 22.5t-95 64t-58 100.5t-19.5 133t24.5 135.5t67.5 105.5t101.5 68.5t126.5 24.5q71 0 127.5 -19.5t96 -58.5t60.5 -98.5t21 -137.5zM1281 303q0 45 -7.5 76t-22 50.5t-35.5 28t-50 8.5q-24 0 -44.5 -11 t-36 -31.5t-24.5 -50t-9 -67.5q0 -45 8 -76.5t23 -51t36.5 -28.5t49.5 -9q23 0 43.5 11t35.5 32t24 51t9 68zM505 1028q0 45 -7 76t-21.5 50t-35.5 28t-50 9q-24 0 -45 -11t-36 -31.5t-23.5 -50.5t-8.5 -67q0 -45 7.5 -76.5t22.5 -51.5t36.5 -29t48.5 -9q24 0 44.5 11 t35.5 32t23.5 51t8.5 69z" />
<glyph unicode="&#x26;" horiz-adv-x="1690" d="M1305 0q-58 41 -114.5 82.5t-97.5 74.5q-49 -38 -107.5 -71t-125 -57.5t-141.5 -38t-157 -13.5q-120 0 -208 32.5t-145 88t-84.5 130t-27.5 156.5q0 66 18.5 123.5t52.5 109.5t82 99t106 93q-46 55 -79 102t-54 91t-31 85.5t-10 86.5q0 68 26.5 129t78.5 107.5 t127.5 72.5t174.5 26q89 0 157 -20t114.5 -60t70 -95.5t23.5 -123.5q0 -54 -14.5 -103.5t-44.5 -98t-76 -96.5t-109 -97q38 -37 81.5 -78.5t92 -83.5t99 -84.5t99.5 -80.5v-2q18 26 34 55.5t28.5 63.5t21 71t12.5 78q-31 3 -60 7.5t-56 11.5v169h530v-169q-35 -8 -73.5 -14 t-75.5 -10q-15 -114 -57 -216.5t-107 -188.5q53 -40 108 -80.5t104 -74.5q32 -4 63 -8.5t61 -11.5v-169h-310zM696 1191q0 25 -7.5 47.5t-23 40t-39 27t-56.5 9.5q-28 0 -51.5 -9t-41 -26.5t-27 -41t-9.5 -51.5q0 -22 6 -45.5t19.5 -51t36 -59t54.5 -68.5q33 28 58.5 55 t43.5 55t27.5 57t9.5 61zM901 301q-52 42 -106.5 89t-105.5 93.5t-97 90t-82 79.5q-37 -32 -64 -62.5t-43 -59.5t-24.5 -57.5t-8.5 -57.5q0 -42 16.5 -81.5t45.5 -69t73 -47.5t100 -18q46 0 88 8t79 22t69.5 32t59.5 39z" />
<glyph unicode="'" horiz-adv-x="442" d="M318 917h-195l-33 521h263z" />
<glyph unicode="(" horiz-adv-x="627" d="M409 -440q-86 135 -143.5 265.5t-93 258t-50.5 252t-15 247.5q0 121 16 247.5t52 255.5t93.5 261t142.5 265l192 -89q-117 -206 -178 -441t-61 -489q0 -130 15.5 -253.5t46 -241.5t76.5 -230t106 -217z" />
<glyph unicode=")" horiz-adv-x="627" d="M525 589q0 -121 -16 -247.5t-52 -256t-94 -261t-143 -264.5l-192 88q117 207 178.5 442.5t61.5 489.5q0 259 -61 494.5t-181 446.5l199 91q85 -135 142.5 -265.5t92.5 -258t50 -252t15 -247.5z" />
<glyph unicode="*" horiz-adv-x="786" d="M624 927l-174 139l34 -220h-188l34 220l-176 -138l-91 160l208 82l-208 82l93 161l175 -139l-34 221h186l-32 -221l174 139l93 -161l-209 -82l209 -82z" />
<glyph unicode="+" d="M687 501v-383h-248v383h-359v218h359v380h248v-380h359v-218h-359z" />
<glyph unicode="," horiz-adv-x="528" d="M261 305q49 0 87 -25.5t59 -71.5t21.5 -108t-26.5 -135.5t-85 -154.5t-153 -165l-108 97q52 56 80.5 101.5t37.5 83t-0.5 69.5t-33.5 61q-19 22 -27.5 49t-7 54.5t13 54t31 46.5t48 32t63.5 12z" />
<glyph unicode="-" horiz-adv-x="684" d="M90 463v210h503v-210h-503z" />
<glyph unicode="&#xad;" horiz-adv-x="684" d="M90 463v210h503v-210h-503z" />
<glyph unicode="." horiz-adv-x="528" d="M431 145q0 -34 -13 -64.5t-36 -54t-53.5 -36.5t-64.5 -13t-64.5 13t-53.5 36.5t-36 54t-13 64.5t13 64t36 53.5t53.5 36.5t64.5 13t64.5 -13t53.5 -36.5t36 -53.5t13 -64z" />
<glyph unicode="/" horiz-adv-x="948" d="M235 -330h-258l717 1880h258z" />
<glyph unicode="0" d="M1052 676q0 -185 -41 -317.5t-110 -217.5t-159.5 -125t-190.5 -40q-75 0 -139 14.5t-117.5 47.5t-94.5 85.5t-69.5 130t-43 181t-14.5 237.5q0 174 36.5 302.5t103 213t158.5 126t203 41.5q75 0 140.5 -15.5t118.5 -49t94 -87t68.5 -129t42 -174.5t14.5 -224zM771 668 q0 140 -13 230.5t-39.5 142t-65.5 72t-92 20.5q-45 0 -83.5 -21.5t-66 -73t-43 -138.5t-15.5 -220q0 -93 5 -164.5t16 -124.5t27.5 -89t39.5 -58.5t53 -32t68 -9.5q50 0 88.5 24.5t65.5 79.5t41 143.5t14 218.5z" />
<glyph unicode="1" d="M135 0v235h335v825l-297 -116l-43 248l410 139h201v-1096h292v-235h-898z" />
<glyph unicode="2" d="M104 0v209l198 193q79 76 137.5 135.5t100.5 108t68.5 88t41.5 74.5t21 67t6 66q0 38 -12.5 71t-37.5 57.5t-61.5 38t-85.5 13.5q-33 0 -68 -8t-67 -21q-5 -37 -10 -75t-13 -79h-186v351q39 15 83.5 27t92 20.5t97 13t98.5 4.5q119 0 204.5 -31t141.5 -83.5t82.5 -122.5 t26.5 -148q0 -70 -14 -133t-51 -129.5t-102 -142t-167 -167.5l-160 -152v-3q41 2 84.5 3t90 2t96 1.5t105.5 0.5h165v-249h-905z" />
<glyph unicode="3" d="M992 418q0 -103 -44 -185t-122.5 -139t-188 -87t-238.5 -30q-78 0 -147 10t-118 23l24 224q58 -21 120 -29.5t124 -8.5q78 0 135 14t95.5 39.5t57 61t18.5 78.5q0 42 -17 76.5t-52.5 59t-90.5 38t-130 13.5q-57 0 -106 -2.5t-104 -8.5v206h60q94 0 170.5 12.5t131 39 t84 67t29.5 96.5q0 39 -13.5 67.5t-39.5 47.5t-64 28.5t-87 9.5q-34 0 -68.5 -3.5t-59.5 -11.5q-4 -34 -8.5 -69.5t-11.5 -75.5h-168v322q34 12 74.5 22t86 17t93.5 11t98 4q112 0 195 -23t138.5 -66.5t83 -104.5t27.5 -135q0 -110 -61.5 -188t-169.5 -118l-4 -2 q59 -6 108.5 -32t85 -66.5t55 -92t19.5 -109.5z" />
<glyph unicode="4" d="M895 330v-150q38 -2 76.5 -9t72.5 -16v-155h-585v155q41 9 86.5 16t92.5 9v150h-576l-23 205l499 796h357v-775h195v-226h-195zM643 1093h-2l-343 -541q23 0 53 1t63 1.5t67.5 0.5h65h55.5h41v538z" />
<glyph unicode="5" d="M1000 445q0 -107 -42.5 -193t-119 -147t-184 -94t-238.5 -33q-72 0 -134 6.5t-121 20.5v236q30 -9 61 -16.5t64 -12.5t69.5 -7.5t78.5 -2.5q67 0 118.5 15t87 43.5t54 68t18.5 89.5q0 49 -21 87t-60.5 63.5t-95.5 38.5t-126 13q-34 0 -65.5 -1.5t-61 -3.5t-55.5 -5 t-48 -7v728h766v-247h-517v-260q19 1 40 1.5t39 0.5q120 0 211.5 -28.5t154.5 -79t95 -120.5t32 -153z" />
<glyph unicode="6" d="M1055 456q0 -112 -35 -200.5t-99 -150.5t-153.5 -95.5t-197.5 -33.5q-113 0 -203 36.5t-154 109t-98 181.5t-34 256q0 199 50 348t141.5 247.5t220 147.5t286.5 49q39 0 80.5 -1.5t74.5 -6.5v-227q-41 8 -81 11t-86 3q-86 0 -152.5 -22t-116 -64t-83 -103t-53.5 -140 q-5 -14 -9.5 -34.5t-9.5 -47.5h3q24 31 55 55t68 40.5t79.5 24.5t90.5 8q101 0 179 -30.5t130.5 -83.5t79.5 -124.5t27 -152.5zM790 417q0 50 -14 90t-40.5 68t-67 43t-93.5 15q-52 0 -92 -18t-68 -47t-42 -65t-14 -72q0 -52 14.5 -95.5t42.5 -76t70 -51.5t98 -19 q49 0 87 17t64.5 47.5t40.5 72t14 91.5z" />
<glyph unicode="7" d="M1028 1108q-70 -134 -135.5 -277.5t-124 -287.5t-109 -282.5t-89.5 -260.5h-295q44 134 97.5 278t113.5 288t124 281t127 256h-410q-3 -38 -9.5 -79.5t-16.5 -92.5h-204v400h931v-223v0z" />
<glyph unicode="8" d="M1042 367q0 -95 -39 -167.5t-106.5 -122.5t-157 -75.5t-189.5 -25.5q-109 0 -195.5 25t-147 70.5t-92.5 110t-32 144.5q0 59 19.5 108t53 90.5t78 76t93.5 64.5q-48 27 -87.5 58.5t-67 69.5t-43 83.5t-15.5 101.5q0 84 34.5 153.5t95.5 119t146.5 77t186.5 27.5 q102 0 183 -25t137 -69.5t85 -106t29 -133.5q0 -55 -17 -100.5t-47 -84t-69.5 -71t-83.5 -61.5q49 -26 94 -58t79 -72t54.5 -91t20.5 -116zM747 999q0 33 -12 61t-35.5 48t-59 31t-81.5 11q-45 0 -78.5 -12t-56.5 -32t-34.5 -47t-11.5 -57q0 -34 13 -60.5t38 -50t62 -45.5 t86 -45q35 20 66 41.5t54 45.5t36.5 51.5t13.5 59.5zM771 343q0 42 -18.5 74t-49.5 58.5t-73 47.5t-88 42q-38 -22 -72 -45t-60 -49t-41 -56.5t-15 -67.5q0 -35 14 -64.5t41 -51t67.5 -33.5t93.5 -12q44 0 80.5 11t63.5 31.5t42 49.5t15 65z" />
<glyph unicode="9" d="M1041 773q0 -135 -22.5 -246.5t-65 -199.5t-104 -153.5t-139 -108.5t-170 -64t-196.5 -21q-44 0 -93 3t-95 12v229q50 -12 102 -17.5t102 -5.5q166 0 261 79.5t132 234.5q6 22 10 40t9 40h-2q-48 -54 -120 -84.5t-165 -30.5q-101 0 -178.5 31t-130 84.5t-79.5 126.5 t-27 157q0 110 36 198.5t100.5 150t153.5 94.5t195 33q111 0 200.5 -35t153 -106.5t98 -181t34.5 -259.5zM758 901q0 52 -14 96.5t-42 76.5t-69.5 50t-95.5 18q-48 0 -86.5 -18t-64.5 -48t-40.5 -71t-14.5 -88q0 -52 14 -92.5t41 -69t66.5 -43.5t89.5 -15q52 0 92.5 16.5 t68 44t41.5 65t14 78.5z" />
<glyph unicode=":" horiz-adv-x="610" d="M497 724q0 -34 -13.5 -64.5t-36 -53.5t-53 -36t-65.5 -13q-34 0 -64.5 13t-53 36t-36 53.5t-13.5 64.5t13.5 64.5t36 53.5t53 36t64.5 13q35 0 65.5 -13t53 -36t36 -53.5t13.5 -64.5zM497 145q0 -34 -13.5 -64.5t-36 -53.5t-53 -36.5t-65.5 -13.5q-34 0 -64.5 13.5 t-53 36.5t-36 53.5t-13.5 64.5t13.5 64t36 53t53 36.5t64.5 13.5q35 0 65.5 -13.5t53 -36.5t36 -53t13.5 -64z" />
<glyph unicode=";" horiz-adv-x="610" d="M497 724q0 -34 -13.5 -64.5t-36 -53.5t-53 -36t-65.5 -13q-34 0 -64.5 13t-53 36t-36 53.5t-13.5 64.5t13.5 64.5t36 53.5t53 36t64.5 13q35 0 65.5 -13t53 -36t36 -53.5t13.5 -64.5zM328 305q49 0 87 -25.5t59 -71.5t21.5 -108t-26 -135.5t-84.5 -154.5t-154 -165 l-108 97q53 56 81.5 101.5t37 83t-1 69.5t-33.5 61q-19 22 -27.5 49t-7 54.5t13 54t31.5 46.5t48 32t63 12z" />
<glyph unicode="&#x3c;" d="M783 12l-654 603l652 603l171 -172l-486 -429l488 -428z" />
<glyph unicode="=" d="M109 698v211h908v-211h-908zM109 307v211h908v-211h-908z" />
<glyph unicode="&#x3e;" d="M346 12l-172 172l486 429l-487 428l170 177l654 -603z" />
<glyph unicode="?" horiz-adv-x="924" d="M828 1049q0 -64 -17.5 -113t-45 -89t-61.5 -73t-67.5 -63.5t-63 -62.5t-47.5 -70.5t-21.5 -85t14.5 -108.5h-255q-25 73 -26 130.5t14 104t42 83.5t59 69t65.5 61t60.5 58t44.5 61t17.5 71q0 46 -27.5 83t-79.5 64t-127 42.5t-170 19.5l32 237q169 -4 293 -40 t205.5 -93.5t121 -131.5t39.5 -154zM555 133q0 -33 -12.5 -61t-34 -49t-51 -33.5t-62.5 -12.5q-34 0 -63 12.5t-50.5 33.5t-34 49t-12.5 61q0 32 12.5 60.5t34 49.5t50.5 33t63 12q33 0 62.5 -12t51 -33t34 -49.5t12.5 -60.5z" />
<glyph unicode="@" horiz-adv-x="1987" d="M1806 846q0 -135 -35 -243.5t-99 -184.5t-151.5 -116t-191.5 -40q-56 0 -99.5 15t-72.5 42t-43.5 63t-13.5 78h-4q-20 -40 -48.5 -75.5t-65 -63t-81 -43.5t-95.5 -16q-105 0 -169.5 77t-64.5 224q0 114 31 213.5t93 175t154.5 117.5t211.5 42q98 0 176.5 -15.5 t110.5 -26.5l-74 -398q-20 -111 1.5 -164t86.5 -53q48 0 90 24.5t74 73t49.5 120.5t17.5 164q0 94 -30 180t-94.5 155t-167.5 109t-242 40q-140 0 -265 -52.5t-220 -150t-148 -232t-53 -292.5q0 -134 37 -240t112 -181t189.5 -114.5t267.5 -39.5q88 0 183 16t188 45l29 -177 q-50 -17 -105.5 -30t-112 -22t-110.5 -13.5t-101 -4.5q-189 0 -337 51.5t-248.5 148.5t-151.5 233.5t-51 305.5q0 134 31.5 256.5t91 226.5t142 187.5t184 142t217.5 89.5t241 31q178 0 317 -50.5t232 -141t140 -210t47 -256.5zM1104 915q-40 11 -91 11q-52 0 -93.5 -30 t-69.5 -79.5t-42 -107t-14 -112.5q0 -72 18 -105.5t57 -33.5q30 0 61 22t59.5 67.5t53.5 115.5t43 162z" />
<glyph unicode="A" horiz-adv-x="1427" d="M865 0v165q35 8 72 14t71 9l-60 176h-497l-60 -176q34 -3 73 -9t73 -14v-165h-521v166q25 7 54.5 13t55.5 8l413 1195h344l418 -1195q27 -2 56.5 -8t53.5 -13v-166h-546zM764 925q-20 63 -35.5 115t-28.5 104h-3q-12 -55 -26.5 -108t-33.5 -112l-123 -352h372z" />
<glyph unicode="B" horiz-adv-x="1268" d="M1188 425q0 -50 -12 -101.5t-39 -99t-70 -89.5t-105 -73t-143.5 -49t-185.5 -18q-28 0 -67 1t-89 2t-113 1.5t-139 0.5h-178v165q40 9 85.5 16t92.5 10v1000q-47 3 -92.5 10t-85.5 16v165h172q41 0 93.5 1t112 3t123 3t127.5 1q111 0 197 -22.5t145 -66t89.5 -107 t30.5 -146.5q0 -51 -12.5 -98t-37.5 -87t-62.5 -71.5t-87.5 -51.5v-5q62 -13 108.5 -43.5t78.5 -72.5t48 -92t16 -102zM855 1007q0 38 -12 69t-39 53t-69.5 34t-103.5 12q-22 0 -39.5 -0.5t-34 -1t-32.5 -1t-34 -1.5v-359q25 -2 50 -2h58q69 0 117.5 13t79 39t45 62t14.5 83 zM902 420q0 50 -21.5 86.5t-60.5 60t-93 34t-119 10.5h-22.5h-33t-34 -0.5t-27.5 -1.5v-389q24 -3 63.5 -5t85.5 -2q66 0 115 15t81.5 42t49 65t16.5 85z" />
<glyph unicode="C" horiz-adv-x="1194" d="M1131 52q-43 -16 -92.5 -29t-102 -22.5t-105.5 -15t-102 -5.5q-164 0 -287.5 47t-205 135t-121.5 213t-40 281q0 165 44.5 301.5t132 235.5t217 152.5t296.5 53.5q79 0 164.5 -10t169.5 -28v-398h-203q-4 22 -12 71t-12 103q-16 4 -55.5 10.5t-90.5 6.5 q-83 0 -149.5 -32.5t-113 -93t-70.5 -145.5t-24 -188q0 -111 23.5 -198t73 -148t128.5 -93.5t187 -32.5q38 0 78 5t80.5 13.5t79 19.5t74.5 25z" />
<glyph unicode="D" horiz-adv-x="1448" d="M1371 714q0 -177 -55.5 -312t-155.5 -226.5t-240.5 -137.5t-309.5 -46q-54 0 -111.5 1t-110 2.5t-96 3t-67.5 1.5h-178v165q40 9 85.5 16t92.5 10v1000q-47 3 -92.5 10t-85.5 16v165h172q41 0 93 1.5t110.5 3t122 2.5t127.5 1q160 0 289 -37.5t220.5 -118.5t140.5 -209.5 t49 -310.5zM1085 694q0 111 -23 199t-74.5 148.5t-134 93t-200.5 32.5q-23 0 -45.5 -0.5t-43 -1t-39 -1.5t-34.5 -2v-932q14 -3 31 -4.5t35.5 -3t38.5 -2t40 -0.5q98 0 180.5 28t142.5 86.5t93 147.5t33 212z" />
<glyph unicode="E" horiz-adv-x="1100" d="M47 0v165q42 9 87.5 16t90.5 10v1000q-45 3 -90.5 10t-87.5 16v165h942v-339h-198q-3 16 -10 51.5t-12 77.5h-278v-367h225q4 39 11 69.5t11 43.5h171v-416h-171q-4 13 -11 43t-11 69h-225v-400h280q5 43 12 80.5t11 53.5h201v-348h-948z" />
<glyph unicode="F" horiz-adv-x="1051" d="M789 1037q-8 38 -13.5 69.5t-8.5 62.5h-276v-381h231q4 29 10 57t13 55h170v-427h-170q-7 25 -12.5 54t-10.5 58h-231v-394q44 -3 90.5 -10t87.5 -16v-165h-622v165q42 9 87.5 16t90.5 10v1000q-45 3 -90.5 10t-87.5 16v165h940v-345h-198z" />
<glyph unicode="G" horiz-adv-x="1405" d="M1359 556q-26 -7 -55 -12t-59 -9v-469q-51 -21 -108.5 -37t-118.5 -27.5t-124 -17t-125 -5.5q-162 0 -291.5 46.5t-219.5 135t-137 215t-47 283.5q0 164 52 301t151.5 236t241.5 152.5t318 53.5q95 0 191.5 -13t196.5 -37v-371h-205q-9 44 -14.5 84.5t-8.5 81.5 q-42 10 -87 15.5t-88 5.5q-103 0 -188 -31.5t-146 -93.5t-94 -153t-33 -207q0 -109 29.5 -195t86 -146t139 -91.5t186.5 -31.5q49 0 93 6.5t83 19.5v287q-44 3 -89.5 10t-84.5 17v165h555v-168z" />
<glyph unicode="H" horiz-adv-x="1569" d="M927 0v169q35 8 73.5 13.5t76.5 8.5v409h-586v-409q38 -3 76.5 -8.5t73.5 -13.5v-169h-594v165q40 9 85.5 16t92.5 10v1000q-47 3 -92.5 10t-85.5 16v165h594v-169q-35 -8 -73.5 -13.5t-76.5 -8.5v-361h586v361q-38 3 -76.5 8.5t-73.5 13.5v169h595v-165 q-41 -9 -86.5 -16t-92.5 -10v-1000q47 -3 92.5 -10t86.5 -16v-165h-595z" />
<glyph unicode="I" horiz-adv-x="715" d="M47 0v165q40 9 85.5 16t92.5 10v1000q-47 3 -92.5 10t-85.5 16v165h622v-165q-40 -9 -86 -16t-92 -10v-1000q46 -3 92 -10t86 -16v-165h-622z" />
<glyph unicode="J" horiz-adv-x="737" d="M692 1213q-67 -15 -129 -22v-804q0 -58 -8.5 -110.5t-26.5 -98t-47 -82t-70.5 -63.5t-97 -41t-124.5 -14q-22 0 -45 1.5t-44.5 4t-41.5 5.5t-39 7v220q27 -7 61.5 -12t64.5 -5q38 0 65.5 9.5t46.5 31t29 58.5t10 92v801q-44 3 -90.5 10t-87.5 16v165h574v-169z" />
<glyph unicode="K" horiz-adv-x="1425" d="M803 0v169q26 6 52.5 10t50.5 7l-415 497v-492q33 -3 68 -8.5t67 -13.5v-169h-579v165q40 9 85.5 16t92.5 10v1000q-47 3 -92.5 10t-85.5 16v165h579v-169q-32 -8 -67 -13.5t-68 -8.5v-459l411 463q-26 3 -55 7.5t-52 10.5v169h560v-167q-30 -7 -64 -12.5t-63 -8.5 l-437 -474l467 -532q29 -3 63.5 -8t64.5 -12v-168h-583z" />
<glyph unicode="L" horiz-adv-x="1030" d="M47 0v165q41 9 86 15.5t92 10.5v1000q-47 4 -92 10.5t-86 15.5v165h622v-165q-41 -9 -86 -15.5t-92 -10.5v-971h281q4 39 13 91t23 101h192v-412h-953z" />
<glyph unicode="M" horiz-adv-x="1962" d="M1398 0v165q31 8 70 14t74 9l-77 567q-13 94 -22 177.5t-14 162.5h-4q-15 -85 -29 -151t-34 -127l-266 -817h-248l-258 791q-23 72 -39 141t-35 163h-3q-1 -40 -4 -84t-7 -88.5t-8.5 -87t-9.5 -86.5l-69 -561q34 -3 70 -9t69 -14v-165h-528v166q11 3 27 6t33 6t33.5 5.5 t29.5 3.5l153 1004q-42 3 -82.5 9.5t-83.5 16.5v165h536l234 -693q10 -31 20.5 -67.5t20.5 -74.5t19.5 -77t17.5 -77h3q16 80 34.5 150.5t41.5 141.5l231 697h532v-165q-42 -10 -83.5 -16.5t-83.5 -9.5l156 -1004q27 -2 61 -8t62 -13v-166h-540z" />
<glyph unicode="N" horiz-adv-x="1571" d="M1524 1213q-38 -8 -68.5 -14t-60.5 -9v-1190h-361l-378 683q-26 45 -51.5 92.5t-50.5 96.5t-48.5 97.5t-42.5 92.5q6 -77 9.5 -169t5.5 -198.5t3 -229t1 -273.5q37 -3 75.5 -9t72.5 -14v-169h-583v165q44 10 89 17t89 10v999q-45 3 -90.5 10t-87.5 16v165h540l376 -680 q26 -47 51.5 -94t50.5 -95.5t48.5 -97t42.5 -92.5q-6 81 -9.5 173.5t-5.5 198t-3 224.5t-1 271q-34 3 -69 9t-71 14v169h527v-169z" />
<glyph unicode="O" horiz-adv-x="1440" d="M1372 713q0 -173 -53.5 -309.5t-145 -231.5t-214.5 -145.5t-262 -50.5q-157 0 -275 49t-196.5 139t-118 218.5t-39.5 287.5q0 172 53.5 308.5t145 231.5t214 145.5t261.5 50.5q157 0 275 -49t197 -139t118.5 -218t39.5 -287zM1089 681q0 111 -22.5 200.5t-68.5 152.5 t-115 97.5t-161 34.5q-80 0 -148 -30t-117.5 -89t-77.5 -145.5t-28 -199.5q0 -110 22.5 -200t68 -153t114.5 -97t162 -34q80 0 148 30t118 88.5t77.5 145.5t27.5 199z" />
<glyph unicode="P" horiz-adv-x="1202" d="M1162 947q0 -106 -37 -197.5t-109.5 -158.5t-177.5 -105t-240 -38q-29 0 -55.5 1.5t-51.5 3.5v-262q46 -3 92 -10t86 -16v-165h-622v165q40 9 85.5 16t92.5 10v1000q-47 3 -92.5 10t-85.5 16v165h178q23 0 66.5 1.5t97.5 3.5t113 3t115 1q140 0 242.5 -32t170 -90.5 t100 -140.5t32.5 -181zM887 918q0 51 -14.5 97t-47.5 81.5t-87.5 56t-135.5 20.5q-28 0 -58 -0.5t-53 -2.5v-493q20 -4 52 -6.5t70 -2.5q67 0 118 18t85.5 51t52.5 79.5t18 101.5z" />
<glyph unicode="Q" horiz-adv-x="1440" d="M1438 -136q-89 -13 -155 -9.5t-119 16t-97.5 30.5t-90.5 35t-98.5 28.5t-121.5 11.5h-59q-157 0 -275 49t-196.5 139t-118 218.5t-39.5 287.5q0 172 53.5 308.5t145 231.5t214 145.5t261.5 50.5q157 0 275 -49t197 -139t118.5 -218t39.5 -287q0 -103 -20 -194.5 t-57.5 -166.5t-91.5 -131.5t-120 -90.5q27 0 52 -4.5t50 -10.5t51 -13t56 -11.5t66 -5t80 5.5v-227zM1089 681q0 111 -22.5 200.5t-68.5 152.5t-115 97.5t-161 34.5q-80 0 -148 -30t-117.5 -89t-77.5 -145.5t-28 -199.5q0 -110 22.5 -200t68 -153t114.5 -97t162 -34 q80 0 148 30t118 88.5t77.5 145.5t27.5 199z" />
<glyph unicode="R" horiz-adv-x="1284" d="M900 0l-317 573h-92v-382q30 -3 62.5 -8.5t64.5 -13.5v-169h-571v165q40 9 85.5 16t92.5 10v1000q-47 3 -92.5 10t-85.5 16v165h161q13 0 39 1t60.5 2t76 2t85.5 2t87.5 1.5t84.5 0.5q118 0 213 -21t161.5 -68t102 -122t35.5 -183q0 -70 -21.5 -129.5t-62 -105.5 t-97.5 -79.5t-127 -50.5q19 -24 37 -50.5t33 -51.5l199 -338q29 -4 62.5 -9.5t68.5 -11.5v-171h-345zM873 980q0 51 -15 89t-47 62.5t-81.5 37t-116.5 12.5q-13 0 -30 -0.5l-34 -1t-32.5 -1.5t-25.5 -2v-406h128q60 0 107.5 14t80 41.5t49.5 66t17 88.5z" />
<glyph unicode="S" horiz-adv-x="1061" d="M988 397q0 -94 -35 -171.5t-102.5 -133.5t-164.5 -86t-217 -30q-119 0 -221 14t-147 23v369h204q4 -21 11 -67.5t11 -98.5q20 -5 66 -12t101 -7q50 0 89 11.5t65.5 33.5t40.5 54t14 73q0 47 -25 82.5t-66.5 61.5t-99 51t-123 53.5t-118 60.5t-95.5 77t-68.5 107.5 t-25.5 144.5q0 90 34.5 163.5t101 126.5t162 81t215.5 28q99 0 186 -12t125 -20v-353h-199q-4 20 -11 65.5t-11 96.5q-13 3 -44.5 6.5t-69.5 3.5q-49 0 -87.5 -10.5t-65 -31t-40 -50t-13.5 -66.5q0 -47 25 -81.5t66.5 -60.5t98.5 -50.5t123.5 -53.5t119.5 -61t96 -77.5 t68.5 -108.5t25.5 -145z" />
<glyph unicode="T" horiz-adv-x="1202" d="M971 992l-14.5 87t-11.5 84h-211v-972q45 -3 90.5 -10t87.5 -16v-165h-623v165q43 9 88.5 16t90.5 10v972h-212q-3 -33 -7 -59t-18 -112h-196v390h1132v-390h-196z" />
<glyph unicode="U" horiz-adv-x="1456" d="M1409 1213q-69 -16 -126 -22v-653q0 -137 -37.5 -242t-110.5 -176.5t-179.5 -107.5t-243.5 -36q-106 0 -189 19t-142.5 53.5t-99.5 81.5t-63 104t-33 119.5t-10 132.5v705q-60 7 -128 22v169h542v-169q-35 -8 -73 -13.5t-74 -8.5v-688q0 -72 13 -127t45 -95.5t88 -62.5 t140 -22q78 0 133 18t90 57t52 102t17 154v664q-36 3 -74.5 8.5t-73.5 13.5v169h537v-169z" />
<glyph unicode="V" horiz-adv-x="1386" d="M1371 1213q-24 -6 -52.5 -10.5t-55.5 -7.5l-418 -1195h-308l-414 1195q-26 3 -55 7.5t-52 10.5v169h543v-165q-34 -7 -72.5 -13t-74.5 -10l205 -620q18 -59 40 -129.5t41 -142.5h3q8 33 17 67t19 69t22 73t25 79l207 604q-36 4 -73.5 10t-70.5 13v165h524v-169v0z" />
<glyph unicode="W" horiz-adv-x="1997" d="M1979 1213q-23 -6 -52 -10.5t-55 -7.5l-261 -1195h-348l-216 743q-19 66 -34 138t-26 148h-2q-7 -73 -19.5 -145t-29.5 -141l-200 -743h-349l-263 1195q-26 3 -55 7.5t-52 10.5v169h527v-165q-33 -7 -70 -13t-74 -10l139 -615q7 -34 14 -71t13 -74.5t11 -75t9 -72.5h2 q6 34 13 71t14.5 73.5t15.5 72t17 69.5l225 810h262l241 -820q18 -62 34.5 -133.5t28.5 -142.5h2q6 73 14.5 142.5t18.5 130.5l129 635q-36 4 -70.5 10t-67.5 13v165h514v-169v0z" />
<glyph unicode="X" horiz-adv-x="1419" d="M803 0v169q30 7 60 11.5t59 6.5l-232 347l-228 -347q26 -2 56 -7t59 -11v-169h-556v168q35 7 68 12t61 7l386 511l-374 497q-26 2 -56.5 7.5t-64.5 12.5v167h590v-169q-26 -6 -56 -10.5t-62 -7.5l210 -320l214 320q-29 3 -58 7.5t-55 10.5v169h552v-167q-31 -7 -66 -12.5 t-64 -8.5l-364 -484l397 -523q26 -2 54.5 -7t64.5 -12v-168h-595z" />
<glyph unicode="Y" horiz-adv-x="1251" d="M1238 1213q-23 -6 -53 -10.5t-56 -7.5l-372 -724v-280q46 -3 92 -10t86 -16v-165h-623v165q40 9 85.5 16t92.5 10v279l-367 725q-23 3 -53.5 7.5t-53.5 10.5v169h526v-169q-28 -7 -58.5 -11.5t-61.5 -7.5l125 -273q10 -24 21.5 -50t23.5 -53t23 -53t20 -50h2 q9 25 20 52.5t22.5 55.5t23.5 54.5t23 49.5l124 267q-33 3 -64 7.5t-60 11.5v169h512v-169v0z" />
<glyph unicode="Z" horiz-adv-x="1112" d="M83 0v206l539 827q22 34 43 66t46 64q-36 -2 -86 -2.5t-117 -0.5h-187q-3 -35 -8.5 -74t-15.5 -80h-201v376h929v-213l-568 -848q-15 -25 -30.5 -48t-33.5 -47q13 1 34 2t50 1h64.5h76.5h194q4 37 10.5 78t16.5 86h195v-393h-951z" />
<glyph unicode="[" horiz-adv-x="672" d="M146 -419v2011h451v-210h-205v-1592h205v-209h-451z" />
<glyph unicode="\" horiz-adv-x="981" d="M731 -330l-717 1880h258l718 -1880h-259z" />
<glyph unicode="]" horiz-adv-x="672" d="M74 -420v209h205v1594h-205v209h450v-2012h-450z" />
<glyph unicode="^" d="M812 690l-268 505l-257 -505l-174 92l335 600h201l350 -597z" />
<glyph unicode="_" d="M0 -504v210h1126v-210h-1126z" />
<glyph unicode="`" horiz-adv-x="717" d="M466 1143l-332 263l143 156l306 -294z" />
<glyph unicode="a" horiz-adv-x="1110" d="M1079 14q-12 -1 -43.5 -4.5t-87 -7t-127 -5t-144.5 1.5q-1 69 3 113t7 60l-3 1q-18 -42 -50 -77.5t-74 -62t-92 -40.5t-104 -14q-70 0 -125.5 20t-93.5 57.5t-57.5 90.5t-19.5 117q0 90 44 157t123 110t186 64.5t235 23.5v50q0 46 -9 79t-30 55t-56 33.5t-86 11.5 q-49 0 -90 -8t-59 -14q-2 -40 -9 -79t-11 -57h-165v297q39 13 135.5 32.5t225.5 19.5q119 0 199.5 -23.5t128.5 -68.5t68.5 -110t20.5 -153v-484q20 -3 65.5 -9.5t94.5 -10.5v-166zM656 450q-81 0 -143.5 -8t-106 -26t-66.5 -47.5t-23 -71.5q0 -27 8 -49t24 -37.5t39.5 -24 t53.5 -8.5q46 0 85.5 20.5t68.5 55.5t44.5 79t15.5 90v27z" />
<glyph unicode="b" horiz-adv-x="1147" d="M1075 561q0 -129 -36.5 -235.5t-108 -184t-174.5 -119.5t-232 -42q-55 0 -104.5 3t-95.5 9t-90 15t-88 21v1267q-39 6 -84.5 11.5t-88.5 8.5v165q49 5 102 9t108 6t111 2.5t112 -1.5v-439q0 -23 -1 -49.5t-3 -53t-5 -51.5t-6 -44l3 -1q19 42 49 75.5t70 57t87 36 t100 12.5q91 0 161 -32t117.5 -94t72 -150.5t24.5 -201.5zM800 535q0 72 -10.5 125.5t-32.5 89.5t-54.5 54t-77.5 18q-33 0 -62.5 -12.5t-54 -35t-43.5 -53t-32 -67t-20 -77.5t-7 -83v-287q30 -9 63 -13.5t75 -4.5q58 0 104.5 19t80.5 60.5t52.5 108t18.5 158.5z" />
<glyph unicode="c" horiz-adv-x="915" d="M865 31q-35 -11 -71 -20.5t-74.5 -16t-80 -10.5t-84.5 -4q-74 0 -138.5 13t-118.5 39t-96.5 67t-71.5 96.5t-44.5 126.5t-15.5 157q0 120 31.5 221.5t96.5 177t166 117.5t235 42q60 0 122.5 -9t118.5 -25v-337h-167q-4 18 -11 58t-11 84q-9 3 -32.5 7t-53.5 4 q-51 0 -92.5 -21.5t-70.5 -61.5t-44.5 -96.5t-15.5 -126.5q0 -74 14 -130.5t45.5 -96t82.5 -60t123 -20.5q55 0 115 11t110 31z" />
<glyph unicode="d" horiz-adv-x="1194" d="M1166 15q-44 -5 -95 -9t-104.5 -6t-107 -2.5t-102.5 1.5q0 21 0.5 42t2 43.5t3.5 44.5t6 41h-4q-21 -43 -52.5 -78t-72.5 -60.5t-90.5 -39.5t-106.5 -14q-92 0 -162 33t-116.5 95.5t-70 151t-23.5 198.5q0 128 36.5 235t106.5 184.5t170.5 119t225.5 41.5q30 0 60 -2 t69 -5v266q-37 6 -85.5 11.5t-92.5 8.5v165q49 5 102.5 9t110 6t113.5 2.5t113 -1.5v-1296q37 -6 82.5 -11.5t83.5 -8.5v-165zM739 812q-33 9 -66.5 12.5t-70.5 3.5q-58 0 -104.5 -19t-80.5 -60t-52.5 -107.5t-18.5 -159.5q0 -71 10.5 -124.5t32 -90t54.5 -54.5t77 -18 q33 0 63 12.5t54.5 35t43.5 53.5t32 68t19.5 78.5t6.5 84.5v285z" />
<glyph unicode="e" horiz-adv-x="1053" d="M975 606q0 -26 -1.5 -53t-3 -48.5t-2.5 -34t-2 -17.5h-630q0 -67 16 -117.5t49 -84.5t84 -51t121 -17q74 0 151 13.5t155 39.5l28 -194q-86 -31 -180.5 -47t-184.5 -16q-123 0 -217 31t-158 95t-97 162.5t-33 232.5q0 115 33 213.5t95.5 171.5t152.5 113.5t201 40.5 q109 0 189.5 -33t132 -91.5t76.5 -137t25 -171.5zM716 629q1 53 -10.5 93.5t-35 68t-57 41.5t-75.5 14q-40 0 -74.5 -14.5t-61 -42.5t-43.5 -68.5t-22 -91.5h379z" />
<glyph unicode="f" horiz-adv-x="768" d="M802 1280q-36 10 -70 14.5t-64 4.5q-87 0 -130 -46.5t-43 -148.5v-86h243v-202h-243v-625q46 -3 92 -10t86 -16v-165h-617v165q40 9 86 16t92 10v625h-205v202h205v83q0 103 25.5 180t76.5 128.5t128.5 76.5t182.5 25q42 0 84.5 -4t89.5 -13z" />
<glyph unicode="g" horiz-adv-x="1106" d="M929 813q22 -53 22 -118q0 -83 -27 -153t-81.5 -120.5t-136.5 -79t-193 -28.5q-37 0 -71 3q-37 -29 -37 -61q0 -14 6 -25t22 -18.5t44.5 -12.5t72.5 -6l143 -6q178 -6 269.5 -80.5t91.5 -222.5q0 -83 -38 -156t-109 -127t-173 -85.5t-230 -31.5q-103 0 -185.5 19 t-140.5 56.5t-89 93.5t-31 130q0 78 45 143.5t117 110.5l1 1q-91 50 -91 152q0 57 31.5 105t88.5 80q-78 48 -115 121.5t-37 159.5q0 81 27 151t82 121.5t137 81t192 29.5q46 0 88 -5.5t80 -16.5h341v-205h-116zM421 -10q-49 -34 -73.5 -74.5t-24.5 -82.5q0 -72 58.5 -112 t163.5 -40q63 0 110.5 13t78.5 35.5t46.5 54t15.5 67.5q0 27 -9 50.5t-29.5 41t-54 28t-82.5 12.5l-156 5zM703 674q0 38 -12 70t-34.5 55.5t-56 36.5t-76.5 13q-42 0 -75 -13t-55.5 -36t-34.5 -55t-12 -71t12 -71t34.5 -55.5t55.5 -36.5t75 -13q85 0 132 49t47 127z" />
<glyph unicode="h" horiz-adv-x="1276" d="M823 0v651q0 41 -6.5 72t-20.5 52.5t-38.5 33t-60.5 11.5q-49 0 -92.5 -25.5t-76 -71.5t-50.5 -106.5t-18 -126.5v-299q47 -4 86 -11t55 -11v-169h-567v165q40 10 82 16.5t83 9.5v1104q-38 6 -84.5 11.5t-87.5 8.5v165q48 5 100.5 9t108 6t112 2.5t112.5 -1.5v-439 q0 -24 -1 -51t-3 -54.5t-5 -53.5t-8 -47l3 -1q22 43 55 77.5t75.5 59.5t93.5 38.5t110 13.5q83 0 142 -25t94.5 -69t51.5 -102t16 -128v-524q39 -3 81 -10t80 -16v-165h-422z" />
<glyph unicode="i" horiz-adv-x="676" d="M513 1328q0 -32 -12.5 -61t-35.5 -51t-53 -34t-63 -12t-63 12t-52.5 34t-35 51t-12.5 61t12.5 61.5t35 51t52.5 34t63 12.5t63 -12t53 -34t35.5 -51t12.5 -62zM52 0v165q20 5 66.5 13.5t100.5 12.5v627q-37 6 -82.5 11.5t-84.5 8.5v164q49 6 101 10t106 6t109.5 2.5 t110.5 -1.5v-828q42 -3 82.5 -9.5t79.5 -16.5v-165h-589z" />
<glyph unicode="j" horiz-adv-x="596" d="M486 1328q0 -32 -12.5 -61t-35 -51t-52.5 -34t-63 -12t-63 12t-53 34t-35.5 51t-12.5 61t12.5 61t35.5 51t53 34.5t63 12.5t63 -12t52.5 -34t35 -51t12.5 -62zM454 -77q0 -105 -21.5 -184.5t-69 -134t-125 -83t-186.5 -28.5q-32 0 -72.5 4t-68.5 9l18 224q27 -8 59 -13 t58 -5q41 0 68.5 9.5t45 31t25.5 57t8 87.5v921q-39 6 -83 11.5t-84 8.5v164q48 6 99.5 10t106 6t110.5 2.5t112 -1.5v-1096z" />
<glyph unicode="k" horiz-adv-x="1214" d="M832 0l-372 516v-325q38 -3 71 -8.5t58 -13.5v-169h-555v165q38 9 81 16t84 10v1104q-38 6 -84.5 11.5t-87.5 8.5v165q48 5 100.5 9t108 6t112 2.5t112.5 -1.5v-953l251 289q-31 3 -60.5 9t-48.5 13v164h545v-169q-28 -7 -63.5 -12.5t-72.5 -8.5l-259 -276l274 -359 q35 -4 74 -10t75 -13v-170h-343z" />
<glyph unicode="l" horiz-adv-x="655" d="M34 0v165q39 9 81 16t84 10v1104q-38 6 -84.5 11.5t-87.5 8.5v165q49 5 102 9t108 6t111 2.5t112 -1.5v-1305q42 -3 82 -9.5t80 -16.5v-165h-588z" />
<glyph unicode="m" horiz-adv-x="1901" d="M1447 0v650q0 41 -5.5 71.5t-19.5 52.5t-37.5 34t-58.5 12q-44 0 -86 -24.5t-75.5 -69t-52.5 -106t-19 -133.5v-296q47 -4 85.5 -11t54.5 -11v-169h-399v651q0 39 -5 69t-18.5 52.5t-37.5 35t-60 12.5q-46 0 -88 -25t-75 -71t-52 -107t-19 -130v-296q48 -4 86.5 -11 t54.5 -11v-169h-568v165q20 5 66.5 13.5t100.5 12.5v627q-37 6 -82.5 11.5t-84.5 8.5v164q49 6 100.5 10t104.5 6t106 2.5t103 -1.5q0 -18 -1 -41t-2.5 -48t-4 -49.5t-5.5 -45.5l2 -1q23 46 57.5 84t78 65t95 41.5t107.5 14.5q43 0 79.5 -8t65.5 -22.5t51 -34t38 -42 t27 -46.5t17 -50q19 39 50 75t73 65t95.5 46t116.5 17q78 0 135.5 -22.5t94.5 -66t54.5 -104.5t17.5 -139v-516q56 -4 99.5 -12.5t61.5 -13.5v-165h-422z" />
<glyph unicode="n" horiz-adv-x="1294" d="M842 0v650q0 42 -6.5 73t-20.5 52.5t-38.5 33t-60.5 11.5q-48 0 -91 -25t-76 -70.5t-51.5 -106t-18.5 -129.5v-298q48 -4 86.5 -11t54.5 -11v-169h-568v165q20 5 66.5 13.5t100.5 12.5v627q-37 6 -82.5 11.5t-84.5 8.5v164q49 6 100.5 10t104.5 6t106 2.5t103 -1.5 q0 -18 -1 -41.5t-2.5 -48.5t-4 -49.5t-5.5 -44.5l2 -1q23 46 56.5 83.5t76.5 65t96 42t113 14.5q84 0 143.5 -25t95 -70t51.5 -104.5t16 -132.5v-516q56 -4 99.5 -12.5t61.5 -13.5v-165h-422z" />
<glyph unicode="o" horiz-adv-x="1135" d="M1066 532q0 -118 -34.5 -219t-101 -176t-164 -116.5t-219.5 -41.5q-110 0 -198 30.5t-150.5 93.5t-96 159t-33.5 224q0 118 34.5 219t101 176t163.5 116.5t219 41.5q110 0 198 -30.5t151 -93.5t96.5 -159t33.5 -224zM795 509q0 74 -15 131.5t-44 97t-71.5 59.5t-95.5 20 t-95 -19.5t-72 -58.5t-46 -97t-16 -133q0 -74 15 -131.5t44 -96.5t71 -58.5t95 -19.5q51 0 93 18.5t73 56t47.5 96t16.5 135.5z" />
<glyph unicode="p" horiz-adv-x="1196" d="M1123 562q0 -133 -34.5 -239.5t-102.5 -182t-169 -115.5t-231 -40q-19 0 -35.5 0.5t-32 1.5t-31.5 3t-32 5v-297q44 -3 90.5 -10t87.5 -16v-165h-605v165q48 11 86 17t80 9v1120q-41 7 -83 12t-83 8v164q47 6 98.5 10t104.5 6t105.5 2.5t102.5 -1.5q0 -19 -1 -40.5 t-2.5 -44t-3.5 -45t-5 -41.5h4q22 45 52.5 80.5t71 60t90 37.5t106.5 13q90 0 159.5 -32t117 -93t71.5 -150t24 -202zM847 535q0 72 -10.5 125.5t-32 90t-54 54.5t-76.5 18q-34 0 -63.5 -12.5t-54 -35t-43.5 -53.5t-32 -68.5t-19.5 -79t-6.5 -84.5v-283q30 -9 63.5 -13.5 t72.5 -4.5q58 0 104.5 19t80.5 60.5t52.5 108t18.5 158.5z" />
<glyph unicode="q" horiz-adv-x="1145" d="M563 -493v165q42 9 87.5 16t90.5 10v269q0 23 0.5 47t2.5 49.5t4.5 51.5t6.5 49l-4 1q-20 -43 -50 -77.5t-69 -59t-85 -37.5t-96 -13q-91 0 -161.5 30.5t-119 90.5t-73 149t-24.5 206q0 129 36.5 236.5t107.5 185t175 119.5t237 42q52 0 101.5 -2t95.5 -6t89.5 -10 t86.5 -13v-1308q44 -3 86 -10t78 -16v-165h-603zM741 815q-36 7 -68.5 10.5t-68.5 3.5q-58 0 -104.5 -19t-80.5 -60.5t-52.5 -108t-18.5 -159.5q0 -71 10.5 -124.5t32 -90t54 -54.5t76.5 -18q34 0 63.5 12.5t54 35t43.5 54t32 69t20 80t7 86.5v283z" />
<glyph unicode="r" horiz-adv-x="840" d="M52 0v165q24 6 79 15t88 11v627q-37 6 -82.5 11.5t-84.5 8.5v164q98 11 204 16t209 1q0 -20 -1.5 -45.5t-3.5 -53.5t-6 -57.5t-8 -56.5l3 -1q21 57 46 101.5t58 74.5t76.5 45.5t102.5 15.5q15 0 38.5 -2t34.5 -3l-7 -255q-38 5 -53 6t-31 1q-69 0 -114.5 -33t-72 -86 t-37.5 -120t-11 -134v-225q32 -2 88 -11t80 -15v-165h-595z" />
<glyph unicode="s" horiz-adv-x="909" d="M613 718q-4 18 -8 37.5t-7.5 43.5t-5.5 50q-13 2 -29 5q-14 2 -32.5 3.5t-38.5 1.5q-74 0 -114 -26t-40 -74q0 -34 21.5 -58t57 -42.5t80.5 -34.5t91.5 -34.5t91.5 -42.5t80.5 -58t57 -81.5t21.5 -112.5q0 -71 -27.5 -129t-82.5 -99.5t-138 -64.5t-195 -23 q-63 0 -118.5 4.5t-97.5 9.5q-49 6 -91 15v302h169q4 -19 7.5 -38.5t7 -43t6.5 -48.5q18 -4 38.5 -7.5t45 -6t53.5 -2.5q75 0 116.5 28t41.5 79q0 34 -21.5 58.5t-56.5 43t-79.5 35t-91 35t-91 42.5t-79.5 58t-56.5 81.5t-21.5 112.5q0 67 27.5 122.5t82 95.5t136 62 t189.5 22q50 0 97.5 -4.5t85.5 -9.5q44 -6 84 -14v-293h-166z" />
<glyph unicode="t" horiz-adv-x="768" d="M705 7q-51 -12 -111 -19.5t-111 -7.5q-86 0 -142 16.5t-89.5 53.5t-48 97.5t-14.5 151.5v517h-177v202h177v313l260 71v-384h247v-202h-247v-448q0 -50 6 -82t20 -51t37 -27t58 -8q30 0 59 4t57 11z" />
<glyph unicode="u" horiz-adv-x="1276" d="M1243 14q-45 -5 -95.5 -8.5t-104 -5.5t-107 -2.5t-102.5 1.5q0 20 1 43t2.5 47.5t4 48t5.5 44.5l-4 1q-23 -46 -56.5 -83t-77.5 -64.5t-97.5 -42t-114.5 -14.5q-83 0 -142 25t-94.5 69t-51.5 102t-16 128v515q-40 6 -82 11.5t-80 8.5v166q45 5 95.5 8.5t105 5.5t111 2.5 t112.5 -1.5v-652q0 -42 6 -72.5t20.5 -52t38.5 -33t60 -11.5q49 0 92.5 25.5t76 71.5t50.5 105.5t18 125.5v293q-33 6 -71.5 10.5t-75.5 7.5v168q46 5 95.5 8.5t101 5.5t105 2t106.5 -2v-819q38 -6 82.5 -11.5t82.5 -8.5v-166z" />
<glyph unicode="v" horiz-adv-x="1169" d="M1153 852q-26 -7 -55.5 -12.5t-59.5 -9.5l-274 -830h-361l-272 830q-31 4 -61 9.5t-54 12.5v166h502v-169q-25 -6 -53 -11t-54 -7l123 -387q16 -48 31.5 -103.5t28.5 -108.5h3q14 54 29 109t29 103l115 387q-27 2 -54.5 7t-52.5 11v169h490v-166z" />
<glyph unicode="w" horiz-adv-x="1737" d="M1721 849q-25 -6 -53 -11t-57 -8l-256 -830h-290l-147 452q-17 53 -31.5 108.5t-27.5 118.5h-2q-15 -66 -31.5 -126.5t-37.5 -129.5l-129 -423h-287l-245 830q-31 3 -59 8t-52 11v169h488v-169q-26 -6 -51.5 -10.5t-51.5 -6.5l80 -294q20 -75 35.5 -132t25.5 -103h3 q13 68 30 131t41 140l140 444h242l139 -444l22.5 -75t19 -67t16 -62.5t16.5 -66.5h3q6 28 12 54.5t13 52.5t14 50.5t18 62.5l88 309q-25 2 -51.5 6.5t-51.5 10.5v169h465v-169z" />
<glyph unicode="x" horiz-adv-x="1110" d="M720 0l-177 337l-179 -337h-345v170q49 9 85.5 15t70.5 9l209 320l-195 310q-34 3 -71 9t-84 15v170h352l176 -330l178 330h335v-170q-47 -9 -84 -15t-71 -9l-187 -307l201 -323q34 -3 71 -9t84 -15v-170h-369z" />
<glyph unicode="y" horiz-adv-x="1159" d="M1142 849q-24 -6 -52 -11t-58 -8l-323 -935q-40 -117 -85 -195t-99.5 -124.5t-122.5 -67t-158 -20.5q-16 0 -36 1t-41.5 3.5t-42 5.5t-38.5 6l15 226q41 -12 75.5 -17.5t70.5 -5.5q34 0 61.5 9.5t52.5 31.5t47 60t42 93l34 99h-73l-284 830q-32 3 -60.5 8t-50.5 11v169 h490v-169q-25 -6 -50.5 -10.5t-52.5 -6.5l103 -292q24 -71 43.5 -136.5t35.5 -134.5h4q7 31 16.5 67t21 75t24 79t25.5 79l89 263q-26 2 -51.5 6.5t-50.5 10.5v169h479v-169z" />
<glyph unicode="z" horiz-adv-x="938" d="M77 0v193l475 633q-15 -1 -37 -1.5t-46.5 -1t-50 -1t-49.5 -0.5h-93q-4 -33 -8.5 -63t-12.5 -64h-170v323h759v-193l-465 -619q16 1 38 1.5t46.5 1t49.5 0.5h48h104q4 31 8.5 62.5t12.5 66.5h171v-338h-780z" />
<glyph unicode="{" horiz-adv-x="741" d="M632 -419q-99 0 -170 26.5t-115.5 82.5t-65.5 142t-21 205v277q0 64 -12.5 106.5t-38.5 68.5t-64.5 38t-89.5 15v198q52 2 91 13t64.5 35.5t37.5 66t12 107.5v176q0 112 20.5 197t64.5 142t115 86t172 29h44v-208q-50 0 -83.5 -10t-53 -36.5t-27.5 -74t-8 -121.5v-176 q0 -82 -13.5 -139.5t-38 -96t-59.5 -59.5t-79 -28v-3q43 -7 78 -29t59.5 -62t38.5 -99.5t14 -140.5v-274q0 -74 8 -121.5t27.5 -74.5t53 -37.5t83.5 -10.5v-210h-44z" />
<glyph unicode="|" horiz-adv-x="590" d="M187 -493v2048h207v-2048h-207z" />
<glyph unicode="}" horiz-adv-x="737" d="M693 542q-51 -3 -89.5 -15t-64 -38t-38.5 -68.5t-13 -106.5v-277q0 -119 -21 -205t-65.5 -142t-115.5 -82.5t-170 -26.5h-44v210q50 0 83 10.5t53 37.5t28.5 74.5t8.5 121.5v274q0 81 13.5 140.5t38 99.5t59 62t77.5 29v3q-43 6 -78 27t-59.5 59t-37.5 95.5t-13 137.5 v180q0 74 -8.5 121.5t-28.5 74t-53 36.5t-83 10v208h44q102 0 173 -29t115 -86t64 -142t20 -197v-172q0 -67 12.5 -109.5t38 -67.5t64 -36t90.5 -13v-198v0z" />
<glyph unicode="~" d="M1041 1159q0 -74 -21.5 -134.5t-61.5 -103t-96.5 -66t-128.5 -23.5q-58 0 -99 15.5t-70.5 39.5t-51.5 51.5t-42.5 51t-42 39.5t-50.5 16q-25 0 -43 -10.5t-29.5 -31.5t-17.5 -52t-6 -71h-194v37q0 74 21 134t61.5 103t97.5 66.5t128 23.5q58 0 99 -15.5t70.5 -39.5 t52 -52t42.5 -51.5t41.5 -39.5t50.5 -16q24 0 42.5 10.5t30 31.5t17.5 52.5t6 71.5h194v-37v0z" />
<glyph unicode="&#xa1;" horiz-adv-x="657" d="M473 885q0 -32 -12.5 -60.5t-34 -49.5t-50.5 -33t-63 -12t-63 12t-50.5 33t-34 49.5t-12.5 60.5q0 33 12.5 61t34 49t50.5 33.5t63 12.5t63 -12.5t50.5 -33.5t34 -49t12.5 -61zM158 -432l39 1065h225l44 -1065h-308z" />
<glyph unicode="&#xa2;" d="M978 262q-60 -25 -119.5 -41.5t-112.5 -20.5v-200h-198v202q-96 9 -170.5 45t-125 95.5t-77 141.5t-26.5 182q0 98 27.5 179t79 143t125.5 103t167 60v180h198v-168q45 -2 97 -11.5t108 -26.5v-327h-166q-8 39 -13 73t-8 67q-22 6 -45 9.5t-51 3.5q-51 0 -96 -16.5 t-78.5 -49.5t-52 -84t-18.5 -120q0 -60 16 -109t49 -83t85 -53t123 -19q34 0 64 4t57.5 10.5t54 15.5t52.5 21l54 -206v0z" />
<glyph unicode="&#xa3;" d="M106 0v178q103 53 145 121.5t42 175.5q0 27 -1.5 56t-4.5 53h-195v188h166q-9 71 -13.5 117.5t-4.5 89.5q0 96 29 167.5t85.5 118.5t137.5 70t186 23q28 0 60 -2t64 -5t62.5 -7.5t55.5 -10.5v-329h-166q-9 36 -15.5 70t-9.5 65q-16 4 -32 6t-31 2q-85 0 -125.5 -40 t-40.5 -112q0 -29 9 -111.5t11 -111.5h295v-188h-268q3 -16 4.5 -41t1.5 -47q0 -44 -7 -82.5t-22 -72.5t-40.5 -65t-61.5 -59q16 1 41 2.5t49.5 2.5t48.5 1h227q4 35 11.5 78t17.5 82h178v-383h-889z" />
<glyph unicode="&#xa4;" d="M854 96l-157 212q-34 -16 -73 -24.5t-80 -8.5q-32 0 -59.5 4.5t-53.5 12.5l-141 -193l-202 142l140 175q-33 46 -51.5 108t-18.5 145q0 75 20.5 138t59.5 112l-149 189l199 141l146 -198q34 14 71 20t77 6q32 0 66 -4.5t65 -17.5l143 197l198 -146l-144 -182 q27 -42 42.5 -100t15.5 -135q0 -73 -19.5 -134.5t-55.5 -110.5l161 -202zM740 684q0 47 -10.5 84.5t-32 64t-55.5 40.5t-81 14q-35 0 -66.5 -13.5t-55.5 -39.5t-38 -65.5t-14 -90.5q0 -46 10 -84.5t31 -67t54.5 -45t80.5 -16.5q34 0 66 13t56.5 40t39.5 68.5t15 97.5z" />
<glyph unicode="&#xa5;" d="M1114 1165q-43 -9 -58.5 -12t-35.5 -4l-252 -496h217v-141h-295v-113h295v-145h-295v-82q41 -3 83 -10t79 -17v-145h-582v145q35 10 77.5 17t82.5 10v82h-295v145h295v113h-295v141h217l-246 496q-18 1 -41.5 5.5t-54.5 10.5v166h479v-166q-23 -6 -54 -10t-58 -6 l102 -229q25 -53 44.5 -100.5t39.5 -100.5h4q17 46 41 100.5t54 116.5l100 213q-28 2 -58 6t-55 10v166h465v-166z" />
<glyph unicode="&#xa6;" horiz-adv-x="590" d="M187 801v754h207v-754h-207zM187 -493v774h207v-774h-207z" />
<glyph unicode="&#xa7;" horiz-adv-x="1085" d="M938 505q0 -44 -11.5 -86t-32 -79.5t-50 -70.5t-64.5 -59q34 -44 55.5 -96t21.5 -119q0 -62 -25 -122t-80.5 -108.5t-143.5 -77.5t-213 -29q-18 0 -39.5 1t-44 4t-44.5 6.5t-42 8.5l17 220q21 -7 40.5 -11.5t39.5 -7.5t39 -4.5t38 -1.5q45 0 78.5 9.5t55.5 26.5t32 39.5 t10 49.5q0 35 -19 67t-51 64t-72.5 65.5t-83 70t-83.5 78.5t-73 90.5t-51 106.5t-19 127q0 44 10 86t30.5 79.5t49.5 70.5t66 60q-37 47 -56.5 97t-19.5 115q0 66 23.5 127t75 107.5t133.5 74t198 27.5q40 0 84.5 -4t83.5 -13l-15 -216q-37 11 -72.5 15.5t-72.5 4.5 q-83 0 -120.5 -29.5t-37.5 -85.5q0 -33 19.5 -65.5t51 -64t72.5 -66.5t84 -73.5t84 -81.5t73 -93t51.5 -107.5t19.5 -126.5zM701 471q0 50 -22.5 93t-60.5 84.5t-87.5 85.5t-104.5 97q-33 -26 -49.5 -60.5t-16.5 -70.5q0 -45 18.5 -85t53.5 -81.5t86.5 -88t117.5 -103.5 q34 25 49.5 59.5t15.5 69.5z" />
<glyph unicode="&#xa8;" horiz-adv-x="965" d="M830 1328q0 -29 -11 -54.5t-30.5 -45t-45 -30.5t-54.5 -11t-54.5 11t-45 30.5t-30.5 45t-11 54.5t11 55t30.5 45.5t45 30.5t54.5 11t54.5 -11t45 -30.5t30.5 -45.5t11 -55zM417 1328q0 -29 -11 -54.5t-30.5 -45t-45.5 -30.5t-55 -11t-54.5 11t-45 30.5t-30.5 45t-11 54.5 t11 55t30.5 45.5t45 30.5t54.5 11t55 -11t45.5 -30.5t30.5 -45.5t11 -55z" />
<glyph unicode="&#xa9;" horiz-adv-x="1561" d="M1482 692q0 -96 -24.5 -185.5t-70 -168t-109.5 -142t-142.5 -109.5t-169.5 -70.5t-188 -24.5t-187.5 24.5t-168.5 69.5t-141.5 108.5t-109 141.5t-69.5 167.5t-24 184.5q0 96 24.5 185.5t70 168t109.5 142.5t142.5 109.5t169 70t187.5 24.5t187.5 -24t169 -69.5 t142 -108.5t109 -141t69.5 -167.5t24 -185.5zM1300 689q0 108 -39 205t-110.5 170.5t-166.5 114.5t-204 41q-108 0 -203.5 -41t-167 -114t-110.5 -169.5t-39 -204.5t39 -204.5t110.5 -170t167 -114.5t203.5 -41t203.5 41t167 114.5t110.5 169.5t39 203zM1005 349 q-101 -36 -218 -36q-95 0 -164 26t-112.5 74t-64 114t-20.5 148q0 81 22 152.5t69 127.5t122 87.5t178 31.5q91 0 171 -19v-270h-138q-12 48 -18 108q-22 2 -45 2q-74 0 -108 -51.5t-34 -147.5q0 -105 42.5 -153t138.5 -48q74 0 152 28z" />
<glyph unicode="&#xaa;" horiz-adv-x="877" d="M841 680q-34 -4 -75 -7.5t-84.5 -5t-87 -2t-83.5 0.5q0 28 1.5 55t6.5 52l-4 1q-11 -25 -33 -47.5t-51.5 -39.5t-64.5 -26.5t-71 -9.5q-54 0 -95 14t-68 40t-40.5 61.5t-13.5 77.5q0 65 30 114.5t86 82.5t132.5 50t169.5 19v33q0 22 -5 39.5t-18.5 31.5t-38 21.5 t-62.5 7.5q-27 0 -49.5 -3.5t-44.5 -9.5q-2 -24 -6 -48t-9 -44h-133v223q26 8 56 15.5t63.5 13.5t69.5 9.5t71 3.5q91 0 153.5 -18t99 -51.5t52 -80t15.5 -107.5v-303q13 -2 32.5 -4.5t36.5 -4.5t33.5 -3.5t28.5 -2.5v-148zM113 360v203h670v-203h-670zM496 977 q-54 0 -94 -5.5t-67 -18t-41 -32t-14 -47.5q0 -29 20.5 -47.5t56.5 -18.5q33 0 59.5 14.5t44 37.5t26.5 48.5t9 47.5v21z" />
<glyph unicode="&#xab;" horiz-adv-x="1094" d="M774 211l-243 388l247 392l197 -94l-191 -298l194 -292zM307 202l-222 397l226 401l203 -91l-176 -310l179 -304z" />
<glyph unicode="&#xac;" d="M771 195v306h-691v218h922v-524h-231z" />
<glyph unicode="&#xae;" horiz-adv-x="1155" d="M1057 1087q-1 -99 -38 -187.5t-102 -152.5t-153.5 -98.5t-186.5 -34.5q-100 0 -187.5 36.5t-152.5 100t-102.5 150t-37.5 186.5q0 98 38 184t103.5 150t152.5 100.5t186 36.5q104 0 191 -35t152 -98.5t100.5 -151t36.5 -186.5zM897 1085q0 66 -21.5 127t-65 105t-105 68 t-128.5 24q-66 0 -128 -22.5t-105.5 -66.5t-65.5 -104.5t-22 -127.5q0 -66 23.5 -126t67 -104.5t104 -69.5t126.5 -25q67 0 128 23t104.5 66.5t65.5 104.5t22 128zM643 860l-65 172h-31v-84q9 -2 20 -5t21 -8v-75h-201v74q12 5 26 8.5t21 5.5v281q-7 2 -21 5.5t-26 7.5v74 h51q14 0 33 0.5t39.5 1.5t41 1.5t37.5 0.5q43 0 71.5 -7.5t54.5 -22t38 -39t14 -63.5q0 -44 -22 -77t-59 -47q8 -12 14 -23.5t10 -19.5l30 -73q12 -3 22.5 -6t19.5 -7v-75h-139zM643 1176q0 23 -13.5 35t-45.5 12h-19t-18 -1v-100q6 0 13.5 -0.5t13.5 -0.5q19 0 32 4.5 t21.5 12t12 17.5t3.5 21z" />
<glyph unicode="&#xaf;" horiz-adv-x="819" d="M134 1228v190h552v-190h-552z" />
<glyph unicode="&#xb0;" horiz-adv-x="795" d="M696 1228q0 -70 -26.5 -124.5t-70.5 -91t-101 -55.5t-117 -19q-68 0 -123 19.5t-93 56.5t-58.5 89.5t-20.5 119.5q0 68 27 121.5t71 90.5t99.5 56.5t112.5 19.5q80 0 136.5 -23t93 -61.5t53.5 -90t17 -108.5zM502 1228q0 22 -6 43t-19.5 38t-34 27.5t-48.5 10.5 q-25 0 -45.5 -8.5t-36 -24.5t-24 -38.5t-8.5 -49.5q0 -59 30.5 -91t81.5 -32q25 0 45 9.5t34.5 26t22.5 39.5t8 50z" />
<glyph unicode="&#xb1;" d="M688 709v-374h-249v374h-359v217h359v372h249v-372h358v-217h-358zM87 0l-1 217h952l1 -217h-952z" />
<glyph unicode="&#xb2;" horiz-adv-x="811" d="M69 734v189l192 160q57 44 94 78.5t58.5 62.5t30.5 53t9 51q0 25 -6.5 45.5t-20 35t-35.5 22.5t-52 8q-20 0 -41 -3.5t-41 -10.5q-3 -30 -8 -65.5t-11 -67.5h-157v288q62 23 143.5 37t161.5 14q85 0 148 -19t104 -53.5t60.5 -82.5t19.5 -108q0 -89 -42 -164.5 t-134 -150.5l-135 -113q53 3 133.5 4t204.5 1v-211h-676z" />
<glyph unicode="&#xb3;" horiz-adv-x="788" d="M726 1007q0 -65 -30.5 -119t-87.5 -92t-136 -58.5t-174 -20.5q-60 0 -122.5 6t-117.5 15l26 178q24 -5 50.5 -9.5t55 -8.5t58.5 -6t59 -2q34 0 62 6t49.5 18.5t33 32t11.5 45.5q0 30 -15 51.5t-52 34.5t-105 15t-170 -10v161q94 0 156.5 8t99 23.5t52 39t15.5 57.5 q0 20 -7 36.5t-21 28.5t-35.5 18.5t-49.5 6.5q-16 0 -33 -2.5t-41 -6.5q-3 -30 -8 -57.5t-11 -49.5h-157v253q32 7 67 13t71 10t73 6.5t73 2.5q83 0 145 -16t102 -46t59.5 -71.5t19.5 -93.5q0 -74 -34 -125t-99 -77q38 -7 69 -25.5t53.5 -44.5t34 -58t11.5 -67z" />
<glyph unicode="&#xb4;" horiz-adv-x="717" d="M251 1143l-117 124l305 295l144 -153z" />
<glyph unicode="&#xb6;" horiz-adv-x="1206" d="M981 1174v-1371h-365v209h142v1370h356v-208h-133zM599 472q-128 0 -220 36.5t-151.5 99t-87.5 145.5t-28 176q0 103 35.5 186.5t100 143t154 91.5t197.5 32v-910z" />
<glyph unicode="&#xb7;" horiz-adv-x="551" d="M446 609q0 -35 -13.5 -66t-36.5 -54t-54 -36t-66 -13t-66 13t-54 36t-36.5 54t-13.5 66t13.5 66t36.5 54.5t54 36.5t66 13t66 -13t54 -36.5t36.5 -54.5t13.5 -66z" />
<glyph unicode="&#xb8;" horiz-adv-x="571" d="M372 -82q39 -53 54.5 -105.5t8.5 -102.5t-33.5 -97t-70.5 -93h-197q39 46 60 86t24.5 79t-11.5 79.5t-51 86.5z" />
<glyph unicode="&#xb9;" horiz-adv-x="709" d="M505 915q36 -4 78 -11.5t83 -17.5v-152h-599v152q37 10 85.5 18t98.5 11v484l-169 -63l-37 189l244 89h216v-699z" />
<glyph unicode="&#xba;" horiz-adv-x="901" d="M819 1039q0 -87 -29 -159.5t-82 -124t-123.5 -79t-152.5 -27.5q-76 0 -139.5 20.5t-111 64.5t-74 114.5t-26.5 168.5q0 88 29.5 160.5t82 123.5t122 77.5t148.5 26.5q78 0 142 -20t112.5 -64t75 -114t26.5 -168zM119 360v203h662v-203h-662zM596 1028q0 44 -8 79.5 t-25.5 61.5t-45.5 40t-66 14q-28 0 -54 -11t-47 -34.5t-33.5 -61t-12.5 -87.5q0 -40 7.5 -75.5t24.5 -63.5t44 -44t65 -16q31 0 58 11t48 35t33 62t12 90z" />
<glyph unicode="&#xbb;" horiz-adv-x="1094" d="M782 202l-202 90l175 311l-177 304l209 93l221 -397zM315 211l-196 94l191 298l-193 292l204 96l241 -388z" />
<glyph unicode="&#xbc;" horiz-adv-x="1843" d="M505 915q36 -4 78 -11.5t83 -17.5v-152h-599v152q37 10 85.5 18t98.5 11v484l-169 -63l-37 189l244 89h216v-699zM345 -308l-161 112l1335 1853l160 -112zM1665 -6v-79q35 -3 67 -9t60 -14v-120h-511v120q32 8 69.5 14t75.5 9v79h-380l-21 183l323 475h317v-483h132v-175 h-132zM1430 489l-216 -327q19 1 47.5 2t59 1.5t56 0.5h53.5v323z" />
<glyph unicode="&#xbd;" horiz-adv-x="1909" d="M505 915q36 -4 78 -11.5t83 -17.5v-152h-599v152q37 10 85.5 18t98.5 11v484l-169 -63l-37 189l244 89h216v-699zM345 -308l-161 112l1335 1853l160 -112zM1167 -228v189l192 160q57 44 94 78.5t58.5 62.5t30.5 53t9 51q0 25 -6.5 45.5t-20 35t-35.5 22.5t-52 8 q-20 0 -41 -3.5t-41 -10.5q-3 -30 -8 -65.5t-11 -67.5h-157v288q62 23 143.5 37t161.5 14q85 0 148 -19t104 -53.5t60.5 -82.5t19.5 -108q0 -89 -42 -164.5t-134 -150.5l-135 -113q53 3 133.5 4t204.5 1v-211h-676z" />
<glyph unicode="&#xbe;" horiz-adv-x="1808" d="M726 1007q0 -65 -30.5 -119t-87.5 -92t-136 -58.5t-174 -20.5q-60 0 -122.5 6t-117.5 15l26 178q24 -5 50.5 -9.5t55 -8.5t58.5 -6t59 -2q34 0 62 6t49.5 18.5t33 32t11.5 45.5q0 30 -15 51.5t-52 34.5t-105 15t-170 -10v161q94 0 156.5 8t99 23.5t52 39t15.5 57.5 q0 20 -7 36.5t-21 28.5t-35.5 18.5t-49.5 6.5q-16 0 -33 -2.5t-41 -6.5q-3 -30 -8 -57.5t-11 -49.5h-157v253q32 7 67 13t71 10t73 6.5t73 2.5q83 0 145 -16t102 -46t59.5 -71.5t19.5 -93.5q0 -74 -34 -125t-99 -77q38 -7 69 -25.5t53.5 -44.5t34 -58t11.5 -67zM310 -308 l-161 112l1335 1853l160 -112zM1629 -6v-79q35 -3 67 -9t60 -14v-120h-511v120q32 8 69.5 14t75.5 9v79h-380l-21 183l323 475h317v-483h132v-175h-132zM1394 489l-216 -327q19 1 47.5 2t59 1.5t56 0.5h53.5v323z" />
<glyph unicode="&#xbf;" horiz-adv-x="924" d="M689 885q0 -32 -12.5 -60.5t-34 -49.5t-51 -33t-62.5 -12q-34 0 -63 12t-50.5 33t-34 49.5t-12.5 60.5q0 33 12.5 61t34 49t50.5 33.5t63 12.5q33 0 62.5 -12.5t51 -33.5t34 -49t12.5 -61zM754 -450q-169 4 -293 40t-205 93.5t-120.5 131.5t-39.5 154q0 64 17.5 113 t45 89t61.5 73t67 63.5t62.5 62.5t48 70.5t22 85t-14.5 107.5h255q24 -73 25.5 -130t-13.5 -103.5t-42 -83.5t-59.5 -69t-66 -61t-60.5 -58.5t-44 -61.5t-17 -70q0 -46 27.5 -83t79.5 -64t126.5 -43t169.5 -19z" />
<glyph unicode="&#xc0;" horiz-adv-x="1427" d="M865 0v165q35 8 72 14t71 9l-60 176h-497l-60 -176q34 -3 73 -9t73 -14v-165h-521v166q25 7 54.5 13t55.5 8l413 1195h344l418 -1195q27 -2 56.5 -8t53.5 -13v-166h-546zM764 925q-20 63 -35.5 115t-28.5 104h-3q-12 -55 -26.5 -108t-33.5 -112l-123 -352h372zM844 1467 l-442 109l61 186l423 -153z" />
<glyph unicode="&#xc1;" horiz-adv-x="1427" d="M865 0v165q35 8 72 14t71 9l-60 176h-497l-60 -176q34 -3 73 -9t73 -14v-165h-521v166q25 7 54.5 13t55.5 8l413 1195h344l418 -1195q27 -2 56.5 -8t53.5 -13v-166h-546zM764 925q-20 63 -35.5 115t-28.5 104h-3q-12 -55 -26.5 -108t-33.5 -112l-123 -352h372zM580 1467 l-42 142l424 153l60 -186z" />
<glyph unicode="&#xc2;" horiz-adv-x="1427" d="M865 0v165q35 8 72 14t71 9l-60 176h-497l-60 -176q34 -3 73 -9t73 -14v-165h-521v166q25 7 54.5 13t55.5 8l413 1195h344l418 -1195q27 -2 56.5 -8t53.5 -13v-166h-546zM764 925q-20 63 -35.5 115t-28.5 104h-3q-12 -55 -26.5 -108t-33.5 -112l-123 -352h372zM991 1465 l-278 113l-280 -113l-59 134l344 173l335 -170z" />
<glyph unicode="&#xc3;" horiz-adv-x="1427" d="M865 0v165q35 8 72 14t71 9l-60 176h-497l-60 -176q34 -3 73 -9t73 -14v-165h-521v166q25 7 54.5 13t55.5 8l413 1195h344l418 -1195q27 -2 56.5 -8t53.5 -13v-166h-546zM764 925q-20 63 -35.5 115t-28.5 104h-3q-12 -55 -26.5 -108t-33.5 -112l-123 -352h372zM1088 1659 q-47 -83 -112 -126t-145 -43q-48 0 -83 13t-76 38.5t-59 35t-44 9.5q-36 0 -64.5 -21t-53.5 -65l-130 88q46 83 111 126t146 43q48 0 83 -13t76 -38.5t59 -35t44 -9.5q35 0 63.5 21t54.5 65z" />
<glyph unicode="&#xc4;" horiz-adv-x="1427" d="M865 0v165q35 8 72 14t71 9l-60 176h-497l-60 -176q34 -3 73 -9t73 -14v-165h-521v166q25 7 54.5 13t55.5 8l413 1195h344l418 -1195q27 -2 56.5 -8t53.5 -13v-166h-546zM764 925q-20 63 -35.5 115t-28.5 104h-3q-12 -55 -26.5 -108t-33.5 -112l-123 -352h372zM1063 1613 q0 -29 -11 -55t-30.5 -45.5t-45 -30.5t-54.5 -11t-55 11t-45.5 30.5t-30.5 45.5t-11 55t11 54.5t30.5 45t45.5 30.5t55 11t54.5 -11t45 -30.5t30.5 -45t11 -54.5zM622 1613q0 -29 -11 -55t-30.5 -45.5t-45.5 -30.5t-55 -11t-54.5 11t-45 30.5t-30.5 45.5t-11 55t11 54.5 t30.5 45t45 30.5t54.5 11t55 -11t45.5 -30.5t30.5 -45t11 -54.5z" />
<glyph unicode="&#xc5;" horiz-adv-x="1427" d="M865 0v165q35 8 72 14t71 9l-60 176h-497l-60 -176q34 -3 73 -9t73 -14v-165h-521v166q25 7 54.5 13t55.5 8l413 1195h344l418 -1195q27 -2 56.5 -8t53.5 -13v-166h-546zM764 925q-20 63 -35.5 115t-28.5 104h-3q-12 -55 -26.5 -108t-33.5 -112l-123 -352h372zM989 1695 q0 -54 -20.5 -99.5t-59 -78t-90.5 -50t-114 -17.5t-110.5 14t-82.5 42t-51.5 71.5t-17.5 100.5q0 54 20.5 99.5t59 78t90.5 50t114 17.5t110.5 -14t82.5 -42t51.5 -71.5t17.5 -100.5zM812 1686q0 28 -6 48.5t-17.5 33.5t-29.5 19.5t-41 6.5q-21 0 -39 -7t-31.5 -20.5 t-21 -33.5t-7.5 -45q0 -28 6 -49t18 -34t30 -19.5t42 -6.5q21 0 38.5 7t30.5 20.5t20.5 33.5t7.5 46z" />
<glyph unicode="&#xc6;" horiz-adv-x="1690" d="M666 0v168q34 8 72.5 14.5t72.5 10.5v159h-414l-84 -164q14 -1 30.5 -3.5t33 -5.5t32 -6.5t29.5 -6.5v-166h-501v166q24 8 54 13.5t56 6.5l528 1004q-45 3 -91 10t-87 17v165h1174v-340h-197q-5 15 -12 57.5t-10 74.5h-275v-369h223q6 38 13 69t10 44h172v-416h-172 q-3 13 -10 43.5t-13 68.5h-223v-399h285q4 43 11 80t11 53h201v-348h-919zM811 1169h-8q-16 -37 -32 -72.5t-33 -72t-35.5 -75t-38.5 -79.5l-166 -309h313v608z" />
<glyph unicode="&#xc7;" horiz-adv-x="1194" d="M1131 52q-43 -16 -92.5 -29t-102 -22.5t-105.5 -15t-102 -5.5q-164 0 -287.5 47t-205 135t-121.5 213t-40 281q0 165 44.5 301.5t132 235.5t217 152.5t296.5 53.5q79 0 164.5 -10t169.5 -28v-398h-203q-4 22 -12 71t-12 103q-16 4 -55.5 10.5t-90.5 6.5 q-83 0 -149.5 -32.5t-113 -93t-70.5 -145.5t-24 -188q0 -111 23.5 -198t73 -148t128.5 -93.5t187 -32.5q38 0 78 5t80.5 13.5t79 19.5t74.5 25zM751 -82q39 -53 54.5 -105.5t8.5 -102.5t-33.5 -97t-70.5 -93h-197q39 46 60 86t24.5 79t-11.5 79.5t-51 86.5z" />
<glyph unicode="&#xc8;" horiz-adv-x="1100" d="M47 0v165q42 9 87.5 16t90.5 10v1000q-45 3 -90.5 10t-87.5 16v165h942v-339h-198q-3 16 -10 51.5t-12 77.5h-278v-367h225q4 39 11 69.5t11 43.5h171v-416h-171q-4 13 -11 43t-11 69h-225v-400h280q5 43 12 80.5t11 53.5h201v-348h-948zM664 1467l-442 109l61 186 l423 -153z" />
<glyph unicode="&#xc9;" horiz-adv-x="1100" d="M47 0v165q42 9 87.5 16t90.5 10v1000q-45 3 -90.5 10t-87.5 16v165h942v-339h-198q-3 16 -10 51.5t-12 77.5h-278v-367h225q4 39 11 69.5t11 43.5h171v-416h-171q-4 13 -11 43t-11 69h-225v-400h280q5 43 12 80.5t11 53.5h201v-348h-948zM444 1467l-42 142l424 153 l60 -186z" />
<glyph unicode="&#xca;" horiz-adv-x="1100" d="M47 0v165q42 9 87.5 16t90.5 10v1000q-45 3 -90.5 10t-87.5 16v165h942v-339h-198q-3 16 -10 51.5t-12 77.5h-278v-367h225q4 39 11 69.5t11 43.5h171v-416h-171q-4 13 -11 43t-11 69h-225v-400h280q5 43 12 80.5t11 53.5h201v-348h-948zM843 1465l-278 113l-280 -113 l-59 134l344 173l335 -170z" />
<glyph unicode="&#xcb;" horiz-adv-x="1100" d="M47 0v165q42 9 87.5 16t90.5 10v1000q-45 3 -90.5 10t-87.5 16v165h942v-339h-198q-3 16 -10 51.5t-12 77.5h-278v-367h225q4 39 11 69.5t11 43.5h171v-416h-171q-4 13 -11 43t-11 69h-225v-400h280q5 43 12 80.5t11 53.5h201v-348h-948zM918 1613q0 -29 -11 -55 t-30.5 -45.5t-45 -30.5t-54.5 -11t-55 11t-45.5 30.5t-30.5 45.5t-11 55t11 54.5t30.5 45t45.5 30.5t55 11t54.5 -11t45 -30.5t30.5 -45t11 -54.5zM477 1613q0 -29 -11 -55t-30.5 -45.5t-45.5 -30.5t-55 -11t-54.5 11t-45 30.5t-30.5 45.5t-11 55t11 54.5t30.5 45t45 30.5 t54.5 11t55 -11t45.5 -30.5t30.5 -45t11 -54.5z" />
<glyph unicode="&#xcc;" horiz-adv-x="715" d="M47 0v165q40 9 85.5 16t92.5 10v1000q-47 3 -92.5 10t-85.5 16v165h622v-165q-40 -9 -86 -16t-92 -10v-1000q46 -3 92 -10t86 -16v-165h-622zM482 1467l-442 109l61 186l423 -153z" />
<glyph unicode="&#xcd;" horiz-adv-x="715" d="M47 0v165q40 9 85.5 16t92.5 10v1000q-47 3 -92.5 10t-85.5 16v165h622v-165q-40 -9 -86 -16t-92 -10v-1000q46 -3 92 -10t86 -16v-165h-622zM193 1467l-42 142l424 153l60 -186z" />
<glyph unicode="&#xce;" horiz-adv-x="715" d="M47 0v165q40 9 85.5 16t92.5 10v1000q-47 3 -92.5 10t-85.5 16v165h622v-165q-40 -9 -86 -16t-92 -10v-1000q46 -3 92 -10t86 -16v-165h-622zM636 1465l-278 113l-280 -113l-59 134l344 173l335 -170z" />
<glyph unicode="&#xcf;" horiz-adv-x="715" d="M47 0v165q40 9 85.5 16t92.5 10v1000q-47 3 -92.5 10t-85.5 16v165h622v-165q-40 -9 -86 -16t-92 -10v-1000q46 -3 92 -10t86 -16v-165h-622zM721 1613q0 -29 -11 -55t-30.5 -45.5t-45 -30.5t-54.5 -11t-55 11t-45.5 30.5t-30.5 45.5t-11 55t11 54.5t30.5 45t45.5 30.5 t55 11t54.5 -11t45 -30.5t30.5 -45t11 -54.5zM280 1613q0 -29 -11 -55t-30.5 -45.5t-45.5 -30.5t-55 -11t-54.5 11t-45 30.5t-30.5 45.5t-11 55t11 54.5t30.5 45t45 30.5t54.5 11t55 -11t45.5 -30.5t30.5 -45t11 -54.5z" />
<glyph unicode="&#xd0;" horiz-adv-x="1468" d="M1391 714q0 -177 -55.5 -312t-155 -226.5t-240 -137.5t-310.5 -46q-106 0 -200.5 4t-184.5 4h-178v165q40 9 86 16t92 10v411h-152v202h152v387q-46 3 -92 10t-86 16v165h173q42 0 94.5 1.5t110.5 3t121.5 2.5t127.5 1q107 0 200.5 -16t170.5 -51t138 -89t102.5 -129 t63.5 -172t22 -219zM1108 694q0 111 -23.5 199t-75 148.5t-133.5 93t-200 32.5q-23 0 -45.5 -0.5t-43 -1t-39.5 -1.5t-36 -2v-358h251v-202h-251v-372q14 -3 31.5 -4.5t36.5 -3t38.5 -2t39.5 -0.5q98 0 181 28t142.5 86.5t93 147.5t33.5 212z" />
<glyph unicode="&#xd1;" horiz-adv-x="1571" d="M1524 1213q-38 -8 -68.5 -14t-60.5 -9v-1190h-361l-378 683q-26 45 -51.5 92.5t-50.5 96.5t-48.5 97.5t-42.5 92.5q6 -77 9.5 -169t5.5 -198.5t3 -229t1 -273.5q37 -3 75.5 -9t72.5 -14v-169h-583v165q44 10 89 17t89 10v999q-45 3 -90.5 10t-87.5 16v165h540l376 -680 q26 -47 51.5 -94t50.5 -95.5t48.5 -97t42.5 -92.5q-6 81 -9.5 173.5t-5.5 198t-3 224.5t-1 271q-34 3 -69 9t-71 14v169h527v-169zM1180 1659q-47 -83 -112 -126t-145 -43q-48 0 -83 13t-76 38.5t-59 35t-44 9.5q-36 0 -64.5 -21t-53.5 -65l-130 88q46 83 111 126t146 43 q48 0 83 -13t76 -38.5t59 -35t44 -9.5q35 0 63.5 21t54.5 65z" />
<glyph unicode="&#xd2;" horiz-adv-x="1440" d="M1372 713q0 -173 -53.5 -309.5t-145 -231.5t-214.5 -145.5t-262 -50.5q-157 0 -275 49t-196.5 139t-118 218.5t-39.5 287.5q0 172 53.5 308.5t145 231.5t214 145.5t261.5 50.5q157 0 275 -49t197 -139t118.5 -218t39.5 -287zM1089 681q0 111 -22.5 200.5t-68.5 152.5 t-115 97.5t-161 34.5q-80 0 -148 -30t-117.5 -89t-77.5 -145.5t-28 -199.5q0 -110 22.5 -200t68 -153t114.5 -97t162 -34q80 0 148 30t118 88.5t77.5 145.5t27.5 199zM853 1467l-442 109l61 186l423 -153z" />
<glyph unicode="&#xd3;" horiz-adv-x="1440" d="M1372 713q0 -173 -53.5 -309.5t-145 -231.5t-214.5 -145.5t-262 -50.5q-157 0 -275 49t-196.5 139t-118 218.5t-39.5 287.5q0 172 53.5 308.5t145 231.5t214 145.5t261.5 50.5q157 0 275 -49t197 -139t118.5 -218t39.5 -287zM1089 681q0 111 -22.5 200.5t-68.5 152.5 t-115 97.5t-161 34.5q-80 0 -148 -30t-117.5 -89t-77.5 -145.5t-28 -199.5q0 -110 22.5 -200t68 -153t114.5 -97t162 -34q80 0 148 30t118 88.5t77.5 145.5t27.5 199zM616 1467l-42 142l424 153l60 -186z" />
<glyph unicode="&#xd4;" horiz-adv-x="1440" d="M1372 713q0 -173 -53.5 -309.5t-145 -231.5t-214.5 -145.5t-262 -50.5q-157 0 -275 49t-196.5 139t-118 218.5t-39.5 287.5q0 172 53.5 308.5t145 231.5t214 145.5t261.5 50.5q157 0 275 -49t197 -139t118.5 -218t39.5 -287zM1089 681q0 111 -22.5 200.5t-68.5 152.5 t-115 97.5t-161 34.5q-80 0 -148 -30t-117.5 -89t-77.5 -145.5t-28 -199.5q0 -110 22.5 -200t68 -153t114.5 -97t162 -34q80 0 148 30t118 88.5t77.5 145.5t27.5 199zM1017 1465l-278 113l-280 -113l-59 134l344 173l335 -170z" />
<glyph unicode="&#xd5;" horiz-adv-x="1440" d="M1372 713q0 -173 -53.5 -309.5t-145 -231.5t-214.5 -145.5t-262 -50.5q-157 0 -275 49t-196.5 139t-118 218.5t-39.5 287.5q0 172 53.5 308.5t145 231.5t214 145.5t261.5 50.5q157 0 275 -49t197 -139t118.5 -218t39.5 -287zM1089 681q0 111 -22.5 200.5t-68.5 152.5 t-115 97.5t-161 34.5q-80 0 -148 -30t-117.5 -89t-77.5 -145.5t-28 -199.5q0 -110 22.5 -200t68 -153t114.5 -97t162 -34q80 0 148 30t118 88.5t77.5 145.5t27.5 199zM1113 1659q-47 -83 -112 -126t-145 -43q-48 0 -83 13t-76 38.5t-59 35t-44 9.5q-36 0 -64.5 -21 t-53.5 -65l-130 88q46 83 111 126t146 43q48 0 83 -13t76 -38.5t59 -35t44 -9.5q35 0 63.5 21t54.5 65z" />
<glyph unicode="&#xd6;" horiz-adv-x="1440" d="M1372 713q0 -173 -53.5 -309.5t-145 -231.5t-214.5 -145.5t-262 -50.5q-157 0 -275 49t-196.5 139t-118 218.5t-39.5 287.5q0 172 53.5 308.5t145 231.5t214 145.5t261.5 50.5q157 0 275 -49t197 -139t118.5 -218t39.5 -287zM1089 681q0 111 -22.5 200.5t-68.5 152.5 t-115 97.5t-161 34.5q-80 0 -148 -30t-117.5 -89t-77.5 -145.5t-28 -199.5q0 -110 22.5 -200t68 -153t114.5 -97t162 -34q80 0 148 30t118 88.5t77.5 145.5t27.5 199zM1096 1613q0 -29 -11 -55t-30.5 -45.5t-45 -30.5t-54.5 -11t-55 11t-45.5 30.5t-30.5 45.5t-11 55 t11 54.5t30.5 45t45.5 30.5t55 11t54.5 -11t45 -30.5t30.5 -45t11 -54.5zM655 1613q0 -29 -11 -55t-30.5 -45.5t-45.5 -30.5t-55 -11t-54.5 11t-45 30.5t-30.5 45.5t-11 55t11 54.5t30.5 45t45 30.5t54.5 11t55 -11t45.5 -30.5t30.5 -45t11 -54.5z" />
<glyph unicode="&#xd7;" d="M870 141l-316 316l-316 -316l-142 143l315 316l-315 315l160 160l315 -315l317 315l142 -142l-316 -315l316 -317z" />
<glyph unicode="&#xd8;" horiz-adv-x="1440" d="M1372 711q0 -168 -51.5 -305t-144.5 -233t-216 -146.5t-263 -50.5q-51 0 -97.5 5t-87.5 15l-91 -206l-187 82l92 205q-66 43 -114.5 104t-80.5 137t-47.5 165.5t-15.5 191.5q0 111 24 209.5t68 180.5t105.5 145.5t137 107t161.5 66t178 22.5q44 0 87.5 -4.5t82.5 -12.5 l91 204l187 -81l-89 -200q65 -39 115.5 -96.5t85 -132.5t52.5 -168.5t18 -203.5zM1099 689q0 67 -8.5 126.5t-24 108t-37 85t-47.5 61.5l-363 -849q23 -6 47 -9t49 -3q74 0 142.5 28t123 86.5t86.5 150.5t32 215zM805 1164q-18 4 -40.5 7t-44.5 3q-77 0 -145 -29t-121 -88 t-83 -148.5t-30 -206.5q0 -64 8.5 -121.5t23.5 -105t34.5 -84.5t41.5 -62l357 835h-1z" />
<glyph unicode="&#xd9;" horiz-adv-x="1456" d="M1409 1213q-69 -16 -126 -22v-653q0 -137 -37.5 -242t-110.5 -176.5t-179.5 -107.5t-243.5 -36q-106 0 -189 19t-142.5 53.5t-99.5 81.5t-63 104t-33 119.5t-10 132.5v705q-60 7 -128 22v169h542v-169q-35 -8 -73 -13.5t-74 -8.5v-688q0 -72 13 -127t45 -95.5t88 -62.5 t140 -22q78 0 133 18t90 57t52 102t17 154v664q-36 3 -74.5 8.5t-73.5 13.5v169h537v-169zM794 1467l-442 109l61 186l423 -153z" />
<glyph unicode="&#xda;" horiz-adv-x="1456" d="M1409 1213q-69 -16 -126 -22v-653q0 -137 -37.5 -242t-110.5 -176.5t-179.5 -107.5t-243.5 -36q-106 0 -189 19t-142.5 53.5t-99.5 81.5t-63 104t-33 119.5t-10 132.5v705q-60 7 -128 22v169h542v-169q-35 -8 -73 -13.5t-74 -8.5v-688q0 -72 13 -127t45 -95.5t88 -62.5 t140 -22q78 0 133 18t90 57t52 102t17 154v664q-36 3 -74.5 8.5t-73.5 13.5v169h537v-169zM644 1467l-42 142l424 153l60 -186z" />
<glyph unicode="&#xdb;" horiz-adv-x="1456" d="M1409 1213q-69 -16 -126 -22v-653q0 -137 -37.5 -242t-110.5 -176.5t-179.5 -107.5t-243.5 -36q-106 0 -189 19t-142.5 53.5t-99.5 81.5t-63 104t-33 119.5t-10 132.5v705q-60 7 -128 22v169h542v-169q-35 -8 -73 -13.5t-74 -8.5v-688q0 -72 13 -127t45 -95.5t88 -62.5 t140 -22q78 0 133 18t90 57t52 102t17 154v664q-36 3 -74.5 8.5t-73.5 13.5v169h537v-169zM1009 1465l-278 113l-280 -113l-59 134l344 173l335 -170z" />
<glyph unicode="&#xdc;" horiz-adv-x="1456" d="M1409 1213q-69 -16 -126 -22v-653q0 -137 -37.5 -242t-110.5 -176.5t-179.5 -107.5t-243.5 -36q-106 0 -189 19t-142.5 53.5t-99.5 81.5t-63 104t-33 119.5t-10 132.5v705q-60 7 -128 22v169h542v-169q-35 -8 -73 -13.5t-74 -8.5v-688q0 -72 13 -127t45 -95.5t88 -62.5 t140 -22q78 0 133 18t90 57t52 102t17 154v664q-36 3 -74.5 8.5t-73.5 13.5v169h537v-169zM1094 1613q0 -29 -11 -55t-30.5 -45.5t-45 -30.5t-54.5 -11t-55 11t-45.5 30.5t-30.5 45.5t-11 55t11 54.5t30.5 45t45.5 30.5t55 11t54.5 -11t45 -30.5t30.5 -45t11 -54.5z M653 1613q0 -29 -11 -55t-30.5 -45.5t-45.5 -30.5t-55 -11t-54.5 11t-45 30.5t-30.5 45.5t-11 55t11 54.5t30.5 45t45 30.5t54.5 11t55 -11t45.5 -30.5t30.5 -45t11 -54.5z" />
<glyph unicode="&#xdd;" horiz-adv-x="1251" d="M1238 1213q-23 -6 -53 -10.5t-56 -7.5l-372 -724v-280q46 -3 92 -10t86 -16v-165h-623v165q40 9 85.5 16t92.5 10v279l-367 725q-23 3 -53.5 7.5t-53.5 10.5v169h526v-169q-28 -7 -58.5 -11.5t-61.5 -7.5l125 -273q10 -24 21.5 -50t23.5 -53t23 -53t20 -50h2 q9 25 20 52.5t22.5 55.5t23.5 54.5t23 49.5l124 267q-33 3 -64 7.5t-60 11.5v169h512v-169v0zM557 1467l-42 142l424 153l60 -186z" />
<glyph unicode="&#xde;" horiz-adv-x="1241" d="M1198 730q0 -101 -39 -182.5t-108.5 -139t-166.5 -88t-214 -30.5q-56 0 -101 3t-78 6v-119q46 -3 92 -10.5t86 -16.5v-153h-622v163q40 9 85.5 16t92.5 10v1004q-47 3 -92.5 10t-85.5 17v162h622v-153q-40 -9 -86 -16t-92 -10v-97q18 1 40 2.5t47 2.5t52.5 1.5t55.5 0.5 q131 0 227 -26.5t159.5 -77t94.5 -121t31 -158.5zM907 708q0 37 -13 72t-43 62.5t-79.5 44.5t-122.5 17q-45 0 -83.5 -2t-74.5 -8v-380q27 -5 64.5 -8.5t83.5 -3.5q70 0 120.5 15.5t83.5 43.5t48.5 65.5t15.5 81.5z" />
<glyph unicode="&#xdf;" horiz-adv-x="1417" d="M1373 328q0 -70 -26.5 -131.5t-79 -109t-132 -74.5t-181.5 -27q-63 0 -126 5.5t-118 15.5v309h168q7 -31 12 -65.5t6 -60.5q15 -4 33.5 -6.5t37.5 -2.5q38 0 65 9t44 25t24.5 37.5t7.5 47.5q0 32 -17 56.5t-45.5 43.5t-65.5 37.5t-83.5 42t-82.5 48t-65.5 58t-47 78.5 t-17.5 103q0 50 15 88t38 65.5t61.5 61.5t58.5 55t35 51.5t15 70.5q0 29 -12 54.5t-35 45t-56.5 30t-74.5 10.5q-58 0 -102 -17t-74.5 -53.5t-46 -94.5t-15.5 -140v-802q39 -3 78 -10t62 -16v-166h-579v166q41 9 87.5 16t90.5 10v629q-36 7 -85.5 12.5t-95.5 8.5v165 q47 5 92.5 9t88.5 5q2 116 36.5 207t100.5 154t160.5 95t215.5 32q105 0 187.5 -23.5t138 -66.5t83.5 -102t28 -128q0 -58 -15.5 -100t-39.5 -70.5t-50.5 -49.5t-58.5 -47.5t-47 -53t-15 -62.5q0 -39 27.5 -68t80 -58t108.5 -59.5t100.5 -68t73.5 -93t29 -131.5z" />
<glyph unicode="&#xe0;" horiz-adv-x="1110" d="M1079 14q-12 -1 -43.5 -4.5t-87 -7t-127 -5t-144.5 1.5q-1 69 3 113t7 60l-3 1q-18 -42 -50 -77.5t-74 -62t-92 -40.5t-104 -14q-70 0 -125.5 20t-93.5 57.5t-57.5 90.5t-19.5 117q0 90 44 157t123 110t186 64.5t235 23.5v50q0 46 -9 79t-30 55t-56 33.5t-86 11.5 q-49 0 -90 -8t-59 -14q-2 -40 -9 -79t-11 -57h-165v297q39 13 135.5 32.5t225.5 19.5q119 0 199.5 -23.5t128.5 -68.5t68.5 -110t20.5 -153v-484q20 -3 65.5 -9.5t94.5 -10.5v-166zM656 450q-81 0 -143.5 -8t-106 -26t-66.5 -47.5t-23 -71.5q0 -27 8 -49t24 -37.5t39.5 -24 t53.5 -8.5q46 0 85.5 20.5t68.5 55.5t44.5 79t15.5 90v27zM561 1143l-332 263l143 156l306 -294z" />
<glyph unicode="&#xe1;" horiz-adv-x="1110" d="M1079 14q-12 -1 -43.5 -4.5t-87 -7t-127 -5t-144.5 1.5q-1 69 3 113t7 60l-3 1q-18 -42 -50 -77.5t-74 -62t-92 -40.5t-104 -14q-70 0 -125.5 20t-93.5 57.5t-57.5 90.5t-19.5 117q0 90 44 157t123 110t186 64.5t235 23.5v50q0 46 -9 79t-30 55t-56 33.5t-86 11.5 q-49 0 -90 -8t-59 -14q-2 -40 -9 -79t-11 -57h-165v297q39 13 135.5 32.5t225.5 19.5q119 0 199.5 -23.5t128.5 -68.5t68.5 -110t20.5 -153v-484q20 -3 65.5 -9.5t94.5 -10.5v-166zM656 450q-81 0 -143.5 -8t-106 -26t-66.5 -47.5t-23 -71.5q0 -27 8 -49t24 -37.5t39.5 -24 t53.5 -8.5q46 0 85.5 20.5t68.5 55.5t44.5 79t15.5 90v27zM494 1143l-117 124l305 295l144 -153z" />
<glyph unicode="&#xe2;" horiz-adv-x="1110" d="M1079 14q-12 -1 -43.5 -4.5t-87 -7t-127 -5t-144.5 1.5q-1 69 3 113t7 60l-3 1q-18 -42 -50 -77.5t-74 -62t-92 -40.5t-104 -14q-70 0 -125.5 20t-93.5 57.5t-57.5 90.5t-19.5 117q0 90 44 157t123 110t186 64.5t235 23.5v50q0 46 -9 79t-30 55t-56 33.5t-86 11.5 q-49 0 -90 -8t-59 -14q-2 -40 -9 -79t-11 -57h-165v297q39 13 135.5 32.5t225.5 19.5q119 0 199.5 -23.5t128.5 -68.5t68.5 -110t20.5 -153v-484q20 -3 65.5 -9.5t94.5 -10.5v-166zM656 450q-81 0 -143.5 -8t-106 -26t-66.5 -47.5t-23 -71.5q0 -27 8 -49t24 -37.5t39.5 -24 t53.5 -8.5q46 0 85.5 20.5t68.5 55.5t44.5 79t15.5 90v27zM747 1146l-211 167l-215 -167l-99 119l317 278l311 -275z" />
<glyph unicode="&#xe3;" horiz-adv-x="1110" d="M1079 14q-12 -1 -43.5 -4.5t-87 -7t-127 -5t-144.5 1.5q-1 69 3 113t7 60l-3 1q-18 -42 -50 -77.5t-74 -62t-92 -40.5t-104 -14q-70 0 -125.5 20t-93.5 57.5t-57.5 90.5t-19.5 117q0 90 44 157t123 110t186 64.5t235 23.5v50q0 46 -9 79t-30 55t-56 33.5t-86 11.5 q-49 0 -90 -8t-59 -14q-2 -40 -9 -79t-11 -57h-165v297q39 13 135.5 32.5t225.5 19.5q119 0 199.5 -23.5t128.5 -68.5t68.5 -110t20.5 -153v-484q20 -3 65.5 -9.5t94.5 -10.5v-166zM656 450q-81 0 -143.5 -8t-106 -26t-66.5 -47.5t-23 -71.5q0 -27 8 -49t24 -37.5t39.5 -24 t53.5 -8.5q46 0 85.5 20.5t68.5 55.5t44.5 79t15.5 90v27zM900 1365q-45 -90 -107.5 -136.5t-141.5 -46.5q-46 0 -80 14t-73 42t-57 38t-43 10q-34 0 -60.5 -22.5t-52.5 -69.5l-124 96q45 89 107.5 135.5t140.5 46.5q46 0 80 -13.5t73.5 -41.5t57 -38t42.5 -10q34 0 61 22.5 t52 69.5z" />
<glyph unicode="&#xe4;" horiz-adv-x="1110" d="M1079 14q-12 -1 -43.5 -4.5t-87 -7t-127 -5t-144.5 1.5q-1 69 3 113t7 60l-3 1q-18 -42 -50 -77.5t-74 -62t-92 -40.5t-104 -14q-70 0 -125.5 20t-93.5 57.5t-57.5 90.5t-19.5 117q0 90 44 157t123 110t186 64.5t235 23.5v50q0 46 -9 79t-30 55t-56 33.5t-86 11.5 q-49 0 -90 -8t-59 -14q-2 -40 -9 -79t-11 -57h-165v297q39 13 135.5 32.5t225.5 19.5q119 0 199.5 -23.5t128.5 -68.5t68.5 -110t20.5 -153v-484q20 -3 65.5 -9.5t94.5 -10.5v-166zM656 450q-81 0 -143.5 -8t-106 -26t-66.5 -47.5t-23 -71.5q0 -27 8 -49t24 -37.5t39.5 -24 t53.5 -8.5q46 0 85.5 20.5t68.5 55.5t44.5 79t15.5 90v27zM878 1328q0 -29 -11 -54.5t-30.5 -45t-45 -30.5t-54.5 -11t-54.5 11t-45 30.5t-30.5 45t-11 54.5t11 55t30.5 45.5t45 30.5t54.5 11t54.5 -11t45 -30.5t30.5 -45.5t11 -55zM465 1328q0 -29 -11 -54.5t-30.5 -45 t-45.5 -30.5t-55 -11t-54.5 11t-45 30.5t-30.5 45t-11 54.5t11 55t30.5 45.5t45 30.5t54.5 11t55 -11t45.5 -30.5t30.5 -45.5t11 -55z" />
<glyph unicode="&#xe5;" horiz-adv-x="1110" d="M1079 14q-12 -1 -43.5 -4.5t-87 -7t-127 -5t-144.5 1.5q-1 69 3 113t7 60l-3 1q-18 -42 -50 -77.5t-74 -62t-92 -40.5t-104 -14q-70 0 -125.5 20t-93.5 57.5t-57.5 90.5t-19.5 117q0 90 44 157t123 110t186 64.5t235 23.5v50q0 46 -9 79t-30 55t-56 33.5t-86 11.5 q-49 0 -90 -8t-59 -14q-2 -40 -9 -79t-11 -57h-165v297q39 13 135.5 32.5t225.5 19.5q119 0 199.5 -23.5t128.5 -68.5t68.5 -110t20.5 -153v-484q20 -3 65.5 -9.5t94.5 -10.5v-166zM656 450q-81 0 -143.5 -8t-106 -26t-66.5 -47.5t-23 -71.5q0 -27 8 -49t24 -37.5t39.5 -24 t53.5 -8.5q46 0 85.5 20.5t68.5 55.5t44.5 79t15.5 90v27zM805 1384q0 -56 -20.5 -103.5t-58.5 -81.5t-89.5 -52.5t-111.5 -18.5q-62 0 -109.5 14.5t-80.5 44t-50 74t-17 103.5q0 56 20.5 103.5t58 82t89 53t111.5 18.5q62 0 110 -14.5t81 -44.5t50 -74.5t17 -103.5z M632 1373q0 30 -6 51.5t-18 35t-29.5 20.5t-41.5 7q-21 0 -38.5 -7.5t-30.5 -21.5t-20.5 -35t-7.5 -48q0 -29 6 -50.5t18 -35.5t29.5 -20.5t41.5 -6.5q21 0 39 7t31 21t20 35t7 48z" />
<glyph unicode="&#xe6;" horiz-adv-x="1630" d="M1550 607q0 -27 -1.5 -55.5t-3.5 -52t-3 -37.5t-2 -19h-627q1 -64 17 -112t48.5 -81t83 -50t120.5 -17q74 0 151 13.5t156 39.5l27 -194q-86 -31 -180.5 -47t-184.5 -16q-81 0 -148.5 14t-119.5 41t-88 65.5t-57 87.5h-2q-24 -47 -60.5 -85t-83.5 -65.5t-105 -42.5 t-123 -15q-70 0 -125.5 20t-93.5 57.5t-57.5 90.5t-19.5 117q0 87 42.5 153.5t120.5 112t186 68t239 22.5v49q0 46 -9 79t-30 55t-56 33.5t-86 11.5q-49 0 -90 -8t-59 -14q-2 -40 -9 -79t-11 -57h-165v297q39 13 135.5 32.5t225.5 19.5q51 0 97 -6t87.5 -19.5t77 -36.5 t62.5 -56h3q22 25 53 46.5t70 37.5t84 25t93 9q108 0 188.5 -33t132 -91.5t76 -137t24.5 -170.5zM1291 619q3 53 -6.5 95.5t-32 72t-57 45.5t-80.5 16q-45 0 -81.5 -17.5t-63 -49t-41 -73t-16.5 -89.5h378zM656 451q-88 0 -152 -10t-105.5 -29.5t-61.5 -48t-20 -66.5 q0 -27 8 -49t24 -37.5t39.5 -24t53.5 -8.5q46 0 85.5 20.5t68.5 55.5t44.5 79t15.5 90v28z" />
<glyph unicode="&#xe7;" horiz-adv-x="915" d="M865 31q-35 -11 -71 -20.5t-74.5 -16t-80 -10.5t-84.5 -4q-74 0 -138.5 13t-118.5 39t-96.5 67t-71.5 96.5t-44.5 126.5t-15.5 157q0 120 31.5 221.5t96.5 177t166 117.5t235 42q60 0 122.5 -9t118.5 -25v-337h-167q-4 18 -11 58t-11 84q-9 3 -32.5 7t-53.5 4 q-51 0 -92.5 -21.5t-70.5 -61.5t-44.5 -96.5t-15.5 -126.5q0 -74 14 -130.5t45.5 -96t82.5 -60t123 -20.5q55 0 115 11t110 31zM589 -82q39 -53 54.5 -105.5t8.5 -102.5t-33.5 -97t-70.5 -93h-197q39 46 60 86t24.5 79t-11.5 79.5t-51 86.5z" />
<glyph unicode="&#xe8;" horiz-adv-x="1053" d="M975 606q0 -26 -1.5 -53t-3 -48.5t-2.5 -34t-2 -17.5h-630q0 -67 16 -117.5t49 -84.5t84 -51t121 -17q74 0 151 13.5t155 39.5l28 -194q-86 -31 -180.5 -47t-184.5 -16q-123 0 -217 31t-158 95t-97 162.5t-33 232.5q0 115 33 213.5t95.5 171.5t152.5 113.5t201 40.5 q109 0 189.5 -33t132 -91.5t76.5 -137t25 -171.5zM716 629q1 53 -10.5 93.5t-35 68t-57 41.5t-75.5 14q-40 0 -74.5 -14.5t-61 -42.5t-43.5 -68.5t-22 -91.5h379zM578 1143l-332 263l143 156l306 -294z" />
<glyph unicode="&#xe9;" horiz-adv-x="1053" d="M975 606q0 -26 -1.5 -53t-3 -48.5t-2.5 -34t-2 -17.5h-630q0 -67 16 -117.5t49 -84.5t84 -51t121 -17q74 0 151 13.5t155 39.5l28 -194q-86 -31 -180.5 -47t-184.5 -16q-123 0 -217 31t-158 95t-97 162.5t-33 232.5q0 115 33 213.5t95.5 171.5t152.5 113.5t201 40.5 q109 0 189.5 -33t132 -91.5t76.5 -137t25 -171.5zM716 629q1 53 -10.5 93.5t-35 68t-57 41.5t-75.5 14q-40 0 -74.5 -14.5t-61 -42.5t-43.5 -68.5t-22 -91.5h379zM511 1143l-117 124l305 295l144 -153z" />
<glyph unicode="&#xea;" horiz-adv-x="1053" d="M975 606q0 -26 -1.5 -53t-3 -48.5t-2.5 -34t-2 -17.5h-630q0 -67 16 -117.5t49 -84.5t84 -51t121 -17q74 0 151 13.5t155 39.5l28 -194q-86 -31 -180.5 -47t-184.5 -16q-123 0 -217 31t-158 95t-97 162.5t-33 232.5q0 115 33 213.5t95.5 171.5t152.5 113.5t201 40.5 q109 0 189.5 -33t132 -91.5t76.5 -137t25 -171.5zM716 629q1 53 -10.5 93.5t-35 68t-57 41.5t-75.5 14q-40 0 -74.5 -14.5t-61 -42.5t-43.5 -68.5t-22 -91.5h379zM758 1146l-211 167l-215 -167l-99 119l317 278l311 -275z" />
<glyph unicode="&#xeb;" horiz-adv-x="1053" d="M975 606q0 -26 -1.5 -53t-3 -48.5t-2.5 -34t-2 -17.5h-630q0 -67 16 -117.5t49 -84.5t84 -51t121 -17q74 0 151 13.5t155 39.5l28 -194q-86 -31 -180.5 -47t-184.5 -16q-123 0 -217 31t-158 95t-97 162.5t-33 232.5q0 115 33 213.5t95.5 171.5t152.5 113.5t201 40.5 q109 0 189.5 -33t132 -91.5t76.5 -137t25 -171.5zM716 629q1 53 -10.5 93.5t-35 68t-57 41.5t-75.5 14q-40 0 -74.5 -14.5t-61 -42.5t-43.5 -68.5t-22 -91.5h379zM893 1328q0 -29 -11 -54.5t-30.5 -45t-45 -30.5t-54.5 -11t-54.5 11t-45 30.5t-30.5 45t-11 54.5t11 55 t30.5 45.5t45 30.5t54.5 11t54.5 -11t45 -30.5t30.5 -45.5t11 -55zM480 1328q0 -29 -11 -54.5t-30.5 -45t-45.5 -30.5t-55 -11t-54.5 11t-45 30.5t-30.5 45t-11 54.5t11 55t30.5 45.5t45 30.5t54.5 11t55 -11t45.5 -30.5t30.5 -45.5t11 -55z" />
<glyph unicode="&#xec;" horiz-adv-x="676" d="M52 0v165q20 5 66.5 13.5t100.5 12.5v627q-37 6 -82.5 11.5t-84.5 8.5v164q49 6 101 10t106 6t109.5 2.5t110.5 -1.5v-828q42 -3 82.5 -9.5t79.5 -16.5v-165h-589zM382 1143l-332 263l143 156l306 -294z" />
<glyph unicode="&#xed;" horiz-adv-x="676" d="M52 0v165q20 5 66.5 13.5t100.5 12.5v627q-37 6 -82.5 11.5t-84.5 8.5v164q49 6 101 10t106 6t109.5 2.5t110.5 -1.5v-828q42 -3 82.5 -9.5t79.5 -16.5v-165h-589zM271 1143l-117 124l305 295l144 -153z" />
<glyph unicode="&#xee;" horiz-adv-x="676" d="M52 0v165q20 5 66.5 13.5t100.5 12.5v627q-37 6 -82.5 11.5t-84.5 8.5v164q49 6 101 10t106 6t109.5 2.5t110.5 -1.5v-828q42 -3 82.5 -9.5t79.5 -16.5v-165h-589zM551 1146l-211 167l-215 -167l-99 119l317 278l311 -275z" />
<glyph unicode="&#xef;" horiz-adv-x="676" d="M52 0v165q20 5 66.5 13.5t100.5 12.5v627q-37 6 -82.5 11.5t-84.5 8.5v164q49 6 101 10t106 6t109.5 2.5t110.5 -1.5v-828q42 -3 82.5 -9.5t79.5 -16.5v-165h-589zM667 1328q0 -29 -11 -54.5t-30.5 -45t-45.5 -30.5t-54 -11q-29 0 -55 11t-45.5 30.5t-30.5 45t-11 54.5 t11 55t30.5 45.5t45.5 30.5t55 11t55 -11t45 -30.5t30 -45.5t11 -55zM287 1328q0 -29 -11 -54.5t-30.5 -45t-45 -30.5t-54.5 -11t-55 10.5t-45.5 30t-30 45.5t-10.5 55t11 55t30.5 45.5t45 30.5t54.5 11t55 -11t45 -30.5t30 -45.5t11 -55z" />
<glyph unicode="&#xf0;" horiz-adv-x="1137" d="M1060 570q0 -146 -39 -257.5t-108.5 -185.5t-161.5 -111t-199 -37q-108 0 -196.5 31t-153 94.5t-99.5 160.5t-35 226q0 120 36.5 220.5t103 173t157 111t195.5 38.5q25 0 49 -3.5t45.5 -11t39 -19.5t29.5 -28q-12 21 -22.5 38t-28.5 45q-21 35 -47.5 70t-61.5 71 l-189 -83l-105 122l171 76q-32 27 -71 56t-85 61l257 108q37 -28 72 -58.5t69 -64.5l182 80l105 -123l-177 -77q65 -79 115 -164.5t84 -176.5t51.5 -187t17.5 -195zM789 533q0 65 -14 117.5t-42 90t-70 57t-98 19.5q-46 0 -86.5 -18.5t-72 -56.5t-49.5 -95.5t-18 -133.5 q0 -74 16 -132t46.5 -97.5t73.5 -59.5t97 -20q49 0 88.5 19.5t68.5 59.5t44.5 103t15.5 147z" />
<glyph unicode="&#xf1;" horiz-adv-x="1294" d="M842 0v650q0 42 -6.5 73t-20.5 52.5t-38.5 33t-60.5 11.5q-48 0 -91 -25t-76 -70.5t-51.5 -106t-18.5 -129.5v-298q48 -4 86.5 -11t54.5 -11v-169h-568v165q20 5 66.5 13.5t100.5 12.5v627q-37 6 -82.5 11.5t-84.5 8.5v164q49 6 100.5 10t104.5 6t106 2.5t103 -1.5 q0 -18 -1 -41.5t-2.5 -48.5t-4 -49.5t-5.5 -44.5l2 -1q23 46 56.5 83.5t76.5 65t96 42t113 14.5q84 0 143.5 -25t95 -70t51.5 -104.5t16 -132.5v-516q56 -4 99.5 -12.5t61.5 -13.5v-165h-422zM1020 1365q-45 -90 -107.5 -136.5t-141.5 -46.5q-46 0 -80 14t-73 42t-57 38 t-43 10q-34 0 -60.5 -22.5t-52.5 -69.5l-124 96q45 89 107.5 135.5t140.5 46.5q46 0 80 -13.5t73.5 -41.5t57 -38t42.5 -10q34 0 61 22.5t52 69.5z" />
<glyph unicode="&#xf2;" horiz-adv-x="1135" d="M1066 532q0 -118 -34.5 -219t-101 -176t-164 -116.5t-219.5 -41.5q-110 0 -198 30.5t-150.5 93.5t-96 159t-33.5 224q0 118 34.5 219t101 176t163.5 116.5t219 41.5q110 0 198 -30.5t151 -93.5t96.5 -159t33.5 -224zM795 509q0 74 -15 131.5t-44 97t-71.5 59.5t-95.5 20 t-95 -19.5t-72 -58.5t-46 -97t-16 -133q0 -74 15 -131.5t44 -96.5t71 -58.5t95 -19.5q51 0 93 18.5t73 56t47.5 96t16.5 135.5zM607 1143l-332 263l143 156l306 -294z" />
<glyph unicode="&#xf3;" horiz-adv-x="1135" d="M1066 532q0 -118 -34.5 -219t-101 -176t-164 -116.5t-219.5 -41.5q-110 0 -198 30.5t-150.5 93.5t-96 159t-33.5 224q0 118 34.5 219t101 176t163.5 116.5t219 41.5q110 0 198 -30.5t151 -93.5t96.5 -159t33.5 -224zM795 509q0 74 -15 131.5t-44 97t-71.5 59.5t-95.5 20 t-95 -19.5t-72 -58.5t-46 -97t-16 -133q0 -74 15 -131.5t44 -96.5t71 -58.5t95 -19.5q51 0 93 18.5t73 56t47.5 96t16.5 135.5zM536 1143l-117 124l305 295l144 -153z" />
<glyph unicode="&#xf4;" horiz-adv-x="1135" d="M1066 532q0 -118 -34.5 -219t-101 -176t-164 -116.5t-219.5 -41.5q-110 0 -198 30.5t-150.5 93.5t-96 159t-33.5 224q0 118 34.5 219t101 176t163.5 116.5t219 41.5q110 0 198 -30.5t151 -93.5t96.5 -159t33.5 -224zM795 509q0 74 -15 131.5t-44 97t-71.5 59.5t-95.5 20 t-95 -19.5t-72 -58.5t-46 -97t-16 -133q0 -74 15 -131.5t44 -96.5t71 -58.5t95 -19.5q51 0 93 18.5t73 56t47.5 96t16.5 135.5zM790 1146l-211 167l-215 -167l-99 119l317 278l311 -275z" />
<glyph unicode="&#xf5;" horiz-adv-x="1135" d="M1066 532q0 -118 -34.5 -219t-101 -176t-164 -116.5t-219.5 -41.5q-110 0 -198 30.5t-150.5 93.5t-96 159t-33.5 224q0 118 34.5 219t101 176t163.5 116.5t219 41.5q110 0 198 -30.5t151 -93.5t96.5 -159t33.5 -224zM795 509q0 74 -15 131.5t-44 97t-71.5 59.5t-95.5 20 t-95 -19.5t-72 -58.5t-46 -97t-16 -133q0 -74 15 -131.5t44 -96.5t71 -58.5t95 -19.5q51 0 93 18.5t73 56t47.5 96t16.5 135.5zM953 1365q-45 -90 -107.5 -136.5t-141.5 -46.5q-46 0 -80 14t-73 42t-57 38t-43 10q-34 0 -60.5 -22.5t-52.5 -69.5l-124 96q45 89 107.5 135.5 t140.5 46.5q46 0 80 -13.5t73.5 -41.5t57 -38t42.5 -10q34 0 61 22.5t52 69.5z" />
<glyph unicode="&#xf6;" horiz-adv-x="1135" d="M1066 532q0 -118 -34.5 -219t-101 -176t-164 -116.5t-219.5 -41.5q-110 0 -198 30.5t-150.5 93.5t-96 159t-33.5 224q0 118 34.5 219t101 176t163.5 116.5t219 41.5q110 0 198 -30.5t151 -93.5t96.5 -159t33.5 -224zM795 509q0 74 -15 131.5t-44 97t-71.5 59.5t-95.5 20 t-95 -19.5t-72 -58.5t-46 -97t-16 -133q0 -74 15 -131.5t44 -96.5t71 -58.5t95 -19.5q51 0 93 18.5t73 56t47.5 96t16.5 135.5zM928 1328q0 -29 -11 -54.5t-30.5 -45t-45 -30.5t-54.5 -11t-54.5 11t-45 30.5t-30.5 45t-11 54.5t11 55t30.5 45.5t45 30.5t54.5 11t54.5 -11 t45 -30.5t30.5 -45.5t11 -55zM515 1328q0 -29 -11 -54.5t-30.5 -45t-45.5 -30.5t-55 -11t-54.5 11t-45 30.5t-30.5 45t-11 54.5t11 55t30.5 45.5t45 30.5t54.5 11t55 -11t45.5 -30.5t30.5 -45.5t11 -55z" />
<glyph unicode="&#xf7;" d="M721 1020q0 -33 -12.5 -62t-34.5 -51t-51 -34.5t-62 -12.5t-62 12.5t-50.5 34.5t-34.5 51t-13 62t13 62t34.5 51t50.5 34.5t62 12.5t62 -12.5t51 -34.5t34.5 -51t12.5 -62zM80 501v218h966v-218h-966zM721 198q0 -33 -12.5 -62t-34.5 -51t-51 -34.5t-62 -12.5t-62 12.5 t-50.5 34.5t-34.5 51t-13 62t13 62t34.5 51t50.5 35t62 13t62 -13t51 -35t34.5 -51t12.5 -62z" />
<glyph unicode="&#xf8;" horiz-adv-x="1135" d="M1066 532q0 -118 -34.5 -219t-101 -176t-164 -116.5t-219.5 -41.5q-42 0 -83 6t-76 17l-102 -193l-145 63l101 192q-43 32 -75 74t-54 94.5t-33 116t-11 137.5q0 118 34.5 219t101 176t163.5 116.5t219 41.5q43 0 83.5 -6t76.5 -17l101 193l146 -63l-102 -193 q43 -31 75 -73t54.5 -94.5t33.5 -116t11 -137.5zM816 510q0 71 -12 124.5t-30 96.5l-283 -535q14 -5 33.5 -8t38.5 -3q59 0 106 21t79.5 62.5t50 102t17.5 139.5zM643 822q-14 5 -33.5 8t-37.5 3q-59 0 -106 -21t-80 -62t-50 -102t-17 -140q0 -38 4 -71.5t10 -60.5t12.5 -48 t14.5 -41z" />
<glyph unicode="&#xf9;" horiz-adv-x="1276" d="M1243 14q-45 -5 -95.5 -8.5t-104 -5.5t-107 -2.5t-102.5 1.5q0 20 1 43t2.5 47.5t4 48t5.5 44.5l-4 1q-23 -46 -56.5 -83t-77.5 -64.5t-97.5 -42t-114.5 -14.5q-83 0 -142 25t-94.5 69t-51.5 102t-16 128v515q-40 6 -82 11.5t-80 8.5v166q45 5 95.5 8.5t105 5.5t111 2.5 t112.5 -1.5v-652q0 -42 6 -72.5t20.5 -52t38.5 -33t60 -11.5q49 0 92.5 25.5t76 71.5t50.5 105.5t18 125.5v293q-33 6 -71.5 10.5t-75.5 7.5v168q46 5 95.5 8.5t101 5.5t105 2t106.5 -2v-819q38 -6 82.5 -11.5t82.5 -8.5v-166zM648 1143l-332 263l143 156l306 -294z" />
<glyph unicode="&#xfa;" horiz-adv-x="1276" d="M1243 14q-45 -5 -95.5 -8.5t-104 -5.5t-107 -2.5t-102.5 1.5q0 20 1 43t2.5 47.5t4 48t5.5 44.5l-4 1q-23 -46 -56.5 -83t-77.5 -64.5t-97.5 -42t-114.5 -14.5q-83 0 -142 25t-94.5 69t-51.5 102t-16 128v515q-40 6 -82 11.5t-80 8.5v166q45 5 95.5 8.5t105 5.5t111 2.5 t112.5 -1.5v-652q0 -42 6 -72.5t20.5 -52t38.5 -33t60 -11.5q49 0 92.5 25.5t76 71.5t50.5 105.5t18 125.5v293q-33 6 -71.5 10.5t-75.5 7.5v168q46 5 95.5 8.5t101 5.5t105 2t106.5 -2v-819q38 -6 82.5 -11.5t82.5 -8.5v-166zM600 1143l-117 124l305 295l144 -153z" />
<glyph unicode="&#xfb;" horiz-adv-x="1276" d="M1243 14q-45 -5 -95.5 -8.5t-104 -5.5t-107 -2.5t-102.5 1.5q0 20 1 43t2.5 47.5t4 48t5.5 44.5l-4 1q-23 -46 -56.5 -83t-77.5 -64.5t-97.5 -42t-114.5 -14.5q-83 0 -142 25t-94.5 69t-51.5 102t-16 128v515q-40 6 -82 11.5t-80 8.5v166q45 5 95.5 8.5t105 5.5t111 2.5 t112.5 -1.5v-652q0 -42 6 -72.5t20.5 -52t38.5 -33t60 -11.5q49 0 92.5 25.5t76 71.5t50.5 105.5t18 125.5v293q-33 6 -71.5 10.5t-75.5 7.5v168q46 5 95.5 8.5t101 5.5t105 2t106.5 -2v-819q38 -6 82.5 -11.5t82.5 -8.5v-166zM844 1146l-211 167l-215 -167l-99 119l317 278 l311 -275z" />
<glyph unicode="&#xfc;" horiz-adv-x="1276" d="M1243 14q-45 -5 -95.5 -8.5t-104 -5.5t-107 -2.5t-102.5 1.5q0 20 1 43t2.5 47.5t4 48t5.5 44.5l-4 1q-23 -46 -56.5 -83t-77.5 -64.5t-97.5 -42t-114.5 -14.5q-83 0 -142 25t-94.5 69t-51.5 102t-16 128v515q-40 6 -82 11.5t-80 8.5v166q45 5 95.5 8.5t105 5.5t111 2.5 t112.5 -1.5v-652q0 -42 6 -72.5t20.5 -52t38.5 -33t60 -11.5q49 0 92.5 25.5t76 71.5t50.5 105.5t18 125.5v293q-33 6 -71.5 10.5t-75.5 7.5v168q46 5 95.5 8.5t101 5.5t105 2t106.5 -2v-819q38 -6 82.5 -11.5t82.5 -8.5v-166zM977 1328q0 -29 -11 -54.5t-30.5 -45 t-45 -30.5t-54.5 -11t-54.5 11t-45 30.5t-30.5 45t-11 54.5t11 55t30.5 45.5t45 30.5t54.5 11t54.5 -11t45 -30.5t30.5 -45.5t11 -55zM564 1328q0 -29 -11 -54.5t-30.5 -45t-45.5 -30.5t-55 -11t-54.5 11t-45 30.5t-30.5 45t-11 54.5t11 55t30.5 45.5t45 30.5t54.5 11 t55 -11t45.5 -30.5t30.5 -45.5t11 -55z" />
<glyph unicode="&#xfd;" horiz-adv-x="1159" d="M1142 849q-24 -6 -52 -11t-58 -8l-323 -935q-40 -117 -85 -195t-99.5 -124.5t-122.5 -67t-158 -20.5q-16 0 -36 1t-41.5 3.5t-42 5.5t-38.5 6l15 226q41 -12 75.5 -17.5t70.5 -5.5q34 0 61.5 9.5t52.5 31.5t47 60t42 93l34 99h-73l-284 830q-32 3 -60.5 8t-50.5 11v169 h490v-169q-25 -6 -50.5 -10.5t-52.5 -6.5l103 -292q24 -71 43.5 -136.5t35.5 -134.5h4q7 31 16.5 67t21 75t24 79t25.5 79l89 263q-26 2 -51.5 6.5t-50.5 10.5v169h479v-169zM539 1143l-117 124l305 295l144 -153z" />
<glyph unicode="&#xfe;" horiz-adv-x="1147" d="M1075 562q0 -130 -37 -237.5t-108 -184.5t-174 -118t-232 -41q-16 0 -30 0.5t-28 1.5t-29 3t-31 5v-293q45 -3 90.5 -10t88.5 -16v-165h-617v165q42 9 87.5 16t90.5 10v1597q-39 6 -84.5 11.5t-88.5 8.5v165q49 5 102 9t108 6t111 2.5t112 -1.5v-418q0 -25 -1 -52.5 t-2.5 -56.5t-4.5 -57t-7 -53l3 -1q18 41 47.5 74.5t69 57.5t88 36.5t104.5 12.5q90 0 159.5 -32t117 -93t71.5 -150t24 -202zM800 535q0 72 -10.5 125.5t-32.5 89.5t-54.5 54t-77.5 18q-33 0 -62.5 -12.5t-54 -35t-43.5 -53.5t-32 -68t-20 -78.5t-7 -84.5v-283 q31 -9 65 -13.5t73 -4.5q58 0 104.5 19t80.5 60.5t52.5 108t18.5 158.5z" />
<glyph unicode="&#xff;" horiz-adv-x="1159" d="M1142 849q-24 -6 -52 -11t-58 -8l-323 -935q-40 -117 -85 -195t-99.5 -124.5t-122.5 -67t-158 -20.5q-16 0 -36 1t-41.5 3.5t-42 5.5t-38.5 6l15 226q41 -12 75.5 -17.5t70.5 -5.5q34 0 61.5 9.5t52.5 31.5t47 60t42 93l34 99h-73l-284 830q-32 3 -60.5 8t-50.5 11v169 h490v-169q-25 -6 -50.5 -10.5t-52.5 -6.5l103 -292q24 -71 43.5 -136.5t35.5 -134.5h4q7 31 16.5 67t21 75t24 79t25.5 79l89 263q-26 2 -51.5 6.5t-50.5 10.5v169h479v-169zM925 1328q0 -29 -11 -54.5t-30.5 -45t-45 -30.5t-54.5 -11t-54.5 11t-45 30.5t-30.5 45t-11 54.5 t11 55t30.5 45.5t45 30.5t54.5 11t54.5 -11t45 -30.5t30.5 -45.5t11 -55zM512 1328q0 -29 -11 -54.5t-30.5 -45t-45.5 -30.5t-55 -11t-54.5 11t-45 30.5t-30.5 45t-11 54.5t11 55t30.5 45.5t45 30.5t54.5 11t55 -11t45.5 -30.5t30.5 -45.5t11 -55z" />
<glyph unicode="&#x100;" horiz-adv-x="1427" d="M865 0v165q35 8 72 14t71 9l-60 176h-497l-60 -176q34 -3 73 -9t73 -14v-165h-521v166q25 7 54.5 13t55.5 8l413 1195h344l418 -1195q27 -2 56.5 -8t53.5 -13v-166h-546zM764 925q-20 63 -35.5 115t-28.5 104h-3q-12 -55 -26.5 -108t-33.5 -112l-123 -352h372zM413 1518 v166h600v-166h-600z" />
<glyph unicode="&#x101;" horiz-adv-x="1110" d="M1079 14q-12 -1 -43.5 -4.5t-87 -7t-127 -5t-144.5 1.5q-1 69 3 113t7 60l-3 1q-18 -42 -50 -77.5t-74 -62t-92 -40.5t-104 -14q-70 0 -125.5 20t-93.5 57.5t-57.5 90.5t-19.5 117q0 90 44 157t123 110t186 64.5t235 23.5v50q0 46 -9 79t-30 55t-56 33.5t-86 11.5 q-49 0 -90 -8t-59 -14q-2 -40 -9 -79t-11 -57h-165v297q39 13 135.5 32.5t225.5 19.5q119 0 199.5 -23.5t128.5 -68.5t68.5 -110t20.5 -153v-484q20 -3 65.5 -9.5t94.5 -10.5v-166zM656 450q-81 0 -143.5 -8t-106 -26t-66.5 -47.5t-23 -71.5q0 -27 8 -49t24 -37.5t39.5 -24 t53.5 -8.5q46 0 85.5 20.5t68.5 55.5t44.5 79t15.5 90v27zM258 1228v190h552v-190h-552z" />
<glyph unicode="&#x102;" horiz-adv-x="1427" d="M865 0v165q35 8 72 14t71 9l-60 176h-497l-60 -176q34 -3 73 -9t73 -14v-165h-521v166q25 7 54.5 13t55.5 8l413 1195h344l418 -1195q27 -2 56.5 -8t53.5 -13v-166h-546zM764 925q-20 63 -35.5 115t-28.5 104h-3q-12 -55 -26.5 -108t-33.5 -112l-123 -352h372zM1004 1759 q0 -58 -19 -108.5t-56.5 -89t-92.5 -60t-125 -21.5q-69 0 -123.5 22t-91 60.5t-55 89t-18.5 107.5h155q0 -24 10 -45.5t28 -37.5t43 -25t54 -9q31 0 56 9t42.5 25t26.5 37t9 46h157z" />
<glyph unicode="&#x103;" horiz-adv-x="1110" d="M1079 14q-12 -1 -43.5 -4.5t-87 -7t-127 -5t-144.5 1.5q-1 69 3 113t7 60l-3 1q-18 -42 -50 -77.5t-74 -62t-92 -40.5t-104 -14q-70 0 -125.5 20t-93.5 57.5t-57.5 90.5t-19.5 117q0 90 44 157t123 110t186 64.5t235 23.5v50q0 46 -9 79t-30 55t-56 33.5t-86 11.5 q-49 0 -90 -8t-59 -14q-2 -40 -9 -79t-11 -57h-165v297q39 13 135.5 32.5t225.5 19.5q119 0 199.5 -23.5t128.5 -68.5t68.5 -110t20.5 -153v-484q20 -3 65.5 -9.5t94.5 -10.5v-166zM656 450q-81 0 -143.5 -8t-106 -26t-66.5 -47.5t-23 -71.5q0 -27 8 -49t24 -37.5t39.5 -24 t53.5 -8.5q46 0 85.5 20.5t68.5 55.5t44.5 79t15.5 90v27zM818 1475q0 -64 -17 -120t-51.5 -99.5t-89 -68.5t-126.5 -25t-125 25t-86.5 69t-49 100t-15.5 119h168q0 -28 7 -51t21 -40t34.5 -26t47.5 -9q52 0 81.5 32t29.5 94h171z" />
<glyph unicode="&#x104;" horiz-adv-x="1427" d="M1362 0q-38 0 -80 -19t-78 -51.5t-58 -72.5t-22 -80q0 -32 19 -50t53 -18q63 0 135 49l72 -141q-57 -52 -125 -77t-143 -25q-58 0 -105 14t-80 40.5t-51 65.5t-18 89q0 38 10 75t30 72t49 67.5t66 61.5h-170v166q49 9 80 14t62 8l-60 177h-497l-60 -177q31 -3 67.5 -8.5 t78.5 -13.5v-166h-521v166q25 8 54 13.5t55 6.5l414 1196h344l420 -1196q25 -1 54 -6.5t54 -13.5v-166h-49zM764 926q-22 71 -36.5 119t-27.5 98h-2q-16 -65 -30 -116t-31 -103l-123 -353h373z" />
<glyph unicode="&#x105;" horiz-adv-x="1108" d="M1079 14q-73 -4 -133.5 -26.5t-111.5 -73.5q-15 -15 -27 -32t-20.5 -34.5t-12.5 -35t-4 -34.5q0 -33 19 -51t54 -18q16 0 32.5 3t33 9.5t33.5 15.5t35 22l72 -142q-29 -26 -60.5 -45.5t-65.5 -32t-69 -18.5t-72 -6q-58 0 -105.5 14t-81 40.5t-51.5 65.5t-18 88 q0 41 11 80t33 76t54.5 72t75.5 69q-7 36 -11 73t-4 73l-3 1q-20 -41 -51.5 -75.5t-73 -59.5t-90.5 -39t-103 -14q-70 0 -125.5 20t-93.5 57.5t-57.5 90.5t-19.5 117q0 90 44 157t123 110t186 64.5t235 23.5v50q0 46 -9 79t-30 55t-56 33.5t-86 11.5q-49 0 -90 -8t-59 -14 q-2 -40 -9 -79t-11 -57h-165v297q39 13 135.5 32.5t225.5 19.5q119 0 199.5 -23.5t128.5 -68.5t68.5 -110t20.5 -153v-299q0 -23 0.5 -47.5t2 -48.5t3 -46.5t3.5 -43.5q5 -1 17.5 -3t34 -5t48 -6t51.5 -5v-166zM656 450q-81 0 -143.5 -8t-106 -26t-66.5 -47.5t-23 -71.5 q0 -27 8 -49t24 -37.5t39.5 -24t53.5 -8.5q46 0 85.5 20.5t68.5 55.5t44.5 79t15.5 90v27z" />
<glyph unicode="&#x106;" horiz-adv-x="1194" d="M1131 52q-43 -16 -92.5 -29t-102 -22.5t-105.5 -15t-102 -5.5q-164 0 -287.5 47t-205 135t-121.5 213t-40 281q0 165 44.5 301.5t132 235.5t217 152.5t296.5 53.5q79 0 164.5 -10t169.5 -28v-398h-203q-4 22 -12 71t-12 103q-16 4 -55.5 10.5t-90.5 6.5 q-83 0 -149.5 -32.5t-113 -93t-70.5 -145.5t-24 -188q0 -111 23.5 -198t73 -148t128.5 -93.5t187 -32.5q38 0 78 5t80.5 13.5t79 19.5t74.5 25zM584 1467l-42 142l424 153l60 -186z" />
<glyph unicode="&#x107;" horiz-adv-x="915" d="M865 31q-35 -11 -71 -20.5t-74.5 -16t-80 -10.5t-84.5 -4q-74 0 -138.5 13t-118.5 39t-96.5 67t-71.5 96.5t-44.5 126.5t-15.5 157q0 120 31.5 221.5t96.5 177t166 117.5t235 42q60 0 122.5 -9t118.5 -25v-337h-167q-4 18 -11 58t-11 84q-9 3 -32.5 7t-53.5 4 q-51 0 -92.5 -21.5t-70.5 -61.5t-44.5 -96.5t-15.5 -126.5q0 -74 14 -130.5t45.5 -96t82.5 -60t123 -20.5q55 0 115 11t110 31zM482 1143l-117 124l305 295l144 -153z" />
<glyph unicode="&#x10c;" horiz-adv-x="1194" d="M1131 52q-43 -16 -92.5 -29t-102 -22.5t-105.5 -15t-102 -5.5q-164 0 -287.5 47t-205 135t-121.5 213t-40 281q0 165 44.5 301.5t132 235.5t217 152.5t296.5 53.5q79 0 164.5 -10t169.5 -28v-398h-203q-4 22 -12 71t-12 103q-16 4 -55.5 10.5t-90.5 6.5 q-83 0 -149.5 -32.5t-113 -93t-70.5 -145.5t-24 -188q0 -111 23.5 -198t73 -148t128.5 -93.5t187 -32.5q38 0 78 5t80.5 13.5t79 19.5t74.5 25zM692 1465l-335 169l62 138l277 -113l281 113l59 -134z" />
<glyph unicode="&#x10d;" horiz-adv-x="915" d="M865 31q-35 -11 -71 -20.5t-74.5 -16t-80 -10.5t-84.5 -4q-74 0 -138.5 13t-118.5 39t-96.5 67t-71.5 96.5t-44.5 126.5t-15.5 157q0 120 31.5 221.5t96.5 177t166 117.5t235 42q60 0 122.5 -9t118.5 -25v-337h-167q-4 18 -11 58t-11 84q-9 3 -32.5 7t-53.5 4 q-51 0 -92.5 -21.5t-70.5 -61.5t-44.5 -96.5t-15.5 -126.5q0 -74 14 -130.5t45.5 -96t82.5 -60t123 -20.5q55 0 115 11t110 31zM537 1146l-311 275l102 122l212 -167l215 167l99 -119z" />
<glyph unicode="&#x10e;" horiz-adv-x="1448" d="M1371 714q0 -177 -55.5 -312t-155.5 -226.5t-240.5 -137.5t-309.5 -46q-54 0 -111.5 1t-110 2.5t-96 3t-67.5 1.5h-178v165q40 9 85.5 16t92.5 10v1000q-47 3 -92.5 10t-85.5 16v165h172q41 0 93 1.5t110.5 3t122 2.5t127.5 1q160 0 289 -37.5t220.5 -118.5t140.5 -209.5 t49 -310.5zM1085 694q0 111 -23 199t-74.5 148.5t-134 93t-200.5 32.5q-23 0 -45.5 -0.5t-43 -1t-39 -1.5t-34.5 -2v-932q14 -3 31 -4.5t35.5 -3t38.5 -2t40 -0.5q98 0 180.5 28t142.5 86.5t93 147.5t33 212zM649 1465l-335 169l62 138l277 -113l281 113l59 -134z" />
<glyph unicode="&#x10f;" horiz-adv-x="1432" d="M1166 15q-44 -5 -95 -9t-104.5 -6t-107 -2.5t-102.5 1.5q0 21 0.5 42t2 43.5t3.5 44.5t6 41h-4q-21 -43 -52.5 -78t-72.5 -60.5t-90.5 -39.5t-106.5 -14q-92 0 -162 33t-116.5 95.5t-70 151t-23.5 198.5q0 128 36.5 235t106.5 184.5t170.5 119t225.5 41.5q30 0 60 -2 t69 -5v266q-37 6 -85.5 11.5t-92.5 8.5v165q49 5 102.5 9t110 6t113.5 2.5t113 -1.5v-1296q37 -6 82.5 -11.5t83.5 -8.5v-165zM739 812q-33 9 -66.5 12.5t-70.5 3.5q-58 0 -104.5 -19t-80.5 -60t-52.5 -107.5t-18.5 -159.5q0 -71 10.5 -124.5t32 -90t54.5 -54.5t77 -18 q33 0 63 12.5t54.5 35t43.5 53.5t32 68t19.5 78.5t6.5 84.5v285zM1241 1133l-168 37l103 420l208 -45z" />
<glyph unicode="&#x110;" horiz-adv-x="1468" d="M1391 714q0 -177 -55.5 -312t-155 -226.5t-240 -137.5t-310.5 -46q-106 0 -200.5 4t-184.5 4h-178v165q40 9 86 16t92 10v411h-152v202h152v387q-46 3 -92 10t-86 16v165h173q42 0 94.5 1.5t110.5 3t121.5 2.5t127.5 1q107 0 200.5 -16t170.5 -51t138 -89t102.5 -129 t63.5 -172t22 -219zM1108 694q0 111 -23.5 199t-75 148.5t-133.5 93t-200 32.5q-23 0 -45.5 -0.5t-43 -1t-39.5 -1.5t-36 -2v-358h251v-202h-251v-372q14 -3 31.5 -4.5t36.5 -3t38.5 -2t39.5 -0.5q98 0 181 28t142.5 86.5t93 147.5t33.5 212z" />
<glyph unicode="&#x111;" horiz-adv-x="1194" d="M1000 1125v-925q35 -6 80 -11.5t86 -8.5v-165q-44 -5 -95 -9t-104.5 -6t-107 -2.5t-102.5 1.5q0 21 0.5 42t2 43.5t3.5 44.5t6 41h-4q-21 -43 -52.5 -78t-72.5 -60.5t-90.5 -39.5t-106.5 -14q-92 0 -162 33t-116.5 95.5t-70 151t-23.5 198.5q0 128 36.5 234t106.5 182 t170.5 116.5t225.5 40.5q30 0 60 -2t69 -5v103h-281v147h281v68q-37 6 -85.5 11.5t-92.5 8.5v129q49 6 102.5 10t110 6t113.5 2t113 -2v-233h167v-147h-167zM739 808q-34 8 -68 12t-69 4q-58 0 -104.5 -18.5t-80.5 -59t-52.5 -106.5t-18.5 -158q0 -71 10.5 -124.5t32 -90 t54.5 -54.5t77 -18q33 0 63 12.5t54.5 35t43.5 53.5t32 68t19.5 78.5t6.5 84.5v281z" />
<glyph unicode="&#x112;" horiz-adv-x="1100" d="M47 0v165q42 9 87.5 16t90.5 10v1000q-45 3 -90.5 10t-87.5 16v165h942v-339h-198q-3 16 -10 51.5t-12 77.5h-278v-367h225q4 39 11 69.5t11 43.5h171v-416h-171q-4 13 -11 43t-11 69h-225v-400h280q5 43 12 80.5t11 53.5h201v-348h-948zM254 1518v166h600v-166h-600z " />
<glyph unicode="&#x113;" horiz-adv-x="1053" d="M975 606q0 -26 -1.5 -53t-3 -48.5t-2.5 -34t-2 -17.5h-630q0 -67 16 -117.5t49 -84.5t84 -51t121 -17q74 0 151 13.5t155 39.5l28 -194q-86 -31 -180.5 -47t-184.5 -16q-123 0 -217 31t-158 95t-97 162.5t-33 232.5q0 115 33 213.5t95.5 171.5t152.5 113.5t201 40.5 q109 0 189.5 -33t132 -91.5t76.5 -137t25 -171.5zM716 629q1 53 -10.5 93.5t-35 68t-57 41.5t-75.5 14q-40 0 -74.5 -14.5t-61 -42.5t-43.5 -68.5t-22 -91.5h379zM263 1228v190h552v-190h-552z" />
<glyph unicode="&#x116;" horiz-adv-x="1100" d="M47 0v165q42 9 87.5 16t90.5 10v1000q-45 3 -90.5 10t-87.5 16v165h942v-339h-198q-3 16 -10 51.5t-12 77.5h-278v-367h225q4 39 11 69.5t11 43.5h171v-416h-171q-4 13 -11 43t-11 69h-225v-400h280q5 43 12 80.5t11 53.5h201v-348h-948zM717 1626q0 -32 -12 -60.5 t-34 -50.5t-50.5 -34t-60.5 -12t-60.5 12t-50 33.5t-33.5 50.5t-12 61t12 60.5t33.5 50t50 33.5t60.5 12t60.5 -12t50.5 -33.5t34 -50t12 -60.5z" />
<glyph unicode="&#x117;" horiz-adv-x="1053" d="M975 606q0 -26 -1.5 -53t-3 -48.5t-2.5 -34t-2 -17.5h-630q0 -67 16 -117.5t49 -84.5t84 -51t121 -17q74 0 151 13.5t155 39.5l28 -194q-86 -31 -180.5 -47t-184.5 -16q-123 0 -217 31t-158 95t-97 162.5t-33 232.5q0 115 33 213.5t95.5 171.5t152.5 113.5t201 40.5 q109 0 189.5 -33t132 -91.5t76.5 -137t25 -171.5zM716 629q1 53 -10.5 93.5t-35 68t-57 41.5t-75.5 14q-40 0 -74.5 -14.5t-61 -42.5t-43.5 -68.5t-22 -91.5h379zM702 1338q0 -32 -12 -60.5t-34 -50t-50.5 -33.5t-60.5 -12t-60.5 12t-50 33.5t-33.5 50t-12 60.5t12 60.5 t33.5 50t50 33.5t60.5 12t60.5 -12t50.5 -33.5t34 -50t12 -60.5z" />
<glyph unicode="&#x118;" horiz-adv-x="1100" d="M995 6q-53 -32 -89.5 -62.5t-58 -59t-30.5 -55t-9 -51.5q0 -33 18.5 -51t53.5 -18q63 0 134 50l72 -142q-57 -52 -124.5 -77t-142.5 -25q-58 0 -105 14t-80.5 40.5t-51.5 65.5t-18 88q0 38 10 74.5t29 71.5t47 68t65 63h-668v165q42 9 87.5 16t90.5 10v1000 q-45 3 -90.5 10t-87.5 16v165h942v-339h-198q-3 16 -10 51.5t-12 77.5h-278v-367h225q4 39 11 69.5t11 43.5h171v-416h-171q-4 13 -11 43t-11 69h-225v-400h280q5 43 12 80.5t11 53.5h201v-342z" />
<glyph unicode="&#x119;" horiz-adv-x="1053" d="M940 44q-54 -22 -100 -52.5t-79.5 -66t-51.5 -73.5t-18 -74q0 -33 19 -51t54 -18q33 0 65.5 12.5t67.5 37.5l73 -142q-57 -51 -125.5 -76.5t-143.5 -25.5q-58 0 -104.5 14t-80 40.5t-51.5 65.5t-18 88q0 33 8.5 68t26 69.5t44.5 67t62 61.5q-12 -2 -28.5 -3.5t-29.5 -1.5 q-59 0 -115 11t-107 35t-94.5 63.5t-75.5 97t-50 135t-18 174.5q0 115 33 213.5t95.5 171.5t152.5 113.5t201 40.5q109 0 189.5 -33t132 -91.5t76.5 -137t25 -171.5q0 -25 -1.5 -51.5t-3 -48.5t-2.5 -35t-2 -18h-630q0 -67 16 -117.5t49 -84.5t84 -51t121 -17q74 0 151 13.5 t155 39.5zM716 629q1 53 -10.5 93.5t-35 68t-57 41.5t-75.5 14q-40 0 -74.5 -14.5t-61 -42.5t-43.5 -68.5t-22 -91.5h379z" />
<glyph unicode="&#x11a;" horiz-adv-x="1100" d="M47 0v165q42 9 87.5 16t90.5 10v1000q-45 3 -90.5 10t-87.5 16v165h942v-339h-198q-3 16 -10 51.5t-12 77.5h-278v-367h225q4 39 11 69.5t11 43.5h171v-416h-171q-4 13 -11 43t-11 69h-225v-400h280q5 43 12 80.5t11 53.5h201v-348h-948zM548 1465l-335 169l62 138 l277 -113l281 113l59 -134z" />
<glyph unicode="&#x11b;" horiz-adv-x="1053" d="M975 606q0 -26 -1.5 -53t-3 -48.5t-2.5 -34t-2 -17.5h-630q0 -67 16 -117.5t49 -84.5t84 -51t121 -17q74 0 151 13.5t155 39.5l28 -194q-86 -31 -180.5 -47t-184.5 -16q-123 0 -217 31t-158 95t-97 162.5t-33 232.5q0 115 33 213.5t95.5 171.5t152.5 113.5t201 40.5 q109 0 189.5 -33t132 -91.5t76.5 -137t25 -171.5zM716 629q1 53 -10.5 93.5t-35 68t-57 41.5t-75.5 14q-40 0 -74.5 -14.5t-61 -42.5t-43.5 -68.5t-22 -91.5h379zM540 1146l-311 275l102 122l212 -167l215 167l99 -119z" />
<glyph unicode="&#x11e;" horiz-adv-x="1405" d="M1359 556q-26 -7 -55 -12t-59 -9v-469q-51 -21 -108.5 -37t-118.5 -27.5t-124 -17t-125 -5.5q-162 0 -291.5 46.5t-219.5 135t-137 215t-47 283.5q0 164 52 301t151.5 236t241.5 152.5t318 53.5q95 0 191.5 -13t196.5 -37v-371h-205q-9 44 -14.5 84.5t-8.5 81.5 q-42 10 -87 15.5t-88 5.5q-103 0 -188 -31.5t-146 -93.5t-94 -153t-33 -207q0 -109 29.5 -195t86 -146t139 -91.5t186.5 -31.5q49 0 93 6.5t83 19.5v287q-44 3 -89.5 10t-84.5 17v165h555v-168zM1091 1759q0 -58 -19 -108.5t-56.5 -89t-92.5 -60t-125 -21.5q-69 0 -123.5 22 t-91 60.5t-55 89t-18.5 107.5h155q0 -24 10 -45.5t28 -37.5t43 -25t54 -9q31 0 56 9t42.5 25t26.5 37t9 46h157z" />
<glyph unicode="&#x11f;" horiz-adv-x="1106" d="M929 813q22 -53 22 -118q0 -83 -27 -153t-81.5 -120.5t-136.5 -79t-193 -28.5q-37 0 -71 3q-37 -29 -37 -61q0 -14 6 -25t22 -18.5t44.5 -12.5t72.5 -6l143 -6q178 -6 269.5 -80.5t91.5 -222.5q0 -83 -38 -156t-109 -127t-173 -85.5t-230 -31.5q-103 0 -185.5 19 t-140.5 56.5t-89 93.5t-31 130q0 78 45 143.5t117 110.5l1 1q-91 50 -91 152q0 57 31.5 105t88.5 80q-78 48 -115 121.5t-37 159.5q0 81 27 151t82 121.5t137 81t192 29.5q46 0 88 -5.5t80 -16.5h341v-205h-116zM421 -10q-49 -34 -73.5 -74.5t-24.5 -82.5q0 -72 58.5 -112 t163.5 -40q63 0 110.5 13t78.5 35.5t46.5 54t15.5 67.5q0 27 -9 50.5t-29.5 41t-54 28t-82.5 12.5l-156 5zM703 674q0 38 -12 70t-34.5 55.5t-56 36.5t-76.5 13q-42 0 -75 -13t-55.5 -36t-34.5 -55t-12 -71t12 -71t34.5 -55.5t55.5 -36.5t75 -13q85 0 132 49t47 127z M829 1475q0 -64 -17 -120t-51.5 -99.5t-89 -68.5t-126.5 -25t-125 25t-86.5 69t-49 100t-15.5 119h168q0 -28 7 -51t21 -40t34.5 -26t47.5 -9q52 0 81.5 32t29.5 94h171z" />
<glyph unicode="&#x122;" horiz-adv-x="1405" d="M1359 556q-26 -7 -55 -12t-59 -9v-469q-51 -21 -108.5 -37t-118.5 -27.5t-124 -17t-125 -5.5q-162 0 -291.5 46.5t-219.5 135t-137 215t-47 283.5q0 164 52 301t151.5 236t241.5 152.5t318 53.5q95 0 191.5 -13t196.5 -37v-371h-205q-9 44 -14.5 84.5t-8.5 81.5 q-42 10 -87 15.5t-88 5.5q-103 0 -188 -31.5t-146 -93.5t-94 -153t-33 -207q0 -109 29.5 -195t86 -146t139 -91.5t186.5 -31.5q49 0 93 6.5t83 19.5v287q-44 3 -89.5 10t-84.5 17v165h555v-168zM579 -401q60 30 81.5 56.5t21.5 54.5q0 13 -3 22.5t-6 18t-6 17.5t-3 21 q0 22 8 43t23.5 37t38 25.5t52.5 9.5q29 0 52 -10.5t38.5 -28.5t24 -43t8.5 -53q0 -36 -15.5 -74.5t-49.5 -74t-88.5 -66t-133.5 -50.5z" />
<glyph unicode="&#x123;" horiz-adv-x="1106" d="M929 813q22 -53 22 -118q0 -83 -27 -153t-81.5 -120.5t-136.5 -79t-193 -28.5q-37 0 -71 3q-37 -29 -37 -61q0 -14 6 -25t22 -18.5t44.5 -12.5t72.5 -6l143 -6q178 -6 269.5 -80.5t91.5 -222.5q0 -83 -38 -156t-109 -127t-173 -85.5t-230 -31.5q-103 0 -185.5 19 t-140.5 56.5t-89 93.5t-31 130q0 78 45 143.5t117 110.5l1 1q-91 50 -91 152q0 57 31.5 105t88.5 80q-78 48 -115 121.5t-37 159.5q0 81 27 151t82 121.5t137 81t192 29.5q46 0 88 -5.5t80 -16.5h341v-205h-116zM421 -10q-49 -34 -73.5 -74.5t-24.5 -82.5q0 -72 58.5 -112 t163.5 -40q63 0 110.5 13t78.5 35.5t46.5 54t15.5 67.5q0 27 -9 50.5t-29.5 41t-54 28t-82.5 12.5l-156 5zM703 674q0 38 -12 70t-34.5 55.5t-56 36.5t-76.5 13q-42 0 -75 -13t-55.5 -36t-34.5 -55t-12 -71t12 -71t34.5 -55.5t55.5 -36.5t75 -13q85 0 132 49t47 127z M720 1454q-30 -14 -50 -28.5t-31.5 -28t-16 -27t-4.5 -25.5q0 -14 3 -23.5t6 -17.5t6 -17.5t3 -22.5q0 -52 -34.5 -83t-87.5 -31q-28 0 -50.5 11t-38.5 29.5t-25 43t-9 52.5q0 33 14.5 71t48 74.5t88.5 67.5t136 50z" />
<glyph unicode="&#x12a;" horiz-adv-x="715" d="M47 0v165q40 9 85.5 16t92.5 10v1000q-47 3 -92.5 10t-85.5 16v165h622v-165q-40 -9 -86 -16t-92 -10v-1000q46 -3 92 -10t86 -16v-165h-622zM59 1518v166h600v-166h-600z" />
<glyph unicode="&#x12b;" horiz-adv-x="684" d="M52 0v165q20 5 66.5 13.5t100.5 12.5v627q-37 6 -82.5 11.5t-84.5 8.5v164q49 6 101 10t106 6t109.5 2.5t110.5 -1.5v-828q42 -3 82.5 -9.5t79.5 -16.5v-165h-589zM31 1228v190h552v-190h-552z" />
<glyph unicode="&#x12e;" horiz-adv-x="715" d="M566 0q-38 0 -80 -19t-78 -51.5t-58 -72.5t-22 -79q0 -33 18.5 -51t53.5 -18q16 0 32.5 3t33 9.5t33.5 15.5t35 22l72 -142q-29 -26 -60.5 -45.5t-65.5 -32t-69 -18.5t-72 -6q-58 0 -105 14t-80.5 40.5t-51.5 65.5t-18 88q0 38 10 75.5t30 72.5t49.5 67.5t67.5 61.5h-194 v165q42 9 87.5 16t90.5 10v1000q-45 3 -90.5 10t-87.5 16v165h622v-165q-41 -9 -87.5 -16t-90.5 -10v-1000q44 -3 90.5 -10t87.5 -16v-165h-103z" />
<glyph unicode="&#x12f;" horiz-adv-x="684" d="M525 1328q0 -33 -13 -62t-35 -50t-52 -33.5t-63 -12.5q-34 0 -64 12t-52.5 33.5t-35 50.5t-12.5 62t12.5 62t35 50.5t52.5 34t64 12.5q33 0 63 -12.5t52 -33.5t35 -50t13 -63zM596 0q-49 0 -95 -19.5t-83 -51t-59 -71.5t-22 -80q0 -33 18.5 -51t53.5 -18q33 0 66 12.5 t68 37.5l72 -142q-58 -52 -126 -77t-142 -25q-58 0 -105 14t-80.5 40.5t-51.5 65t-18 88.5q0 39 11 77.5t32 75t50.5 68t66.5 56.5h-200v165q40 9 86 16t92 10v627q-37 6 -85 11.5t-93 8.5v164q49 6 102.5 10t109 6t113.5 2.5t114 -1.5v-828q44 -3 87 -10t80 -16v-165h-62z " />
<glyph unicode="&#x130;" horiz-adv-x="715" d="M47 0v165q40 9 85.5 16t92.5 10v1000q-47 3 -92.5 10t-85.5 16v165h622v-165q-40 -9 -86 -16t-92 -10v-1000q46 -3 92 -10t86 -16v-165h-622zM514 1626q0 -32 -12 -60.5t-34 -50.5t-50.5 -34t-60.5 -12t-60.5 12t-50 33.5t-33.5 50.5t-12 61t12 60.5t33.5 50t50 33.5 t60.5 12t60.5 -12t50.5 -33.5t34 -50t12 -60.5z" />
<glyph unicode="&#x131;" horiz-adv-x="676" d="M52 0v165q20 5 66.5 13.5t100.5 12.5v627q-37 6 -82.5 11.5t-84.5 8.5v164q49 6 101 10t106 6t109.5 2.5t110.5 -1.5v-828q42 -3 82.5 -9.5t79.5 -16.5v-165h-589z" />
<glyph unicode="&#x136;" horiz-adv-x="1425" d="M803 0v169q26 6 52.5 10t50.5 7l-415 497v-492q33 -3 68 -8.5t67 -13.5v-169h-579v165q40 9 85.5 16t92.5 10v1000q-47 3 -92.5 10t-85.5 16v165h579v-169q-32 -8 -67 -13.5t-68 -8.5v-459l411 463q-26 3 -55 7.5t-52 10.5v169h560v-167q-30 -7 -64 -12.5t-63 -8.5 l-437 -474l467 -532q29 -3 63.5 -8t64.5 -12v-168h-583zM500 -401q60 30 81.5 56.5t21.5 54.5q0 13 -3 22.5t-6 18t-6 17.5t-3 21q0 22 8 43t23.5 37t38 25.5t52.5 9.5q29 0 52 -10.5t38.5 -28.5t24 -43t8.5 -53q0 -36 -15.5 -74.5t-49.5 -74t-88.5 -66t-133.5 -50.5z" />
<glyph unicode="&#x137;" horiz-adv-x="1214" d="M832 0l-372 516v-325q38 -3 71 -8.5t58 -13.5v-169h-555v165q38 9 81 16t84 10v1104q-38 6 -84.5 11.5t-87.5 8.5v165q48 5 100.5 9t108 6t112 2.5t112.5 -1.5v-953l251 289q-31 3 -60.5 9t-48.5 13v164h545v-169q-28 -7 -63.5 -12.5t-72.5 -8.5l-259 -276l274 -359 q35 -4 74 -10t75 -13v-170h-343zM437 -401q60 30 81.5 56.5t21.5 54.5q0 13 -3 22.5t-6 18t-6 17.5t-3 21q0 22 8 43t23.5 37t38 25.5t52.5 9.5q29 0 52 -10.5t38.5 -28.5t24 -43t8.5 -53q0 -36 -15.5 -74.5t-49.5 -74t-88.5 -66t-133.5 -50.5z" />
<glyph unicode="&#x139;" horiz-adv-x="1030" d="M47 0v165q41 9 86 15.5t92 10.5v1000q-47 4 -92 10.5t-86 15.5v165h622v-165q-41 -9 -86 -15.5t-92 -10.5v-971h281q4 39 13 91t23 101h192v-412h-953zM349 1467l-42 142l424 153l60 -186z" />
<glyph unicode="&#x13a;" horiz-adv-x="645" d="M34 0v165q39 9 81 16t84 10v1104q-38 6 -84.5 11.5t-87.5 8.5v165q49 5 102 9t108 6t111 2.5t112 -1.5v-1305q42 -3 82 -9.5t80 -16.5v-165h-588zM204 1590l-42 142l424 153l60 -186z" />
<glyph unicode="&#x13b;" horiz-adv-x="1030" d="M47 0v165q41 9 86 15.5t92 10.5v1000q-47 4 -92 10.5t-86 15.5v165h622v-165q-41 -9 -86 -15.5t-92 -10.5v-971h281q4 39 13 91t23 101h192v-412h-953zM323 -401q60 30 81.5 56.5t21.5 54.5q0 13 -3 22.5t-6 18t-6 17.5t-3 21q0 22 8 43t23.5 37t38 25.5t52.5 9.5 q29 0 52 -10.5t38.5 -28.5t24 -43t8.5 -53q0 -36 -15.5 -74.5t-49.5 -74t-88.5 -66t-133.5 -50.5z" />
<glyph unicode="&#x13c;" horiz-adv-x="645" d="M34 0v165q39 9 81 16t84 10v1104q-38 6 -84.5 11.5t-87.5 8.5v165q49 5 102 9t108 6t111 2.5t112 -1.5v-1305q42 -3 82 -9.5t80 -16.5v-165h-588zM132 -401q60 30 81.5 56.5t21.5 54.5q0 13 -3 22.5t-6 18t-6 17.5t-3 21q0 22 8 43t23.5 37t38 25.5t52.5 9.5 q29 0 52 -10.5t38.5 -28.5t24 -43t8.5 -53q0 -36 -15.5 -74.5t-49.5 -74t-88.5 -66t-133.5 -50.5z" />
<glyph unicode="&#x13d;" horiz-adv-x="1051" d="M47 0v165q41 9 86 15.5t92 10.5v1000q-47 4 -92 10.5t-86 15.5v165h622v-165q-41 -9 -86 -15.5t-92 -10.5v-971h281q4 39 13 91t23 101h192v-412h-953zM913 1133l-168 37l103 420l208 -45z" />
<glyph unicode="&#x13e;" horiz-adv-x="891" d="M34 0v165q39 9 81 16t84 10v1104q-38 6 -84.5 11.5t-87.5 8.5v165q49 5 102 9t108 6t111 2.5t112 -1.5v-1305q42 -3 82 -9.5t80 -16.5v-165h-588zM701 1133l-168 37l103 420l208 -45z" />
<glyph unicode="&#x141;" horiz-adv-x="1038" d="M55 0v165q41 9 87.5 16t90.5 10v398l-146 -48l-37 198l183 58v394q-44 3 -90.5 10t-87.5 16v165h623v-165q-41 -9 -87.5 -16t-90.5 -10v-320l209 65l36 -200l-245 -75v-441h281q3 39 12.5 90.5t23.5 101.5h192v-412h-954z" />
<glyph unicode="&#x142;" horiz-adv-x="686" d="M48 0v165q35 9 77.5 16t87.5 10v460l-122 -61l-47 196l169 86v423q-37 6 -82.5 11.5t-90.5 8.5v165q49 6 101.5 9.5t107 5.5t111.5 2.5t113 -1.5v-488l122 62l49 -197l-171 -85v-597q45 -3 87 -10t79 -16v-165h-591z" />
<glyph unicode="&#x143;" horiz-adv-x="1571" d="M1524 1213q-38 -8 -68.5 -14t-60.5 -9v-1190h-361l-378 683q-26 45 -51.5 92.5t-50.5 96.5t-48.5 97.5t-42.5 92.5q6 -77 9.5 -169t5.5 -198.5t3 -229t1 -273.5q37 -3 75.5 -9t72.5 -14v-169h-583v165q44 10 89 17t89 10v999q-45 3 -90.5 10t-87.5 16v165h540l376 -680 q26 -47 51.5 -94t50.5 -95.5t48.5 -97t42.5 -92.5q-6 81 -9.5 173.5t-5.5 198t-3 224.5t-1 271q-34 3 -69 9t-71 14v169h527v-169zM649 1467l-42 142l424 153l60 -186z" />
<glyph unicode="&#x144;" horiz-adv-x="1305" d="M842 0v650q0 42 -6.5 73t-20.5 52.5t-38.5 33t-60.5 11.5q-48 0 -91 -25t-76 -70.5t-51.5 -106t-18.5 -129.5v-298q48 -4 86.5 -11t54.5 -11v-169h-568v165q20 5 66.5 13.5t100.5 12.5v627q-37 6 -82.5 11.5t-84.5 8.5v164q49 6 100.5 10t104.5 6t106 2.5t103 -1.5 q0 -18 -1 -41.5t-2.5 -48.5t-4 -49.5t-5.5 -44.5l2 -1q23 46 56.5 83.5t76.5 65t96 42t113 14.5q84 0 143.5 -25t95 -70t51.5 -104.5t16 -132.5v-516q56 -4 99.5 -12.5t61.5 -13.5v-165h-422zM671 1143l-117 124l305 295l144 -153z" />
<glyph unicode="&#x145;" horiz-adv-x="1571" d="M1524 1213q-38 -8 -68.5 -14t-60.5 -9v-1190h-361l-378 683q-26 45 -51.5 92.5t-50.5 96.5t-48.5 97.5t-42.5 92.5q6 -77 9.5 -169t5.5 -198.5t3 -229t1 -273.5q37 -3 75.5 -9t72.5 -14v-169h-583v165q44 10 89 17t89 10v999q-45 3 -90.5 10t-87.5 16v165h540l376 -680 q26 -47 51.5 -94t50.5 -95.5t48.5 -97t42.5 -92.5q-6 81 -9.5 173.5t-5.5 198t-3 224.5t-1 271q-34 3 -69 9t-71 14v169h527v-169zM576 -401q60 30 81.5 56.5t21.5 54.5q0 13 -3 22.5t-6 18t-6 17.5t-3 21q0 22 8 43t23.5 37t38 25.5t52.5 9.5q29 0 52 -10.5t38.5 -28.5 t24 -43t8.5 -53q0 -36 -15.5 -74.5t-49.5 -74t-88.5 -66t-133.5 -50.5z" />
<glyph unicode="&#x146;" horiz-adv-x="1305" d="M842 0v650q0 42 -6.5 73t-20.5 52.5t-38.5 33t-60.5 11.5q-48 0 -91 -25t-76 -70.5t-51.5 -106t-18.5 -129.5v-298q48 -4 86.5 -11t54.5 -11v-169h-568v165q20 5 66.5 13.5t100.5 12.5v627q-37 6 -82.5 11.5t-84.5 8.5v164q49 6 100.5 10t104.5 6t106 2.5t103 -1.5 q0 -18 -1 -41.5t-2.5 -48.5t-4 -49.5t-5.5 -44.5l2 -1q23 46 56.5 83.5t76.5 65t96 42t113 14.5q84 0 143.5 -25t95 -70t51.5 -104.5t16 -132.5v-516q56 -4 99.5 -12.5t61.5 -13.5v-165h-422zM473 -401q60 30 81.5 56.5t21.5 54.5q0 13 -3 22.5t-6 18t-6 17.5t-3 21 q0 22 8 43t23.5 37t38 25.5t52.5 9.5q29 0 52 -10.5t38.5 -28.5t24 -43t8.5 -53q0 -36 -15.5 -74.5t-49.5 -74t-88.5 -66t-133.5 -50.5z" />
<glyph unicode="&#x147;" horiz-adv-x="1571" d="M1524 1213q-38 -8 -68.5 -14t-60.5 -9v-1190h-361l-378 683q-26 45 -51.5 92.5t-50.5 96.5t-48.5 97.5t-42.5 92.5q6 -77 9.5 -169t5.5 -198.5t3 -229t1 -273.5q37 -3 75.5 -9t72.5 -14v-169h-583v165q44 10 89 17t89 10v999q-45 3 -90.5 10t-87.5 16v165h540l376 -680 q26 -47 51.5 -94t50.5 -95.5t48.5 -97t42.5 -92.5q-6 81 -9.5 173.5t-5.5 198t-3 224.5t-1 271q-34 3 -69 9t-71 14v169h527v-169zM774 1465l-335 169l62 138l277 -113l281 113l59 -134z" />
<glyph unicode="&#x148;" horiz-adv-x="1305" d="M842 0v650q0 42 -6.5 73t-20.5 52.5t-38.5 33t-60.5 11.5q-48 0 -91 -25t-76 -70.5t-51.5 -106t-18.5 -129.5v-298q48 -4 86.5 -11t54.5 -11v-169h-568v165q20 5 66.5 13.5t100.5 12.5v627q-37 6 -82.5 11.5t-84.5 8.5v164q49 6 100.5 10t104.5 6t106 2.5t103 -1.5 q0 -18 -1 -41.5t-2.5 -48.5t-4 -49.5t-5.5 -44.5l2 -1q23 46 56.5 83.5t76.5 65t96 42t113 14.5q84 0 143.5 -25t95 -70t51.5 -104.5t16 -132.5v-516q56 -4 99.5 -12.5t61.5 -13.5v-165h-422zM648 1146l-311 275l102 122l212 -167l215 167l99 -119z" />
<glyph unicode="&#x14c;" horiz-adv-x="1440" d="M1372 713q0 -173 -53.5 -309.5t-145 -231.5t-214.5 -145.5t-262 -50.5q-157 0 -275 49t-196.5 139t-118 218.5t-39.5 287.5q0 172 53.5 308.5t145 231.5t214 145.5t261.5 50.5q157 0 275 -49t197 -139t118.5 -218t39.5 -287zM1089 681q0 111 -22.5 200.5t-68.5 152.5 t-115 97.5t-161 34.5q-80 0 -148 -30t-117.5 -89t-77.5 -145.5t-28 -199.5q0 -110 22.5 -200t68 -153t114.5 -97t162 -34q80 0 148 30t118 88.5t77.5 145.5t27.5 199zM419 1518v166h600v-166h-600z" />
<glyph unicode="&#x14d;" horiz-adv-x="1135" d="M1066 532q0 -118 -34.5 -219t-101 -176t-164 -116.5t-219.5 -41.5q-110 0 -198 30.5t-150.5 93.5t-96 159t-33.5 224q0 118 34.5 219t101 176t163.5 116.5t219 41.5q110 0 198 -30.5t151 -93.5t96.5 -159t33.5 -224zM795 509q0 74 -15 131.5t-44 97t-71.5 59.5t-95.5 20 t-95 -19.5t-72 -58.5t-46 -97t-16 -133q0 -74 15 -131.5t44 -96.5t71 -58.5t95 -19.5q51 0 93 18.5t73 56t47.5 96t16.5 135.5zM300 1228v190h552v-190h-552z" />
<glyph unicode="&#x150;" horiz-adv-x="1440" d="M1372 713q0 -173 -53.5 -309.5t-145 -231.5t-214.5 -145.5t-262 -50.5q-157 0 -275 49t-196.5 139t-118 218.5t-39.5 287.5q0 172 53.5 308.5t145 231.5t214 145.5t261.5 50.5q157 0 275 -49t197 -139t118.5 -218t39.5 -287zM1089 681q0 111 -22.5 200.5t-68.5 152.5 t-115 97.5t-161 34.5q-80 0 -148 -30t-117.5 -89t-77.5 -145.5t-28 -199.5q0 -110 22.5 -200t68 -153t114.5 -97t162 -34q80 0 148 30t118 88.5t77.5 145.5t27.5 199zM946 1461l-115 108l296 290l140 -139zM555 1461l-121 107l259 305l149 -131z" />
<glyph unicode="&#x151;" horiz-adv-x="1135" d="M1066 532q0 -118 -34.5 -219t-101 -176t-164 -116.5t-219.5 -41.5q-110 0 -198 30.5t-150.5 93.5t-96 159t-33.5 224q0 118 34.5 219t101 176t163.5 116.5t219 41.5q110 0 198 -30.5t151 -93.5t96.5 -159t33.5 -224zM795 509q0 74 -15 131.5t-44 97t-71.5 59.5t-95.5 20 t-95 -19.5t-72 -58.5t-46 -97t-16 -133q0 -74 15 -131.5t44 -96.5t71 -58.5t95 -19.5q51 0 93 18.5t73 56t47.5 96t16.5 135.5zM800 1146l-117 106l293 300l142 -136zM411 1146l-122 105l264 318l151 -127z" />
<glyph unicode="&#x152;" horiz-adv-x="1772" d="M920 0q-60 -11 -115 -17.5t-108 -6.5q-155 0 -273 48t-197.5 139t-119 219t-39.5 288q0 168 52 305t145 233.5t215.5 147t261.5 50.5q109 0 206 -24h710v-339h-197q-4 16 -11 51.5t-11 77.5h-278v-367h225q4 39 11.5 69.5t11.5 43.5h170v-416h-170q-4 13 -11.5 43 t-11.5 69h-225v-400h283q5 43 12 80.5t11 53.5h200v-348h-747zM896 1138q-42 14 -84.5 21t-91.5 7q-80 0 -147.5 -30.5t-117 -89.5t-77 -146t-27.5 -198t23 -200.5t68.5 -153t115 -97t160.5 -33.5q40 0 87.5 8.5t90.5 23.5v888z" />
<glyph unicode="&#x153;" horiz-adv-x="1761" d="M1683 607q0 -25 -1 -51t-2.5 -47t-2.5 -33.5t-2 -17.5h-629q-1 -69 15 -120t49 -85.5t84 -52t121 -17.5q74 0 150.5 13.5t155.5 39.5l28 -194q-86 -31 -180.5 -47t-184.5 -16q-71 0 -130 11t-106 31.5t-82 51t-61 69.5q-25 -36 -61.5 -66t-83 -52t-100.5 -33.5 t-113 -11.5q-110 0 -198 30.5t-150.5 93.5t-96 159t-33.5 224q0 118 34.5 219t101 176t163.5 116.5t219 41.5q57 0 107.5 -9t94.5 -28t81 -48t66 -68q23 34 55.5 61.5t74 48t91 32t105.5 11.5q108 0 188.5 -33t132 -91.5t76 -137t24.5 -170.5zM1424 634q1 51 -10.5 91 t-34.5 67t-56.5 40.5t-75.5 13.5q-40 0 -74.5 -14.5t-61 -42t-43 -67t-21.5 -88.5h377zM795 509q0 74 -15 131.5t-44 97t-71.5 59.5t-95.5 20t-95 -19.5t-72 -58.5t-46 -97t-16 -133q0 -74 15 -131.5t44 -96.5t71 -58.5t95 -19.5q51 0 93 18.5t73 56t47.5 96t16.5 135.5z " />
<glyph unicode="&#x154;" horiz-adv-x="1284" d="M900 0l-317 573h-92v-382q30 -3 62.5 -8.5t64.5 -13.5v-169h-571v165q40 9 85.5 16t92.5 10v1000q-47 3 -92.5 10t-85.5 16v165h161q13 0 39 1t60.5 2t76 2t85.5 2t87.5 1.5t84.5 0.5q118 0 213 -21t161.5 -68t102 -122t35.5 -183q0 -70 -21.5 -129.5t-62 -105.5 t-97.5 -79.5t-127 -50.5q19 -24 37 -50.5t33 -51.5l199 -338q29 -4 62.5 -9.5t68.5 -11.5v-171h-345zM873 980q0 51 -15 89t-47 62.5t-81.5 37t-116.5 12.5q-13 0 -30 -0.5l-34 -1t-32.5 -1.5t-25.5 -2v-406h128q60 0 107.5 14t80 41.5t49.5 66t17 88.5zM450 1467l-42 142 l424 153l60 -186z" />
<glyph unicode="&#x155;" horiz-adv-x="840" d="M52 0v165q24 6 79 15t88 11v627q-37 6 -82.5 11.5t-84.5 8.5v164q98 11 204 16t209 1q0 -20 -1.5 -45.5t-3.5 -53.5t-6 -57.5t-8 -56.5l3 -1q21 57 46 101.5t58 74.5t76.5 45.5t102.5 15.5q15 0 38.5 -2t34.5 -3l-7 -255q-38 5 -53 6t-31 1q-69 0 -114.5 -33t-72 -86 t-37.5 -120t-11 -134v-225q32 -2 88 -11t80 -15v-165h-595zM458 1143l-117 124l305 295l144 -153z" />
<glyph unicode="&#x156;" horiz-adv-x="1284" d="M900 0l-317 573h-92v-382q30 -3 62.5 -8.5t64.5 -13.5v-169h-571v165q40 9 85.5 16t92.5 10v1000q-47 3 -92.5 10t-85.5 16v165h161q13 0 39 1t60.5 2t76 2t85.5 2t87.5 1.5t84.5 0.5q118 0 213 -21t161.5 -68t102 -122t35.5 -183q0 -70 -21.5 -129.5t-62 -105.5 t-97.5 -79.5t-127 -50.5q19 -24 37 -50.5t33 -51.5l199 -338q29 -4 62.5 -9.5t68.5 -11.5v-171h-345zM873 980q0 51 -15 89t-47 62.5t-81.5 37t-116.5 12.5q-13 0 -30 -0.5l-34 -1t-32.5 -1.5t-25.5 -2v-406h128q60 0 107.5 14t80 41.5t49.5 66t17 88.5zM440 -401 q60 30 81.5 56.5t21.5 54.5q0 13 -3 22.5t-6 18t-6 17.5t-3 21q0 22 8 43t23.5 37t38 25.5t52.5 9.5q29 0 52 -10.5t38.5 -28.5t24 -43t8.5 -53q0 -36 -15.5 -74.5t-49.5 -74t-88.5 -66t-133.5 -50.5z" />
<glyph unicode="&#x157;" horiz-adv-x="840" d="M52 0v165q24 6 79 15t88 11v627q-37 6 -82.5 11.5t-84.5 8.5v164q98 11 204 16t209 1q0 -20 -1.5 -45.5t-3.5 -53.5t-6 -57.5t-8 -56.5l3 -1q21 57 46 101.5t58 74.5t76.5 45.5t102.5 15.5q15 0 38.5 -2t34.5 -3l-7 -255q-38 5 -53 6t-31 1q-69 0 -114.5 -33t-72 -86 t-37.5 -120t-11 -134v-225q32 -2 88 -11t80 -15v-165h-595zM165 -401q60 30 81.5 56.5t21.5 54.5q0 13 -3 22.5t-6 18t-6 17.5t-3 21q0 22 8 43t23.5 37t38 25.5t52.5 9.5q29 0 52 -10.5t38.5 -28.5t24 -43t8.5 -53q0 -36 -15.5 -74.5t-49.5 -74t-88.5 -66t-133.5 -50.5z " />
<glyph unicode="&#x158;" horiz-adv-x="1284" d="M900 0l-317 573h-92v-382q30 -3 62.5 -8.5t64.5 -13.5v-169h-571v165q40 9 85.5 16t92.5 10v1000q-47 3 -92.5 10t-85.5 16v165h161q13 0 39 1t60.5 2t76 2t85.5 2t87.5 1.5t84.5 0.5q118 0 213 -21t161.5 -68t102 -122t35.5 -183q0 -70 -21.5 -129.5t-62 -105.5 t-97.5 -79.5t-127 -50.5q19 -24 37 -50.5t33 -51.5l199 -338q29 -4 62.5 -9.5t68.5 -11.5v-171h-345zM873 980q0 51 -15 89t-47 62.5t-81.5 37t-116.5 12.5q-13 0 -30 -0.5l-34 -1t-32.5 -1.5t-25.5 -2v-406h128q60 0 107.5 14t80 41.5t49.5 66t17 88.5zM607 1465l-335 169 l62 138l277 -113l281 113l59 -134z" />
<glyph unicode="&#x159;" horiz-adv-x="840" d="M52 0v165q24 6 79 15t88 11v627q-37 6 -82.5 11.5t-84.5 8.5v164q98 11 204 16t209 1q0 -20 -1.5 -45.5t-3.5 -53.5t-6 -57.5t-8 -56.5l3 -1q21 57 46 101.5t58 74.5t76.5 45.5t102.5 15.5q15 0 38.5 -2t34.5 -3l-7 -255q-38 5 -53 6t-31 1q-69 0 -114.5 -33t-72 -86 t-37.5 -120t-11 -134v-225q32 -2 88 -11t80 -15v-165h-595zM483 1146l-311 275l102 122l212 -167l215 167l99 -119z" />
<glyph unicode="&#x15a;" horiz-adv-x="1061" d="M988 397q0 -94 -35 -171.5t-102.5 -133.5t-164.5 -86t-217 -30q-119 0 -221 14t-147 23v369h204q4 -21 11 -67.5t11 -98.5q20 -5 66 -12t101 -7q50 0 89 11.5t65.5 33.5t40.5 54t14 73q0 47 -25 82.5t-66.5 61.5t-99 51t-123 53.5t-118 60.5t-95.5 77t-68.5 107.5 t-25.5 144.5q0 90 34.5 163.5t101 126.5t162 81t215.5 28q99 0 186 -12t125 -20v-353h-199q-4 20 -11 65.5t-11 96.5q-13 3 -44.5 6.5t-69.5 3.5q-49 0 -87.5 -10.5t-65 -31t-40 -50t-13.5 -66.5q0 -47 25 -81.5t66.5 -60.5t98.5 -50.5t123.5 -53.5t119.5 -61t96 -77.5 t68.5 -108.5t25.5 -145zM427 1467l-42 142l424 153l60 -186z" />
<glyph unicode="&#x15b;" horiz-adv-x="907" d="M613 718q-4 18 -8 37.5t-7.5 43.5t-5.5 50q-13 2 -29 5q-14 2 -32.5 3.5t-38.5 1.5q-74 0 -114 -26t-40 -74q0 -34 21.5 -58t57 -42.5t80.5 -34.5t91.5 -34.5t91.5 -42.5t80.5 -58t57 -81.5t21.5 -112.5q0 -71 -27.5 -129t-82.5 -99.5t-138 -64.5t-195 -23 q-63 0 -118.5 4.5t-97.5 9.5q-49 6 -91 15v302h169q4 -19 7.5 -38.5t7 -43t6.5 -48.5q18 -4 38.5 -7.5t45 -6t53.5 -2.5q75 0 116.5 28t41.5 79q0 34 -21.5 58.5t-56.5 43t-79.5 35t-91 35t-91 42.5t-79.5 58t-56.5 81.5t-21.5 112.5q0 67 27.5 122.5t82 95.5t136 62 t189.5 22q50 0 97.5 -4.5t85.5 -9.5q44 -6 84 -14v-293h-166zM416 1143l-117 124l305 295l144 -153z" />
<glyph unicode="&#x15e;" horiz-adv-x="1061" d="M988 397q0 -94 -35 -171.5t-102.5 -133.5t-164.5 -86t-217 -30q-119 0 -221 14t-147 23v369h204q4 -21 11 -67.5t11 -98.5q20 -5 66 -12t101 -7q50 0 89 11.5t65.5 33.5t40.5 54t14 73q0 47 -25 82.5t-66.5 61.5t-99 51t-123 53.5t-118 60.5t-95.5 77t-68.5 107.5 t-25.5 144.5q0 90 34.5 163.5t101 126.5t162 81t215.5 28q99 0 186 -12t125 -20v-353h-199q-4 20 -11 65.5t-11 96.5q-13 3 -44.5 6.5t-69.5 3.5q-49 0 -87.5 -10.5t-65 -31t-40 -50t-13.5 -66.5q0 -47 25 -81.5t66.5 -60.5t98.5 -50.5t123.5 -53.5t119.5 -61t96 -77.5 t68.5 -108.5t25.5 -145zM591 -82q39 -53 54.5 -105.5t8.5 -102.5t-33.5 -97t-70.5 -93h-197q39 46 60 86t24.5 79t-11.5 79.5t-51 86.5z" />
<glyph unicode="&#x15f;" horiz-adv-x="907" d="M613 718q-4 18 -8 37.5t-7.5 43.5t-5.5 50q-13 2 -29 5q-14 2 -32.5 3.5t-38.5 1.5q-74 0 -114 -26t-40 -74q0 -34 21.5 -58t57 -42.5t80.5 -34.5t91.5 -34.5t91.5 -42.5t80.5 -58t57 -81.5t21.5 -112.5q0 -71 -27.5 -129t-82.5 -99.5t-138 -64.5t-195 -23 q-63 0 -118.5 4.5t-97.5 9.5q-49 6 -91 15v302h169q4 -19 7.5 -38.5t7 -43t6.5 -48.5q18 -4 38.5 -7.5t45 -6t53.5 -2.5q75 0 116.5 28t41.5 79q0 34 -21.5 58.5t-56.5 43t-79.5 35t-91 35t-91 42.5t-79.5 58t-56.5 81.5t-21.5 112.5q0 67 27.5 122.5t82 95.5t136 62 t189.5 22q50 0 97.5 -4.5t85.5 -9.5q44 -6 84 -14v-293h-166zM519 -82q39 -53 54.5 -105.5t8.5 -102.5t-33.5 -97t-70.5 -93h-197q39 46 60 86t24.5 79t-11.5 79.5t-51 86.5z" />
<glyph unicode="&#x160;" horiz-adv-x="1061" d="M988 397q0 -94 -35 -171.5t-102.5 -133.5t-164.5 -86t-217 -30q-119 0 -221 14t-147 23v369h204q4 -21 11 -67.5t11 -98.5q20 -5 66 -12t101 -7q50 0 89 11.5t65.5 33.5t40.5 54t14 73q0 47 -25 82.5t-66.5 61.5t-99 51t-123 53.5t-118 60.5t-95.5 77t-68.5 107.5 t-25.5 144.5q0 90 34.5 163.5t101 126.5t162 81t215.5 28q99 0 186 -12t125 -20v-353h-199q-4 20 -11 65.5t-11 96.5q-13 3 -44.5 6.5t-69.5 3.5q-49 0 -87.5 -10.5t-65 -31t-40 -50t-13.5 -66.5q0 -47 25 -81.5t66.5 -60.5t98.5 -50.5t123.5 -53.5t119.5 -61t96 -77.5 t68.5 -108.5t25.5 -145zM526 1465l-335 169l62 138l277 -113l281 113l59 -134z" />
<glyph unicode="&#x161;" horiz-adv-x="909" d="M613 718q-4 18 -8 37.5t-7.5 43.5t-5.5 50q-13 2 -29 5q-14 2 -32.5 3.5t-38.5 1.5q-74 0 -114 -26t-40 -74q0 -34 21.5 -58t57 -42.5t80.5 -34.5t91.5 -34.5t91.5 -42.5t80.5 -58t57 -81.5t21.5 -112.5q0 -71 -27.5 -129t-82.5 -99.5t-138 -64.5t-195 -23 q-63 0 -118.5 4.5t-97.5 9.5q-49 6 -91 15v302h169q4 -19 7.5 -38.5t7 -43t6.5 -48.5q18 -4 38.5 -7.5t45 -6t53.5 -2.5q75 0 116.5 28t41.5 79q0 34 -21.5 58.5t-56.5 43t-79.5 35t-91 35t-91 42.5t-79.5 58t-56.5 81.5t-21.5 112.5q0 67 27.5 122.5t82 95.5t136 62 t189.5 22q50 0 97.5 -4.5t85.5 -9.5q44 -6 84 -14v-293h-166zM455 1146l-311 275l102 122l212 -167l215 167l99 -119z" />
<glyph unicode="&#x162;" horiz-adv-x="1202" d="M971 992l-14.5 87t-11.5 84h-211v-972q45 -3 90.5 -10t87.5 -16v-165h-623v165q43 9 88.5 16t90.5 10v972h-212q-3 -33 -7 -59t-18 -112h-196v390h1132v-390h-196zM683 -82q39 -53 54.5 -105.5t8.5 -102.5t-33.5 -97t-70.5 -93h-197q39 46 60 86t24.5 79t-11.5 79.5 t-51 86.5z" />
<glyph unicode="&#x163;" horiz-adv-x="768" d="M705 7q-51 -12 -111 -19.5t-111 -7.5q-86 0 -142 16.5t-89.5 53.5t-48 97.5t-14.5 151.5v517h-177v202h177v313l260 71v-384h247v-202h-247v-448q0 -50 6 -82t20 -51t37 -27t58 -8q30 0 59 4t57 11zM526 -82q39 -53 54.5 -105.5t8.5 -102.5t-33.5 -97t-70.5 -93h-197 q39 46 60 86t24.5 79t-11.5 79.5t-51 86.5z" />
<glyph unicode="&#x164;" horiz-adv-x="1202" d="M971 992l-14.5 87t-11.5 84h-211v-972q45 -3 90.5 -10t87.5 -16v-165h-623v165q43 9 88.5 16t90.5 10v972h-212q-3 -33 -7 -59t-18 -112h-196v390h1132v-390h-196zM597 1465l-335 169l62 138l277 -113l281 113l59 -134z" />
<glyph unicode="&#x165;" horiz-adv-x="836" d="M705 7q-51 -12 -111 -19.5t-111 -7.5q-86 0 -142 16.5t-89.5 53.5t-48 97.5t-14.5 151.5v517h-177v202h177v313l260 71v-384h247v-202h-247v-448q0 -50 6 -82t20 -51t37 -27t58 -8q30 0 59 4t57 11zM703 1133l-168 37l103 420l208 -45z" />
<glyph unicode="&#x16a;" horiz-adv-x="1456" d="M1409 1213q-69 -16 -126 -22v-653q0 -137 -37.5 -242t-110.5 -176.5t-179.5 -107.5t-243.5 -36q-106 0 -189 19t-142.5 53.5t-99.5 81.5t-63 104t-33 119.5t-10 132.5v705q-60 7 -128 22v169h542v-169q-35 -8 -73 -13.5t-74 -8.5v-688q0 -72 13 -127t45 -95.5t88 -62.5 t140 -22q78 0 133 18t90 57t52 102t17 154v664q-36 3 -74.5 8.5t-73.5 13.5v169h537v-169zM427 1518v166h600v-166h-600z" />
<glyph unicode="&#x16b;" horiz-adv-x="1268" d="M1243 14q-45 -5 -95.5 -8.5t-104 -5.5t-107 -2.5t-102.5 1.5q0 20 1 43t2.5 47.5t4 48t5.5 44.5l-4 1q-23 -46 -56.5 -83t-77.5 -64.5t-97.5 -42t-114.5 -14.5q-83 0 -142 25t-94.5 69t-51.5 102t-16 128v515q-40 6 -82 11.5t-80 8.5v166q45 5 95.5 8.5t105 5.5t111 2.5 t112.5 -1.5v-652q0 -42 6 -72.5t20.5 -52t38.5 -33t60 -11.5q49 0 92.5 25.5t76 71.5t50.5 105.5t18 125.5v293q-33 6 -71.5 10.5t-75.5 7.5v168q46 5 95.5 8.5t101 5.5t105 2t106.5 -2v-819q38 -6 82.5 -11.5t82.5 -8.5v-166zM355 1228v190h552v-190h-552z" />
<glyph unicode="&#x16e;" horiz-adv-x="1456" d="M1409 1213q-69 -16 -126 -22v-653q0 -137 -37.5 -242t-110.5 -176.5t-179.5 -107.5t-243.5 -36q-106 0 -189 19t-142.5 53.5t-99.5 81.5t-63 104t-33 119.5t-10 132.5v705q-60 7 -128 22v169h542v-169q-35 -8 -73 -13.5t-74 -8.5v-688q0 -72 13 -127t45 -95.5t88 -62.5 t140 -22q78 0 133 18t90 57t52 102t17 154v664q-36 3 -74.5 8.5t-73.5 13.5v169h537v-169zM1006 1695q0 -54 -20.5 -99.5t-59 -78t-90.5 -50t-114 -17.5t-110.5 14t-82.5 42t-51.5 71.5t-17.5 100.5q0 54 20.5 99.5t59 78t90.5 50t114 17.5t110.5 -14t82.5 -42t51.5 -71.5 t17.5 -100.5zM829 1686q0 28 -6 48.5t-17.5 33.5t-29.5 19.5t-41 6.5q-21 0 -39 -7t-31.5 -20.5t-21 -33.5t-7.5 -45q0 -28 6 -49t18 -34t30 -19.5t42 -6.5q21 0 38.5 7t30.5 20.5t20.5 33.5t7.5 46z" />
<glyph unicode="&#x16f;" horiz-adv-x="1268" d="M1243 14q-45 -5 -95.5 -8.5t-104 -5.5t-107 -2.5t-102.5 1.5q0 20 1 43t2.5 47.5t4 48t5.5 44.5l-4 1q-23 -46 -56.5 -83t-77.5 -64.5t-97.5 -42t-114.5 -14.5q-83 0 -142 25t-94.5 69t-51.5 102t-16 128v515q-40 6 -82 11.5t-80 8.5v166q45 5 95.5 8.5t105 5.5t111 2.5 t112.5 -1.5v-652q0 -42 6 -72.5t20.5 -52t38.5 -33t60 -11.5q49 0 92.5 25.5t76 71.5t50.5 105.5t18 125.5v293q-33 6 -71.5 10.5t-75.5 7.5v168q46 5 95.5 8.5t101 5.5t105 2t106.5 -2v-819q38 -6 82.5 -11.5t82.5 -8.5v-166zM895 1367q0 -56 -20.5 -103.5t-58.5 -81.5 t-89.5 -52.5t-111.5 -18.5q-62 0 -109.5 14.5t-80.5 44t-50 74t-17 103.5q0 56 20.5 103.5t58 82t89 53t111.5 18.5q62 0 110 -14.5t81 -44.5t50 -74.5t17 -103.5zM722 1356q0 30 -6 51.5t-18 35t-29.5 20.5t-41.5 7q-21 0 -38.5 -7.5t-30.5 -21.5t-20.5 -35t-7.5 -48 q0 -29 6 -50.5t18 -35.5t29.5 -20.5t41.5 -6.5q21 0 39 7t31 21t20 35t7 48z" />
<glyph unicode="&#x170;" horiz-adv-x="1456" d="M1409 1213q-69 -16 -126 -22v-653q0 -137 -37.5 -242t-110.5 -176.5t-179.5 -107.5t-243.5 -36q-106 0 -189 19t-142.5 53.5t-99.5 81.5t-63 104t-33 119.5t-10 132.5v705q-60 7 -128 22v169h542v-169q-35 -8 -73 -13.5t-74 -8.5v-688q0 -72 13 -127t45 -95.5t88 -62.5 t140 -22q78 0 133 18t90 57t52 102t17 154v664q-36 3 -74.5 8.5t-73.5 13.5v169h537v-169zM912 1461l-115 108l296 290l140 -139zM521 1461l-121 107l259 305l149 -131z" />
<glyph unicode="&#x171;" horiz-adv-x="1268" d="M1243 14q-45 -5 -95.5 -8.5t-104 -5.5t-107 -2.5t-102.5 1.5q0 20 1 43t2.5 47.5t4 48t5.5 44.5l-4 1q-23 -46 -56.5 -83t-77.5 -64.5t-97.5 -42t-114.5 -14.5q-83 0 -142 25t-94.5 69t-51.5 102t-16 128v515q-40 6 -82 11.5t-80 8.5v166q45 5 95.5 8.5t105 5.5t111 2.5 t112.5 -1.5v-652q0 -42 6 -72.5t20.5 -52t38.5 -33t60 -11.5q49 0 92.5 25.5t76 71.5t50.5 105.5t18 125.5v293q-33 6 -71.5 10.5t-75.5 7.5v168q46 5 95.5 8.5t101 5.5t105 2t106.5 -2v-819q38 -6 82.5 -11.5t82.5 -8.5v-166zM823 1146l-117 106l293 300l142 -136z M434 1146l-122 105l264 318l151 -127z" />
<glyph unicode="&#x172;" horiz-adv-x="1456" d="M1283 537q0 -140 -36 -242.5t-110 -176.5q-23 -24 -50.5 -45t-57.5 -43.5t-61 -47t-60 -52.5q-39 -39 -58 -76t-19 -76q0 -34 18.5 -51.5t53.5 -17.5q33 0 66 12.5t68 37.5l73 -142q-59 -52 -127 -77t-141 -25q-58 0 -105.5 14t-80.5 40.5t-51 65t-18 88.5 q0 70 36.5 137.5t108.5 119.5q-9 0 -21 -0.5t-21 -0.5q-103 0 -180.5 18.5t-135 51.5t-95.5 79.5t-61.5 102t-33 118.5t-9.5 130v712q-68 8 -128 22v169h542v-169q-35 -8 -73 -13.5t-74 -8.5v-695q0 -67 12 -123.5t44 -97t87.5 -63.5t142.5 -23q77 0 132 18t90.5 57 t52.5 102.5t17 153.5v671q-37 3 -75 8.5t-73 13.5v169h537v-169q-61 -14 -126 -22v-654z" />
<glyph unicode="&#x173;" horiz-adv-x="1268" d="M1236 14q-73 -4 -133.5 -26.5t-111.5 -73.5q-15 -15 -27 -32t-20.5 -34.5t-12.5 -35t-4 -34.5q0 -33 19 -51t54 -18q16 0 32.5 3t33 9.5t33.5 16t34 21.5l73 -142q-29 -26 -61 -45.5t-65.5 -32t-69 -18.5t-72.5 -6q-58 0 -105 14t-80.5 40.5t-51.5 65.5t-18 88 q0 41 11 80t33 76t54.5 71.5t75.5 68.5q-4 18 -7 38t-5 40.5t-3 40t0 36.5h-3q-25 -43 -58.5 -79t-76.5 -62t-96 -40t-114 -14q-83 0 -142 25t-94 69t-51 102t-16 128v515q-38 6 -82 11.5t-82 8.5v166q45 5 96 8.5t105.5 5.5t111 2.5t112.5 -1.5v-652q0 -41 6.5 -72 t20.5 -52.5t38.5 -33t60.5 -11.5q49 0 92.5 25.5t76 71.5t50.5 105.5t18 125.5v293q-32 5 -72 10t-78 8v168q46 5 95.5 8.5t102.5 5.5t106.5 2t106.5 -2v-635q0 -45 2 -94t6 -91q20 -3 39.5 -6t39 -5.5t37.5 -4t36 -3.5v-166z" />
<glyph unicode="&#x178;" horiz-adv-x="1251" d="M1238 1213q-23 -6 -53 -10.5t-56 -7.5l-372 -724v-280q46 -3 92 -10t86 -16v-165h-623v165q40 9 85.5 16t92.5 10v279l-367 725q-23 3 -53.5 7.5t-53.5 10.5v169h526v-169q-28 -7 -58.5 -11.5t-61.5 -7.5l125 -273q10 -24 21.5 -50t23.5 -53t23 -53t20 -50h2 q9 25 20 52.5t22.5 55.5t23.5 54.5t23 49.5l124 267q-33 3 -64 7.5t-60 11.5v169h512v-169v0zM992 1613q0 -29 -11 -55t-30.5 -45.5t-45 -30.5t-54.5 -11t-55 11t-45.5 30.5t-30.5 45.5t-11 55t11 54.5t30.5 45t45.5 30.5t55 11t54.5 -11t45 -30.5t30.5 -45t11 -54.5z M551 1613q0 -29 -11 -55t-30.5 -45.5t-45.5 -30.5t-55 -11t-54.5 11t-45 30.5t-30.5 45.5t-11 55t11 54.5t30.5 45t45 30.5t54.5 11t55 -11t45.5 -30.5t30.5 -45t11 -54.5z" />
<glyph unicode="&#x179;" horiz-adv-x="1112" d="M83 0v206l539 827q22 34 43 66t46 64q-36 -2 -86 -2.5t-117 -0.5h-187q-3 -35 -8.5 -74t-15.5 -80h-201v376h929v-213l-568 -848q-15 -25 -30.5 -48t-33.5 -47q13 1 34 2t50 1h64.5h76.5h194q4 37 10.5 78t16.5 86h195v-393h-951zM436 1467l-42 142l424 153l60 -186z" />
<glyph unicode="&#x17a;" horiz-adv-x="938" d="M77 0v193l475 633q-15 -1 -37 -1.5t-46.5 -1t-50 -1t-49.5 -0.5h-93q-4 -33 -8.5 -63t-12.5 -64h-170v323h759v-193l-465 -619q16 1 38 1.5t46.5 1t49.5 0.5h48h104q4 31 8.5 62.5t12.5 66.5h171v-338h-780zM419 1143l-117 124l305 295l144 -153z" />
<glyph unicode="&#x17b;" horiz-adv-x="1112" d="M83 0v206l539 827q22 34 43 66t46 64q-36 -2 -86 -2.5t-117 -0.5h-187q-3 -35 -8.5 -74t-15.5 -80h-201v376h929v-213l-568 -848q-15 -25 -30.5 -48t-33.5 -47q13 1 34 2t50 1h64.5h76.5h194q4 37 10.5 78t16.5 86h195v-393h-951zM720 1626q0 -32 -12 -60.5t-34 -50.5 t-50.5 -34t-60.5 -12t-60.5 12t-50 33.5t-33.5 50.5t-12 61t12 60.5t33.5 50t50 33.5t60.5 12t60.5 -12t50.5 -33.5t34 -50t12 -60.5z" />
<glyph unicode="&#x17c;" horiz-adv-x="938" d="M77 0v193l475 633q-15 -1 -37 -1.5t-46.5 -1t-50 -1t-49.5 -0.5h-93q-4 -33 -8.5 -63t-12.5 -64h-170v323h759v-193l-465 -619q16 1 38 1.5t46.5 1t49.5 0.5h48h104q4 31 8.5 62.5t12.5 66.5h171v-338h-780zM625 1326q0 -32 -12 -60.5t-34 -50t-50.5 -33.5t-60.5 -12 t-60.5 12t-50 33.5t-33.5 50t-12 60.5t12 60.5t33.5 50t50 33.5t60.5 12t60.5 -12t50.5 -33.5t34 -50t12 -60.5z" />
<glyph unicode="&#x17d;" horiz-adv-x="1112" d="M83 0v206l539 827q22 34 43 66t46 64q-36 -2 -86 -2.5t-117 -0.5h-187q-3 -35 -8.5 -74t-15.5 -80h-201v376h929v-213l-568 -848q-15 -25 -30.5 -48t-33.5 -47q13 1 34 2t50 1h64.5h76.5h194q4 37 10.5 78t16.5 86h195v-393h-951zM568 1465l-335 169l62 138l277 -113 l281 113l59 -134z" />
<glyph unicode="&#x17e;" horiz-adv-x="938" d="M77 0v193l475 633q-15 -1 -37 -1.5t-46.5 -1t-50 -1t-49.5 -0.5h-93q-4 -33 -8.5 -63t-12.5 -64h-170v323h759v-193l-465 -619q16 1 38 1.5t46.5 1t49.5 0.5h48h104q4 31 8.5 62.5t12.5 66.5h171v-338h-780zM461 1146l-311 275l102 122l212 -167l215 167l99 -119z" />
<glyph unicode="&#x192;" d="M1031 1195q-45 14 -90.5 22t-82.5 8q-44 0 -76 -11.5t-54 -37t-35 -66.5t-19 -100l-23 -247h289v-202h-308l-42 -442q-11 -117 -46 -202t-93.5 -139.5t-140 -80.5t-184.5 -26q-20 0 -43.5 1t-48.5 4t-49.5 7.5t-46.5 10.5l30 220q21 -6 43.5 -11t46 -9t46.5 -6.5t42 -2.5 q41 0 72.5 11.5t53.5 37t35.5 67t19.5 99.5l44 461h-234v202h253l23 229q11 117 45.5 201.5t93 139.5t139.5 81t185 26q43 0 92.5 -6.5t93.5 -16.5z" />
<glyph unicode="&#x218;" horiz-adv-x="1061" d="M988 397q0 -94 -35 -171.5t-102.5 -133.5t-164.5 -86t-217 -30q-119 0 -221 14t-147 23v369h204q4 -21 11 -67.5t11 -98.5q20 -5 66 -12t101 -7q50 0 89 11.5t65.5 33.5t40.5 54t14 73q0 47 -25 82.5t-66.5 61.5t-99 51t-123 53.5t-118 60.5t-95.5 77t-68.5 107.5 t-25.5 144.5q0 90 34.5 163.5t101 126.5t162 81t215.5 28q99 0 186 -12t125 -20v-353h-199q-4 20 -11 65.5t-11 96.5q-13 3 -44.5 6.5t-69.5 3.5q-49 0 -87.5 -10.5t-65 -31t-40 -50t-13.5 -66.5q0 -47 25 -81.5t66.5 -60.5t98.5 -50.5t123.5 -53.5t119.5 -61t96 -77.5 t68.5 -108.5t25.5 -145zM308 -401q60 30 81.5 56.5t21.5 54.5q0 13 -3 22.5t-6 18t-6 17.5t-3 21q0 22 8 43t23.5 37t38 25.5t52.5 9.5q29 0 52 -10.5t38.5 -28.5t24 -43t8.5 -53q0 -36 -15.5 -74.5t-49.5 -74t-88.5 -66t-133.5 -50.5z" />
<glyph unicode="&#x219;" horiz-adv-x="907" d="M613 718q-4 18 -8 37.5t-7.5 43.5t-5.5 50q-13 2 -29 5q-14 2 -32.5 3.5t-38.5 1.5q-74 0 -114 -26t-40 -74q0 -34 21.5 -58t57 -42.5t80.5 -34.5t91.5 -34.5t91.5 -42.5t80.5 -58t57 -81.5t21.5 -112.5q0 -71 -27.5 -129t-82.5 -99.5t-138 -64.5t-195 -23 q-63 0 -118.5 4.5t-97.5 9.5q-49 6 -91 15v302h169q4 -19 7.5 -38.5t7 -43t6.5 -48.5q18 -4 38.5 -7.5t45 -6t53.5 -2.5q75 0 116.5 28t41.5 79q0 34 -21.5 58.5t-56.5 43t-79.5 35t-91 35t-91 42.5t-79.5 58t-56.5 81.5t-21.5 112.5q0 67 27.5 122.5t82 95.5t136 62 t189.5 22q50 0 97.5 -4.5t85.5 -9.5q44 -6 84 -14v-293h-166zM242 -401q60 30 81.5 56.5t21.5 54.5q0 13 -3 22.5t-6 18t-6 17.5t-3 21q0 22 8 43t23.5 37t38 25.5t52.5 9.5q29 0 52 -10.5t38.5 -28.5t24 -43t8.5 -53q0 -36 -15.5 -74.5t-49.5 -74t-88.5 -66t-133.5 -50.5z " />
<glyph unicode="&#x21a;" horiz-adv-x="1202" d="M971 992l-14.5 87t-11.5 84h-211v-972q45 -3 90.5 -10t87.5 -16v-165h-623v165q43 9 88.5 16t90.5 10v972h-212q-3 -33 -7 -59t-18 -112h-196v390h1132v-390h-196zM395 -401q60 30 81.5 56.5t21.5 54.5q0 13 -3 22.5t-6 18t-6 17.5t-3 21q0 22 8 43t23.5 37t38 25.5 t52.5 9.5q29 0 52 -10.5t38.5 -28.5t24 -43t8.5 -53q0 -36 -15.5 -74.5t-49.5 -74t-88.5 -66t-133.5 -50.5z" />
<glyph unicode="&#x21b;" horiz-adv-x="768" d="M705 7q-51 -12 -111 -19.5t-111 -7.5q-86 0 -142 16.5t-89.5 53.5t-48 97.5t-14.5 151.5v517h-177v202h177v313l260 71v-384h247v-202h-247v-448q0 -50 6 -82t20 -51t37 -27t58 -8q30 0 59 4t57 11zM249 -401q60 30 81.5 56.5t21.5 54.5q0 13 -3 22.5t-6 18t-6 17.5 t-3 21q0 22 8 43t23.5 37t38 25.5t52.5 9.5q29 0 52 -10.5t38.5 -28.5t24 -43t8.5 -53q0 -36 -15.5 -74.5t-49.5 -74t-88.5 -66t-133.5 -50.5z" />
<glyph unicode="&#x2c6;" horiz-adv-x="895" d="M659 1146l-211 167l-215 -167l-99 119l317 278l311 -275z" />
<glyph unicode="&#x2c7;" horiz-adv-x="895" d="M445 1146l-311 275l102 122l212 -167l215 167l99 -119z" />
<glyph unicode="&#x2d8;" horiz-adv-x="827" d="M694 1475q0 -64 -17 -120t-51.5 -99.5t-89 -68.5t-126.5 -25t-125 25t-86.5 69t-49 100t-15.5 119h168q0 -28 7 -51t21 -40t34.5 -26t47.5 -9q52 0 81.5 32t29.5 94h171z" />
<glyph unicode="&#x2d9;" horiz-adv-x="580" d="M447 1326q0 -32 -12 -60.5t-34 -50t-50.5 -33.5t-60.5 -12t-60.5 12t-50 33.5t-33.5 50t-12 60.5t12 60.5t33.5 50t50 33.5t60.5 12t60.5 -12t50.5 -33.5t34 -50t12 -60.5z" />
<glyph unicode="&#x2da;" horiz-adv-x="805" d="M671 1367q0 -56 -20.5 -103.5t-58.5 -81.5t-89.5 -52.5t-111.5 -18.5q-62 0 -109.5 14.5t-80.5 44t-50 74t-17 103.5q0 56 20.5 103.5t58 82t89 53t111.5 18.5q62 0 110 -14.5t81 -44.5t50 -74.5t17 -103.5zM498 1356q0 30 -6 51.5t-18 35t-29.5 20.5t-41.5 7 q-21 0 -38.5 -7.5t-30.5 -21.5t-20.5 -35t-7.5 -48q0 -29 6 -50.5t18 -35.5t29.5 -20.5t41.5 -6.5q21 0 39 7t31 21t20 35t7 48z" />
<glyph unicode="&#x2db;" horiz-adv-x="791" d="M657 -383q-29 -26 -61 -45.5t-65.5 -32t-69 -18.5t-72.5 -6q-58 0 -105 14t-80.5 40.5t-51.5 65.5t-18 88q0 41 11 80t32.5 75.5t53.5 71.5t75 69l250 -19q-50 -30 -84.5 -59.5t-55 -57.5t-29.5 -54t-9 -51q0 -33 18.5 -51t53.5 -18q33 0 65.5 12.5t68.5 37.5z" />
<glyph unicode="&#x2dc;" horiz-adv-x="1006" d="M873 1365q-45 -90 -107.5 -136.5t-141.5 -46.5q-46 0 -80 14t-73 42t-57 38t-43 10q-34 0 -60.5 -22.5t-52.5 -69.5l-124 96q45 89 107.5 135.5t140.5 46.5q46 0 80 -13.5t73.5 -41.5t57 -38t42.5 -10q34 0 61 22.5t52 69.5z" />
<glyph unicode="&#x2dd;" horiz-adv-x="1096" d="M645 1146l-117 106l293 300l142 -136zM256 1146l-122 105l264 318l151 -127z" />
<glyph unicode="&#x312;" horiz-adv-x="0" d="M-384 1454q-30 -14 -50 -28.5t-31.5 -28t-16 -27t-4.5 -25.5q0 -14 3 -23.5t6 -17.5t6 -17.5t3 -22.5q0 -52 -34.5 -83t-87.5 -31q-28 0 -50.5 11t-38.5 29.5t-25 43t-9 52.5q0 33 14.5 71t48 74.5t88.5 67.5t136 50z" />
<glyph unicode="&#x315;" horiz-adv-x="129" d="M93 1133l-168 37l103 420l208 -45z" />
<glyph unicode="&#x326;" horiz-adv-x="0" d="M-786 -401q60 30 81.5 56.5t21.5 54.5q0 13 -3 22.5t-6 18t-6 17.5t-3 21q0 22 8 43t23.5 37t38 25.5t52.5 9.5q29 0 52 -10.5t38.5 -28.5t24 -43t8.5 -53q0 -36 -15.5 -74.5t-49.5 -74t-88.5 -66t-133.5 -50.5z" />
<glyph unicode="&#x394;" horiz-adv-x="1257" d="M55 0v201l406 1181h325l418 -1181v-201h-1149zM670 922q-17 52 -30 102.5t-24 105.5h-4q-11 -55 -25 -109.5t-30 -105.5l-227 -675h571z" />
<glyph unicode="&#x3a9;" horiz-adv-x="1450" d="M67 341h160q9 -34 17.5 -72.5t13.5 -72.5h176v123q-64 21 -129.5 60.5t-118 100t-86 144t-33.5 193.5q0 77 18 150.5t54.5 138.5t92 120.5t130.5 95t169.5 62t209.5 22.5q158 0 277.5 -45t201 -122t122.5 -181t41 -223q0 -77 -17.5 -142t-46.5 -119t-67.5 -96.5t-79 -74 t-81 -53t-75.5 -31.5v-123h176q4 31 12.5 70.5t18.5 74.5h160v-341h-565v421q55 17 106 50.5t90.5 81.5t62.5 111t23 137q0 84 -25.5 152t-73.5 116t-118 74.5t-159 26.5q-96 0 -166.5 -30t-116.5 -80.5t-68.5 -116t-22.5 -137.5q0 -78 22.5 -141t60.5 -111t90 -81t110 -52 v-421h-566v341z" />
<glyph unicode="&#x3bc;" horiz-adv-x="1255" d="M197 818q-37 6 -82 11.5t-85 8.5v166q44 5 95.5 8.5t106 5.5t112 2.5t114.5 -1.5v-660q0 -83 30 -122t96 -39q51 0 95 24.5t75.5 68.5t49 105t17.5 135v288q-32 5 -72 10t-78 8v168q45 5 95 8.5t102.5 5.5t106.5 2t107 -2v-652q0 -46 3.5 -77.5t12 -51t22 -28t34.5 -9.5 q7 0 14.5 -0.5t15.5 1.5l21 -204q-25 -8 -59 -13t-77 -5q-58 0 -97.5 16t-64.5 42.5t-36 62.5t-13 76l-2 1q-18 -44 -46 -79.5t-64.5 -61t-82 -39t-99.5 -13.5q-41 0 -75 12t-55 36l30 -526h-267v1311z" />
<glyph unicode="&#x3c0;" horiz-adv-x="1303" d="M1037 803q-4 -31 -5 -63.5t-1.5 -64t0 -60.5t1.5 -54q3 -41 5.5 -74t5.5 -60t6.5 -50t7.5 -44q6 -31 14 -56t19 -42t25 -26.5t34 -9.5q19 0 37.5 2.5t34.5 7.5l23 -211q-29 -8 -67 -13t-81 -5q-66 0 -115 14.5t-84 46.5t-58.5 85.5t-38.5 130.5q-5 26 -9 54.5t-7.5 61 t-6.5 70t-5 82.5q-2 29 -2 63t1 70.5t2 73.5t3 71h-281q4 -68 5.5 -138t-4.5 -140q-12 -139 -36.5 -277.5t-68.5 -273.5l-279 52q23 67 42 129.5t34.5 124t27.5 122t20 123.5q5 32 8 66.5t5 70t1.5 71.5t-2.5 70h-208v215h1204v-215h-207z" />
<glyph unicode="&#x2013;" d="M0 495v229h1126v-229h-1126z" />
<glyph unicode="&#x2014;" horiz-adv-x="2048" d="M227 495v229h1594v-229h-1594z" />
<glyph unicode="&#x2018;" horiz-adv-x="547" d="M471 1452q-52 -56 -80.5 -101.5t-37.5 -83.5t1 -70t33 -61q29 -34 33.5 -76.5t-12 -81t-52.5 -64.5t-90 -26q-48 0 -86.5 25.5t-59 71.5t-21 108t26 135.5t84.5 154.5t153 165l108 -96v0z" />
<glyph unicode="&#x2019;" horiz-adv-x="547" d="M278 1530q48 0 86.5 -25.5t59 -71.5t21 -108t-26 -135.5t-84.5 -154.5t-153 -164l-109 96q53 56 81.5 101.5t37 83.5t-1 69.5t-33.5 60.5q-19 22 -27.5 49.5t-7 55t13 53t31.5 46t48 32.5t64 12z" />
<glyph unicode="&#x201a;" horiz-adv-x="547" d="M278 305q49 0 87 -25.5t59 -71.5t21.5 -108t-26.5 -135.5t-85 -154.5t-153 -165l-108 97q52 56 80.5 101.5t37.5 83t-0.5 69.5t-33.5 61q-19 22 -27.5 49t-7 54.5t13 54t31 46.5t48 32t63.5 12z" />
<glyph unicode="&#x201c;" horiz-adv-x="993" d="M919 1452q-53 -56 -81.5 -101.5t-37 -83.5t1 -70t33.5 -61q20 -22 28 -49t6.5 -54.5t-12.5 -54t-31 -46.5t-48 -32t-64 -12q-48 0 -86.5 25.5t-59 71.5t-21 108t26 135.5t84 154.5t153.5 165zM471 1452q-52 -56 -80.5 -101.5t-37.5 -83.5t1 -70t33 -61q29 -34 33.5 -76.5 t-12 -81t-52.5 -64.5t-90 -26q-48 0 -86.5 25.5t-59 71.5t-21 108t26 135.5t84.5 154.5t153 165z" />
<glyph unicode="&#x201d;" horiz-adv-x="993" d="M725 1530q49 0 87 -25.5t59 -71.5t21.5 -108t-26.5 -135.5t-85 -154.5t-153 -164l-108 96q53 56 81.5 101.5t37 83.5t-1 69.5t-33.5 60.5q-19 22 -27.5 49.5t-7 55t13 53t31 46t48 32.5t63.5 12zM278 1530q48 0 86.5 -25.5t59 -71.5t21 -108t-26 -135.5t-84.5 -154.5 t-153 -164l-109 96q53 56 81.5 101.5t37 83.5t-1 69.5t-33.5 60.5q-19 22 -27.5 49.5t-7 55t13 53t31.5 46t48 32.5t64 12z" />
<glyph unicode="&#x201e;" horiz-adv-x="993" d="M725 305q49 0 87 -25.5t59 -71.5t21.5 -108t-26.5 -135.5t-85 -154.5t-153 -165l-108 97q53 56 81.5 101.5t37 83t-1 69.5t-33.5 61q-19 22 -27.5 49t-7 54.5t13 54t31 46.5t48 32t63.5 12zM278 305q48 0 86.5 -25.5t59 -71.5t21 -108t-26 -135.5t-84.5 -154.5t-153 -165 l-109 97q53 56 81.5 101.5t37 83t-1 69.5t-33.5 61q-19 22 -27.5 49t-7 54.5t13 54t31.5 46.5t48 32t64 12z" />
<glyph unicode="&#x2020;" horiz-adv-x="936" d="M576 1092l43 -180l-48 -522h-204l-50 522l45 180h-276v202h276l-45 279h302l-43 -279h275v-202h-275z" />
<glyph unicode="&#x2021;" horiz-adv-x="936" d="M578 587l43 -249h-306l44 249h-273v202h273l-42 167l42 166h-273v202h273l-42 249h302l-41 -249h273v-202h-273l41 -166l-41 -167h273v-202h-273z" />
<glyph unicode="&#x2022;" horiz-adv-x="866" d="M736 608q0 -63 -23.5 -118t-65 -96t-97 -65t-117.5 -24q-63 0 -118.5 24t-96.5 65t-65 96t-24 118t24 118t65 96.5t96.5 65.5t118.5 24q62 0 117.5 -24t97 -65.5t65 -96.5t23.5 -118z" />
<glyph unicode="&#x2026;" horiz-adv-x="1481" d="M1373 137q0 -33 -13 -61.5t-34.5 -50.5t-50.5 -35t-62 -13t-62 13t-51 35t-34.5 50.5t-12.5 61.5t12.5 62t34.5 51t51 35t62 13t62 -13t50.5 -35t34.5 -51t13 -62zM894 137q0 -33 -12.5 -61.5t-34.5 -50.5t-51 -35t-62 -13t-62 13t-50.5 35t-34.5 50.5t-13 61.5t13 62 t34.5 51t50.5 35t62 13t62 -13t51 -35t34.5 -51t12.5 -62zM417 137q0 -33 -12.5 -61.5t-34.5 -50.5t-51 -35t-62 -13t-62 13t-51 35t-34.5 50.5t-12.5 61.5t12.5 62t34.5 51t51 35t62 13t62 -13t51 -35t34.5 -51t12.5 -62z" />
<glyph unicode="&#x2030;" horiz-adv-x="2154" d="M2058 314q0 -79 -25 -142t-67 -106t-97 -66.5t-116 -23.5q-66 0 -119 20.5t-90.5 59.5t-57.5 97.5t-20 135.5t24.5 139t66 104.5t96.5 65.5t116 23t114 -17.5t92 -54.5t61 -95.5t22 -139.5zM1386 314q0 -79 -24.5 -142t-66.5 -106t-97 -66.5t-116 -23.5q-66 0 -119 20.5 t-90.5 59.5t-58 97.5t-20.5 135.5t24.5 139t66.5 104.5t97 65.5t116 23t113.5 -17.5t91.5 -54.5t61 -95.5t22 -139.5zM278 -41l-155 121l1062 1290l156 -122zM674 1048q0 -80 -24.5 -142t-66.5 -106t-97 -67t-116 -23q-66 0 -119 20.5t-90.5 59.5t-58 97.5t-20.5 135.5 t24.5 139t66.5 104.5t97 65.5t116 23t113.5 -17.5t91.5 -54.5t61 -95.5t22 -139.5zM1868 301q0 42 -6.5 72t-19.5 48.5t-32.5 26.5t-44.5 8q-23 0 -43 -10.5t-34.5 -30.5t-22.5 -49.5t-8 -66.5q0 -44 7 -74t20 -48.5t32.5 -27t44.5 -8.5q23 0 42.5 10.5t34 31t22.5 50 t8 68.5zM1196 301q0 42 -6 72t-19 48.5t-32.5 26.5t-44.5 8q-24 0 -44 -10.5t-34.5 -30.5t-22.5 -49.5t-8 -66.5q0 -44 7 -74t20.5 -48.5t33 -27t44.5 -8.5q23 0 42.5 10.5t33.5 31t22 50t8 68.5zM484 1035q0 43 -6 72.5t-19 48t-32.5 27t-44.5 8.5q-24 0 -44 -10.5 t-34.5 -31t-22.5 -50t-8 -67.5q0 -43 7 -73t20.5 -48.5t33 -27t44.5 -8.5q23 0 42.5 10.5t33.5 31t22 50t8 68.5z" />
<glyph unicode="&#x2039;" horiz-adv-x="639" d="M316 205l-233 394l237 398l199 -96l-184 -302l188 -296z" />
<glyph unicode="&#x203a;" horiz-adv-x="639" d="M320 205l-200 96l185 302l-187 296l207 98l231 -394z" />
<glyph unicode="&#x2044;" horiz-adv-x="412" d="M-364 -308l-161 112l1335 1853l160 -112z" />
<glyph unicode="&#x2070;" horiz-adv-x="969" d="M895 1184q0 -113 -30 -200.5t-86 -147t-134.5 -89.5t-174.5 -30t-170 27t-124.5 81.5t-76.5 139.5t-26 199q0 113 30 200.5t86 147t134.5 89.5t174.5 30t169.5 -27t124.5 -82t77 -139.5t26 -198.5zM644 1169q0 72 -10.5 125.5t-31 89t-50 53t-67.5 17.5 q-39 0 -68.5 -16.5t-50.5 -50.5t-31.5 -85t-10.5 -120q0 -72 10.5 -126.5t31 -90.5t50 -53.5t66.5 -17.5q39 0 69 17t51 51t31.5 86t10.5 121z" />
<glyph unicode="&#x2074;" horiz-adv-x="858" d="M680 956v-79q35 -3 67 -9t60 -14v-120h-511v120q32 8 69.5 14t75.5 9v79h-380l-21 183l323 475h317v-483h132v-175h-132zM445 1451l-216 -327q19 1 47.5 2t59 1.5t56 0.5h53.5v323z" />
<glyph unicode="&#x20ac;" d="M1100 63q-63 -37 -155 -61.5t-185 -24.5q-121 -1 -217 26.5t-167.5 83.5t-117 141t-66.5 198h-147v145h132q-1 11 -1 23v31q0 24 0.5 47.5t2.5 46.5h-134v143h153q24 116 72 207.5t122 156.5t174.5 99.5t226.5 34.5q32 0 66 -2t69 -6.5t69 -11.5t66 -15v-334h-166 q-9 30 -14.5 62t-10.5 75q-45 21 -118 21q-61 0 -108 -18t-80.5 -53.5t-55.5 -89t-33 -126.5h334v-143h-347q-1 -14 -1 -28.5v-37.5q0 -22 0.5 -42t2.5 -40h345v-145h-322q33 -114 107.5 -173.5t194.5 -59.5q73 0 139.5 15.5t124.5 45.5q17 -73 30 -126.5t15 -64.5z" />
<glyph unicode="&#x2122;" horiz-adv-x="1753" d="M1358 761v113q19 5 34 8.5t29 6.5l-31 179l-13 79l-18 -71l-88 -315h-184l-87 318l-16 68l-7 -58l-37 -200q19 -3 35.5 -7t30.5 -8v-113h-319v115q17 4 34 6.5t42 6.5l74 362q-25 3 -50 7.5t-49 10.5v113h352l74 -270l19 -86l18 81l79 275h357v-113q-24 -6 -49 -10.5 t-49 -7.5l74 -361q18 -1 35 -4t39 -8v-117h-329zM557 1122q-5 29 -9.5 59t-6.5 55h-77v-343q26 -2 54 -7t55 -12v-113h-401v113q28 7 54.5 12t52.5 7v343h-76q-2 -23 -5 -42t-11 -72h-119v260h609v-260h-120z" />
<glyph unicode="&#x2202;" horiz-adv-x="1298" d="M1172 817q0 -95 -12 -186.5t-38 -175.5t-65.5 -159t-95.5 -137q-37 -40 -82 -72t-96 -54.5t-107.5 -35t-116.5 -12.5q-106 0 -187 31t-135.5 87.5t-82.5 136.5t-28 178q0 109 36.5 200.5t103 159t160.5 105.5t209 38q44 0 84.5 -9t74.5 -26t61 -41.5t46 -54.5 q-4 44 -7 76t-7 60q-12 89 -48 157.5t-91 114.5t-125.5 69t-151.5 23l36 219q150 -1 272.5 -49.5t210 -138.5t135 -217t47.5 -287zM847 487q0 46 -13.5 85t-41.5 68t-69.5 45t-97.5 16q-53 0 -97 -20t-76 -54.5t-50 -82.5t-18 -104t15 -98.5t42.5 -71.5t66.5 -43.5t87 -14.5 q54 0 100 20.5t79.5 57t53 87t19.5 110.5z" />
<glyph unicode="&#x220f;" horiz-adv-x="1606" d="M1324 1274v-1767h-246v1767h-549v-1767h-246v1767h-199v221h1437v-221h-197z" />
<glyph unicode="&#x2211;" horiz-adv-x="1243" d="M74 -493v203l595 810l-559 770v205h1001v-221h-679l540 -745l-589 -794h759v-228h-1068z" />
<glyph unicode="&#x2212;" d="M80 495v229h966v-229h-966z" />
<glyph unicode="&#x221a;" horiz-adv-x="1262" d="M765 0h-305l-276 822h-178v196h394l164 -529q16 -48 29.5 -97.5t24.5 -100.5h3q10 51 20.5 98t22.5 90l288 1073h287z" />
<glyph unicode="&#x221e;" horiz-adv-x="2015" d="M1926 623q0 -79 -27.5 -149.5t-81 -123.5t-133 -84t-181.5 -31q-58 0 -117.5 14.5t-122 43t-128 69.5t-136.5 93q-56 -42 -116.5 -81.5t-125 -70t-132.5 -49.5t-139 -19q-100 0 -174 29t-123.5 79t-74 117t-24.5 142q0 83 29.5 154t84 123t130.5 81t168 29 q62 0 124 -15.5t125.5 -44.5t128.5 -70.5t134 -93.5q53 41 114 80.5t126 71.5t133 52t136 20q97 0 172 -28t126 -77t78 -116t27 -145zM1674 614q0 32 -10.5 59t-31 46.5t-50.5 31t-67 11.5q-32 0 -67.5 -11t-74 -30.5t-79.5 -46.5t-84 -59q48 -36 90.5 -64t80 -47.5t71 -30 t64.5 -10.5q39 0 68.5 12.5t49.5 33t30 48t10 57.5zM803 607q-48 35 -90 64t-79 49.5t-70.5 31t-63.5 10.5q-39 0 -68.5 -12.5t-49.5 -33t-30.5 -47.5t-10.5 -57q0 -33 11 -59.5t31.5 -46.5t50 -31.5t67.5 -11.5q32 0 66.5 10.5t72 29.5t78.5 45.5t85 58.5z" />
<glyph unicode="&#x222b;" horiz-adv-x="707" d="M660 1272q-19 7 -44 11t-50 4q-32 0 -55 -10t-38 -39t-21.5 -80.5t-6.5 -134.5q0 -81 1.5 -158t4.5 -153.5t6.5 -154t6.5 -160.5t4.5 -173t1.5 -190q0 -147 -20.5 -251.5t-63 -170.5t-106.5 -96.5t-150 -30.5q-28 0 -58 3.5t-58 9.5v227q21 -6 44.5 -9.5t44.5 -3.5 q32 0 56 10t39.5 39.5t22.5 82t7 136.5q0 119 -4 230t-9 227.5t-9 245t-4 282.5q0 149 23.5 253.5t68.5 169.5t110.5 94.5t147.5 29.5q24 0 53.5 -4t54.5 -10v-226v0z" />
<glyph unicode="&#x2248;" d="M1048 768q-27 -27 -59 -51t-68 -42t-75.5 -28t-83.5 -10q-43 0 -79 8.5t-66.5 21.5t-59.5 28.5t-58.5 28.5t-62.5 22t-72 9q-29 0 -56 -6.5t-53 -18.5t-49.5 -27.5t-45.5 -33.5l-82 175q28 26 62 50t72 42t78.5 28.5t81.5 10.5q45 0 83.5 -9t71.5 -22.5t62.5 -29t58 -29 t57.5 -22.5t61 -9q52 0 101.5 25t93.5 65zM1050 356q-29 -26 -63 -48.5t-71.5 -38.5t-77 -26t-77.5 -10q-47 0 -84.5 9t-69.5 22t-60.5 28.5t-57 28.5t-59 22t-66.5 9q-29 0 -55.5 -7t-51.5 -19t-48.5 -28t-44.5 -33l-86 175q24 23 55.5 46.5t67.5 42t76 30.5t83 12 q46 0 83 -9t69 -22.5t61 -29t59 -29t63.5 -22.5t74.5 -9q51 0 100 19.5t96 61.5z" />
<glyph unicode="&#x2260;" d="M562 307l-99 -247h-234l98 247h-232v211h315l71 180h-386v211h469l98 248h235l-99 -248h234v-211h-317l-72 -180h389v-211h-470z" />
<glyph unicode="&#x2264;" d="M795 297l-683 526l680 526l166 -177l-495 -347l495 -345zM145 0v218h836v-218h-836z" />
<glyph unicode="&#x2265;" d="M334 297l-166 177l496 348l-496 344l164 183l682 -525zM145 0v218h836v-218h-836z" />
<glyph unicode="&#x25ca;" horiz-adv-x="1282" d="M728 -18h-164l-519 712l514 707h161l517 -714zM630 1116l-296 -415l315 -436l302 414z" />
<glyph unicode="&#x25fc;" horiz-adv-x="1020" d="M0 1020h1020v-1020h-1020v1020z" />
<glyph unicode="&#xf6c9;" horiz-adv-x="752" d="M176 1467l-42 142l424 153l60 -186z" />
<glyph unicode="&#xf6ca;" horiz-adv-x="946" d="M469 1465l-335 169l62 138l277 -113l281 113l59 -134z" />
<glyph unicode="&#xf6cb;" horiz-adv-x="991" d="M858 1613q0 -29 -11 -55t-30.5 -45.5t-45 -30.5t-54.5 -11t-55 11t-45.5 30.5t-30.5 45.5t-11 55t11 54.5t30.5 45t45.5 30.5t55 11t54.5 -11t45 -30.5t30.5 -45t11 -54.5zM417 1613q0 -29 -11 -55t-30.5 -45.5t-45.5 -30.5t-55 -11t-54.5 11t-45 30.5t-30.5 45.5t-11 55 t11 54.5t30.5 45t45 30.5t54.5 11t55 -11t45.5 -30.5t30.5 -45t11 -54.5z" />
<glyph unicode="&#xf6ce;" horiz-adv-x="752" d="M576 1467l-442 109l61 186l423 -153z" />
<glyph unicode="&#xf6cf;" horiz-adv-x="1102" d="M646 1461l-115 108l296 290l140 -139zM255 1461l-121 107l259 305l149 -131z" />
<glyph unicode="&#xf6d0;" horiz-adv-x="868" d="M134 1518v166h600v-166h-600z" />
<glyph unicode="&#xf8ff;" horiz-adv-x="2138" d="M1627 1204q-9 11 -20 23t-22.5 23.5t-23 21.5t-20.5 18l191 231q34 -28 66 -59t59 -68zM1805 672q2 28 2 61t-2 61l301 28q5 -46 5 -90.5t-4 -88.5zM1132 1448q-31 4 -62.5 3.5t-60.5 -3.5l-30 296q45 6 91 5.5t89 -5.5zM601 1288q-11 -9 -22.5 -19.5t-22.5 -21.5 t-21.5 -22.5t-19.5 -22.5l-236 195q30 35 61 67t66 59zM1595 732q0 -52 -10 -101.5t-28 -94.5t-42.5 -84.5t-55.5 -71.5v-164l-32 -9l65 -156l-63 -16l63 -151l-66 -16l20 -50l-63 -147h-117q-4 -21 -20 -38.5t-42.5 -30.5t-60.5 -21t-73 -8q-41 0 -75.5 8t-61 21.5t-42 31 t-18.5 37.5h-118l-110 267l64 18l-66 155l72 20l-38 91v161q-30 34 -54.5 73.5t-42 84t-27 92.5t-9.5 99q0 109 41 204.5t112.5 167t167 113t205.5 41.5q108 0 203.5 -41.5t167 -113t113 -167t41.5 -204.5zM32 642q-5 44 -5 90t5 91l307 -29q-3 -29 -3 -62t3 -61zM1087 772 q5 0 5 10.5t-5 10.5q8 -11 0 -21zM1085 786q-5 0 -4.5 -1.5t1.5 -3t1.5 -2.5t-2.5 -1v-2q5 0 5.5 1t-0.5 2.5l-2 3t1 1.5v2zM1077 782q0 3 -2.5 4t-5.5 -2q2 0 3 0.5t3 -2.5q-2 0 -4 -1.5t-2 -3t1 -1.5t5 2v-2h2v6zM1069 772q-6 10 0 21q-5 0 -5 -10.5t5 -10.5zM1455 732 q0 80 -30.5 150.5t-82.5 123t-122.5 83.5t-149.5 31q-80 0 -150.5 -31t-123.5 -83.5t-83.5 -123t-30.5 -150.5q0 -87 36 -163t99 -131h102l-30 264q-27 -5 -46.5 -12t-34.5 -12q-10 -3 -17 4t-11.5 20.5t-6.5 30t0 31t6 25.5t12 14q63 19 135 31.5t144 12.5q75 0 145 -12.5 t135 -31.5q7 -3 11.5 -13.5t5.5 -25.5t-1 -31t-6 -29.5t-11.5 -20.5t-18.5 -3q-15 5 -35.5 11t-47.5 11l-27 -264h102q27 25 51.5 56.5t42.5 68.5t28.5 79.5t10.5 89.5zM1061 778q-3 -2 -3 3t3 3v2q-5 2 -5.5 -5t5.5 -5v2zM1053 786h-2v-6q0 -3 -1 -2.5t-1 2.5v6h-2v-6 q0 -5 3 -4t3 4v6zM1044 778h-4v13h-2v-15h6v2zM1148 719q-19 3 -38 4.5t-40 1.5t-41 -1.5t-39 -4.5l28 -281h104zM1319 328h-501v-97l30 -69l471 120v46zM1293 176l-479 -124l27 -63l480 121zM1294 3l-478 -123l47 -114h413l23 55l-9 21l-143 -37l-30 85l205 51z" />
<glyph unicode="&#xfb00;" horiz-adv-x="1442" />
<glyph unicode="&#xfb01;" horiz-adv-x="1380" />
<glyph unicode="&#xfb02;" horiz-adv-x="1378" />
<glyph unicode="&#xfb03;" horiz-adv-x="2050" />
<glyph unicode="&#xfb04;" horiz-adv-x="2050" />
<glyph horiz-adv-x="1966" d="M1802 1169q0 -8 -4 -8q-22 3 -43 0.5t-43 -4.5q-35 -2 -61 -3t-47.5 -2.5t-39.5 -3.5t-36 -5q-8 -7 -10.5 -15.5t-3.5 -17t-2 -17.5t-5 -18q0 -9 3.5 -16t5.5 -15q5 -6 12.5 -9t15.5 -5q14 2 27.5 8t19.5 19q0 8 -4 13.5t-10 10.5q-5 4 -10.5 5t-11 1t-10.5 1.5t-9 7.5 q6 10 19.5 8t25.5 -2q11 -3 18.5 -12t12.5 -21q-2 -17 -12 -30.5t-25 -24.5q-11 -3 -21.5 -5t-21.5 -5q-25 6 -51 16t-41 33q-4 12 -3.5 23t2 22t4 22t3.5 23q-5 9 -13.5 7.5t-17.5 0.5l-67 -2q0 3 -2.5 4t-2.5 4q7 5 15 4.5t14 1.5q19 -3 39 -1.5t39 1.5q8 6 9 16t1 19 q6 14 7 32.5t12 29.5q5 3 9 2t7 -4t6 -7t6 -6q6 -8 6.5 -16.5t0.5 -18.5v-20t4 -19q4 -6 9.5 -7.5t11.5 -1l12 1t12 -0.5q24 1 48 1.5t52 1.5t60 3t71 7q3 -2 4.5 -2.5t3.5 -4.5zM1327 1028q-25 0 -52.5 -1t-51.5 -9q-8 3 -15 5t-12 11q5 28 7.5 57.5t-5.5 57.5 q-5 6 -13.5 0.5t-15.5 -8.5q-14 -9 -28 -19t-26 -22t-20 -26.5t-10 -31.5q-8 -8 -18.5 -11.5t-19.5 1.5q-6 7 -6.5 15t0 16t1.5 16.5t-2 16.5l-2 63q-6 6 -16 3.5t-21 0.5q-2 1 -6 1.5t-7.5 1t-6 2t-2.5 6.5q26 -2 52.5 2.5t53.5 -0.5q6 -6 6.5 -14t0 -16.5t1.5 -15.5 t11 -10q28 13 53.5 30t52.5 28q6 -4 14 -4h15t12.5 -2.5t8.5 -12.5q5 -22 3.5 -43.5t0.5 -44.5q3 -6 2.5 -12.5t5.5 -11.5q8 -2 14 -3t12 3q8 0 16 -2.5t19 -2.5q2 -2 2.5 -4.5t-2.5 -5.5zM915 1145q8 -38 -14 -64q-11 -7 -21 -15.5t-20 -16.5t-21 -14t-24 -7q-6 2 -9 -0.5 t-5 -6t-4.5 -5.5t-8.5 2q-11 8 -24.5 4t-26.5 -2q-12 0 -22 0.5t-21 5.5q-8 7 -16 14.5t-14.5 16.5t-9 20t2.5 23q7 18 18.5 34t31.5 27q21 11 44.5 22t51.5 5q16 -1 33 -2.5t32 -6t27 -12.5t20 -22zM926 1360q-11 -13 -27.5 -17.5t-32.5 0.5q-9 13 -17.5 24.5t-10.5 25.5 q-13 21 -31.5 32.5t-40 18.5t-44.5 11.5t-44 10.5l-64 4q-5 -5 -12.5 -3t-13.5 -1q-35 -11 -61.5 -20.5t-51.5 -22.5q-6 -8 -15 -14t-17 -12.5t-15 -14.5t-8 -20q-13 -31 -17 -69.5t-6 -73.5q10 -8 22 -5.5t23 0.5q44 5 87 5h89q4 -2 4.5 -7t-1.5 -8q-9 -6 -16.5 -5t-15.5 4 t-15.5 5.5t-16.5 -0.5q-20 2 -42 -1t-42 -1q-18 -3 -38 -4t-36 -10l-6 -8q-2 -19 -2 -34v-29.5t1 -30t3 -35.5q1 -7 0.5 -14.5t-0.5 -14.5t1.5 -14.5t6.5 -14.5q26 -2 41.5 -1.5t29 2t29.5 3.5t42 3q6 5 13 2t13 -5q2 -2 1 -4t1 -4l-8 -4q-24 4 -42.5 3.5t-37.5 -3t-41 -4.5 t-53 0q-22 -2 -46.5 -4t-47.5 0q-32 -2 -67 -2t-64 8l-4 6q3 3 8 6t10 5q16 -8 37 -10t43 -5q14 2 28 1t25 7q-1 26 2 49t6.5 45t8 45.5t6.5 51.5q-2 4 -6 8q-31 1 -59 -0.5t-56 10.5q-2 5 0.5 8t5.5 3q28 -8 57.5 -8.5t57.5 1.5l4 7q5 34 11.5 70.5t19.5 64.5v6 q46 54 107 86.5t136 40.5q38 5 75 -4t69 -23q9 -3 20 -3t21 -5q35 -8 69.5 -24.5t57.5 -47.5q3 -3 2.5 -8t-2.5 -10zM1571 -127q-23 1 -48.5 -1t-52 -4.5t-51.5 -4t-47 1.5q-57 2 -112.5 -1t-110.5 -7t-110 -5t-111 5q-51 -8 -99 -3.5t-98 9.5q-60 5 -122.5 3.5t-125.5 -1.5 q-21 0 -47.5 -0.5t-54.5 -2.5t-54.5 -5t-47.5 -9q-8 -2 -17 -1.5t-14 10.5q0 32 -2.5 66.5t8.5 66.5q3 40 1.5 81.5t4.5 82.5q-4 23 -3.5 45.5t2 45t2.5 45.5t-3 46q0 66 5.5 132.5t8.5 135.5q5 74 2 146.5t0 146.5q4 9 10.5 11t13.5 2t15 -0.5t15 1.5q8 -5 18 -5.5 t19.5 0.5t19.5 2.5t18 0.5q7 7 16 11.5t11 -9.5q3 -5 0.5 -12t5.5 -12q-4 -29 -3 -78.5t4 -107t7 -117t7 -109.5q32 10 61.5 25t58 31.5t57 32t60.5 26.5q11 5 20 12t23 12q3 2 8 7t13 0q10 -5 8 -15.5t-2 -19.5q-10 -28 -12.5 -61t2.5 -64q5 -9 13.5 -5.5t14.5 3.5 q17 14 35 23t35 22q20 12 41 23.5t43 19.5q25 17 48.5 33.5t49.5 25.5l41 33q3 8 12 14q7 0 12 -3.5t11 -8.5q0 -29 6 -58.5t6 -58.5q2 -6 6 -4.5t6 -3.5q8 -11 3.5 -21.5t-7.5 -19.5l4 -4q35 8 65 26.5t59.5 39t59 39t64.5 26.5q10 9 22 12.5t23 14.5q10 1 19 8.5t18 14 t19 8.5t22 -7q3 0 7.5 -1.5t6.5 -6.5q-2 -8 2 -13t7 -11q-2 -8 -1.5 -15.5t1 -14t0.5 -13.5t-4 -13q1 -13 0 -26t-1 -25.5t2.5 -24t8.5 -22.5q-2 -7 0.5 -13t4.5 -12t2.5 -11.5t-3.5 -10.5q2 -16 0.5 -29.5t7.5 -25.5q2 -10 3 -19.5t-5 -17.5q5 -23 5.5 -47.5t8.5 -47.5 q-5 -8 -2.5 -16t2.5 -16q0 -39 3.5 -76t8 -74t8.5 -74.5t5 -76.5q0 -3 2.5 -8.5t-0.5 -10.5zM870 1104q-5 22 -16 43.5t-37 26.5q-3 -11 -12.5 -8.5t-16.5 1.5q-14 7 -28.5 3t-24.5 -15q-11 -15 -11.5 -30t5 -29.5t14 -28.5t17.5 -27q3 -8 9.5 -6t14.5 0q14 -5 26.5 2.5 t25.5 12.5q6 6 13.5 11.5t13.5 11.5t8.5 13.5t-1.5 18.5zM1513 -20l-16 34t-20 31q-13 22 -27.5 42t-17.5 46q-5 9 -10.5 17.5t-2.5 17.5q14 17 34 27.5t34 25.5l-19 35q-18 -2 -33 -8.5t-30 -11.5q-4 -3 -8.5 -7t-9.5 -6.5t-10.5 -2.5t-10.5 5q2 41 3 81.5t-1 78.5l-4 6 q-16 0 -28.5 5t-26.5 10q-3 -23 -6.5 -48.5t0.5 -50.5q-3 -8 -3 -18.5t1 -21t1 -21t-4 -19.5q2 -32 0.5 -57t-3 -49t-2 -49t2.5 -56l-2 -14h49q7 2 13.5 -2t11.5 2v28t-2 29q1 8 -1.5 17t-3.5 17t1.5 14.5t13.5 9.5q11 -5 11.5 -14t7.5 -17q-1 -7 1.5 -13t6 -11.5l7 -11 t5.5 -11.5q10 -6 17 -14.5t13.5 -18t13.5 -19t16 -16.5q6 2 11.5 -2.5t14.5 -1.5q5 0 8.5 4t3.5 9zM1245 367q-3 9 -8 17t-16 13q-5 5 -11.5 6t-9.5 -6q-9 -12 -13 -30.5t5 -30.5q3 -11 15.5 -12t23.5 4q9 6 12.5 17t1.5 22zM1249 31q0 40 -2 79t-2 76q0 14 1.5 27.5 t-1.5 26.5q-7 5 -14 5.5t-14 -1t-14.5 -3.5t-14.5 -1q-7 -12 -9 -24.5t-1.5 -25.5t1 -26.5t-0.5 -26.5q-5 -11 -5 -25t-2 -28q3 -10 2.5 -21.5t-0.5 -23.5t2 -23.5t9 -21.5q15 0 31 2.5t30 7.5q3 6 3.5 13.5t0.5 13.5zM1147 252q-16 -2 -33.5 -5t-28.5 -22q-4 -4 -5.5 -10.5 t-4 -13t-7 -10t-13.5 -1.5q-5 16 -4.5 29.5t0.5 30.5q-4 2 -8 1.5t-8 -1.5t-7.5 -1.5t-7.5 1.5q-9 -5 -14.5 -12t-8.5 -15q0 -60 1 -114t8 -113l6 -8q5 -4 11.5 -4t13 1t12 2t10.5 -1q-3 11 -2.5 21.5t1.5 21t1 20.5t-4 21q5 23 11 46.5t21 43.5q13 9 27 12t27 14 q2 17 6.5 33t-0.5 33zM938 61q9 18 12 36t1.5 37t-5.5 38t-8 39q1 6 -5.5 11.5t-15.5 11t-18 9.5t-12 7t-9 3.5t-8 -5.5q-22 3 -39 -8q-11 -7 -15.5 -16.5t-12.5 -14.5q-5 -3 -10.5 -1t-8.5 7q8 37 4 75t-10 77l-4 14h-16q-9 -3 -12.5 -9t-4 -13.5t-0.5 -15t-2 -13.5 q-6 -34 -4 -69.5t-4 -70.5q3 -34 0 -67t0 -64q0 -18 -3 -35.5t-1 -37.5q14 -8 32 -2t32 12q10 4 16.5 1.5t11.5 -8t10 -12t11 -10.5h13t13 2q11 6 24 17t24 23.5t18 26t6 25.5zM682 70q-7 22 -6.5 45t1 45t-1.5 43.5t-13 40.5q-26 15 -48 24l-16 11q-9 -2 -17.5 -1.5 t-17 0.5t-17 -2t-16.5 -8q-14 -8 -14 -22.5t-2 -30.5q11 -5 24 -3.5t25.5 2.5t23.5 -1.5t19 -15.5q-1 -4 0.5 -7l3 -6t1.5 -5.5t-3 -6.5q-2 -3 -2.5 -8t4.5 -8q3 -5 1.5 -11t-7.5 -8q-14 -5 -28 -4t-29 -2q-23 -9 -34.5 -31.5t-16.5 -44.5q-3 -5 -3 -10.5t1 -11t1.5 -11 t-3.5 -10.5q0 -14 9.5 -22t20.5 -13q3 4 7.5 7t9.5 -2q8 -3 15.5 0t14.5 8.5t14 12t15 11.5q11 2 13 -2t1.5 -11t-1 -15t4.5 -13q10 -5 17 -0.5t16 4.5q8 4 16.5 5.5t14.5 7.5zM508 371q-25 5 -53 3.5t-54 -3.5q-15 -2 -29.5 -5.5t-25.5 -11.5q-2 -32 -6.5 -66.5t-7.5 -66.5 q5 -54 3 -111.5t1 -113.5q8 0 15 2.5t14 -0.5q12 3 23 -1.5t24 1.5q2 32 2 64.5t2 64.5q5 11 14 15.5l19 9.5q4 2 8 1.5l8 -1t7.5 0t6.5 5.5l-2 57q-8 9 -19 8.5t-24 -0.5q-3 -3 -6 -5.5t-8 -2.5q-8 1 -11 6.5t-4 12t-1 14t-3 12.5q-3 6 0.5 11t8.5 10q20 6 39.5 9.5 t39.5 6.5l13 8q-3 19 1.5 34t4.5 32zM881 158q14 -29 7.5 -60t-26.5 -53q-5 -8 -11.5 -9.5t-12.5 -4.5q-13 1 -19.5 8.5t-9.5 17.5t-4.5 21t-3.5 20q5 16 6 34t10 32q7 4 11.5 10l9 12t9.5 10.5t13 4.5l6 -6q-2 -7 -0.5 -12t5 -8.5t6.5 -7.5t4 -9zM604 86q0 -15 -9 -26.5 t-20 -20.5q-8 -2 -15.5 -8t-18.5 0q-7 1 -9 5.5t-1 9.5t3 11t3 11q0 6 5 11.5t13 8.5q12 0 20 8q7 -2 15.5 -1.5t13.5 -8.5z" />
<glyph horiz-adv-x="2329" d="M1892 -70q-9 -12 -22.5 -16.5t-28 -6t-28.5 -4t-25 -9.5q-17 -2 -33.5 -4.5t-31.5 -8.5t-27 -16.5t-19 -28.5q-8 -21 -19.5 -40.5t-21.5 -39.5t-15.5 -41.5t-0.5 -46.5q2 -9 8.5 -12.5t14.5 -4t16 1t14 3.5q4 0 7 3l6 6t7 4.5t9 -1.5q9 -6 1 -12.5t-11 -13.5 q-17 -11 -37.5 -15.5t-40.5 4.5q-16 16 -24.5 34t-2.5 40q1 8 5 19.5t12.5 29.5t21.5 43t33 60q-16 7 -32 6t-32.5 -4.5t-32.5 -5.5t-32 4q9 12 25 17.5t30 10.5q13 3 28 3t29 1.5t26 6.5t20 18q7 11 8.5 22.5t1.5 23t-1 24t1 24.5q-11 3 -10.5 11.5t0.5 13.5 q-12 23 -30 34.5t-40 17t-44.5 6t-43.5 1.5q-23 -2 -45 -11t-41 -23.5t-34 -33t-23 -38.5q-14 -32 -11 -65.5t17 -67.5q-4 -25 5.5 -47t20 -44.5t16 -46t-6.5 -51.5q-11 -9 -26 -8t-28 6q-14 7 -21 19t-10.5 26.5t-6 29t-7.5 27.5q9 6 11.5 15.5t3.5 19.5t2.5 19.5t7.5 17.5 q3 11 1.5 27t-15.5 22q-18 -2 -38 -2.5t-39.5 -2t-37.5 -6.5t-33 -17q2 -22 5 -45.5t2 -46t-9.5 -42t-28.5 -34.5q-12 -3 -24 -0.5t-25 8.5q-11 9 -14.5 20t-4 23.5t1 25.5t1.5 25q7 15 14.5 32t16.5 32.5t21 28t30 18.5q15 -10 33.5 -6.5t33.5 8.5l101 2q4 4 6 11t2.5 14 t1 14.5t2.5 13.5q9 29 26 56.5t39.5 48.5t50.5 35t60 16q34 3 67 1t64 -18q1 -11 8 -16.5t15 -10t15 -10t9 -16.5q9 -15 12 -32.5t2 -35.5t-5 -36.5t-7 -34.5q47 0 91.5 8t86.5 16zM1061 -111q-9 -6 -17 -3t-16.5 7.5t-17 7.5t-17.5 -3q-14 -9 -19.5 -22t-9 -26.5 t-7.5 -26.5t-13 -24q-3 -28 -9.5 -54t-6.5 -52q-6 -3 -12.5 -7t-16.5 -1q-6 7 -7 17t0.5 19.5t3.5 19t1 17.5q8 9 10 21t2 24t0.5 23.5t6.5 21.5q-7 11 -6 26.5t-3 25.5q-5 1 -8.5 -0.5t-6.5 -3.5t-7 -2.5t-8 4.5q3 12 10 20t18 16q17 0 25 -12t14 -24q8 3 15 12t15 16 t16.5 9t19.5 -9zM789 -18q-1 -51 1.5 -103t4 -103.5t-1 -101.5t-14 -97t-34 -90t-61.5 -81q-65 -40 -143.5 -49.5t-153.5 10.5q-8 5 -16 12.5t-8 16.5q5 20 12.5 40.5t32.5 28.5q-6 -17 -14 -33t-11 -34q26 -17 59.5 -23t68.5 -3.5t69 12t61 24.5q29 10 46 28.5t28 41 t18.5 47t18.5 45.5q6 36 9 75.5t4.5 79t0.5 76.5t-2 68q4 11 3.5 23.5t-2 25.5t-2.5 25.5t1 23.5q-3 11 -12 7.5t-13 -5.5q-8 -8 -13 -17t-9.5 -18t-9.5 -17.5t-13 -14.5q3 -15 -4 -24t-16 -16.5t-17 -15.5t-8 -22q-42 -47 -77.5 -95t-69.5 -98q-8 -12 -14.5 -24t-22.5 -10 q-10 13 -11.5 28.5t0.5 31t4 32t-1 32.5q10 34 18.5 72t34.5 72q19 49 52.5 97t82.5 79q14 4 26.5 2t24 -7.5t22 -13t21.5 -14.5q10 11 16 24t9 25q25 -9 25 -41q-6 -5 -6 -8.5t2 -7.5t3.5 -8.5t0.5 -9.5zM1450 428q-36 -5 -71 -16t-69.5 -21t-69.5 -16.5t-72 -3.5 q-7 -6 -10.5 -23t-1.5 -33.5t11 -26.5t27 -3q6 8 9 23t16 20q9 -19 2.5 -36.5t-19.5 -31.5q-6 -4 -21 -4.5t-29.5 8.5t-23.5 31.5t-4 64.5q-5 7 -10 13.5t0 15.5q12 9 17.5 20t7.5 23t3 25t3 26q-3 2 -4 4.5t-4 4.5q-18 -12 -30.5 -27.5t-23 -32t-21 -33.5t-24.5 -32 q0 -15 -8 -26.5t-17.5 -22.5t-16 -23.5t-3.5 -28.5q-6 -6 -6.5 -15.5t-1.5 -19.5t-5.5 -17.5t-18.5 -8.5q-18 4 -24 15t-6.5 24.5t1.5 28t0 26.5q-3 19 -1.5 36.5t3.5 34.5t3.5 33.5t-1.5 34.5q-9 -5 -14 -13t-9 -16.5t-8.5 -17.5t-11.5 -16q-10 -12 -19 -28.5t-20 -30.5 t-25.5 -22t-35.5 -3q-12 17 -13 35.5t4.5 38t15 38t19.5 35.5q9 10 19 23.5t22 24t25.5 15.5t30.5 -1q10 -5 20 0q19 43 28.5 90.5t12.5 93.5l21 16q13 -4 14.5 -10.5t-1 -14t-6 -16t-1.5 -16.5q-8 -57 -19 -113t-16 -112q-1 -15 -3.5 -30t-4 -29.5t-1.5 -29.5t5 -30 q16 21 31 45t30.5 49t33.5 49t40 45q25 36 65 62q16 -13 31 -29.5t31 -27.5q0 -19 -2.5 -41.5t2.5 -40.5q56 12 106 20.5t103 24.5q8 -5 12 -10.5t2 -16.5zM2132 1190q-2 29 -10 60t-23 59t-37 51t-53 37q12 18 25.5 16.5t25.5 -12t22.5 -25.5t18.5 -24q32 -39 46.5 -85.5 t15.5 -95.5t-10 -98t-29 -94q-15 -35 -36 -68t-48 -62t-59.5 -52.5t-69.5 -38.5q28 20 54 43.5t44 54.5q16 16 32 34t29.5 38t23.5 43t14 49q24 40 26.5 83.5t-2.5 86.5zM1948 983q-6 -15 -18.5 -30.5t-30.5 -20.5q-16 5 -24 13.5t-17 21.5l4 28q5 -2 6.5 -6t3 -9t3.5 -10 t9 -7q11 -4 19.5 6t13.5 16q8 47 1 92.5t-32 85.5l-12 -6q-25 -23 -46.5 -42t-35.5 -50l-16 -8q-28 -28 -49 -60t-45 -55q-12 -2 -18 3.5t-8.5 13.5t-3.5 17.5t-5 16.5q3 8 1.5 18.5t-7.5 16.5q-6 1 -9 -1.5t-4.5 -6t-3 -7.5t-4.5 -5q-15 -16 -29.5 -23.5t-35.5 -9.5 q-23 6 -28.5 18t-3.5 28t8 34t5 35q8 30 26.5 53.5t41.5 48.5q10 2 21.5 6.5t23 6t22 -1.5t19.5 -15l8 -12q-12 -35 -15 -73t-8 -75q2 -6 5.5 -13t11.5 -7q12 0 18 5.5t10 13t8 16t11 14.5q45 38 83.5 78.5t76.5 81.5q13 -5 17 -16t5.5 -24t2.5 -25.5t7 -21.5q11 -5 7 -16 q15 -31 15 -64t-5 -67zM1669 1384q-6 -11 -19.5 -20.5t-29.5 -7.5q-3 6 -8 13.5t-16 -1.5q-29 -23 -58.5 -47.5t-55 -51.5t-45.5 -57.5t-32 -64.5q-7 -42 -10.5 -86.5t2 -87.5t23 -80.5t53.5 -65.5q10 -8 21 -10.5t23 -2.5t25 1t25 0q12 8 21 17.5t22 17.5q1 -9 -3 -15.5 t-11 -11.5t-15 -9.5t-14 -10.5q-31 -13 -66.5 -5t-60.5 29q-22 20 -36 43.5t-19 51.5q-10 4 -10.5 9.5t1.5 12t3 12.5t-7 11q4 7 2.5 14t-4.5 14.5t-4 15.5t4 17q-2 61 17.5 114t52.5 98.5t76 85.5t88 75q7 1 18 3.5t20.5 2.5t17 -4.5t9.5 -18.5zM1294 1020q-14 -34 -45 -60 t-71 -26q-41 0 -77 15.5t-54 49.5q-16 23 -16 49t5 54q2 9 6.5 16.5t9 14t8.5 14t5 16.5q28 23 62 30t69 -5q7 -6 15.5 -9t7.5 -16q-3 -4 -6.5 -3t-7.5 3.5t-9 5t-10 2.5q-28 8 -54.5 -1.5t-47.5 -30.5q-16 -25 -24.5 -54.5t3.5 -58.5q44 -60 111 -70q9 4 19.5 5.5t20.5 3 t19.5 6t17.5 14.5q6 4 10.5 11.5t9 14t10 10t13.5 -0.5zM979 963q-11 -25 -18.5 -50.5t-26.5 -48.5q-14 -6 -25.5 1t-17.5 20q-15 35 -21 75t1 78q-3 2 -2 17t2.5 33.5t1 36t-6.5 26.5q-13 -31 -14 -63.5t-1.5 -64t-7.5 -62t-32 -56.5q-3 -3 -14 -6t-24.5 2.5t-26.5 23.5 t-19 58q6 38 8 74t9 73q1 7 -1 14.5t-3.5 15t-0.5 15t9 13.5q6 3 13.5 0.5t12.5 -8.5q1 -32 -2 -65.5t-5.5 -65t-1 -59.5t12.5 -48q15 -10 21.5 -4t10 18t5 25t6.5 18q4 21 5 43t1.5 43.5t2.5 43t8 42.5q5 6 9 15.5t9 17t12 10t19 -5.5q14 -40 15 -78.5t-0.5 -76.5t-1 -77 t13.5 -79q2 -6 9 -8t13 6q1 1 4.5 11.5t9 23t13 23t16.5 10.5zM660 901q-4 -3 -8.5 -7t-20.5 -8.5t-49 -9.5t-94 -10q-70 -6 -133 -17.5t-128 -33.5q-5 -11 -12.5 -14t-15 -2t-15.5 5l-14 7q-2 9 2.5 15t11 11t12 10t7.5 13q12 25 21.5 49.5t17.5 48.5q-3 13 4.5 27t13.5 27 q45 103 86 208.5t66 217.5q-3 12 -2.5 23.5t8.5 19.5q12 4 16 -4.5t11 -14.5q-14 -79 -41 -153.5t-57.5 -147t-60.5 -146t-50 -151.5l4 -4q76 13 148.5 27t154.5 16q25 -5 55.5 -4t54.5 10zM1399 -315q12 26 3.5 56.5t-24.5 53.5q-9 -12 -11.5 -26.5t-4.5 -28.5 q3 -17 9 -34.5t28 -20.5zM1124 -188q-5 -23 -7.5 -48t5.5 -47q6 -6 17 -5.5t20 7t13.5 18t-2.5 27.5q2 9 4.5 23t2 27t-5.5 23.5t-18 12.5zM715 -12q-3 11 -11.5 17.5t-19 8.5t-22.5 1t-21 -5q-22 -18 -43.5 -38.5t-38.5 -43.5q-10 -32 -24 -62t-26.5 -60.5t-19.5 -62.5 t-3 -67q6 -2 7.5 2t4.5 7q28 37 59.5 72t61.5 71.5t55.5 75.5t40.5 84zM1180 426q2 5 5 13t3.5 15.5t-2 13t-10.5 7.5l-11 -59q11 2 11.5 4.5t3.5 5.5zM897 471q-14 3 -26.5 -6.5t-20.5 -22.5q-11 -14 -21.5 -29.5t-17.5 -32t-9 -33.5t5 -34q11 -5 15 1.5t8 13.5 q21 23 39 47t32 55zM1649 1178q-5 4 -8.5 2.5t-6 -4l-5 -5t-5.5 -0.5q-23 -11 -38 -29.5t-23.5 -40.5t-12 -46t-2.5 -47q7 -2 13 1t12 7t12 6.5t13 1.5q5 14 17 29t21 31.5t11.5 33t-11.5 33.5q6 0 9 3t4 7.5t0.5 9t-0.5 7.5z" />
<glyph horiz-adv-x="946" d="M751 1465l-278 113l-280 -113l-59 134l344 173l335 -170z" />
<glyph horiz-adv-x="1034" d="M901 1659q-47 -83 -112 -126t-145 -43q-48 0 -83 13t-76 38.5t-59 35t-44 9.5q-36 0 -64.5 -21t-53.5 -65l-130 88q46 83 111 126t146 43q48 0 83 -13t76 -38.5t59 -35t44 -9.5q35 0 63.5 21t54.5 65z" />
<glyph horiz-adv-x="850" d="M715 1759q0 -58 -19 -108.5t-56.5 -89t-92.5 -60t-125 -21.5q-69 0 -123.5 22t-91 60.5t-55 89t-18.5 107.5h155q0 -24 10 -45.5t28 -37.5t43 -25t54 -9q31 0 56 9t42.5 25t26.5 37t9 46h157z" />
<glyph horiz-adv-x="580" d="M447 1626q0 -32 -12 -60.5t-34 -50.5t-50.5 -34t-60.5 -12t-60.5 12t-50 33.5t-33.5 50.5t-12 61t12 60.5t33.5 50t50 33.5t60.5 12t60.5 -12t50.5 -33.5t34 -50t12 -60.5z" />
<glyph horiz-adv-x="813" d="M680 1695q0 -54 -20.5 -99.5t-59 -78t-90.5 -50t-114 -17.5t-110.5 14t-82.5 42t-51.5 71.5t-17.5 100.5q0 54 20.5 99.5t59 78t90.5 50t114 17.5t110.5 -14t82.5 -42t51.5 -71.5t17.5 -100.5zM503 1686q0 28 -6 48.5t-17.5 33.5t-29.5 19.5t-41 6.5q-21 0 -39 -7 t-31.5 -20.5t-21 -33.5t-7.5 -45q0 -28 6 -49t18 -34t30 -19.5t42 -6.5q21 0 38.5 7t30.5 20.5t20.5 33.5t7.5 46z" />
<glyph horiz-adv-x="668" d="M286 1205l-152 80l212 375l189 -98z" />
<glyph horiz-adv-x="702" d="M682 1328q0 -29 -11 -54.5t-30.5 -45t-45.5 -30.5t-54 -11q-29 0 -55 11t-45.5 30.5t-30.5 45t-11 54.5t11 55t30.5 45.5t45.5 30.5t55 11t55 -11t45 -30.5t30 -45.5t11 -55zM302 1328q0 -29 -11 -54.5t-30.5 -45t-45 -30.5t-54.5 -11t-55 10.5t-45.5 30t-30 45.5 t-10.5 55t11 55t30.5 45.5t45 30.5t54.5 11t55 -11t45 -30.5t30 -45.5t11 -55z" />
<glyph horiz-adv-x="1913" d="M495 191q37 -3 80 -10t83 -16v-165h-602v165q40 9 86 16t92 10v625h-205v202h205v74q0 105 30.5 183.5t97.5 131t173 79t256 26.5q88 0 187.5 -9t194.5 -24v-422q0 -24 -1 -50t-3.5 -52.5t-5.5 -51t-6 -44.5l3 -1q19 41 49.5 75t69.5 57t86.5 36t100.5 13q91 0 161 -32.5 t117.5 -93.5t72 -150t24.5 -202q0 -129 -36.5 -235.5t-106.5 -183.5t-171.5 -119.5t-231.5 -42.5q-62 0 -113 3t-96 9.5t-88 15.5t-86 20v1260q-21 2 -43 4.5t-44 4t-42.5 2.5t-38.5 1q-129 0 -189 -50.5t-60 -161.5v-70h228v-202h-228v-625zM1566 535q0 71 -10.5 125 t-32 90t-54.5 54t-77 18q-35 0 -64.5 -12.5t-53.5 -35t-43 -53t-32 -67t-19.5 -77.5t-6.5 -83v-287q29 -10 61.5 -14t75.5 -4q55 0 102 18.5t81 60t53.5 107t19.5 160.5z" />
<glyph horiz-adv-x="2001" d="M1538 0v652q0 39 -6.5 70.5t-21 53t-39 33t-60.5 11.5q-50 0 -93 -26t-75 -71t-50 -104.5t-18 -127.5v-300q37 -3 76 -8.5t74 -13.5v-169h-557v165q33 9 70.5 16t75.5 10v1097q-40 6 -81.5 9t-77.5 3q-70 0 -119 -14t-80.5 -41t-46 -67.5t-14.5 -94.5v-65h243v-202h-243 v-625q37 -3 74.5 -10t71.5 -16v-165h-585v165q40 9 86 16t92 10v625h-205v202h205v74q0 105 30.5 183.5t97.5 131t173.5 79t256.5 26.5q88 0 188 -9t195 -24v-421q0 -23 -1 -50t-3 -54t-5.5 -54t-8.5 -49h3q22 41 55 76.5t75 60t93.5 38t110.5 13.5q87 0 145 -25.5t93 -69.5 t50.5 -103t15.5 -125v-525q42 -3 86 -10t80 -16v-165h-426z" />
<glyph horiz-adv-x="1317" d="M1173 -77q0 -105 -21.5 -184.5t-69 -134t-125 -83t-186.5 -28.5q-33 0 -73 4t-68 9l17 224q27 -8 59 -13t58 -5q41 0 69 9.5t45.5 31t25.5 57t8 87.5v919h-417v-625q37 -3 79.5 -10t83.5 -16v-165h-602v165q41 9 87.5 16t90.5 10v625h-205v202h205v36q0 122 39.5 210.5 t112 143t171.5 79.5t221 25q83 0 171 -11t164 -29l-48 -216q-32 9 -67.5 16.5t-72.5 12.5t-72.5 8t-66.5 3q-80 0 -136 -15.5t-90 -45t-49.5 -71.5t-15.5 -97v-49h678v-1095z" />
<glyph horiz-adv-x="1929" d="M1549 0l-374 516v-325q36 -3 68.5 -8.5t60.5 -13.5v-169h-536v165q33 9 70.5 16t75.5 10v1097q-40 6 -81.5 9t-77.5 3q-70 0 -119 -14t-80.5 -41t-46 -67.5t-14.5 -94.5v-65h243v-202h-243v-625q37 -3 74.5 -10t71.5 -16v-165h-585v165q40 9 86 16t92 10v625h-205v202 h205v74q0 105 30.5 183.5t97.5 131t173.5 79t256.5 26.5q88 0 188 -9t195 -24v-922l233 274q-29 4 -53.5 8t-42.5 10v169h549v-169q-29 -7 -65 -12.5t-70 -8.5l-258 -279l276 -356q33 -4 70 -10t76 -13v-170h-341z" />
<glyph horiz-adv-x="358" d="M358 2007v-2662h-358v2662h358z" />
<glyph horiz-adv-x="1440" d="M1436 -414q-94 -15 -170 -14t-140.5 10.5t-123 23.5t-117.5 25t-124 15t-142 -6v233q90 11 161.5 7.5t133.5 -14t119.5 -23.5t118 -23t129.5 -12t155 11v-233zM1372 713q0 -173 -53.5 -309.5t-145 -231.5t-214.5 -145.5t-262 -50.5q-157 0 -275 49t-196.5 139t-118 218.5 t-39.5 287.5q0 172 53.5 308.5t145 231.5t214 145.5t261.5 50.5q157 0 275 -49t197 -139t118.5 -218t39.5 -287zM1089 681q0 111 -22.5 200.5t-68.5 152.5t-115 97.5t-161 34.5q-80 0 -148 -30t-117.5 -89t-77.5 -145.5t-28 -199.5q0 -110 22.5 -200t68 -153t114.5 -97 t162 -34q80 0 148 30t118 88.5t77.5 145.5t27.5 199z" />
</font>
</defs>
</svg>
